<svg width="24" height="24" viewBox="0 0 24 24" fill="none" xmlns="http://www.w3.org/2000/svg">
<g clip-path="url(#clip0_426_16137)">
<path d="M12.0002 4.53491C7.884 4.53491 4.53516 7.88376 4.53516 12C4.53516 16.1162 7.884 19.4651 12.0002 19.4651C16.1165 19.4651 19.4653 16.1162 19.4653 12C19.4653 7.88376 16.1165 4.53491 12.0002 4.53491ZM12.0002 18.5276C8.40089 18.5276 5.47266 15.5993 5.47266 12C5.47266 8.40065 8.40089 5.47241 12.0002 5.47241C15.5996 5.47241 18.5278 8.40065 18.5278 12C18.5278 15.5993 15.5996 18.5276 12.0002 18.5276Z" fill="#150A02"/>
<path d="M12 3.15436C12.1243 3.15436 12.2435 3.10497 12.3315 3.01707C12.4194 2.92916 12.4688 2.80993 12.4688 2.68561V0.46875C12.4688 0.34443 12.4194 0.225201 12.3315 0.137294C12.2435 0.049386 12.1243 0 12 0C11.8757 0 11.7565 0.049386 11.6685 0.137294C11.5806 0.225201 11.5312 0.34443 11.5312 0.46875V2.68561C11.5312 2.80993 11.5806 2.92916 11.6685 3.01707C11.7565 3.10497 11.8757 3.15436 12 3.15436Z" fill="#150A02"/>
<path d="M12 20.8457C11.8757 20.8457 11.7565 20.8951 11.6685 20.983C11.5806 21.0709 11.5312 21.1901 11.5312 21.3145V23.5313C11.5312 23.6556 11.5806 23.7749 11.6685 23.8628C11.7565 23.9507 11.8757 24.0001 12 24.0001C12.1243 24.0001 12.2435 23.9507 12.3315 23.8628C12.4194 23.7749 12.4688 23.6556 12.4688 23.5313V21.3145C12.4688 21.1901 12.4194 21.0709 12.3315 20.983C12.2435 20.8951 12.1243 20.8457 12 20.8457Z" fill="#150A02"/>
<path d="M6.93693 4.16791C6.99909 4.27558 7.10148 4.35415 7.22157 4.38632C7.34165 4.4185 7.4696 4.40166 7.57727 4.3395C7.68494 4.27734 7.7635 4.17495 7.79568 4.05487C7.82786 3.93478 7.81102 3.80683 7.74886 3.69916L6.6404 1.7793C6.60985 1.72556 6.56897 1.6784 6.52011 1.64052C6.47125 1.60265 6.41539 1.57481 6.35573 1.55861C6.29607 1.54241 6.23379 1.53818 6.17249 1.54615C6.11119 1.55411 6.05207 1.57413 5.99853 1.60504C5.94499 1.63595 5.8981 1.67714 5.86055 1.72625C5.823 1.77536 5.79553 1.83141 5.77973 1.89117C5.76393 1.95094 5.76011 2.01324 5.76848 2.07449C5.77686 2.13574 5.79726 2.19472 5.82853 2.24805L6.93693 4.16791Z" fill="#150A02"/>
<path d="M17.0632 19.832C17.001 19.7244 16.8987 19.6458 16.7786 19.6136C16.6585 19.5815 16.5305 19.5983 16.4229 19.6605C16.3152 19.7226 16.2366 19.825 16.2045 19.9451C16.1723 20.0652 16.1891 20.1931 16.2513 20.3008L17.3597 22.2207C17.3903 22.2744 17.4312 22.3216 17.48 22.3594C17.5289 22.3973 17.5847 22.4251 17.6444 22.4413C17.7041 22.4575 17.7663 22.4618 17.8276 22.4538C17.8889 22.4458 17.9481 22.4258 18.0016 22.3949C18.0551 22.364 18.102 22.3228 18.1396 22.2737C18.1771 22.2246 18.2046 22.1685 18.2204 22.1088C18.2362 22.049 18.24 21.9867 18.2317 21.9255C18.2233 21.8642 18.2029 21.8052 18.1716 21.7519L17.0632 19.832Z" fill="#150A02"/>
<path d="M4.16767 6.93644L2.24781 5.82804C2.19448 5.79677 2.13549 5.77637 2.07424 5.76799C2.01299 5.75962 1.95069 5.76344 1.89093 5.77924C1.83116 5.79504 1.77511 5.82251 1.72601 5.86006C1.6769 5.89761 1.63571 5.94451 1.6048 5.99804C1.57389 6.05158 1.55387 6.1107 1.5459 6.172C1.53793 6.23331 1.54217 6.29558 1.55837 6.35524C1.57456 6.4149 1.6024 6.47076 1.64028 6.51962C1.67815 6.56848 1.72532 6.60936 1.77906 6.63991L3.69892 7.74837C3.80659 7.81053 3.93454 7.82737 4.05462 7.79519C4.17471 7.76301 4.2771 7.68445 4.33926 7.57678C4.40142 7.46911 4.41826 7.34116 4.38608 7.22108C4.3539 7.10099 4.27534 6.99861 4.16767 6.93644Z" fill="#150A02"/>
<path d="M22.2207 17.3597L20.3008 16.2513C20.1931 16.1891 20.0652 16.1723 19.9451 16.2045C19.825 16.2366 19.7226 16.3152 19.6605 16.4229C19.5983 16.5305 19.5815 16.6585 19.6136 16.7786C19.6458 16.8987 19.7244 17.001 19.832 17.0632L21.7519 18.1716C21.8052 18.2029 21.8642 18.2233 21.9255 18.2317C21.9867 18.24 22.049 18.2362 22.1088 18.2204C22.1685 18.2046 22.2246 18.1771 22.2737 18.1396C22.3228 18.102 22.364 18.0551 22.3949 18.0016C22.4258 17.9481 22.4458 17.8889 22.4538 17.8276C22.4618 17.7663 22.4575 17.7041 22.4413 17.6444C22.4251 17.5847 22.3973 17.5289 22.3594 17.48C22.3216 17.4312 22.2744 17.3903 22.2207 17.3597Z" fill="#150A02"/>
<path d="M3.15436 12C3.15436 11.8757 3.10497 11.7565 3.01707 11.6685C2.92916 11.5806 2.80993 11.5312 2.68561 11.5312H0.46875C0.34443 11.5312 0.225201 11.5806 0.137294 11.6685C0.049386 11.7565 0 11.8757 0 12C0 12.1243 0.049386 12.2435 0.137294 12.3315C0.225201 12.4194 0.34443 12.4688 0.46875 12.4688H2.68561C2.80993 12.4688 2.92916 12.4194 3.01707 12.3315C3.10497 12.2435 3.15436 12.1243 3.15436 12Z" fill="#150A02"/>
<path d="M23.5313 11.5312H21.3145C21.1901 11.5312 21.0709 11.5806 20.983 11.6685C20.8951 11.7565 20.8457 11.8757 20.8457 12C20.8457 12.1243 20.8951 12.2435 20.983 12.3315C21.0709 12.4194 21.1901 12.4688 21.3145 12.4688H23.5313C23.6556 12.4688 23.7749 12.4194 23.8628 12.3315C23.9507 12.2435 24.0001 12.1243 24.0001 12C24.0001 11.8757 23.9507 11.7565 23.8628 11.6685C23.7749 11.5806 23.6556 11.5312 23.5313 11.5312Z" fill="#150A02"/>
<path d="M3.69892 16.2513L1.77906 17.3597C1.72532 17.3903 1.67815 17.4312 1.64028 17.48C1.6024 17.5289 1.57456 17.5847 1.55837 17.6444C1.54217 17.7041 1.53793 17.7663 1.5459 17.8276C1.55387 17.8889 1.57389 17.9481 1.6048 18.0016C1.63571 18.0551 1.6769 18.102 1.72601 18.1396C1.77511 18.1771 1.83116 18.2046 1.89093 18.2204C1.95069 18.2362 2.01299 18.24 2.07424 18.2317C2.13549 18.2233 2.19448 18.2029 2.24781 18.1716L4.16767 17.0632C4.27534 17.001 4.3539 16.8987 4.38608 16.7786C4.41826 16.6585 4.40142 16.5305 4.33926 16.4229C4.2771 16.3152 4.17471 16.2366 4.05462 16.2045C3.93454 16.1723 3.80659 16.1891 3.69892 16.2513Z" fill="#150A02"/>
<path d="M20.067 7.81123C20.1492 7.81123 20.2298 7.78955 20.3009 7.74837L22.2208 6.63991C22.2745 6.60936 22.3217 6.56848 22.3596 6.51962C22.3974 6.47076 22.4253 6.4149 22.4415 6.35524C22.4577 6.29558 22.4619 6.23331 22.4539 6.172C22.446 6.1107 22.426 6.05158 22.395 5.99804C22.3641 5.94451 22.3229 5.89761 22.2738 5.86006C22.2247 5.82251 22.1687 5.79504 22.1089 5.77924C22.0491 5.76344 21.9868 5.75962 21.9256 5.76799C21.8644 5.77637 21.8054 5.79677 21.752 5.82804L19.8322 6.93644C19.7427 6.98804 19.6728 7.06772 19.6333 7.16312C19.5938 7.25852 19.5869 7.36429 19.6137 7.46401C19.6405 7.56374 19.6994 7.65183 19.7814 7.71462C19.8634 7.7774 19.9638 7.81136 20.067 7.81123Z" fill="#150A02"/>
<path d="M7.57725 19.6605C7.46958 19.5983 7.34164 19.5815 7.22156 19.6136C7.10148 19.6458 6.9991 19.7244 6.93693 19.832L5.82853 21.7519C5.79726 21.8052 5.77686 21.8642 5.76848 21.9254C5.76011 21.9867 5.76393 22.049 5.77973 22.1088C5.79553 22.1685 5.823 22.2246 5.86055 22.2737C5.8981 22.3228 5.94499 22.364 5.99853 22.3949C6.05207 22.4258 6.11119 22.4458 6.17249 22.4538C6.23379 22.4618 6.29607 22.4575 6.35573 22.4413C6.41539 22.4251 6.47125 22.3973 6.52011 22.3594C6.56897 22.3215 6.60985 22.2744 6.6404 22.2206L7.74886 20.3008C7.81101 20.1931 7.82785 20.0652 7.79566 19.9451C7.76348 19.825 7.68491 19.7226 7.57725 19.6605Z" fill="#150A02"/>
<path d="M16.4229 4.33948C16.5305 4.40163 16.6585 4.41848 16.7786 4.3863C16.8986 4.35413 17.001 4.27557 17.0632 4.16791L18.1716 2.24805C18.2029 2.19472 18.2233 2.13574 18.2316 2.07449C18.24 2.01324 18.2362 1.95094 18.2204 1.89117C18.2046 1.83141 18.1771 1.77536 18.1396 1.72625C18.102 1.67714 18.0551 1.63595 18.0016 1.60504C17.9481 1.57413 17.8889 1.55411 17.8276 1.54615C17.7663 1.53818 17.7041 1.54241 17.6444 1.55861C17.5847 1.57481 17.5289 1.60265 17.48 1.64052C17.4312 1.6784 17.3903 1.72556 17.3597 1.7793L16.2513 3.69916C16.1891 3.80683 16.1723 3.93478 16.2045 4.05486C16.2366 4.17494 16.3152 4.27732 16.4229 4.33948Z" fill="#150A02"/>
</g>
<defs>
<clipPath id="clip0_426_16137">
<rect width="24" height="24" fill="white"/>
</clipPath>
</defs>
</svg>
