<svg width="24" height="24" viewBox="0 0 24 24" fill="none" xmlns="http://www.w3.org/2000/svg">
<path d="M16.042 0.571289C16.0534 1.68468 15.5775 2.77112 14.9434 3.58887L14.9424 3.58984C14.2712 4.45946 13.179 5.13392 12.1045 5.25586C12.0679 4.18813 12.5826 3.09018 13.2393 2.29102V2.29004C13.9205 1.45639 15.0288 0.792296 16.042 0.571289Z" fill="#150A02" stroke="#150A02"/>
<path d="M21.5553 8.05167C20.3268 6.51118 18.6003 5.61719 16.9698 5.61719C14.8174 5.61719 13.9069 6.64768 12.4114 6.64768C10.8694 6.64768 9.69789 5.62019 7.8364 5.62019C6.00791 5.62019 4.06092 6.73768 2.82643 8.64867C1.09094 11.3397 1.38794 16.3991 4.20042 20.7086C5.20692 22.2506 6.55091 23.9846 8.3089 23.9996C9.87339 24.0146 10.3144 22.9961 12.4339 22.9856C14.5534 22.9736 14.9554 24.0131 16.5169 23.9966C18.2763 23.9831 19.6938 22.0616 20.7003 20.5196C21.4218 19.4141 21.6903 18.8576 22.2498 17.6096C18.1803 16.0601 17.5278 10.2732 21.5553 8.05167Z" fill="#150A02"/>
</svg>
