<svg width="24" height="24" viewBox="0 0 24 24" fill="none" xmlns="http://www.w3.org/2000/svg">
<path d="M21.835 5.1945L18.0242 0.627656C17.8906 0.467531 17.6929 0.375 17.4843 0.375C17.2758 0.375 17.0781 0.467531 16.9445 0.627656L13.1337 5.1945C12.9588 5.40403 12.921 5.69583 13.0367 5.943C13.1524 6.19017 13.4006 6.34809 13.6736 6.34809H15.0778V8.14298C15.0778 9.21117 14.5775 10.1899 13.8036 10.6363L12.0003 11.6751L10.1968 10.6365C9.4225 10.1899 8.92225 9.21117 8.92225 8.14298V6.34809H10.3265C10.5994 6.34809 10.8476 6.19017 10.9633 5.943C11.079 5.69583 11.0412 5.40403 10.8663 5.1945L7.05555 0.627656C6.92196 0.467531 6.72419 0.375 6.51569 0.375C6.30719 0.375 6.10943 0.467531 5.97583 0.627656L2.16499 5.1945C1.99015 5.40403 1.95232 5.69583 2.06801 5.943C2.18369 6.19017 2.43194 6.34809 2.70485 6.34809H4.10908V8.14298C4.10908 10.6689 5.3215 13.0752 7.24338 14.4545C5.3215 15.8337 4.10908 18.2394 4.10908 20.7646V22.9212C4.10908 23.3095 4.4239 23.6243 4.81221 23.6243C5.20052 23.6243 5.51533 23.3095 5.51533 22.9212V20.7646C5.51533 18.5348 6.71266 16.3457 8.49433 15.3175L14.5059 11.8546C15.7261 11.1509 16.4841 9.72863 16.4841 8.14294V5.64492C16.4841 5.25661 16.1693 4.9418 15.781 4.9418H15.1761L17.4844 2.17552L19.7927 4.9418H19.1879C18.7996 4.9418 18.4848 5.25661 18.4848 5.64492V8.14294C18.4848 10.3735 17.2874 12.5632 15.5059 13.5913L9.49366 17.0533C8.27383 17.7584 7.51605 19.1805 7.51605 20.7646V22.9211C7.51605 23.3094 7.83086 23.6243 8.21918 23.6243C8.60749 23.6243 8.9223 23.3094 8.9223 22.9211V20.7646C8.9223 19.6974 9.42283 18.7185 10.1964 18.2713L11.9997 17.2329L13.8027 18.2707C14.5773 18.7185 15.0779 19.6974 15.0779 20.7646V22.9211C15.0779 23.3094 15.3927 23.6243 15.781 23.6243C16.1693 23.6243 16.4841 23.3094 16.4841 22.9211V20.7646C16.4841 19.1805 15.7263 17.7584 14.5054 17.0526L13.4089 16.4215L15.4161 15.2658L15.5053 15.3173C17.2874 16.3457 18.4848 18.5348 18.4848 20.7646V22.9212C18.4848 23.3095 18.7996 23.6243 19.1879 23.6243C19.5762 23.6243 19.891 23.3095 19.891 22.9212V20.7646C19.891 18.2394 18.6786 15.8337 16.7567 14.4545C18.6786 13.0752 19.891 10.6689 19.891 8.14298V6.34809H21.2952C21.5681 6.34809 21.8164 6.19017 21.9321 5.943C22.0478 5.69583 22.0099 5.40403 21.8351 5.1945H21.835ZM5.51533 8.14298V5.64497C5.51533 5.25666 5.20052 4.94184 4.81221 4.94184H4.20733L6.51565 2.17556L8.82396 4.94184H8.21908C7.83077 4.94184 7.51596 5.25666 7.51596 5.64497V8.14298C7.51596 9.72867 8.27397 11.1509 9.4946 11.8549L10.5916 12.4866L8.58386 13.6431L8.4948 13.5917C6.71266 12.5633 5.51533 10.3736 5.51533 8.14298Z" fill="#150A02"/>
</svg>
