<svg width="24" height="24" viewBox="0 0 24 24" fill="none" xmlns="http://www.w3.org/2000/svg">
<mask id="path-1-inside-1_3572_19997" fill="white">
<path d="M22.0569 6.54639C22.0569 6.1322 21.7214 5.79639 21.3069 5.79639H17.1177C16.7424 3.36905 14.5938 1.5 12 1.5C9.40617 1.5 7.25757 3.36905 6.88229 5.79639H2.69312C2.27856 5.79639 1.94312 6.1322 1.94312 6.54639C1.94312 6.96057 2.27856 7.29639 2.69312 7.29639H3.05022L4.43628 19.1843C4.65674 21.0747 6.25854 22.5 8.16138 22.5H15.8386C17.7415 22.5 19.3433 21.0747 19.5637 19.1843L20.9498 7.29639H21.3069C21.7214 7.29639 22.0569 6.96057 22.0569 6.54639ZM12 3C13.7617 3 15.2346 4.20035 15.5945 5.79639H8.40555C8.7654 4.20035 10.2383 3 12 3ZM18.074 19.0107C17.9414 20.1449 16.9805 21 15.8386 21H8.16138C7.01953 21 6.05859 20.1449 5.92603 19.0107L4.56006 7.29639H19.4399L18.074 19.0107Z"/>
</mask>
<path d="M22.0569 6.54639C22.0569 6.1322 21.7214 5.79639 21.3069 5.79639H17.1177C16.7424 3.36905 14.5938 1.5 12 1.5C9.40617 1.5 7.25757 3.36905 6.88229 5.79639H2.69312C2.27856 5.79639 1.94312 6.1322 1.94312 6.54639C1.94312 6.96057 2.27856 7.29639 2.69312 7.29639H3.05022L4.43628 19.1843C4.65674 21.0747 6.25854 22.5 8.16138 22.5H15.8386C17.7415 22.5 19.3433 21.0747 19.5637 19.1843L20.9498 7.29639H21.3069C21.7214 7.29639 22.0569 6.96057 22.0569 6.54639ZM12 3C13.7617 3 15.2346 4.20035 15.5945 5.79639H8.40555C8.7654 4.20035 10.2383 3 12 3ZM18.074 19.0107C17.9414 20.1449 16.9805 21 15.8386 21H8.16138C7.01953 21 6.05859 20.1449 5.92603 19.0107L4.56006 7.29639H19.4399L18.074 19.0107Z" fill="#150A02"/>
<path d="M17.1177 5.79639L1.30556 8.241L3.40127 21.7964H17.1177V5.79639ZM6.88229 5.79639V21.7964H20.5987L22.6944 8.241L6.88229 5.79639ZM3.05022 7.29639L18.9426 5.44343L17.2931 -8.70361H3.05022V7.29639ZM4.43628 19.1843L-11.4561 21.0373L-11.456 21.0377L4.43628 19.1843ZM19.5637 19.1843L35.456 21.0377L35.4561 21.0373L19.5637 19.1843ZM20.9498 7.29639V-8.70361H6.7069L5.05744 5.44343L20.9498 7.29639ZM21.3069 7.29639V23.2964H21.3069L21.3069 7.29639ZM15.5945 5.79639V21.7964H35.6035L31.2027 2.27731L15.5945 5.79639ZM8.40555 5.79639L-7.20266 2.27731L-11.6035 21.7964H8.40555V5.79639ZM18.074 19.0107L33.9658 20.8683L33.9663 20.8639L18.074 19.0107ZM5.92603 19.0107L-9.9663 20.8639L-9.96578 20.8683L5.92603 19.0107ZM4.56006 7.29639V-8.70361H-13.4141L-11.3323 9.14953L4.56006 7.29639ZM19.4399 7.29639L35.3323 9.14953L37.4141 -8.70361H19.4399V7.29639ZM22.0569 6.54639H38.0569C38.0569 -2.69927 30.5631 -10.2036 21.3069 -10.2036V5.79639V21.7964C12.8798 21.7964 6.05688 14.9637 6.05688 6.54639H22.0569ZM21.3069 5.79639V-10.2036H17.1177V5.79639V21.7964H21.3069V5.79639ZM17.1177 5.79639L32.9298 3.35178C31.3269 -7.01629 22.3432 -14.5 12 -14.5V1.5V17.5C6.84444 17.5 2.15795 13.7544 1.30556 8.241L17.1177 5.79639ZM12 1.5V-14.5C1.65679 -14.5 -7.32691 -7.01629 -8.92985 3.35178L6.88229 5.79639L22.6944 8.241C21.842 13.7544 17.1556 17.5 12 17.5V1.5ZM6.88229 5.79639V-10.2036H2.69312V5.79639V21.7964H6.88229V5.79639ZM2.69312 5.79639V-10.2036C-6.56308 -10.2036 -14.0569 -2.69927 -14.0569 6.54639H1.94312H17.9431C17.9431 14.9637 11.1202 21.7964 2.69312 21.7964V5.79639ZM1.94312 6.54639H-14.0569C-14.0569 15.792 -6.56308 23.2964 2.69312 23.2964V7.29639V-8.70361C11.1202 -8.70361 17.9431 -1.8709 17.9431 6.54639H1.94312ZM2.69312 7.29639V23.2964H3.05022V7.29639V-8.70361H2.69312V7.29639ZM3.05022 7.29639L-12.8421 9.14934L-11.4561 21.0373L4.43628 19.1843L20.3286 17.3314L18.9426 5.44343L3.05022 7.29639ZM4.43628 19.1843L-11.456 21.0377C-10.2947 30.9954 -1.85859 38.5 8.16138 38.5V22.5V6.5C14.3757 6.5 19.6082 11.154 20.3286 17.3309L4.43628 19.1843ZM8.16138 22.5V38.5H15.8386V22.5V6.5H8.16138V22.5ZM15.8386 22.5V38.5C25.8586 38.5 34.2947 30.9954 35.456 21.0377L19.5637 19.1843L3.67143 17.3309C4.39179 11.154 9.62432 6.5 15.8386 6.5V22.5ZM19.5637 19.1843L35.4561 21.0373L36.8421 9.14934L20.9498 7.29639L5.05744 5.44343L3.67138 17.3314L19.5637 19.1843ZM20.9498 7.29639V23.2964H21.3069V7.29639V-8.70361H20.9498V7.29639ZM21.3069 7.29639L21.3069 23.2964C30.5631 23.2964 38.0569 15.792 38.0569 6.54639H22.0569H6.05688C6.05688 -1.8709 12.8798 -8.70361 21.3069 -8.70361L21.3069 7.29639ZM12 3V19C6.46463 19 1.31176 15.1946 -0.0137545 9.31546L15.5945 5.79639L31.2027 2.27731C29.1574 -6.79386 21.0588 -13 12 -13V3ZM15.5945 5.79639V-10.2036H8.40555V5.79639V21.7964H15.5945V5.79639ZM8.40555 5.79639L24.0138 9.31546C22.6882 15.1946 17.5354 19 12 19V3V-13C2.94122 -13 -5.15744 -6.79386 -7.20266 2.27731L8.40555 5.79639ZM18.074 19.0107L2.18217 17.1532C2.99212 10.2239 8.86293 5 15.8386 5V21V37C25.098 37 32.8907 30.0659 33.9658 20.8683L18.074 19.0107ZM15.8386 21V5H8.16138V21V37H15.8386V21ZM8.16138 21V5C15.1371 5 21.0079 10.2239 21.8178 17.1532L5.92603 19.0107L-9.96578 20.8683C-8.89069 30.0659 -1.098 37 8.16138 37V21ZM5.92603 19.0107L21.8183 17.1576L20.4524 5.44324L4.56006 7.29639L-11.3323 9.14953L-9.9663 20.8639L5.92603 19.0107ZM4.56006 7.29639V23.2964H19.4399V7.29639V-8.70361H4.56006V7.29639ZM19.4399 7.29639L3.54762 5.44324L2.18165 17.1576L18.074 19.0107L33.9663 20.8639L35.3323 9.14953L19.4399 7.29639Z" fill="#150A02" mask="url(#path-1-inside-1_3572_19997)"/>
<path d="M13.6956 9.73438C13.281 9.73438 12.9456 10.0702 12.9456 10.4844V17.8119C12.9456 18.2261 13.281 18.5619 13.6956 18.5619C14.1101 18.5619 14.4456 18.2261 14.4456 17.8119V10.4844C14.4456 10.0702 14.1101 9.73438 13.6956 9.73438Z" fill="#150A02"/>
<path d="M10.3044 9.73438C9.88989 9.73438 9.55444 10.0702 9.55444 10.4844V17.8119C9.55444 18.2261 9.88989 18.5619 10.3044 18.5619C10.719 18.5619 11.0544 18.2261 11.0544 17.8119V10.4844C11.0544 10.0702 10.719 9.73438 10.3044 9.73438Z" fill="#150A02"/>
</svg>
