<svg width="24" height="24" viewBox="0 0 24 24" fill="none" xmlns="http://www.w3.org/2000/svg">
<path d="M23.9063 8.62467C23.9069 7.38411 23.4595 6.18506 22.6465 5.24805C21.8335 4.31103 20.7096 3.69905 19.4813 3.52467C19.2279 2.80702 18.8184 2.15454 18.2824 1.61424C17.7464 1.07394 17.0972 0.659285 16.3816 0.400163C15.666 0.14104 14.9019 0.0439029 14.1442 0.115753C13.3865 0.187604 12.6542 0.426652 12.0001 0.815668C11.346 0.426861 10.6138 0.187983 9.85624 0.116243C9.0987 0.0445041 8.33467 0.14169 7.61922 0.4008C6.90376 0.659909 6.25469 1.07449 5.71876 1.61467C5.18283 2.15485 4.7734 2.80719 4.51995 3.52467C3.60284 3.65427 2.73769 4.02896 2.01575 4.60922C1.29381 5.18947 0.741834 5.9538 0.418029 6.82158C0.0942235 7.68936 0.0105911 8.62844 0.175952 9.53979C0.341312 10.4511 0.749537 11.301 1.35757 11.9997C0.749537 12.6984 0.341312 13.5482 0.175952 14.4596C0.0105911 15.3709 0.0942235 16.31 0.418029 17.1778C0.741834 18.0455 1.29381 18.8099 2.01575 19.3901C2.73769 19.9704 3.60284 20.3451 4.51995 20.4747C4.7734 21.1922 5.18283 21.8445 5.71876 22.3847C6.25469 22.9248 6.90376 23.3394 7.61922 23.5985C8.33467 23.8576 9.0987 23.9548 9.85624 23.8831C10.6138 23.8114 11.346 23.5725 12.0001 23.1837C12.6542 23.5725 13.3864 23.8114 14.1439 23.8831C14.9015 23.9548 15.6655 23.8576 16.3809 23.5985C17.0964 23.3394 17.7455 22.9248 18.2814 22.3847C18.8173 21.8445 19.2268 21.1922 19.4802 20.4747C20.3973 20.3451 21.2625 19.9704 21.9844 19.3901C22.7063 18.8099 23.2583 18.0455 23.5821 17.1778C23.9059 16.31 23.9896 15.3709 23.8242 14.4596C23.6588 13.5482 23.2506 12.6984 22.6426 11.9997C23.4564 11.0635 23.9051 9.86511 23.9063 8.62467ZM5.05282 4.79142C5.19281 4.7845 5.32688 4.73286 5.43535 4.6441C5.54382 4.55534 5.62096 4.43414 5.65545 4.29829C5.80211 3.71861 6.08238 3.18129 6.47383 2.7293C6.86529 2.2773 7.35708 1.92318 7.90987 1.69523C8.46266 1.46728 9.06112 1.37185 9.65739 1.41655C10.2537 1.46125 10.8312 1.64485 11.3438 1.95267V4.21842H10.5001C9.9282 4.21842 9.37975 4.44559 8.97538 4.84997C8.571 5.25434 8.34382 5.80279 8.34382 6.37467C8.34382 6.94654 8.571 7.49499 8.97538 7.89937C9.37975 8.30374 9.9282 8.53092 10.5001 8.53092H11.3438V11.3434H7.87507C7.70106 11.3435 7.53419 11.4127 7.41115 11.5357C7.2881 11.6588 7.21892 11.8257 7.21882 11.9997V13.4997C7.21882 13.7234 7.12993 13.9381 6.9717 14.0963C6.81346 14.2545 6.59885 14.3434 6.37507 14.3434C6.1513 14.3434 5.93669 14.2545 5.77845 14.0963C5.62022 13.9381 5.53132 13.7234 5.53132 13.4997V11.9997C5.53123 11.8257 5.46205 11.6588 5.339 11.5357C5.21595 11.4127 5.04909 11.3435 4.87507 11.3434H2.5392C2.01155 10.8195 1.64757 10.1536 1.49154 9.4266C1.33552 8.69961 1.39419 7.94294 1.66042 7.2487C1.92664 6.55445 2.38894 5.95256 2.99103 5.51629C3.59313 5.08001 4.30907 4.82817 5.0517 4.79142H5.05282ZM11.3438 22.047C10.8311 22.3547 10.2535 22.5381 9.65727 22.5827C9.06101 22.6273 8.46258 22.5318 7.90983 22.3037C7.35707 22.0757 6.86532 21.7216 6.47388 21.2696C6.08244 20.8176 5.80216 20.2803 5.65545 19.7007C5.6208 19.5649 5.54361 19.4438 5.43518 19.3551C5.32674 19.2663 5.19276 19.2146 5.05282 19.2075C4.31019 19.1709 3.59423 18.9191 2.9921 18.4829C2.38997 18.0467 1.92765 17.4448 1.66141 16.7505C1.39518 16.0563 1.33651 15.2996 1.49256 14.5727C1.6486 13.8457 2.01263 13.1797 2.54033 12.6559H4.21882V13.4997C4.21882 14.0715 4.446 14.62 4.85038 15.0244C5.25475 15.4287 5.8032 15.6559 6.37507 15.6559C6.94695 15.6559 7.4954 15.4287 7.89977 15.0244C8.30415 14.62 8.53132 14.0715 8.53132 13.4997V12.6559H11.3438V16.1247C11.3439 16.2987 11.4131 16.4655 11.5361 16.5886C11.6592 16.7116 11.8261 16.7808 12.0001 16.7809H13.5001C13.7239 16.7809 13.9385 16.8698 14.0967 17.028C14.2549 17.1863 14.3438 17.4009 14.3438 17.6247C14.3438 17.8484 14.2549 18.0631 14.0967 18.2213C13.9385 18.3795 13.7239 18.4684 13.5001 18.4684H12.0001C11.8261 18.4685 11.6592 18.5377 11.5361 18.6607C11.4131 18.7838 11.3439 18.9507 11.3438 19.1247V22.047ZM18.9473 19.2079C18.8073 19.2148 18.6733 19.2665 18.5648 19.3552C18.4563 19.444 18.3792 19.5652 18.3447 19.701C18.198 20.2807 17.9178 20.818 17.5263 21.27C17.1349 21.722 16.6431 22.0762 16.0903 22.3041C15.5375 22.5321 14.939 22.6275 14.3428 22.5828C13.7465 22.5381 13.169 22.3545 12.6563 22.0467V19.7809H13.5001C14.0719 19.7809 14.6204 19.5537 15.0248 19.1494C15.4291 18.745 15.6563 18.1965 15.6563 17.6247C15.6563 17.0528 15.4291 16.5043 15.0248 16.1C14.6204 15.6956 14.0719 15.4684 13.5001 15.4684H12.6563V12.6559H16.1251C16.2991 12.6558 16.466 12.5866 16.589 12.4636C16.7121 12.3405 16.7812 12.1737 16.7813 11.9997V10.4997C16.7813 10.2759 16.8702 10.0613 17.0285 9.90305C17.1867 9.74481 17.4013 9.65592 17.6251 9.65592C17.8489 9.65592 18.0635 9.74481 18.2217 9.90305C18.3799 10.0613 18.4688 10.2759 18.4688 10.4997V11.9997C18.4689 12.1737 18.5381 12.3405 18.6611 12.4636C18.7842 12.5866 18.9511 12.6558 19.1251 12.6559H21.461C21.9886 13.1798 22.3526 13.8457 22.5086 14.5727C22.6646 15.2997 22.606 16.0564 22.3397 16.7506C22.0735 17.4449 21.6112 18.0468 21.0091 18.483C20.407 18.9193 19.6911 19.1712 18.9485 19.2079H18.9473ZM21.4598 11.3434H19.7813V10.4997C19.7813 9.92779 19.5541 9.37934 19.1498 8.97497C18.7454 8.57059 18.1969 8.34342 17.6251 8.34342C17.0532 8.34342 16.5048 8.57059 16.1004 8.97497C15.696 9.37934 15.4688 9.92779 15.4688 10.4997V11.3434H12.6563V7.87467C12.6562 7.70065 12.5871 7.53379 12.464 7.41074C12.341 7.28769 12.1741 7.21852 12.0001 7.21842H10.5001C10.2763 7.21842 10.0617 7.12952 9.90345 6.97129C9.74522 6.81306 9.65632 6.59844 9.65632 6.37467C9.65632 6.15089 9.74522 5.93628 9.90345 5.77805C10.0617 5.61981 10.2763 5.53092 10.5001 5.53092H12.0001C12.1741 5.53082 12.341 5.46165 12.464 5.3386C12.5871 5.21555 12.6562 5.04869 12.6563 4.87467V1.95229C13.169 1.64464 13.7466 1.4612 14.3429 1.41663C14.9391 1.37205 15.5376 1.46758 16.0903 1.69559C16.6431 1.92359 17.1348 2.27774 17.5263 2.72973C17.9177 3.18172 18.198 3.71901 18.3447 4.29867C18.3793 4.43443 18.4565 4.55554 18.565 4.64427C18.6734 4.733 18.8074 4.7847 18.9473 4.79179C19.69 4.82829 20.4061 5.07997 21.0084 5.51617C21.6106 5.95237 22.073 6.55428 22.3393 7.24859C22.6055 7.9429 22.6641 8.69965 22.508 9.42668C22.3519 10.1537 21.9877 10.8197 21.4598 11.3434Z" fill="#5E9B87"/>
</svg>
