<svg width="32" height="32" viewBox="0 0 32 32" fill="none" xmlns="http://www.w3.org/2000/svg">
<g clip-path="url(#clip0_535_73990)">
<path d="M23.1976 16C28.2859 14.4538 32 9.71843 32 4.13183C32 2.73559 30.8646 1.6001 29.4683 1.6001C23.9029 1.6001 19.1819 5.28589 17.6174 10.3444C17.4716 10.1749 17.3001 10.0282 17.1085 9.91117C17.5875 6.97132 18.828 3.10878 20.2328 3.19896C20.5304 3.21978 20.78 2.99471 20.7992 2.70084C20.8179 2.40697 20.5949 2.15366 20.3005 2.13447C17.6331 1.96366 16.4202 7.603 16.0788 9.60205C16.0527 9.60111 16.0265 9.60005 16 9.60005C15.9736 9.60005 15.9475 9.60111 15.9213 9.60205C15.5802 7.60206 14.3685 1.95635 11.6996 2.13447C11.4052 2.15366 11.1822 2.40703 11.2009 2.70084C11.2206 2.99471 11.4766 3.21978 11.7672 3.19896C11.7838 3.1979 11.7998 3.19734 11.8158 3.19734C13.2006 3.19734 14.4166 7.00525 14.8915 9.91124C14.6998 10.0282 14.5284 10.175 14.3826 10.3445C12.8184 5.28595 8.09758 1.6001 2.53174 1.6001C1.13599 1.6001 0 2.73553 0 4.13177C0 9.71836 3.7141 14.4537 8.80264 16C3.71423 17.5462 0.000437497 22.2816 0.000437497 27.8682C0.000437497 29.2644 1.13587 30.3999 2.53161 30.3999C8.09733 30.3999 12.8184 26.7142 14.383 21.6558C14.7745 22.1109 15.354 22.4 16.0002 22.4C16.6465 22.4 17.226 22.1109 17.6175 21.6556C19.182 26.7141 23.903 30.3999 29.4683 30.3999C30.8646 30.3999 32.0001 29.2645 32.0001 27.8682C32 22.2816 28.2859 17.5463 23.1976 16ZM29.4683 2.66672C30.2763 2.66672 30.9334 3.32378 30.9334 4.13177C30.9334 10.3819 25.8486 15.4666 19.5985 15.4666H18.7577C22.8302 10.8282 28.0016 6.86619 28.0568 6.824C28.291 6.64532 28.3358 6.31095 28.1576 6.07682C27.9795 5.8432 27.6446 5.79739 27.4099 5.97601C27.355 6.01807 22.2516 9.92686 18.1334 14.562V14.0016C18.1335 7.7515 23.2182 2.66672 29.4683 2.66672ZM1.06668 4.13177C1.06668 3.32378 1.72374 2.66672 2.53174 2.66672C8.78182 2.66672 13.8666 7.7515 13.8666 14.0016V14.5618C9.74851 9.9268 4.64522 6.01807 4.59035 5.97607C4.35566 5.79739 4.02073 5.84326 3.8426 6.07688C3.66448 6.31101 3.70929 6.64538 3.94341 6.82407C3.99866 6.86625 9.16851 10.8257 13.2427 15.4667H12.4021C6.15196 15.4666 1.06668 10.3819 1.06668 4.13177ZM2.53161 29.3332C1.72418 29.3332 1.06706 28.6762 1.06706 27.8682C1.06706 21.6181 6.15184 16.5333 12.4019 16.5333H12.4021H13.2424C9.1702 21.1718 3.99841 25.1338 3.94366 25.176C3.70954 25.3546 3.66423 25.689 3.84285 25.9231C3.94741 26.0608 4.10629 26.1333 4.26741 26.1333C4.37997 26.1333 4.49354 26.0975 4.5901 26.024C4.64554 25.9819 9.74838 22.0732 13.8669 17.4381V18.0153C13.8577 24.2576 8.77607 29.3332 2.53161 29.3332ZM17.0668 20.2666C17.0668 20.8549 16.5884 21.3333 16.0001 21.3333C15.4118 21.3333 14.9334 20.8549 14.9334 20.2666V18.0152C14.9334 18.0096 14.9336 18.004 14.9336 17.9984V15.4666H14.9334V11.7334C14.9334 11.1451 15.4118 10.6667 16.0001 10.6667C16.5883 10.6667 17.0668 11.145 17.0668 11.7334V14.0016V15.4666V15.9973C17.0668 15.9979 17.0668 15.9986 17.0668 15.9992V15.9998C17.0668 16.0011 17.0668 16.0024 17.0668 16.0037V16.5334V17.9984V20.2666ZM29.4683 29.3332C23.2182 29.3332 18.1335 24.2485 18.1335 17.9984V17.4381C22.2519 22.0732 27.3548 25.9819 27.4102 26.024C27.5067 26.0976 27.6203 26.1333 27.7329 26.1333C27.894 26.1333 28.0529 26.0607 28.1574 25.9231C28.3361 25.689 28.2907 25.3546 28.0566 25.176C28.0018 25.1338 22.8321 21.1744 18.7579 16.5333H19.5985C25.8486 16.5333 30.9334 21.6181 30.9334 27.8682C30.9334 28.6762 30.2763 29.3332 29.4683 29.3332Z" fill="#5E9B87"/>
</g>
<defs>
<clipPath id="clip0_535_73990">
<rect width="32" height="32" fill="white"/>
</clipPath>
</defs>
</svg>
