<svg width="24" height="24" viewBox="0 0 24 24" fill="none" xmlns="http://www.w3.org/2000/svg">
<path d="M21.0168 11.6893C21.5113 11.1888 22.0235 10.4814 22.4981 9.64392C23.3684 8.1082 24 6.34453 24 5.45034C24 4.04906 23.0213 3.07041 21.6201 3.07041C19.6774 3.07041 17.5228 4.42416 15.2161 7.09411C13.9549 8.55389 13.0099 9.99553 12.5943 10.6628L14.3463 6.80841C14.4322 6.61945 14.3487 6.3967 14.1597 6.31083C13.9708 6.22491 13.748 6.30853 13.6621 6.49744L12 10.1539L10.338 6.4973C10.2521 6.30834 10.0291 6.22481 9.84037 6.31069C9.65142 6.39656 9.56789 6.61936 9.65377 6.80827L11.4058 10.6627C10.9902 9.99544 10.0452 8.5538 8.784 7.09397C6.47723 4.42406 4.32263 3.07031 2.37994 3.07031C0.978703 3.07036 0 4.04906 0 5.45034C0 6.34458 0.631594 8.10825 1.50188 9.64392C1.97653 10.4815 2.48873 11.1888 2.98317 11.6893C3.60647 12.3203 4.2127 12.6403 4.78495 12.6403H5.80083C5.40952 12.879 4.9988 13.1623 4.6035 13.4717C3.74283 14.1453 2.2612 15.501 2.0093 17.0128C1.82114 18.1418 2.34736 19.3799 3.34992 20.1669C3.99398 20.6724 4.73705 20.9303 5.50125 20.9302C5.97806 20.9302 6.46312 20.8298 6.93717 20.6266C8.23669 20.0697 9.40823 18.9222 10.4193 17.216C10.9424 16.3334 11.3457 15.4224 11.6242 14.6514V17.0745C11.6242 17.2821 11.7925 17.4503 12 17.4503C12.2076 17.4503 12.3758 17.2821 12.3758 17.0745V14.6514C12.6544 15.4224 13.0577 16.3334 13.5808 17.216C14.5918 18.9222 15.7634 20.0697 17.0629 20.6266C17.5371 20.8298 18.022 20.9302 18.4988 20.9302C19.263 20.9302 20.0062 20.6724 20.6502 20.1669C21.6528 19.3799 22.179 18.1418 21.9908 17.0128C21.7389 15.501 20.2573 14.1453 19.3966 13.4717C19.0013 13.1624 18.5906 12.879 18.1993 12.6403H19.215C19.7873 12.6403 20.3935 12.3203 21.0168 11.6893ZM4.78495 11.8888C4.06659 11.8888 3.08372 10.9111 2.15573 9.27347C1.27678 7.72233 0.751547 6.11152 0.751547 5.45034C0.751547 4.46114 1.39073 3.82195 2.37994 3.82195C6.29939 3.82195 10.4686 10.5587 10.9425 11.3466C10.8658 11.5028 10.8225 11.6782 10.8225 11.8637V11.8887H4.78495V11.8888ZM3.58247 16.2478C3.81731 16.2478 4.00838 16.4389 4.00838 16.6737C4.00838 16.9086 3.81731 17.0996 3.58247 17.0996C3.34763 17.0996 3.15656 16.9086 3.15656 16.6737C3.15656 16.4389 3.34763 16.2478 3.58247 16.2478ZM9.77278 16.8329C8.85778 18.377 7.77487 19.4499 6.64116 19.9359C5.66747 20.3532 4.63706 20.2219 3.81408 19.5757C3.12731 19.0367 2.72236 18.2422 2.72292 17.4772C2.93798 17.7071 3.24366 17.8512 3.58252 17.8512C4.23178 17.8512 4.75997 17.323 4.75997 16.6737C4.75997 16.0245 4.23178 15.4963 3.58252 15.4963C3.58125 15.4963 3.58003 15.4964 3.57872 15.4964C3.92095 15.0685 4.39889 14.5862 5.06672 14.0636C6.26077 13.1291 7.34466 12.6403 7.59089 12.6403H10.8226V12.6653C10.8226 13.0039 10.9665 13.3093 11.196 13.5243C10.9698 14.3587 10.491 15.6209 9.77278 16.8329ZM12.4258 12.6653C12.4258 12.9002 12.2347 13.0912 11.9999 13.0912C11.765 13.0912 11.5741 12.9002 11.5741 12.6653V11.8637C11.5741 11.6292 11.7646 11.4383 11.999 11.4379C11.9993 11.4379 11.9995 11.4379 11.9997 11.4379C11.9998 11.4379 11.9999 11.4379 11.9999 11.4379C12 11.4379 12 11.4379 12.0001 11.4379C12.0003 11.4379 12.0006 11.4379 12.0008 11.4379C12.2352 11.4384 12.4257 11.6292 12.4257 11.8637V12.6653H12.4258ZM20.8434 16.6737C20.8434 16.9086 20.6524 17.0996 20.4175 17.0996C20.1827 17.0996 19.9916 16.9086 19.9916 16.6737C19.9916 16.4389 20.1827 16.2478 20.4175 16.2478C20.6524 16.2478 20.8434 16.4389 20.8434 16.6737ZM18.9333 14.0636C19.6011 14.5862 20.079 15.0685 20.4213 15.4964C20.4201 15.4964 20.4188 15.4963 20.4175 15.4963C19.7683 15.4963 19.2401 16.0245 19.2401 16.6737C19.2401 17.323 19.7683 17.8512 20.4175 17.8512C20.7564 17.8512 21.0621 17.7071 21.2771 17.4772C21.2777 18.2422 20.8727 19.0366 20.186 19.5757C19.3629 20.2219 18.3324 20.3532 17.3589 19.9359C16.2252 19.45 15.1423 18.3771 14.2273 16.8329C13.5091 15.621 13.0302 14.3587 12.8041 13.5243C13.0336 13.3093 13.1775 13.0039 13.1775 12.6654V12.6404H16.4092C16.6554 12.6403 17.7393 13.1291 18.9333 14.0636ZM13.1775 11.8888V11.8637C13.1775 11.6783 13.1342 11.5027 13.0575 11.3465C13.2803 10.9748 14.3272 9.27239 15.7847 7.58545C17.268 5.86856 19.4845 3.822 21.6201 3.822C22.6093 3.822 23.2485 4.46119 23.2485 5.45039C23.2485 6.11156 22.7232 7.72237 21.8443 9.27352C20.9163 10.9111 19.9334 11.8888 19.215 11.8888L13.1775 11.8888Z" fill="#150A02"/>
</svg>
