<svg width="16" height="16" viewBox="0 0 16 16" fill="none" xmlns="http://www.w3.org/2000/svg">
<path d="M6.62927 14.667C6.23456 14.667 5.8709 14.6644 5.53552 14.6611C5.88146 14.6645 6.25728 14.667 6.66638 14.667H6.62927ZM4.0238 14.6016C4.06417 14.6054 4.10525 14.6079 4.14685 14.6113C4.00432 14.5996 3.869 14.5866 3.7406 14.5693L4.0238 14.6016ZM11.9799 14.6016C11.9449 14.6049 11.9093 14.6064 11.8734 14.6094C12.0084 14.598 12.1369 14.5858 12.2592 14.5693L11.9799 14.6016ZM1.3783 11.7168C1.39167 11.9103 1.40833 12.0909 1.43103 12.2598C1.40833 12.091 1.39167 11.9103 1.3783 11.7168ZM14.6527 11.0361C14.6402 11.5027 14.6161 11.9069 14.5687 12.2598C14.6162 11.9068 14.6402 11.5026 14.6527 11.0361ZM1.33533 10.2188C1.33574 10.2943 1.33758 10.3685 1.33826 10.4414C1.33521 10.1126 1.33337 9.75663 1.33337 9.37109L1.33533 10.2188ZM14.6586 6.6875C14.664 7.07465 14.6664 7.49801 14.6664 7.96289V8C14.6664 7.51496 14.664 7.07907 14.6586 6.6875ZM1.33337 8V7.96289C1.33337 7.49797 1.33478 7.07462 1.34021 6.6875C1.3348 7.07905 1.33337 7.51495 1.33337 8ZM1.34412 6H1.35193L1.34998 6.0625L1.33337 6.00098V6L1.34705 5.96191L1.34412 6ZM14.6527 5.96387L14.6664 6.00098L14.6488 6.06543L14.6478 6H14.6566L14.6527 5.96387ZM4.98865 2.67871C4.68584 2.68655 4.40924 2.70109 4.15564 2.72168C4.17183 2.72037 4.18805 2.71805 4.20447 2.7168L4.66638 2.68164V2.68555L4.98865 2.67871ZM11.3334 2.68555V2.68164L11.7953 2.7168C11.8107 2.71797 11.826 2.71948 11.8412 2.7207C11.5881 2.70024 11.3121 2.68651 11.0101 2.67871L11.3334 2.68555ZM5.05896 2.67773L5.17615 2.67578C5.2151 2.67503 5.25462 2.67543 5.29431 2.6748C5.21419 2.67605 5.13574 2.67596 5.05896 2.67773ZM10.8236 2.67578L10.9398 2.67773C10.8634 2.67597 10.7852 2.67604 10.7054 2.6748C10.7452 2.67543 10.7846 2.67503 10.8236 2.67578ZM9.33337 14.667C9.73978 14.667 10.1133 14.6644 10.4574 14.6611C10.1241 14.6643 9.76318 14.667 9.37146 14.667H9.33337Z" stroke="#5E9B87"/>
<path d="M6.62927 14.667C6.23456 14.667 5.8709 14.6644 5.53552 14.6611C5.88146 14.6645 6.25728 14.667 6.66638 14.667H6.62927ZM4.0238 14.6016C4.06417 14.6054 4.10525 14.6079 4.14685 14.6113C4.00432 14.5996 3.869 14.5866 3.7406 14.5693L4.0238 14.6016ZM11.9799 14.6016C11.9449 14.6049 11.9093 14.6064 11.8734 14.6094C12.0084 14.598 12.1369 14.5858 12.2592 14.5693L11.9799 14.6016ZM1.3783 11.7168C1.39167 11.9103 1.40833 12.0909 1.43103 12.2598C1.40833 12.091 1.39167 11.9103 1.3783 11.7168ZM14.6527 11.0361C14.6402 11.5027 14.6161 11.9069 14.5687 12.2598C14.6162 11.9068 14.6402 11.5026 14.6527 11.0361ZM1.33533 10.2188C1.33574 10.2943 1.33758 10.3685 1.33826 10.4414C1.33521 10.1126 1.33337 9.75663 1.33337 9.37109L1.33533 10.2188ZM14.6586 6.6875C14.664 7.07465 14.6664 7.49801 14.6664 7.96289V8C14.6664 7.51496 14.664 7.07907 14.6586 6.6875ZM1.33337 8V7.96289C1.33337 7.49797 1.33478 7.07462 1.34021 6.6875C1.3348 7.07905 1.33337 7.51495 1.33337 8ZM1.34412 6H1.35193L1.34998 6.0625L1.33337 6.00098V6L1.34705 5.96191L1.34412 6ZM14.6527 5.96387L14.6664 6.00098L14.6488 6.06543L14.6478 6H14.6566L14.6527 5.96387ZM4.98865 2.67871C4.68584 2.68655 4.40924 2.70109 4.15564 2.72168C4.17183 2.72037 4.18805 2.71805 4.20447 2.7168L4.66638 2.68164V2.68555L4.98865 2.67871ZM11.3334 2.68555V2.68164L11.7953 2.7168C11.8107 2.71797 11.826 2.71948 11.8412 2.7207C11.5881 2.70024 11.3121 2.68651 11.0101 2.67871L11.3334 2.68555ZM5.05896 2.67773L5.17615 2.67578C5.2151 2.67503 5.25462 2.67543 5.29431 2.6748C5.21419 2.67605 5.13574 2.67596 5.05896 2.67773ZM10.8236 2.67578L10.9398 2.67773C10.8634 2.67597 10.7852 2.67604 10.7054 2.6748C10.7452 2.67543 10.7846 2.67503 10.8236 2.67578ZM9.33337 14.667C9.73978 14.667 10.1133 14.6644 10.4574 14.6611C10.1241 14.6643 9.76318 14.667 9.37146 14.667H9.33337Z" stroke="black" stroke-opacity="0.2"/>
</svg>
