<svg width="16" height="15" viewBox="0 0 16 15" fill="none" xmlns="http://www.w3.org/2000/svg">
<path d="M6.62927 13.667C6.23456 13.667 5.8709 13.6644 5.53552 13.6611C5.88146 13.6645 6.25728 13.667 6.66638 13.667H6.62927ZM4.0238 13.6016C4.06417 13.6054 4.10525 13.6079 4.14685 13.6113C4.00432 13.5996 3.869 13.5866 3.7406 13.5693L4.0238 13.6016ZM11.9799 13.6016C11.9449 13.6049 11.9093 13.6064 11.8734 13.6094C12.0084 13.598 12.1369 13.5858 12.2592 13.5693L11.9799 13.6016ZM1.3783 10.7168C1.39167 10.9103 1.40833 11.0909 1.43103 11.2598C1.40833 11.091 1.39167 10.9103 1.3783 10.7168ZM14.6527 10.0361C14.6402 10.5027 14.6161 10.9069 14.5687 11.2598C14.6162 10.9068 14.6402 10.5026 14.6527 10.0361ZM1.33533 9.21875C1.33574 9.29431 1.33758 9.36851 1.33826 9.44141C1.33521 9.11255 1.33337 8.75663 1.33337 8.37109L1.33533 9.21875ZM14.6586 5.6875C14.664 6.07465 14.6664 6.49801 14.6664 6.96289V7C14.6664 6.51496 14.664 6.07907 14.6586 5.6875ZM1.33337 7V6.96289C1.33337 6.49797 1.33478 6.07462 1.34021 5.6875C1.3348 6.07905 1.33337 6.51495 1.33337 7ZM1.34412 5H1.35193L1.34998 5.0625L1.33337 5.00098V5L1.34705 4.96191L1.34412 5ZM14.6527 4.96387L14.6664 5.00098L14.6488 5.06543L14.6478 5H14.6566L14.6527 4.96387ZM4.98865 1.67871C4.68584 1.68655 4.40924 1.70109 4.15564 1.72168C4.17183 1.72037 4.18805 1.71805 4.20447 1.7168L4.66638 1.68164V1.68555L4.98865 1.67871ZM11.3334 1.68555V1.68164L11.7953 1.7168C11.8107 1.71797 11.826 1.71948 11.8412 1.7207C11.5881 1.70024 11.3121 1.68651 11.0101 1.67871L11.3334 1.68555ZM5.05896 1.67773L5.17615 1.67578C5.2151 1.67503 5.25462 1.67543 5.29431 1.6748C5.21419 1.67605 5.13574 1.67596 5.05896 1.67773ZM10.8236 1.67578L10.9398 1.67773C10.8634 1.67597 10.7852 1.67604 10.7054 1.6748C10.7452 1.67543 10.7846 1.67503 10.8236 1.67578ZM9.33337 13.667C9.73978 13.667 10.1133 13.6644 10.4574 13.6611C10.1241 13.6643 9.76318 13.667 9.37146 13.667H9.33337Z" stroke="#5E9B87"/>
<path d="M6.62927 13.667C6.23456 13.667 5.8709 13.6644 5.53552 13.6611C5.88146 13.6645 6.25728 13.667 6.66638 13.667H6.62927ZM4.0238 13.6016C4.06417 13.6054 4.10525 13.6079 4.14685 13.6113C4.00432 13.5996 3.869 13.5866 3.7406 13.5693L4.0238 13.6016ZM11.9799 13.6016C11.9449 13.6049 11.9093 13.6064 11.8734 13.6094C12.0084 13.598 12.1369 13.5858 12.2592 13.5693L11.9799 13.6016ZM1.3783 10.7168C1.39167 10.9103 1.40833 11.0909 1.43103 11.2598C1.40833 11.091 1.39167 10.9103 1.3783 10.7168ZM14.6527 10.0361C14.6402 10.5027 14.6161 10.9069 14.5687 11.2598C14.6162 10.9068 14.6402 10.5026 14.6527 10.0361ZM1.33533 9.21875C1.33574 9.29431 1.33758 9.36851 1.33826 9.44141C1.33521 9.11255 1.33337 8.75663 1.33337 8.37109L1.33533 9.21875ZM14.6586 5.6875C14.664 6.07465 14.6664 6.49801 14.6664 6.96289V7C14.6664 6.51496 14.664 6.07907 14.6586 5.6875ZM1.33337 7V6.96289C1.33337 6.49797 1.33478 6.07462 1.34021 5.6875C1.3348 6.07905 1.33337 6.51495 1.33337 7ZM1.34412 5H1.35193L1.34998 5.0625L1.33337 5.00098V5L1.34705 4.96191L1.34412 5ZM14.6527 4.96387L14.6664 5.00098L14.6488 5.06543L14.6478 5H14.6566L14.6527 4.96387ZM4.98865 1.67871C4.68584 1.68655 4.40924 1.70109 4.15564 1.72168C4.17183 1.72037 4.18805 1.71805 4.20447 1.7168L4.66638 1.68164V1.68555L4.98865 1.67871ZM11.3334 1.68555V1.68164L11.7953 1.7168C11.8107 1.71797 11.826 1.71948 11.8412 1.7207C11.5881 1.70024 11.3121 1.68651 11.0101 1.67871L11.3334 1.68555ZM5.05896 1.67773L5.17615 1.67578C5.2151 1.67503 5.25462 1.67543 5.29431 1.6748C5.21419 1.67605 5.13574 1.67596 5.05896 1.67773ZM10.8236 1.67578L10.9398 1.67773C10.8634 1.67597 10.7852 1.67604 10.7054 1.6748C10.7452 1.67543 10.7846 1.67503 10.8236 1.67578ZM9.33337 13.667C9.73978 13.667 10.1133 13.6644 10.4574 13.6611C10.1241 13.6643 9.76318 13.667 9.37146 13.667H9.33337Z" stroke="black" stroke-opacity="0.2"/>
</svg>
