<svg width="24" height="24" viewBox="0 0 24 24" fill="none" xmlns="http://www.w3.org/2000/svg">
<g clip-path="url(#clip0_1251_39115)">
<path d="M19.3125 19.3125L23.0625 23.0625" stroke="#150A02" stroke-width="1.4" stroke-miterlimit="10" stroke-linecap="round" stroke-linejoin="round"/>
<path d="M23.0625 19.3125L19.3125 23.0625" stroke="#150A02" stroke-width="1.4" stroke-miterlimit="10" stroke-linecap="round" stroke-linejoin="round"/>
<path d="M16.0642 21.1875H3.75C2.1967 21.1875 0.9375 19.9283 0.9375 18.375V9.375C0.9375 7.8217 2.1967 6.5625 3.75 6.5625H18.375C19.9283 6.5625 21.1875 7.8217 21.1875 9.375V16.0642" stroke="#150A02" stroke-width="1.4" stroke-miterlimit="10" stroke-linecap="round" stroke-linejoin="round"/>
<path d="M7.3125 2.8125C7.3125 1.77698 8.15198 0.9375 9.1875 0.9375H12.9375C13.973 0.9375 14.8125 1.77698 14.8125 2.8125" stroke="#150A02" stroke-width="1.4" stroke-miterlimit="10" stroke-linecap="round" stroke-linejoin="round"/>
<path d="M4.6875 10.3125C4.6875 12.3836 6.36642 14.0625 8.4375 14.0625H13.6875C15.7586 14.0625 17.4375 12.3836 17.4375 10.3125" stroke="#150A02" stroke-width="1.4" stroke-miterlimit="10" stroke-linecap="round" stroke-linejoin="round"/>
<path d="M11.0625 14.0625V15.9375" stroke="#150A02" stroke-width="1.4" stroke-miterlimit="10" stroke-linecap="round" stroke-linejoin="round"/>
</g>
<defs>
<clipPath id="clip0_1251_39115">
<rect width="24" height="24" fill="white"/>
</clipPath>
</defs>
</svg>
