<svg width="23" height="23" viewBox="0 0 23 23" fill="none" xmlns="http://www.w3.org/2000/svg">
<path fill-rule="evenodd" clip-rule="evenodd" d="M19.1744 8.37955C18.825 6.54412 17.9402 4.78979 16.5219 3.36964C12.7564 -0.400557 6.65104 -0.400557 2.88558 3.36964C1.73691 4.51975 0.722484 6.22222 0.278829 8.11231C-0.167509 10.0139 -0.0437618 12.1498 1.16178 14.0921C1.22351 14.1916 1.26168 14.2533 1.28865 14.2993C1.30109 14.3206 1.30764 14.3327 1.31039 14.3379C1.3129 14.3446 1.31446 14.3492 1.31537 14.3521C1.31535 14.3555 1.31521 14.3614 1.31463 14.3702C1.31389 14.3744 1.31216 14.3834 1.30866 14.3989C1.29974 14.4384 1.28616 14.4912 1.262 14.5845L1.25499 14.6116C1.11653 15.1464 1.00273 15.586 0.935844 15.9412C0.868508 16.2987 0.829545 16.6596 0.901169 17.012C1.1054 18.0168 1.88992 18.8028 2.89474 19.0076C3.24724 19.0795 3.60811 19.0403 3.96528 18.9729C4.32012 18.9059 4.75924 18.7919 5.29336 18.6533L5.32045 18.6463C5.41364 18.6221 5.46638 18.6085 5.5058 18.5996C5.52114 18.5961 5.53009 18.5943 5.53423 18.5936C5.5424 18.5931 5.548 18.5929 5.55149 18.5929C5.55436 18.5938 5.55871 18.5953 5.5648 18.5976C5.57007 18.6003 5.58231 18.607 5.60374 18.6194C5.65019 18.6465 5.7123 18.6849 5.81229 18.7468C6.45916 19.147 7.13242 19.4268 7.81445 19.6039C8.06746 19.9564 8.352 20.2927 8.66786 20.609C9.59853 21.5408 11.02 22.3864 12.6034 22.7658C14.1977 23.1477 16.0143 23.0676 17.658 22.0506C17.7376 22.0013 17.7863 21.9712 17.8222 21.9501C17.8509 21.957 17.8903 21.9671 17.9556 21.9841L17.982 21.9909C18.4183 22.1042 18.7839 22.199 19.0807 22.2551C19.3798 22.3115 19.6985 22.3478 20.0155 22.2832C20.8974 22.1036 21.5858 21.4137 21.7651 20.532C21.8295 20.2151 21.7933 19.8965 21.7369 19.5971C21.6809 19.2999 21.5862 18.9341 21.473 18.4971L21.4662 18.4708C21.4491 18.4046 21.439 18.3651 21.4321 18.3363C21.4531 18.3006 21.483 18.2523 21.5324 18.1728C22.5484 16.5358 22.6508 14.7375 22.2767 13.1438C21.9052 11.5615 21.0568 10.1368 20.0932 9.17202C19.8028 8.88133 19.4956 8.61712 19.1744 8.37955ZM15.4144 4.47572C12.2604 1.31771 7.14709 1.31771 3.99306 4.47572C3.04351 5.42645 2.1777 6.87206 1.80263 8.46998C1.43024 10.0565 1.5493 11.7484 2.49166 13.2668C2.50058 13.2811 2.50962 13.2956 2.51874 13.3103C2.60857 13.4545 2.70533 13.6097 2.76144 13.7508C2.86096 14.0011 2.89541 14.2274 2.87484 14.4959C2.86328 14.6468 2.82273 14.8023 2.78711 14.9389C2.78378 14.9517 2.78049 14.9643 2.77727 14.9767C2.63008 15.5454 2.52999 15.9337 2.47401 16.2309C2.41736 16.5317 2.42496 16.6507 2.43503 16.7002C2.51436 17.0905 2.81876 17.3948 3.20727 17.4739C3.25615 17.4839 3.37456 17.4916 3.67488 17.4348C3.97157 17.3788 4.35933 17.2786 4.92726 17.1313C4.9397 17.128 4.95233 17.1247 4.96511 17.1214C5.10141 17.0858 5.25679 17.0451 5.40726 17.0335C5.67549 17.0127 5.90046 17.0468 6.15051 17.1459C6.29122 17.2017 6.44707 17.2986 6.59199 17.3885C6.60673 17.3977 6.62137 17.4068 6.63587 17.4157C6.66439 17.4334 6.69297 17.4507 6.72162 17.4678C5.77805 14.6504 6.42624 11.4165 8.66786 9.17202C10.991 6.84595 14.3762 6.233 17.2598 7.33207C16.8671 6.29081 16.2522 5.31451 15.4144 4.47572ZM18.0198 9.4796C15.4872 7.76686 12.017 8.03364 9.77534 10.2781C7.55213 12.5041 7.27109 15.9409 8.93532 18.4719C9.17464 18.8359 9.45453 19.1816 9.77534 19.5029C10.502 20.2305 11.6665 20.9318 12.9679 21.2436C14.2584 21.5527 15.6255 21.4676 16.8343 20.7196C16.8463 20.7121 16.8587 20.7045 16.8713 20.6966C16.9876 20.6242 17.1276 20.5373 17.2558 20.4864C17.4813 20.3971 17.6876 20.3657 17.9295 20.3845C18.0666 20.3951 18.207 20.4319 18.3169 20.4607C18.3279 20.4635 18.3385 20.4663 18.3487 20.4691C18.8184 20.5909 19.1324 20.6719 19.3711 20.717C19.6134 20.7628 19.6895 20.7523 19.703 20.7495C19.9685 20.6955 20.1769 20.4874 20.2312 20.2202C20.234 20.2062 20.2444 20.1295 20.1987 19.8868C20.1536 19.6477 20.0727 19.3332 19.951 18.863C19.9483 18.8527 19.9455 18.8421 19.9427 18.8311C19.9139 18.721 19.8771 18.5805 19.8666 18.4429C19.8481 18.201 19.8796 17.9934 19.9694 17.7678C20.0205 17.6391 20.1075 17.4997 20.1797 17.3839C20.1876 17.3715 20.1952 17.3593 20.2026 17.3473C20.9554 16.1343 21.053 14.7801 20.7529 13.5014C20.45 12.2113 19.7501 11.0434 18.9857 10.2781C18.6837 9.97568 18.36 9.70962 18.0198 9.4796Z" fill="#5E9B87"/>
</svg>
