<svg width="24" height="24" viewBox="0 0 24 24" fill="none" xmlns="http://www.w3.org/2000/svg">
<mask id="mask0_3279_7923" style="mask-type:luminance" maskUnits="userSpaceOnUse" x="0" y="0" width="24" height="24">
<path d="M0 1.90735e-06H24V24H0V1.90735e-06Z" fill="white"/>
</mask>
<g mask="url(#mask0_3279_7923)">
<path d="M8.67188 4.96875C8.67188 6.80681 10.1619 8.29688 12 8.29688C13.8381 8.29688 15.3281 6.80681 15.3281 4.96875C15.3281 3.13069 13.8381 1.64063 12 1.64063C10.1619 1.64063 8.67188 3.13069 8.67188 4.96875Z" stroke="#150A02" stroke-miterlimit="10" stroke-linecap="round" stroke-linejoin="round"/>
<path d="M12 18.7031L18.8128 17.3406C20.3808 17.0269 21.8438 18.2263 21.8438 19.8254C21.8438 21.2249 20.7092 22.3594 19.3097 22.3594H14.6732" stroke="#150A02" stroke-miterlimit="10" stroke-linecap="round" stroke-linejoin="round"/>
<path d="M5.18719 17.3406L14.9763 19.2984C15.6988 19.4429 16.2188 20.0772 16.2188 20.8139C16.2188 21.6675 15.5268 22.3594 14.6732 22.3594H4.69022C3.29077 22.3594 2.15625 21.2249 2.15625 19.8254C2.15625 18.2263 3.61917 17.027 5.18719 17.3406Z" stroke="#150A02" stroke-miterlimit="10" stroke-linecap="round" stroke-linejoin="round"/>
<path d="M7.78124 17.8594V11.1094H4.3462C2.69137 11.1094 1.29557 9.87713 1.09031 8.23514L0.714464 5.22844C0.60698 4.3687 1.27734 3.60938 2.14373 3.60938C2.83035 3.60938 3.4215 4.09402 3.55617 4.76728L4.03603 7.16639C4.16742 7.82372 4.74464 8.29688 5.41495 8.29688H18.585C19.2554 8.29688 19.8326 7.82372 19.964 7.16639L20.4438 4.76728C20.5785 4.09402 21.1696 3.60938 21.8563 3.60938C22.7227 3.60938 23.393 4.3687 23.2856 5.22844L22.9097 8.23514C22.7044 9.87713 21.3086 11.1094 19.6538 11.1094H16.2187V17.8594" stroke="#150A02" stroke-miterlimit="10" stroke-linecap="round" stroke-linejoin="round"/>
</g>
</svg>
