<svg width="343" height="250" viewBox="0 0 343 250" fill="none" xmlns="http://www.w3.org/2000/svg">
<rect width="343" height="250" rx="16" fill="white"/>
<g clip-path="url(#clip0_399_30182)">
<path d="M31.4775 25.6255C31.378 25.6255 31.2826 25.665 31.2123 25.7353C31.142 25.8056 31.1025 25.901 31.1025 26.0005C31.1024 27.4052 30.6858 28.7783 29.9053 29.9463C29.1248 31.1142 28.0155 32.0245 26.7177 32.562C25.4198 33.0995 23.9918 33.24 22.6141 32.9659C21.2363 32.6918 19.9708 32.0153 18.9776 31.022C17.9843 30.0287 17.3079 28.7631 17.0339 27.3854C16.7599 26.0077 16.9006 24.5796 17.4382 23.2818C17.9758 21.9841 18.8861 20.8748 20.0541 20.0944C21.2221 19.314 22.5953 18.8975 24 18.8975C24.0994 18.8975 24.1948 18.858 24.2652 18.7876C24.3355 18.7173 24.375 18.6219 24.375 18.5225C24.375 18.423 24.3355 18.3276 24.2652 18.2573C24.1948 18.187 24.0994 18.1475 24 18.1475C22.4468 18.1474 20.9284 18.6078 19.637 19.4707C18.3455 20.3335 17.3389 21.56 16.7444 22.9949C16.15 24.4298 15.9944 26.0088 16.2973 27.5322C16.6003 29.0556 17.3482 30.4549 18.4464 31.5532C19.5446 32.6515 20.9439 33.3995 22.4673 33.7025C23.9906 34.0056 25.5696 33.8501 27.0046 33.2557C28.4396 32.6614 29.6661 31.6548 30.529 30.3634C31.3919 29.072 31.8525 27.5537 31.8525 26.0005C31.8525 25.901 31.813 25.8056 31.7427 25.7353C31.6723 25.665 31.5769 25.6255 31.4775 25.6255Z" fill="#5E9B87"/>
<path d="M31.4775 25.6255C31.378 25.6255 31.2826 25.665 31.2123 25.7353C31.142 25.8056 31.1025 25.901 31.1025 26.0005C31.1024 27.4052 30.6858 28.7783 29.9053 29.9463C29.1248 31.1142 28.0155 32.0245 26.7177 32.562C25.4198 33.0995 23.9918 33.24 22.6141 32.9659C21.2363 32.6918 19.9708 32.0153 18.9776 31.022C17.9843 30.0287 17.3079 28.7631 17.0339 27.3854C16.7599 26.0077 16.9006 24.5796 17.4382 23.2818C17.9758 21.9841 18.8861 20.8748 20.0541 20.0944C21.2221 19.314 22.5953 18.8975 24 18.8975C24.0994 18.8975 24.1948 18.858 24.2652 18.7876C24.3355 18.7173 24.375 18.6219 24.375 18.5225C24.375 18.423 24.3355 18.3276 24.2652 18.2573C24.1948 18.187 24.0994 18.1475 24 18.1475C22.4468 18.1474 20.9284 18.6078 19.637 19.4707C18.3455 20.3335 17.3389 21.56 16.7444 22.9949C16.15 24.4298 15.9944 26.0088 16.2973 27.5322C16.6003 29.0556 17.3482 30.4549 18.4464 31.5532C19.5446 32.6515 20.9439 33.3995 22.4673 33.7025C23.9906 34.0056 25.5696 33.8501 27.0046 33.2557C28.4396 32.6614 29.6661 31.6548 30.529 30.3634C31.3919 29.072 31.8525 27.5537 31.8525 26.0005C31.8525 25.901 31.813 25.8056 31.7427 25.7353C31.6723 25.665 31.5769 25.6255 31.4775 25.6255Z" fill="black" fill-opacity="0.2"/>
<path d="M24.0156 29.517C24.6775 29.5173 25.3316 29.3733 25.9322 29.0951C26.5329 28.8168 27.0657 28.4111 27.4936 27.906C27.5254 27.8684 27.5496 27.8249 27.5647 27.778C27.5798 27.7311 27.5855 27.6817 27.5814 27.6326C27.5774 27.5835 27.5638 27.5357 27.5413 27.4919C27.5188 27.4481 27.4879 27.4091 27.4503 27.3772C27.4128 27.3453 27.3693 27.3212 27.3224 27.3061C27.2755 27.291 27.2261 27.2853 27.177 27.2893C27.1279 27.2934 27.0801 27.307 27.0362 27.3295C26.9924 27.352 26.9534 27.3829 26.9216 27.4205C26.5661 27.8401 26.1239 28.1777 25.6254 28.4102C25.127 28.6426 24.5841 28.7643 24.0341 28.7669C23.4842 28.7696 22.9402 28.653 22.4395 28.4253C21.9389 28.1976 21.4935 27.8642 21.1341 27.448C21.069 27.3727 20.9766 27.3264 20.8774 27.3192C20.7781 27.3121 20.6801 27.3446 20.6048 27.4097C20.5296 27.4748 20.4832 27.5672 20.4761 27.6664C20.4689 27.7657 20.5015 27.8637 20.5666 27.939C20.9945 28.4342 21.524 28.8315 22.1191 29.1038C22.7143 29.376 23.3611 29.517 24.0156 29.517Z" fill="#5E9B87"/>
<path d="M24.0156 29.517C24.6775 29.5173 25.3316 29.3733 25.9322 29.0951C26.5329 28.8168 27.0657 28.4111 27.4936 27.906C27.5254 27.8684 27.5496 27.8249 27.5647 27.778C27.5798 27.7311 27.5855 27.6817 27.5814 27.6326C27.5774 27.5835 27.5638 27.5357 27.5413 27.4919C27.5188 27.4481 27.4879 27.4091 27.4503 27.3772C27.4128 27.3453 27.3693 27.3212 27.3224 27.3061C27.2755 27.291 27.2261 27.2853 27.177 27.2893C27.1279 27.2934 27.0801 27.307 27.0362 27.3295C26.9924 27.352 26.9534 27.3829 26.9216 27.4205C26.5661 27.8401 26.1239 28.1777 25.6254 28.4102C25.127 28.6426 24.5841 28.7643 24.0341 28.7669C23.4842 28.7696 22.9402 28.653 22.4395 28.4253C21.9389 28.1976 21.4935 27.8642 21.1341 27.448C21.069 27.3727 20.9766 27.3264 20.8774 27.3192C20.7781 27.3121 20.6801 27.3446 20.6048 27.4097C20.5296 27.4748 20.4832 27.5672 20.4761 27.6664C20.4689 27.7657 20.5015 27.8637 20.5666 27.939C20.9945 28.4342 21.524 28.8315 22.1191 29.1038C22.7143 29.376 23.3611 29.517 24.0156 29.517Z" fill="black" fill-opacity="0.2"/>
<path d="M20.9265 24.3461H20.929C21.0636 24.2804 21.2113 24.2462 21.361 24.2461C21.6262 24.2461 21.8806 24.3515 22.0681 24.539C22.2557 24.7265 22.361 24.9809 22.361 25.2461C22.361 25.3455 22.4005 25.4409 22.4708 25.5113C22.5412 25.5816 22.6366 25.6211 22.736 25.6211C22.8355 25.6211 22.9309 25.5816 23.0012 25.5113C23.0715 25.4409 23.111 25.3455 23.111 25.2461C23.111 24.782 22.9266 24.3368 22.5985 24.0087C22.2703 23.6805 21.8251 23.4961 21.361 23.4961C21.1133 23.4968 20.8686 23.5507 20.6435 23.6541C20.6333 23.6587 20.6235 23.6641 20.614 23.6701C20.3155 23.8112 20.0631 24.0341 19.8861 24.3129C19.7091 24.5916 19.6148 24.9149 19.614 25.2451C19.614 25.3446 19.6535 25.4399 19.7238 25.5103C19.7942 25.5806 19.8896 25.6201 19.989 25.6201C20.0885 25.6201 20.1839 25.5806 20.2542 25.5103C20.3245 25.4399 20.364 25.3446 20.364 25.2451C20.3641 25.0576 20.4168 24.8739 20.5163 24.7149C20.6157 24.5559 20.7579 24.4281 20.9265 24.3461Z" fill="#5E9B87"/>
<path d="M20.9265 24.3461H20.929C21.0636 24.2804 21.2113 24.2462 21.361 24.2461C21.6262 24.2461 21.8806 24.3515 22.0681 24.539C22.2557 24.7265 22.361 24.9809 22.361 25.2461C22.361 25.3455 22.4005 25.4409 22.4708 25.5113C22.5412 25.5816 22.6366 25.6211 22.736 25.6211C22.8355 25.6211 22.9309 25.5816 23.0012 25.5113C23.0715 25.4409 23.111 25.3455 23.111 25.2461C23.111 24.782 22.9266 24.3368 22.5985 24.0087C22.2703 23.6805 21.8251 23.4961 21.361 23.4961C21.1133 23.4968 20.8686 23.5507 20.6435 23.6541C20.6333 23.6587 20.6235 23.6641 20.614 23.6701C20.3155 23.8112 20.0631 24.0341 19.8861 24.3129C19.7091 24.5916 19.6148 24.9149 19.614 25.2451C19.614 25.3446 19.6535 25.4399 19.7238 25.5103C19.7942 25.5806 19.8896 25.6201 19.989 25.6201C20.0885 25.6201 20.1839 25.5806 20.2542 25.5103C20.3245 25.4399 20.364 25.3446 20.364 25.2451C20.3641 25.0576 20.4168 24.8739 20.5163 24.7149C20.6157 24.5559 20.7579 24.4281 20.9265 24.3461Z" fill="black" fill-opacity="0.2"/>
<path d="M28.0425 25.6162C28.1419 25.6162 28.2373 25.5767 28.3076 25.5064C28.378 25.4361 28.4175 25.3407 28.4175 25.2412C28.4175 25.0114 28.3722 24.7838 28.2843 24.5715C28.1963 24.3592 28.0674 24.1663 27.9049 24.0038C27.7424 23.8413 27.5495 23.7124 27.3372 23.6244C27.1249 23.5365 26.8973 23.4912 26.6675 23.4912C26.4377 23.4912 26.2101 23.5365 25.9978 23.6244C25.7855 23.7124 25.5925 23.8413 25.43 24.0038C25.2675 24.1663 25.1386 24.3592 25.0507 24.5715C24.9627 24.7838 24.9175 25.0114 24.9175 25.2412C24.9175 25.3407 24.957 25.4361 25.0273 25.5064C25.0976 25.5767 25.193 25.6162 25.2925 25.6162C25.3919 25.6162 25.4873 25.5767 25.5576 25.5064C25.628 25.4361 25.6675 25.3407 25.6675 25.2412C25.6671 25.0751 25.7082 24.9114 25.787 24.7652C25.8659 24.619 25.9801 24.4948 26.1192 24.4039C26.2583 24.3131 26.418 24.2584 26.5836 24.2449C26.7492 24.2314 26.9155 24.2595 27.0675 24.3267C27.0825 24.3365 27.0982 24.3451 27.1145 24.3527C27.2795 24.4353 27.4182 24.5622 27.5154 24.719C27.6125 24.8759 27.6641 25.0567 27.6645 25.2412C27.6645 25.2907 27.6743 25.3397 27.6933 25.3854C27.7123 25.4311 27.7402 25.4726 27.7754 25.5074C27.8105 25.5423 27.8522 25.5699 27.8981 25.5885C27.9439 25.6072 27.993 25.6166 28.0425 25.6162Z" fill="#5E9B87"/>
<path d="M28.0425 25.6162C28.1419 25.6162 28.2373 25.5767 28.3076 25.5064C28.378 25.4361 28.4175 25.3407 28.4175 25.2412C28.4175 25.0114 28.3722 24.7838 28.2843 24.5715C28.1963 24.3592 28.0674 24.1663 27.9049 24.0038C27.7424 23.8413 27.5495 23.7124 27.3372 23.6244C27.1249 23.5365 26.8973 23.4912 26.6675 23.4912C26.4377 23.4912 26.2101 23.5365 25.9978 23.6244C25.7855 23.7124 25.5925 23.8413 25.43 24.0038C25.2675 24.1663 25.1386 24.3592 25.0507 24.5715C24.9627 24.7838 24.9175 25.0114 24.9175 25.2412C24.9175 25.3407 24.957 25.4361 25.0273 25.5064C25.0976 25.5767 25.193 25.6162 25.2925 25.6162C25.3919 25.6162 25.4873 25.5767 25.5576 25.5064C25.628 25.4361 25.6675 25.3407 25.6675 25.2412C25.6671 25.0751 25.7082 24.9114 25.787 24.7652C25.8659 24.619 25.9801 24.4948 26.1192 24.4039C26.2583 24.3131 26.418 24.2584 26.5836 24.2449C26.7492 24.2314 26.9155 24.2595 27.0675 24.3267C27.0825 24.3365 27.0982 24.3451 27.1145 24.3527C27.2795 24.4353 27.4182 24.5622 27.5154 24.719C27.6125 24.8759 27.6641 25.0567 27.6645 25.2412C27.6645 25.2907 27.6743 25.3397 27.6933 25.3854C27.7123 25.4311 27.7402 25.4726 27.7754 25.5074C27.8105 25.5423 27.8522 25.5699 27.8981 25.5885C27.9439 25.6072 27.993 25.6166 28.0425 25.6162Z" fill="black" fill-opacity="0.2"/>
<path d="M31.4672 19.6523L30.7432 19.2568L30.3502 18.5328C30.2862 18.4159 30.192 18.3183 30.0774 18.2503C29.9627 18.1824 29.8319 18.1465 29.6987 18.1465C29.5654 18.1465 29.4346 18.1824 29.3199 18.2503C29.2053 18.3183 29.1111 18.4159 29.0472 18.5328L28.6502 19.2553L27.9252 19.6523C27.8082 19.7162 27.7106 19.8105 27.6427 19.9251C27.5747 20.0397 27.5388 20.1705 27.5388 20.3038C27.5388 20.4371 27.5747 20.5679 27.6427 20.6825C27.7106 20.7972 27.8082 20.8914 27.9252 20.9553L28.6502 21.3498L29.0452 22.0748C29.1091 22.1916 29.2033 22.2891 29.3179 22.357C29.4325 22.4249 29.5632 22.4607 29.6964 22.4607C29.8296 22.4607 29.9603 22.4249 30.0749 22.357C30.1895 22.2891 30.2837 22.1916 30.3477 22.0748L30.7407 21.3498L31.4672 20.9533C31.584 20.8893 31.6814 20.795 31.7493 20.6804C31.8171 20.5658 31.8529 20.435 31.8529 20.3018C31.8529 20.1686 31.8171 20.0379 31.7493 19.9232C31.6814 19.8086 31.584 19.7144 31.4672 19.6503V19.6523ZM30.3812 20.6938C30.2567 20.762 30.1543 20.8644 30.0862 20.9888L29.7027 21.7143L29.3062 20.9888C29.2381 20.8641 29.1355 20.7617 29.0107 20.6938L28.2857 20.3108L29.0112 19.9133C29.1358 19.8454 29.2382 19.743 29.3062 19.6183L29.6897 18.8933L30.0862 19.6183C30.1542 19.7429 30.2566 19.8453 30.3812 19.9133L31.1072 20.2963L30.3812 20.6938Z" fill="#5E9B87"/>
<path d="M31.4672 19.6523L30.7432 19.2568L30.3502 18.5328C30.2862 18.4159 30.192 18.3183 30.0774 18.2503C29.9627 18.1824 29.8319 18.1465 29.6987 18.1465C29.5654 18.1465 29.4346 18.1824 29.3199 18.2503C29.2053 18.3183 29.1111 18.4159 29.0472 18.5328L28.6502 19.2553L27.9252 19.6523C27.8082 19.7162 27.7106 19.8105 27.6427 19.9251C27.5747 20.0397 27.5388 20.1705 27.5388 20.3038C27.5388 20.4371 27.5747 20.5679 27.6427 20.6825C27.7106 20.7972 27.8082 20.8914 27.9252 20.9553L28.6502 21.3498L29.0452 22.0748C29.1091 22.1916 29.2033 22.2891 29.3179 22.357C29.4325 22.4249 29.5632 22.4607 29.6964 22.4607C29.8296 22.4607 29.9603 22.4249 30.0749 22.357C30.1895 22.2891 30.2837 22.1916 30.3477 22.0748L30.7407 21.3498L31.4672 20.9533C31.584 20.8893 31.6814 20.795 31.7493 20.6804C31.8171 20.5658 31.8529 20.435 31.8529 20.3018C31.8529 20.1686 31.8171 20.0379 31.7493 19.9232C31.6814 19.8086 31.584 19.7144 31.4672 19.6503V19.6523ZM30.3812 20.6938C30.2567 20.762 30.1543 20.8644 30.0862 20.9888L29.7027 21.7143L29.3062 20.9888C29.2381 20.8641 29.1355 20.7617 29.0107 20.6938L28.2857 20.3108L29.0112 19.9133C29.1358 19.8454 29.2382 19.743 29.3062 19.6183L29.6897 18.8933L30.0862 19.6183C30.1542 19.7429 30.2566 19.8453 30.3812 19.9133L31.1072 20.2963L30.3812 20.6938Z" fill="black" fill-opacity="0.2"/>
</g>
<path d="M36.84 31V22.36H37.974L41.106 28.858L44.22 22.36H45.366V30.994H44.178V25.084L41.388 31H40.818L38.022 25.084V31H36.84ZM49.861 31.18C49.213 31.18 48.651 31.034 48.175 30.742C47.699 30.45 47.331 30.048 47.071 29.536C46.815 29.02 46.687 28.426 46.687 27.754C46.687 27.078 46.819 26.484 47.083 25.972C47.347 25.456 47.717 25.056 48.193 24.772C48.669 24.484 49.225 24.34 49.861 24.34C50.509 24.34 51.071 24.486 51.547 24.778C52.023 25.07 52.391 25.472 52.651 25.984C52.911 26.496 53.041 27.086 53.041 27.754C53.041 28.43 52.909 29.026 52.645 29.542C52.385 30.054 52.017 30.456 51.541 30.748C51.065 31.036 50.505 31.18 49.861 31.18ZM49.861 29.998C50.481 29.998 50.943 29.79 51.247 29.374C51.555 28.954 51.709 28.414 51.709 27.754C51.709 27.078 51.553 26.538 51.241 26.134C50.933 25.726 50.473 25.522 49.861 25.522C49.441 25.522 49.095 25.618 48.823 25.81C48.551 25.998 48.349 26.26 48.217 26.596C48.085 26.928 48.019 27.314 48.019 27.754C48.019 28.434 48.175 28.978 48.487 29.386C48.799 29.794 49.257 29.998 49.861 29.998ZM57.1735 31.18C56.5255 31.18 55.9635 31.034 55.4875 30.742C55.0115 30.45 54.6435 30.048 54.3835 29.536C54.1275 29.02 53.9995 28.426 53.9995 27.754C53.9995 27.078 54.1315 26.484 54.3955 25.972C54.6595 25.456 55.0295 25.056 55.5055 24.772C55.9815 24.484 56.5375 24.34 57.1735 24.34C57.8215 24.34 58.3835 24.486 58.8595 24.778C59.3355 25.07 59.7035 25.472 59.9635 25.984C60.2235 26.496 60.3535 27.086 60.3535 27.754C60.3535 28.43 60.2215 29.026 59.9575 29.542C59.6975 30.054 59.3295 30.456 58.8535 30.748C58.3775 31.036 57.8175 31.18 57.1735 31.18ZM57.1735 29.998C57.7935 29.998 58.2555 29.79 58.5595 29.374C58.8675 28.954 59.0215 28.414 59.0215 27.754C59.0215 27.078 58.8655 26.538 58.5535 26.134C58.2455 25.726 57.7855 25.522 57.1735 25.522C56.7535 25.522 56.4075 25.618 56.1355 25.81C55.8635 25.998 55.6615 26.26 55.5295 26.596C55.3975 26.928 55.3315 27.314 55.3315 27.754C55.3315 28.434 55.4875 28.978 55.7995 29.386C56.1115 29.794 56.5695 29.998 57.1735 29.998ZM64.246 31.18C63.642 31.18 63.12 31.03 62.68 30.73C62.244 30.43 61.906 30.022 61.666 29.506C61.43 28.986 61.312 28.402 61.312 27.754C61.312 27.102 61.432 26.52 61.672 26.008C61.912 25.492 62.252 25.086 62.692 24.79C63.136 24.49 63.662 24.34 64.27 24.34C64.882 24.34 65.396 24.49 65.812 24.79C66.232 25.086 66.548 25.492 66.76 26.008C66.976 26.524 67.084 27.106 67.084 27.754C67.084 28.402 66.976 28.984 66.76 29.5C66.544 30.016 66.226 30.426 65.806 30.73C65.386 31.03 64.866 31.18 64.246 31.18ZM64.42 30.046C64.832 30.046 65.168 29.948 65.428 29.752C65.688 29.556 65.878 29.286 65.998 28.942C66.118 28.598 66.178 28.202 66.178 27.754C66.178 27.306 66.116 26.91 65.992 26.566C65.872 26.222 65.684 25.954 65.428 25.762C65.176 25.57 64.854 25.474 64.462 25.474C64.046 25.474 63.704 25.576 63.436 25.78C63.168 25.984 62.968 26.258 62.836 26.602C62.708 26.946 62.644 27.33 62.644 27.754C62.644 28.182 62.708 28.57 62.836 28.918C62.968 29.262 63.164 29.536 63.424 29.74C63.688 29.944 64.02 30.046 64.42 30.046ZM66.178 31V26.338H66.034V22.36H67.294V31H66.178ZM75.0832 31C74.6752 31.08 74.2752 31.114 73.8832 31.102C73.4912 31.09 73.1412 31.014 72.8332 30.874C72.5252 30.734 72.2932 30.514 72.1372 30.214C71.9972 29.946 71.9212 29.674 71.9092 29.398C71.9012 29.118 71.8972 28.802 71.8972 28.45V22.72H73.1572V28.39C73.1572 28.65 73.1592 28.876 73.1632 29.068C73.1712 29.26 73.2132 29.422 73.2892 29.554C73.4332 29.802 73.6612 29.944 73.9732 29.98C74.2892 30.012 74.6592 29.998 75.0832 29.938V31ZM70.6552 25.528V24.52H75.0832V25.528H70.6552ZM76.4494 31V24.52H77.5654V26.092L77.4094 25.888C77.4894 25.68 77.5934 25.49 77.7214 25.318C77.8494 25.142 77.9974 24.998 78.1654 24.886C78.3294 24.766 78.5114 24.674 78.7114 24.61C78.9154 24.542 79.1234 24.502 79.3354 24.49C79.5474 24.474 79.7514 24.484 79.9474 24.52V25.696C79.7354 25.64 79.4994 25.624 79.2394 25.648C78.9834 25.672 78.7474 25.754 78.5314 25.894C78.3274 26.026 78.1654 26.186 78.0454 26.374C77.9294 26.562 77.8454 26.772 77.7934 27.004C77.7414 27.232 77.7154 27.474 77.7154 27.73V31H76.4494ZM83.8468 31.18C83.2028 31.18 82.6368 31.04 82.1488 30.76C81.6648 30.476 81.2868 30.082 81.0148 29.578C80.7468 29.07 80.6128 28.482 80.6128 27.814C80.6128 27.106 80.7448 26.492 81.0088 25.972C81.2768 25.452 81.6488 25.05 82.1248 24.766C82.6008 24.482 83.1548 24.34 83.7868 24.34C84.4468 24.34 85.0088 24.494 85.4728 24.802C85.9368 25.106 86.2828 25.54 86.5108 26.104C86.7428 26.668 86.8348 27.338 86.7868 28.114H85.5328V27.658C85.5248 26.906 85.3808 26.35 85.1008 25.99C84.8248 25.63 84.4028 25.45 83.8348 25.45C83.2068 25.45 82.7348 25.648 82.4188 26.044C82.1028 26.44 81.9448 27.012 81.9448 27.76C81.9448 28.472 82.1028 29.024 82.4188 29.416C82.7348 29.804 83.1908 29.998 83.7868 29.998C84.1788 29.998 84.5168 29.91 84.8008 29.734C85.0888 29.554 85.3128 29.298 85.4728 28.966L86.7028 29.356C86.4508 29.936 86.0688 30.386 85.5568 30.706C85.0448 31.022 84.4748 31.18 83.8468 31.18ZM81.5368 28.114V27.136H86.1628V28.114H81.5368ZM92.5052 31V27.814C92.5052 27.562 92.4832 27.304 92.4392 27.04C92.3992 26.772 92.3192 26.524 92.1992 26.296C92.0832 26.068 91.9172 25.884 91.7012 25.744C91.4892 25.604 91.2112 25.534 90.8672 25.534C90.6432 25.534 90.4312 25.572 90.2312 25.648C90.0312 25.72 89.8552 25.838 89.7032 26.002C89.5552 26.166 89.4372 26.382 89.3492 26.65C89.2652 26.918 89.2232 27.244 89.2232 27.628L88.4432 27.334C88.4432 26.746 88.5532 26.228 88.7732 25.78C88.9932 25.328 89.3092 24.976 89.7212 24.724C90.1332 24.472 90.6312 24.346 91.2152 24.346C91.6632 24.346 92.0392 24.418 92.3432 24.562C92.6472 24.706 92.8932 24.896 93.0812 25.132C93.2732 25.364 93.4192 25.618 93.5192 25.894C93.6192 26.17 93.6872 26.44 93.7232 26.704C93.7592 26.968 93.7772 27.2 93.7772 27.4V31H92.5052ZM87.9512 31V24.52H89.0732V26.392H89.2232V31H87.9512ZM97.832 31.18C97.228 31.18 96.706 31.03 96.266 30.73C95.83 30.43 95.492 30.022 95.252 29.506C95.016 28.986 94.898 28.402 94.898 27.754C94.898 27.102 95.018 26.52 95.258 26.008C95.498 25.492 95.838 25.086 96.278 24.79C96.722 24.49 97.248 24.34 97.856 24.34C98.468 24.34 98.982 24.49 99.398 24.79C99.818 25.086 100.134 25.492 100.346 26.008C100.562 26.524 100.67 27.106 100.67 27.754C100.67 28.402 100.562 28.984 100.346 29.5C100.13 30.016 99.812 30.426 99.392 30.73C98.972 31.03 98.452 31.18 97.832 31.18ZM98.006 30.046C98.418 30.046 98.754 29.948 99.014 29.752C99.274 29.556 99.464 29.286 99.584 28.942C99.704 28.598 99.764 28.202 99.764 27.754C99.764 27.306 99.702 26.91 99.578 26.566C99.458 26.222 99.27 25.954 99.014 25.762C98.762 25.57 98.44 25.474 98.048 25.474C97.632 25.474 97.29 25.576 97.022 25.78C96.754 25.984 96.554 26.258 96.422 26.602C96.294 26.946 96.23 27.33 96.23 27.754C96.23 28.182 96.294 28.57 96.422 28.918C96.554 29.262 96.75 29.536 97.01 29.74C97.274 29.944 97.606 30.046 98.006 30.046ZM99.764 31V26.338H99.62V22.36H100.88V31H99.764ZM105.037 31.174C104.249 31.174 103.607 31 103.111 30.652C102.615 30.304 102.311 29.814 102.199 29.182L103.483 28.984C103.563 29.32 103.747 29.586 104.035 29.782C104.327 29.974 104.689 30.07 105.121 30.07C105.513 30.07 105.819 29.99 106.039 29.83C106.263 29.67 106.375 29.45 106.375 29.17C106.375 29.006 106.335 28.874 106.255 28.774C106.179 28.67 106.017 28.572 105.769 28.48C105.521 28.388 105.143 28.274 104.635 28.138C104.079 27.994 103.637 27.84 103.309 27.676C102.985 27.508 102.753 27.314 102.613 27.094C102.477 26.87 102.409 26.6 102.409 26.284C102.409 25.892 102.513 25.55 102.721 25.258C102.929 24.966 103.221 24.74 103.597 24.58C103.977 24.42 104.421 24.34 104.929 24.34C105.425 24.34 105.867 24.418 106.255 24.574C106.643 24.73 106.957 24.952 107.197 25.24C107.437 25.524 107.581 25.858 107.629 26.242L106.345 26.476C106.301 26.164 106.155 25.918 105.907 25.738C105.659 25.558 105.337 25.46 104.941 25.444C104.561 25.428 104.253 25.492 104.017 25.636C103.781 25.776 103.663 25.97 103.663 26.218C103.663 26.362 103.707 26.484 103.795 26.584C103.887 26.684 104.063 26.78 104.323 26.872C104.583 26.964 104.967 27.074 105.475 27.202C106.019 27.342 106.451 27.498 106.771 27.67C107.091 27.838 107.319 28.04 107.455 28.276C107.595 28.508 107.665 28.79 107.665 29.122C107.665 29.762 107.431 30.264 106.963 30.628C106.499 30.992 105.857 31.174 105.037 31.174Z" fill="#656565"/>
<path d="M239.2 30L241.68 22.8H242.655L245.135 30H244.37L242.015 23.21H242.305L239.965 30H239.2ZM240.305 28.255V27.565H244.025V28.255H240.305ZM248.463 30.15C247.966 30.15 247.546 30.025 247.203 29.775C246.86 29.5217 246.6 29.18 246.423 28.75C246.246 28.3167 246.158 27.8317 246.158 27.295C246.158 26.7483 246.246 26.2617 246.423 25.835C246.603 25.405 246.866 25.0667 247.213 24.82C247.56 24.5733 247.986 24.45 248.493 24.45C248.986 24.45 249.41 24.575 249.763 24.825C250.116 25.075 250.386 25.415 250.573 25.845C250.763 26.275 250.858 26.7583 250.858 27.295C250.858 27.835 250.763 28.32 250.573 28.75C250.383 29.18 250.11 29.5217 249.753 29.775C249.396 30.025 248.966 30.15 248.463 30.15ZM246.033 32.4V24.6H246.693V28.665H246.773V32.4H246.033ZM248.388 29.465C248.765 29.465 249.078 29.37 249.328 29.18C249.578 28.99 249.765 28.7317 249.888 28.405C250.015 28.075 250.078 27.705 250.078 27.295C250.078 26.8883 250.016 26.5217 249.893 26.195C249.77 25.8683 249.581 25.61 249.328 25.42C249.078 25.23 248.76 25.135 248.373 25.135C247.996 25.135 247.683 25.2267 247.433 25.41C247.186 25.5933 247.001 25.8483 246.878 26.175C246.755 26.4983 246.693 26.8717 246.693 27.295C246.693 27.7117 246.755 28.085 246.878 28.415C247.001 28.7417 247.188 28.9983 247.438 29.185C247.688 29.3717 248.005 29.465 248.388 29.465ZM251.956 30V24.6H252.616V25.9L252.486 25.73C252.546 25.57 252.624 25.4233 252.721 25.29C252.818 25.1533 252.923 25.0417 253.036 24.955C253.176 24.8317 253.339 24.7383 253.526 24.675C253.713 24.6083 253.901 24.57 254.091 24.56C254.281 24.5467 254.454 24.56 254.611 24.6V25.29C254.414 25.24 254.199 25.2283 253.966 25.255C253.733 25.2817 253.518 25.375 253.321 25.535C253.141 25.675 253.006 25.8433 252.916 26.04C252.826 26.2333 252.766 26.44 252.736 26.66C252.706 26.8767 252.691 27.0917 252.691 27.305V30H251.956ZM259.496 30.145C259.14 30.145 258.811 30.0817 258.511 29.955C258.211 29.8283 257.953 29.6483 257.736 29.415C257.52 29.1783 257.361 28.8967 257.261 28.57L257.961 28.36C258.081 28.7167 258.278 28.9867 258.551 29.17C258.828 29.3533 259.14 29.4417 259.486 29.435C259.806 29.4283 260.081 29.3567 260.311 29.22C260.545 29.0833 260.723 28.8933 260.846 28.65C260.97 28.4067 261.031 28.125 261.031 27.805C261.031 27.315 260.888 26.9217 260.601 26.625C260.318 26.325 259.943 26.175 259.476 26.175C259.346 26.175 259.21 26.1933 259.066 26.23C258.923 26.2633 258.79 26.3117 258.666 26.375L258.296 25.79L261.096 23.205L261.216 23.505H257.546V22.8H261.706V23.515L259.266 25.845L259.256 25.555C259.756 25.4917 260.196 25.5483 260.576 25.725C260.956 25.9017 261.253 26.1717 261.466 26.535C261.683 26.895 261.791 27.3183 261.791 27.805C261.791 28.265 261.691 28.6717 261.491 29.025C261.295 29.375 261.023 29.65 260.676 29.85C260.33 30.0467 259.936 30.145 259.496 30.145ZM264.991 27.165V26.535H267.991V27.165H264.991ZM270.792 30L273.272 22.8H274.247L276.727 30H275.962L273.607 23.21H273.897L271.557 30H270.792ZM271.897 28.255V27.565H275.617V28.255H271.897ZM280.055 30.15C279.558 30.15 279.138 30.025 278.795 29.775C278.451 29.5217 278.191 29.18 278.015 28.75C277.838 28.3167 277.75 27.8317 277.75 27.295C277.75 26.7483 277.838 26.2617 278.015 25.835C278.195 25.405 278.458 25.0667 278.805 24.82C279.151 24.5733 279.578 24.45 280.085 24.45C280.578 24.45 281.001 24.575 281.355 24.825C281.708 25.075 281.978 25.415 282.165 25.845C282.355 26.275 282.45 26.7583 282.45 27.295C282.45 27.835 282.355 28.32 282.165 28.75C281.975 29.18 281.701 29.5217 281.345 29.775C280.988 30.025 280.558 30.15 280.055 30.15ZM277.625 32.4V24.6H278.285V28.665H278.365V32.4H277.625ZM279.98 29.465C280.356 29.465 280.67 29.37 280.92 29.18C281.17 28.99 281.356 28.7317 281.48 28.405C281.606 28.075 281.67 27.705 281.67 27.295C281.67 26.8883 281.608 26.5217 281.485 26.195C281.361 25.8683 281.173 25.61 280.92 25.42C280.67 25.23 280.351 25.135 279.965 25.135C279.588 25.135 279.275 25.2267 279.025 25.41C278.778 25.5933 278.593 25.8483 278.47 26.175C278.346 26.4983 278.285 26.8717 278.285 27.295C278.285 27.7117 278.346 28.085 278.47 28.415C278.593 28.7417 278.78 28.9983 279.03 29.185C279.28 29.3717 279.596 29.465 279.98 29.465ZM283.548 30V24.6H284.208V25.9L284.078 25.73C284.138 25.57 284.216 25.4233 284.313 25.29C284.409 25.1533 284.514 25.0417 284.628 24.955C284.768 24.8317 284.931 24.7383 285.118 24.675C285.304 24.6083 285.493 24.57 285.683 24.56C285.873 24.5467 286.046 24.56 286.203 24.6V25.29C286.006 25.24 285.791 25.2283 285.558 25.255C285.324 25.2817 285.109 25.375 284.913 25.535C284.733 25.675 284.598 25.8433 284.508 26.04C284.418 26.2333 284.358 26.44 284.328 26.66C284.298 26.8767 284.283 27.0917 284.283 27.305V30H283.548ZM290.408 30V23.62L289.053 24.435V23.61L290.408 22.8H291.153V30H290.408ZM295.4 30.15C294.956 30.15 294.556 30.0467 294.2 29.84C293.846 29.6333 293.566 29.3533 293.36 29C293.153 28.6433 293.05 28.2433 293.05 27.8V25C293.05 24.5567 293.153 24.1583 293.36 23.805C293.566 23.4483 293.846 23.1667 294.2 22.96C294.556 22.7533 294.956 22.65 295.4 22.65C295.843 22.65 296.241 22.7533 296.595 22.96C296.951 23.1667 297.233 23.4483 297.44 23.805C297.646 24.1583 297.75 24.5567 297.75 25V27.8C297.75 28.2433 297.646 28.6433 297.44 29C297.233 29.3533 296.951 29.6333 296.595 29.84C296.241 30.0467 295.843 30.15 295.4 30.15ZM295.4 29.44C295.696 29.44 295.966 29.3683 296.21 29.225C296.453 29.0783 296.646 28.8833 296.79 28.64C296.933 28.3967 297.005 28.1283 297.005 27.835V24.965C297.005 24.6683 296.933 24.3983 296.79 24.155C296.646 23.9117 296.453 23.7183 296.21 23.575C295.966 23.4283 295.696 23.355 295.4 23.355C295.103 23.355 294.833 23.4283 294.59 23.575C294.346 23.7183 294.153 23.9117 294.01 24.155C293.866 24.3983 293.795 24.6683 293.795 24.965V27.835C293.795 28.1283 293.866 28.3967 294.01 28.64C294.153 28.8833 294.346 29.0783 294.59 29.225C294.833 29.3683 295.103 29.44 295.4 29.44ZM299.053 31.045L299.098 30.68C299.231 30.69 299.328 30.6633 299.388 30.6C299.448 30.5367 299.485 30.4517 299.498 30.345C299.511 30.2383 299.515 30.1233 299.508 30H299.053V28.945H299.908V30.2C299.908 30.5067 299.83 30.7367 299.673 30.89C299.52 31.0433 299.313 31.095 299.053 31.045ZM303.611 29.995L303.616 29.325L306.871 26.385C307.151 26.1317 307.336 25.8917 307.426 25.665C307.52 25.435 307.566 25.195 307.566 24.945C307.566 24.6483 307.496 24.38 307.356 24.14C307.216 23.9 307.028 23.71 306.791 23.57C306.555 23.4267 306.29 23.355 305.996 23.355C305.69 23.355 305.416 23.4283 305.176 23.575C304.936 23.7217 304.746 23.915 304.606 24.155C304.47 24.395 304.403 24.6567 304.406 24.94H303.656C303.656 24.5033 303.76 24.1117 303.966 23.765C304.173 23.4183 304.453 23.1467 304.806 22.95C305.16 22.75 305.56 22.65 306.006 22.65C306.443 22.65 306.835 22.7533 307.181 22.96C307.531 23.1633 307.806 23.44 308.006 23.79C308.21 24.1367 308.311 24.5233 308.311 24.95C308.311 25.25 308.275 25.515 308.201 25.745C308.131 25.9717 308.02 26.1833 307.866 26.38C307.716 26.5733 307.525 26.7733 307.291 26.98L304.401 29.59L304.286 29.29H308.311V29.995H303.611ZM311.864 30.15C311.421 30.15 311.021 30.0467 310.664 29.84C310.311 29.6333 310.031 29.3533 309.824 29C309.618 28.6433 309.514 28.2433 309.514 27.8V25C309.514 24.5567 309.618 24.1583 309.824 23.805C310.031 23.4483 310.311 23.1667 310.664 22.96C311.021 22.7533 311.421 22.65 311.864 22.65C312.308 22.65 312.706 22.7533 313.059 22.96C313.416 23.1667 313.698 23.4483 313.904 23.805C314.111 24.1583 314.214 24.5567 314.214 25V27.8C314.214 28.2433 314.111 28.6433 313.904 29C313.698 29.3533 313.416 29.6333 313.059 29.84C312.706 30.0467 312.308 30.15 311.864 30.15ZM311.864 29.44C312.161 29.44 312.431 29.3683 312.674 29.225C312.918 29.0783 313.111 28.8833 313.254 28.64C313.398 28.3967 313.469 28.1283 313.469 27.835V24.965C313.469 24.6683 313.398 24.3983 313.254 24.155C313.111 23.9117 312.918 23.7183 312.674 23.575C312.431 23.4283 312.161 23.355 311.864 23.355C311.568 23.355 311.298 23.4283 311.054 23.575C310.811 23.7183 310.618 23.9117 310.474 24.155C310.331 24.3983 310.259 24.6683 310.259 24.965V27.835C310.259 28.1283 310.331 28.3967 310.474 28.64C310.618 28.8833 310.811 29.0783 311.054 29.225C311.298 29.3683 311.568 29.44 311.864 29.44ZM315.418 29.995L315.423 29.325L318.678 26.385C318.958 26.1317 319.143 25.8917 319.233 25.665C319.326 25.435 319.373 25.195 319.373 24.945C319.373 24.6483 319.303 24.38 319.163 24.14C319.023 23.9 318.835 23.71 318.598 23.57C318.361 23.4267 318.096 23.355 317.803 23.355C317.496 23.355 317.223 23.4283 316.983 23.575C316.743 23.7217 316.553 23.915 316.413 24.155C316.276 24.395 316.21 24.6567 316.213 24.94H315.463C315.463 24.5033 315.566 24.1117 315.773 23.765C315.98 23.4183 316.26 23.1467 316.613 22.95C316.966 22.75 317.366 22.65 317.813 22.65C318.25 22.65 318.641 22.7533 318.988 22.96C319.338 23.1633 319.613 23.44 319.813 23.79C320.016 24.1367 320.118 24.5233 320.118 24.95C320.118 25.25 320.081 25.515 320.008 25.745C319.938 25.9717 319.826 26.1833 319.673 26.38C319.523 26.5733 319.331 26.7733 319.098 26.98L316.208 29.59L316.093 29.29H320.118V29.995H315.418ZM323.446 30.15C323.073 30.15 322.728 30.0733 322.411 29.92C322.094 29.7667 321.824 29.555 321.601 29.285C321.378 29.015 321.218 28.705 321.121 28.355L321.826 28.165C321.889 28.425 322.004 28.65 322.171 28.84C322.338 29.0267 322.533 29.1717 322.756 29.275C322.983 29.3783 323.219 29.43 323.466 29.43C323.786 29.43 324.073 29.3533 324.326 29.2C324.583 29.0433 324.786 28.8367 324.936 28.58C325.086 28.3233 325.161 28.0417 325.161 27.735C325.161 27.4183 325.083 27.1333 324.926 26.88C324.769 26.6233 324.563 26.42 324.306 26.27C324.049 26.12 323.769 26.045 323.466 26.045C323.126 26.045 322.833 26.12 322.586 26.27C322.339 26.4167 322.143 26.6017 321.996 26.825L321.326 26.545L321.546 22.8H325.391V23.505H321.871L322.236 23.16L322.041 26.355L321.856 26.11C322.063 25.8733 322.313 25.6883 322.606 25.555C322.899 25.4217 323.208 25.355 323.531 25.355C323.974 25.355 324.374 25.4617 324.731 25.675C325.088 25.885 325.371 26.17 325.581 26.53C325.791 26.89 325.896 27.2917 325.896 27.735C325.896 28.175 325.784 28.5783 325.561 28.945C325.338 29.3083 325.041 29.6 324.671 29.82C324.301 30.04 323.893 30.15 323.446 30.15Z" fill="#150A02"/>
<g clip-path="url(#clip1_399_30182)">
<g clip-path="url(#clip2_399_30182)">
<line x1="16" y1="67.5" x2="309" y2="67.5" stroke="#F7F7F5"/>
<g clip-path="url(#clip3_399_30182)">
<path d="M319 72.8481C321.677 72.8481 323.848 70.6776 323.848 68.0002C323.848 65.3228 321.677 63.1523 319 63.1523C316.323 63.1523 314.152 65.3228 314.152 68.0002C314.152 70.6776 316.323 72.8481 319 72.8481Z" fill="#FCD144"/>
<path d="M318.95 73.7715C319.047 73.7723 319.125 73.8514 319.124 73.9483L319.105 75.8268C319.104 75.9234 319.025 76.001 318.929 76.0002C318.832 75.9994 318.754 75.9202 318.755 75.8233L318.773 73.9449C318.774 73.8483 318.853 73.7707 318.95 73.7715Z" fill="#F29E25"/>
<path d="M314.884 72.0455C314.952 72.1145 314.951 72.2256 314.881 72.2933L313.54 73.6086C313.471 73.6763 313.361 73.6753 313.293 73.6064C313.225 73.5374 313.226 73.4263 313.295 73.3586L314.636 72.0433C314.705 71.9756 314.816 71.9766 314.884 72.0455Z" fill="#F29E25"/>
<path d="M313.229 67.9498C313.228 68.0465 313.149 68.1244 313.052 68.1234L311.173 68.1051C311.077 68.1042 310.999 68.0251 311 67.9286C311.001 67.8318 311.08 67.7539 311.177 67.7549L313.055 67.7732C313.152 67.7742 313.229 67.8532 313.229 67.9498Z" fill="#F29E25"/>
<path d="M314.954 63.8833C314.885 63.9513 314.774 63.9503 314.707 63.8811L313.391 62.5399C313.324 62.4709 313.325 62.3602 313.393 62.2925C313.463 62.2246 313.574 62.2256 313.641 62.2947L314.957 63.6359C315.024 63.7048 315.023 63.8156 314.954 63.8833Z" fill="#F29E25"/>
<path d="M319.05 62.2287C318.953 62.2279 318.875 62.1487 318.876 62.0519L318.895 60.1734C318.895 60.0768 318.975 59.9992 319.071 60C319.168 60.0008 319.246 60.08 319.245 60.1768L319.226 62.0553C319.225 62.1518 319.146 62.2294 319.05 62.2287Z" fill="#F29E25"/>
<path d="M323.116 63.9541C323.048 63.885 323.049 63.774 323.118 63.7062L324.46 62.3909C324.528 62.3233 324.639 62.3243 324.707 62.3931C324.775 62.4622 324.774 62.5732 324.705 62.641L323.363 63.9563C323.295 64.0239 323.184 64.0229 323.116 63.9541Z" fill="#F29E25"/>
<path d="M324.771 68.0506C324.772 67.9538 324.851 67.876 324.948 67.877L326.826 67.8953C326.923 67.8962 327.001 67.9752 327 68.0718C326.999 68.1686 326.92 68.2465 326.823 68.2455L324.944 68.2272C324.848 68.2262 324.77 68.1472 324.771 68.0506Z" fill="#F29E25"/>
<path d="M323.046 72.1158C323.115 72.0478 323.226 72.0488 323.293 72.1179L324.609 73.4592C324.676 73.5281 324.675 73.6389 324.607 73.7066C324.537 73.7745 324.426 73.7735 324.359 73.7044L323.043 72.3631C322.976 72.2942 322.977 72.1835 323.046 72.1158Z" fill="#F29E25"/>
</g>
<line x1="16" y1="99.5" x2="309" y2="99.5" stroke="#F7F7F5"/>
<path d="M316.368 101.927C318.111 101.927 319.524 100.514 319.524 98.7713C319.524 97.0282 318.111 95.6152 316.368 95.6152C314.625 95.6152 313.212 97.0282 313.212 98.7713C313.212 100.514 314.625 101.927 316.368 101.927Z" fill="#FCD144"/>
<path d="M327 102.425C327 104.166 325.59 105.578 323.848 105.578H315.914C314.173 105.578 312.763 104.166 312.763 102.425C312.763 100.683 314.173 99.2708 315.914 99.2708C315.969 99.2708 316.023 99.273 316.077 99.2752C316.562 97.6334 318.083 96.4355 319.88 96.4355C321.68 96.4355 323.199 97.6334 323.686 99.2752C323.74 99.273 323.794 99.2708 323.848 99.2708C325.59 99.2708 327 100.683 327 102.425Z" fill="#B8D6E1"/>
<path d="M327 102.425C327 104.166 325.59 105.578 323.849 105.578H315.914C315.288 105.578 314.703 105.395 314.213 105.079C314.706 105.173 315.218 105.222 315.742 105.222C319.883 105.222 323.241 102.142 323.241 98.3408C323.241 98.3248 323.241 98.308 323.24 98.292C323.431 98.5946 323.582 98.9247 323.686 99.2755C323.74 99.2728 323.794 99.2708 323.848 99.2708C325.59 99.2708 327 100.683 327 102.425Z" fill="#9DB8C9"/>
<path d="M312.474 98.7577C312.473 98.8218 312.421 98.8732 312.357 98.8726L311.115 98.8605C311.051 98.8599 311 98.8077 311 98.7438C311 98.6797 311.053 98.6283 311.117 98.6289L312.359 98.641C312.423 98.6417 312.475 98.6939 312.474 98.7577Z" fill="#F29E25"/>
<path d="M313.615 96.0688C313.57 96.1137 313.496 96.1131 313.451 96.0673L312.581 95.1803C312.537 95.1347 312.537 95.0615 312.583 95.0167C312.629 94.9718 312.702 94.9724 312.747 95.0182L313.617 95.9051C313.661 95.9507 313.661 96.0239 313.615 96.0688Z" fill="#F29E25"/>
<path d="M316.324 94.974C316.26 94.9735 316.209 94.9211 316.209 94.857L316.221 93.6147C316.222 93.5508 316.274 93.4995 316.338 93.5C316.402 93.5005 316.453 93.5529 316.453 93.6169L316.441 94.8593C316.44 94.9231 316.388 94.9744 316.324 94.974Z" fill="#F29E25"/>
<path d="M319.013 96.1158C318.968 96.0702 318.969 95.9967 319.015 95.9518L319.902 95.082C319.947 95.0372 320.021 95.0378 320.065 95.0834C320.11 95.129 320.11 95.2025 320.064 95.2473L319.177 96.1172C319.131 96.1619 319.058 96.1613 319.013 96.1158Z" fill="#F29E25"/>
<line x1="16" y1="131.5" x2="309" y2="131.5" stroke="#F7F7F5"/>
<path d="M327 133.23C327 135.188 325.415 136.775 323.458 136.775H314.542C312.585 136.775 311 135.188 311 133.23C311 131.273 312.585 129.686 314.542 129.686C314.603 129.686 314.663 129.689 314.724 129.691C315.27 127.846 316.978 126.5 318.999 126.5C321.022 126.5 322.728 127.846 323.276 129.691C323.337 129.689 323.397 129.686 323.458 129.686C325.415 129.686 327 131.273 327 133.23Z" fill="#B8D6E1"/>
<path d="M327 133.231C327 135.188 325.415 136.775 323.458 136.775H314.542C313.837 136.775 313.181 136.57 312.629 136.214C313.184 136.32 313.759 136.376 314.348 136.376C319.002 136.376 322.775 132.913 322.775 128.642C322.775 128.624 322.775 128.605 322.774 128.587C322.989 128.927 323.159 129.298 323.275 129.692C323.336 129.689 323.397 129.687 323.458 129.687C325.415 129.687 327 131.274 327 133.231Z" fill="#9DB8C9"/>
<line x1="16" y1="163.5" x2="309" y2="163.5" stroke="#F7F7F5"/>
<g clip-path="url(#clip4_399_30182)">
<path d="M323.129 167.776H323.459C325.416 167.776 327 166.189 327 164.232C327 162.274 325.416 160.688 323.459 160.688C323.396 160.688 323.336 160.69 323.276 160.693C322.727 158.847 321.022 157.5 318.997 157.5C318.439 157.5 317.908 157.603 317.416 157.791C316.123 158.281 315.118 159.356 314.724 160.693C314.664 160.69 314.601 160.688 314.541 160.688C313.51 160.688 312.582 161.129 311.936 161.831C311.354 162.462 311 163.306 311 164.232C311 166.189 312.584 167.776 314.541 167.776H314.871H323.129Z" fill="#9DB8C9"/>
<path d="M327 164.231C327 166.188 325.416 167.775 323.458 167.775H314.542C313.838 167.775 313.181 167.57 312.629 167.214C313.184 167.32 313.759 167.376 314.348 167.376C319.002 167.376 322.775 163.913 322.775 159.642C322.775 159.624 322.775 159.605 322.775 159.587C322.989 159.927 323.159 160.298 323.276 160.692C323.337 160.689 323.398 160.687 323.458 160.687C325.416 160.687 327 162.274 327 164.231Z" fill="#849D94"/>
<path d="M315.581 170.305C315.479 170.692 315.093 170.971 314.665 170.9C314.639 170.896 314.612 170.89 314.586 170.883C313.982 170.723 313.777 169.968 314.218 169.525L315.21 168.527L315.492 169.565L315.578 169.885C315.618 170.031 315.616 170.174 315.581 170.305Z" fill="#8FC4EC"/>
<path d="M315.581 170.305C315.479 170.692 315.093 170.971 314.665 170.901C314.994 170.693 315.264 170.47 315.376 170.202C315.461 170.02 315.493 169.804 315.492 169.565L315.578 169.885C315.618 170.031 315.616 170.174 315.581 170.305Z" fill="#61ADDB"/>
<path d="M319.326 170.305C319.224 170.692 318.838 170.971 318.41 170.9C318.384 170.896 318.357 170.89 318.331 170.883C317.727 170.723 317.522 169.968 317.963 169.525L318.955 168.527L319.237 169.565L319.323 169.885C319.363 170.031 319.361 170.174 319.326 170.305Z" fill="#8FC4EC"/>
<path d="M319.326 170.305C319.224 170.692 318.838 170.971 318.41 170.901C318.739 170.693 319.009 170.47 319.121 170.202C319.206 170.02 319.238 169.804 319.237 169.565L319.323 169.885C319.363 170.031 319.361 170.174 319.326 170.305Z" fill="#61ADDB"/>
<path d="M323.071 170.305C322.969 170.692 322.583 170.971 322.155 170.9C322.129 170.896 322.102 170.89 322.076 170.883C321.472 170.723 321.267 169.968 321.708 169.525L322.7 168.527L322.982 169.565L323.068 169.885C323.108 170.031 323.106 170.174 323.071 170.305Z" fill="#8FC4EC"/>
<path d="M323.071 170.305C322.969 170.692 322.583 170.971 322.155 170.901C322.484 170.693 322.754 170.47 322.866 170.202C322.951 170.02 322.983 169.804 322.982 169.565L323.068 169.885C323.108 170.031 323.106 170.174 323.071 170.305Z" fill="#61ADDB"/>
</g>
<line x1="16" y1="195.5" x2="309" y2="195.5" stroke="#F7F7F5"/>
<g clip-path="url(#clip5_399_30182)">
<path d="M323.129 198.276H323.459C325.416 198.276 327 196.689 327 194.732C327 192.774 325.416 191.188 323.459 191.188C323.396 191.188 323.336 191.19 323.276 191.193C322.726 189.347 321.022 188 318.997 188C318.439 188 317.908 188.103 317.416 188.291C316.123 188.781 315.118 189.856 314.724 191.193C314.664 191.19 314.601 191.188 314.541 191.188C313.51 191.188 312.582 191.628 311.936 192.331C311.354 192.962 311 193.806 311 194.732C311 196.689 312.584 198.276 314.541 198.276H314.871" fill="#849D94"/>
<path d="M327 194.731C327 196.688 325.416 198.275 323.459 198.275H314.542C313.838 198.275 313.181 198.07 312.629 197.714C313.184 197.82 313.759 197.876 314.349 197.876C319.002 197.876 322.775 194.413 322.775 190.142C322.775 190.124 322.775 190.105 322.775 190.087C322.989 190.427 323.159 190.798 323.276 191.192C323.337 191.189 323.398 191.187 323.459 191.187C325.415 191.187 327 192.774 327 194.731Z" fill="#394842"/>
<path d="M319.628 200.254H318.696L319.506 198.655H317.698V201.233H318.115L317.698 203.643L319.628 200.254Z" fill="#FCD144"/>
<path d="M314.339 198.655H315.405L314.021 201.285L314.339 198.655Z" fill="#FCD144"/>
<path d="M323.232 198.655H322.166L321.986 201.285L323.232 198.655Z" fill="#FCD144"/>
</g>
</g>
<mask id="mask0_399_30182" style="mask-type:alpha" maskUnits="userSpaceOnUse" x="6" y="67" width="340" height="167">
<path d="M28.5 131C16.2032 135.799 9.83333 150.666 6 159V233.5L345.5 229.5V100C333 98.5 309.5 131 290.5 131C275.3 131 270.5 69.086 250.5 67.5C228.149 65.7275 226.989 91.8903 202.5 99C187 103.5 175 123.5 159 131C136.816 141.399 138 164 117.5 164C83.4669 164 97.5 99 72 99C52.4936 99 49 123 28.5 131Z" fill="#D9D9D9"/>
</mask>
<g mask="url(#mask0_399_30182)">
<g filter="url(#filter0_f_399_30182)">
<circle cx="40" cy="166" r="24" fill="#E8EFF1"/>
</g>
<g filter="url(#filter1_f_399_30182)">
<circle cx="30" cy="136" r="24" fill="#E8EFF1"/>
</g>
<g filter="url(#filter2_f_399_30182)">
<circle cx="171" cy="142" r="24" fill="#E8EFF1"/>
</g>
<g filter="url(#filter3_f_399_30182)">
<circle cx="75" cy="102" r="24" fill="#F8F0E5"/>
</g>
<g filter="url(#filter4_f_399_30182)">
<circle cx="201" cy="110" r="24" fill="#F8F0E5"/>
</g>
<g filter="url(#filter5_f_399_30182)">
<circle cx="261" cy="120" r="24" fill="#F8F2E1"/>
</g>
<g filter="url(#filter6_f_399_30182)">
<circle cx="282" cy="142" r="24" fill="#E8EFF1"/>
</g>
<g filter="url(#filter7_f_399_30182)">
<circle cx="220" cy="57" r="24" fill="#F8F2E1"/>
</g>
<g filter="url(#filter8_f_399_30182)">
<circle cx="123" cy="159" r="24" fill="#E1E8EA"/>
</g>
</g>
<path d="M25.3333 222.667L22 226L25.3333 229.334" stroke="#150A02" stroke-linecap="round" stroke-linejoin="round"/>
<path d="M38.1092 229L40.0932 223.24H40.8732L42.8572 229H42.2452L40.3612 223.568H40.5932L38.7212 229H38.1092ZM38.9932 227.604V227.052H41.9692V227.604H38.9932ZM45.5195 229.12C45.1222 229.12 44.7862 229.02 44.5115 228.82C44.2369 228.617 44.0289 228.344 43.8875 228C43.7462 227.653 43.6755 227.265 43.6755 226.836C43.6755 226.399 43.7462 226.009 43.8875 225.668C44.0315 225.324 44.2422 225.053 44.5195 224.856C44.7969 224.659 45.1382 224.56 45.5435 224.56C45.9382 224.56 46.2769 224.66 46.5595 224.86C46.8422 225.06 47.0582 225.332 47.2075 225.676C47.3595 226.02 47.4355 226.407 47.4355 226.836C47.4355 227.268 47.3595 227.656 47.2075 228C47.0555 228.344 46.8369 228.617 46.5515 228.82C46.2662 229.02 45.9222 229.12 45.5195 229.12ZM43.5755 230.92V224.68H44.1035V227.932H44.1675V230.92H43.5755ZM45.4595 228.572C45.7609 228.572 46.0115 228.496 46.2115 228.344C46.4115 228.192 46.5609 227.985 46.6595 227.724C46.7609 227.46 46.8115 227.164 46.8115 226.836C46.8115 226.511 46.7622 226.217 46.6635 225.956C46.5649 225.695 46.4142 225.488 46.2115 225.336C46.0115 225.184 45.7569 225.108 45.4475 225.108C45.1462 225.108 44.8955 225.181 44.6955 225.328C44.4982 225.475 44.3502 225.679 44.2515 225.94C44.1529 226.199 44.1035 226.497 44.1035 226.836C44.1035 227.169 44.1529 227.468 44.2515 227.732C44.3502 227.993 44.4995 228.199 44.6995 228.348C44.8995 228.497 45.1529 228.572 45.4595 228.572ZM48.3139 229V224.68H48.8419V225.72L48.7379 225.584C48.7859 225.456 48.8486 225.339 48.9259 225.232C49.0032 225.123 49.0872 225.033 49.1779 224.964C49.2899 224.865 49.4206 224.791 49.5699 224.74C49.7192 224.687 49.8699 224.656 50.0219 224.648C50.1739 224.637 50.3126 224.648 50.4379 224.68V225.232C50.2806 225.192 50.1086 225.183 49.9219 225.204C49.7352 225.225 49.5632 225.3 49.4059 225.428C49.2619 225.54 49.1539 225.675 49.0819 225.832C49.0099 225.987 48.9619 226.152 48.9379 226.328C48.9139 226.501 48.9019 226.673 48.9019 226.844V229H48.3139ZM50.6681 229V228.316H51.3521V229H50.6681ZM55.7369 229.116C55.4516 229.116 55.1889 229.065 54.9489 228.964C54.7089 228.863 54.5022 228.719 54.3289 228.532C54.1556 228.343 54.0289 228.117 53.9489 227.856L54.5089 227.688C54.6049 227.973 54.7622 228.189 54.9809 228.336C55.2022 228.483 55.4516 228.553 55.7289 228.548C55.9849 228.543 56.2049 228.485 56.3889 228.376C56.5756 228.267 56.7182 228.115 56.8169 227.92C56.9156 227.725 56.9649 227.5 56.9649 227.244C56.9649 226.852 56.8502 226.537 56.6209 226.3C56.3942 226.06 56.0942 225.94 55.7209 225.94C55.6169 225.94 55.5076 225.955 55.3929 225.984C55.2782 226.011 55.1716 226.049 55.0729 226.1L54.7769 225.632L57.0169 223.564L57.1129 223.804H54.1769V223.24H57.5049V223.812L55.5529 225.676L55.5449 225.444C55.9449 225.393 56.2969 225.439 56.6009 225.58C56.9049 225.721 57.1422 225.937 57.3129 226.228C57.4862 226.516 57.5729 226.855 57.5729 227.244C57.5729 227.612 57.4929 227.937 57.3329 228.22C57.1756 228.5 56.9582 228.72 56.6809 228.88C56.4036 229.037 56.0889 229.116 55.7369 229.116Z" fill="#150A02"/>
<path d="M79.1274 229L81.1114 223.24H81.8914L83.8754 229H83.2634L81.3794 223.568H81.6114L79.7394 229H79.1274ZM80.0114 227.604V227.052H82.9874V227.604H80.0114ZM86.5377 229.12C86.1404 229.12 85.8044 229.02 85.5297 228.82C85.2551 228.617 85.0471 228.344 84.9057 228C84.7644 227.653 84.6937 227.265 84.6937 226.836C84.6937 226.399 84.7644 226.009 84.9057 225.668C85.0497 225.324 85.2604 225.053 85.5377 224.856C85.8151 224.659 86.1564 224.56 86.5617 224.56C86.9564 224.56 87.2951 224.66 87.5777 224.86C87.8604 225.06 88.0764 225.332 88.2257 225.676C88.3777 226.02 88.4537 226.407 88.4537 226.836C88.4537 227.268 88.3777 227.656 88.2257 228C88.0737 228.344 87.8551 228.617 87.5697 228.82C87.2844 229.02 86.9404 229.12 86.5377 229.12ZM84.5937 230.92V224.68H85.1217V227.932H85.1857V230.92H84.5937ZM86.4777 228.572C86.7791 228.572 87.0297 228.496 87.2297 228.344C87.4297 228.192 87.5791 227.985 87.6777 227.724C87.7791 227.46 87.8297 227.164 87.8297 226.836C87.8297 226.511 87.7804 226.217 87.6817 225.956C87.5831 225.695 87.4324 225.488 87.2297 225.336C87.0297 225.184 86.7751 225.108 86.4657 225.108C86.1644 225.108 85.9137 225.181 85.7137 225.328C85.5164 225.475 85.3684 225.679 85.2697 225.94C85.1711 226.199 85.1217 226.497 85.1217 226.836C85.1217 227.169 85.1711 227.468 85.2697 227.732C85.3684 227.993 85.5177 228.199 85.7177 228.348C85.9177 228.497 86.1711 228.572 86.4777 228.572ZM89.3321 229V224.68H89.8601V225.72L89.7561 225.584C89.8041 225.456 89.8668 225.339 89.9441 225.232C90.0214 225.123 90.1054 225.033 90.1961 224.964C90.3081 224.865 90.4388 224.791 90.5881 224.74C90.7374 224.687 90.8881 224.656 91.0401 224.648C91.1921 224.637 91.3308 224.648 91.4561 224.68V225.232C91.2988 225.192 91.1268 225.183 90.9401 225.204C90.7534 225.225 90.5814 225.3 90.4241 225.428C90.2801 225.54 90.1721 225.675 90.1001 225.832C90.0281 225.987 89.9801 226.152 89.9561 226.328C89.9321 226.501 89.9201 226.673 89.9201 226.844V229H89.3321ZM91.6863 229V228.316H92.3703V229H91.6863ZM97.7431 229V227.884H95.0471V227.324L96.9751 223.24H97.6351L95.7071 227.324H97.7431V225.644H98.3351V227.324H98.9631V227.884H98.3351V229H97.7431Z" fill="#150A02"/>
<path d="M120.345 229L122.329 223.24H123.109L125.093 229H124.481L122.597 223.568H122.829L120.957 229H120.345ZM121.229 227.604V227.052H124.205V227.604H121.229ZM127.755 229.12C127.358 229.12 127.022 229.02 126.747 228.82C126.473 228.617 126.265 228.344 126.123 228C125.982 227.653 125.911 227.265 125.911 226.836C125.911 226.399 125.982 226.009 126.123 225.668C126.267 225.324 126.478 225.053 126.755 224.856C127.033 224.659 127.374 224.56 127.779 224.56C128.174 224.56 128.513 224.66 128.795 224.86C129.078 225.06 129.294 225.332 129.443 225.676C129.595 226.02 129.671 226.407 129.671 226.836C129.671 227.268 129.595 227.656 129.443 228C129.291 228.344 129.073 228.617 128.787 228.82C128.502 229.02 128.158 229.12 127.755 229.12ZM125.811 230.92V224.68H126.339V227.932H126.403V230.92H125.811ZM127.695 228.572C127.997 228.572 128.247 228.496 128.447 228.344C128.647 228.192 128.797 227.985 128.895 227.724C128.997 227.46 129.047 227.164 129.047 226.836C129.047 226.511 128.998 226.217 128.899 225.956C128.801 225.695 128.65 225.488 128.447 225.336C128.247 225.184 127.993 225.108 127.683 225.108C127.382 225.108 127.131 225.181 126.931 225.328C126.734 225.475 126.586 225.679 126.487 225.94C126.389 226.199 126.339 226.497 126.339 226.836C126.339 227.169 126.389 227.468 126.487 227.732C126.586 227.993 126.735 228.199 126.935 228.348C127.135 228.497 127.389 228.572 127.695 228.572ZM130.55 229V224.68H131.078V225.72L130.974 225.584C131.022 225.456 131.084 225.339 131.162 225.232C131.239 225.123 131.323 225.033 131.414 224.964C131.526 224.865 131.656 224.791 131.806 224.74C131.955 224.687 132.106 224.656 132.258 224.648C132.41 224.637 132.548 224.648 132.674 224.68V225.232C132.516 225.192 132.344 225.183 132.158 225.204C131.971 225.225 131.799 225.3 131.642 225.428C131.498 225.54 131.39 225.675 131.318 225.832C131.246 225.987 131.198 226.152 131.174 226.328C131.15 226.501 131.138 226.673 131.138 226.844V229H130.55ZM132.904 229V228.316H133.588V229H132.904ZM138.125 229.12C137.826 229.12 137.55 229.059 137.297 228.936C137.043 228.813 136.827 228.644 136.649 228.428C136.47 228.212 136.342 227.964 136.265 227.684L136.829 227.532C136.879 227.74 136.971 227.92 137.105 228.072C137.238 228.221 137.394 228.337 137.573 228.42C137.754 228.503 137.943 228.544 138.141 228.544C138.397 228.544 138.626 228.483 138.829 228.36C139.034 228.235 139.197 228.069 139.317 227.864C139.437 227.659 139.497 227.433 139.497 227.188C139.497 226.935 139.434 226.707 139.309 226.504C139.183 226.299 139.018 226.136 138.813 226.016C138.607 225.896 138.383 225.836 138.141 225.836C137.869 225.836 137.634 225.896 137.437 226.016C137.239 226.133 137.082 226.281 136.965 226.46L136.429 226.236L136.605 223.24H139.681V223.804H136.865L137.157 223.528L137.001 226.084L136.853 225.888C137.018 225.699 137.218 225.551 137.453 225.444C137.687 225.337 137.934 225.284 138.193 225.284C138.547 225.284 138.867 225.369 139.153 225.54C139.438 225.708 139.665 225.936 139.833 226.224C140.001 226.512 140.085 226.833 140.085 227.188C140.085 227.54 139.995 227.863 139.817 228.156C139.638 228.447 139.401 228.68 139.105 228.856C138.809 229.032 138.482 229.12 138.125 229.12Z" fill="#150A02"/>
<path d="M161.34 229L163.324 223.24H164.104L166.088 229H165.476L163.592 223.568H163.824L161.952 229H161.34ZM162.224 227.604V227.052H165.2V227.604H162.224ZM168.75 229.12C168.353 229.12 168.017 229.02 167.742 228.82C167.467 228.617 167.259 228.344 167.118 228C166.977 227.653 166.906 227.265 166.906 226.836C166.906 226.399 166.977 226.009 167.118 225.668C167.262 225.324 167.473 225.053 167.75 224.856C168.027 224.659 168.369 224.56 168.774 224.56C169.169 224.56 169.507 224.66 169.79 224.86C170.073 225.06 170.289 225.332 170.438 225.676C170.59 226.02 170.666 226.407 170.666 226.836C170.666 227.268 170.59 227.656 170.438 228C170.286 228.344 170.067 228.617 169.782 228.82C169.497 229.02 169.153 229.12 168.75 229.12ZM166.806 230.92V224.68H167.334V227.932H167.398V230.92H166.806ZM168.69 228.572C168.991 228.572 169.242 228.496 169.442 228.344C169.642 228.192 169.791 227.985 169.89 227.724C169.991 227.46 170.042 227.164 170.042 226.836C170.042 226.511 169.993 226.217 169.894 225.956C169.795 225.695 169.645 225.488 169.442 225.336C169.242 225.184 168.987 225.108 168.678 225.108C168.377 225.108 168.126 225.181 167.926 225.328C167.729 225.475 167.581 225.679 167.482 225.94C167.383 226.199 167.334 226.497 167.334 226.836C167.334 227.169 167.383 227.468 167.482 227.732C167.581 227.993 167.73 228.199 167.93 228.348C168.13 228.497 168.383 228.572 168.69 228.572ZM171.544 229V224.68H172.072V225.72L171.968 225.584C172.016 225.456 172.079 225.339 172.156 225.232C172.234 225.123 172.318 225.033 172.408 224.964C172.52 224.865 172.651 224.791 172.8 224.74C172.95 224.687 173.1 224.656 173.252 224.648C173.404 224.637 173.543 224.648 173.668 224.68V225.232C173.511 225.192 173.339 225.183 173.152 225.204C172.966 225.225 172.794 225.3 172.636 225.428C172.492 225.54 172.384 225.675 172.312 225.832C172.24 225.987 172.192 226.152 172.168 226.328C172.144 226.501 172.132 226.673 172.132 226.844V229H171.544ZM173.899 229V228.316H174.583V229H173.899ZM179.367 229.12C179.007 229.12 178.679 229.033 178.383 228.86C178.09 228.684 177.855 228.447 177.679 228.148C177.506 227.847 177.419 227.508 177.419 227.132V225.136C177.419 224.749 177.506 224.405 177.679 224.104C177.853 223.8 178.089 223.561 178.387 223.388C178.689 223.212 179.03 223.124 179.411 223.124C179.739 223.124 180.043 223.196 180.323 223.34C180.606 223.484 180.837 223.685 181.015 223.944L180.563 224.316C180.441 224.124 180.278 223.971 180.075 223.856C179.873 223.741 179.651 223.684 179.411 223.684C179.142 223.684 178.902 223.749 178.691 223.88C178.481 224.011 178.315 224.183 178.195 224.396C178.075 224.607 178.015 224.836 178.015 225.084V226.34L177.867 226.172C178.035 225.908 178.255 225.695 178.527 225.532C178.802 225.369 179.101 225.288 179.423 225.288C179.781 225.288 180.102 225.373 180.387 225.544C180.673 225.712 180.899 225.94 181.067 226.228C181.235 226.516 181.319 226.839 181.319 227.196C181.319 227.551 181.23 227.873 181.051 228.164C180.875 228.455 180.639 228.687 180.343 228.86C180.05 229.033 179.725 229.12 179.367 229.12ZM179.367 228.548C179.618 228.548 179.846 228.488 180.051 228.368C180.259 228.248 180.423 228.085 180.543 227.88C180.666 227.675 180.727 227.447 180.727 227.196C180.727 226.945 180.666 226.717 180.543 226.512C180.423 226.304 180.261 226.14 180.055 226.02C179.85 225.897 179.622 225.836 179.371 225.836C179.121 225.836 178.893 225.897 178.687 226.02C178.482 226.14 178.318 226.304 178.195 226.512C178.075 226.717 178.015 226.945 178.015 227.196C178.015 227.444 178.075 227.671 178.195 227.876C178.315 228.081 178.478 228.245 178.683 228.368C178.889 228.488 179.117 228.548 179.367 228.548Z" fill="#150A02"/>
<path d="M202.979 229L204.963 223.24H205.743L207.727 229H207.115L205.231 223.568H205.463L203.591 229H202.979ZM203.863 227.604V227.052H206.839V227.604H203.863ZM210.389 229.12C209.992 229.12 209.656 229.02 209.381 228.82C209.107 228.617 208.899 228.344 208.757 228C208.616 227.653 208.545 227.265 208.545 226.836C208.545 226.399 208.616 226.009 208.757 225.668C208.901 225.324 209.112 225.053 209.389 224.856C209.667 224.659 210.008 224.56 210.413 224.56C210.808 224.56 211.147 224.66 211.429 224.86C211.712 225.06 211.928 225.332 212.077 225.676C212.229 226.02 212.305 226.407 212.305 226.836C212.305 227.268 212.229 227.656 212.077 228C211.925 228.344 211.707 228.617 211.421 228.82C211.136 229.02 210.792 229.12 210.389 229.12ZM208.445 230.92V224.68H208.973V227.932H209.037V230.92H208.445ZM210.329 228.572C210.631 228.572 210.881 228.496 211.081 228.344C211.281 228.192 211.431 227.985 211.529 227.724C211.631 227.46 211.681 227.164 211.681 226.836C211.681 226.511 211.632 226.217 211.533 225.956C211.435 225.695 211.284 225.488 211.081 225.336C210.881 225.184 210.627 225.108 210.317 225.108C210.016 225.108 209.765 225.181 209.565 225.328C209.368 225.475 209.22 225.679 209.121 225.94C209.023 226.199 208.973 226.497 208.973 226.836C208.973 227.169 209.023 227.468 209.121 227.732C209.22 227.993 209.369 228.199 209.569 228.348C209.769 228.497 210.023 228.572 210.329 228.572ZM213.184 229V224.68H213.712V225.72L213.608 225.584C213.656 225.456 213.718 225.339 213.796 225.232C213.873 225.123 213.957 225.033 214.048 224.964C214.16 224.865 214.29 224.791 214.44 224.74C214.589 224.687 214.74 224.656 214.892 224.648C215.044 224.637 215.182 224.648 215.308 224.68V225.232C215.15 225.192 214.978 225.183 214.792 225.204C214.605 225.225 214.433 225.3 214.276 225.428C214.132 225.54 214.024 225.675 213.952 225.832C213.88 225.987 213.832 226.152 213.808 226.328C213.784 226.501 213.772 226.673 213.772 226.844V229H213.184ZM215.538 229V228.316H216.222V229H215.538ZM219.367 229L221.487 223.812H218.819V223.24H222.115V223.812L219.999 229H219.367Z" fill="#150A02"/>
<path d="M243.833 229L245.817 223.24H246.597L248.581 229H247.969L246.085 223.568H246.317L244.445 229H243.833ZM244.717 227.604V227.052H247.693V227.604H244.717ZM251.243 229.12C250.846 229.12 250.51 229.02 250.235 228.82C249.961 228.617 249.753 228.344 249.611 228C249.47 227.653 249.399 227.265 249.399 226.836C249.399 226.399 249.47 226.009 249.611 225.668C249.755 225.324 249.966 225.053 250.243 224.856C250.521 224.659 250.862 224.56 251.267 224.56C251.662 224.56 252.001 224.66 252.283 224.86C252.566 225.06 252.782 225.332 252.931 225.676C253.083 226.02 253.159 226.407 253.159 226.836C253.159 227.268 253.083 227.656 252.931 228C252.779 228.344 252.561 228.617 252.275 228.82C251.99 229.02 251.646 229.12 251.243 229.12ZM249.299 230.92V224.68H249.827V227.932H249.891V230.92H249.299ZM251.183 228.572C251.485 228.572 251.735 228.496 251.935 228.344C252.135 228.192 252.285 227.985 252.383 227.724C252.485 227.46 252.535 227.164 252.535 226.836C252.535 226.511 252.486 226.217 252.387 225.956C252.289 225.695 252.138 225.488 251.935 225.336C251.735 225.184 251.481 225.108 251.171 225.108C250.87 225.108 250.619 225.181 250.419 225.328C250.222 225.475 250.074 225.679 249.975 225.94C249.877 226.199 249.827 226.497 249.827 226.836C249.827 227.169 249.877 227.468 249.975 227.732C250.074 227.993 250.223 228.199 250.423 228.348C250.623 228.497 250.877 228.572 251.183 228.572ZM254.038 229V224.68H254.566V225.72L254.462 225.584C254.51 225.456 254.572 225.339 254.65 225.232C254.727 225.123 254.811 225.033 254.902 224.964C255.014 224.865 255.144 224.791 255.294 224.74C255.443 224.687 255.594 224.656 255.746 224.648C255.898 224.637 256.036 224.648 256.162 224.68V225.232C256.004 225.192 255.832 225.183 255.646 225.204C255.459 225.225 255.287 225.3 255.13 225.428C254.986 225.54 254.878 225.675 254.806 225.832C254.734 225.987 254.686 226.152 254.662 226.328C254.638 226.501 254.626 226.673 254.626 226.844V229H254.038ZM256.392 229V228.316H257.076V229H256.392ZM261.669 229.12C261.309 229.12 260.99 229.048 260.713 228.904C260.438 228.76 260.222 228.559 260.065 228.3C259.91 228.039 259.833 227.733 259.833 227.384C259.833 227.027 259.919 226.709 260.093 226.432C260.266 226.152 260.53 225.94 260.885 225.796L260.877 226.028C260.581 225.919 260.355 225.74 260.201 225.492C260.046 225.244 259.969 224.969 259.969 224.668C259.969 224.348 260.042 224.073 260.189 223.844C260.335 223.612 260.535 223.433 260.789 223.308C261.045 223.183 261.338 223.12 261.669 223.12C261.999 223.12 262.293 223.183 262.549 223.308C262.805 223.433 263.006 223.612 263.153 223.844C263.299 224.073 263.373 224.348 263.373 224.668C263.373 224.969 263.298 225.243 263.149 225.488C263.002 225.733 262.777 225.913 262.473 226.028L262.453 225.796C262.807 225.937 263.073 226.148 263.249 226.428C263.427 226.708 263.517 227.027 263.517 227.384C263.517 227.733 263.438 228.039 263.281 228.3C263.123 228.559 262.906 228.76 262.629 228.904C262.351 229.048 262.031 229.12 261.669 229.12ZM261.669 228.556C262.031 228.556 262.326 228.456 262.553 228.256C262.779 228.053 262.893 227.763 262.893 227.384C262.893 227 262.781 226.709 262.557 226.512C262.333 226.312 262.037 226.212 261.669 226.212C261.301 226.212 261.006 226.312 260.785 226.512C260.563 226.709 260.453 227 260.453 227.384C260.453 227.763 260.565 228.053 260.789 228.256C261.013 228.456 261.306 228.556 261.669 228.556ZM261.669 225.644C261.989 225.644 262.249 225.563 262.449 225.4C262.649 225.235 262.749 224.991 262.749 224.668C262.749 224.345 262.649 224.104 262.449 223.944C262.249 223.781 261.989 223.7 261.669 223.7C261.349 223.7 261.089 223.781 260.889 223.944C260.691 224.104 260.593 224.345 260.593 224.668C260.593 224.991 260.691 225.235 260.889 225.4C261.089 225.563 261.349 225.644 261.669 225.644Z" fill="#150A02"/>
<path d="M284.84 229L286.824 223.24H287.604L289.588 229H288.976L287.092 223.568H287.324L285.452 229H284.84ZM285.724 227.604V227.052H288.7V227.604H285.724ZM292.25 229.12C291.853 229.12 291.517 229.02 291.242 228.82C290.967 228.617 290.759 228.344 290.618 228C290.477 227.653 290.406 227.265 290.406 226.836C290.406 226.399 290.477 226.009 290.618 225.668C290.762 225.324 290.973 225.053 291.25 224.856C291.527 224.659 291.869 224.56 292.274 224.56C292.669 224.56 293.007 224.66 293.29 224.86C293.573 225.06 293.789 225.332 293.938 225.676C294.09 226.02 294.166 226.407 294.166 226.836C294.166 227.268 294.09 227.656 293.938 228C293.786 228.344 293.567 228.617 293.282 228.82C292.997 229.02 292.653 229.12 292.25 229.12ZM290.306 230.92V224.68H290.834V227.932H290.898V230.92H290.306ZM292.19 228.572C292.491 228.572 292.742 228.496 292.942 228.344C293.142 228.192 293.291 227.985 293.39 227.724C293.491 227.46 293.542 227.164 293.542 226.836C293.542 226.511 293.493 226.217 293.394 225.956C293.295 225.695 293.145 225.488 292.942 225.336C292.742 225.184 292.487 225.108 292.178 225.108C291.877 225.108 291.626 225.181 291.426 225.328C291.229 225.475 291.081 225.679 290.982 225.94C290.883 226.199 290.834 226.497 290.834 226.836C290.834 227.169 290.883 227.468 290.982 227.732C291.081 227.993 291.23 228.199 291.43 228.348C291.63 228.497 291.883 228.572 292.19 228.572ZM295.044 229V224.68H295.572V225.72L295.468 225.584C295.516 225.456 295.579 225.339 295.656 225.232C295.734 225.123 295.818 225.033 295.908 224.964C296.02 224.865 296.151 224.791 296.3 224.74C296.45 224.687 296.6 224.656 296.752 224.648C296.904 224.637 297.043 224.648 297.168 224.68V225.232C297.011 225.192 296.839 225.183 296.652 225.204C296.466 225.225 296.294 225.3 296.136 225.428C295.992 225.54 295.884 225.675 295.812 225.832C295.74 225.987 295.692 226.152 295.668 226.328C295.644 226.501 295.632 226.673 295.632 226.844V229H295.044ZM297.399 229V228.316H298.083V229H297.399ZM302.815 223.124C303.178 223.124 303.506 223.212 303.799 223.388C304.095 223.561 304.33 223.799 304.503 224.1C304.677 224.399 304.763 224.735 304.763 225.108V227.108C304.763 227.492 304.677 227.836 304.503 228.14C304.33 228.444 304.093 228.684 303.791 228.86C303.493 229.033 303.153 229.12 302.771 229.12C302.443 229.12 302.139 229.048 301.859 228.904C301.582 228.757 301.353 228.556 301.171 228.3L301.619 227.928C301.742 228.117 301.905 228.269 302.107 228.384C302.313 228.499 302.534 228.556 302.771 228.556C303.043 228.556 303.283 228.492 303.491 228.364C303.702 228.233 303.867 228.063 303.987 227.852C304.11 227.639 304.171 227.408 304.171 227.16V225.904L304.315 226.072C304.15 226.336 303.93 226.549 303.655 226.712C303.383 226.875 303.085 226.956 302.759 226.956C302.405 226.956 302.083 226.871 301.795 226.7C301.51 226.529 301.283 226.3 301.115 226.012C300.95 225.724 300.867 225.403 300.867 225.048C300.867 224.693 300.955 224.371 301.131 224.08C301.307 223.787 301.543 223.555 301.839 223.384C302.135 223.211 302.461 223.124 302.815 223.124ZM302.815 223.692C302.565 223.692 302.337 223.753 302.131 223.876C301.926 223.996 301.762 224.159 301.639 224.364C301.519 224.569 301.459 224.797 301.459 225.048C301.459 225.299 301.519 225.527 301.639 225.732C301.759 225.937 301.922 226.101 302.127 226.224C302.333 226.344 302.561 226.404 302.811 226.404C303.062 226.404 303.29 226.344 303.495 226.224C303.703 226.101 303.867 225.937 303.987 225.732C304.11 225.527 304.171 225.299 304.171 225.048C304.171 224.8 304.11 224.573 303.987 224.368C303.867 224.163 303.705 223.999 303.499 223.876C303.294 223.753 303.066 223.692 302.815 223.692Z" fill="#150A02"/>
<path d="M317.667 229.334L321 226L317.667 222.667" stroke="#150A02" stroke-linecap="round" stroke-linejoin="round"/>
<path d="M6 159C9.83333 150.666 16.2032 135.799 28.5 131C49 123 52.4936 99 72 99C97.5 99 83.4669 164 117.5 164C138 164 136.816 141.399 159 131C175 123.5 187 103.5 202.5 99C226.989 91.8903 228.149 65.7275 250.5 67.5C270.5 69.086 275.3 131 290.5 131C309.5 131 333 98.5 345.5 100" stroke="url(#paint0_linear_399_30182)"/>
<circle cx="28" cy="132" r="4" fill="#B8D6E1"/>
<circle cx="72" cy="100" r="4" fill="#FFD8B1"/>
<circle cx="117" cy="164" r="4" fill="#9DB8C9"/>
<path d="M163 132C163 134.209 161.209 136 159 136C156.791 136 155 134.209 155 132C155 129.791 156.791 128 159 128C161.209 128 163 129.791 163 132Z" fill="#B8D6E1"/>
<circle cx="203" cy="100" r="4" fill="#FFD8B1"/>
<circle cx="251" cy="68" r="4" fill="#FFE3A3"/>
<circle cx="291" cy="132" r="4" fill="#B8D6E1"/>
</g>
<defs>
<filter id="filter0_f_399_30182" x="-24" y="102" width="128" height="128" filterUnits="userSpaceOnUse" color-interpolation-filters="sRGB">
<feFlood flood-opacity="0" result="BackgroundImageFix"/>
<feBlend mode="normal" in="SourceGraphic" in2="BackgroundImageFix" result="shape"/>
<feGaussianBlur stdDeviation="20" result="effect1_foregroundBlur_399_30182"/>
</filter>
<filter id="filter1_f_399_30182" x="-34" y="72" width="128" height="128" filterUnits="userSpaceOnUse" color-interpolation-filters="sRGB">
<feFlood flood-opacity="0" result="BackgroundImageFix"/>
<feBlend mode="normal" in="SourceGraphic" in2="BackgroundImageFix" result="shape"/>
<feGaussianBlur stdDeviation="20" result="effect1_foregroundBlur_399_30182"/>
</filter>
<filter id="filter2_f_399_30182" x="107" y="78" width="128" height="128" filterUnits="userSpaceOnUse" color-interpolation-filters="sRGB">
<feFlood flood-opacity="0" result="BackgroundImageFix"/>
<feBlend mode="normal" in="SourceGraphic" in2="BackgroundImageFix" result="shape"/>
<feGaussianBlur stdDeviation="20" result="effect1_foregroundBlur_399_30182"/>
</filter>
<filter id="filter3_f_399_30182" x="11" y="38" width="128" height="128" filterUnits="userSpaceOnUse" color-interpolation-filters="sRGB">
<feFlood flood-opacity="0" result="BackgroundImageFix"/>
<feBlend mode="normal" in="SourceGraphic" in2="BackgroundImageFix" result="shape"/>
<feGaussianBlur stdDeviation="20" result="effect1_foregroundBlur_399_30182"/>
</filter>
<filter id="filter4_f_399_30182" x="137" y="46" width="128" height="128" filterUnits="userSpaceOnUse" color-interpolation-filters="sRGB">
<feFlood flood-opacity="0" result="BackgroundImageFix"/>
<feBlend mode="normal" in="SourceGraphic" in2="BackgroundImageFix" result="shape"/>
<feGaussianBlur stdDeviation="20" result="effect1_foregroundBlur_399_30182"/>
</filter>
<filter id="filter5_f_399_30182" x="197" y="56" width="128" height="128" filterUnits="userSpaceOnUse" color-interpolation-filters="sRGB">
<feFlood flood-opacity="0" result="BackgroundImageFix"/>
<feBlend mode="normal" in="SourceGraphic" in2="BackgroundImageFix" result="shape"/>
<feGaussianBlur stdDeviation="20" result="effect1_foregroundBlur_399_30182"/>
</filter>
<filter id="filter6_f_399_30182" x="218" y="78" width="128" height="128" filterUnits="userSpaceOnUse" color-interpolation-filters="sRGB">
<feFlood flood-opacity="0" result="BackgroundImageFix"/>
<feBlend mode="normal" in="SourceGraphic" in2="BackgroundImageFix" result="shape"/>
<feGaussianBlur stdDeviation="20" result="effect1_foregroundBlur_399_30182"/>
</filter>
<filter id="filter7_f_399_30182" x="156" y="-7" width="128" height="128" filterUnits="userSpaceOnUse" color-interpolation-filters="sRGB">
<feFlood flood-opacity="0" result="BackgroundImageFix"/>
<feBlend mode="normal" in="SourceGraphic" in2="BackgroundImageFix" result="shape"/>
<feGaussianBlur stdDeviation="20" result="effect1_foregroundBlur_399_30182"/>
</filter>
<filter id="filter8_f_399_30182" x="59" y="95" width="128" height="128" filterUnits="userSpaceOnUse" color-interpolation-filters="sRGB">
<feFlood flood-opacity="0" result="BackgroundImageFix"/>
<feBlend mode="normal" in="SourceGraphic" in2="BackgroundImageFix" result="shape"/>
<feGaussianBlur stdDeviation="20" result="effect1_foregroundBlur_399_30182"/>
</filter>
<linearGradient id="paint0_linear_399_30182" x1="333" y1="104.5" x2="6.00001" y2="104.012" gradientUnits="userSpaceOnUse">
<stop offset="0.0816143" stop-color="#B8D6E1"/>
<stop offset="0.253744" stop-color="#FFE3A3"/>
<stop offset="0.395544" stop-color="#FFD8B1"/>
<stop offset="0.528315" stop-color="#B8D6E1"/>
<stop offset="0.666014" stop-color="#9DB8C9"/>
<stop offset="0.799621" stop-color="#FFD8B1"/>
<stop offset="0.933226" stop-color="#B8D6E1"/>
</linearGradient>
<clipPath id="clip0_399_30182">
<rect width="16" height="16" fill="white" transform="translate(16 18)"/>
</clipPath>
<clipPath id="clip1_399_30182">
<rect width="311" height="190" fill="white" transform="translate(16 44)"/>
</clipPath>
<clipPath id="clip2_399_30182">
<rect width="311" height="144" fill="white" transform="translate(16 60)"/>
</clipPath>
<clipPath id="clip3_399_30182">
<rect width="16" height="16" fill="white" transform="translate(311 60)"/>
</clipPath>
<clipPath id="clip4_399_30182">
<rect width="16" height="16" fill="white" transform="translate(311 156)"/>
</clipPath>
<clipPath id="clip5_399_30182">
<rect width="16" height="16" fill="white" transform="translate(311 188)"/>
</clipPath>
</defs>
</svg>
