<svg width="32" height="30" viewBox="0 0 32 30" fill="none" xmlns="http://www.w3.org/2000/svg">
<path d="M23.1976 15C28.2859 13.4538 32 8.71843 32 3.13183C32 1.73559 30.8646 0.600098 29.4683 0.600098C23.9029 0.600098 19.1819 4.28589 17.6174 9.34442C17.4716 9.17492 17.3001 9.02824 17.1085 8.91117C17.5875 5.97132 18.828 2.10878 20.2328 2.19896C20.5304 2.21978 20.78 1.99471 20.7992 1.70084C20.8179 1.40697 20.5949 1.15366 20.3005 1.13447C17.6331 0.963658 16.4202 6.603 16.0788 8.60205C16.0527 8.60111 16.0265 8.60005 16 8.60005C15.9736 8.60005 15.9475 8.60111 15.9213 8.60205C15.5802 6.60206 14.3685 0.956346 11.6996 1.13447C11.4052 1.15366 11.1822 1.40703 11.2009 1.70084C11.2206 1.99471 11.4766 2.21978 11.7672 2.19896C11.7838 2.1979 11.7998 2.19734 11.8158 2.19734C13.2006 2.19734 14.4166 6.00525 14.8915 8.91124C14.6998 9.02824 14.5284 9.17498 14.3826 9.34448C12.8184 4.28595 8.09758 0.600098 2.53174 0.600098C1.13599 0.600098 0 1.73553 0 3.13177C0 8.71836 3.7141 13.4537 8.80264 15C3.71423 16.5462 0.000437497 21.2816 0.000437497 26.8682C0.000437497 28.2644 1.13587 29.3999 2.53161 29.3999C8.09733 29.3999 12.8184 25.7142 14.383 20.6558C14.7745 21.1109 15.354 21.4 16.0002 21.4C16.6465 21.4 17.226 21.1109 17.6175 20.6556C19.182 25.7141 23.903 29.3999 29.4683 29.3999C30.8646 29.3999 32.0001 28.2645 32.0001 26.8682C32 21.2816 28.2859 16.5463 23.1976 15ZM29.4683 1.66672C30.2763 1.66672 30.9334 2.32378 30.9334 3.13177C30.9334 9.38186 25.8486 14.4666 19.5985 14.4666H18.7577C22.8302 9.82817 28.0016 5.86619 28.0568 5.824C28.291 5.64532 28.3358 5.31095 28.1576 5.07682C27.9795 4.8432 27.6446 4.79739 27.4099 4.97601C27.355 5.01807 22.2516 8.92686 18.1334 13.562V13.0016C18.1335 6.7515 23.2182 1.66672 29.4683 1.66672ZM1.06668 3.13177C1.06668 2.32378 1.72374 1.66672 2.53174 1.66672C8.78182 1.66672 13.8666 6.7515 13.8666 13.0016V13.5618C9.74851 8.9268 4.64522 5.01807 4.59035 4.97607C4.35566 4.79739 4.02073 4.84326 3.8426 5.07688C3.66448 5.31101 3.70929 5.64538 3.94341 5.82407C3.99866 5.86625 9.16851 9.82567 13.2427 14.4667H12.4021C6.15196 14.4666 1.06668 9.38192 1.06668 3.13177ZM2.53161 28.3332C1.72418 28.3332 1.06706 27.6762 1.06706 26.8682C1.06706 20.6181 6.15184 15.5333 12.4019 15.5333H12.4021H13.2424C9.1702 20.1718 3.99841 24.1338 3.94366 24.176C3.70954 24.3546 3.66423 24.689 3.84285 24.9231C3.94741 25.0608 4.10629 25.1333 4.26741 25.1333C4.37997 25.1333 4.49354 25.0975 4.5901 25.024C4.64554 24.9819 9.74838 21.0732 13.8669 16.4381V17.0153C13.8577 23.2576 8.77607 28.3332 2.53161 28.3332ZM17.0668 19.2666C17.0668 19.8549 16.5884 20.3333 16.0001 20.3333C15.4118 20.3333 14.9334 19.8549 14.9334 19.2666V17.0152C14.9334 17.0096 14.9336 17.004 14.9336 16.9984V14.4666H14.9334V10.7334C14.9334 10.1451 15.4118 9.66667 16.0001 9.66667C16.5883 9.66667 17.0668 10.145 17.0668 10.7334V13.0016V14.4666V14.9973C17.0668 14.9979 17.0668 14.9986 17.0668 14.9992V14.9998C17.0668 15.0011 17.0668 15.0024 17.0668 15.0037V15.5334V16.9984V19.2666ZM29.4683 28.3332C23.2182 28.3332 18.1335 23.2485 18.1335 16.9984V16.4381C22.2519 21.0732 27.3548 24.9819 27.4102 25.024C27.5067 25.0976 27.6203 25.1333 27.7329 25.1333C27.894 25.1333 28.0529 25.0607 28.1574 24.9231C28.3361 24.689 28.2907 24.3546 28.0566 24.176C28.0018 24.1338 22.8321 20.1744 18.7579 15.5333H19.5985C25.8486 15.5333 30.9334 20.6181 30.9334 26.8682C30.9334 27.6762 30.2763 28.3332 29.4683 28.3332Z" fill="#5E9B87"/>
</svg>
