<svg width="20" height="20" viewBox="0 0 20 20" fill="none" xmlns="http://www.w3.org/2000/svg">
<mask id="path-1-inside-1_3569_19021" fill="white">
<path d="M18.3807 5.45532C18.3807 5.11017 18.1012 4.83032 17.7557 4.83032H14.2648C13.952 2.80754 12.1615 1.25 10 1.25C7.83848 1.25 6.04797 2.80754 5.73524 4.83032H2.24426C1.8988 4.83032 1.61926 5.11017 1.61926 5.45532C1.61926 5.80048 1.8988 6.08032 2.24426 6.08032H2.54185L3.6969 15.9869C3.88062 17.5623 5.21545 18.75 6.80115 18.75H13.1989C14.7845 18.75 16.1194 17.5623 16.3031 15.9869L17.4582 6.08032H17.7557C18.1012 6.08032 18.3807 5.80048 18.3807 5.45532ZM10 2.5C11.4681 2.5 12.6955 3.50029 12.9954 4.83032H7.00462C7.3045 3.50029 8.53191 2.5 10 2.5ZM15.0616 15.8423C14.9512 16.7874 14.1504 17.5 13.1989 17.5H6.80115C5.84961 17.5 5.04883 16.7874 4.93835 15.8423L3.80005 6.08032H16.2L15.0616 15.8423Z"/>
</mask>
<path d="M18.3807 5.45532C18.3807 5.11017 18.1012 4.83032 17.7557 4.83032H14.2648C13.952 2.80754 12.1615 1.25 10 1.25C7.83848 1.25 6.04797 2.80754 5.73524 4.83032H2.24426C1.8988 4.83032 1.61926 5.11017 1.61926 5.45532C1.61926 5.80048 1.8988 6.08032 2.24426 6.08032H2.54185L3.6969 15.9869C3.88062 17.5623 5.21545 18.75 6.80115 18.75H13.1989C14.7845 18.75 16.1194 17.5623 16.3031 15.9869L17.4582 6.08032H17.7557C18.1012 6.08032 18.3807 5.80048 18.3807 5.45532ZM10 2.5C11.4681 2.5 12.6955 3.50029 12.9954 4.83032H7.00462C7.3045 3.50029 8.53191 2.5 10 2.5ZM15.0616 15.8423C14.9512 16.7874 14.1504 17.5 13.1989 17.5H6.80115C5.84961 17.5 5.04883 16.7874 4.93835 15.8423L3.80005 6.08032H16.2L15.0616 15.8423Z" fill="#150A02"/>
<path d="M14.2648 4.83032L-1.54739 7.27493L0.548321 20.8303H14.2648V4.83032ZM5.73524 4.83032V20.8303H19.4517L21.5474 7.27493L5.73524 4.83032ZM2.54185 6.08032L18.4342 4.22737L16.7847 -9.91968H2.54185V6.08032ZM3.6969 15.9869L-12.1954 17.8399L-12.1954 17.8403L3.6969 15.9869ZM16.3031 15.9869L32.1954 17.8403L32.1954 17.8399L16.3031 15.9869ZM17.4582 6.08032V-9.91968H3.21527L1.56581 4.22737L17.4582 6.08032ZM17.7557 6.08032L17.7557 22.0803L17.7557 22.0803L17.7557 6.08032ZM12.9954 4.83032V20.8303H33.0044L28.6036 1.31125L12.9954 4.83032ZM7.00462 4.83032L-8.60358 1.31125L-13.0044 20.8303H7.00462V4.83032ZM15.0616 15.8423L30.9535 17.6998L30.954 17.6954L15.0616 15.8423ZM4.93835 15.8423L-10.954 17.6954L-10.9535 17.6998L4.93835 15.8423ZM3.80005 6.08032V-9.91968H-14.1741L-12.0923 7.93347L3.80005 6.08032ZM16.2 6.08032L32.0923 7.93347L34.1741 -9.91968L16.2 -9.91968V6.08032ZM18.3807 5.45532H34.3807C34.3807 -3.7213 26.9428 -11.1697 17.7557 -11.1697V4.83032V20.8303C9.25955 20.8303 2.38074 13.9416 2.38074 5.45532H18.3807ZM17.7557 4.83032V-11.1697H14.2648V4.83032V20.8303H17.7557V4.83032ZM14.2648 4.83032L30.0769 2.38571C28.5365 -7.5778 19.9109 -14.75 10 -14.75V1.25V17.25C4.41214 17.25 -0.632453 13.1929 -1.54739 7.27493L14.2648 4.83032ZM10 1.25V-14.75C0.0890913 -14.75 -8.53651 -7.5778 -10.0769 2.38571L5.73524 4.83032L21.5474 7.27493C20.6325 13.1929 15.5879 17.25 10 17.25V1.25ZM5.73524 4.83032V-11.1697H2.24426V4.83032V20.8303H5.73524V4.83032ZM2.24426 4.83032V-11.1697C-6.94284 -11.1697 -14.3807 -3.7213 -14.3807 5.45532H1.61926H17.6193C17.6193 13.9416 10.7404 20.8303 2.24426 20.8303V4.83032ZM1.61926 5.45532H-14.3807C-14.3807 14.6319 -6.94284 22.0803 2.24426 22.0803V6.08032V-9.91968C10.7404 -9.91968 17.6193 -3.03099 17.6193 5.45532H1.61926ZM2.24426 6.08032V22.0803H2.54185V6.08032V-9.91968H2.24426V6.08032ZM2.54185 6.08032L-13.3505 7.93327L-12.1954 17.8399L3.6969 15.9869L19.5892 14.134L18.4342 4.22737L2.54185 6.08032ZM3.6969 15.9869L-12.1954 17.8403C-11.0709 27.4829 -2.90168 34.75 6.80115 34.75V18.75V2.75C13.3326 2.75 18.8321 7.64157 19.5892 14.1336L3.6969 15.9869ZM6.80115 18.75V34.75H13.1989V18.75V2.75H6.80115V18.75ZM13.1989 18.75V34.75C22.9017 34.75 31.0709 27.4829 32.1954 17.8403L16.3031 15.9869L0.410808 14.1336C1.16791 7.64157 6.66741 2.75 13.1989 2.75V18.75ZM16.3031 15.9869L32.1954 17.8399L33.3505 7.93327L17.4582 6.08032L1.56581 4.22737L0.410758 14.134L16.3031 15.9869ZM17.4582 6.08032V22.0803H17.7557V6.08032V-9.91968H17.4582V6.08032ZM17.7557 6.08032L17.7557 22.0803C26.9428 22.0803 34.3807 14.6319 34.3807 5.45532H18.3807H2.38074C2.38074 -3.03099 9.25955 -9.91968 17.7557 -9.91968L17.7557 6.08032ZM10 2.5V18.5C4.17101 18.5 -1.22734 14.4945 -2.61283 8.3494L12.9954 4.83032L28.6036 1.31125C26.6183 -7.49392 18.7652 -13.5 10 -13.5V2.5ZM12.9954 4.83032V-11.1697H7.00462V4.83032V20.8303H12.9954V4.83032ZM7.00462 4.83032L22.6128 8.3494C21.2273 14.4945 15.829 18.5 10 18.5V2.5V-13.5C1.23484 -13.5 -6.61834 -7.49392 -8.60358 1.31125L7.00462 4.83032ZM15.0616 15.8423L-0.830161 13.9847C0.00188342 6.86639 6.03286 1.5 13.1989 1.5V17.5V33.5C22.2679 33.5 29.9005 26.7084 30.9535 17.6998L15.0616 15.8423ZM13.1989 17.5V1.5H6.80115V17.5V33.5H13.1989V17.5ZM6.80115 17.5V1.5C13.9671 1.5 19.9981 6.86639 20.8302 13.9847L4.93835 15.8423L-10.9535 17.6998C-9.90046 26.7084 -2.26793 33.5 6.80115 33.5V17.5ZM4.93835 15.8423L20.8307 13.9891L19.6924 4.22718L3.80005 6.08032L-12.0923 7.93347L-10.954 17.6954L4.93835 15.8423ZM3.80005 6.08032V22.0803H16.2V6.08032V-9.91968H3.80005V6.08032ZM16.2 6.08032L0.30763 4.22718L-0.830675 13.9891L15.0616 15.8423L30.954 17.6954L32.0923 7.93347L16.2 6.08032Z" fill="#150A02" mask="url(#path-1-inside-1_3569_19021)"/>
<path d="M11.413 8.1123C11.0675 8.1123 10.788 8.39215 10.788 8.7373V14.8436C10.788 15.1887 11.0675 15.4686 11.413 15.4686C11.7584 15.4686 12.038 15.1887 12.038 14.8436V8.7373C12.038 8.39215 11.7584 8.1123 11.413 8.1123Z" fill="#150A02"/>
<path d="M8.58704 8.1123C8.24158 8.1123 7.96204 8.39215 7.96204 8.7373V14.8436C7.96204 15.1887 8.24158 15.4686 8.58704 15.4686C8.9325 15.4686 9.21204 15.1887 9.21204 14.8436V8.7373C9.21204 8.39215 8.9325 8.1123 8.58704 8.1123Z" fill="#150A02"/>
</svg>
