<svg width="66" height="66" viewBox="0 0 66 66" fill="none" xmlns="http://www.w3.org/2000/svg">
<g filter="url(#filter0_d_373_29120)">
<rect x="17" y="17" width="32" height="32" rx="16" fill="white" shape-rendering="crispEdges"/>
<g clip-path="url(#clip0_373_29120)">
<mask id="mask0_373_29120" style="mask-type:luminance" maskUnits="userSpaceOnUse" x="25" y="25" width="16" height="16">
<path d="M41 25H25V41H41V25Z" fill="white"/>
</mask>
<g mask="url(#mask0_373_29120)">
<mask id="mask1_373_29120" style="mask-type:luminance" maskUnits="userSpaceOnUse" x="25" y="25" width="16" height="16">
<path d="M25 25H41V41H25V25Z" fill="white"/>
</mask>
<g mask="url(#mask1_373_29120)">
<path d="M40.375 25.625L36.7188 29.2812" stroke="#150A02" stroke-width="1.2" stroke-miterlimit="10" stroke-linecap="round" stroke-linejoin="round"/>
<path d="M36.7188 25.625L40.375 29.2812" stroke="#150A02" stroke-width="1.2" stroke-miterlimit="10" stroke-linecap="round" stroke-linejoin="round"/>
</g>
</g>
<mask id="path-6-inside-1_373_29120" fill="white">
<path d="M32.9999 35.0805C34.4923 35.0805 35.7065 33.8664 35.7065 32.3738C35.7065 30.8812 34.4923 29.667 32.9999 29.667C31.5071 29.667 30.293 30.8812 30.293 32.3738C30.293 33.8664 31.5071 35.0805 32.9999 35.0805ZM32.9999 30.4051C34.0854 30.4051 34.9684 31.2882 34.9684 32.3738C34.9684 33.4593 34.0854 34.3424 32.9999 34.3424C31.9144 34.3424 31.0311 33.4593 31.0311 32.3738C31.0311 31.2882 31.9144 30.4051 32.9999 30.4051Z"/>
</mask>
<path d="M32.9999 35.0805C34.4923 35.0805 35.7065 33.8664 35.7065 32.3738C35.7065 30.8812 34.4923 29.667 32.9999 29.667C31.5071 29.667 30.293 30.8812 30.293 32.3738C30.293 33.8664 31.5071 35.0805 32.9999 35.0805ZM32.9999 30.4051C34.0854 30.4051 34.9684 31.2882 34.9684 32.3738C34.9684 33.4593 34.0854 34.3424 32.9999 34.3424C31.9144 34.3424 31.0311 33.4593 31.0311 32.3738C31.0311 31.2882 31.9144 30.4051 32.9999 30.4051Z" fill="#150A02"/>
<path d="M32.9999 35.0805V36.0805C35.0447 36.0805 36.7065 34.4186 36.7065 32.3738H35.7065H34.7065C34.7065 33.3141 33.94 34.0805 32.9999 34.0805V35.0805ZM35.7065 32.3738H36.7065C36.7065 30.3289 35.0447 28.667 32.9999 28.667V29.667V30.667C33.94 30.667 34.7065 31.4334 34.7065 32.3738H35.7065ZM32.9999 29.667V28.667C30.9549 28.667 29.293 30.3288 29.293 32.3738H30.293H31.293C31.293 31.4335 32.0594 30.667 32.9999 30.667V29.667ZM30.293 32.3738H29.293C29.293 34.4187 30.9549 36.0805 32.9999 36.0805V35.0805V34.0805C32.0594 34.0805 31.293 33.314 31.293 32.3738H30.293ZM32.9999 30.4051V31.4051C33.533 31.4051 33.9684 31.8404 33.9684 32.3738H34.9684H35.9684C35.9684 30.7361 34.6378 29.4051 32.9999 29.4051V30.4051ZM34.9684 32.3738H33.9684C33.9684 32.9071 33.533 33.3424 32.9999 33.3424V34.3424V35.3424C34.6378 35.3424 35.9684 34.0114 35.9684 32.3738H34.9684ZM32.9999 34.3424V33.3424C32.4666 33.3424 32.0311 32.9069 32.0311 32.3738H31.0311H30.0311C30.0311 34.0117 31.3622 35.3424 32.9999 35.3424V34.3424ZM31.0311 32.3738H32.0311C32.0311 31.8406 32.4666 31.4051 32.9999 31.4051V30.4051V29.4051C31.3622 29.4051 30.0311 30.7358 30.0311 32.3738H31.0311Z" fill="#150A02" mask="url(#path-6-inside-1_373_29120)"/>
<path d="M29.4205 39.9999H36.5795C37.3936 39.9999 38.0557 39.3377 38.0557 38.5237C38.0557 37.0966 36.8945 35.9355 35.4673 35.9355H30.5327C29.1055 35.9355 27.9443 37.0966 27.9443 38.5237C27.9443 39.3377 28.6064 39.9999 29.4205 39.9999ZM30.5327 36.6736H35.4673C36.4876 36.6736 37.3176 37.5036 37.3176 38.5237C37.3176 38.9308 36.9864 39.2618 36.5795 39.2618H29.4205C29.0136 39.2618 28.6824 38.9308 28.6824 38.5237C28.6824 37.5036 29.5124 36.6736 30.5327 36.6736Z" fill="#150A02"/>
</g>
</g>
<defs>
<filter id="filter0_d_373_29120" x="0" y="0" width="66" height="66" filterUnits="userSpaceOnUse" color-interpolation-filters="sRGB">
<feFlood flood-opacity="0" result="BackgroundImageFix"/>
<feColorMatrix in="SourceAlpha" type="matrix" values="0 0 0 0 0 0 0 0 0 0 0 0 0 0 0 0 0 0 127 0" result="hardAlpha"/>
<feMorphology radius="1" operator="dilate" in="SourceAlpha" result="effect1_dropShadow_373_29120"/>
<feOffset/>
<feGaussianBlur stdDeviation="8"/>
<feComposite in2="hardAlpha" operator="out"/>
<feColorMatrix type="matrix" values="0 0 0 0 0.0823529 0 0 0 0 0.0392157 0 0 0 0 0.00784314 0 0 0 0.08 0"/>
<feBlend mode="normal" in2="BackgroundImageFix" result="effect1_dropShadow_373_29120"/>
<feBlend mode="normal" in="SourceGraphic" in2="effect1_dropShadow_373_29120" result="shape"/>
</filter>
<clipPath id="clip0_373_29120">
<rect width="16" height="16" fill="white" transform="translate(25 25)"/>
</clipPath>
</defs>
</svg>
