<svg width="24" height="24" viewBox="0 0 24 24" fill="none" xmlns="http://www.w3.org/2000/svg">
<g clip-path="url(#clip0_3595_18952)">
<mask id="path-1-inside-1_3595_18952" fill="white">
<path d="M21.54 6.71275C21.7535 6.47419 21.9171 6.19534 22.0211 5.89261C22.1252 5.58988 22.1676 5.26939 22.146 4.95001C22.1243 4.63063 22.039 4.31882 21.895 4.03291C21.751 3.74701 21.5512 3.4928 21.3075 3.28525L18.12 0.577752C17.6445 0.170836 17.028 -0.0328417 16.4037 0.0106535C15.7793 0.0541486 15.1971 0.341331 14.7825 0.810252L1.42503 15.6828C0.502832 16.7136 -0.00482647 18.0496 3.45894e-05 19.4328V23.1828C0.00728386 23.2934 0.0371893 23.4015 0.0878973 23.5001C0.138605 23.5988 0.209035 23.6859 0.294821 23.7563C0.380607 23.8266 0.479922 23.8785 0.586608 23.9089C0.693295 23.9392 0.80508 23.9474 0.915035 23.9328L4.79253 23.3553C6.08642 23.1615 7.27211 22.5223 8.14503 21.5478L21.54 6.71275ZM6.97503 20.5353C6.3523 21.231 5.50603 21.6873 4.58253 21.8253L1.58253 22.2678V19.4403C1.57557 18.4471 1.93928 17.487 2.60253 16.7478L13.1025 5.06275L15.615 7.31275C15.7745 7.44559 15.9793 7.51147 16.1863 7.49656C16.3933 7.48164 16.5865 7.38709 16.7253 7.23277C16.8641 7.07844 16.9377 6.87634 16.9307 6.6689C16.9236 6.46145 16.8365 6.26481 16.6875 6.12025L14.175 3.87025L15.9675 1.87525C16.1062 1.71783 16.3015 1.6216 16.5108 1.60755C16.7202 1.59351 16.9266 1.66277 17.085 1.80025L20.25 4.50025C20.3304 4.56978 20.3962 4.65458 20.4436 4.74974C20.4909 4.8449 20.5189 4.94851 20.5259 5.05457C20.5328 5.16063 20.5187 5.26702 20.4842 5.36756C20.4497 5.4681 20.3956 5.56079 20.325 5.64025L6.97503 20.5353Z"/>
</mask>
<path d="M21.54 6.71275C21.7535 6.47419 21.9171 6.19534 22.0211 5.89261C22.1252 5.58988 22.1676 5.26939 22.146 4.95001C22.1243 4.63063 22.039 4.31882 21.895 4.03291C21.751 3.74701 21.5512 3.4928 21.3075 3.28525L18.12 0.577752C17.6445 0.170836 17.028 -0.0328417 16.4037 0.0106535C15.7793 0.0541486 15.1971 0.341331 14.7825 0.810252L1.42503 15.6828C0.502832 16.7136 -0.00482647 18.0496 3.45894e-05 19.4328V23.1828C0.00728386 23.2934 0.0371893 23.4015 0.0878973 23.5001C0.138605 23.5988 0.209035 23.6859 0.294821 23.7563C0.380607 23.8266 0.479922 23.8785 0.586608 23.9089C0.693295 23.9392 0.80508 23.9474 0.915035 23.9328L4.79253 23.3553C6.08642 23.1615 7.27211 22.5223 8.14503 21.5478L21.54 6.71275ZM6.97503 20.5353C6.3523 21.231 5.50603 21.6873 4.58253 21.8253L1.58253 22.2678V19.4403C1.57557 18.4471 1.93928 17.487 2.60253 16.7478L13.1025 5.06275L15.615 7.31275C15.7745 7.44559 15.9793 7.51147 16.1863 7.49656C16.3933 7.48164 16.5865 7.38709 16.7253 7.23277C16.8641 7.07844 16.9377 6.87634 16.9307 6.6689C16.9236 6.46145 16.8365 6.26481 16.6875 6.12025L14.175 3.87025L15.9675 1.87525C16.1062 1.71783 16.3015 1.6216 16.5108 1.60755C16.7202 1.59351 16.9266 1.66277 17.085 1.80025L20.25 4.50025C20.3304 4.56978 20.3962 4.65458 20.4436 4.74974C20.4909 4.8449 20.5189 4.94851 20.5259 5.05457C20.5328 5.16063 20.5187 5.26702 20.4842 5.36756C20.4497 5.4681 20.3956 5.56079 20.325 5.64025L6.97503 20.5353Z" fill="#150A02"/>
<path d="M21.54 6.71275L33.4154 17.4354L33.4397 17.4085L33.4639 17.3815L21.54 6.71275ZM21.3075 3.28525L31.6814 -8.89602L31.6736 -8.90267L31.6657 -8.90932L21.3075 3.28525ZM18.12 0.577752L7.71762 12.7346L7.73969 12.7535L7.76182 12.7723L18.12 0.577752ZM14.7825 0.810252L26.6863 11.5014L26.7284 11.4546L26.7701 11.4074L14.7825 0.810252ZM1.42503 15.6828L-10.4787 4.9916L-10.4893 5.00335L-10.4998 5.01512L1.42503 15.6828ZM3.45894e-05 19.4328H16V19.4046L15.9999 19.3765L3.45894e-05 19.4328ZM3.45894e-05 23.1828H-16V23.7062L-15.9658 24.2284L3.45894e-05 23.1828ZM0.915035 23.9328L3.02332 39.7932L3.1478 39.7767L3.27202 39.7582L0.915035 23.9328ZM4.79253 23.3553L7.14952 39.1807L7.16165 39.1789L4.79253 23.3553ZM8.14503 21.5478L-3.73034 10.8251L-3.75163 10.8487L-3.77282 10.8723L8.14503 21.5478ZM6.97503 20.5353L-4.93972 9.85637L-4.94692 9.8644L6.97503 20.5353ZM4.58253 21.8253L6.91727 37.654L6.93186 37.6518L6.94643 37.6497L4.58253 21.8253ZM1.58253 22.2678H-14.4175V40.8009L3.91727 38.0965L1.58253 22.2678ZM1.58253 19.4403H17.5825V19.3842L17.5821 19.3281L1.58253 19.4403ZM2.60253 16.7478L-9.29853 6.0536L-9.30685 6.06288L2.60253 16.7478ZM13.1025 5.06275L23.7765 -6.85645L11.8775 -17.5123L1.20147 -5.63139L13.1025 5.06275ZM15.615 7.31275L4.94112 19.232L5.15473 19.4233L5.37507 19.6068L15.615 7.31275ZM16.6875 6.12025L27.8307 -5.36142L27.6005 -5.58489L27.3615 -5.79895L16.6875 6.12025ZM14.175 3.87025L2.27344 -6.8233L-8.43775 5.09793L3.50112 15.7895L14.175 3.87025ZM15.9675 1.87525L27.8691 12.5688L27.9215 12.5105L27.9733 12.4517L15.9675 1.87525ZM17.085 1.80025L6.60023 13.8862L6.65039 13.9297L6.70091 13.9728L17.085 1.80025ZM20.25 4.50025L30.716 -7.60197L30.6752 -7.63725L30.6342 -7.67225L20.25 4.50025ZM20.325 5.64025L32.2398 16.3191L32.2631 16.2931L32.2863 16.267L20.325 5.64025ZM21.54 6.71275L33.4639 17.3815C35.1003 15.5525 36.3544 13.4147 37.1522 11.0937L22.0211 5.89261L6.89007 0.691494C7.47975 -1.02398 8.40664 -2.60414 9.61619 -3.95598L21.54 6.71275ZM22.0211 5.89261L37.1522 11.0937C37.9499 8.77279 38.2754 6.31573 38.1093 3.86716L22.146 4.95001L6.18264 6.03287C6.05987 4.22306 6.3004 2.40697 6.89007 0.691494L22.0211 5.89261ZM22.146 4.95001L38.1093 3.86716C37.9432 1.41861 37.2889 -0.971999 36.185 -3.16394L21.895 4.03291L7.60492 11.2298C6.78898 9.60963 6.3054 7.84266 6.18264 6.03287L22.146 4.95001ZM21.895 4.03291L36.185 -3.16394C35.0811 -5.35588 33.5498 -7.30481 31.6814 -8.89602L21.3075 3.28525L10.9337 15.4665C9.55267 14.2904 8.42087 12.8499 7.60492 11.2298L21.895 4.03291ZM21.3075 3.28525L31.6657 -8.90932L28.4782 -11.6168L18.12 0.577752L7.76182 12.7723L10.9493 15.4798L21.3075 3.28525ZM18.12 0.577752L28.5224 -11.5791C24.8567 -14.7159 20.1048 -16.2859 15.2918 -15.9507L16.4037 0.0106535L17.5156 15.972C13.9513 16.2203 10.4323 15.0575 7.71762 12.7346L18.12 0.577752ZM16.4037 0.0106535L15.2918 -15.9507C10.4788 -15.6154 5.99048 -13.4016 2.79501 -9.78688L14.7825 0.810252L26.7701 11.4074C24.4037 14.0843 21.0798 15.7237 17.5156 15.972L16.4037 0.0106535ZM14.7825 0.810252L2.87879 -9.88091L-10.4787 4.9916L1.42503 15.6828L13.3288 26.3739L26.6863 11.5014L14.7825 0.810252ZM1.42503 15.6828L-10.4998 5.01512C-14.0592 8.99403 -16.0186 14.1504 -15.9999 19.489L3.45894e-05 19.4328L15.9999 19.3765C16.009 21.9488 15.0649 24.4332 13.3499 26.3504L1.42503 15.6828ZM3.45894e-05 19.4328H-16V23.1828H3.45894e-05H16V19.4328H3.45894e-05ZM3.45894e-05 23.1828L-15.9658 24.2284C-15.8153 26.5255 -15.1947 28.7671 -14.1423 30.8145L0.0878973 23.5001L14.3181 16.1857C15.2691 18.0358 15.8299 20.0614 15.9658 22.1371L3.45894e-05 23.1828ZM0.0878973 23.5001L-14.1423 30.8145C-13.09 32.8619 -11.6283 34.6713 -9.84803 36.1305L0.294821 23.7563L10.4377 11.382C12.0464 12.7006 13.3672 14.3357 14.3181 16.1857L0.0878973 23.5001ZM0.294821 23.7563L-9.84803 36.1305C-8.06766 37.5899 -6.00657 38.6679 -3.79255 39.2979L0.586608 23.9089L4.96576 8.51983C6.96641 9.08914 8.82887 10.0633 10.4377 11.382L0.294821 23.7563ZM0.586608 23.9089L-3.79255 39.2979C-1.57849 39.928 0.741391 40.0966 3.02332 39.7932L0.915035 23.9328L-1.19325 8.07226C0.868769 7.79817 2.96508 7.95051 4.96576 8.51983L0.586608 23.9089ZM0.915035 23.9328L3.27202 39.7582L7.14952 39.1807L4.79253 23.3553L2.43555 7.52981L-1.44195 8.10731L0.915035 23.9328ZM4.79253 23.3553L7.16165 39.1789C12.1408 38.4334 16.7037 35.9733 20.0629 32.2232L8.14503 21.5478L-3.77282 10.8723C-2.15945 9.07119 0.0320004 7.88967 2.42342 7.53162L4.79253 23.3553ZM8.14503 21.5478L20.0204 32.2704L33.4154 17.4354L21.54 6.71275L9.66466 -4.00991L-3.73034 10.8251L8.14503 21.5478ZM6.97503 20.5353L-4.94692 9.8644C-3.08182 7.78063 -0.547245 6.41402 2.21864 6.00084L4.58253 21.8253L6.94643 37.6497C11.5593 36.9606 15.7864 34.6814 18.897 31.2061L6.97503 20.5353ZM4.58253 21.8253L2.2478 5.99651L-0.752205 6.43901L1.58253 22.2678L3.91727 38.0965L6.91727 37.654L4.58253 21.8253ZM1.58253 22.2678H17.5825V19.4403H1.58253H-14.4175V22.2678H1.58253ZM1.58253 19.4403L17.5821 19.3281C17.6031 22.3176 16.5083 25.2074 14.5119 27.4326L2.60253 16.7478L-9.30685 6.06288C-12.6298 9.76663 -14.4519 14.5766 -14.4171 19.5524L1.58253 19.4403ZM2.60253 16.7478L14.5036 27.4419L25.0036 15.7569L13.1025 5.06275L1.20147 -5.63139L-9.29852 6.05361L2.60253 16.7478ZM13.1025 5.06275L2.42862 16.982L4.94112 19.232L15.615 7.31275L26.289 -4.60645L23.7765 -6.85645L13.1025 5.06275ZM15.615 7.31275L5.37507 19.6068C8.71432 22.3881 13.0013 23.7675 17.336 23.4552L16.1863 7.49656L15.0366 -8.46209C18.9572 -8.74453 22.8347 -7.49693 25.855 -4.98127L15.615 7.31275ZM16.1863 7.49656L17.336 23.4552C21.6706 23.1429 25.7156 21.1633 28.6217 17.9321L16.7253 7.23277L4.82889 -3.46653C7.45738 -6.38913 11.116 -8.17964 15.0366 -8.46209L16.1863 7.49656ZM16.7253 7.23277L28.6217 17.9321C31.5279 14.7008 33.0689 10.4692 32.9215 6.12588L16.9307 6.6689L0.939887 7.21191C0.806486 3.28346 2.20036 -0.543911 4.82889 -3.46653L16.7253 7.23277ZM16.9307 6.6689L32.9215 6.12588C32.774 1.78257 30.9494 -2.33472 27.8307 -5.36142L16.6875 6.12025L5.54432 17.6019C2.72358 14.8643 1.07329 11.1403 0.939887 7.21191L16.9307 6.6689ZM16.6875 6.12025L27.3615 -5.79895L24.849 -8.04895L14.175 3.87025L3.50112 15.7895L6.01362 18.0395L16.6875 6.12025ZM14.175 3.87025L26.0766 14.5638L27.8691 12.5688L15.9675 1.87525L4.06594 -8.8183L2.27344 -6.8233L14.175 3.87025ZM15.9675 1.87525L27.9733 12.4517C25.3209 15.4626 21.5858 17.3029 17.5823 17.5716L16.5108 1.60755L15.4394 -14.3565C11.0172 -14.0597 6.89155 -12.0269 3.96177 -8.70121L15.9675 1.87525ZM16.5108 1.60755L17.5823 17.5716C13.5787 17.8403 9.63121 16.5156 6.60023 13.8862L17.085 1.80025L27.5698 -10.2856C24.2219 -13.1901 19.8616 -14.6533 15.4394 -14.3565L16.5108 1.60755ZM17.085 1.80025L6.70091 13.9728L9.8659 16.6728L20.25 4.50025L30.6342 -7.67225L27.4692 -10.3723L17.085 1.80025ZM20.25 4.50025L9.78408 16.6025C8.26155 15.2858 7.01578 13.6798 6.11907 11.8778L20.4436 4.74974L34.7681 -2.37829C33.7766 -4.37064 32.3993 -6.14624 30.716 -7.60197L20.25 4.50025ZM20.4436 4.74974L6.11907 11.8778C5.22234 10.0757 4.69252 8.11345 4.56038 6.10493L20.5259 5.05457L36.4914 4.00421C36.3453 1.78358 35.7595 -0.385906 34.7681 -2.37829L20.4436 4.74974ZM20.5259 5.05457L4.56038 6.10493C4.42825 4.09646 4.6964 2.08171 5.34932 0.177647L20.4842 5.36756L35.6191 10.5575C36.341 8.45233 36.6374 6.2248 36.4914 4.00421L20.5259 5.05457ZM20.4842 5.36756L5.34932 0.177647C6.00222 -1.72634 7.02685 -3.4817 8.36375 -4.9865L20.325 5.64025L32.2863 16.267C33.7644 14.6033 34.8972 12.6625 35.6191 10.5575L20.4842 5.36756ZM20.325 5.64025L8.41028 -5.03863L-4.93972 9.85637L6.97503 20.5353L18.8898 31.2141L32.2398 16.3191L20.325 5.64025Z" fill="#150A02" mask="url(#path-1-inside-1_3595_18952)"/>
<path d="M23.1975 22.3877H10.4025C10.204 22.407 10.0198 22.4994 9.88577 22.6471C9.75174 22.7947 9.67749 22.987 9.67749 23.1864C9.67749 23.3859 9.75174 23.5781 9.88577 23.7258C10.0198 23.8735 10.204 23.9659 10.4025 23.9852H23.1975C23.396 23.9659 23.5802 23.8735 23.7142 23.7258C23.8483 23.5781 23.9225 23.3859 23.9225 23.1864C23.9225 22.987 23.8483 22.7947 23.7142 22.6471C23.5802 22.4994 23.396 22.407 23.1975 22.3877Z" fill="#150A02"/>
</g>
<defs>
<clipPath id="clip0_3595_18952">
<rect width="24" height="24" fill="white"/>
</clipPath>
</defs>
</svg>
