<svg width="24" height="24" viewBox="0 0 24 24" fill="none" xmlns="http://www.w3.org/2000/svg">
<path d="M2.10938 3.35938H21.8906C22.7793 3.35938 23.5 4.08504 23.5 4.96875V19.0312C23.5 19.9199 22.7743 20.6406 21.8906 20.6406H2.10938C1.22074 20.6406 0.5 19.915 0.5 19.0312V4.96875C0.5 4.08236 1.2237 3.35938 2.10938 3.35938ZM8.82422 12.6045L2.04688 19.3809L1.19336 20.2344H22.8066L14.8594 12.2871L12.1904 14.9561C12.1115 15.035 11.9837 15.0354 11.9043 14.957L9.5293 12.6025L9.17578 12.252L8.82422 12.6045ZM0.90625 19.9473L8.8877 11.9658L8.53027 11.6123L1.75781 4.89844L0.90625 4.05371V19.9473ZM15.1465 12L23.0938 19.9473V4.05273L15.1465 12ZM2.05566 4.62109L11.6924 14.1758L12.0459 14.5264L22.8066 3.76562H1.19336L2.05566 4.62109Z" fill="#656565" stroke="#656565"/>
</svg>
