<svg width="48" height="48" viewBox="0 0 48 48" fill="none" xmlns="http://www.w3.org/2000/svg">
<path d="M24 8C21.8989 8 19.8183 8.41385 17.8771 9.21793C15.9359 10.022 14.172 11.2006 12.6863 12.6863C11.2006 14.172 10.022 15.9359 9.21793 17.8771C8.41385 19.8183 8 21.8989 8 24L24 24V8Z" fill="#FFDDB6"/>
<path d="M8 24C8 27.1645 8.93838 30.2579 10.6965 32.8891C12.4546 35.5203 14.9534 37.5711 17.8771 38.7821C20.8007 39.9931 24.0177 40.3099 27.1214 39.6926C30.2251 39.0752 33.0761 37.5513 35.3137 35.3137C37.5513 33.0761 39.0752 30.2251 39.6926 27.1214C40.3099 24.0177 39.9931 20.8007 38.7821 17.8771C37.5711 14.9534 35.5203 12.4546 32.8891 10.6965C30.2579 8.93838 27.1645 8 24 8L24 24L8 24Z" fill="#FFDDB6"/>
<path d="M38 24C38 31.732 31.732 38 24 38C16.268 38 10 31.732 10 24C10 16.268 16.268 10 24 10C31.732 10 38 16.268 38 24ZM11.9833 24C11.9833 30.6367 17.3633 36.0167 24 36.0167C30.6367 36.0167 36.0167 30.6367 36.0167 24C36.0167 17.3633 30.6367 11.9833 24 11.9833C17.3633 11.9833 11.9833 17.3633 11.9833 24Z" fill="#F39770"/>
<path d="M24 10C22.1615 10 20.341 10.3621 18.6424 11.0657C16.9439 11.7693 15.4005 12.8005 14.1005 14.1005C12.8005 15.4005 11.7693 16.9439 11.0657 18.6424C10.3621 20.341 10 22.1615 10 24H11.9805C11.9805 22.4216 12.2913 20.8586 12.8954 19.4003C13.4994 17.942 14.3848 16.617 15.5009 15.5009C16.617 14.3848 17.942 13.4994 19.4003 12.8954C20.8586 12.2913 22.4216 11.9805 24 11.9805V10Z" fill="#F39770"/>
<path d="M23.8493 41.3154C24.1396 41.3178 24.3732 41.5553 24.3703 41.846L24.3153 47.4815C24.3123 47.7713 24.0754 48.004 23.7857 48.0016C23.4953 47.9992 23.2617 47.7618 23.2647 47.4711L23.3197 41.8356C23.3226 41.5458 23.5595 41.3131 23.8493 41.3154Z" fill="#F39770"/>
<path d="M11.6515 36.1354C11.8554 36.3425 11.8524 36.6757 11.6449 36.879L7.62114 40.825C7.41429 41.0279 7.08201 41.025 6.87903 40.8184C6.67515 40.6113 6.67812 40.2781 6.88556 40.0748L10.9094 36.1288C11.1162 35.9259 11.4482 35.9288 11.6515 36.1354Z" fill="#F39770"/>
<path d="M6.68615 23.8493C6.68378 24.1396 6.44631 24.3732 6.15565 24.3703L0.52012 24.3153C0.230349 24.3126 -0.00235955 24.0754 1.80581e-05 23.7857C0.00239567 23.4953 0.23986 23.2617 0.530523 23.2647L6.16605 23.3197C6.45553 23.3226 6.68853 23.5595 6.68615 23.8493Z" fill="#F39770"/>
<path d="M11.8633 11.65C11.6562 11.8539 11.323 11.851 11.1197 11.6435L7.17377 7.61968C6.97078 7.41282 6.97375 7.08055 7.18031 6.87756C7.38746 6.67368 7.72061 6.67665 7.9239 6.8841L11.8698 10.9079C12.0725 11.1145 12.0696 11.4468 11.8633 11.65Z" fill="#F39770"/>
<path d="M24.1504 6.68619C23.86 6.68381 23.6265 6.44635 23.6294 6.15568L23.6844 0.520123C23.6871 0.23035 23.9242 -0.00235957 24.214 1.80582e-05C24.5044 0.00239568 24.738 0.23986 24.735 0.530524L24.68 6.16609C24.677 6.45556 24.4402 6.68827 24.1504 6.68619Z" fill="#F39770"/>
<path d="M36.3492 11.8624C36.1454 11.6552 36.1483 11.322 36.3558 11.1188L40.3796 7.17279C40.5864 6.9698 40.9184 6.97277 41.1217 7.17933C41.3256 7.38648 41.3226 7.71965 41.1151 7.92293L37.0913 11.8689C36.8848 12.0719 36.5525 12.0689 36.3492 11.8624Z" fill="#F39770"/>
<path d="M41.314 24.1509C41.3164 23.8605 41.5538 23.6269 41.8445 23.6299L47.48 23.6849C47.7698 23.6876 48.0025 23.9247 48.0001 24.2145C47.9977 24.5049 47.7603 24.7385 47.4696 24.7355L41.8341 24.6805C41.5443 24.6775 41.3116 24.4407 41.314 24.1509Z" fill="#F39770"/>
<path d="M36.1373 36.3492C36.3445 36.1454 36.6777 36.1483 36.8809 36.3558L40.8269 40.3796C41.0299 40.5865 41.0269 40.9187 40.8203 41.1217C40.6132 41.3256 40.28 41.3226 40.0767 41.1152L36.1308 37.0914C35.9278 36.8845 35.9308 36.5525 36.1373 36.3492Z" fill="#F39770"/>
</svg>
