<svg width="24" height="24" viewBox="0 0 24 24" fill="none" xmlns="http://www.w3.org/2000/svg">
<path d="M19 12C19 15.866 15.866 19 12 19C8.13401 19 5 15.866 5 12C5 8.13401 8.13401 5 12 5C15.866 5 19 8.13401 19 12ZM5.99163 12C5.99163 15.3183 8.68167 18.0084 12 18.0084C15.3183 18.0084 18.0084 15.3183 18.0084 12C18.0084 8.68167 15.3183 5.99163 12 5.99163C8.68167 5.99163 5.99163 8.68167 5.99163 12Z" fill="#F39770"/>
<path d="M19 12C19 15.866 15.866 19 12 19C8.13401 19 5 15.866 5 12C5 8.13401 8.13401 5 12 5C15.866 5 19 8.13401 19 12ZM5.99023 12C5.99023 15.3191 8.68089 18.0098 12 18.0098C15.3191 18.0098 18.0098 15.3191 18.0098 12C18.0098 8.68089 15.3191 5.99023 12 5.99023C8.68089 5.99023 5.99023 8.68089 5.99023 12Z" fill="#F39770"/>
<path d="M11.9246 20.6577C12.0698 20.6589 12.1866 20.7776 12.1851 20.923L12.1576 23.7408C12.1562 23.8856 12.0377 24.002 11.8928 24.0008C11.7477 23.9996 11.6309 23.8809 11.6323 23.7356L11.6598 20.9178C11.6613 20.7729 11.7797 20.6565 11.9246 20.6577Z" fill="#F39770"/>
<path d="M5.82574 18.0677C5.92768 18.1713 5.9262 18.3378 5.82247 18.4395L3.81057 20.4125C3.70714 20.514 3.54101 20.5125 3.43951 20.4092C3.33757 20.3056 3.33906 20.139 3.44278 20.0374L5.45469 18.0644C5.55811 17.9629 5.7241 17.9644 5.82574 18.0677Z" fill="#F39770"/>
<path d="M3.34308 11.9246C3.34189 12.0698 3.22316 12.1866 3.07782 12.1851L0.26006 12.1576C0.115174 12.1563 -0.00117978 12.0377 9.02902e-06 11.8928C0.00119783 11.7477 0.11993 11.6309 0.265262 11.6323L3.08303 11.6598C3.22776 11.6613 3.34427 11.7798 3.34308 11.9246Z" fill="#F39770"/>
<path d="M5.93165 5.82502C5.82808 5.92696 5.6615 5.92548 5.55985 5.82175L3.58688 3.80984C3.48539 3.70641 3.48688 3.54028 3.59015 3.43878C3.69373 3.33684 3.86031 3.33833 3.96195 3.44205L5.93492 5.45397C6.03627 5.55724 6.03478 5.72338 5.93165 5.82502Z" fill="#F39770"/>
<path d="M12.0752 3.3431C11.93 3.34191 11.8132 3.22317 11.8147 3.07784L11.8422 0.260062C11.8435 0.115175 11.9621 -0.00117978 12.107 9.02908e-06C12.2522 0.00119784 12.369 0.11993 12.3675 0.265262L12.34 3.08304C12.3385 3.22778 12.2201 3.34414 12.0752 3.3431Z" fill="#F39770"/>
<path d="M18.1746 5.93118C18.0727 5.8276 18.0742 5.66102 18.1779 5.55938L20.1898 3.5864C20.2932 3.4849 20.4592 3.48639 20.5608 3.58967C20.6628 3.69324 20.6613 3.85982 20.5576 3.96147L18.5457 5.93445C18.4424 6.03594 18.2763 6.03445 18.1746 5.93118Z" fill="#F39770"/>
<path d="M20.657 12.0755C20.6582 11.9303 20.7769 11.8135 20.9222 11.815L23.74 11.8424C23.8849 11.8438 24.0012 11.9624 24.0001 12.1073C23.9989 12.2524 23.8801 12.3692 23.7348 12.3678L20.917 12.3403C20.7722 12.3388 20.6558 12.2203 20.657 12.0755Z" fill="#F39770"/>
<path d="M18.0687 18.1746C18.1722 18.0727 18.3388 18.0742 18.4405 18.1779L20.4134 20.1898C20.5149 20.2932 20.5134 20.4594 20.4102 20.5609C20.3066 20.6628 20.14 20.6613 20.0384 20.5576L18.0654 18.5457C17.9639 18.4423 17.9654 18.2763 18.0687 18.1746Z" fill="#F39770"/>
</svg>
