<svg width="24" height="24" viewBox="0 0 24 24" fill="none" xmlns="http://www.w3.org/2000/svg">
<g clip-path="url(#clip0_426_16140)">
<path d="M5.83044 15.0132C5.90711 15.0132 5.98261 14.9943 6.05031 14.9584C6.11801 14.9224 6.17585 14.8703 6.21876 14.8068C6.26167 14.7432 6.28834 14.6701 6.29643 14.5939C6.30452 14.5177 6.29378 14.4406 6.26516 14.3695C5.9706 13.6369 5.8199 12.8545 5.8213 12.0649C5.8213 8.65774 8.5932 5.88584 12.0004 5.88584C15.4075 5.88584 18.1794 8.65774 18.1794 12.0649C18.1808 12.8544 18.0301 13.6368 17.7356 14.3694C17.7116 14.4267 17.6992 14.4882 17.6992 14.5503C17.6991 14.6124 17.7115 14.6739 17.7354 14.7312C17.7594 14.7886 17.7945 14.8405 17.8387 14.8842C17.8829 14.9278 17.9354 14.9622 17.993 14.9854C18.0507 15.0086 18.1123 15.0201 18.1745 15.0192C18.2366 15.0183 18.2979 15.0051 18.3549 14.9803C18.4118 14.9556 18.4633 14.9197 18.5063 14.8749C18.5493 14.83 18.5829 14.7771 18.6053 14.7191C18.9447 13.8754 19.1184 12.9742 19.1169 12.0648C19.1169 8.14071 15.9245 4.94824 12.0004 4.94824C8.07627 4.94824 4.8838 8.14071 4.8838 12.0648C4.88236 12.9742 5.05615 13.8754 5.39567 14.7191C5.43053 14.8059 5.49055 14.8803 5.56803 14.9327C5.64551 14.9851 5.7369 15.0131 5.83044 15.0132Z" fill="#150A02"/>
<path d="M12 3.15436C12.1243 3.15436 12.2435 3.10497 12.3315 3.01707C12.4194 2.92916 12.4688 2.80993 12.4688 2.68561V0.46875C12.4688 0.34443 12.4194 0.225201 12.3315 0.137294C12.2435 0.049386 12.1243 0 12 0C11.8757 0 11.7565 0.049386 11.6685 0.137294C11.5806 0.225201 11.5312 0.34443 11.5312 0.46875V2.68561C11.5312 2.80993 11.5806 2.92916 11.6685 3.01707C11.7565 3.10497 11.8757 3.15436 12 3.15436Z" fill="#150A02"/>
<path d="M6.93693 4.16791C6.99909 4.27558 7.10148 4.35415 7.22157 4.38632C7.34165 4.4185 7.4696 4.40166 7.57727 4.3395C7.68494 4.27734 7.7635 4.17495 7.79568 4.05487C7.82786 3.93478 7.81102 3.80683 7.74886 3.69916L6.6404 1.7793C6.60985 1.72556 6.56897 1.6784 6.52011 1.64052C6.47125 1.60265 6.41539 1.57481 6.35573 1.55861C6.29607 1.54241 6.23379 1.53818 6.17249 1.54615C6.11119 1.55411 6.05207 1.57413 5.99853 1.60504C5.94499 1.63595 5.8981 1.67714 5.86055 1.72625C5.823 1.77536 5.79553 1.83141 5.77973 1.89117C5.76393 1.95094 5.76011 2.01324 5.76848 2.07449C5.77686 2.13574 5.79726 2.19472 5.82853 2.24805L6.93693 4.16791Z" fill="#150A02"/>
<path d="M1.77906 6.63991L3.69887 7.74837C3.80654 7.81053 3.93449 7.82737 4.05458 7.79519C4.17466 7.76301 4.27705 7.68445 4.33921 7.57678C4.40137 7.46911 4.41821 7.34116 4.38603 7.22108C4.35385 7.10099 4.27529 6.99861 4.16762 6.93644L2.24781 5.82804C2.19448 5.79677 2.13549 5.77637 2.07424 5.76799C2.01299 5.75962 1.95069 5.76344 1.89093 5.77924C1.83116 5.79504 1.77511 5.82251 1.72601 5.86006C1.6769 5.89761 1.63571 5.94451 1.6048 5.99804C1.57389 6.05158 1.55387 6.1107 1.5459 6.172C1.53793 6.23331 1.54217 6.29558 1.55837 6.35524C1.57456 6.4149 1.6024 6.47076 1.64028 6.51962C1.67815 6.56848 1.72532 6.60936 1.77906 6.63991Z" fill="#150A02"/>
<path d="M3.15436 12C3.15436 11.8757 3.10497 11.7565 3.01707 11.6685C2.92916 11.5806 2.80993 11.5312 2.68561 11.5312H0.46875C0.34443 11.5312 0.225201 11.5806 0.137294 11.6685C0.049386 11.7565 0 11.8757 0 12C0 12.1243 0.049386 12.2435 0.137294 12.3315C0.225201 12.4194 0.34443 12.4688 0.46875 12.4688H2.68561C2.80993 12.4688 2.92916 12.4194 3.01707 12.3315C3.10497 12.2435 3.15436 12.1243 3.15436 12Z" fill="#150A02"/>
<path d="M23.5313 11.5312H21.3145C21.1901 11.5312 21.0709 11.5806 20.983 11.6685C20.8951 11.7565 20.8457 11.8757 20.8457 12C20.8457 12.1243 20.8951 12.2435 20.983 12.3315C21.0709 12.4194 21.1901 12.4688 21.3145 12.4688H23.5313C23.6556 12.4688 23.7749 12.4194 23.8628 12.3315C23.9507 12.2435 24.0001 12.1243 24.0001 12C24.0001 11.8757 23.9507 11.7565 23.8628 11.6685C23.7749 11.5806 23.6556 11.5312 23.5313 11.5312Z" fill="#150A02"/>
<path d="M20.067 7.81123C20.1492 7.81123 20.2298 7.78955 20.3009 7.74837L22.2207 6.63991C22.2745 6.60936 22.3216 6.56848 22.3595 6.51962C22.3974 6.47076 22.4252 6.4149 22.4414 6.35524C22.4576 6.29558 22.4619 6.23331 22.4539 6.172C22.4459 6.1107 22.4259 6.05158 22.395 5.99804C22.3641 5.94451 22.3229 5.89761 22.2738 5.86006C22.2247 5.82251 22.1686 5.79504 22.1089 5.77924C22.0491 5.76344 21.9868 5.75962 21.9256 5.76799C21.8643 5.77637 21.8053 5.79677 21.752 5.82804L19.8322 6.93644C19.7427 6.98804 19.6728 7.06772 19.6333 7.16312C19.5938 7.25852 19.5869 7.36429 19.6137 7.46401C19.6405 7.56374 19.6994 7.65183 19.7814 7.71462C19.8634 7.7774 19.9638 7.81136 20.067 7.81123Z" fill="#150A02"/>
<path d="M16.4229 4.33948C16.5305 4.40163 16.6585 4.41848 16.7786 4.3863C16.8986 4.35413 17.001 4.27557 17.0632 4.16791L18.1716 2.24805C18.2029 2.19472 18.2233 2.13574 18.2316 2.07449C18.24 2.01324 18.2362 1.95094 18.2204 1.89117C18.2046 1.83141 18.1771 1.77536 18.1396 1.72625C18.102 1.67714 18.0551 1.63595 18.0016 1.60504C17.9481 1.57413 17.8889 1.55411 17.8276 1.54615C17.7663 1.53818 17.7041 1.54241 17.6444 1.55861C17.5847 1.57481 17.5289 1.60265 17.48 1.64052C17.4312 1.6784 17.3903 1.72556 17.3597 1.7793L16.2513 3.69916C16.1891 3.80683 16.1723 3.93478 16.2045 4.05486C16.2366 4.17494 16.3152 4.27732 16.4229 4.33948Z" fill="#150A02"/>
<path d="M19.461 20.6602H12.9375C12.8132 20.6602 12.694 20.7095 12.606 20.7974C12.5181 20.8854 12.4688 21.0046 12.4688 21.1289C12.4688 21.2532 12.5181 21.3725 12.606 21.4604C12.694 21.5483 12.8132 21.5977 12.9375 21.5977H19.461C19.5853 21.5977 19.7045 21.5483 19.7924 21.4604C19.8803 21.3725 19.9297 21.2532 19.9297 21.1289C19.9297 21.0046 19.8803 20.8854 19.7924 20.7974C19.7045 20.7095 19.5853 20.6602 19.461 20.6602Z" fill="#150A02"/>
<path d="M11.5605 21.1289C11.5605 21.0046 11.5111 20.8854 11.4232 20.7974C11.3353 20.7095 11.216 20.6602 11.0917 20.6602H4.53906C4.41474 20.6602 4.29551 20.7095 4.20761 20.7974C4.1197 20.8854 4.07031 21.0046 4.07031 21.1289C4.07031 21.2532 4.1197 21.3725 4.20761 21.4604C4.29551 21.5483 4.41474 21.5977 4.53906 21.5977H11.0917C11.216 21.5977 11.3353 21.5483 11.4232 21.4604C11.5111 21.3725 11.5605 21.2532 11.5605 21.1289Z" fill="#150A02"/>
<path d="M16.1992 19.1953C16.3235 19.1953 16.4427 19.1459 16.5306 19.058C16.6186 18.9701 16.6679 18.8509 16.6679 18.7266C16.6679 18.6022 16.6186 18.483 16.5306 18.3951C16.4427 18.3072 16.3235 18.2578 16.1992 18.2578H7.80078C7.67646 18.2578 7.55723 18.3072 7.46932 18.3951C7.38142 18.483 7.33203 18.6022 7.33203 18.7266C7.33203 18.8509 7.38142 18.9701 7.46932 19.058C7.55723 19.1459 7.67646 19.1953 7.80078 19.1953H16.1992Z" fill="#150A02"/>
<path d="M21.9864 15.8555H2.01367C1.88935 15.8555 1.77012 15.9049 1.68222 15.9928C1.59431 16.0807 1.54492 16.1999 1.54492 16.3242C1.54492 16.4485 1.59431 16.5678 1.68222 16.6557C1.77012 16.7436 1.88935 16.793 2.01367 16.793H21.9864C22.1107 16.793 22.2299 16.7436 22.3178 16.6557C22.4057 16.5678 22.4551 16.4485 22.4551 16.3242C22.4551 16.1999 22.4057 16.0807 22.3178 15.9928C22.2299 15.9049 22.1107 15.8555 21.9864 15.8555Z" fill="#150A02"/>
<path d="M13.2743 23.0625H10.7261C10.6018 23.0625 10.4825 23.1119 10.3946 23.1998C10.3067 23.2877 10.2573 23.4069 10.2573 23.5312C10.2573 23.6556 10.3067 23.7748 10.3946 23.8627C10.4825 23.9506 10.6018 24 10.7261 24H13.2743C13.3986 24 13.5178 23.9506 13.6057 23.8627C13.6937 23.7748 13.743 23.6556 13.743 23.5312C13.743 23.4069 13.6937 23.2877 13.6057 23.1998C13.5178 23.1119 13.3986 23.0625 13.2743 23.0625Z" fill="#150A02"/>
<path d="M12.0001 8.94922C11.8758 8.94922 11.7566 8.99861 11.6687 9.08651C11.5807 9.17442 11.5314 9.29365 11.5314 9.41797V12.6083L10.2626 11.3396C10.1747 11.2517 10.0555 11.2023 9.93118 11.2023C9.80686 11.2023 9.68762 11.2517 9.59971 11.3396C9.5118 11.4275 9.46241 11.5467 9.4624 11.671C9.4624 11.7954 9.51178 11.9146 9.59969 12.0025L11.6687 14.0715C11.7566 14.1594 11.8758 14.2088 12.0001 14.2088C12.1244 14.2088 12.2437 14.1594 12.3316 14.0715L14.4005 12.0025C14.4884 11.9146 14.5378 11.7954 14.5378 11.671C14.5378 11.5467 14.4884 11.4275 14.4005 11.3396C14.3126 11.2517 14.1934 11.2023 14.069 11.2023C13.9447 11.2023 13.8255 11.2517 13.7376 11.3396L12.4689 12.6083V9.41797C12.4689 9.29365 12.4195 9.17442 12.3316 9.08651C12.2437 8.99861 12.1244 8.94922 12.0001 8.94922Z" fill="#150A02"/>
</g>
<defs>
<clipPath id="clip0_426_16140">
<rect width="24" height="24" fill="white"/>
</clipPath>
</defs>
</svg>
