<svg width="24" height="24" viewBox="0 0 24 24" fill="none" xmlns="http://www.w3.org/2000/svg">
<g clip-path="url(#clip0_3225_4631)">
<path d="M19.7319 7.87109C19.8048 7.73374 19.9543 7.71055 20.0464 7.76953C21.6782 8.817 22.7995 10.178 23.3511 11.7422L23.4536 12.0576C23.4688 12.1092 23.4687 12.1642 23.4536 12.2158C22.3494 15.9145 17.7429 18.6494 12.0601 18.6494C11.3908 18.6494 10.7258 18.611 10.0747 18.5352C9.95423 18.5211 9.85327 18.4041 9.87646 18.2549C9.89812 18.1162 10.0358 18.0005 10.2065 18.0195C10.8151 18.0874 11.4356 18.1221 12.0591 18.1221C14.5197 18.1221 16.838 17.5713 18.7163 16.6201C20.59 15.6713 22.0595 14.3047 22.7603 12.6543C22.9007 12.3232 22.9012 11.9509 22.7651 11.6211C22.2177 10.2946 21.2165 9.15529 19.856 8.26562C19.7036 8.16603 19.6698 7.98888 19.7319 7.87109Z" fill="#656565" stroke="#656565"/>
<path d="M6.39655 18.1908C3.12737 17.0043 0.819358 14.8796 0.0652786 12.36L0 12.1377L0.0660289 11.9153C1.24254 7.9808 6.287 5.125 12.06 5.125C13.9163 5.125 15.6976 5.40462 17.3536 5.95699L16.8876 7.40857C15.3817 6.90739 13.758 6.65298 12.06 6.65298C7.04708 6.65298 2.69218 8.94572 1.57344 12.1369C2.25549 14.0683 4.22585 15.7819 6.90077 16.7506L6.39655 18.1908Z" fill="#656565"/>
<path d="M13.6888 15.699C13.31 15.89 12.8848 15.6365 12.7801 15.2254C12.6768 14.8194 12.9317 14.415 13.2777 14.1788C13.3992 14.0959 13.5132 14.0007 13.6177 13.8943C13.7744 13.7344 13.9054 13.5549 14.0083 13.3605C14.2031 12.9925 14.5806 12.7033 14.9913 12.7719C15.3987 12.84 15.6817 13.2285 15.5394 13.6163C15.3534 14.1232 15.0625 14.5845 14.6794 14.9746C14.3887 15.2706 14.0535 15.5151 13.6888 15.699Z" fill="#656565"/>
<path d="M9.37316 14.976C8.66485 14.2548 8.27393 13.2952 8.27393 12.2745C8.27393 11.2538 8.66485 10.2942 9.37316 9.57379C10.8355 8.08401 13.2163 8.08554 14.6787 9.57379L13.6178 10.6541C12.7399 9.76097 11.312 9.75944 10.4341 10.6541C10.0094 11.0865 9.77458 11.6625 9.77458 12.2745C9.77458 12.8872 10.0087 13.4633 10.4341 13.8957L9.37316 14.976Z" fill="#656565"/>
<path d="M0.748012 23.4581C0.455034 23.1598 0.455034 22.6761 0.748012 22.3778L22.1933 0.542075C22.4863 0.243764 22.9613 0.243763 23.2542 0.542075C23.5472 0.840387 23.5472 1.32405 23.2542 1.62236L1.80898 23.4581C1.516 23.7564 1.04099 23.7564 0.748012 23.4581Z" fill="#656565"/>
</g>
<defs>
<clipPath id="clip0_3225_4631">
<rect width="24" height="24" fill="white"/>
</clipPath>
</defs>
</svg>
