<svg width="24" height="24" viewBox="0 0 24 24" fill="none" xmlns="http://www.w3.org/2000/svg">
<g clip-path="url(#clip0_3279_8322)">
<path d="M12.0029 5.5C17.5993 5.5 22.3461 8.34689 23.457 12.0576L23.4804 12.1357L23.457 12.2148C22.3782 15.8183 17.7564 18.5 12.0029 18.5C6.42523 18.5 1.91151 15.9832 0.654236 12.5498L0.542908 12.2148L0.518494 12.1357L0.542908 12.0586V12.0576C1.65453 8.34698 6.40333 5.50005 12.0029 5.5ZM12.0029 6.02539C9.44634 6.02541 7.03974 6.62897 5.11517 7.66602C3.19492 8.7008 1.719 10.1883 1.09857 11.9717L1.04193 12.1367L1.09955 12.3008C1.70665 14.0349 3.15623 15.4544 5.06635 16.4336C6.98046 17.4148 9.39249 17.9746 12.0038 17.9746C14.6132 17.9746 17.0235 17.4148 18.9365 16.4336C20.8455 15.4543 22.2946 14.0349 22.9013 12.3008L22.9589 12.1357L22.9013 11.9717C22.2809 10.1884 20.8069 8.70083 18.8876 7.66602C16.9639 6.62884 14.5581 6.02539 12.0029 6.02539Z" fill="#150A02" stroke="#150A02"/>
<path d="M11.9685 15.9493C9.90076 15.9493 8.21851 14.2388 8.21851 12.1363C8.21851 10.0338 9.90076 8.32324 11.9685 8.32324C14.0363 8.32324 15.7185 10.0338 15.7185 12.1363C15.7185 14.2388 14.0363 15.9493 11.9685 15.9493ZM11.9685 9.84846C10.728 9.84846 9.71851 10.8749 9.71851 12.1363C9.71851 13.3977 10.728 14.4241 11.9685 14.4241C13.209 14.4241 14.2185 13.3977 14.2185 12.1363C14.2185 10.8749 13.2098 9.84846 11.9685 9.84846Z" fill="#150A02"/>
</g>
<defs>
<clipPath id="clip0_3279_8322">
<rect width="24" height="24" fill="white"/>
</clipPath>
</defs>
</svg>
