<svg width="73" height="74" viewBox="0 0 73 74" fill="none" xmlns="http://www.w3.org/2000/svg">
<g filter="url(#filter0_d_373_21801)">
<rect x="17" y="17" width="40" height="40" rx="20" fill="white" shape-rendering="crispEdges"/>
<g clip-path="url(#clip0_373_21801)">
<mask id="path-2-inside-1_373_21801" fill="white">
<path d="M39.1818 30.2725H27.5455C27.2442 30.2725 27 30.0283 27 29.7271C27 29.4259 27.2442 29.1816 27.5455 29.1816H39.1818C39.483 29.1816 39.7273 29.4259 39.7273 29.7271C39.7273 30.0283 39.483 30.2725 39.1818 30.2725Z"/>
</mask>
<path d="M39.1818 30.2725H27.5455C27.2442 30.2725 27 30.0283 27 29.7271C27 29.4259 27.2442 29.1816 27.5455 29.1816H39.1818C39.483 29.1816 39.7273 29.4259 39.7273 29.7271C39.7273 30.0283 39.483 30.2725 39.1818 30.2725Z" fill="#150A02"/>
<path d="M39.1818 30.2725V29.1089H27.5455V30.2725V31.4362H39.1818V30.2725ZM27.5455 30.2725V29.1089C27.8869 29.1089 28.1636 29.3857 28.1636 29.7271H27H25.8364C25.8364 30.671 26.6016 31.4362 27.5455 31.4362V30.2725ZM27 29.7271H28.1636C28.1636 30.0685 27.8869 30.3453 27.5455 30.3453V29.1816V28.018C26.6016 28.018 25.8364 28.7832 25.8364 29.7271H27ZM27.5455 29.1816V30.3453H39.1818V29.1816V28.018H27.5455V29.1816ZM39.1818 29.1816V30.3453C38.8404 30.3453 38.5636 30.0685 38.5636 29.7271H39.7273H40.8909C40.8909 28.7832 40.1257 28.018 39.1818 28.018V29.1816ZM39.7273 29.7271H38.5636C38.5636 29.3857 38.8404 29.1089 39.1818 29.1089V30.2725V31.4362C40.1257 31.4362 40.8909 30.671 40.8909 29.7271H39.7273Z" fill="#150A02" mask="url(#path-2-inside-1_373_21801)"/>
<path d="M46.4545 37.546H34.8182C34.5169 37.546 34.2727 37.3018 34.2727 37.0005C34.2727 36.6993 34.5169 36.4551 34.8182 36.4551H46.4545C46.7557 36.4551 47 36.6993 47 37.0005C47 37.3018 46.7557 37.546 46.4545 37.546Z" fill="#150A02"/>
<path d="M46.4545 44.8175H39.1818C38.8806 44.8175 38.6364 44.5732 38.6364 44.272C38.6364 43.9708 38.8806 43.7266 39.1818 43.7266H46.4545C46.7558 43.7266 47 43.9708 47 44.272C47 44.5732 46.7558 44.8175 46.4545 44.8175Z" fill="#150A02"/>
<path d="M34.8182 44.8175H27.5455C27.2442 44.8175 27 44.5732 27 44.272C27 43.9708 27.2442 43.7266 27.5455 43.7266H34.8182C35.1194 43.7266 35.3636 43.9708 35.3636 44.272C35.3636 44.5732 35.1194 44.8175 34.8182 44.8175Z" fill="#150A02"/>
<path d="M41.3636 32.4545C39.8574 32.4545 38.6364 31.2335 38.6364 29.7273C38.6364 28.221 39.8574 27 41.3636 27C42.8699 27 44.0909 28.221 44.0909 29.7273C44.0909 31.2335 42.8699 32.4545 41.3636 32.4545ZM41.3636 28.0909C40.4599 28.0909 39.7273 28.8235 39.7273 29.7273C39.7273 30.631 40.4599 31.3636 41.3636 31.3636C42.2674 31.3636 43 30.631 43 29.7273C43 28.8235 42.2674 28.0909 41.3636 28.0909Z" fill="#150A02"/>
<path d="M32.6365 39.728C31.1302 39.728 29.9092 38.5069 29.9092 37.0007C29.9092 35.4945 31.1302 34.2734 32.6365 34.2734C34.1427 34.2734 35.3637 35.4945 35.3637 37.0007C35.3637 38.5069 34.1427 39.728 32.6365 39.728ZM32.6365 35.3643C31.7327 35.3643 31.0001 36.097 31.0001 37.0007C31.0001 37.9044 31.7327 38.6371 32.6365 38.6371C33.5402 38.6371 34.2728 37.9044 34.2728 37.0007C34.2728 36.097 33.5402 35.3643 32.6365 35.3643Z" fill="#150A02"/>
<path d="M37 46.9995C35.4938 46.9995 34.2727 45.7784 34.2727 44.2722C34.2727 42.766 35.4938 41.5449 37 41.5449C38.5062 41.5449 39.7273 42.766 39.7273 44.2722C39.7273 45.7784 38.5062 46.9995 37 46.9995ZM37 42.6358C36.0963 42.6358 35.3636 43.3685 35.3636 44.2722C35.3636 45.1759 36.0963 45.9086 37 45.9086C37.9037 45.9086 38.6363 45.1759 38.6363 44.2722C38.6363 43.3685 37.9037 42.6358 37 42.6358Z" fill="#150A02"/>
<path d="M46.4545 30.2725H43.5455C43.2442 30.2725 43 30.0283 43 29.7271C43 29.4259 43.2442 29.1816 43.5455 29.1816H46.4545C46.7558 29.1816 47 29.4259 47 29.7271C47 30.0283 46.7558 30.2725 46.4545 30.2725Z" fill="#150A02"/>
<path d="M30.4545 37.546H27.5455C27.2442 37.546 27 37.3018 27 37.0005C27 36.6993 27.2442 36.4551 27.5455 36.4551H30.4545C30.7558 36.4551 31 36.6993 31 37.0005C31 37.3018 30.7558 37.546 30.4545 37.546Z" fill="#150A02"/>
</g>
</g>
<defs>
<filter id="filter0_d_373_21801" x="0" y="0" width="74" height="74" filterUnits="userSpaceOnUse" color-interpolation-filters="sRGB">
<feFlood flood-opacity="0" result="BackgroundImageFix"/>
<feColorMatrix in="SourceAlpha" type="matrix" values="0 0 0 0 0 0 0 0 0 0 0 0 0 0 0 0 0 0 127 0" result="hardAlpha"/>
<feMorphology radius="1" operator="dilate" in="SourceAlpha" result="effect1_dropShadow_373_21801"/>
<feOffset/>
<feGaussianBlur stdDeviation="8"/>
<feComposite in2="hardAlpha" operator="out"/>
<feColorMatrix type="matrix" values="0 0 0 0 0.0823529 0 0 0 0 0.0392157 0 0 0 0 0.00784314 0 0 0 0.08 0"/>
<feBlend mode="normal" in2="BackgroundImageFix" result="effect1_dropShadow_373_21801"/>
<feBlend mode="normal" in="SourceGraphic" in2="effect1_dropShadow_373_21801" result="shape"/>
</filter>
<clipPath id="clip0_373_21801">
<rect width="20" height="20" fill="white" transform="translate(27 27)"/>
</clipPath>
</defs>
</svg>
