<svg width="97" height="96" viewBox="0 0 97 96" fill="none" xmlns="http://www.w3.org/2000/svg">
<circle cx="48.5" cy="48" r="32" fill="#F39770"/>
<path d="M76.5 48C76.5 63.464 63.964 76 48.5 76C33.036 76 20.5 63.464 20.5 48C20.5 32.536 33.036 20 48.5 20C63.964 20 76.5 32.536 76.5 48ZM24.4665 48C24.4665 61.2733 35.2267 72.0335 48.5 72.0335C61.7733 72.0335 72.5335 61.2733 72.5335 48C72.5335 34.7267 61.7733 23.9665 48.5 23.9665C35.2267 23.9665 24.4665 34.7267 24.4665 48Z" fill="#F39770"/>
<path d="M76.5 48C76.5 63.464 63.964 76 48.5 76C33.036 76 20.5 63.464 20.5 48C20.5 32.536 33.036 20 48.5 20C63.964 20 76.5 32.536 76.5 48ZM24.4609 48C24.4609 61.2764 35.2236 72.0391 48.5 72.0391C61.7764 72.0391 72.5391 61.2764 72.5391 48C72.5391 34.7236 61.7764 23.9609 48.5 23.9609C35.2236 23.9609 24.4609 34.7236 24.4609 48Z" fill="#FFDDB6"/>
<path d="M48.1985 82.6309C48.7793 82.6357 49.2465 83.1106 49.2405 83.6919L49.1305 94.963C49.1246 95.5426 48.6509 96.008 48.0713 96.0032C47.4906 95.9985 47.0234 95.5236 47.0294 94.9422L47.1393 83.6711C47.1453 83.0916 47.619 82.6261 48.1985 82.6309Z" fill="#F39770"/>
<path d="M23.803 72.2708C24.2107 72.6851 24.2048 73.3514 23.7899 73.758L15.7423 81.6499C15.3286 82.0559 14.664 82.0499 14.2581 81.6368C13.8503 81.2225 13.8562 80.5562 14.2711 80.1496L22.3187 72.2577C22.7324 71.8517 23.3964 71.8577 23.803 72.2708Z" fill="#F39770"/>
<path d="M13.8723 47.6986C13.8676 48.2793 13.3926 48.7465 12.8113 48.7405L1.54024 48.6306C0.960698 48.6252 0.495281 48.1509 0.500036 47.5714C0.504791 46.9906 0.979721 46.5234 1.56105 46.5294L12.8321 46.6393C13.4111 46.6453 13.8771 47.119 13.8723 47.6986Z" fill="#F39770"/>
<path d="M24.2266 23.3001C23.8123 23.7079 23.146 23.7019 22.7394 23.287L14.8475 15.2394C14.4416 14.8256 14.4475 14.1611 14.8606 13.7551C15.2749 13.3474 15.9412 13.3533 16.3478 13.7682L24.2397 21.8159C24.6451 22.229 24.6391 22.8935 24.2266 23.3001Z" fill="#F39770"/>
<path d="M48.8008 13.3724C48.2201 13.3676 47.7529 12.8927 47.7588 12.3114L47.8688 1.04025C47.8742 0.460701 48.3485 -0.00471913 48.928 3.61163e-05C49.5088 0.00479136 49.9759 0.479719 49.97 1.06105L49.86 12.3322C49.8541 12.9111 49.3804 13.3765 48.8008 13.3724Z" fill="#F39770"/>
<path d="M73.1985 23.7247C72.7907 23.3104 72.7967 22.6441 73.2116 22.2375L81.2592 14.3456C81.6729 13.9396 82.3368 13.9455 82.7434 14.3587C83.1512 14.773 83.1452 15.4393 82.7303 15.8459L74.6827 23.7378C74.2696 24.1438 73.6051 24.1378 73.1985 23.7247Z" fill="#F39770"/>
<path d="M83.128 48.3018C83.1327 47.7211 83.6076 47.2539 84.189 47.2598L95.46 47.3698C96.0396 47.3751 96.505 47.8495 96.5002 48.429C96.4955 49.0097 96.0205 49.4769 95.4392 49.471L84.1682 49.361C83.5886 49.3551 83.1232 48.8814 83.128 48.3018Z" fill="#F39770"/>
<path d="M72.7747 72.6985C73.189 72.2907 73.8553 72.2967 74.2619 72.7116L82.1537 80.7592C82.5597 81.1729 82.5538 81.8375 82.1407 82.2434C81.7264 82.6512 81.0601 82.6453 80.6535 82.2304L72.7616 74.1827C72.3556 73.769 72.3616 73.1051 72.7747 72.6985Z" fill="#F39770"/>
</svg>
