<svg width="24" height="24" viewBox="0 0 24 24" fill="none" xmlns="http://www.w3.org/2000/svg">
<g clip-path="url(#clip0_3279_8294)">
<path d="M4.00186 1.10449C4.98343 1.12635 6.19455 1.43786 7.59366 2.07031C10.2166 3.2561 13.1647 5.39893 15.8827 8.11719C18.601 10.8354 20.744 13.7833 21.9296 16.4062C22.5621 17.8055 22.8735 19.0173 22.8954 19.999C22.9171 20.9749 22.6543 21.6914 22.1728 22.1729C21.7091 22.6365 21.0289 22.8964 20.1093 22.8965C19.1092 22.8965 17.8593 22.5866 16.4062 21.9297C13.7831 20.7439 10.8352 18.6011 8.1171 15.8828C5.39877 13.1646 3.25578 10.2167 2.07022 7.59375C1.43781 6.19474 1.12633 4.98355 1.1044 4.00195C1.08266 3.02612 1.34575 2.30967 1.82706 1.82812C2.30871 1.34657 3.02574 1.08281 4.00186 1.10449ZM3.871 1.3125C3.1209 1.31253 2.43924 1.49849 1.96866 1.96875C1.41742 2.52011 1.25487 3.36051 1.32901 4.27832C1.4042 5.20908 1.72855 6.31498 2.27237 7.52246C3.36201 9.94176 5.37395 12.8563 8.2587 15.7412C11.1433 18.6258 14.0573 20.6379 16.4765 21.7275C17.684 22.2714 18.7907 22.5957 19.7216 22.6709C20.582 22.7404 21.3736 22.6014 21.9237 22.1299L22.0312 22.0312C22.5824 21.4799 22.7449 20.6395 22.6708 19.7217C22.5956 18.791 22.2722 17.6849 21.7284 16.4775C20.7069 14.2094 18.8744 11.5059 16.2724 8.7998L15.7411 8.25879C13.4694 5.98715 11.1813 4.25853 9.13272 3.09473C7.0987 1.93923 5.25091 1.3125 3.871 1.3125Z" fill="#150A02" stroke="#150A02"/>
<path d="M3.89111 23.3968C2.87556 23.3968 2.05478 23.107 1.474 22.5262C0.266498 21.3188 0.316654 19.0723 1.61486 16.2005C2.83173 13.5083 5.0154 10.5121 7.76369 7.76395C10.5117 5.01567 13.508 2.832 16.2002 1.61489C19.0716 0.316804 21.3183 0.266531 22.526 1.47415C23.7335 2.68153 23.6834 4.92802 22.3852 7.79981C21.1683 10.4921 18.9846 13.4882 16.2363 16.2364C13.4883 18.9847 10.492 21.1683 7.79978 22.3854C6.30939 23.0592 4.98704 23.3968 3.89111 23.3968ZM2.32244 21.6777C3.92533 23.2797 9.68486 21.0909 15.3879 15.3879C21.0907 9.68489 23.2798 3.92512 21.6776 2.32259C20.0752 0.71993 14.3154 2.90958 8.61212 8.61239C2.90954 14.3151 0.720717 20.0749 2.32244 21.6777Z" fill="#150A02"/>
<path d="M11.9999 15.0668C10.3089 15.0668 8.93335 13.6912 8.93335 12.0003C8.93335 10.3093 10.3089 8.93359 11.9999 8.93359C13.6909 8.93359 15.0665 10.3093 15.0665 12.0003C15.0665 13.6912 13.6909 15.0668 11.9999 15.0668ZM11.9999 10.1336C10.9708 10.1336 10.1333 10.971 10.1333 12.0003C10.1333 13.0295 10.9708 13.8668 11.9999 13.8668C13.0291 13.8668 13.8665 13.0295 13.8665 12.0003C13.8665 10.971 13.0291 10.1336 11.9999 10.1336Z" fill="#150A02"/>
</g>
<defs>
<clipPath id="clip0_3279_8294">
<rect width="24" height="24" fill="white"/>
</clipPath>
</defs>
</svg>
