<svg width="32" height="32" viewBox="0 0 32 32" fill="none" xmlns="http://www.w3.org/2000/svg">
<path d="M16 17.4081C15.872 17.4081 15.808 17.4081 15.68 17.3441C6.07997 12.2881 6.65597 6.52807 7.10397 4.86407C7.67997 2.43207 9.66397 0.768066 11.776 0.768066C12.736 0.768066 14.464 1.15207 15.936 3.26407C17.408 1.08807 19.136 0.768066 20.096 0.768066C22.272 0.768066 24.192 2.43207 24.832 4.86407C25.216 6.52807 25.856 12.2881 16.256 17.3441C16.192 17.4081 16.128 17.4081 16 17.4081ZM11.84 1.98407C10.24 1.98407 8.83197 3.26407 8.38397 5.12007C7.67997 8.00007 9.34397 12.4161 16 16.0001C22.72 12.3521 24.384 8.00007 23.616 5.12007C23.168 3.26407 21.76 1.98407 20.16 1.98407C18.752 1.98407 17.472 2.94407 16.512 4.73607C16.448 4.99207 16.256 5.12007 16 5.12007C15.744 5.12007 15.552 4.99207 15.424 4.80007C14.464 3.00807 13.184 1.98407 11.84 1.98407Z" fill="#5E9B87"/>
<path d="M23.68 23.6797C23.488 23.6797 23.296 23.6157 23.168 23.4237C22.976 23.1677 23.04 22.7197 23.296 22.5277L26.432 20.1597L26.56 20.0317C26.88 19.7117 26.944 19.1357 26.688 18.7517C26.368 18.3677 25.856 18.3037 25.472 18.5597C25.152 18.7517 24.768 18.6877 24.576 18.3677C24.384 18.0477 24.448 17.6637 24.768 17.4717C25.728 16.8317 27.008 17.0877 27.712 17.9837C28.352 18.9437 28.288 20.1597 27.456 20.9277L27.328 21.1197L27.264 21.1837L24.064 23.5517C23.936 23.6157 23.808 23.6797 23.68 23.6797Z" fill="#5E9B87"/>
<path d="M22.7199 31.2321C22.6559 31.2321 22.5919 31.2321 22.5279 31.1681C22.2079 31.0401 22.0159 30.7201 22.1439 30.3361L22.4639 29.3761C22.8479 28.1601 23.4879 27.1361 24.3839 26.4321L27.5199 23.8081C28.2879 23.2321 28.7999 22.4001 28.7999 21.5041L29.5039 8.0001C29.5679 7.6161 29.3759 7.3601 29.2479 7.2321C29.1199 7.1041 28.8639 6.9761 28.6719 6.9761C28.0959 6.9121 27.6479 7.3601 27.5839 7.8721V7.9361L25.7279 18.0481C25.6639 18.2401 25.5359 18.4321 25.4079 18.4961L25.3439 18.5601L19.6479 22.9761C19.0719 23.4241 18.6239 24.0641 18.5599 24.7681L18.0479 28.1601C17.9839 28.4801 17.6639 28.7361 17.3439 28.6721C17.0239 28.6081 16.7679 28.2881 16.8319 27.9681L17.3439 24.5761C17.4719 23.5521 18.1119 22.5921 18.9439 21.9521L24.6399 17.5361L26.4319 7.7441C26.5599 6.5281 27.6479 5.6321 28.8639 5.6961C29.3119 5.6961 29.8879 5.9521 30.2719 6.3361C30.7839 6.8481 30.9759 7.4881 30.9119 8.1281L30.2079 21.5681C30.1439 22.8481 29.4399 24.0641 28.4159 24.8321L25.3439 27.4561C24.6399 28.0321 24.1279 28.8641 23.8079 29.8241L23.4879 30.7841C23.2319 31.0401 22.9759 31.2321 22.7199 31.2321Z" fill="#5E9B87"/>
<path d="M8.31999 23.6795C8.19199 23.6795 8.06399 23.6155 7.93599 23.5515L4.73599 21.1835L4.67199 21.1195L4.47999 20.9275C3.71199 20.1595 3.58399 18.8795 4.22399 17.9835C4.99199 17.0235 6.27199 16.8315 7.23199 17.4075C7.55199 17.5995 7.61599 17.9835 7.42399 18.3035C7.23199 18.6235 6.84799 18.6875 6.52799 18.4955C6.14399 18.2395 5.56799 18.3675 5.24799 18.7515C4.99199 19.1355 5.05599 19.6475 5.37599 20.0315L5.50399 20.1595L8.63999 22.5275C8.89599 22.7195 8.95999 23.1675 8.76799 23.4235C8.70399 23.6155 8.51199 23.6795 8.31999 23.6795Z" fill="#5E9B87"/>
<path d="M9.28001 31.2321C9.02402 31.2321 8.76802 31.0401 8.70402 30.7841L8.38402 29.8241C8.06402 28.8641 7.55201 28.0321 6.84801 27.3921L3.71201 24.7681C2.68801 24.0641 2.04801 22.8481 1.92001 21.5681L1.15201 8.1281C1.08801 7.4881 1.28001 6.8481 1.79201 6.3361C2.17601 5.9521 2.75201 5.6961 3.26401 5.6961C4.41601 5.6321 5.50401 6.5281 5.63202 7.7441L7.42402 17.5361L13.184 21.8881C14.016 22.5281 14.592 23.4881 14.784 24.4481L15.296 27.8401C15.36 28.1601 15.104 28.5441 14.784 28.5441C14.464 28.6081 14.08 28.3521 14.08 28.0321L13.568 24.6401C13.44 24.0001 13.056 23.2961 12.48 22.9121L6.72002 18.5601C6.65601 18.5601 6.65602 18.4961 6.59202 18.4961C6.40002 18.4321 6.27202 18.2401 6.27202 18.0481L4.35202 8.0001V7.9361C4.28801 7.4241 3.84001 6.9761 3.32801 7.0401C3.07201 7.0401 2.88001 7.1681 2.68801 7.2961C2.56001 7.4241 2.36801 7.6801 2.43201 8.0641L3.20001 21.5041C3.26401 22.4001 3.71201 23.2321 4.48001 23.7441L7.68002 26.3681C8.57601 27.1361 9.21601 28.1601 9.60002 29.3761L9.92002 30.3361C10.048 30.6561 9.85602 31.0401 9.53601 31.1681C9.40802 31.2321 9.34402 31.2321 9.28001 31.2321Z" fill="#5E9B87"/>
</svg>
