<svg width="20" height="20" viewBox="0 0 20 20" fill="none" xmlns="http://www.w3.org/2000/svg">
<path d="M9.99993 3.70648e-05C8.02211 2.68046e-05 6.08871 0.586511 4.4442 1.68532C2.7997 2.78414 1.51797 4.34593 0.76109 6.1732C0.0042094 8.00046 -0.193824 10.0111 0.192032 11.951C0.577889 13.8908 1.53031 15.6726 2.92884 17.0711C4.80421 18.9465 7.34776 20.0001 9.99993 20.0001C12.6521 20.0001 15.1957 18.9465 17.071 17.0711C18.9464 15.1958 20 12.6522 20 10C20 7.34786 18.9464 4.80431 17.071 2.92894C16.1446 1.99745 15.0426 1.25896 13.8289 0.756213C12.6151 0.253466 11.3137 -0.00355144 9.99993 3.70648e-05ZM19.0458 9.53129H15.6537C15.5899 7.13148 15.037 4.88531 14.0805 3.16312C13.6738 2.43074 13.2113 1.82426 12.7082 1.35351C14.474 1.90501 16.0283 2.98465 17.1615 4.4469C18.2948 5.90915 18.9524 7.68368 19.0458 9.53129ZM6.73896 3.61828C7.5122 2.22597 8.48294 1.37523 9.5131 1.17051V9.53129H5.28005C5.34165 7.37894 5.82783 5.25875 6.73896 3.61828ZM9.5131 10.4688V18.8296C8.48294 18.6248 7.5122 17.7741 6.73896 16.3818C5.82783 14.7412 5.34165 12.6213 5.28005 10.4688H9.5131ZM10.4506 18.8371V10.4688H14.7198C14.6582 12.6211 14.172 14.7413 13.2609 16.3818C12.4786 17.7904 11.4942 18.6453 10.4506 18.8371ZM10.4506 9.53129V1.16301C11.4942 1.3548 12.4786 2.20965 13.2609 3.61828C14.172 5.2589 14.6582 7.37879 14.7198 9.53129H10.4506ZM3.59177 3.59187C4.62501 2.55638 5.89492 1.78814 7.29169 1.35359C6.78857 1.82429 6.32611 2.43078 5.91935 3.1632C4.96286 4.88531 4.41009 7.13148 4.34618 9.53129H0.954036C1.06537 7.29266 2.00561 5.17552 3.59177 3.59187ZM0.954036 10.4688H4.34618C4.41001 12.8686 4.96286 15.1148 5.91935 16.8369C6.32603 17.5692 6.78841 18.1756 7.29138 18.6463C5.52559 18.0948 3.97134 17.0152 2.83817 15.553C1.705 14.0908 1.0474 12.3163 0.954036 10.4688ZM16.4081 16.4082C15.3748 17.4439 14.1048 18.2122 12.7079 18.6468C13.2111 18.1761 13.6737 17.5695 14.0805 16.8369C15.037 15.1148 15.5898 12.8686 15.6537 10.4688H19.0458C18.9345 12.7074 17.9943 14.8246 16.4081 16.4082Z" fill="#150A02"/>
</svg>
