<svg width="72" height="47" viewBox="0 0 72 47" fill="none" xmlns="http://www.w3.org/2000/svg">
<path d="M72 30.5372C72 39.3441 64.8691 46.4858 56.0621 46.4858H15.9379C7.13094 46.4858 0 39.3441 0 30.5372C0 21.7302 7.13094 14.5885 15.9379 14.5885C16.2117 14.5885 16.4856 14.5993 16.7595 14.6105C19.2133 6.30762 26.9028 0.25 35.9944 0.25C45.0972 0.25 52.7759 6.30762 55.2405 14.6105C55.5144 14.5997 55.7883 14.5885 56.0621 14.5885C64.8691 14.588 72 21.7302 72 30.5372Z" fill="#B8D6E1"/>
<path d="M71.999 30.5393C71.999 39.3457 64.8686 46.4861 56.0621 46.4861H15.9374C12.7681 46.4861 9.81261 45.5616 7.33057 43.9603C9.82576 44.4376 12.4159 44.6884 15.067 44.6884C36.008 44.6884 52.9877 29.1071 52.9877 9.88624C52.9877 9.80497 52.9877 9.72042 52.9844 9.63916C53.9493 11.1695 54.7144 12.8389 55.2391 14.6126C55.5134 14.599 55.7878 14.5892 56.0621 14.5892C64.8686 14.5887 71.999 21.7328 71.999 30.5393Z" fill="#9DB8C9"/>
</svg>
