<svg width="241" height="82" viewBox="0 0 241 82" fill="none" xmlns="http://www.w3.org/2000/svg">
<g filter="url(#filter0_d_361_18387)">
<rect x="17" y="17" width="207" height="48" rx="24" fill="white" fill-opacity="0.56" shape-rendering="crispEdges"/>
<path d="M49.3877 34.0923C51.0774 34.0923 52.453 35.4677 52.4531 37.1567C52.4531 37.8314 52.2253 38.4525 51.8467 38.9653L51.3535 39.6353L52.1758 39.7573C53.2034 39.9103 54.0834 40.6168 54.4424 41.5972L54.5068 41.7964L54.957 43.3813C55.0419 43.6807 55.0021 43.9894 54.8477 44.2515L54.7744 44.3608C54.5596 44.6446 54.2367 44.8052 53.8818 44.8052H51.1191L51.2998 45.4419L51.5391 46.2837C51.6499 46.6731 51.5743 47.0779 51.3301 47.4009L51.3291 47.4019C51.0855 47.7247 50.7165 47.9086 50.3115 47.9087H39.6895C39.2844 47.9086 38.9155 47.7247 38.6719 47.4019L38.6709 47.4009C38.4266 47.0779 38.3511 46.6731 38.4619 46.2837L38.7012 45.4419L38.8818 44.8052H36.1191C35.8085 44.8052 35.5221 44.6824 35.3115 44.4614L35.2266 44.3608C35.013 44.0778 34.9469 43.7235 35.0439 43.3813L35.4941 41.7964C35.8013 40.7137 36.7292 39.9204 37.8252 39.7573L38.6475 39.6353L38.1543 38.9653C37.7757 38.4525 37.5479 37.8314 37.5479 37.1567C37.548 35.4676 38.9236 34.0923 40.6133 34.0923C41.6478 34.0923 42.5632 34.6109 43.1201 35.4048L43.3447 35.7261L43.7109 35.5835C44.1136 35.427 44.547 35.3394 45 35.3394C45.4532 35.3394 45.8873 35.4269 46.29 35.5835L46.6562 35.7261L46.8809 35.4048C47.4378 34.6109 48.3532 34.0923 49.3877 34.0923ZM42.1963 42.4927C41.0157 42.4927 39.96 43.2342 39.5488 44.3247L39.4756 44.5474L38.9424 46.4204V46.4224C38.8518 46.7451 38.9891 46.9911 39.0693 47.0981C39.152 47.2084 39.3534 47.4086 39.6895 47.4087H50.3115C50.6475 47.4086 50.8489 47.2084 50.9316 47.0981C51.0119 46.9911 51.1491 46.745 51.0586 46.4224L51.0576 46.4204L50.5254 44.5474C50.1808 43.3365 49.064 42.4927 47.8047 42.4927H42.1963ZM38.2393 40.2222C37.1911 40.2223 36.2614 40.9243 35.9746 41.9321V41.9331L35.5254 43.5171C35.4776 43.6831 35.5003 43.8543 35.585 43.9985L35.625 44.0591L35.6299 44.0649C35.746 44.2144 35.9215 44.3052 36.1191 44.3052H39.0176L39.1484 44.0044C39.6312 42.8923 40.6954 42.1248 41.9111 42.0181L42.8633 41.9341L42.251 41.1997C42.0758 40.9893 41.9252 40.7538 41.7988 40.4995L41.6611 40.2222H38.2393ZM48.2021 40.4995C48.0757 40.7539 47.9243 40.9892 47.749 41.1997L47.1377 41.9341L48.0898 42.0181C49.3056 42.1248 50.3698 42.8923 50.8525 44.0044L50.9834 44.3052H53.8818C54.0795 44.3052 54.255 44.2145 54.3711 44.0649L54.376 44.0591C54.4928 43.9039 54.5302 43.707 54.4756 43.5171L54.0254 41.9331C53.7388 40.9248 52.81 40.2223 51.7617 40.2222H48.3398L48.2021 40.4995ZM45 35.8394C43.3032 35.8396 41.9238 37.2186 41.9238 38.9155C41.9238 40.6124 43.3032 41.9924 45 41.9927C46.697 41.9927 48.0771 40.6126 48.0771 38.9155C48.0771 37.2185 46.697 35.8394 45 35.8394ZM40.6133 34.5923C39.1985 34.5923 38.048 35.742 38.0479 37.1567C38.0479 38.5715 39.1983 39.7222 40.6133 39.7222C40.7683 39.7222 40.9107 39.7 41.0166 39.6831L41.4668 39.6108L41.4365 39.1558C41.4296 39.0521 41.4238 38.9861 41.4238 38.9155C41.4238 37.8754 41.873 36.9391 42.5889 36.2827L42.9258 35.9741L42.6494 35.6118C42.1844 35.0007 41.4506 34.5923 40.6133 34.5923ZM49.3877 34.5923C48.5503 34.5923 47.8166 35.0007 47.3516 35.6118L47.0752 35.9741L47.4121 36.2827C48.128 36.9391 48.5771 37.8754 48.5771 38.9155C48.5771 38.9861 48.5714 39.0521 48.5645 39.1558L48.5342 39.6108L48.9844 39.6831C49.0903 39.7 49.2327 39.7222 49.3877 39.7222C50.8027 39.7221 51.9531 38.5715 51.9531 37.1567C51.953 35.742 50.8025 34.5923 49.3877 34.5923Z" fill="white" stroke="#150A02"/>
<path d="M70.9664 47.108C70.0304 47.108 69.1304 46.958 68.2664 46.658C67.4144 46.358 66.7544 45.962 66.2864 45.47L66.8084 44.444C67.2644 44.9 67.8704 45.272 68.6264 45.56C69.3824 45.836 70.1624 45.974 70.9664 45.974C72.0944 45.974 72.9404 45.77 73.5044 45.362C74.0684 44.942 74.3504 44.402 74.3504 43.742C74.3504 43.238 74.1944 42.836 73.8824 42.536C73.5824 42.236 73.2104 42.008 72.7664 41.852C72.3224 41.684 71.7044 41.504 70.9124 41.312C69.9644 41.072 69.2084 40.844 68.6444 40.628C68.0804 40.4 67.5944 40.058 67.1864 39.602C66.7904 39.146 66.5924 38.528 66.5924 37.748C66.5924 37.112 66.7604 36.536 67.0964 36.02C67.4324 35.492 67.9484 35.072 68.6444 34.76C69.3404 34.448 70.2044 34.292 71.2364 34.292C71.9564 34.292 72.6584 34.394 73.3424 34.598C74.0384 34.79 74.6384 35.06 75.1424 35.408L74.6924 36.47C74.1644 36.122 73.6004 35.864 73.0004 35.696C72.4004 35.516 71.8124 35.426 71.2364 35.426C70.1324 35.426 69.2984 35.642 68.7344 36.074C68.1824 36.494 67.9064 37.04 67.9064 37.712C67.9064 38.216 68.0564 38.624 68.3564 38.936C68.6684 39.236 69.0524 39.47 69.5084 39.638C69.9764 39.794 70.6004 39.968 71.3804 40.16C72.3044 40.388 73.0484 40.616 73.6124 40.844C74.1884 41.06 74.6744 41.396 75.0704 41.852C75.4664 42.296 75.6644 42.902 75.6644 43.67C75.6644 44.306 75.4904 44.888 75.1424 45.416C74.8064 45.932 74.2844 46.346 73.5764 46.658C72.8684 46.958 71.9984 47.108 70.9664 47.108ZM86.8286 37.532V47H85.6046V45.272C85.2686 45.848 84.8066 46.298 84.2186 46.622C83.6306 46.934 82.9586 47.09 82.2026 47.09C80.9666 47.09 79.9886 46.748 79.2686 46.064C78.5606 45.368 78.2066 44.354 78.2066 43.022V37.532H79.4846V42.896C79.4846 43.892 79.7306 44.648 80.2226 45.164C80.7146 45.68 81.4166 45.938 82.3286 45.938C83.3246 45.938 84.1106 45.638 84.6866 45.038C85.2626 44.426 85.5506 43.58 85.5506 42.5V37.532H86.8286ZM95.286 37.46C96.174 37.46 96.978 37.664 97.698 38.072C98.418 38.468 98.982 39.032 99.39 39.764C99.798 40.496 100.002 41.33 100.002 42.266C100.002 43.214 99.798 44.054 99.39 44.786C98.982 45.518 98.418 46.088 97.698 46.496C96.99 46.892 96.186 47.09 95.286 47.09C94.518 47.09 93.822 46.934 93.198 46.622C92.586 46.298 92.082 45.83 91.686 45.218V50.492H90.408V37.532H91.632V39.404C92.016 38.78 92.52 38.3 93.144 37.964C93.78 37.628 94.494 37.46 95.286 37.46ZM95.196 45.956C95.856 45.956 96.456 45.806 96.996 45.506C97.536 45.194 97.956 44.756 98.256 44.192C98.568 43.628 98.724 42.986 98.724 42.266C98.724 41.546 98.568 40.91 98.256 40.358C97.956 39.794 97.536 39.356 96.996 39.044C96.456 38.732 95.856 38.576 95.196 38.576C94.524 38.576 93.918 38.732 93.378 39.044C92.85 39.356 92.43 39.794 92.118 40.358C91.818 40.91 91.668 41.546 91.668 42.266C91.668 42.986 91.818 43.628 92.118 44.192C92.43 44.756 92.85 45.194 93.378 45.506C93.918 45.806 94.524 45.956 95.196 45.956ZM107.485 37.46C108.373 37.46 109.177 37.664 109.897 38.072C110.617 38.468 111.181 39.032 111.589 39.764C111.997 40.496 112.201 41.33 112.201 42.266C112.201 43.214 111.997 44.054 111.589 44.786C111.181 45.518 110.617 46.088 109.897 46.496C109.189 46.892 108.385 47.09 107.485 47.09C106.717 47.09 106.021 46.934 105.397 46.622C104.785 46.298 104.281 45.83 103.885 45.218V50.492H102.607V37.532H103.831V39.404C104.215 38.78 104.719 38.3 105.343 37.964C105.979 37.628 106.693 37.46 107.485 37.46ZM107.395 45.956C108.055 45.956 108.655 45.806 109.195 45.506C109.735 45.194 110.155 44.756 110.455 44.192C110.767 43.628 110.923 42.986 110.923 42.266C110.923 41.546 110.767 40.91 110.455 40.358C110.155 39.794 109.735 39.356 109.195 39.044C108.655 38.732 108.055 38.576 107.395 38.576C106.723 38.576 106.117 38.732 105.577 39.044C105.049 39.356 104.629 39.794 104.317 40.358C104.017 40.91 103.867 41.546 103.867 42.266C103.867 42.986 104.017 43.628 104.317 44.192C104.629 44.756 105.049 45.194 105.577 45.506C106.117 45.806 106.723 45.956 107.395 45.956ZM118.676 47.09C117.764 47.09 116.942 46.886 116.21 46.478C115.478 46.058 114.902 45.482 114.482 44.75C114.062 44.018 113.852 43.19 113.852 42.266C113.852 41.342 114.062 40.514 114.482 39.782C114.902 39.05 115.478 38.48 116.21 38.072C116.942 37.664 117.764 37.46 118.676 37.46C119.588 37.46 120.41 37.664 121.142 38.072C121.874 38.48 122.444 39.05 122.852 39.782C123.272 40.514 123.482 41.342 123.482 42.266C123.482 43.19 123.272 44.018 122.852 44.75C122.444 45.482 121.874 46.058 121.142 46.478C120.41 46.886 119.588 47.09 118.676 47.09ZM118.676 45.956C119.348 45.956 119.948 45.806 120.476 45.506C121.016 45.194 121.436 44.756 121.736 44.192C122.036 43.628 122.186 42.986 122.186 42.266C122.186 41.546 122.036 40.904 121.736 40.34C121.436 39.776 121.016 39.344 120.476 39.044C119.948 38.732 119.348 38.576 118.676 38.576C118.004 38.576 117.398 38.732 116.858 39.044C116.33 39.344 115.91 39.776 115.598 40.34C115.298 40.904 115.148 41.546 115.148 42.266C115.148 42.986 115.298 43.628 115.598 44.192C115.91 44.756 116.33 45.194 116.858 45.506C117.398 45.806 118.004 45.956 118.676 45.956ZM127.316 39.386C127.616 38.75 128.06 38.27 128.648 37.946C129.248 37.622 129.986 37.46 130.862 37.46V38.702L130.556 38.684C129.56 38.684 128.78 38.99 128.216 39.602C127.652 40.214 127.37 41.072 127.37 42.176V47H126.092V37.532H127.316V39.386ZM138.566 46.424C138.326 46.64 138.026 46.808 137.666 46.928C137.318 47.036 136.952 47.09 136.568 47.09C135.68 47.09 134.996 46.85 134.516 46.37C134.036 45.89 133.796 45.212 133.796 44.336V38.612H132.104V37.532H133.796V35.462H135.074V37.532H137.954V38.612H135.074V44.264C135.074 44.828 135.212 45.26 135.488 45.56C135.776 45.848 136.184 45.992 136.712 45.992C136.976 45.992 137.228 45.95 137.468 45.866C137.72 45.782 137.936 45.662 138.116 45.506L138.566 46.424ZM154.369 37.532V45.848C154.369 47.456 153.973 48.644 153.181 49.412C152.401 50.192 151.219 50.582 149.635 50.582C148.759 50.582 147.925 50.45 147.133 50.186C146.353 49.934 145.717 49.58 145.225 49.124L145.873 48.152C146.329 48.56 146.881 48.878 147.529 49.106C148.189 49.334 148.879 49.448 149.599 49.448C150.799 49.448 151.681 49.166 152.245 48.602C152.809 48.05 153.091 47.186 153.091 46.01V44.804C152.695 45.404 152.173 45.86 151.525 46.172C150.889 46.484 150.181 46.64 149.401 46.64C148.513 46.64 147.703 46.448 146.971 46.064C146.251 45.668 145.681 45.122 145.261 44.426C144.853 43.718 144.649 42.92 144.649 42.032C144.649 41.144 144.853 40.352 145.261 39.656C145.681 38.96 146.251 38.42 146.971 38.036C147.691 37.652 148.501 37.46 149.401 37.46C150.205 37.46 150.931 37.622 151.579 37.946C152.227 38.27 152.749 38.738 153.145 39.35V37.532H154.369ZM149.527 45.506C150.211 45.506 150.829 45.362 151.381 45.074C151.933 44.774 152.359 44.36 152.659 43.832C152.971 43.304 153.127 42.704 153.127 42.032C153.127 41.36 152.971 40.766 152.659 40.25C152.359 39.722 151.933 39.314 151.381 39.026C150.841 38.726 150.223 38.576 149.527 38.576C148.843 38.576 148.225 38.72 147.673 39.008C147.133 39.296 146.707 39.704 146.395 40.232C146.095 40.76 145.945 41.36 145.945 42.032C145.945 42.704 146.095 43.304 146.395 43.832C146.707 44.36 147.133 44.774 147.673 45.074C148.225 45.362 148.843 45.506 149.527 45.506ZM159.167 39.386C159.467 38.75 159.911 38.27 160.499 37.946C161.099 37.622 161.837 37.46 162.713 37.46V38.702L162.407 38.684C161.411 38.684 160.631 38.99 160.067 39.602C159.503 40.214 159.221 41.072 159.221 42.176V47H157.943V37.532H159.167V39.386ZM168.809 47.09C167.897 47.09 167.075 46.886 166.343 46.478C165.611 46.058 165.035 45.482 164.615 44.75C164.195 44.018 163.985 43.19 163.985 42.266C163.985 41.342 164.195 40.514 164.615 39.782C165.035 39.05 165.611 38.48 166.343 38.072C167.075 37.664 167.897 37.46 168.809 37.46C169.721 37.46 170.543 37.664 171.275 38.072C172.007 38.48 172.577 39.05 172.985 39.782C173.405 40.514 173.615 41.342 173.615 42.266C173.615 43.19 173.405 44.018 172.985 44.75C172.577 45.482 172.007 46.058 171.275 46.478C170.543 46.886 169.721 47.09 168.809 47.09ZM168.809 45.956C169.481 45.956 170.081 45.806 170.609 45.506C171.149 45.194 171.569 44.756 171.869 44.192C172.169 43.628 172.319 42.986 172.319 42.266C172.319 41.546 172.169 40.904 171.869 40.34C171.569 39.776 171.149 39.344 170.609 39.044C170.081 38.732 169.481 38.576 168.809 38.576C168.137 38.576 167.531 38.732 166.991 39.044C166.463 39.344 166.043 39.776 165.731 40.34C165.431 40.904 165.281 41.546 165.281 42.266C165.281 42.986 165.431 43.628 165.731 44.192C166.043 44.756 166.463 45.194 166.991 45.506C167.531 45.806 168.137 45.956 168.809 45.956ZM184.756 37.532V47H183.532V45.272C183.196 45.848 182.734 46.298 182.146 46.622C181.558 46.934 180.886 47.09 180.13 47.09C178.894 47.09 177.916 46.748 177.196 46.064C176.488 45.368 176.134 44.354 176.134 43.022V37.532H177.412V42.896C177.412 43.892 177.658 44.648 178.15 45.164C178.642 45.68 179.344 45.938 180.256 45.938C181.252 45.938 182.038 45.638 182.614 45.038C183.19 44.426 183.478 43.58 183.478 42.5V37.532H184.756ZM193.214 37.46C194.102 37.46 194.906 37.664 195.626 38.072C196.346 38.468 196.91 39.032 197.318 39.764C197.726 40.496 197.93 41.33 197.93 42.266C197.93 43.214 197.726 44.054 197.318 44.786C196.91 45.518 196.346 46.088 195.626 46.496C194.918 46.892 194.114 47.09 193.214 47.09C192.446 47.09 191.75 46.934 191.126 46.622C190.514 46.298 190.01 45.83 189.614 45.218V50.492H188.336V37.532H189.56V39.404C189.944 38.78 190.448 38.3 191.072 37.964C191.708 37.628 192.422 37.46 193.214 37.46ZM193.124 45.956C193.784 45.956 194.384 45.806 194.924 45.506C195.464 45.194 195.884 44.756 196.184 44.192C196.496 43.628 196.652 42.986 196.652 42.266C196.652 41.546 196.496 40.91 196.184 40.358C195.884 39.794 195.464 39.356 194.924 39.044C194.384 38.732 193.784 38.576 193.124 38.576C192.452 38.576 191.846 38.732 191.306 39.044C190.778 39.356 190.358 39.794 190.046 40.358C189.746 40.91 189.596 41.546 189.596 42.266C189.596 42.986 189.746 43.628 190.046 44.192C190.358 44.756 190.778 45.194 191.306 45.506C191.846 45.806 192.452 45.956 193.124 45.956ZM203.073 47.09C202.305 47.09 201.567 46.982 200.859 46.766C200.163 46.538 199.617 46.256 199.221 45.92L199.797 44.912C200.193 45.224 200.691 45.482 201.291 45.686C201.891 45.878 202.515 45.974 203.163 45.974C204.027 45.974 204.663 45.842 205.071 45.578C205.491 45.302 205.701 44.918 205.701 44.426C205.701 44.078 205.587 43.808 205.359 43.616C205.131 43.412 204.843 43.262 204.495 43.166C204.147 43.058 203.685 42.956 203.109 42.86C202.341 42.716 201.723 42.572 201.255 42.428C200.787 42.272 200.385 42.014 200.049 41.654C199.725 41.294 199.563 40.796 199.563 40.16C199.563 39.368 199.893 38.72 200.553 38.216C201.213 37.712 202.131 37.46 203.307 37.46C203.919 37.46 204.531 37.544 205.143 37.712C205.755 37.868 206.259 38.078 206.655 38.342L206.097 39.368C205.317 38.828 204.387 38.558 203.307 38.558C202.491 38.558 201.873 38.702 201.453 38.99C201.045 39.278 200.841 39.656 200.841 40.124C200.841 40.484 200.955 40.772 201.183 40.988C201.423 41.204 201.717 41.366 202.065 41.474C202.413 41.57 202.893 41.672 203.505 41.78C204.261 41.924 204.867 42.068 205.323 42.212C205.779 42.356 206.169 42.602 206.493 42.95C206.817 43.298 206.979 43.778 206.979 44.39C206.979 45.218 206.631 45.878 205.935 46.37C205.251 46.85 204.297 47.09 203.073 47.09Z" fill="#150A02"/>
</g>
<defs>
<filter id="filter0_d_361_18387" x="0" y="0" width="241" height="82" filterUnits="userSpaceOnUse" color-interpolation-filters="sRGB">
<feFlood flood-opacity="0" result="BackgroundImageFix"/>
<feColorMatrix in="SourceAlpha" type="matrix" values="0 0 0 0 0 0 0 0 0 0 0 0 0 0 0 0 0 0 127 0" result="hardAlpha"/>
<feMorphology radius="1" operator="dilate" in="SourceAlpha" result="effect1_dropShadow_361_18387"/>
<feOffset/>
<feGaussianBlur stdDeviation="8"/>
<feComposite in2="hardAlpha" operator="out"/>
<feColorMatrix type="matrix" values="0 0 0 0 0.0823529 0 0 0 0 0.0392157 0 0 0 0 0.00784314 0 0 0 0.08 0"/>
<feBlend mode="normal" in2="BackgroundImageFix" result="effect1_dropShadow_361_18387"/>
<feBlend mode="normal" in="SourceGraphic" in2="effect1_dropShadow_361_18387" result="shape"/>
</filter>
</defs>
</svg>
