<svg width="16" height="16" viewBox="0 0 16 16" fill="none" xmlns="http://www.w3.org/2000/svg">
<path fill-rule="evenodd" clip-rule="evenodd" d="M13.4497 5.58636C13.2167 4.36275 12.6269 3.19319 11.6814 2.24643C9.17103 -0.267038 5.10077 -0.267038 2.59047 2.24643C1.82469 3.01317 1.1484 4.14814 0.852634 5.40821C0.555075 6.67591 0.637573 8.09988 1.44127 9.39477C1.48242 9.46106 1.50787 9.50218 1.52585 9.53285C1.53414 9.54704 1.5385 9.55511 1.54034 9.55859C1.54202 9.56304 1.54305 9.56611 1.54366 9.56805C1.54365 9.57035 1.54356 9.57424 1.54317 9.58016C1.54267 9.58294 1.54152 9.58892 1.53919 9.59929C1.53324 9.62558 1.52419 9.66078 1.50808 9.72298L1.50341 9.74106C1.4111 10.0976 1.33524 10.3907 1.29064 10.6275C1.24575 10.8658 1.21978 11.1064 1.26753 11.3413C1.40368 12.0112 1.92669 12.5352 2.59658 12.6717C2.83158 12.7196 3.07215 12.6936 3.31027 12.6486C3.54682 12.604 3.83958 12.5279 4.19565 12.4355L4.21371 12.4309C4.27584 12.4147 4.311 12.4057 4.33728 12.3997C4.34751 12.3974 4.35348 12.3962 4.35624 12.3957C4.36168 12.3954 4.36541 12.3953 4.36774 12.3953C4.36966 12.3959 4.37256 12.3969 4.37661 12.3984C4.38013 12.4002 4.38829 12.4046 4.40257 12.4129C4.43354 12.431 4.47495 12.4566 4.54161 12.4979C4.97286 12.7646 5.4217 12.9512 5.87638 13.0693C6.04506 13.3043 6.23475 13.5285 6.44532 13.7393C7.06577 14.3605 8.0134 14.9243 9.06898 15.1772C10.1319 15.4318 11.3429 15.3784 12.4387 14.7004C12.4918 14.6675 12.5243 14.6475 12.5482 14.6334C12.5673 14.638 12.5936 14.6447 12.6371 14.6561L12.6547 14.6606C12.9456 14.7361 13.1893 14.7994 13.3872 14.8367C13.5866 14.8744 13.7991 14.8986 14.0104 14.8555C14.5984 14.7357 15.0573 14.2758 15.1768 13.688C15.2197 13.4767 15.1956 13.2643 15.158 13.0648C15.1207 12.8666 15.0576 12.6227 14.9821 12.3314L14.9776 12.3139C14.9662 12.2698 14.9594 12.2434 14.9548 12.2242C14.9688 12.2004 14.9888 12.1682 15.0217 12.1152C15.699 11.0238 15.7673 9.82503 15.5179 8.76256C15.2702 7.70767 14.7046 6.75784 14.0622 6.11468C13.8686 5.92089 13.6638 5.74475 13.4497 5.58636ZM10.943 2.98381C8.84032 0.878475 5.43147 0.878475 3.32879 2.98381C2.69576 3.61763 2.11855 4.58138 1.8685 5.64666C1.62024 6.7043 1.69962 7.83226 2.32785 8.84451C2.3338 8.85404 2.33983 8.86371 2.34591 8.87351C2.4058 8.96965 2.4703 9.07317 2.50771 9.16722C2.57405 9.33404 2.59702 9.48492 2.5833 9.66391C2.5756 9.76451 2.54857 9.86823 2.52482 9.95929C2.5226 9.96778 2.52041 9.97619 2.51826 9.98447C2.42013 10.3636 2.35341 10.6225 2.31609 10.8206C2.27832 11.0211 2.28339 11.1004 2.2901 11.1335C2.34298 11.3937 2.54592 11.5965 2.80493 11.6492C2.83752 11.6559 2.91645 11.6611 3.11667 11.6232C3.31446 11.5859 3.57297 11.5191 3.95159 11.4209C3.95988 11.4187 3.9683 11.4165 3.97682 11.4142C4.06769 11.3905 4.17128 11.3634 4.27159 11.3557C4.45041 11.3418 4.60039 11.3645 4.76709 11.4306C4.8609 11.4678 4.96479 11.5324 5.06141 11.5923C5.07124 11.5985 5.081 11.6045 5.09066 11.6105C5.10968 11.6222 5.12873 11.6338 5.14783 11.6452C4.51878 9.76694 4.95091 7.61098 6.44532 6.11468C7.99406 4.56397 10.2509 4.15533 12.1733 4.88805C11.9115 4.19388 11.5015 3.543 10.943 2.98381ZM12.68 6.31973C10.9916 5.1779 8.67809 5.35576 7.18364 6.85207C5.7015 8.33605 5.51414 10.6273 6.62363 12.3146C6.78317 12.5573 6.96977 12.7877 7.18364 13.0019C7.66808 13.487 8.44442 13.9546 9.31204 14.1624C10.1724 14.3685 11.0837 14.3117 11.8896 13.8131C11.8976 13.8081 11.9059 13.803 11.9143 13.7978C11.9918 13.7495 12.0851 13.6915 12.1706 13.6576C12.3209 13.598 12.4585 13.5772 12.6197 13.5897C12.7111 13.5967 12.8048 13.6213 12.878 13.6405C12.8853 13.6423 12.8924 13.6442 12.8992 13.646C13.2124 13.7273 13.4217 13.7813 13.5808 13.8113C13.7424 13.8419 13.7931 13.8348 13.8021 13.833C13.9791 13.797 14.118 13.6583 14.1542 13.4801C14.1561 13.4708 14.163 13.4197 14.1326 13.2579C14.1025 13.0985 14.0485 12.8888 13.9674 12.5754C13.9656 12.5685 13.9637 12.5614 13.9619 12.5541C13.9427 12.4807 13.9182 12.387 13.9111 12.2953C13.8988 12.134 13.9198 11.9956 13.9797 11.8452C14.0137 11.7594 14.0718 11.6665 14.1199 11.5893C14.1251 11.581 14.1302 11.5729 14.1351 11.5649C14.637 10.7562 14.7021 9.85341 14.502 9.00096C14.3001 8.14085 13.8335 7.36228 13.3239 6.85207C13.1225 6.65045 12.9068 6.47308 12.68 6.31973Z" fill="#5E9B87"/>
<path d="M8.86811 9.9271C8.86811 10.3113 8.55667 10.6227 8.17246 10.6227C7.78825 10.6227 7.47681 10.3113 7.47681 9.9271C7.47681 9.54289 7.78825 9.23145 8.17246 9.23145C8.55667 9.23145 8.86811 9.54289 8.86811 9.9271Z" fill="#5E9B87"/>
<path d="M10.955 9.9271C10.955 10.3113 10.6436 10.6227 10.2594 10.6227C9.87516 10.6227 9.56372 10.3113 9.56372 9.9271C9.56372 9.54289 9.87516 9.23145 10.2594 9.23145C10.6436 9.23145 10.955 9.54289 10.955 9.9271Z" fill="#5E9B87"/>
<path d="M13.0419 9.9271C13.0419 10.3113 12.7305 10.6227 12.3463 10.6227C11.9621 10.6227 11.6506 10.3113 11.6506 9.9271C11.6506 9.54289 11.9621 9.23145 12.3463 9.23145C12.7305 9.23145 13.0419 9.54289 13.0419 9.9271Z" fill="#5E9B87"/>
</svg>
