<svg width="96" height="96" viewBox="0 0 96 96" fill="none" xmlns="http://www.w3.org/2000/svg">
<path d="M47.6985 82.6309C48.2793 82.6357 48.7465 83.1106 48.7405 83.6919L48.6305 94.963C48.6246 95.5426 48.1509 96.008 47.5713 96.0032C46.9906 95.9985 46.5234 95.5236 46.5294 94.9422L46.6393 83.6711C46.6453 83.0916 47.119 82.6261 47.6985 82.6309Z" fill="#F39770"/>
<path d="M23.303 72.2708C23.7107 72.6851 23.7048 73.3514 23.2899 73.758L15.2423 81.6499C14.8286 82.0559 14.164 82.0499 13.7581 81.6368C13.3503 81.2225 13.3562 80.5562 13.7711 80.1496L21.8187 72.2577C22.2324 71.8517 22.8964 71.8577 23.303 72.2708Z" fill="#F39770"/>
<path d="M13.3723 47.6986C13.3676 48.2793 12.8926 48.7465 12.3113 48.7405L1.04024 48.6306C0.460698 48.6252 -0.00471889 48.1509 3.61128e-05 47.5714C0.00479111 46.9906 0.479721 46.5234 1.06105 46.5294L12.3321 46.6393C12.9111 46.6453 13.3771 47.119 13.3723 47.6986Z" fill="#F39770"/>
<path d="M23.7266 23.3001C23.3123 23.7079 22.646 23.7019 22.2394 23.287L14.3475 15.2394C13.9416 14.8256 13.9475 14.1611 14.3606 13.7551C14.7749 13.3474 15.4412 13.3533 15.8478 13.7682L23.7397 21.8159C24.1451 22.229 24.1391 22.8935 23.7266 23.3001Z" fill="#F39770"/>
<path d="M48.3008 13.3724C47.7201 13.3676 47.2529 12.8927 47.2588 12.3114L47.3688 1.04025C47.3742 0.460701 47.8485 -0.00471913 48.428 3.61163e-05C49.0088 0.00479136 49.4759 0.479719 49.47 1.06105L49.36 12.3322C49.3541 12.9111 48.8804 13.3765 48.3008 13.3724Z" fill="#F39770"/>
<path d="M72.6985 23.7247C72.2907 23.3104 72.2967 22.6441 72.7116 22.2375L80.7592 14.3456C81.1729 13.9396 81.8368 13.9455 82.2434 14.3587C82.6512 14.773 82.6452 15.4393 82.2303 15.8459L74.1827 23.7378C73.7696 24.1438 73.1051 24.1378 72.6985 23.7247Z" fill="#F39770"/>
<path d="M82.628 48.3018C82.6327 47.7211 83.1076 47.2539 83.689 47.2598L94.96 47.3698C95.5396 47.3751 96.005 47.8495 96.0002 48.429C95.9955 49.0097 95.5205 49.4769 94.9392 49.471L83.6682 49.361C83.0886 49.3551 82.6232 48.8814 82.628 48.3018Z" fill="#F39770"/>
<path d="M72.2747 72.6985C72.689 72.2907 73.3553 72.2967 73.7619 72.7116L81.6537 80.7592C82.0597 81.1729 82.0538 81.8375 81.6407 82.2434C81.2264 82.6512 80.5601 82.6453 80.1535 82.2304L72.2616 74.1827C71.8556 73.769 71.8616 73.1051 72.2747 72.6985Z" fill="#F39770"/>
<path d="M16 49C16 55.329 17.8768 61.5159 21.393 66.7782C24.9092 72.0406 29.9069 76.1421 35.7541 78.5641C41.6014 80.9861 48.0355 81.6199 54.2429 80.3851C60.4503 79.1504 66.1521 76.1027 70.6274 71.6274C75.1027 67.1521 78.1504 61.4503 79.3851 55.2429C80.6199 49.0355 79.9861 42.6014 77.5641 36.7541C75.1421 30.9069 71.0406 25.9092 65.7782 22.393C60.5159 18.8768 54.329 17 48 17V49H16Z" fill="#FFDDB6"/>
<path d="M80 49C80 44.7977 79.1723 40.6365 77.5641 36.7541C75.956 32.8717 73.5989 29.3441 70.6274 26.3726C67.6559 23.4011 64.1283 21.044 60.2459 19.4359C56.3634 17.8277 52.2023 17 48 17C43.7977 17 39.6365 17.8277 35.7541 19.4359C31.8717 21.044 28.3441 23.4011 25.3726 26.3726C22.4011 29.3441 20.044 32.8717 18.4359 36.7541C16.8277 40.6366 16 44.7977 16 49L48 49H80Z" fill="#F39770"/>
<path d="M74.9765 49.6367C75.1292 45.9446 74.5363 42.2597 73.2332 38.8018C71.93 35.344 69.9433 32.1843 67.3918 29.5114C64.8403 26.8385 61.7762 24.7073 58.3826 23.2449C54.9891 21.7826 51.3356 21.0192 47.6404 21.0004C43.9452 20.9815 40.2841 21.7075 36.8758 23.1351C33.4675 24.5627 30.3818 26.6626 27.8031 29.3093C25.2244 31.956 23.2056 35.0953 21.8672 38.5396C20.5288 41.9839 19.8983 45.6627 20.0133 49.3561L23.2143 49.2564C23.1127 45.9931 23.6697 42.7428 24.8523 39.6995C26.0348 36.6563 27.8185 33.8826 30.0969 31.5441C32.3753 29.2057 35.1016 27.3503 38.113 26.089C41.1245 24.8277 44.3592 24.1862 47.624 24.2028C50.8889 24.2195 54.1169 24.894 57.1153 26.186C60.1137 27.478 62.8209 29.3611 65.0753 31.7227C67.3297 34.0844 69.085 36.8761 70.2364 39.9312C71.3878 42.9864 71.9117 46.2422 71.7767 49.5043L74.9765 49.6367Z" fill="#FFDDB6"/>
</svg>
