<svg width="72" height="62" viewBox="0 0 72 62" fill="none" xmlns="http://www.w3.org/2000/svg">
<path d="M54.5819 46.9909H56.064C64.8712 46.9909 72 39.8497 72 31.0425C72 22.2352 64.8712 15.094 56.064 15.094C55.7822 15.094 55.5128 15.1065 55.2434 15.1184C52.7693 6.81366 45.1012 0.75 35.9878 0.75C33.4769 0.75 31.0882 1.21522 28.871 2.06066C23.0528 4.26544 18.5329 9.10393 16.7566 15.1184C16.4872 15.106 16.2054 15.094 15.936 15.094C11.2933 15.094 7.11683 17.0786 4.21373 20.2387C1.59244 23.0807 0 26.8779 0 31.0425C0 39.8497 7.12877 46.9909 15.936 46.9909H17.4181H54.5819Z" fill="#9DB8C9"/>
<path d="M72 31.0433C72 39.85 64.8697 46.9908 56.063 46.9908H15.938C12.7689 46.9908 9.81318 46.0663 7.33105 44.4649C9.8266 44.9425 12.4166 45.193 15.0677 45.193C36.0087 45.193 52.9889 29.6114 52.9889 10.3901C52.9889 10.3091 52.9889 10.2241 52.9854 10.1431C53.9506 11.6734 54.7156 13.3429 55.2404 15.1168C55.5148 15.1033 55.7891 15.0929 56.063 15.0929C64.8697 15.0929 72 22.2371 72 31.0433Z" fill="#849D94"/>
<path d="M20.6157 58.3735C20.1544 60.1156 18.4188 61.3696 16.4939 61.053C16.3761 61.0321 16.2563 61.0078 16.138 60.9764C13.4193 60.2563 12.4963 56.8601 14.4819 54.8636L18.9457 50.375L20.2136 55.045L20.6027 56.4849C20.7807 57.1399 20.7717 57.7851 20.6157 58.3735Z" fill="#8FC4EC"/>
<path d="M20.6157 58.3735C20.1544 60.1155 18.4189 61.3696 16.4939 61.053C17.9725 60.1186 19.1887 59.1141 19.6942 57.9078C20.0759 57.0907 20.2205 56.1195 20.2131 55.0444L20.6023 56.4843C20.7807 57.1399 20.7717 57.785 20.6157 58.3735Z" fill="#61ADDB"/>
<path d="M37.4681 58.3735C37.0068 60.1156 35.2713 61.3696 33.3458 61.053C33.228 61.0321 33.1082 61.0078 32.9899 60.9764C30.2712 60.2563 29.3482 56.8601 31.3338 54.8636L35.7981 50.375L37.066 55.045L37.4551 56.4849C37.6331 57.1399 37.6241 57.7851 37.4681 58.3735Z" fill="#8FC4EC"/>
<path d="M37.468 58.3735C37.0067 60.1155 35.2712 61.3696 33.3457 61.053C34.8243 60.1186 36.0406 59.1141 36.5465 57.9078C36.9282 57.0907 37.0728 56.1195 37.0654 55.0444L37.4546 56.4843C37.633 57.1399 37.624 57.785 37.468 58.3735Z" fill="#61ADDB"/>
<path d="M54.3205 58.3735C53.8593 60.1156 52.1237 61.3696 50.1982 61.053C50.0804 61.0321 49.9606 61.0078 49.8423 60.9764C47.1236 60.2563 46.2007 56.8601 48.1863 54.8636L52.6505 50.375L53.9184 55.045L54.3076 56.4849C54.4855 57.1399 54.4766 57.7851 54.3205 58.3735Z" fill="#8FC4EC"/>
<path d="M54.3205 58.3735C53.8593 60.1155 52.1237 61.3696 50.1982 61.053C51.6769 60.1186 52.8931 59.1141 53.3991 57.9078C53.7808 57.0907 53.9254 56.1195 53.918 55.0444L54.3071 56.4843C54.4855 57.1399 54.4766 57.785 54.3205 58.3735Z" fill="#61ADDB"/>
</svg>
