<svg width="24" height="24" viewBox="0 0 24 24" fill="none" xmlns="http://www.w3.org/2000/svg">
<g clip-path="url(#clip0_1251_39121)">
<mask id="mask0_1251_39121" style="mask-type:luminance" maskUnits="userSpaceOnUse" x="0" y="0" width="24" height="24">
<path d="M0 1.90735e-06H24V24H0V1.90735e-06Z" fill="white"/>
</mask>
<g mask="url(#mask0_1251_39121)">
<path d="M10.469 1.85371L9.47696 3.84979C9.23588 4.33485 8.7699 4.67108 8.23079 4.7489L6.01266 5.06896C4.65512 5.26485 4.11305 6.9216 5.09537 7.87246L6.70041 9.42618C7.09055 9.8038 7.26854 10.3478 7.17648 10.881L6.79754 13.0749C6.56565 14.4176 7.98479 15.4415 9.19899 14.8076L11.1829 13.7717C11.6651 13.52 12.2412 13.52 12.7233 13.7717L14.7073 14.8076C15.9215 15.4415 17.3406 14.4176 17.1087 13.0749L16.7298 10.881C16.6378 10.3478 16.8157 9.8038 17.2059 9.42618L18.8109 7.87246C19.7932 6.9216 19.2512 5.26485 17.8936 5.06896L15.6755 4.7489C15.1364 4.67108 14.6704 4.33485 14.4293 3.84979L13.4373 1.85371C12.8302 0.632099 11.0761 0.632099 10.469 1.85371Z" stroke="#150A02" stroke-width="1.4" stroke-miterlimit="10" stroke-linecap="round" stroke-linejoin="round"/>
<path d="M4.00072 15.8888C3.83328 16.0583 3.61269 16.1716 3.36992 16.2067L1.88647 16.4207C0.978498 16.5518 0.616014 17.6597 1.27301 18.2957L2.34645 19.3348C2.60731 19.5873 2.72633 19.9512 2.66478 20.3078L2.41137 21.775C2.25626 22.673 3.20534 23.3578 4.0174 22.9338L5.3443 22.2411C5.66675 22.0727 6.05201 22.0727 6.37447 22.2411L7.70131 22.9338C8.51342 23.3578 9.4625 22.673 9.30739 21.775L9.05398 20.3078C8.99239 19.9512 9.11141 19.5873 9.37231 19.3348L10.4457 18.2957" stroke="#150A02" stroke-width="1.4" stroke-miterlimit="10" stroke-linecap="round" stroke-linejoin="round"/>
<path d="M19.9992 15.8888C20.1667 16.0583 20.3873 16.1716 20.63 16.2067L22.1135 16.4207C23.0214 16.5518 23.3839 17.6597 22.7269 18.2957L21.6535 19.3348C21.3926 19.5873 21.2736 19.9512 21.3352 20.3078L21.5886 21.775C21.7437 22.673 20.7946 23.3578 19.9825 22.9338L18.6557 22.2411C18.3332 22.0727 17.9479 22.0727 17.6255 22.2411L16.2986 22.9338C15.4865 23.3578 14.5374 22.673 14.6926 21.775L14.946 20.3078C15.0076 19.9512 14.8885 19.5873 14.6276 19.3348L13.5542 18.2957" stroke="#150A02" stroke-width="1.4" stroke-miterlimit="10" stroke-linecap="round" stroke-linejoin="round"/>
</g>
</g>
<defs>
<clipPath id="clip0_1251_39121">
<rect width="24" height="24" fill="white"/>
</clipPath>
</defs>
</svg>
