<svg width="310" height="82" viewBox="0 0 310 82" fill="none" xmlns="http://www.w3.org/2000/svg">
<g filter="url(#filter0_d_367_11212)">
<rect x="17" y="17" width="277" height="48" rx="24" fill="white" fill-opacity="0.56" shape-rendering="crispEdges"/>
<mask id="path-2-inside-1_367_11212" fill="white">
<path fill-rule="evenodd" clip-rule="evenodd" d="M53.1745 37.3798C52.825 35.5444 51.9403 33.79 50.522 32.3699C46.7565 28.5997 40.6511 28.5997 36.8856 32.3699C35.737 33.52 34.7225 35.2225 34.2789 37.1126C33.8326 39.0141 33.9563 41.1501 35.1618 43.0924C35.2236 43.1918 35.2617 43.2535 35.2887 43.2995C35.3012 43.3208 35.3077 43.3329 35.3105 43.3381C35.313 43.3448 35.3145 43.3494 35.3154 43.3523C35.3154 43.3558 35.3153 43.3616 35.3147 43.3705C35.3139 43.3747 35.3122 43.3836 35.3087 43.3992C35.2998 43.4386 35.2862 43.4914 35.2621 43.5847L35.2551 43.6118C35.1166 44.1466 35.0028 44.5862 34.9359 44.9414C34.8686 45.2989 34.8296 45.6599 34.9012 46.0123C35.1055 47.017 35.89 47.8031 36.8948 48.0078C37.2473 48.0797 37.6082 48.0406 37.9653 47.9732C38.3202 47.9062 38.7593 47.7921 39.2934 47.6535L39.3205 47.6466C39.4137 47.6223 39.4664 47.6088 39.5059 47.5998C39.5212 47.5964 39.5302 47.5946 39.5343 47.5939C39.5425 47.5933 39.5481 47.5931 39.5516 47.5931C39.5544 47.5941 39.5588 47.5955 39.5649 47.5978C39.5701 47.6005 39.5824 47.6072 39.6038 47.6196C39.6502 47.6468 39.7124 47.6852 39.8124 47.747C40.4592 48.1472 41.1325 48.4271 41.8145 48.6042C42.0675 48.9566 42.3521 49.293 42.6679 49.6092C43.5986 50.5411 45.02 51.3867 46.6034 51.766C48.1977 52.1479 50.0143 52.0679 51.658 51.0508C51.7376 51.0015 51.7864 50.9715 51.8223 50.9503C51.851 50.9572 51.8904 50.9673 51.9556 50.9843L51.982 50.9911C52.4184 51.1044 52.7839 51.1993 53.0808 51.2553C53.3799 51.3118 53.6985 51.3481 54.0156 51.2835C54.8975 51.1038 55.5859 50.414 55.7652 49.5322C55.8295 49.2153 55.7933 48.8967 55.737 48.5974C55.6809 48.3002 55.5863 47.9343 55.4731 47.4973L55.4663 47.471C55.4492 47.4049 55.4391 47.3653 55.4322 47.3365C55.4531 47.3008 55.4831 47.2525 55.5325 47.173C56.5485 45.536 56.6509 43.7378 56.2768 42.1441C55.9053 40.5618 55.0568 39.137 54.0933 38.1723C53.8029 37.8816 53.4957 37.6174 53.1745 37.3798ZM49.4144 33.476C46.2604 30.318 41.1471 30.318 37.9931 33.476C37.0436 34.4267 36.1778 35.8723 35.8027 37.4702C35.4303 39.0567 35.5494 40.7486 36.4917 42.267C36.5006 42.2813 36.5097 42.2958 36.5188 42.3105C36.6086 42.4547 36.7054 42.61 36.7615 42.7511C36.861 43.0013 36.8955 43.2276 36.8749 43.4961C36.8633 43.647 36.8228 43.8026 36.7872 43.9392C36.7838 43.9519 36.7806 43.9645 36.7773 43.977C36.6301 44.5456 36.53 44.9339 36.4741 45.2311C36.4174 45.5319 36.425 45.6509 36.4351 45.7005C36.5144 46.0907 36.8188 46.395 37.2073 46.4741C37.2562 46.4841 37.3746 46.4918 37.6749 46.4351C37.9716 46.379 38.3594 46.2789 38.9273 46.1315C38.9398 46.1283 38.9524 46.125 38.9652 46.1216C39.1015 46.086 39.2569 46.0453 39.4073 46.0338C39.6756 46.013 39.9005 46.047 40.1506 46.1461C40.2913 46.202 40.4471 46.2988 40.592 46.3887C40.6068 46.3979 40.6214 46.407 40.6359 46.416C40.6645 46.4336 40.693 46.4509 40.7217 46.468C39.7781 43.6507 40.4263 40.4167 42.6679 38.1723C44.991 35.8462 48.3763 35.2332 51.2598 36.3323C50.8672 35.2911 50.2522 34.3147 49.4144 33.476ZM52.0199 38.4798C49.4873 36.7671 46.0171 37.0339 43.7754 39.2783C41.5522 41.5043 41.2712 44.9411 42.9354 47.4722C43.1747 47.8362 43.4546 48.1819 43.7754 48.5031C44.5021 49.2308 45.6666 49.9321 46.968 50.2439C48.2585 50.553 49.6255 50.4678 50.8344 49.7198C50.8464 49.7123 50.8587 49.7047 50.8713 49.6969C50.9877 49.6245 51.1276 49.5375 51.2559 49.4866C51.4814 49.3973 51.6877 49.366 51.9295 49.3848C52.0666 49.3953 52.2071 49.4321 52.317 49.461C52.3279 49.4638 52.3386 49.4666 52.3488 49.4693C52.8185 49.5912 53.1325 49.6722 53.3712 49.7172C53.6135 49.763 53.6896 49.7525 53.703 49.7498C53.9686 49.6957 54.177 49.4877 54.2312 49.2204C54.2341 49.2064 54.2445 49.1298 54.1988 48.887C54.1537 48.648 54.0727 48.3335 53.9511 47.8633C53.9484 47.853 53.9455 47.8423 53.9427 47.8314C53.9139 47.7213 53.8772 47.5807 53.8666 47.4432C53.8482 47.2012 53.8797 46.9936 53.9694 46.768C54.0206 46.6394 54.1076 46.5 54.1798 46.3842C54.1876 46.3717 54.1952 46.3595 54.2026 46.3475C54.9554 45.1346 55.0531 43.7804 54.753 42.5017C54.4501 41.2115 53.7502 40.0437 52.9857 39.2783C52.6838 38.9759 52.3601 38.7099 52.0199 38.4798Z"/>
</mask>
<path fill-rule="evenodd" clip-rule="evenodd" d="M53.1745 37.3798C52.825 35.5444 51.9403 33.79 50.522 32.3699C46.7565 28.5997 40.6511 28.5997 36.8856 32.3699C35.737 33.52 34.7225 35.2225 34.2789 37.1126C33.8326 39.0141 33.9563 41.1501 35.1618 43.0924C35.2236 43.1918 35.2617 43.2535 35.2887 43.2995C35.3012 43.3208 35.3077 43.3329 35.3105 43.3381C35.313 43.3448 35.3145 43.3494 35.3154 43.3523C35.3154 43.3558 35.3153 43.3616 35.3147 43.3705C35.3139 43.3747 35.3122 43.3836 35.3087 43.3992C35.2998 43.4386 35.2862 43.4914 35.2621 43.5847L35.2551 43.6118C35.1166 44.1466 35.0028 44.5862 34.9359 44.9414C34.8686 45.2989 34.8296 45.6599 34.9012 46.0123C35.1055 47.017 35.89 47.8031 36.8948 48.0078C37.2473 48.0797 37.6082 48.0406 37.9653 47.9732C38.3202 47.9062 38.7593 47.7921 39.2934 47.6535L39.3205 47.6466C39.4137 47.6223 39.4664 47.6088 39.5059 47.5998C39.5212 47.5964 39.5302 47.5946 39.5343 47.5939C39.5425 47.5933 39.5481 47.5931 39.5516 47.5931C39.5544 47.5941 39.5588 47.5955 39.5649 47.5978C39.5701 47.6005 39.5824 47.6072 39.6038 47.6196C39.6502 47.6468 39.7124 47.6852 39.8124 47.747C40.4592 48.1472 41.1325 48.4271 41.8145 48.6042C42.0675 48.9566 42.3521 49.293 42.6679 49.6092C43.5986 50.5411 45.02 51.3867 46.6034 51.766C48.1977 52.1479 50.0143 52.0679 51.658 51.0508C51.7376 51.0015 51.7864 50.9715 51.8223 50.9503C51.851 50.9572 51.8904 50.9673 51.9556 50.9843L51.982 50.9911C52.4184 51.1044 52.7839 51.1993 53.0808 51.2553C53.3799 51.3118 53.6985 51.3481 54.0156 51.2835C54.8975 51.1038 55.5859 50.414 55.7652 49.5322C55.8295 49.2153 55.7933 48.8967 55.737 48.5974C55.6809 48.3002 55.5863 47.9343 55.4731 47.4973L55.4663 47.471C55.4492 47.4049 55.4391 47.3653 55.4322 47.3365C55.4531 47.3008 55.4831 47.2525 55.5325 47.173C56.5485 45.536 56.6509 43.7378 56.2768 42.1441C55.9053 40.5618 55.0568 39.137 54.0933 38.1723C53.8029 37.8816 53.4957 37.6174 53.1745 37.3798ZM49.4144 33.476C46.2604 30.318 41.1471 30.318 37.9931 33.476C37.0436 34.4267 36.1778 35.8723 35.8027 37.4702C35.4303 39.0567 35.5494 40.7486 36.4917 42.267C36.5006 42.2813 36.5097 42.2958 36.5188 42.3105C36.6086 42.4547 36.7054 42.61 36.7615 42.7511C36.861 43.0013 36.8955 43.2276 36.8749 43.4961C36.8633 43.647 36.8228 43.8026 36.7872 43.9392C36.7838 43.9519 36.7806 43.9645 36.7773 43.977C36.6301 44.5456 36.53 44.9339 36.4741 45.2311C36.4174 45.5319 36.425 45.6509 36.4351 45.7005C36.5144 46.0907 36.8188 46.395 37.2073 46.4741C37.2562 46.4841 37.3746 46.4918 37.6749 46.4351C37.9716 46.379 38.3594 46.2789 38.9273 46.1315C38.9398 46.1283 38.9524 46.125 38.9652 46.1216C39.1015 46.086 39.2569 46.0453 39.4073 46.0338C39.6756 46.013 39.9005 46.047 40.1506 46.1461C40.2913 46.202 40.4471 46.2988 40.592 46.3887C40.6068 46.3979 40.6214 46.407 40.6359 46.416C40.6645 46.4336 40.693 46.4509 40.7217 46.468C39.7781 43.6507 40.4263 40.4167 42.6679 38.1723C44.991 35.8462 48.3763 35.2332 51.2598 36.3323C50.8672 35.2911 50.2522 34.3147 49.4144 33.476ZM52.0199 38.4798C49.4873 36.7671 46.0171 37.0339 43.7754 39.2783C41.5522 41.5043 41.2712 44.9411 42.9354 47.4722C43.1747 47.8362 43.4546 48.1819 43.7754 48.5031C44.5021 49.2308 45.6666 49.9321 46.968 50.2439C48.2585 50.553 49.6255 50.4678 50.8344 49.7198C50.8464 49.7123 50.8587 49.7047 50.8713 49.6969C50.9877 49.6245 51.1276 49.5375 51.2559 49.4866C51.4814 49.3973 51.6877 49.366 51.9295 49.3848C52.0666 49.3953 52.2071 49.4321 52.317 49.461C52.3279 49.4638 52.3386 49.4666 52.3488 49.4693C52.8185 49.5912 53.1325 49.6722 53.3712 49.7172C53.6135 49.763 53.6896 49.7525 53.703 49.7498C53.9686 49.6957 54.177 49.4877 54.2312 49.2204C54.2341 49.2064 54.2445 49.1298 54.1988 48.887C54.1537 48.648 54.0727 48.3335 53.9511 47.8633C53.9484 47.853 53.9455 47.8423 53.9427 47.8314C53.9139 47.7213 53.8772 47.5807 53.8666 47.4432C53.8482 47.2012 53.8797 46.9936 53.9694 46.768C54.0206 46.6394 54.1076 46.5 54.1798 46.3842C54.1876 46.3717 54.1952 46.3595 54.2026 46.3475C54.9554 45.1346 55.0531 43.7804 54.753 42.5017C54.4501 41.2115 53.7502 40.0437 52.9857 39.2783C52.6838 38.9759 52.3601 38.7099 52.0199 38.4798Z" fill="#150A02"/>
<path d="M53.1745 37.3798L31.3065 41.5434L32.9352 50.0979L39.9362 55.2766L53.1745 37.3798ZM50.522 32.3699L66.2731 16.6394L66.2726 16.6389L50.522 32.3699ZM36.8856 32.3699L52.6363 48.1008L52.6364 48.1008L36.8856 32.3699ZM34.2789 37.1126L12.607 32.0256L12.607 32.0257L34.2789 37.1126ZM35.1618 43.0924L16.2479 54.8316L16.2488 54.8331L35.1618 43.0924ZM35.2887 43.2995L54.509 32.0689L54.5012 32.0556L54.4935 32.0423L35.2887 43.2995ZM35.3105 43.3381L56.1432 35.4933L55.6497 34.1827L54.9958 32.9443L35.3105 43.3381ZM35.3154 43.3523L57.5759 43.4872L57.5968 40.0395L56.5738 36.7471L35.3154 43.3523ZM35.3147 43.3705L57.233 47.261L57.4469 46.0555L57.5274 44.8339L35.3147 43.3705ZM35.3087 43.3992L57.0211 48.3103L57.0227 48.3032L57.0243 48.2961L35.3087 43.3992ZM35.2621 43.5847L13.712 38.0043L13.7094 38.0142L35.2621 43.5847ZM35.2551 43.6118L56.8053 49.1914L56.8077 49.1823L35.2551 43.6118ZM34.9359 44.9414L56.8121 49.0619L56.8123 49.0609L34.9359 44.9414ZM34.9012 46.0123L13.0864 50.4463L13.0864 50.4464L34.9012 46.0123ZM36.8948 48.0078L41.3436 26.196L41.3391 26.1951L36.8948 48.0078ZM37.9653 47.9732L42.0937 69.8479L42.0951 69.8476L37.9653 47.9732ZM39.2934 47.6535L33.73 26.0991L33.7165 26.1026L33.703 26.1061L39.2934 47.6535ZM39.3205 47.6466L44.8839 69.201L44.9007 69.1967L44.9174 69.1923L39.3205 47.6466ZM39.5059 47.5998L34.6299 25.8795L34.5974 25.8868L34.5649 25.8942L39.5059 47.5998ZM39.5343 47.5939L38.1157 25.3782L36.8841 25.4569L35.6688 25.6712L39.5343 47.5939ZM39.5516 47.5931L46.4756 26.4365L43.1016 25.3323H39.5516V47.5931ZM39.5649 47.5978L49.7547 27.8061L48.6192 27.2214L47.4242 26.7705L39.5649 47.5978ZM39.6038 47.6196L50.832 28.3979L50.7976 28.3778L50.7632 28.3579L39.6038 47.6196ZM39.8124 47.747L28.0977 66.6762L28.101 66.6782L39.8124 47.747ZM41.8145 48.6042L59.8989 35.6233L55.2031 29.0814L47.4087 27.0577L41.8145 48.6042ZM42.6679 49.6092L26.9167 65.3396L26.9173 65.3403L42.6679 49.6092ZM46.6034 51.766L41.4174 73.4144L41.4177 73.4144L46.6034 51.766ZM51.658 51.0508L39.9469 32.1195L39.9446 32.1209L51.658 51.0508ZM51.8223 50.9503L57.0173 29.3041L48.2626 27.203L40.5088 31.7787L51.8223 50.9503ZM51.9556 50.9843L46.3379 72.5247L46.3769 72.5349L46.4159 72.5449L51.9556 50.9843ZM51.982 50.9911L57.5772 29.4449L57.5495 29.4377L57.5217 29.4305L51.982 50.9911ZM53.0808 51.2553L57.21 29.3808L57.2097 29.3807L53.0808 51.2553ZM54.0156 51.2835L49.5714 29.4707L49.5712 29.4708L54.0156 51.2835ZM55.7652 49.5322L77.5797 53.9674L77.5804 53.9642L55.7652 49.5322ZM55.737 48.5974L77.6137 44.4798L77.6124 44.4727L55.737 48.5974ZM55.4731 47.4973L33.9178 53.0575L33.9207 53.0688L33.9237 53.0802L55.4731 47.4973ZM55.4663 47.471L77.0216 41.9109L77.0197 41.9036L77.0178 41.8962L55.4663 47.471ZM55.4322 47.3365L36.2404 36.0572L31.6956 43.7901L33.7817 52.5138L55.4322 47.3365ZM55.5325 47.173L74.4458 58.9132L74.4464 58.9122L55.5325 47.173ZM56.2768 42.1441L77.9486 37.0571L77.9484 37.0563L56.2768 42.1441ZM54.0933 38.1723L69.8438 22.4412L69.842 22.4394L54.0933 38.1723ZM49.4144 33.476L33.6637 49.2068L33.6644 49.2076L49.4144 33.476ZM37.9931 33.476L53.7438 49.2069L53.7438 49.2069L37.9931 33.476ZM35.8027 37.4702L57.4745 42.5572L57.4746 42.5571L35.8027 37.4702ZM36.4917 42.267L17.5776 54.0058L17.5921 54.0294L17.6068 54.0528L36.4917 42.267ZM36.5188 42.3105L17.598 54.0387L17.6111 54.0597L17.6241 54.0807L36.5188 42.3105ZM36.7615 42.7511L57.4465 34.5245L57.4465 34.5245L36.7615 42.7511ZM36.8749 43.4961L14.6791 41.795L14.679 41.7969L36.8749 43.4961ZM36.7872 43.9392L58.324 49.5705L58.3275 49.5571L36.7872 43.9392ZM36.7773 43.977L15.231 38.3821L15.2288 38.3906L15.2266 38.3991L36.7773 43.977ZM36.4741 45.2311L14.5978 41.1109L14.5977 41.1116L36.4741 45.2311ZM36.4351 45.7005L14.6199 50.1324L14.6203 50.1346L36.4351 45.7005ZM37.2073 46.4741L41.6759 24.6664L41.6621 24.6635L41.6483 24.6607L37.2073 46.4741ZM37.6749 46.4351L33.5437 24.5609L33.5405 24.5615L37.6749 46.4351ZM38.9273 46.1315L44.5174 67.6791L44.5303 67.6757L38.9273 46.1315ZM38.9652 46.1216L33.3421 24.5826L33.3389 24.5835L38.9652 46.1216ZM39.4073 46.0338L41.1158 68.229L41.1255 68.2282L39.4073 46.0338ZM40.1506 46.1461L48.3598 25.4542L48.3546 25.4522L40.1506 46.1461ZM40.592 46.3887L52.3602 27.4928L52.3458 27.4839L52.3315 27.4749L40.592 46.3887ZM40.6359 46.416L28.9174 65.3428L28.9243 65.347L28.9312 65.3513L40.6359 46.416ZM40.7217 46.468L29.3044 65.5781L80.9271 96.42L61.8302 39.3986L40.7217 46.468ZM42.6679 38.1723L58.4186 53.9032L58.4188 53.903L42.6679 38.1723ZM51.2598 36.3323L43.3314 57.1334L89.5363 74.7446L72.0889 28.4776L51.2598 36.3323ZM52.0199 38.4798L39.5494 56.9199L39.5504 56.9205L52.0199 38.4798ZM43.7754 39.2783L28.0248 23.5473L28.0248 23.5474L43.7754 39.2783ZM42.9354 47.4722L24.3351 59.7023L24.3352 59.7025L42.9354 47.4722ZM43.7754 48.5031L28.0228 64.2322L28.0242 64.2336L43.7754 48.5031ZM46.968 50.2439L41.7816 71.8921L41.783 71.8925L46.968 50.2439ZM50.8344 49.7198L62.5472 68.6502L62.5974 68.6191L62.6474 68.5878L50.8344 49.7198ZM50.8713 49.6969L62.5992 68.6179L62.6169 68.6069L62.6345 68.5959L50.8713 49.6969ZM51.2559 49.4866L43.0578 28.7903L43.0492 28.7937L43.0407 28.7971L51.2559 49.4866ZM51.9295 49.3848L50.2061 71.5788L50.2148 71.5795L50.2235 71.5802L51.9295 49.3848ZM52.317 49.461L46.6729 70.9944L46.723 71.0076L46.7731 71.0204L52.317 49.461ZM52.3488 49.4693L46.6403 70.9858L46.6988 71.0013L46.7573 71.0165L52.3488 49.4693ZM53.3712 49.7172L57.5066 27.8439L57.5013 27.8429L53.3712 49.7172ZM53.703 49.7498L58.1013 71.5718L58.1221 71.5676L58.1429 71.5634L53.703 49.7498ZM54.2312 49.2204L76.0469 53.65L76.0503 53.6337L76.0535 53.6175L54.2312 49.2204ZM54.1988 48.887L76.0752 44.7676L76.0741 44.7621L54.1988 48.887ZM53.9511 47.8633L75.5021 42.2866L75.492 42.2477L75.4818 42.2087L53.9511 47.8633ZM53.9427 47.8314L75.5022 42.2875L75.4906 42.2423L75.4788 42.1973L53.9427 47.8314ZM53.8666 47.4432L31.6703 49.1373L31.6709 49.1441L53.8666 47.4432ZM53.9694 46.768L74.6539 54.9959L74.6566 54.9892L53.9694 46.768ZM54.1798 46.3842L35.3472 34.5149L35.3181 34.561L35.2892 34.6073L54.1798 46.3842ZM54.2026 46.3475L35.2883 34.609L35.2746 34.631L35.261 34.6531L54.2026 46.3475ZM54.753 42.5017L76.425 37.4153L76.4245 37.4133L54.753 42.5017ZM52.9857 39.2783L37.2335 55.0077L37.236 55.0102L52.9857 39.2783ZM53.1745 37.3798L75.0425 33.2162C73.8859 27.1412 70.9436 21.3159 66.2731 16.6394L50.522 32.3699L34.7709 48.1004C32.937 46.2641 31.7642 43.9475 31.3065 41.5434L53.1745 37.3798ZM50.522 32.3699L66.2726 16.6389C53.8115 4.16224 33.5961 4.16212 21.1349 16.639L36.8856 32.3699L52.6364 48.1008C47.7061 53.0373 39.7015 53.0371 34.7714 48.1009L50.522 32.3699ZM36.8856 32.3699L21.135 16.6389C17.1544 20.6245 14.0261 25.9799 12.607 32.0256L34.2789 37.1126L55.9507 42.1995C55.6573 43.4495 55.2136 44.4987 54.7253 45.3677C54.2454 46.222 53.5802 47.1558 52.6363 48.1008L36.8856 32.3699ZM34.2789 37.1126L12.607 32.0257C11.1106 38.4009 11.296 46.8532 16.2479 54.8316L35.1618 43.0924L54.0758 31.3532C56.6166 35.4469 56.5545 39.6273 55.9508 42.1994L34.2789 37.1126ZM35.1618 43.0924L16.2488 54.8331C16.2636 54.857 16.2714 54.8695 16.2763 54.8773C16.2812 54.8853 16.2772 54.8788 16.2681 54.864C16.2592 54.8495 16.2381 54.8151 16.2096 54.7679C16.1811 54.7207 16.1374 54.6479 16.084 54.5567L35.2887 43.2995L54.4935 32.0423C54.2903 31.6957 54.0765 31.3543 54.0748 31.3517L35.1618 43.0924ZM35.2887 43.2995L16.0685 54.5302C15.9411 54.3123 15.7898 54.044 15.6251 53.732L35.3105 43.3381L54.9958 32.9443C54.8256 32.6219 54.6612 32.3293 54.509 32.0689L35.2887 43.2995ZM35.3105 43.3381L14.4777 51.183C14.3707 50.899 14.2186 50.4774 14.0571 49.9576L35.3154 43.3523L56.5738 36.7471C56.4104 36.2214 56.2552 35.7906 56.1432 35.4933L35.3105 43.3381ZM35.3154 43.3523L13.055 43.2174C13.0577 42.7605 13.0746 42.323 13.102 41.9071L35.3147 43.3705L57.5274 44.8339C57.556 44.4002 57.5731 43.951 57.5759 43.4872L35.3154 43.3523ZM35.3147 43.3705L13.3964 39.48C13.4685 39.074 13.5397 38.7392 13.5931 38.5022L35.3087 43.3992L57.0243 48.2961C57.0848 48.028 57.1594 47.6753 57.233 47.261L35.3147 43.3705ZM35.3087 43.3992L13.5963 38.488C13.626 38.3572 13.6516 38.2497 13.6696 38.1755C13.6875 38.102 13.7016 38.0459 13.7087 38.0176C13.7198 37.9738 13.7267 37.9474 13.712 38.0043L35.2621 43.5847L56.8121 49.1651C56.8216 49.1287 56.8473 49.0293 56.8735 48.9259C56.8987 48.8261 56.9564 48.5963 57.0211 48.3103L35.3087 43.3992ZM35.2621 43.5847L13.7094 38.0142L13.7024 38.0414L35.2551 43.6118L56.8077 49.1823L56.8147 49.1552L35.2621 43.5847ZM35.2551 43.6118L13.7048 38.0323C13.6375 38.2921 13.2965 39.5635 13.0595 40.8219L34.9359 44.9414L56.8123 49.0609C56.7919 49.1693 56.7733 49.2617 56.758 49.3354C56.7427 49.4092 56.7295 49.4694 56.7196 49.5136C56.7097 49.558 56.7021 49.5908 56.6976 49.6098C56.6931 49.6289 56.6908 49.6382 56.6915 49.6354C56.6937 49.6263 56.7026 49.5905 56.7233 49.5095C56.7332 49.4706 56.7447 49.4258 56.7587 49.3718C56.7728 49.3171 56.7877 49.2596 56.8053 49.1914L35.2551 43.6118ZM34.9359 44.9414L13.0597 40.821C12.8363 42.0072 12.1416 45.7979 13.0864 50.4463L34.9012 46.0123L56.716 41.5782C57.5176 45.5218 56.9009 48.5906 56.8121 49.0619L34.9359 44.9414ZM34.9012 46.0123L13.0864 50.4464C15.067 60.1905 22.6795 67.8297 32.4505 69.8205L36.8948 48.0078L41.3391 26.1951C49.1005 27.7764 55.1439 33.8436 56.716 41.5782L34.9012 46.0123ZM36.8948 48.0078L32.4461 69.8196C37.1078 70.7704 40.9098 70.0713 42.0937 69.8479L37.9653 47.9732L33.837 26.0985C34.3065 26.0098 37.3868 25.389 41.3436 26.196L36.8948 48.0078ZM37.9653 47.9732L42.0951 69.8476C43.3554 69.6097 44.6318 69.2664 44.8838 69.201L39.2934 47.6535L33.703 26.1061C33.6343 26.1239 33.5767 26.1388 33.5216 26.1531C33.4673 26.1671 33.4223 26.1787 33.3831 26.1888C33.3017 26.2097 33.2658 26.2186 33.2567 26.2208C33.254 26.2215 33.2633 26.2192 33.2825 26.2146C33.3018 26.2101 33.3348 26.2024 33.3795 26.1923C33.4241 26.1824 33.4848 26.1691 33.5591 26.1536C33.6333 26.1381 33.7263 26.1193 33.8355 26.0987L37.9653 47.9732ZM39.2934 47.6535L44.8568 69.208L44.8839 69.201L39.3205 47.6466L33.7571 26.0921L33.73 26.0991L39.2934 47.6535ZM39.3205 47.6466L44.9174 69.1923C44.9701 69.1787 44.9445 69.1854 44.8998 69.1967C44.8716 69.2039 44.8172 69.2176 44.7461 69.2349C44.6742 69.2524 44.5715 69.277 44.4468 69.3054L39.5059 47.5998L34.5649 25.8942C34.2897 25.9568 34.0681 26.0126 33.9669 26.0382C33.8627 26.0646 33.7642 26.0902 33.7236 26.1008L39.3205 47.6466ZM39.5059 47.5998L44.3818 69.3201C44.2865 69.3415 44.166 69.3678 44.0258 69.3968C43.9073 69.4212 43.6836 69.4665 43.3998 69.5166L39.5343 47.5939L35.6688 25.6712C35.1749 25.7582 34.7863 25.8444 34.6299 25.8795L39.5059 47.5998ZM39.5343 47.5939L40.9529 69.8095C40.83 69.8173 40.6608 69.8271 40.4587 69.8354C40.2766 69.8429 39.9544 69.854 39.5516 69.854V47.5931V25.3323C38.8413 25.3323 38.2846 25.3674 38.1157 25.3782L39.5343 47.5939ZM39.5516 47.5931L32.6276 68.7498C32.5385 68.7207 32.3988 68.6743 32.2285 68.6149C32.0606 68.5564 31.886 68.4933 31.7055 68.4251L39.5649 47.5978L47.4242 26.7705C47.0289 26.6213 46.6993 26.5097 46.4756 26.4365L39.5516 47.5931ZM39.5649 47.5978L29.375 67.3896C29.2056 67.3023 29.0696 67.2295 28.9858 67.1842C28.8939 67.1346 28.8149 67.091 28.7519 67.0559C28.6267 66.9863 28.5224 66.9265 28.4444 66.8813L39.6038 47.6196L50.7632 28.3579C50.6487 28.2916 50.2577 28.065 49.7547 27.8061L39.5649 47.5978ZM39.6038 47.6196L28.3756 66.8414C28.2808 66.786 28.2052 66.7407 28.157 66.7117C28.1087 66.6826 28.0737 66.6612 28.0597 66.6527C28.0455 66.6439 28.0395 66.6402 28.049 66.6461C28.0584 66.6519 28.0718 66.6602 28.0977 66.6762L39.8124 47.747L51.527 28.8179C51.4884 28.794 51.4019 28.7404 51.3163 28.6879C51.2348 28.638 51.0542 28.5277 50.832 28.3979L39.6038 47.6196ZM39.8124 47.747L28.101 66.6782C30.6994 68.2857 33.4432 69.4296 36.2203 70.1506L41.8145 48.6042L47.4087 27.0577C48.8218 27.4245 50.2191 28.0088 51.5237 28.8158L39.8124 47.747ZM41.8145 48.6042L23.7301 61.585C24.683 62.9125 25.7474 64.1688 26.9167 65.3396L42.6679 49.6092L58.4191 33.8788C58.9567 34.4172 59.452 35.0008 59.8989 35.6233L41.8145 48.6042ZM42.6679 49.6092L26.9173 65.3403C30.7491 69.1768 35.8252 72.0747 41.4174 73.4144L46.6034 51.766L51.7894 30.1176C53.1385 30.4408 54.2944 30.9266 55.2746 31.476C56.2328 32.013 57.3174 32.7757 58.4185 33.8782L42.6679 49.6092ZM46.6034 51.766L41.4177 73.4144C47.3246 74.8294 55.5363 74.829 63.3714 69.9807L51.658 51.0508L39.9446 32.1209C44.4924 29.3068 49.0708 29.4664 51.7892 30.1176L46.6034 51.766ZM51.658 51.0508L63.3692 69.9821C63.3876 69.9708 63.3971 69.9649 63.4026 69.9614C63.4083 69.9579 63.4024 69.9616 63.3897 69.9694C63.3772 69.977 63.3487 69.9945 63.3096 70.0181C63.2707 70.0417 63.2106 70.0777 63.1358 70.1219L51.8223 50.9503L40.5088 31.7787C40.2269 31.945 39.9504 32.1173 39.9469 32.1195L51.658 51.0508ZM51.8223 50.9503L46.6272 72.5965C46.495 72.5648 46.397 72.5398 46.3663 72.532C46.3329 72.5234 46.3161 72.519 46.3379 72.5247L51.9556 50.9843L57.5733 29.444C57.5367 29.4344 57.2909 29.3698 57.0173 29.3041L51.8223 50.9503ZM51.9556 50.9843L46.4159 72.5449L46.4423 72.5517L51.982 50.9911L57.5217 29.4305L57.4953 29.4238L51.9556 50.9843ZM51.982 50.9911L46.3868 72.5373C46.5562 72.5813 47.7502 72.9031 48.9519 73.1299L53.0808 51.2553L57.2097 29.3807C57.4352 29.4233 57.6077 29.4606 57.7081 29.4831C57.8099 29.5059 57.8745 29.5217 57.8852 29.5243C57.8963 29.527 57.8817 29.5235 57.8236 29.5086C57.763 29.4931 57.6926 29.4748 57.5772 29.4449L51.982 50.9911ZM53.0808 51.2553L48.9517 73.1299C50.0841 73.3436 53.8391 74.0377 58.4599 73.0962L54.0156 51.2835L49.5712 29.4708C53.558 28.6585 56.6756 29.2799 57.21 29.3808L53.0808 51.2553ZM54.0156 51.2835L58.4597 73.0962C68.1089 71.1303 75.624 63.5867 77.5797 53.9674L55.7652 49.5322L33.9506 45.097C35.5478 37.2412 41.6861 31.0773 49.5714 29.4707L54.0156 51.2835ZM55.7652 49.5322L77.5804 53.9642C78.517 49.3541 77.8261 45.608 77.6137 44.4798L55.737 48.5974L33.8602 52.715C33.7606 52.1855 33.1421 49.0765 33.9499 45.1002L55.7652 49.5322ZM55.737 48.5974L77.6124 44.4727C77.3869 43.2767 77.068 42.0899 77.0225 41.9144L55.4731 47.4973L33.9237 53.0802C33.9534 53.195 33.9717 53.2657 33.9871 53.3262C34.002 53.3843 34.0056 53.3992 34.003 53.3887C34.0005 53.3785 33.985 53.315 33.9626 53.2145C33.9404 53.1154 33.9036 52.945 33.8616 52.7221L55.737 48.5974ZM55.4731 47.4973L77.0284 41.9372L77.0216 41.9109L55.4663 47.471L33.911 53.0312L33.9178 53.0575L55.4731 47.4973ZM55.4663 47.471L77.0178 41.8962C77.0102 41.8668 77.0134 41.8789 77.0202 41.9057C77.0243 41.9217 77.0319 41.952 77.0418 41.9916C77.0517 42.0314 77.0658 42.0889 77.0826 42.1593L55.4322 47.3365L33.7817 52.5138C33.8455 52.7805 33.9107 53.0299 33.9148 53.0459L55.4663 47.471ZM55.4322 47.3365L74.6239 58.6159C74.5696 58.7083 74.525 58.7825 74.4959 58.8305C74.4669 58.8786 74.445 58.9142 74.4354 58.9299C74.4255 58.9459 74.4203 58.9543 74.4238 58.9486C74.4274 58.9429 74.4331 58.9336 74.4458 58.9132L55.5325 47.173L36.6191 35.4328C36.6008 35.4624 36.5542 35.5374 36.508 35.6126C36.4646 35.6831 36.3621 35.8501 36.2404 36.0572L55.4322 47.3365ZM55.5325 47.173L74.4464 58.9122C79.2092 51.2386 79.3726 43.1237 77.9486 37.0571L56.2768 42.1441L34.6049 47.2311C33.9291 44.3519 33.8878 39.8334 36.6185 35.4338L55.5325 47.173ZM56.2768 42.1441L77.9484 37.0563C76.6017 31.3197 73.64 26.2421 69.8438 22.4412L54.0933 38.1723L38.3428 53.9034C37.3076 52.8669 36.5542 51.8176 35.9994 50.8303C35.4365 49.8284 34.9341 48.6331 34.6051 47.2319L56.2768 42.1441ZM54.0933 38.1723L69.842 22.4394C68.7693 21.3656 67.6229 20.3782 66.4128 19.483L53.1745 37.3798L39.9362 55.2766C39.3685 54.8566 38.8365 54.3976 38.3446 53.9052L54.0933 38.1723ZM49.4144 33.476L65.1652 17.7451C53.3155 5.8804 34.0921 5.88044 22.2424 17.7451L37.9931 33.476L53.7438 49.2069C48.2022 54.7555 39.2054 54.7555 33.6637 49.2068L49.4144 33.476ZM37.9931 33.476L22.2425 17.745C18.4606 21.5316 15.4812 26.6303 14.1308 32.3834L35.8027 37.4702L57.4746 42.5571C57.1418 43.9746 56.6371 45.1604 56.0901 46.134C55.5535 47.0892 54.8062 48.1432 53.7438 49.2069L37.9931 33.476ZM35.8027 37.4702L14.1308 32.3833C12.7044 38.4604 12.8967 46.4638 17.5776 54.0058L36.4917 42.267L55.4059 30.5282C58.202 35.0334 58.1562 39.653 57.4745 42.5572L35.8027 37.4702ZM36.4917 42.267L17.6068 54.0528C17.6083 54.0552 17.6079 54.0547 17.6066 54.0525C17.6051 54.0502 17.6022 54.0454 17.598 54.0387L36.5188 42.3105L55.4396 30.5823C55.4135 30.5403 55.3912 30.5045 55.3766 30.4812L36.4917 42.267ZM36.5188 42.3105L17.6241 54.0807C17.7115 54.221 17.522 53.9223 17.3109 53.5518C17.11 53.1993 16.5893 52.2671 16.0765 50.9776L36.7615 42.7511L57.4465 34.5245C56.8776 33.094 56.2804 32.0136 55.9947 31.5122C55.6988 30.9927 55.4159 30.5442 55.4135 30.5403L36.5188 42.3105ZM36.7615 42.7511L16.0765 50.9776C15.584 49.7394 15.1231 48.2221 14.8558 46.4664C14.5886 44.7107 14.5772 43.1246 14.6791 41.795L36.8749 43.4961L59.0707 45.1972C59.3505 41.5467 58.7989 37.9248 57.4465 34.5245L36.7615 42.7511ZM36.8749 43.4961L14.679 41.7969C14.7756 40.5353 14.9662 39.5589 15.0733 39.0589C15.176 38.5795 15.2815 38.1884 15.2469 38.3213L36.7872 43.9392L58.3275 49.5571C58.3285 49.5533 58.472 49.0162 58.6068 48.3871C58.746 47.7375 58.9627 46.6078 59.0708 45.1953L36.8749 43.4961ZM36.7872 43.9392L15.2504 38.3078C15.243 38.3358 15.2365 38.3611 15.231 38.3821L36.7773 43.977L58.3237 49.5718C58.3246 49.568 58.3246 49.568 58.324 49.5705L36.7872 43.9392ZM36.7773 43.977L15.2266 38.3991C15.161 38.6527 14.8255 39.9021 14.5978 41.1109L36.4741 45.2311L58.3503 49.3513C58.3055 49.5895 58.2663 49.7694 58.2443 49.8672C58.2222 49.9657 58.2082 50.0221 58.21 50.0149C58.2116 50.0084 58.2204 49.9729 58.2421 49.8879C58.2641 49.802 58.2903 49.7006 58.3281 49.5548L36.7773 43.977ZM36.4741 45.2311L14.5977 41.1116C14.3989 42.167 13.7294 45.7491 14.6199 50.1324L36.4351 45.7005L58.2503 41.2685C58.7262 43.6107 58.7225 45.5521 58.6588 46.746C58.595 47.942 58.4428 48.8602 58.3504 49.3507L36.4741 45.2311ZM36.4351 45.7005L14.6203 50.1346C16.476 59.2641 23.6088 66.4231 32.7664 68.2875L37.2073 46.4741L41.6483 24.6607C50.0288 26.3669 56.5528 32.9174 58.2499 41.2663L36.4351 45.7005ZM37.2073 46.4741L32.7387 68.2818C37.1508 69.1859 40.7578 68.5074 41.8093 68.3086L37.6749 46.4351L33.5405 24.5615C34.0344 24.4682 34.9574 24.3147 36.1594 24.2504C37.3558 24.1865 39.3132 24.1822 41.6759 24.6664L37.2073 46.4741ZM37.6749 46.4351L41.8062 68.3092C43.0151 68.0809 44.2641 67.7448 44.5174 67.6791L38.9273 46.1315L33.3372 24.584C33.1918 24.6217 33.0906 24.6479 33.005 24.6699C32.9202 24.6916 32.885 24.7003 32.8787 24.7019C32.8717 24.7036 32.9283 24.6896 33.027 24.6673C33.1251 24.6453 33.3052 24.606 33.5437 24.5609L37.6749 46.4351ZM38.9273 46.1315L44.5303 67.6757C44.5483 67.6711 44.5636 67.667 44.5749 67.6641C44.5859 67.6612 44.5952 67.6588 44.5997 67.6576C44.6009 67.6573 44.602 67.657 44.6028 67.6568C44.6038 67.6565 44.6043 67.6564 44.6048 67.6563C44.6058 67.656 44.6057 67.656 44.6051 67.6562C44.604 67.6565 44.5988 67.6578 44.5915 67.6597L38.9652 46.1216L33.3389 24.5835C33.3251 24.5871 33.3136 24.5901 33.3061 24.5921C33.3024 24.593 33.2991 24.5939 33.2969 24.5945C33.2959 24.5947 33.2948 24.595 33.2941 24.5952C33.2934 24.5954 33.2929 24.5955 33.2925 24.5956C33.2907 24.5961 33.2937 24.5953 33.2985 24.5941C33.3035 24.5928 33.3126 24.5904 33.3244 24.5873L38.9273 46.1315ZM38.9652 46.1216L44.5882 67.6606C44.731 67.6233 44.3389 67.7292 43.8631 67.8316C43.3654 67.9386 42.3845 68.1313 41.1158 68.229L39.4073 46.0338L37.6988 23.8385C36.2797 23.9478 35.1458 24.1666 34.4988 24.3058C34.1546 24.3798 33.8706 24.4486 33.6836 24.4953C33.509 24.5388 33.3547 24.5793 33.3421 24.5826L38.9652 46.1216ZM39.4073 46.0338L41.1255 68.2282C39.8043 68.3305 38.2185 68.3219 36.4576 68.0557C34.6967 67.7894 33.179 67.3287 31.9466 66.8401L40.1506 46.1461L48.3546 25.4522C44.9539 24.104 41.3353 23.557 37.6891 23.8393L39.4073 46.0338ZM40.1506 46.1461L31.9413 66.838C30.6501 66.3257 29.7173 65.8053 29.3712 65.6087C29.0054 65.4008 28.7092 65.2135 28.8526 65.3026L40.592 46.3887L52.3315 27.4749C52.33 27.474 51.8834 27.1934 51.3683 26.9006C50.8729 26.6191 49.7918 26.0223 48.3598 25.4542L40.1506 46.1461ZM40.592 46.3887L28.8239 65.2847C28.8619 65.3083 28.8948 65.3288 28.9174 65.3428L40.6359 46.416L52.3544 27.4892C52.3515 27.4874 52.3509 27.487 52.3517 27.4875C52.3526 27.4881 52.3556 27.4899 52.3602 27.4928L40.592 46.3887ZM40.6359 46.416L28.9312 65.3513C29.0698 65.437 29.1956 65.513 29.3044 65.5781L40.7217 46.468L52.1389 27.358C52.1905 27.3888 52.2591 27.4303 52.3406 27.4807L40.6359 46.416ZM40.7217 46.468L61.8302 39.3986C63.4606 44.2669 62.3716 49.9452 58.4186 53.9032L42.6679 38.1723L26.9172 22.4413C18.481 30.8882 16.0956 43.0345 19.6132 53.5375L40.7217 46.468ZM42.6679 38.1723L58.4188 53.903C54.3171 58.01 48.3529 59.0474 43.3314 57.1334L51.2598 36.3323L59.1883 15.5312C48.3996 11.4191 35.665 13.6824 26.9171 22.4415L42.6679 38.1723ZM51.2598 36.3323L72.0889 28.4776C70.6032 24.538 68.2784 20.862 65.1645 17.7444L49.4144 33.476L33.6644 49.2076C32.2261 47.7675 31.1311 46.0441 30.4308 44.187L51.2598 36.3323ZM52.0199 38.4798L64.4904 20.0398C53.2778 12.4571 37.944 13.6159 28.0248 23.5473L43.7754 39.2783L59.5259 55.0094C54.0902 60.4519 45.6968 61.0771 39.5494 56.9199L52.0199 38.4798ZM43.7754 39.2783L28.0248 23.5474C18.1966 33.3878 16.9886 48.5292 24.3351 59.7023L42.9354 47.4722L61.5357 35.2421C65.5537 41.353 64.9078 49.6209 59.526 55.0093L43.7754 39.2783ZM42.9354 47.4722L24.3352 59.7025C25.399 61.3203 26.6318 62.8391 28.0228 64.2322L43.7754 48.5031L59.528 32.7741C60.2773 33.5246 60.9504 34.352 61.5355 35.2418L42.9354 47.4722ZM43.7754 48.5031L28.0242 64.2336C31.6526 67.8667 36.472 70.6201 41.7816 71.8921L46.968 50.2439L52.1544 28.5956C53.6737 28.9596 54.9634 29.5073 56.0399 30.1106C57.0851 30.6964 58.2952 31.5397 59.5266 32.7727L43.7754 48.5031ZM46.968 50.2439L41.783 71.8925C47.4084 73.2398 55.1632 73.2188 62.5472 68.6502L50.8344 49.7198L39.1216 30.7895C44.0878 27.7168 49.1085 27.8661 52.153 28.5953L46.968 50.2439ZM50.8344 49.7198L62.6474 68.5878C62.6198 68.6051 62.5992 68.6178 62.5927 68.6219C62.5891 68.6241 62.5871 68.6254 62.5885 68.6245C62.5893 68.624 62.59 68.6235 62.5921 68.6223C62.5937 68.6213 62.5963 68.6196 62.5992 68.6179L50.8713 49.6969L39.1435 30.7759C39.1397 30.7782 39.1438 30.7757 39.1353 30.781C39.1306 30.7839 39.1223 30.789 39.1126 30.7951C39.0937 30.8068 39.061 30.8271 39.0214 30.8519L50.8344 49.7198ZM50.8713 49.6969L62.6345 68.5959C62.7396 68.5305 62.4275 68.7282 62.0338 68.9512C61.6675 69.1589 60.7432 69.671 59.4711 70.1762L51.2559 49.4866L43.0407 28.7971C41.6403 29.3531 40.5819 29.9342 40.0844 30.2161C39.5597 30.5135 39.1195 30.7908 39.1082 30.7978L50.8713 49.6969ZM51.2559 49.4866L59.4539 70.1829C58.1938 70.6821 56.6691 71.1404 54.917 71.4055C53.1642 71.6707 51.5675 71.6846 50.2061 71.5788L51.9295 49.3848L53.653 27.1907C50.0225 26.9088 46.4236 27.4571 43.0578 28.7903L51.2559 49.4866ZM51.9295 49.3848L50.2235 71.5802C48.9619 71.4832 47.9829 71.2927 47.4736 71.1837C46.9726 71.0765 46.5656 70.9663 46.6729 70.9944L52.317 49.461L57.9611 27.9275C57.9585 27.9268 57.4263 27.7838 56.7934 27.6483C56.1521 27.5111 55.0343 27.2969 53.6356 27.1894L51.9295 49.3848ZM52.317 49.461L46.7731 71.0204C46.729 71.0091 46.6937 70.9999 46.6719 70.9941C46.6517 70.9888 46.6364 70.9848 46.6403 70.9858L52.3488 49.4693L58.0573 27.9528C58.0488 27.9506 57.9635 27.9279 57.8608 27.9015L52.317 49.461ZM52.3488 49.4693L46.7573 71.0165C46.9154 71.0575 48.0894 71.3742 49.2411 71.5916L53.3712 49.7172L57.5013 27.8429C57.7546 27.8907 57.9504 27.9333 58.0652 27.9591C58.1805 27.9851 58.2549 28.0033 58.2666 28.0062C58.2792 28.0093 58.2641 28.0057 58.2012 27.9896C58.1378 27.9733 58.0597 27.9531 57.9403 27.9221L52.3488 49.4693ZM53.3712 49.7172L49.2358 71.5906C50.2463 71.7817 53.77 72.4448 58.1013 71.5718L53.703 49.7498L49.3048 27.9277C51.7161 27.4417 53.6939 27.4623 54.8226 27.5232C56.02 27.5878 56.9569 27.7399 57.5066 27.8439L53.3712 49.7172ZM53.703 49.7498L58.1429 71.5634C67.176 69.7248 74.217 62.6625 76.0469 53.65L54.2312 49.2204L32.4155 44.7908C34.137 36.3128 40.7612 29.6666 49.2632 27.9362L53.703 49.7498ZM54.2312 49.2204L76.0535 53.6175C76.9253 49.291 76.264 45.7703 76.0752 44.7676L54.1988 48.887L32.3224 53.0065C32.2193 52.459 32.0684 51.5258 32.0043 50.3329C31.9442 49.2127 31.9228 47.2359 32.4089 44.8234L54.2312 49.2204ZM54.1988 48.887L76.0741 44.7621C75.8578 43.6148 75.5421 42.4412 75.5021 42.2866L53.9511 47.8633L32.4 53.44C32.4312 53.5604 32.4515 53.6391 32.468 53.7035C32.4843 53.7673 32.4881 53.7832 32.4853 53.7716C32.4827 53.7608 32.4646 53.6874 32.439 53.5731C32.4134 53.4594 32.371 53.2644 32.3234 53.0119L54.1988 48.887ZM53.9511 47.8633L75.4818 42.2087C75.4806 42.2041 75.4795 42.2001 75.4788 42.1975C75.4785 42.1962 75.4782 42.195 75.478 42.1943C75.4777 42.1933 75.4777 42.1931 75.4775 42.1926C75.477 42.1906 75.4782 42.1949 75.4798 42.201C75.4829 42.213 75.4913 42.2452 75.5022 42.2875L53.9427 47.8314L32.3832 53.3752C32.3969 53.4284 32.4081 53.4714 32.4141 53.4941C32.4171 53.5055 32.4196 53.5151 32.4205 53.5184C32.422 53.524 32.4211 53.5206 32.4203 53.5178L53.9511 47.8633ZM53.9427 47.8314L75.4788 42.1973C75.4519 42.0945 75.5616 42.5008 75.6688 43.0028C75.7777 43.5133 75.9663 44.4877 76.0624 45.7423L53.8666 47.4432L31.6709 49.1441C31.7775 50.5362 31.9898 51.6496 32.1269 52.2923C32.2622 52.9265 32.4047 53.4581 32.4066 53.4654L53.9427 47.8314ZM53.8666 47.4432L76.063 45.749C76.1668 47.1096 76.1507 48.7018 75.8851 50.4478C75.6194 52.1942 75.1607 53.722 74.6539 54.9959L53.9694 46.768L33.2849 38.5402C31.94 41.9212 31.3944 45.5228 31.6703 49.1373L53.8666 47.4432ZM53.9694 46.768L74.6566 54.9892C74.1477 56.2698 73.6308 57.2002 73.4206 57.5701C73.1973 57.9631 72.996 58.2802 73.0703 58.161L54.1798 46.3842L35.2892 34.6073C35.2815 34.6198 35.2018 34.7471 35.1135 34.8922C35.0198 35.0459 34.8775 35.2827 34.7128 35.5725C34.4283 36.0732 33.8423 37.1376 33.2823 38.5469L53.9694 46.768ZM54.1798 46.3842L73.0124 58.2534C73.0556 58.1849 73.0996 58.1144 73.1443 58.0419L54.2026 46.3475L35.261 34.6531C35.2909 34.6046 35.3197 34.5585 35.3472 34.5149L54.1798 46.3842ZM54.2026 46.3475L73.117 58.086C77.6069 50.8514 77.7795 43.1867 76.425 37.4153L54.753 42.5017L33.081 47.5881C32.3267 44.374 32.3039 39.4177 35.2883 34.609L54.2026 46.3475ZM54.753 42.5017L76.4245 37.4133C75.1464 31.9699 72.3337 27.1488 68.7355 23.5464L52.9857 39.2783L37.236 55.0102C36.0779 53.8508 35.2432 52.6798 34.6348 51.5969C34.0157 50.495 33.4509 49.1633 33.0815 47.59L54.753 42.5017ZM52.9857 39.2783L68.738 23.549C67.4261 22.2352 66.0023 21.0622 64.4894 20.0392L52.0199 38.4798L39.5504 56.9205C38.7178 56.3575 37.9414 55.7167 37.2335 55.0077L52.9857 39.2783Z" fill="#150A02" mask="url(#path-2-inside-1_367_11212)"/>
<path d="M46.3022 43.8904C46.3022 44.4667 45.8351 44.9339 45.2587 44.9339C44.6824 44.9339 44.2153 44.4667 44.2153 43.8904C44.2153 43.3141 44.6824 42.8469 45.2587 42.8469C45.8351 42.8469 46.3022 43.3141 46.3022 43.8904Z" fill="#150A02"/>
<path d="M49.4326 43.8904C49.4326 44.4667 48.9654 44.9339 48.3891 44.9339C47.8128 44.9339 47.3456 44.4667 47.3456 43.8904C47.3456 43.3141 47.8128 42.8469 48.3891 42.8469C48.9654 42.8469 49.4326 43.3141 49.4326 43.8904Z" fill="#150A02"/>
<path d="M52.563 43.8904C52.563 44.4667 52.0958 44.9339 51.5195 44.9339C50.9432 44.9339 50.476 44.4667 50.476 43.8904C50.476 43.3141 50.9432 42.8469 51.5195 42.8469C52.0958 42.8469 52.563 43.3141 52.563 43.8904Z" fill="#150A02"/>
<path d="M67.4241 34.4H72.5541C73.8861 34.4 75.0621 34.67 76.0821 35.21C77.1021 35.738 77.8941 36.482 78.4581 37.442C79.0221 38.39 79.3041 39.476 79.3041 40.7C79.3041 41.924 79.0221 43.016 78.4581 43.976C77.8941 44.924 77.1021 45.668 76.0821 46.208C75.0621 46.736 73.8861 47 72.5541 47H67.4241V34.4ZM72.4821 45.848C73.5861 45.848 74.5521 45.632 75.3801 45.2C76.2081 44.756 76.8501 44.15 77.3061 43.382C77.7621 42.602 77.9901 41.708 77.9901 40.7C77.9901 39.692 77.7621 38.804 77.3061 38.036C76.8501 37.256 76.2081 36.65 75.3801 36.218C74.5521 35.774 73.5861 35.552 72.4821 35.552H68.7561V45.848H72.4821ZM85.3372 37.46C86.5732 37.46 87.5212 37.772 88.1812 38.396C88.8412 39.008 89.1712 39.92 89.1712 41.132V47H87.9472V45.524C87.6592 46.016 87.2332 46.4 86.6692 46.676C86.1172 46.952 85.4572 47.09 84.6892 47.09C83.6332 47.09 82.7932 46.838 82.1692 46.334C81.5452 45.83 81.2332 45.164 81.2332 44.336C81.2332 43.532 81.5212 42.884 82.0972 42.392C82.6852 41.9 83.6152 41.654 84.8872 41.654H87.8932V41.078C87.8932 40.262 87.6652 39.644 87.2092 39.224C86.7532 38.792 86.0872 38.576 85.2112 38.576C84.6112 38.576 84.0352 38.678 83.4832 38.882C82.9312 39.074 82.4572 39.344 82.0612 39.692L81.4852 38.738C81.9652 38.33 82.5412 38.018 83.2132 37.802C83.8852 37.574 84.5932 37.46 85.3372 37.46ZM84.8872 46.082C85.6072 46.082 86.2252 45.92 86.7412 45.596C87.2572 45.26 87.6412 44.78 87.8932 44.156V42.608H84.9232C83.3032 42.608 82.4932 43.172 82.4932 44.3C82.4932 44.852 82.7032 45.29 83.1232 45.614C83.5432 45.926 84.1312 46.082 84.8872 46.082ZM92.6424 37.532H93.9204V47H92.6424V37.532ZM93.2904 35.462C93.0264 35.462 92.8044 35.372 92.6244 35.192C92.4444 35.012 92.3544 34.796 92.3544 34.544C92.3544 34.304 92.4444 34.094 92.6244 33.914C92.8044 33.734 93.0264 33.644 93.2904 33.644C93.5544 33.644 93.7764 33.734 93.9564 33.914C94.1364 34.082 94.2264 34.286 94.2264 34.526C94.2264 34.79 94.1364 35.012 93.9564 35.192C93.7764 35.372 93.5544 35.462 93.2904 35.462ZM97.4763 33.644H98.7543V47H97.4763V33.644ZM110.266 37.532L105.532 48.134C105.148 49.022 104.704 49.652 104.2 50.024C103.696 50.396 103.09 50.582 102.382 50.582C101.926 50.582 101.5 50.51 101.104 50.366C100.708 50.222 100.366 50.006 100.078 49.718L100.672 48.764C101.152 49.244 101.728 49.484 102.4 49.484C102.832 49.484 103.198 49.364 103.498 49.124C103.81 48.884 104.098 48.476 104.362 47.9L104.776 46.982L100.546 37.532H101.878L105.442 45.578L109.006 37.532H110.266ZM121.601 37.46C122.789 37.46 123.731 37.808 124.427 38.504C125.135 39.188 125.489 40.19 125.489 41.51V47H124.211V41.636C124.211 40.652 123.965 39.902 123.473 39.386C122.981 38.87 122.279 38.612 121.367 38.612C120.347 38.612 119.537 38.918 118.937 39.53C118.349 40.13 118.055 40.964 118.055 42.032V47H116.777V33.644H118.055V39.188C118.403 38.636 118.883 38.21 119.495 37.91C120.107 37.61 120.809 37.46 121.601 37.46ZM137.238 42.662H129.318C129.39 43.646 129.768 44.444 130.452 45.056C131.136 45.656 132 45.956 133.044 45.956C133.632 45.956 134.172 45.854 134.664 45.65C135.156 45.434 135.582 45.122 135.942 44.714L136.662 45.542C136.242 46.046 135.714 46.43 135.078 46.694C134.454 46.958 133.764 47.09 133.008 47.09C132.036 47.09 131.172 46.886 130.416 46.478C129.672 46.058 129.09 45.482 128.67 44.75C128.25 44.018 128.04 43.19 128.04 42.266C128.04 41.342 128.238 40.514 128.634 39.782C129.042 39.05 129.594 38.48 130.29 38.072C130.998 37.664 131.79 37.46 132.666 37.46C133.542 37.46 134.328 37.664 135.024 38.072C135.72 38.48 136.266 39.05 136.662 39.782C137.058 40.502 137.256 41.33 137.256 42.266L137.238 42.662ZM132.666 38.558C131.754 38.558 130.986 38.852 130.362 39.44C129.75 40.016 129.402 40.772 129.318 41.708H136.032C135.948 40.772 135.594 40.016 134.97 39.44C134.358 38.852 133.59 38.558 132.666 38.558ZM142.906 37.46C144.142 37.46 145.09 37.772 145.75 38.396C146.41 39.008 146.74 39.92 146.74 41.132V47H145.516V45.524C145.228 46.016 144.802 46.4 144.238 46.676C143.686 46.952 143.026 47.09 142.258 47.09C141.202 47.09 140.362 46.838 139.738 46.334C139.114 45.83 138.802 45.164 138.802 44.336C138.802 43.532 139.09 42.884 139.666 42.392C140.254 41.9 141.184 41.654 142.456 41.654H145.462V41.078C145.462 40.262 145.234 39.644 144.778 39.224C144.322 38.792 143.656 38.576 142.78 38.576C142.18 38.576 141.604 38.678 141.052 38.882C140.5 39.074 140.026 39.344 139.63 39.692L139.054 38.738C139.534 38.33 140.11 38.018 140.782 37.802C141.454 37.574 142.162 37.46 142.906 37.46ZM142.456 46.082C143.176 46.082 143.794 45.92 144.31 45.596C144.826 45.26 145.21 44.78 145.462 44.156V42.608H142.492C140.872 42.608 140.062 43.172 140.062 44.3C140.062 44.852 140.272 45.29 140.692 45.614C141.112 45.926 141.7 46.082 142.456 46.082ZM150.211 33.644H151.489V47H150.211V33.644ZM155.045 37.532H156.323V47H155.045V37.532ZM155.693 35.462C155.429 35.462 155.207 35.372 155.027 35.192C154.847 35.012 154.757 34.796 154.757 34.544C154.757 34.304 154.847 34.094 155.027 33.914C155.207 33.734 155.429 33.644 155.693 33.644C155.957 33.644 156.179 33.734 156.359 33.914C156.539 34.082 156.629 34.286 156.629 34.526C156.629 34.79 156.539 35.012 156.359 35.192C156.179 35.372 155.957 35.462 155.693 35.462ZM164.703 37.46C165.891 37.46 166.833 37.808 167.529 38.504C168.237 39.188 168.591 40.19 168.591 41.51V47H167.313V41.636C167.313 40.652 167.067 39.902 166.575 39.386C166.083 38.87 165.381 38.612 164.469 38.612C163.449 38.612 162.639 38.918 162.039 39.53C161.451 40.13 161.157 40.964 161.157 42.032V47H159.879V37.532H161.103V39.278C161.451 38.702 161.931 38.258 162.543 37.946C163.167 37.622 163.887 37.46 164.703 37.46ZM180.861 37.532V45.848C180.861 47.456 180.465 48.644 179.673 49.412C178.893 50.192 177.711 50.582 176.127 50.582C175.251 50.582 174.417 50.45 173.625 50.186C172.845 49.934 172.209 49.58 171.717 49.124L172.365 48.152C172.821 48.56 173.373 48.878 174.021 49.106C174.681 49.334 175.371 49.448 176.091 49.448C177.291 49.448 178.173 49.166 178.737 48.602C179.301 48.05 179.583 47.186 179.583 46.01V44.804C179.187 45.404 178.665 45.86 178.017 46.172C177.381 46.484 176.673 46.64 175.893 46.64C175.005 46.64 174.195 46.448 173.463 46.064C172.743 45.668 172.173 45.122 171.753 44.426C171.345 43.718 171.141 42.92 171.141 42.032C171.141 41.144 171.345 40.352 171.753 39.656C172.173 38.96 172.743 38.42 173.463 38.036C174.183 37.652 174.993 37.46 175.893 37.46C176.697 37.46 177.423 37.622 178.071 37.946C178.719 38.27 179.241 38.738 179.637 39.35V37.532H180.861ZM176.019 45.506C176.703 45.506 177.321 45.362 177.873 45.074C178.425 44.774 178.851 44.36 179.151 43.832C179.463 43.304 179.619 42.704 179.619 42.032C179.619 41.36 179.463 40.766 179.151 40.25C178.851 39.722 178.425 39.314 177.873 39.026C177.333 38.726 176.715 38.576 176.019 38.576C175.335 38.576 174.717 38.72 174.165 39.008C173.625 39.296 173.199 39.704 172.887 40.232C172.587 40.76 172.437 41.36 172.437 42.032C172.437 42.704 172.587 43.304 172.887 43.832C173.199 44.36 173.625 44.774 174.165 45.074C174.717 45.362 175.335 45.506 176.019 45.506ZM200.954 37.46C202.142 37.46 203.072 37.802 203.744 38.486C204.428 39.17 204.77 40.178 204.77 41.51V47H203.492V41.636C203.492 40.652 203.252 39.902 202.772 39.386C202.304 38.87 201.638 38.612 200.774 38.612C199.79 38.612 199.016 38.918 198.452 39.53C197.888 40.13 197.606 40.964 197.606 42.032V47H196.328V41.636C196.328 40.652 196.088 39.902 195.608 39.386C195.14 38.87 194.468 38.612 193.592 38.612C192.62 38.612 191.846 38.918 191.27 39.53C190.706 40.13 190.424 40.964 190.424 42.032V47H189.146V37.532H190.37V39.26C190.706 38.684 191.174 38.24 191.774 37.928C192.374 37.616 193.064 37.46 193.844 37.46C194.636 37.46 195.32 37.628 195.896 37.964C196.484 38.3 196.922 38.798 197.21 39.458C197.558 38.834 198.056 38.348 198.704 38C199.364 37.64 200.114 37.46 200.954 37.46ZM216.515 42.662H208.595C208.667 43.646 209.045 44.444 209.729 45.056C210.413 45.656 211.277 45.956 212.321 45.956C212.909 45.956 213.449 45.854 213.941 45.65C214.433 45.434 214.859 45.122 215.219 44.714L215.939 45.542C215.519 46.046 214.991 46.43 214.355 46.694C213.731 46.958 213.041 47.09 212.285 47.09C211.313 47.09 210.449 46.886 209.693 46.478C208.949 46.058 208.367 45.482 207.947 44.75C207.527 44.018 207.317 43.19 207.317 42.266C207.317 41.342 207.515 40.514 207.911 39.782C208.319 39.05 208.871 38.48 209.567 38.072C210.275 37.664 211.067 37.46 211.943 37.46C212.819 37.46 213.605 37.664 214.301 38.072C214.997 38.48 215.543 39.05 215.939 39.782C216.335 40.502 216.533 41.33 216.533 42.266L216.515 42.662ZM211.943 38.558C211.031 38.558 210.263 38.852 209.639 39.44C209.027 40.016 208.679 40.772 208.595 41.708H215.309C215.225 40.772 214.871 40.016 214.247 39.44C213.635 38.852 212.867 38.558 211.943 38.558ZM221.673 47.09C220.905 47.09 220.167 46.982 219.459 46.766C218.763 46.538 218.217 46.256 217.821 45.92L218.397 44.912C218.793 45.224 219.291 45.482 219.891 45.686C220.491 45.878 221.115 45.974 221.763 45.974C222.627 45.974 223.263 45.842 223.671 45.578C224.091 45.302 224.301 44.918 224.301 44.426C224.301 44.078 224.187 43.808 223.959 43.616C223.731 43.412 223.443 43.262 223.095 43.166C222.747 43.058 222.285 42.956 221.709 42.86C220.941 42.716 220.323 42.572 219.855 42.428C219.387 42.272 218.985 42.014 218.649 41.654C218.325 41.294 218.163 40.796 218.163 40.16C218.163 39.368 218.493 38.72 219.153 38.216C219.813 37.712 220.731 37.46 221.907 37.46C222.519 37.46 223.131 37.544 223.743 37.712C224.355 37.868 224.859 38.078 225.255 38.342L224.697 39.368C223.917 38.828 222.987 38.558 221.907 38.558C221.091 38.558 220.473 38.702 220.053 38.99C219.645 39.278 219.441 39.656 219.441 40.124C219.441 40.484 219.555 40.772 219.783 40.988C220.023 41.204 220.317 41.366 220.665 41.474C221.013 41.57 221.493 41.672 222.105 41.78C222.861 41.924 223.467 42.068 223.923 42.212C224.379 42.356 224.769 42.602 225.093 42.95C225.417 43.298 225.579 43.778 225.579 44.39C225.579 45.218 225.231 45.878 224.535 46.37C223.851 46.85 222.897 47.09 221.673 47.09ZM230.479 47.09C229.711 47.09 228.973 46.982 228.265 46.766C227.569 46.538 227.023 46.256 226.627 45.92L227.203 44.912C227.599 45.224 228.097 45.482 228.697 45.686C229.297 45.878 229.921 45.974 230.569 45.974C231.433 45.974 232.069 45.842 232.477 45.578C232.897 45.302 233.107 44.918 233.107 44.426C233.107 44.078 232.993 43.808 232.765 43.616C232.537 43.412 232.249 43.262 231.901 43.166C231.553 43.058 231.091 42.956 230.515 42.86C229.747 42.716 229.129 42.572 228.661 42.428C228.193 42.272 227.791 42.014 227.455 41.654C227.131 41.294 226.969 40.796 226.969 40.16C226.969 39.368 227.299 38.72 227.959 38.216C228.619 37.712 229.537 37.46 230.713 37.46C231.325 37.46 231.937 37.544 232.549 37.712C233.161 37.868 233.665 38.078 234.061 38.342L233.503 39.368C232.723 38.828 231.793 38.558 230.713 38.558C229.897 38.558 229.279 38.702 228.859 38.99C228.451 39.278 228.247 39.656 228.247 40.124C228.247 40.484 228.361 40.772 228.589 40.988C228.829 41.204 229.123 41.366 229.471 41.474C229.819 41.57 230.299 41.672 230.911 41.78C231.667 41.924 232.273 42.068 232.729 42.212C233.185 42.356 233.575 42.602 233.899 42.95C234.223 43.298 234.385 43.778 234.385 44.39C234.385 45.218 234.037 45.878 233.341 46.37C232.657 46.85 231.703 47.09 230.479 47.09ZM240.06 37.46C241.296 37.46 242.244 37.772 242.904 38.396C243.564 39.008 243.894 39.92 243.894 41.132V47H242.67V45.524C242.382 46.016 241.956 46.4 241.392 46.676C240.84 46.952 240.18 47.09 239.412 47.09C238.356 47.09 237.516 46.838 236.892 46.334C236.268 45.83 235.956 45.164 235.956 44.336C235.956 43.532 236.244 42.884 236.82 42.392C237.408 41.9 238.338 41.654 239.61 41.654H242.616V41.078C242.616 40.262 242.388 39.644 241.932 39.224C241.476 38.792 240.81 38.576 239.934 38.576C239.334 38.576 238.758 38.678 238.206 38.882C237.654 39.074 237.18 39.344 236.784 39.692L236.208 38.738C236.688 38.33 237.264 38.018 237.936 37.802C238.608 37.574 239.316 37.46 240.06 37.46ZM239.61 46.082C240.33 46.082 240.948 45.92 241.464 45.596C241.98 45.26 242.364 44.78 242.616 44.156V42.608H239.646C238.026 42.608 237.216 43.172 237.216 44.3C237.216 44.852 237.426 45.29 237.846 45.614C238.266 45.926 238.854 46.082 239.61 46.082ZM256.166 37.532V45.848C256.166 47.456 255.77 48.644 254.978 49.412C254.198 50.192 253.016 50.582 251.432 50.582C250.556 50.582 249.722 50.45 248.93 50.186C248.15 49.934 247.514 49.58 247.022 49.124L247.67 48.152C248.126 48.56 248.678 48.878 249.326 49.106C249.986 49.334 250.676 49.448 251.396 49.448C252.596 49.448 253.478 49.166 254.042 48.602C254.606 48.05 254.888 47.186 254.888 46.01V44.804C254.492 45.404 253.97 45.86 253.322 46.172C252.686 46.484 251.978 46.64 251.198 46.64C250.31 46.64 249.5 46.448 248.768 46.064C248.048 45.668 247.478 45.122 247.058 44.426C246.65 43.718 246.446 42.92 246.446 42.032C246.446 41.144 246.65 40.352 247.058 39.656C247.478 38.96 248.048 38.42 248.768 38.036C249.488 37.652 250.298 37.46 251.198 37.46C252.002 37.46 252.728 37.622 253.376 37.946C254.024 38.27 254.546 38.738 254.942 39.35V37.532H256.166ZM251.324 45.506C252.008 45.506 252.626 45.362 253.178 45.074C253.73 44.774 254.156 44.36 254.456 43.832C254.768 43.304 254.924 42.704 254.924 42.032C254.924 41.36 254.768 40.766 254.456 40.25C254.156 39.722 253.73 39.314 253.178 39.026C252.638 38.726 252.02 38.576 251.324 38.576C250.64 38.576 250.022 38.72 249.47 39.008C248.93 39.296 248.504 39.704 248.192 40.232C247.892 40.76 247.742 41.36 247.742 42.032C247.742 42.704 247.892 43.304 248.192 43.832C248.504 44.36 248.93 44.774 249.47 45.074C250.022 45.362 250.64 45.506 251.324 45.506ZM267.984 42.662H260.064C260.136 43.646 260.514 44.444 261.198 45.056C261.882 45.656 262.746 45.956 263.79 45.956C264.378 45.956 264.918 45.854 265.41 45.65C265.902 45.434 266.328 45.122 266.688 44.714L267.408 45.542C266.988 46.046 266.46 46.43 265.824 46.694C265.2 46.958 264.51 47.09 263.754 47.09C262.782 47.09 261.918 46.886 261.162 46.478C260.418 46.058 259.836 45.482 259.416 44.75C258.996 44.018 258.786 43.19 258.786 42.266C258.786 41.342 258.984 40.514 259.38 39.782C259.788 39.05 260.34 38.48 261.036 38.072C261.744 37.664 262.536 37.46 263.412 37.46C264.288 37.46 265.074 37.664 265.77 38.072C266.466 38.48 267.012 39.05 267.408 39.782C267.804 40.502 268.002 41.33 268.002 42.266L267.984 42.662ZM263.412 38.558C262.5 38.558 261.732 38.852 261.108 39.44C260.496 40.016 260.148 40.772 260.064 41.708H266.778C266.694 40.772 266.34 40.016 265.716 39.44C265.104 38.852 264.336 38.558 263.412 38.558ZM273.141 47.09C272.373 47.09 271.635 46.982 270.927 46.766C270.231 46.538 269.685 46.256 269.289 45.92L269.865 44.912C270.261 45.224 270.759 45.482 271.359 45.686C271.959 45.878 272.583 45.974 273.231 45.974C274.095 45.974 274.731 45.842 275.139 45.578C275.559 45.302 275.769 44.918 275.769 44.426C275.769 44.078 275.655 43.808 275.427 43.616C275.199 43.412 274.911 43.262 274.563 43.166C274.215 43.058 273.753 42.956 273.177 42.86C272.409 42.716 271.791 42.572 271.323 42.428C270.855 42.272 270.453 42.014 270.117 41.654C269.793 41.294 269.631 40.796 269.631 40.16C269.631 39.368 269.961 38.72 270.621 38.216C271.281 37.712 272.199 37.46 273.375 37.46C273.987 37.46 274.599 37.544 275.211 37.712C275.823 37.868 276.327 38.078 276.723 38.342L276.165 39.368C275.385 38.828 274.455 38.558 273.375 38.558C272.559 38.558 271.941 38.702 271.521 38.99C271.113 39.278 270.909 39.656 270.909 40.124C270.909 40.484 271.023 40.772 271.251 40.988C271.491 41.204 271.785 41.366 272.133 41.474C272.481 41.57 272.961 41.672 273.573 41.78C274.329 41.924 274.935 42.068 275.391 42.212C275.847 42.356 276.237 42.602 276.561 42.95C276.885 43.298 277.047 43.778 277.047 44.39C277.047 45.218 276.699 45.878 276.003 46.37C275.319 46.85 274.365 47.09 273.141 47.09Z" fill="#150A02"/>
</g>
<defs>
<filter id="filter0_d_367_11212" x="0" y="0" width="311" height="82" filterUnits="userSpaceOnUse" color-interpolation-filters="sRGB">
<feFlood flood-opacity="0" result="BackgroundImageFix"/>
<feColorMatrix in="SourceAlpha" type="matrix" values="0 0 0 0 0 0 0 0 0 0 0 0 0 0 0 0 0 0 127 0" result="hardAlpha"/>
<feMorphology radius="1" operator="dilate" in="SourceAlpha" result="effect1_dropShadow_367_11212"/>
<feOffset/>
<feGaussianBlur stdDeviation="8"/>
<feComposite in2="hardAlpha" operator="out"/>
<feColorMatrix type="matrix" values="0 0 0 0 0.0823529 0 0 0 0 0.0392157 0 0 0 0 0.00784314 0 0 0 0.08 0"/>
<feBlend mode="normal" in2="BackgroundImageFix" result="effect1_dropShadow_367_11212"/>
<feBlend mode="normal" in="SourceGraphic" in2="effect1_dropShadow_367_11212" result="shape"/>
</filter>
</defs>
</svg>
