<svg width="20" height="20" viewBox="0 0 20 20" fill="none" xmlns="http://www.w3.org/2000/svg">
<g clip-path="url(#clip0_3306_8824)">
<path d="M5.46875 0.78125V3.90625" stroke="black" stroke-width="1.2" stroke-miterlimit="10" stroke-linecap="round" stroke-linejoin="round"/>
<path d="M13.2812 0.78125V3.90625" stroke="black" stroke-width="1.2" stroke-miterlimit="10" stroke-linecap="round" stroke-linejoin="round"/>
<path d="M7.68371 17.9688H3.90625C2.18039 17.9688 0.78125 16.5696 0.78125 14.8438V5.46875C0.78125 3.74277 2.18039 2.34375 3.90625 2.34375H14.8438C16.5696 2.34375 17.9688 3.74277 17.9688 5.46875V7.03125H0.78125" stroke="black" stroke-width="1.2" stroke-miterlimit="10" stroke-linecap="round" stroke-linejoin="round"/>
<circle cx="3.90625" cy="10.1562" r="0.78125" fill="black"/>
<circle cx="7.03125" cy="10.1562" r="0.78125" fill="black"/>
<circle cx="3.90625" cy="13.2812" r="0.78125" fill="black"/>
<circle cx="7.03125" cy="13.2812" r="0.78125" fill="black"/>
<path d="M14.5312 19.2188C17.1201 19.2188 19.2188 17.1201 19.2188 14.5312C19.2188 11.9424 17.1201 9.84375 14.5312 9.84375C11.9424 9.84375 9.84375 11.9424 9.84375 14.5312C9.84375 17.1201 11.9424 19.2188 14.5312 19.2188Z" stroke="black" stroke-width="1.2" stroke-miterlimit="10" stroke-linecap="round" stroke-linejoin="round"/>
<path d="M14.5312 14.5312V12.9688" stroke="black" stroke-width="1.2" stroke-miterlimit="10" stroke-linecap="round" stroke-linejoin="round"/>
<path d="M16.0938 14.5312H14.5312" stroke="black" stroke-width="1.2" stroke-miterlimit="10" stroke-linecap="round" stroke-linejoin="round"/>
</g>
<defs>
<clipPath id="clip0_3306_8824">
<rect width="20" height="20" fill="white"/>
</clipPath>
</defs>
</svg>
