<svg width="16" height="17" viewBox="0 0 16 17" fill="none" xmlns="http://www.w3.org/2000/svg">
<g clip-path="url(#clip0_3251_6349)">
<path d="M15.5808 7.97479C15.544 7.92519 15.504 7.87773 15.4608 7.83293L9.24695 1.44519C8.55042 0.76306 7.43682 0.76306 6.74029 1.44519L0.527488 7.83346C-0.0682451 8.43986 0.0176215 9.4596 0.703488 9.95986H0.702422C1.09282 10.2537 1.63789 10.2868 2.07416 10.0761V14.4495C2.07469 15.3417 2.79789 16.0649 3.69016 16.066H4.62082C5.51362 16.0655 6.23682 15.3423 6.23789 14.4495V12.2095C6.25656 9.89106 9.65229 9.83399 9.75096 12.1481C9.75149 12.1684 9.75149 12.1887 9.75096 12.2095V14.4495C9.75149 15.3417 10.4747 16.0649 11.367 16.066H12.2966C13.1899 16.0655 13.9136 15.3417 13.9142 14.4484V11.9807C13.9088 11.4569 13.1184 11.4575 13.1142 11.9807V14.4484C13.1136 14.8991 12.7483 15.2644 12.2976 15.2649H11.367C10.9163 15.2644 10.551 14.8991 10.551 14.4484V12.2084C10.495 8.82706 5.59042 8.75826 5.43789 12.1348C5.43736 12.1593 5.43736 12.1839 5.43789 12.2084V14.4484C5.43736 14.8991 5.07202 15.2644 4.62082 15.2649H3.69176C3.24056 15.2655 2.87469 14.9007 2.87416 14.4495C2.87362 14.4489 2.87469 9.39826 2.87416 9.39773C3.68376 8.56946 5.83949 6.35399 6.67416 5.49586C6.82349 5.33266 6.81229 5.07933 6.64962 4.92999C6.49336 4.78706 6.25282 4.79026 6.10029 4.93746C5.20642 5.85533 3.05816 8.06119 2.19149 8.95559L1.93976 9.21426C1.38082 9.79879 0.561088 8.96679 1.10295 8.39133L7.31469 2.00359C7.69229 1.63399 8.29602 1.63399 8.67362 2.00359L14.8891 8.39293C15.4246 8.96999 14.6182 9.79986 14.0518 9.21533L8.28109 3.28413C7.91522 2.92146 7.35149 3.46279 7.70775 3.84199L13.4784 9.77266C14.6891 11.0303 16.6006 9.36999 15.5808 7.97479Z" fill="white"/>
</g>
<defs>
<clipPath id="clip0_3251_6349">
<rect width="16" height="16" fill="white" transform="translate(0 0.5)"/>
</clipPath>
</defs>
</svg>
