<svg width="221" height="16" viewBox="0 0 221 16" fill="none" xmlns="http://www.w3.org/2000/svg">
<g clip-path="url(#clip0_3446_39962)">
<path fill-rule="evenodd" clip-rule="evenodd" d="M70.5 1.33301C70.5 1.05687 70.7239 0.833008 71 0.833008C74.9581 0.833008 78.1667 4.04163 78.1667 7.99967C78.1667 11.9577 74.9581 15.1663 71 15.1663C67.042 15.1663 63.8334 11.9577 63.8334 7.99967C63.8334 7.72354 64.0572 7.49967 64.3334 7.49967C64.6095 7.49967 64.8334 7.72354 64.8334 7.99967C64.8334 11.4054 67.5943 14.1663 71 14.1663C74.4058 14.1663 77.1667 11.4054 77.1667 7.99967C77.1667 4.59392 74.4058 1.83301 71 1.83301C70.7239 1.83301 70.5 1.60915 70.5 1.33301ZM71 5.49967C71.2762 5.49967 71.5 5.72353 71.5 5.99967V8.16634H73.6667C73.9428 8.16634 74.1667 8.39021 74.1667 8.66634C74.1667 8.94247 73.9428 9.16634 73.6667 9.16634H71C70.7239 9.16634 70.5 8.94247 70.5 8.66634V5.99967C70.5 5.72353 70.7239 5.49967 71 5.49967Z" fill="#656565"/>
<path fill-rule="evenodd" clip-rule="evenodd" d="M69.0664 1.59742C69.1659 1.85503 69.0376 2.14449 68.78 2.24393C68.6857 2.28033 68.5926 2.31898 68.5006 2.35982C68.2482 2.47187 67.9527 2.3581 67.8407 2.10571C67.7287 1.85332 67.8424 1.55789 68.0948 1.44584C68.2018 1.39834 68.3102 1.35337 68.4199 1.31103C68.6775 1.21158 68.967 1.33981 69.0664 1.59742ZM66.7652 2.8259C66.9556 3.02587 66.9479 3.34236 66.7479 3.5328C66.6748 3.60243 66.6034 3.67383 66.5338 3.74695C66.3433 3.94691 66.0268 3.95464 65.8269 3.76419C65.6269 3.57375 65.6192 3.25727 65.8096 3.0573C65.8905 2.97241 65.9734 2.8895 66.0583 2.80865C66.2582 2.61821 66.5747 2.62593 66.7652 2.8259ZM65.1067 4.83973C65.3591 4.95177 65.4728 5.24721 65.3608 5.49959C65.32 5.59159 65.2813 5.68476 65.2449 5.77905C65.1455 6.03667 64.856 6.16489 64.5984 6.06545C64.3408 5.966 64.2126 5.67655 64.312 5.41893C64.3543 5.30923 64.3993 5.20084 64.4468 5.09384C64.5589 4.84145 64.8543 4.72768 65.1067 4.83973Z" fill="#656565"/>
</g>
<path d="M83.9824 11.995L83.9874 11.325L87.2424 8.385C87.5224 8.13167 87.7074 7.89167 87.7974 7.665C87.8908 7.435 87.9374 7.195 87.9374 6.945C87.9374 6.64833 87.8674 6.38 87.7274 6.14C87.5874 5.9 87.3991 5.71 87.1624 5.57C86.9258 5.42667 86.6608 5.355 86.3674 5.355C86.0608 5.355 85.7874 5.42833 85.5474 5.575C85.3074 5.72167 85.1174 5.915 84.9774 6.155C84.8408 6.395 84.7741 6.65667 84.7774 6.94H84.0274C84.0274 6.50333 84.1308 6.11167 84.3374 5.765C84.5441 5.41833 84.8241 5.14667 85.1774 4.95C85.5308 4.75 85.9308 4.65 86.3774 4.65C86.8141 4.65 87.2058 4.75333 87.5524 4.96C87.9024 5.16333 88.1774 5.44 88.3774 5.79C88.5808 6.13667 88.6824 6.52333 88.6824 6.95C88.6824 7.25 88.6458 7.515 88.5724 7.745C88.5024 7.97167 88.3908 8.18333 88.2374 8.38C88.0874 8.57333 87.8958 8.77333 87.6624 8.98L84.7724 11.59L84.6574 11.29H88.6824V11.995H83.9824ZM93.7855 12V9.245C93.7855 8.945 93.7572 8.67 93.7005 8.42C93.6439 8.16667 93.5522 7.94667 93.4255 7.76C93.3022 7.57 93.1405 7.42333 92.9405 7.32C92.7439 7.21667 92.5039 7.165 92.2205 7.165C91.9605 7.165 91.7305 7.21 91.5305 7.3C91.3339 7.39 91.1672 7.52 91.0305 7.69C90.8972 7.85667 90.7955 8.06 90.7255 8.3C90.6555 8.54 90.6205 8.81333 90.6205 9.12L90.1005 9.005C90.1005 8.45167 90.1972 7.98667 90.3905 7.61C90.5839 7.23333 90.8505 6.94833 91.1905 6.755C91.5305 6.56167 91.9205 6.465 92.3605 6.465C92.6839 6.465 92.9655 6.515 93.2055 6.615C93.4489 6.715 93.6539 6.85 93.8205 7.02C93.9905 7.19 94.1272 7.385 94.2305 7.605C94.3339 7.82167 94.4089 8.05333 94.4555 8.3C94.5022 8.54333 94.5255 8.78667 94.5255 9.03V12H93.7855ZM89.8805 12V4.8H90.5455V8.865H90.6205V12H89.8805ZM99.37 12.15C98.9633 12.15 98.6217 12.0767 98.345 11.93C98.0717 11.7833 97.8667 11.5883 97.73 11.345C97.5933 11.1017 97.525 10.8367 97.525 10.55C97.525 10.2567 97.5833 10.0067 97.7 9.8C97.82 9.59 97.9817 9.41833 98.185 9.285C98.3917 9.15167 98.63 9.05 98.9 8.98C99.1733 8.91333 99.475 8.855 99.805 8.805C100.138 8.75167 100.463 8.70667 100.78 8.67C101.1 8.63 101.38 8.59167 101.62 8.555L101.36 8.715C101.37 8.18167 101.267 7.78667 101.05 7.53C100.833 7.27333 100.457 7.145 99.92 7.145C99.55 7.145 99.2367 7.22833 98.98 7.395C98.7267 7.56167 98.5483 7.825 98.445 8.185L97.73 7.975C97.8533 7.49167 98.1017 7.11667 98.475 6.85C98.8483 6.58333 99.3333 6.45 99.93 6.45C100.423 6.45 100.842 6.54333 101.185 6.73C101.532 6.91333 101.777 7.18 101.92 7.53C101.987 7.68667 102.03 7.86167 102.05 8.055C102.07 8.24833 102.08 8.445 102.08 8.645V12H101.425V10.645L101.615 10.725C101.432 11.1883 101.147 11.5417 100.76 11.785C100.373 12.0283 99.91 12.15 99.37 12.15ZM99.455 11.515C99.7983 11.515 100.098 11.4533 100.355 11.33C100.612 11.2067 100.818 11.0383 100.975 10.825C101.132 10.6083 101.233 10.365 101.28 10.095C101.32 9.92167 101.342 9.73167 101.345 9.525C101.348 9.315 101.35 9.15833 101.35 9.055L101.63 9.2C101.38 9.23333 101.108 9.26667 100.815 9.3C100.525 9.33333 100.238 9.37167 99.955 9.415C99.675 9.45833 99.4217 9.51 99.195 9.57C99.0417 9.61333 98.8933 9.675 98.75 9.755C98.6067 9.83167 98.4883 9.935 98.395 10.065C98.305 10.195 98.26 10.3567 98.26 10.55C98.26 10.7067 98.2983 10.8583 98.375 11.005C98.455 11.1517 98.5817 11.2733 98.755 11.37C98.9317 11.4667 99.165 11.515 99.455 11.515ZM105.527 14.55C105.25 14.55 104.977 14.5083 104.707 14.425C104.44 14.345 104.193 14.2167 103.967 14.04C103.74 13.8667 103.55 13.64 103.397 13.36L104.062 12.99C104.212 13.29 104.422 13.505 104.692 13.635C104.965 13.7683 105.243 13.835 105.527 13.835C105.917 13.835 106.232 13.7617 106.472 13.615C106.715 13.4717 106.892 13.2583 107.002 12.975C107.112 12.6917 107.165 12.3383 107.162 11.915V10.475H107.247V6.6H107.902V11.925C107.902 12.0783 107.897 12.225 107.887 12.365C107.88 12.5083 107.865 12.6483 107.842 12.785C107.778 13.1883 107.647 13.52 107.447 13.78C107.25 14.04 106.99 14.2333 106.667 14.36C106.347 14.4867 105.967 14.55 105.527 14.55ZM105.477 12.15C104.973 12.15 104.543 12.025 104.187 11.775C103.83 11.5217 103.557 11.18 103.367 10.75C103.177 10.32 103.082 9.835 103.082 9.295C103.082 8.75833 103.175 8.275 103.362 7.845C103.552 7.415 103.823 7.075 104.177 6.825C104.53 6.575 104.953 6.45 105.447 6.45C105.953 6.45 106.38 6.57333 106.727 6.82C107.073 7.06667 107.335 7.405 107.512 7.835C107.692 8.26167 107.782 8.74833 107.782 9.295C107.782 9.83167 107.693 10.3167 107.517 10.75C107.34 11.18 107.08 11.5217 106.737 11.775C106.393 12.025 105.973 12.15 105.477 12.15ZM105.552 11.465C105.935 11.465 106.252 11.3717 106.502 11.185C106.752 10.9983 106.938 10.7417 107.062 10.415C107.185 10.085 107.247 9.71167 107.247 9.295C107.247 8.87167 107.185 8.49833 107.062 8.175C106.938 7.84833 106.752 7.59333 106.502 7.41C106.255 7.22667 105.943 7.135 105.567 7.135C105.18 7.135 104.86 7.23 104.607 7.42C104.353 7.61 104.165 7.86833 104.042 8.195C103.922 8.52167 103.862 8.88833 103.862 9.295C103.862 9.705 103.923 10.075 104.047 10.405C104.173 10.7317 104.362 10.99 104.612 11.18C104.862 11.37 105.175 11.465 105.552 11.465ZM111.555 12.15C111.018 12.15 110.56 12.0283 110.18 11.785C109.8 11.5417 109.508 11.205 109.305 10.775C109.101 10.345 109 9.85167 109 9.295C109 8.72833 109.103 8.23167 109.31 7.805C109.516 7.37833 109.81 7.04667 110.19 6.81C110.573 6.57 111.028 6.45 111.555 6.45C112.095 6.45 112.555 6.57167 112.935 6.815C113.318 7.055 113.61 7.39 113.81 7.82C114.013 8.24667 114.115 8.73833 114.115 9.295C114.115 9.86167 114.013 10.36 113.81 10.79C113.606 11.2167 113.313 11.55 112.93 11.79C112.546 12.03 112.088 12.15 111.555 12.15ZM111.555 11.445C112.155 11.445 112.601 11.2467 112.895 10.85C113.188 10.45 113.335 9.93167 113.335 9.295C113.335 8.64167 113.186 8.12167 112.89 7.735C112.596 7.34833 112.151 7.155 111.555 7.155C111.151 7.155 110.818 7.24667 110.555 7.43C110.295 7.61 110.1 7.86167 109.97 8.185C109.843 8.505 109.78 8.875 109.78 9.295C109.78 9.945 109.93 10.4667 110.23 10.86C110.53 11.25 110.971 11.445 111.555 11.445Z" fill="#656565"/>
<path fill-rule="evenodd" clip-rule="evenodd" d="M137 3.16699C135.987 3.16699 135.167 3.98781 135.167 5.00033C135.167 6.01285 135.987 6.83366 137 6.83366C138.013 6.83366 138.833 6.01285 138.833 5.00033C138.833 3.98781 138.013 3.16699 137 3.16699ZM134.167 5.00033C134.167 3.43552 135.435 2.16699 137 2.16699C138.565 2.16699 139.833 3.43552 139.833 5.00033C139.833 6.56513 138.565 7.83366 137 7.83366C135.435 7.83366 134.167 6.56513 134.167 5.00033ZM135.486 10.0817L135.367 10.1007C134.291 10.2723 133.5 11.1999 133.5 12.289C133.5 12.5898 133.744 12.8337 134.045 12.8337H139.955C140.256 12.8337 140.5 12.5898 140.5 12.289C140.5 11.1999 139.709 10.2723 138.633 10.1007L138.514 10.0817C137.511 9.92159 136.489 9.92159 135.486 10.0817ZM135.328 9.09419C136.436 8.91739 137.564 8.91739 138.672 9.09419L138.791 9.11312C140.352 9.36219 141.5 10.7085 141.5 12.289C141.5 13.1421 140.808 13.8337 139.955 13.8337H134.045C133.192 13.8337 132.5 13.1421 132.5 12.289C132.5 10.7085 133.648 9.36219 135.209 9.11312L135.328 9.09419Z" fill="#656565"/>
<path fill-rule="evenodd" clip-rule="evenodd" d="M140.5 2.66699C140.5 2.39085 140.724 2.16699 141 2.16699C142.565 2.16699 143.833 3.43552 143.833 5.00033C143.833 6.56513 142.565 7.83366 141 7.83366C140.724 7.83366 140.5 7.60979 140.5 7.33366C140.5 7.05753 140.724 6.83366 141 6.83366C142.013 6.83366 142.833 6.01285 142.833 5.00033C142.833 3.98781 142.013 3.16699 141 3.16699C140.724 3.16699 140.5 2.94313 140.5 2.66699ZM141.327 9.58792C141.327 9.31179 141.551 9.08792 141.827 9.08792H142.473C142.579 9.08792 142.686 9.09632 142.791 9.11312C144.352 9.36219 145.5 10.7085 145.5 12.289C145.5 13.1421 144.808 13.8337 143.955 13.8337H142.593C142.317 13.8337 142.093 13.6098 142.093 13.3337C142.093 13.0575 142.317 12.8337 142.593 12.8337H143.955C144.256 12.8337 144.5 12.5898 144.5 12.289C144.5 11.1999 143.709 10.2723 142.633 10.1007C142.58 10.0922 142.527 10.0879 142.473 10.0879H141.827C141.551 10.0879 141.327 9.86406 141.327 9.58792Z" fill="#656565"/>
<path d="M153.255 12V5.62L151.9 6.435V5.61L153.255 4.8H154V12H153.255ZM155.696 11.995L155.701 11.325L158.956 8.385C159.236 8.13167 159.421 7.89167 159.511 7.665C159.605 7.435 159.651 7.195 159.651 6.945C159.651 6.64833 159.581 6.38 159.441 6.14C159.301 5.9 159.113 5.71 158.876 5.57C158.64 5.42667 158.375 5.355 158.081 5.355C157.775 5.355 157.501 5.42833 157.261 5.575C157.021 5.72167 156.831 5.915 156.691 6.155C156.555 6.395 156.488 6.65667 156.491 6.94H155.741C155.741 6.50333 155.845 6.11167 156.051 5.765C156.258 5.41833 156.538 5.14667 156.891 4.95C157.245 4.75 157.645 4.65 158.091 4.65C158.528 4.65 158.92 4.75333 159.266 4.96C159.616 5.16333 159.891 5.44 160.091 5.79C160.295 6.13667 160.396 6.52333 160.396 6.95C160.396 7.25 160.36 7.515 160.286 7.745C160.216 7.97167 160.105 8.18333 159.951 8.38C159.801 8.57333 159.61 8.77333 159.376 8.98L156.486 11.59L156.371 11.29H160.396V11.995H155.696ZM163.794 12.15C163.344 12.15 162.946 12.06 162.599 11.88C162.256 11.7 161.986 11.4483 161.789 11.125C161.596 10.7983 161.499 10.4167 161.499 9.98C161.499 9.53333 161.608 9.13667 161.824 8.79C162.041 8.44 162.371 8.175 162.814 7.995L162.804 8.285C162.434 8.14833 162.153 7.925 161.959 7.615C161.766 7.305 161.669 6.96167 161.669 6.585C161.669 6.185 161.761 5.84167 161.944 5.555C162.128 5.265 162.378 5.04167 162.694 4.885C163.014 4.72833 163.381 4.65 163.794 4.65C164.208 4.65 164.574 4.72833 164.894 4.885C165.214 5.04167 165.466 5.265 165.649 5.555C165.833 5.84167 165.924 6.185 165.924 6.585C165.924 6.96167 165.831 7.30333 165.644 7.61C165.461 7.91667 165.179 8.14167 164.799 8.285L164.774 7.995C165.218 8.17167 165.549 8.435 165.769 8.785C165.993 9.135 166.104 9.53333 166.104 9.98C166.104 10.4167 166.006 10.7983 165.809 11.125C165.613 11.4483 165.341 11.7 164.994 11.88C164.648 12.06 164.248 12.15 163.794 12.15ZM163.794 11.445C164.248 11.445 164.616 11.32 164.899 11.07C165.183 10.8167 165.324 10.4533 165.324 9.98C165.324 9.5 165.184 9.13667 164.904 8.89C164.624 8.64 164.254 8.515 163.794 8.515C163.334 8.515 162.966 8.64 162.689 8.89C162.413 9.13667 162.274 9.5 162.274 9.98C162.274 10.4533 162.414 10.8167 162.694 11.07C162.974 11.32 163.341 11.445 163.794 11.445ZM163.794 7.805C164.194 7.805 164.519 7.70333 164.769 7.5C165.019 7.29333 165.144 6.98833 165.144 6.585C165.144 6.18167 165.019 5.88 164.769 5.68C164.519 5.47667 164.194 5.375 163.794 5.375C163.394 5.375 163.069 5.47667 162.819 5.68C162.573 5.88 162.449 6.18167 162.449 6.585C162.449 6.98833 162.573 7.29333 162.819 7.5C163.069 7.70333 163.394 7.805 163.794 7.805Z" fill="#656565"/>
<g clip-path="url(#clip1_3446_39962)">
<path fill-rule="evenodd" clip-rule="evenodd" d="M196.45 5.58636C196.217 4.36275 195.627 3.19319 194.681 2.24643C192.171 -0.267038 188.101 -0.267038 185.59 2.24643C184.825 3.01317 184.148 4.14814 183.853 5.40821C183.555 6.67591 183.638 8.09988 184.441 9.39477C184.482 9.46106 184.508 9.50218 184.526 9.53285C184.534 9.54704 184.539 9.55511 184.54 9.55859C184.542 9.56304 184.543 9.56611 184.544 9.56805C184.544 9.57035 184.544 9.57424 184.543 9.58016C184.543 9.58294 184.542 9.58892 184.539 9.59929C184.533 9.62558 184.524 9.66078 184.508 9.72298L184.503 9.74106C184.411 10.0976 184.335 10.3907 184.291 10.6275C184.246 10.8658 184.22 11.1064 184.268 11.3413C184.404 12.0112 184.927 12.5352 185.597 12.6717C185.832 12.7196 186.072 12.6936 186.31 12.6486C186.547 12.604 186.84 12.5279 187.196 12.4355L187.214 12.4309C187.276 12.4147 187.311 12.4057 187.337 12.3997C187.348 12.3974 187.353 12.3962 187.356 12.3957C187.362 12.3954 187.365 12.3953 187.368 12.3953C187.37 12.3959 187.373 12.3969 187.377 12.3984C187.38 12.4002 187.388 12.4046 187.403 12.4129C187.434 12.431 187.475 12.4566 187.542 12.4979C187.973 12.7646 188.422 12.9512 188.876 13.0693C189.045 13.3043 189.235 13.5285 189.445 13.7393C190.066 14.3605 191.013 14.9243 192.069 15.1772C193.132 15.4318 194.343 15.3784 195.439 14.7004C195.492 14.6675 195.524 14.6475 195.548 14.6334C195.567 14.638 195.594 14.6447 195.637 14.6561L195.655 14.6606C195.946 14.7361 196.189 14.7994 196.387 14.8367C196.587 14.8744 196.799 14.8986 197.01 14.8555C197.598 14.7357 198.057 14.2758 198.177 13.688C198.22 13.4767 198.196 13.2643 198.158 13.0648C198.121 12.8666 198.058 12.6227 197.982 12.3314L197.978 12.3139C197.966 12.2698 197.959 12.2434 197.955 12.2242C197.969 12.2004 197.989 12.1682 198.022 12.1152C198.699 11.0238 198.767 9.82503 198.518 8.76256C198.27 7.70767 197.705 6.75784 197.062 6.11468C196.869 5.92089 196.664 5.74475 196.45 5.58636ZM193.943 2.98381C191.84 0.878475 188.431 0.878475 186.329 2.98381C185.696 3.61763 185.119 4.58138 184.869 5.64666C184.62 6.7043 184.7 7.83226 185.328 8.84451C185.334 8.85404 185.34 8.86371 185.346 8.87352C185.406 8.96965 185.47 9.07317 185.508 9.16722C185.574 9.33404 185.597 9.48492 185.583 9.66391C185.576 9.76451 185.549 9.86823 185.525 9.95929C185.523 9.96778 185.52 9.97619 185.518 9.98447C185.42 10.3636 185.353 10.6225 185.316 10.8206C185.278 11.0211 185.283 11.1004 185.29 11.1335C185.343 11.3937 185.546 11.5965 185.805 11.6492C185.838 11.6559 185.916 11.6611 186.117 11.6232C186.314 11.5859 186.573 11.5191 186.952 11.4209C186.96 11.4187 186.968 11.4165 186.977 11.4142C187.068 11.3905 187.171 11.3634 187.272 11.3557C187.45 11.3418 187.6 11.3645 187.767 11.4306C187.861 11.4678 187.965 11.5324 188.061 11.5923C188.071 11.5985 188.081 11.6045 188.091 11.6105C188.11 11.6222 188.129 11.6338 188.148 11.6452C187.519 9.76694 187.951 7.61098 189.445 6.11468C190.994 4.56397 193.251 4.15533 195.173 4.88805C194.911 4.19388 194.502 3.543 193.943 2.98381ZM195.68 6.31973C193.992 5.1779 191.678 5.35576 190.184 6.85207C188.702 8.33605 188.514 10.6273 189.624 12.3146C189.783 12.5573 189.97 12.7877 190.184 13.0019C190.668 13.487 191.444 13.9546 192.312 14.1624C193.172 14.3685 194.084 14.3117 194.89 13.8131C194.898 13.8081 194.906 13.803 194.914 13.7978C194.992 13.7495 195.085 13.6915 195.171 13.6576C195.321 13.598 195.458 13.5772 195.62 13.5897C195.711 13.5967 195.805 13.6213 195.878 13.6405C195.885 13.6423 195.892 13.6442 195.899 13.646C196.212 13.7273 196.422 13.7813 196.581 13.8113C196.742 13.8419 196.793 13.8348 196.802 13.833C196.979 13.797 197.118 13.6583 197.154 13.4801C197.156 13.4708 197.163 13.4197 197.133 13.2579C197.103 13.0985 197.049 12.8888 196.967 12.5754C196.966 12.5685 196.964 12.5614 196.962 12.5541C196.943 12.4807 196.918 12.387 196.911 12.2953C196.899 12.134 196.92 11.9956 196.98 11.8452C197.014 11.7594 197.072 11.6665 197.12 11.5893C197.125 11.581 197.13 11.5729 197.135 11.5649C197.637 10.7562 197.702 9.85341 197.502 9.00096C197.3 8.14085 196.834 7.36228 196.324 6.85207C196.123 6.65045 195.907 6.47308 195.68 6.31973Z" fill="#656565"/>
<path d="M191.868 9.9271C191.868 10.3113 191.557 10.6227 191.173 10.6227C190.788 10.6227 190.477 10.3113 190.477 9.9271C190.477 9.54289 190.788 9.23145 191.173 9.23145C191.557 9.23145 191.868 9.54289 191.868 9.9271Z" fill="#656565"/>
<path d="M193.955 9.9271C193.955 10.3113 193.644 10.6227 193.259 10.6227C192.875 10.6227 192.564 10.3113 192.564 9.9271C192.564 9.54289 192.875 9.23145 193.259 9.23145C193.644 9.23145 193.955 9.54289 193.955 9.9271Z" fill="#656565"/>
<path d="M196.042 9.9271C196.042 10.3113 195.731 10.6227 195.346 10.6227C194.962 10.6227 194.651 10.3113 194.651 9.9271C194.651 9.54289 194.962 9.23145 195.346 9.23145C195.731 9.23145 196.042 9.54289 196.042 9.9271Z" fill="#656565"/>
</g>
<path d="M203.662 11.995L203.667 11.325L206.922 8.385C207.202 8.13167 207.387 7.89167 207.477 7.665C207.57 7.435 207.617 7.195 207.617 6.945C207.617 6.64833 207.547 6.38 207.407 6.14C207.267 5.9 207.079 5.71 206.842 5.57C206.605 5.42667 206.34 5.355 206.047 5.355C205.74 5.355 205.467 5.42833 205.227 5.575C204.987 5.72167 204.797 5.915 204.657 6.155C204.52 6.395 204.454 6.65667 204.457 6.94H203.707C203.707 6.50333 203.81 6.11167 204.017 5.765C204.224 5.41833 204.504 5.14667 204.857 4.95C205.21 4.75 205.61 4.65 206.057 4.65C206.494 4.65 206.885 4.75333 207.232 4.96C207.582 5.16333 207.857 5.44 208.057 5.79C208.26 6.13667 208.362 6.52333 208.362 6.95C208.362 7.25 208.325 7.515 208.252 7.745C208.182 7.97167 208.07 8.18333 207.917 8.38C207.767 8.57333 207.575 8.77333 207.342 8.98L204.452 11.59L204.337 11.29H208.362V11.995H203.662ZM211.69 12.15C211.317 12.15 210.972 12.0733 210.655 11.92C210.339 11.7667 210.069 11.555 209.845 11.285C209.622 11.015 209.462 10.705 209.365 10.355L210.07 10.165C210.134 10.425 210.249 10.65 210.415 10.84C210.582 11.0267 210.777 11.1717 211 11.275C211.227 11.3783 211.464 11.43 211.71 11.43C212.03 11.43 212.317 11.3533 212.57 11.2C212.827 11.0433 213.03 10.8367 213.18 10.58C213.33 10.3233 213.405 10.0417 213.405 9.735C213.405 9.41833 213.327 9.13333 213.17 8.88C213.014 8.62333 212.807 8.42 212.55 8.27C212.294 8.12 212.014 8.045 211.71 8.045C211.37 8.045 211.077 8.12 210.83 8.27C210.584 8.41667 210.387 8.60167 210.24 8.825L209.57 8.545L209.79 4.8H213.635V5.505H210.115L210.48 5.16L210.285 8.355L210.1 8.11C210.307 7.87333 210.557 7.68833 210.85 7.555C211.144 7.42167 211.452 7.355 211.775 7.355C212.219 7.355 212.619 7.46167 212.975 7.675C213.332 7.885 213.615 8.17 213.825 8.53C214.035 8.89 214.14 9.29167 214.14 9.735C214.14 10.175 214.029 10.5783 213.805 10.945C213.582 11.3083 213.285 11.6 212.915 11.82C212.545 12.04 212.137 12.15 211.69 12.15ZM217.772 12.15C217.322 12.15 216.912 12.0417 216.542 11.825C216.175 11.605 215.882 11.3083 215.662 10.935C215.445 10.5583 215.337 10.135 215.337 9.665V7.17C215.337 6.68667 215.445 6.25667 215.662 5.88C215.878 5.5 216.173 5.20167 216.547 4.985C216.923 4.765 217.35 4.655 217.827 4.655C218.237 4.655 218.617 4.745 218.967 4.925C219.32 5.105 219.608 5.35667 219.832 5.68L219.267 6.145C219.113 5.905 218.91 5.71333 218.657 5.57C218.403 5.42667 218.127 5.355 217.827 5.355C217.49 5.355 217.19 5.43667 216.927 5.6C216.663 5.76333 216.457 5.97833 216.307 6.245C216.157 6.50833 216.082 6.795 216.082 7.105V8.675L215.897 8.465C216.107 8.135 216.382 7.86833 216.722 7.665C217.065 7.46167 217.438 7.36 217.842 7.36C218.288 7.36 218.69 7.46667 219.047 7.68C219.403 7.89 219.687 8.175 219.897 8.535C220.107 8.895 220.212 9.29833 220.212 9.745C220.212 10.1883 220.1 10.5917 219.877 10.955C219.657 11.3183 219.362 11.6083 218.992 11.825C218.625 12.0417 218.218 12.15 217.772 12.15ZM217.772 11.435C218.085 11.435 218.37 11.36 218.627 11.21C218.887 11.06 219.092 10.8567 219.242 10.6C219.395 10.3433 219.472 10.0583 219.472 9.745C219.472 9.43167 219.395 9.14667 219.242 8.89C219.092 8.63 218.888 8.425 218.632 8.275C218.375 8.12167 218.09 8.045 217.777 8.045C217.463 8.045 217.178 8.12167 216.922 8.275C216.665 8.425 216.46 8.63 216.307 8.89C216.157 9.14667 216.082 9.43167 216.082 9.745C216.082 10.055 216.157 10.3383 216.307 10.595C216.457 10.8517 216.66 11.0567 216.917 11.21C217.173 11.36 217.458 11.435 217.772 11.435Z" fill="#656565"/>
<defs>
<clipPath id="clip0_3446_39962">
<rect width="16" height="16" fill="white" transform="translate(63)"/>
</clipPath>
<clipPath id="clip1_3446_39962">
<rect width="16" height="16" fill="white" transform="translate(183)"/>
</clipPath>
</defs>
</svg>
