<svg width="44" height="44" viewBox="0 0 44 44" fill="none" xmlns="http://www.w3.org/2000/svg">
<path d="M22 43.0938C33.6498 43.0938 43.0938 33.6498 43.0938 22C43.0938 10.3502 33.6498 0.90625 22 0.90625C10.3502 0.90625 0.90625 10.3502 0.90625 22C0.90625 33.6498 10.3502 43.0938 22 43.0938Z" fill="url(#paint0_linear_1376_52992)"/>
<path d="M26.4816 10.2812H17.5285C13.5348 10.2812 10.291 13.525 10.291 17.5187V26.4719C10.291 30.4656 13.5348 33.7094 17.5285 33.7094H26.4816C30.4754 33.7094 33.7191 30.4656 33.7191 26.4719V17.5187C33.7191 13.525 30.4754 10.2812 26.4816 10.2812ZM31.1035 26.4812C31.1035 29.0312 29.0316 31.1125 26.4723 31.1125H17.5191C14.9691 31.1125 12.8879 29.0406 12.8879 26.4812V17.5281C12.8879 14.9781 14.9598 12.8969 17.5191 12.8969H26.4723C29.0223 12.8969 31.1035 14.9688 31.1035 17.5281V26.4812Z" fill="white"/>
<path d="M22.0004 16.0098C18.7004 16.0098 16.0098 18.7004 16.0098 22.0004C16.0098 25.3004 18.7004 27.991 22.0004 27.991C25.3004 27.991 27.991 25.3004 27.991 22.0004C27.991 18.7004 25.3004 16.0098 22.0004 16.0098ZM22.0004 25.6379C19.9941 25.6379 18.3629 24.0066 18.3629 22.0004C18.3629 19.9941 19.9941 18.3629 22.0004 18.3629C24.0066 18.3629 25.6379 19.9941 25.6379 22.0004C25.6379 24.0066 24.0066 25.6379 22.0004 25.6379Z" fill="white"/>
<path d="M28.4474 16.6658C28.9993 16.5763 29.3742 16.0564 29.2847 15.5044C29.1952 14.9525 28.6753 14.5776 28.1234 14.6671C27.5714 14.7566 27.1966 15.2765 27.286 15.8284C27.3755 16.3804 27.8954 16.7552 28.4474 16.6658Z" fill="white"/>
<defs>
<linearGradient id="paint0_linear_1376_52992" x1="5.93866" y1="38.0613" x2="35.9152" y2="8.08478" gradientUnits="userSpaceOnUse">
<stop stop-color="#FEE411"/>
<stop offset="0.0518459" stop-color="#FEDB16"/>
<stop offset="0.1381" stop-color="#FEC125"/>
<stop offset="0.2481" stop-color="#FE983D"/>
<stop offset="0.3762" stop-color="#FE5F5E"/>
<stop offset="0.5" stop-color="#FE2181"/>
<stop offset="1" stop-color="#9000DC"/>
</linearGradient>
</defs>
</svg>
