<svg width="221" height="82" viewBox="0 0 221 82" fill="none" xmlns="http://www.w3.org/2000/svg">
<g filter="url(#filter0_d_395_14303)">
<rect x="8" y="17" width="196" height="48" rx="24" fill="white" fill-opacity="0.56" shape-rendering="crispEdges"/>
<g clip-path="url(#clip0_395_14303)">
<path d="M47.2162 40.4375C47.067 40.4375 46.924 40.4967 46.8185 40.6022C46.713 40.7077 46.6537 40.8508 46.6537 41C46.6536 43.107 46.0286 45.1668 44.8579 46.9187C43.6871 48.6706 42.0232 50.036 40.0765 50.8422C38.1297 51.6484 35.9877 51.8593 33.9211 51.4482C31.8545 51.037 29.9563 50.0223 28.4664 48.5323C26.9765 47.0423 25.9619 45.144 25.5509 43.0774C25.1399 41.0108 25.3509 38.8687 26.1573 36.922C26.9637 34.9753 28.3292 33.3115 30.0812 32.1409C31.8331 30.9703 33.8929 30.3455 36 30.3455C36.1492 30.3455 36.2922 30.2862 36.3977 30.1807C36.5032 30.0752 36.5625 29.9321 36.5625 29.783C36.5625 29.6338 36.5032 29.4907 36.3977 29.3852C36.2922 29.2797 36.1492 29.2205 36 29.2205C33.6702 29.2203 31.3927 29.911 29.4554 31.2053C27.5182 32.4996 26.0083 34.3392 25.1166 36.4916C24.2249 38.644 23.9916 41.0125 24.446 43.2976C24.9004 45.5826 26.0222 47.6816 27.6696 49.3291C29.317 50.9765 31.4159 52.0985 33.7009 52.5531C35.9859 53.0076 38.3544 52.7744 40.5069 51.8829C42.6593 50.9913 44.4991 49.4815 45.7935 47.5444C47.0879 45.6072 47.7787 43.3298 47.7787 41C47.7787 40.8508 47.7195 40.7077 47.614 40.6022C47.5085 40.4967 47.3654 40.4375 47.2162 40.4375Z" fill="#150A02"/>
<path d="M36.0233 46.2759C37.0163 46.2764 37.9974 46.0604 38.8984 45.6431C39.7993 45.2258 40.5985 44.6171 41.2403 43.8594C41.2882 43.8031 41.3244 43.7379 41.347 43.6676C41.3696 43.5972 41.3782 43.5231 41.3722 43.4494C41.3661 43.3758 41.3457 43.3041 41.3119 43.2383C41.2782 43.1726 41.2318 43.1141 41.1755 43.0663C41.1191 43.0185 41.0539 42.9822 40.9836 42.9596C40.9132 42.937 40.8391 42.9285 40.7655 42.9345C40.6918 42.9405 40.6201 42.961 40.5543 42.9947C40.4886 43.0285 40.4302 43.0749 40.3823 43.1312C39.8491 43.7606 39.1858 44.2671 38.4382 44.6158C37.6905 44.9644 36.8762 45.147 36.0512 45.1509C35.2263 45.1548 34.4102 44.98 33.6593 44.6385C32.9084 44.2969 32.2403 43.7968 31.7011 43.1724C31.6034 43.0596 31.4649 42.9901 31.316 42.9793C31.1672 42.9686 31.0201 43.0174 30.9072 43.1151C30.7943 43.2127 30.7249 43.3512 30.7141 43.5001C30.7034 43.649 30.7522 43.7961 30.8498 43.9089C31.4917 44.6518 32.286 45.2477 33.1787 45.6561C34.0714 46.0646 35.0416 46.276 36.0233 46.2759Z" fill="#150A02"/>
<path d="M31.3898 38.5189H31.3935C31.5953 38.4204 31.8169 38.3691 32.0415 38.3689C32.4393 38.3689 32.8209 38.5269 33.1022 38.8082C33.3835 39.0895 33.5415 39.4711 33.5415 39.8689C33.5415 40.0181 33.6008 40.1612 33.7063 40.2666C33.8118 40.3721 33.9548 40.4314 34.104 40.4314C34.2532 40.4314 34.3963 40.3721 34.5018 40.2666C34.6073 40.1612 34.6665 40.0181 34.6665 39.8689C34.6665 39.1727 34.39 38.505 33.8977 38.0127C33.4054 37.5205 32.7377 37.2439 32.0415 37.2439C31.6699 37.245 31.3029 37.3258 30.9653 37.4809C30.95 37.4879 30.9352 37.4959 30.921 37.5049C30.4732 37.7166 30.0946 38.0509 29.8291 38.4691C29.5636 38.8872 29.4221 39.3721 29.421 39.8674C29.421 40.0166 29.4803 40.1597 29.5858 40.2651C29.6913 40.3706 29.8343 40.4299 29.9835 40.4299C30.1327 40.4299 30.2758 40.3706 30.3813 40.2651C30.4868 40.1597 30.546 40.0166 30.546 39.8674C30.5461 39.5861 30.6252 39.3105 30.7744 39.0721C30.9236 38.8336 31.1368 38.642 31.3898 38.5189Z" fill="#150A02"/>
<path d="M42.0637 40.4248C42.2129 40.4248 42.356 40.3655 42.4615 40.2601C42.567 40.1546 42.6262 40.0115 42.6262 39.8623C42.6262 39.5176 42.5583 39.1762 42.4264 38.8578C42.2945 38.5393 42.1011 38.2499 41.8574 38.0061C41.6136 37.7624 41.3242 37.569 41.0058 37.4371C40.6873 37.3052 40.3459 37.2373 40.0012 37.2373C39.6565 37.2373 39.3152 37.3052 38.9967 37.4371C38.6782 37.569 38.3888 37.7624 38.1451 38.0061C37.9013 38.2499 37.708 38.5393 37.576 38.8578C37.4441 39.1762 37.3762 39.5176 37.3762 39.8623C37.3762 40.0115 37.4355 40.1546 37.541 40.2601C37.6465 40.3655 37.7895 40.4248 37.9387 40.4248C38.0879 40.4248 38.231 40.3655 38.3365 40.2601C38.442 40.1546 38.5012 40.0115 38.5012 39.8623C38.5006 39.6131 38.5622 39.3676 38.6806 39.1483C38.7989 38.929 38.9702 38.7427 39.1789 38.6064C39.3875 38.4701 39.6269 38.3881 39.8753 38.3679C40.1237 38.3476 40.3733 38.3898 40.6012 38.4906C40.6238 38.5052 40.6474 38.5182 40.6717 38.5296C40.9192 38.6535 41.1274 38.8437 41.273 39.079C41.4187 39.3144 41.4961 39.5855 41.4967 39.8623C41.4967 39.9366 41.5114 40.0101 41.54 40.0786C41.5685 40.1471 41.6104 40.2094 41.6631 40.2617C41.7158 40.3139 41.7783 40.3553 41.8471 40.3833C41.9158 40.4113 41.9895 40.4254 42.0637 40.4248Z" fill="#150A02"/>
<path d="M47.2006 31.4785L46.1146 30.8852L45.5251 29.7992C45.4292 29.6238 45.2879 29.4775 45.1159 29.3755C44.944 29.2735 44.7478 29.2197 44.5479 29.2197C44.3479 29.2197 44.1517 29.2735 43.9798 29.3755C43.8078 29.4775 43.6665 29.6238 43.5706 29.7992L42.9751 30.883L41.8876 31.4785C41.7122 31.5744 41.5658 31.7157 41.4639 31.8877C41.3619 32.0596 41.3081 32.2558 41.3081 32.4557C41.3081 32.6556 41.3619 32.8519 41.4639 33.0238C41.5658 33.1958 41.7122 33.3371 41.8876 33.433L42.9751 34.0247L43.5676 35.1122C43.6636 35.2875 43.8049 35.4336 43.9767 35.5355C44.1486 35.6373 44.3447 35.691 44.5445 35.691C44.7443 35.691 44.9404 35.6373 45.1122 35.5355C45.2841 35.4336 45.4254 35.2875 45.5214 35.1122L46.1109 34.0247L47.2006 33.43C47.3758 33.3339 47.522 33.1925 47.6238 33.0206C47.7256 32.8487 47.7793 32.6525 47.7793 32.4527C47.7793 32.2529 47.7256 32.0568 47.6238 31.8849C47.522 31.7129 47.3758 31.5715 47.2006 31.4755V31.4785ZM45.5716 33.0407C45.3849 33.143 45.2314 33.2965 45.1291 33.4832L44.5539 34.5715L43.9591 33.4832C43.857 33.2962 43.7031 33.1426 43.5159 33.0407L42.4284 32.4662L43.5166 31.87C43.7036 31.7681 43.8572 31.6145 43.9591 31.4275L44.5344 30.34L45.1291 31.4275C45.2312 31.6143 45.3848 31.7679 45.5716 31.87L46.6606 32.4445L45.5716 33.0407Z" fill="#150A02"/>
</g>
<path d="M71.2552 34.4V47H69.9772V36.92L65.0272 45.398H64.3972L59.4472 36.974V47H58.1692V34.4H59.2672L64.7392 43.742L70.1572 34.4H71.2552ZM78.9606 47.09C78.0486 47.09 77.2266 46.886 76.4946 46.478C75.7626 46.058 75.1866 45.482 74.7666 44.75C74.3466 44.018 74.1366 43.19 74.1366 42.266C74.1366 41.342 74.3466 40.514 74.7666 39.782C75.1866 39.05 75.7626 38.48 76.4946 38.072C77.2266 37.664 78.0486 37.46 78.9606 37.46C79.8726 37.46 80.6946 37.664 81.4266 38.072C82.1586 38.48 82.7286 39.05 83.1366 39.782C83.5566 40.514 83.7666 41.342 83.7666 42.266C83.7666 43.19 83.5566 44.018 83.1366 44.75C82.7286 45.482 82.1586 46.058 81.4266 46.478C80.6946 46.886 79.8726 47.09 78.9606 47.09ZM78.9606 45.956C79.6326 45.956 80.2326 45.806 80.7606 45.506C81.3006 45.194 81.7206 44.756 82.0206 44.192C82.3206 43.628 82.4706 42.986 82.4706 42.266C82.4706 41.546 82.3206 40.904 82.0206 40.34C81.7206 39.776 81.3006 39.344 80.7606 39.044C80.2326 38.732 79.6326 38.576 78.9606 38.576C78.2886 38.576 77.6826 38.732 77.1426 39.044C76.6146 39.344 76.1946 39.776 75.8826 40.34C75.5826 40.904 75.4326 41.546 75.4326 42.266C75.4326 42.986 75.5826 43.628 75.8826 44.192C76.1946 44.756 76.6146 45.194 77.1426 45.506C77.6826 45.806 78.2886 45.956 78.9606 45.956ZM90.2458 47.09C89.3338 47.09 88.5118 46.886 87.7798 46.478C87.0478 46.058 86.4718 45.482 86.0518 44.75C85.6318 44.018 85.4218 43.19 85.4218 42.266C85.4218 41.342 85.6318 40.514 86.0518 39.782C86.4718 39.05 87.0478 38.48 87.7798 38.072C88.5118 37.664 89.3338 37.46 90.2458 37.46C91.1578 37.46 91.9798 37.664 92.7118 38.072C93.4438 38.48 94.0138 39.05 94.4218 39.782C94.8418 40.514 95.0518 41.342 95.0518 42.266C95.0518 43.19 94.8418 44.018 94.4218 44.75C94.0138 45.482 93.4438 46.058 92.7118 46.478C91.9798 46.886 91.1578 47.09 90.2458 47.09ZM90.2458 45.956C90.9178 45.956 91.5178 45.806 92.0458 45.506C92.5858 45.194 93.0058 44.756 93.3058 44.192C93.6058 43.628 93.7558 42.986 93.7558 42.266C93.7558 41.546 93.6058 40.904 93.3058 40.34C93.0058 39.776 92.5858 39.344 92.0458 39.044C91.5178 38.732 90.9178 38.576 90.2458 38.576C89.5738 38.576 88.9678 38.732 88.4278 39.044C87.8998 39.344 87.4798 39.776 87.1678 40.34C86.8678 40.904 86.7178 41.546 86.7178 42.266C86.7178 42.986 86.8678 43.628 87.1678 44.192C87.4798 44.756 87.8998 45.194 88.4278 45.506C88.9678 45.806 89.5738 45.956 90.2458 45.956ZM106.301 33.644V47H105.077V45.128C104.693 45.764 104.183 46.25 103.547 46.586C102.923 46.922 102.215 47.09 101.423 47.09C100.535 47.09 99.7309 46.886 99.0109 46.478C98.2909 46.07 97.7269 45.5 97.3189 44.768C96.9109 44.036 96.7069 43.202 96.7069 42.266C96.7069 41.33 96.9109 40.496 97.3189 39.764C97.7269 39.032 98.2909 38.468 99.0109 38.072C99.7309 37.664 100.535 37.46 101.423 37.46C102.191 37.46 102.881 37.622 103.493 37.946C104.117 38.258 104.627 38.72 105.023 39.332V33.644H106.301ZM101.531 45.956C102.191 45.956 102.785 45.806 103.313 45.506C103.853 45.194 104.273 44.756 104.573 44.192C104.885 43.628 105.041 42.986 105.041 42.266C105.041 41.546 104.885 40.904 104.573 40.34C104.273 39.776 103.853 39.344 103.313 39.044C102.785 38.732 102.191 38.576 101.531 38.576C100.859 38.576 100.253 38.732 99.7129 39.044C99.1849 39.344 98.7649 39.776 98.4529 40.34C98.1529 40.904 98.0029 41.546 98.0029 42.266C98.0029 42.986 98.1529 43.628 98.4529 44.192C98.7649 44.756 99.1849 45.194 99.7129 45.506C100.253 45.806 100.859 45.956 101.531 45.956ZM119.557 46.424C119.317 46.64 119.017 46.808 118.657 46.928C118.309 47.036 117.943 47.09 117.559 47.09C116.671 47.09 115.987 46.85 115.507 46.37C115.027 45.89 114.787 45.212 114.787 44.336V38.612H113.095V37.532H114.787V35.462H116.065V37.532H118.945V38.612H116.065V44.264C116.065 44.828 116.203 45.26 116.479 45.56C116.767 45.848 117.175 45.992 117.703 45.992C117.967 45.992 118.219 45.95 118.459 45.866C118.711 45.782 118.927 45.662 119.107 45.506L119.557 46.424ZM123.108 39.386C123.408 38.75 123.852 38.27 124.44 37.946C125.04 37.622 125.778 37.46 126.654 37.46V38.702L126.348 38.684C125.352 38.684 124.572 38.99 124.008 39.602C123.444 40.214 123.162 41.072 123.162 42.176V47H121.884V37.532H123.108V39.386ZM132.262 37.46C133.498 37.46 134.446 37.772 135.106 38.396C135.766 39.008 136.096 39.92 136.096 41.132V47H134.872V45.524C134.584 46.016 134.158 46.4 133.594 46.676C133.042 46.952 132.382 47.09 131.614 47.09C130.558 47.09 129.718 46.838 129.094 46.334C128.47 45.83 128.158 45.164 128.158 44.336C128.158 43.532 128.446 42.884 129.022 42.392C129.61 41.9 130.54 41.654 131.812 41.654H134.818V41.078C134.818 40.262 134.59 39.644 134.134 39.224C133.678 38.792 133.012 38.576 132.136 38.576C131.536 38.576 130.96 38.678 130.408 38.882C129.856 39.074 129.382 39.344 128.986 39.692L128.41 38.738C128.89 38.33 129.466 38.018 130.138 37.802C130.81 37.574 131.518 37.46 132.262 37.46ZM131.812 46.082C132.532 46.082 133.15 45.92 133.666 45.596C134.182 45.26 134.566 44.78 134.818 44.156V42.608H131.848C130.228 42.608 129.418 43.172 129.418 44.3C129.418 44.852 129.628 45.29 130.048 45.614C130.468 45.926 131.056 46.082 131.812 46.082ZM143.526 47.09C142.59 47.09 141.75 46.886 141.006 46.478C140.274 46.07 139.698 45.5 139.278 44.768C138.858 44.024 138.648 43.19 138.648 42.266C138.648 41.342 138.858 40.514 139.278 39.782C139.698 39.05 140.274 38.48 141.006 38.072C141.75 37.664 142.59 37.46 143.526 37.46C144.342 37.46 145.068 37.622 145.704 37.946C146.352 38.258 146.862 38.72 147.234 39.332L146.28 39.98C145.968 39.512 145.572 39.164 145.092 38.936C144.612 38.696 144.09 38.576 143.526 38.576C142.842 38.576 142.224 38.732 141.672 39.044C141.132 39.344 140.706 39.776 140.394 40.34C140.094 40.904 139.944 41.546 139.944 42.266C139.944 42.998 140.094 43.646 140.394 44.21C140.706 44.762 141.132 45.194 141.672 45.506C142.224 45.806 142.842 45.956 143.526 45.956C144.09 45.956 144.612 45.842 145.092 45.614C145.572 45.386 145.968 45.038 146.28 44.57L147.234 45.218C146.862 45.83 146.352 46.298 145.704 46.622C145.056 46.934 144.33 47.09 143.526 47.09ZM153.114 42.248L150.882 44.3V47H149.604V33.644H150.882V42.698L156.534 37.532H158.118L154.068 41.402L158.496 47H156.93L153.114 42.248ZM160.274 37.532H161.552V47H160.274V37.532ZM160.922 35.462C160.658 35.462 160.436 35.372 160.256 35.192C160.076 35.012 159.986 34.796 159.986 34.544C159.986 34.304 160.076 34.094 160.256 33.914C160.436 33.734 160.658 33.644 160.922 33.644C161.186 33.644 161.408 33.734 161.588 33.914C161.768 34.082 161.858 34.286 161.858 34.526C161.858 34.79 161.768 35.012 161.588 35.192C161.408 35.372 161.186 35.462 160.922 35.462ZM169.932 37.46C171.12 37.46 172.062 37.808 172.758 38.504C173.466 39.188 173.82 40.19 173.82 41.51V47H172.542V41.636C172.542 40.652 172.296 39.902 171.804 39.386C171.312 38.87 170.61 38.612 169.698 38.612C168.678 38.612 167.868 38.918 167.268 39.53C166.68 40.13 166.386 40.964 166.386 42.032V47H165.108V37.532H166.332V39.278C166.68 38.702 167.16 38.258 167.772 37.946C168.396 37.622 169.116 37.46 169.932 37.46ZM186.091 37.532V45.848C186.091 47.456 185.695 48.644 184.903 49.412C184.123 50.192 182.941 50.582 181.357 50.582C180.481 50.582 179.647 50.45 178.855 50.186C178.075 49.934 177.439 49.58 176.947 49.124L177.595 48.152C178.051 48.56 178.603 48.878 179.251 49.106C179.911 49.334 180.601 49.448 181.321 49.448C182.521 49.448 183.403 49.166 183.967 48.602C184.531 48.05 184.813 47.186 184.813 46.01V44.804C184.417 45.404 183.895 45.86 183.247 46.172C182.611 46.484 181.903 46.64 181.123 46.64C180.235 46.64 179.425 46.448 178.693 46.064C177.973 45.668 177.403 45.122 176.983 44.426C176.575 43.718 176.371 42.92 176.371 42.032C176.371 41.144 176.575 40.352 176.983 39.656C177.403 38.96 177.973 38.42 178.693 38.036C179.413 37.652 180.223 37.46 181.123 37.46C181.927 37.46 182.653 37.622 183.301 37.946C183.949 38.27 184.471 38.738 184.867 39.35V37.532H186.091ZM181.249 45.506C181.933 45.506 182.551 45.362 183.103 45.074C183.655 44.774 184.081 44.36 184.381 43.832C184.693 43.304 184.849 42.704 184.849 42.032C184.849 41.36 184.693 40.766 184.381 40.25C184.081 39.722 183.655 39.314 183.103 39.026C182.563 38.726 181.945 38.576 181.249 38.576C180.565 38.576 179.947 38.72 179.395 39.008C178.855 39.296 178.429 39.704 178.117 40.232C177.817 40.76 177.667 41.36 177.667 42.032C177.667 42.704 177.817 43.304 178.117 43.832C178.429 44.36 178.855 44.774 179.395 45.074C179.947 45.362 180.565 45.506 181.249 45.506Z" fill="#150A02"/>
</g>
<defs>
<filter id="filter0_d_395_14303" x="-9" y="0" width="230" height="82" filterUnits="userSpaceOnUse" color-interpolation-filters="sRGB">
<feFlood flood-opacity="0" result="BackgroundImageFix"/>
<feColorMatrix in="SourceAlpha" type="matrix" values="0 0 0 0 0 0 0 0 0 0 0 0 0 0 0 0 0 0 127 0" result="hardAlpha"/>
<feMorphology radius="1" operator="dilate" in="SourceAlpha" result="effect1_dropShadow_395_14303"/>
<feOffset/>
<feGaussianBlur stdDeviation="8"/>
<feComposite in2="hardAlpha" operator="out"/>
<feColorMatrix type="matrix" values="0 0 0 0 0.0823529 0 0 0 0 0.0392157 0 0 0 0 0.00784314 0 0 0 0.08 0"/>
<feBlend mode="normal" in2="BackgroundImageFix" result="effect1_dropShadow_395_14303"/>
<feBlend mode="normal" in="SourceGraphic" in2="effect1_dropShadow_395_14303" result="shape"/>
</filter>
<clipPath id="clip0_395_14303">
<rect width="24" height="24" fill="white" transform="translate(24 29)"/>
</clipPath>
</defs>
</svg>
