<svg width="17" height="17" viewBox="0 0 17 17" fill="none" xmlns="http://www.w3.org/2000/svg">
<g clip-path="url(#clip0_3251_6354)">
<path d="M14.0962 0.5H3.45885C3.19997 0.5 2.9901 0.709876 2.9901 0.968753V2.36723H2.46631C2.20743 2.36723 1.99756 2.57711 1.99756 2.83598C1.99756 3.09486 2.20743 3.30474 2.46631 3.30474H2.99013V4.61724H2.46631C2.20743 4.61724 1.99756 4.82712 1.99756 5.086C1.99756 5.34487 2.20743 5.55475 2.46631 5.55475H2.99013V6.86726H2.46631C2.20743 6.86726 1.99756 7.07713 1.99756 7.33601C1.99756 7.59489 2.20743 7.80476 2.46631 7.80476H2.99013V9.11727H2.46631C2.20743 9.11727 1.99756 9.32715 1.99756 9.58602C1.99756 9.8449 2.20743 10.0548 2.46631 10.0548H2.99013V11.3673H2.46631C2.20743 11.3673 1.99756 11.5772 1.99756 11.836C1.99756 12.0949 2.20743 12.3048 2.46631 12.3048H2.99013V13.6173H2.46631C2.20743 13.6173 1.99756 13.8272 1.99756 14.086C1.99756 14.3449 2.20743 14.5548 2.46631 14.5548H2.99013V16.0312C2.99013 16.2901 3.2 16.5 3.45888 16.5H14.0962C14.8716 16.5 15.5024 15.8692 15.5024 15.0937V1.90626C15.5024 1.13085 14.8716 0.5 14.0962 0.5ZM14.5649 15.0937C14.5649 15.3522 14.3546 15.5625 14.0962 15.5625H3.9276V14.5548H4.54179C4.80067 14.5548 5.01055 14.3449 5.01055 14.086C5.01055 13.8272 4.80067 13.6173 4.54179 13.6173H3.9276V12.3048H4.54179C4.80067 12.3048 5.01055 12.0949 5.01055 11.836C5.01055 11.5772 4.80067 11.3673 4.54179 11.3673H3.9276V10.0548H4.54179C4.80067 10.0548 5.01055 9.8449 5.01055 9.58602C5.01055 9.32715 4.80067 9.11727 4.54179 9.11727H3.9276V7.80476H4.54179C4.80067 7.80476 5.01055 7.59489 5.01055 7.33601C5.01055 7.07713 4.80067 6.86726 4.54179 6.86726H3.9276V5.55475H4.54179C4.80067 5.55475 5.01055 5.34487 5.01055 5.086C5.01055 4.82712 4.80067 4.61724 4.54179 4.61724H3.9276V3.30474H4.54179C4.80067 3.30474 5.01055 3.09486 5.01055 2.83598C5.01055 2.57711 4.80067 2.36723 4.54179 2.36723H3.9276V1.43751H14.0962C14.3546 1.43751 14.5649 1.64779 14.5649 1.90626V15.0937Z" fill="#656565"/>
<path d="M12.4978 2.375H6.41687C6.158 2.375 5.94812 2.58488 5.94812 2.84375V6.02374C5.94812 6.28262 6.158 6.49249 6.41687 6.49249H12.4979C12.7568 6.49249 12.9666 6.28262 12.9666 6.02374V2.84375C12.9666 2.58484 12.7568 2.375 12.4978 2.375ZM12.0291 5.55499H6.88563V3.31251H12.0291L12.0291 5.55499Z" fill="#656565"/>
<path d="M12.2936 8.17969H6.58716C6.32828 8.17969 6.11841 8.38956 6.11841 8.64844C6.11841 8.90732 6.32828 9.11719 6.58716 9.11719H12.2936C12.5524 9.11719 12.7623 8.90732 12.7623 8.64844C12.7623 8.38956 12.5524 8.17969 12.2936 8.17969Z" fill="#656565"/>
<path d="M12.2936 10.0547H6.58716C6.32828 10.0547 6.11841 10.2646 6.11841 10.5234C6.11841 10.7823 6.32828 10.9922 6.58716 10.9922H12.2936C12.5524 10.9922 12.7623 10.7823 12.7623 10.5234C12.7623 10.2646 12.5524 10.0547 12.2936 10.0547Z" fill="#656565"/>
</g>
<defs>
<clipPath id="clip0_3251_6354">
<rect width="16" height="16" fill="white" transform="translate(0.75 0.5)"/>
</clipPath>
</defs>
</svg>
