<svg width="32" height="32" viewBox="0 0 32 32" fill="none" xmlns="http://www.w3.org/2000/svg">
<g clip-path="url(#clip0_368_18085)">
<path d="M21.5114 4H11.9114C11.1337 4.00085 10.388 4.31017 9.83812 4.86009C9.28819 5.41001 8.97887 6.15563 8.97803 6.93333V8.88853C8.97859 9.66633 9.28782 10.4121 9.83781 10.9621C10.3878 11.5121 11.1336 11.8213 11.9114 11.8219H21.5114C22.2892 11.8213 23.0349 11.5121 23.5849 10.9621C24.1349 10.4121 24.4441 9.66633 24.4447 8.88853V6.93333C24.4438 6.15563 24.1345 5.41001 23.5846 4.86009C23.0347 4.31017 22.2891 4.00085 21.5114 4ZM22.8447 8.88853C22.8444 9.24207 22.7038 9.58104 22.4539 9.83103C22.2039 10.081 21.8649 10.2216 21.5114 10.2219H11.9114C11.5578 10.2216 11.2189 10.081 10.9689 9.83103C10.7189 9.58104 10.5783 9.24207 10.578 8.88853V6.93333C10.5783 6.5798 10.7189 6.24082 10.9689 5.99084C11.2189 5.74085 11.5578 5.60028 11.9114 5.6H21.5114C21.8649 5.60028 22.2039 5.74085 22.4539 5.99084C22.7038 6.24082 22.8444 6.5798 22.8447 6.93333V8.88853Z" fill="#5E9B87"/>
<path d="M22.4992 14.9131H10.9238C10.7116 14.9131 10.5081 14.9974 10.3581 15.1474C10.2081 15.2974 10.1238 15.5009 10.1238 15.7131C10.1238 15.9253 10.2081 16.1287 10.3581 16.2788C10.5081 16.4288 10.7116 16.5131 10.9238 16.5131H22.4992C22.7114 16.5131 22.9149 16.4288 23.0649 16.2788C23.215 16.1287 23.2992 15.9253 23.2992 15.7131C23.2992 15.5009 23.215 15.2974 23.0649 15.1474C22.9149 14.9974 22.7114 14.9131 22.4992 14.9131Z" fill="#5E9B87"/>
<path d="M21.0613 19.1304H12.3605C12.1484 19.1304 11.9449 19.2147 11.7949 19.3647C11.6448 19.5147 11.5605 19.7182 11.5605 19.9304C11.5605 20.1425 11.6448 20.346 11.7949 20.4961C11.9449 20.6461 12.1484 20.7304 12.3605 20.7304H21.0613C21.2735 20.7304 21.477 20.6461 21.627 20.4961C21.7771 20.346 21.8613 20.1425 21.8613 19.9304C21.8613 19.7182 21.7771 19.5147 21.627 19.3647C21.477 19.2147 21.2735 19.1304 21.0613 19.1304Z" fill="#5E9B87"/>
<path d="M27.7333 0.266602H5.33327C3.99002 0.268295 2.70228 0.802647 1.75246 1.75246C0.802647 2.70228 0.268295 3.99002 0.266602 5.33327V26.6666C0.268295 28.0098 0.802647 29.2976 1.75246 30.2474C2.70228 31.1972 3.99002 31.7316 5.33327 31.7333H24.1781C25.2385 31.7319 26.2551 31.31 27.0049 30.5601C27.7548 29.8103 28.1767 28.7937 28.1781 27.7333V17.6607L30.481 16.0469C30.8676 15.7767 31.1833 15.4173 31.4013 14.9991C31.6193 14.581 31.7332 14.1163 31.7333 13.6447V4.2666C31.7319 3.20617 31.31 2.18957 30.5601 1.43973C29.8103 0.689893 28.7937 0.268013 27.7333 0.266602ZM30.1333 4.2666V8.1162L28.1781 9.4858V1.91247C28.7265 2.01714 29.2214 2.30923 29.5781 2.73871C29.9348 3.16818 30.131 3.70832 30.1333 4.2666ZM1.8666 26.6666V5.33327C1.86767 4.4295 2.2212 3.56178 2.85205 2.91461C3.48289 2.26743 4.34129 1.89183 5.24473 1.86767V30.1343C4.34083 30.1104 3.48196 29.7346 2.851 29.0869C2.22004 28.4392 1.86684 27.5708 1.8666 26.6666ZM26.5781 27.7333C26.5772 28.3695 26.3241 28.9795 25.8742 29.4294C25.4243 29.8793 24.8143 30.1324 24.1781 30.1333H6.84474V1.8666H26.5781V27.7333ZM30.1333 13.6447C30.1332 13.8592 30.0813 14.0704 29.9822 14.2606C29.883 14.4507 29.7395 14.6142 29.5637 14.737L28.177 15.7077V11.441L30.1333 10.0693V13.6447Z" fill="#5E9B87"/>
</g>
<defs>
<clipPath id="clip0_368_18085">
<rect width="32" height="32" fill="white"/>
</clipPath>
</defs>
</svg>
