<svg width="262" height="82" viewBox="0 0 262 82" fill="none" xmlns="http://www.w3.org/2000/svg">
<g filter="url(#filter0_d_361_18381)">
<rect x="17" y="17" width="228" height="48" rx="24" fill="white" fill-opacity="0.56" shape-rendering="crispEdges"/>
<g clip-path="url(#clip0_361_18381)">
<path d="M41.9338 32.5H49.133L49.301 32.5088C49.6901 32.5478 50.0562 32.7201 50.3351 32.999C50.6537 33.3177 50.8326 33.7496 50.8332 34.2002V35.666C50.8329 36.1169 50.654 36.5494 50.3351 36.8682C50.0163 37.1869 49.5838 37.3659 49.133 37.3662H41.9338L41.7658 37.3584C41.3767 37.3195 41.0106 37.1471 40.7316 36.8682C40.4129 36.5494 40.2339 36.1168 40.2336 35.666V34.2002L40.2424 34.0322C40.2814 33.6432 40.4537 33.2779 40.7326 32.999C41.0115 32.7201 41.3768 32.5479 41.7658 32.5088L41.9338 32.5ZM41.9328 32.7002C41.5353 32.7006 41.1543 32.8586 40.8732 33.1396C40.5922 33.4207 40.4342 33.8017 40.4338 34.1992V35.667C40.4341 36.0645 40.5922 36.4455 40.8732 36.7266C41.1543 37.0076 41.5353 37.1656 41.9328 37.166H49.134C49.5315 37.1657 49.9124 37.0077 50.1935 36.7266C50.4747 36.4454 50.6336 36.0645 50.634 35.667V34.1992C50.6336 33.8017 50.4746 33.4207 50.1935 33.1396C49.9476 32.8938 49.6254 32.7414 49.2824 32.707L49.134 32.7002H41.9328Z" fill="#150A02" stroke="#150A02"/>
<path d="M49.8744 40.1848H41.1928C41.0336 40.1848 40.881 40.248 40.7685 40.3606C40.656 40.4731 40.5928 40.6257 40.5928 40.7848C40.5928 40.9439 40.656 41.0966 40.7685 41.2091C40.881 41.3216 41.0336 41.3848 41.1928 41.3848H49.8744C50.0335 41.3848 50.1861 41.3216 50.2986 41.2091C50.4112 41.0966 50.4744 40.9439 50.4744 40.7848C50.4744 40.6257 50.4112 40.4731 50.2986 40.3606C50.1861 40.248 50.0335 40.1848 49.8744 40.1848Z" fill="#150A02"/>
<path d="M48.796 43.3477H42.2704C42.1113 43.3477 41.9587 43.4109 41.8461 43.5234C41.7336 43.6359 41.6704 43.7885 41.6704 43.9477C41.6704 44.1068 41.7336 44.2594 41.8461 44.3719C41.9587 44.4844 42.1113 44.5477 42.2704 44.5477H48.796C48.9551 44.5477 49.1078 44.4844 49.2203 44.3719C49.3328 44.2594 49.396 44.1068 49.396 43.9477C49.396 43.7885 49.3328 43.6359 49.2203 43.5234C49.1078 43.4109 48.9551 43.3477 48.796 43.3477Z" fill="#150A02"/>
<path d="M53.8 29.2H37C35.9926 29.2012 35.0268 29.602 34.3144 30.3143C33.602 31.0267 33.2013 31.9925 33.2 33V49C33.2013 50.0074 33.602 50.9732 34.3144 51.6856C35.0268 52.3979 35.9926 52.7987 37 52.8H51.1336C51.9289 52.7989 52.6914 52.4825 53.2538 51.9201C53.8161 51.3577 54.1326 50.5953 54.1336 49.8V42.2456L55.8608 41.0352C56.1507 40.8326 56.3875 40.563 56.551 40.2494C56.7145 39.9357 56.7999 39.5873 56.8 39.2336V32.2C56.799 31.4046 56.4825 30.6422 55.9202 30.0798C55.3578 29.5174 54.5953 29.201 53.8 29.2ZM55.6 32.2V35.0872L54.1336 36.1144V30.4344C54.5449 30.5129 54.9161 30.7319 55.1836 31.054C55.4511 31.3761 55.5983 31.7812 55.6 32.2ZM34.4 49V33C34.4008 32.3221 34.666 31.6713 35.1391 31.186C35.6122 30.7006 36.256 30.4189 36.9336 30.4008V51.6008C36.2557 51.5828 35.6115 51.301 35.1383 50.8152C34.6651 50.3294 34.4002 49.6781 34.4 49ZM52.9336 49.8C52.933 50.2771 52.7431 50.7346 52.4057 51.072C52.0683 51.4095 51.6108 51.5993 51.1336 51.6H38.1336V30.4H52.9336V49.8ZM55.6 39.2336C55.5999 39.3944 55.5611 39.5528 55.4867 39.6954C55.4123 39.8381 55.3046 39.9606 55.1728 40.0528L54.1328 40.7808V37.5808L55.6 36.552V39.2336Z" fill="#150A02"/>
</g>
<path d="M76.2844 40.7H77.5624V45.506C76.9744 46.022 76.2784 46.418 75.4744 46.694C74.6704 46.97 73.8244 47.108 72.9364 47.108C71.6764 47.108 70.5424 46.832 69.5344 46.28C68.5264 45.728 67.7344 44.966 67.1584 43.994C66.5824 43.01 66.2944 41.912 66.2944 40.7C66.2944 39.488 66.5824 38.396 67.1584 37.424C67.7344 36.44 68.5264 35.672 69.5344 35.12C70.5424 34.568 71.6824 34.292 72.9544 34.292C73.9144 34.292 74.7964 34.448 75.6004 34.76C76.4044 35.06 77.0824 35.51 77.6344 36.11L76.8064 36.956C75.8104 35.972 74.5444 35.48 73.0084 35.48C71.9884 35.48 71.0644 35.708 70.2364 36.164C69.4204 36.608 68.7784 37.232 68.3104 38.036C67.8424 38.828 67.6084 39.716 67.6084 40.7C67.6084 41.684 67.8424 42.572 68.3104 43.364C68.7784 44.156 69.4204 44.78 70.2364 45.236C71.0524 45.692 71.9704 45.92 72.9904 45.92C74.2864 45.92 75.3844 45.596 76.2844 44.948V40.7ZM89.5943 37.532V47H88.3703V45.272C88.0343 45.848 87.5723 46.298 86.9843 46.622C86.3963 46.934 85.7243 47.09 84.9683 47.09C83.7323 47.09 82.7543 46.748 82.0343 46.064C81.3263 45.368 80.9723 44.354 80.9723 43.022V37.532H82.2503V42.896C82.2503 43.892 82.4963 44.648 82.9883 45.164C83.4803 45.68 84.1823 45.938 85.0943 45.938C86.0903 45.938 86.8763 45.638 87.4523 45.038C88.0283 44.426 88.3163 43.58 88.3163 42.5V37.532H89.5943ZM93.1736 37.532H94.4516V47H93.1736V37.532ZM93.8216 35.462C93.5576 35.462 93.3356 35.372 93.1556 35.192C92.9756 35.012 92.8856 34.796 92.8856 34.544C92.8856 34.304 92.9756 34.094 93.1556 33.914C93.3356 33.734 93.5576 33.644 93.8216 33.644C94.0856 33.644 94.3076 33.734 94.4876 33.914C94.6676 34.082 94.7576 34.286 94.7576 34.526C94.7576 34.79 94.6676 35.012 94.4876 35.192C94.3076 35.372 94.0856 35.462 93.8216 35.462ZM106.648 33.644V47H105.424V45.128C105.04 45.764 104.53 46.25 103.894 46.586C103.27 46.922 102.562 47.09 101.77 47.09C100.882 47.09 100.078 46.886 99.3576 46.478C98.6376 46.07 98.0736 45.5 97.6656 44.768C97.2576 44.036 97.0536 43.202 97.0536 42.266C97.0536 41.33 97.2576 40.496 97.6656 39.764C98.0736 39.032 98.6376 38.468 99.3576 38.072C100.078 37.664 100.882 37.46 101.77 37.46C102.538 37.46 103.228 37.622 103.84 37.946C104.464 38.258 104.974 38.72 105.37 39.332V33.644H106.648ZM101.878 45.956C102.538 45.956 103.132 45.806 103.66 45.506C104.2 45.194 104.62 44.756 104.92 44.192C105.232 43.628 105.388 42.986 105.388 42.266C105.388 41.546 105.232 40.904 104.92 40.34C104.62 39.776 104.2 39.344 103.66 39.044C103.132 38.732 102.538 38.576 101.878 38.576C101.206 38.576 100.6 38.732 100.06 39.044C99.5316 39.344 99.1116 39.776 98.7996 40.34C98.4996 40.904 98.3496 41.546 98.3496 42.266C98.3496 42.986 98.4996 43.628 98.7996 44.192C99.1116 44.756 99.5316 45.194 100.06 45.506C100.6 45.806 101.206 45.956 101.878 45.956ZM118.451 42.662H110.531C110.603 43.646 110.981 44.444 111.665 45.056C112.349 45.656 113.213 45.956 114.257 45.956C114.845 45.956 115.385 45.854 115.877 45.65C116.369 45.434 116.795 45.122 117.155 44.714L117.875 45.542C117.455 46.046 116.927 46.43 116.291 46.694C115.667 46.958 114.977 47.09 114.221 47.09C113.249 47.09 112.385 46.886 111.629 46.478C110.885 46.058 110.303 45.482 109.883 44.75C109.463 44.018 109.253 43.19 109.253 42.266C109.253 41.342 109.451 40.514 109.847 39.782C110.255 39.05 110.807 38.48 111.503 38.072C112.211 37.664 113.003 37.46 113.879 37.46C114.755 37.46 115.541 37.664 116.237 38.072C116.933 38.48 117.479 39.05 117.875 39.782C118.271 40.502 118.469 41.33 118.469 42.266L118.451 42.662ZM113.879 38.558C112.967 38.558 112.199 38.852 111.575 39.44C110.963 40.016 110.615 40.772 110.531 41.708H117.245C117.161 40.772 116.807 40.016 116.183 39.44C115.571 38.852 114.803 38.558 113.879 38.558ZM129.71 33.644V47H128.486V45.128C128.102 45.764 127.592 46.25 126.956 46.586C126.332 46.922 125.624 47.09 124.832 47.09C123.944 47.09 123.14 46.886 122.42 46.478C121.7 46.07 121.136 45.5 120.728 44.768C120.32 44.036 120.116 43.202 120.116 42.266C120.116 41.33 120.32 40.496 120.728 39.764C121.136 39.032 121.7 38.468 122.42 38.072C123.14 37.664 123.944 37.46 124.832 37.46C125.6 37.46 126.29 37.622 126.902 37.946C127.526 38.258 128.036 38.72 128.432 39.332V33.644H129.71ZM124.94 45.956C125.6 45.956 126.194 45.806 126.722 45.506C127.262 45.194 127.682 44.756 127.982 44.192C128.294 43.628 128.45 42.986 128.45 42.266C128.45 41.546 128.294 40.904 127.982 40.34C127.682 39.776 127.262 39.344 126.722 39.044C126.194 38.732 125.6 38.576 124.94 38.576C124.268 38.576 123.662 38.732 123.122 39.044C122.594 39.344 122.174 39.776 121.862 40.34C121.562 40.904 121.412 41.546 121.412 42.266C121.412 42.986 121.562 43.628 121.862 44.192C122.174 44.756 122.594 45.194 123.122 45.506C123.662 45.806 124.268 45.956 124.94 45.956ZM136.576 50.582C136.18 50.582 135.808 50.528 135.46 50.42C135.1 50.324 134.806 50.174 134.578 49.97L135.028 48.998C135.4 49.322 135.892 49.484 136.504 49.484C137.008 49.484 137.392 49.334 137.656 49.034C137.932 48.734 138.07 48.29 138.07 47.702V37.532H139.348V47.702C139.348 48.59 139.108 49.292 138.628 49.808C138.148 50.324 137.464 50.582 136.576 50.582ZM138.718 35.444C138.454 35.444 138.232 35.354 138.052 35.174C137.872 34.994 137.782 34.778 137.782 34.526C137.782 34.286 137.872 34.076 138.052 33.896C138.232 33.716 138.454 33.626 138.718 33.626C138.982 33.626 139.204 33.716 139.384 33.896C139.564 34.064 139.654 34.268 139.654 34.508C139.654 34.772 139.564 34.994 139.384 35.174C139.204 35.354 138.982 35.444 138.718 35.444ZM146.79 47.09C145.878 47.09 145.056 46.886 144.324 46.478C143.592 46.058 143.016 45.482 142.596 44.75C142.176 44.018 141.966 43.19 141.966 42.266C141.966 41.342 142.176 40.514 142.596 39.782C143.016 39.05 143.592 38.48 144.324 38.072C145.056 37.664 145.878 37.46 146.79 37.46C147.702 37.46 148.524 37.664 149.256 38.072C149.988 38.48 150.558 39.05 150.966 39.782C151.386 40.514 151.596 41.342 151.596 42.266C151.596 43.19 151.386 44.018 150.966 44.75C150.558 45.482 149.988 46.058 149.256 46.478C148.524 46.886 147.702 47.09 146.79 47.09ZM146.79 45.956C147.462 45.956 148.062 45.806 148.59 45.506C149.13 45.194 149.55 44.756 149.85 44.192C150.15 43.628 150.3 42.986 150.3 42.266C150.3 41.546 150.15 40.904 149.85 40.34C149.55 39.776 149.13 39.344 148.59 39.044C148.062 38.732 147.462 38.576 146.79 38.576C146.118 38.576 145.512 38.732 144.972 39.044C144.444 39.344 144.024 39.776 143.712 40.34C143.412 40.904 143.262 41.546 143.262 42.266C143.262 42.986 143.412 43.628 143.712 44.192C144.024 44.756 144.444 45.194 144.972 45.506C145.512 45.806 146.118 45.956 146.79 45.956ZM162.737 37.532V47H161.513V45.272C161.177 45.848 160.715 46.298 160.127 46.622C159.539 46.934 158.867 47.09 158.111 47.09C156.875 47.09 155.897 46.748 155.177 46.064C154.469 45.368 154.115 44.354 154.115 43.022V37.532H155.393V42.896C155.393 43.892 155.639 44.648 156.131 45.164C156.623 45.68 157.325 45.938 158.237 45.938C159.233 45.938 160.019 45.638 160.595 45.038C161.171 44.426 161.459 43.58 161.459 42.5V37.532H162.737ZM167.54 39.386C167.84 38.75 168.284 38.27 168.872 37.946C169.472 37.622 170.21 37.46 171.086 37.46V38.702L170.78 38.684C169.784 38.684 169.004 38.99 168.44 39.602C167.876 40.214 167.594 41.072 167.594 42.176V47H166.316V37.532H167.54V39.386ZM178.224 37.46C179.412 37.46 180.354 37.808 181.05 38.504C181.758 39.188 182.112 40.19 182.112 41.51V47H180.834V41.636C180.834 40.652 180.588 39.902 180.096 39.386C179.604 38.87 178.902 38.612 177.99 38.612C176.97 38.612 176.16 38.918 175.56 39.53C174.972 40.13 174.678 40.964 174.678 42.032V47H173.4V37.532H174.624V39.278C174.972 38.702 175.452 38.258 176.064 37.946C176.688 37.622 177.408 37.46 178.224 37.46ZM188.894 37.46C190.13 37.46 191.078 37.772 191.738 38.396C192.398 39.008 192.728 39.92 192.728 41.132V47H191.504V45.524C191.216 46.016 190.79 46.4 190.226 46.676C189.674 46.952 189.014 47.09 188.246 47.09C187.19 47.09 186.35 46.838 185.726 46.334C185.102 45.83 184.79 45.164 184.79 44.336C184.79 43.532 185.078 42.884 185.654 42.392C186.242 41.9 187.172 41.654 188.444 41.654H191.45V41.078C191.45 40.262 191.222 39.644 190.766 39.224C190.31 38.792 189.644 38.576 188.768 38.576C188.168 38.576 187.592 38.678 187.04 38.882C186.488 39.074 186.014 39.344 185.618 39.692L185.042 38.738C185.522 38.33 186.098 38.018 186.77 37.802C187.442 37.574 188.15 37.46 188.894 37.46ZM188.444 46.082C189.164 46.082 189.782 45.92 190.298 45.596C190.814 45.26 191.198 44.78 191.45 44.156V42.608H188.48C186.86 42.608 186.05 43.172 186.05 44.3C186.05 44.852 186.26 45.29 186.68 45.614C187.1 45.926 187.688 46.082 188.444 46.082ZM196.199 33.644H197.477V47H196.199V33.644ZM201.033 37.532H202.311V47H201.033V37.532ZM201.681 35.462C201.417 35.462 201.195 35.372 201.015 35.192C200.835 35.012 200.745 34.796 200.745 34.544C200.745 34.304 200.835 34.094 201.015 33.914C201.195 33.734 201.417 33.644 201.681 33.644C201.945 33.644 202.167 33.734 202.347 33.914C202.527 34.082 202.617 34.286 202.617 34.526C202.617 34.79 202.527 35.012 202.347 35.192C202.167 35.372 201.945 35.462 201.681 35.462ZM210.691 37.46C211.879 37.46 212.821 37.808 213.517 38.504C214.225 39.188 214.579 40.19 214.579 41.51V47H213.301V41.636C213.301 40.652 213.055 39.902 212.563 39.386C212.071 38.87 211.369 38.612 210.457 38.612C209.437 38.612 208.627 38.918 208.027 39.53C207.439 40.13 207.145 40.964 207.145 42.032V47H205.867V37.532H207.091V39.278C207.439 38.702 207.919 38.258 208.531 37.946C209.155 37.622 209.875 37.46 210.691 37.46ZM226.85 37.532V45.848C226.85 47.456 226.454 48.644 225.662 49.412C224.882 50.192 223.7 50.582 222.116 50.582C221.24 50.582 220.406 50.45 219.614 50.186C218.834 49.934 218.198 49.58 217.706 49.124L218.354 48.152C218.81 48.56 219.362 48.878 220.01 49.106C220.67 49.334 221.36 49.448 222.08 49.448C223.28 49.448 224.162 49.166 224.726 48.602C225.29 48.05 225.572 47.186 225.572 46.01V44.804C225.176 45.404 224.654 45.86 224.006 46.172C223.37 46.484 222.662 46.64 221.882 46.64C220.994 46.64 220.184 46.448 219.452 46.064C218.732 45.668 218.162 45.122 217.742 44.426C217.334 43.718 217.13 42.92 217.13 42.032C217.13 41.144 217.334 40.352 217.742 39.656C218.162 38.96 218.732 38.42 219.452 38.036C220.172 37.652 220.982 37.46 221.882 37.46C222.686 37.46 223.412 37.622 224.06 37.946C224.708 38.27 225.23 38.738 225.626 39.35V37.532H226.85ZM222.008 45.506C222.692 45.506 223.31 45.362 223.862 45.074C224.414 44.774 224.84 44.36 225.14 43.832C225.452 43.304 225.608 42.704 225.608 42.032C225.608 41.36 225.452 40.766 225.14 40.25C224.84 39.722 224.414 39.314 223.862 39.026C223.322 38.726 222.704 38.576 222.008 38.576C221.324 38.576 220.706 38.72 220.154 39.008C219.614 39.296 219.188 39.704 218.876 40.232C218.576 40.76 218.426 41.36 218.426 42.032C218.426 42.704 218.576 43.304 218.876 43.832C219.188 44.36 219.614 44.774 220.154 45.074C220.706 45.362 221.324 45.506 222.008 45.506Z" fill="#150A02"/>
</g>
<defs>
<filter id="filter0_d_361_18381" x="0" y="0" width="262" height="82" filterUnits="userSpaceOnUse" color-interpolation-filters="sRGB">
<feFlood flood-opacity="0" result="BackgroundImageFix"/>
<feColorMatrix in="SourceAlpha" type="matrix" values="0 0 0 0 0 0 0 0 0 0 0 0 0 0 0 0 0 0 127 0" result="hardAlpha"/>
<feMorphology radius="1" operator="dilate" in="SourceAlpha" result="effect1_dropShadow_361_18381"/>
<feOffset/>
<feGaussianBlur stdDeviation="8"/>
<feComposite in2="hardAlpha" operator="out"/>
<feColorMatrix type="matrix" values="0 0 0 0 0.0823529 0 0 0 0 0.0392157 0 0 0 0 0.00784314 0 0 0 0.08 0"/>
<feBlend mode="normal" in2="BackgroundImageFix" result="effect1_dropShadow_361_18381"/>
<feBlend mode="normal" in="SourceGraphic" in2="effect1_dropShadow_361_18381" result="shape"/>
</filter>
<clipPath id="clip0_361_18381">
<rect width="24" height="24" fill="white" transform="translate(33 29)"/>
</clipPath>
</defs>
</svg>
