<svg width="22" height="22" viewBox="0 0 22 22" fill="none" xmlns="http://www.w3.org/2000/svg">
<mask id="path-1-inside-1_3225_13809" fill="white">
<path d="M19.595 2.40521C17.0589 -0.131897 12.9314 -0.130432 10.3946 2.40521C8.66429 4.13519 8.06297 6.66498 8.79723 8.97137L7.78575 9.98285C7.64549 10.1227 7.56676 10.3132 7.56603 10.5109L7.562 11.9692L6.10448 11.9728C5.90599 11.9736 5.71629 12.0519 5.57604 12.1926L4.66454 13.1037C4.52428 13.2436 4.44554 13.4333 4.44481 13.6318L4.44078 15.09L2.98363 15.0937C2.78514 15.0944 2.59508 15.1735 2.45519 15.3134L0.719712 17.0493C0.557114 17.2119 0.478013 17.4396 0.505112 17.6682L0.842026 20.5019C0.883042 20.8461 1.1544 21.1171 1.49828 21.1581L4.33238 21.4951C4.55877 21.5221 4.78905 21.4432 4.95128 21.2805L13.0288 13.2033C15.3352 13.9365 17.8646 13.3359 19.595 11.6052C22.1313 9.06879 22.1313 4.94159 19.595 2.40521ZM13.1167 11.6411C12.8387 11.5275 12.5179 11.5927 12.3048 11.8058L4.14818 19.9621L2.26183 19.738L2.03771 17.8527L3.2971 16.593L5.19042 16.5878C5.60314 16.5864 5.93749 16.2524 5.93858 15.84L5.94408 13.9453L6.41759 13.4721L8.31163 13.467C8.72435 13.4662 9.0587 13.1315 9.0598 12.7192L9.06529 10.8244L10.1943 9.69501C10.4075 9.48187 10.4723 9.1618 10.3591 8.88275C9.60179 7.01508 10.0321 4.88885 11.4552 3.46576C13.4067 1.51459 16.5829 1.51459 18.5344 3.46576C20.4859 5.41766 20.4859 8.59271 18.5344 10.5446C17.1106 11.9677 14.9847 12.3962 13.1167 11.6411Z"/>
</mask>
<path d="M19.595 2.40521C17.0589 -0.131897 12.9314 -0.130432 10.3946 2.40521C8.66429 4.13519 8.06297 6.66498 8.79723 8.97137L7.78575 9.98285C7.64549 10.1227 7.56676 10.3132 7.56603 10.5109L7.562 11.9692L6.10448 11.9728C5.90599 11.9736 5.71629 12.0519 5.57604 12.1926L4.66454 13.1037C4.52428 13.2436 4.44554 13.4333 4.44481 13.6318L4.44078 15.09L2.98363 15.0937C2.78514 15.0944 2.59508 15.1735 2.45519 15.3134L0.719712 17.0493C0.557114 17.2119 0.478013 17.4396 0.505112 17.6682L0.842026 20.5019C0.883042 20.8461 1.1544 21.1171 1.49828 21.1581L4.33238 21.4951C4.55877 21.5221 4.78905 21.4432 4.95128 21.2805L13.0288 13.2033C15.3352 13.9365 17.8646 13.3359 19.595 11.6052C22.1313 9.06879 22.1313 4.94159 19.595 2.40521ZM13.1167 11.6411C12.8387 11.5275 12.5179 11.5927 12.3048 11.8058L4.14818 19.9621L2.26183 19.738L2.03771 17.8527L3.2971 16.593L5.19042 16.5878C5.60314 16.5864 5.93749 16.2524 5.93858 15.84L5.94408 13.9453L6.41759 13.4721L8.31163 13.467C8.72435 13.4662 9.0587 13.1315 9.0598 12.7192L9.06529 10.8244L10.1943 9.69501C10.4075 9.48187 10.4723 9.1618 10.3591 8.88275C9.60179 7.01508 10.0321 4.88885 11.4552 3.46576C13.4067 1.51459 16.5829 1.51459 18.5344 3.46576C20.4859 5.41766 20.4859 8.59271 18.5344 10.5446C17.1106 11.9677 14.9847 12.3962 13.1167 11.6411Z" fill="#656565"/>
<path d="M19.595 2.40521L8.2788 13.7165L8.28125 13.7189L19.595 2.40521ZM10.3946 2.40521L-0.916619 -8.91095L-0.917873 -8.90969L10.3946 2.40521ZM8.79723 8.97137L20.1109 20.2851L26.9978 13.3982L24.0433 4.11772L8.79723 8.97137ZM7.78575 9.98285L19.0847 21.3113L19.0921 21.304L19.0995 21.2966L7.78575 9.98285ZM7.56603 10.5109L-8.43386 10.4517L-8.43389 10.4592L-8.43391 10.4667L7.56603 10.5109ZM7.562 11.9692L7.6022 27.9691L23.518 27.9291L23.5619 12.0134L7.562 11.9692ZM6.10448 11.9728L6.06428 -4.02711L6.05486 -4.02709L6.04544 -4.02705L6.10448 11.9728ZM5.57604 12.1926L16.8875 23.5085L16.896 23.5L16.9045 23.4915L5.57604 12.1926ZM4.66454 13.1037L15.9634 24.4322L15.9697 24.4259L15.976 24.4197L4.66454 13.1037ZM4.44481 13.6318L-11.5551 13.5727L-11.5551 13.5802L-11.5551 13.5876L4.44481 13.6318ZM4.44078 15.09L4.48099 31.09L20.3968 31.05L20.4407 15.1342L4.44078 15.09ZM2.98363 15.0937L2.94342 -0.90626L2.934 -0.906237L2.92459 -0.906202L2.98363 15.0937ZM2.45519 15.3134L-8.85853 3.99971L-8.85972 4.0009L2.45519 15.3134ZM0.719712 17.0493L12.0334 28.363L12.0346 28.3618L0.719712 17.0493ZM0.505112 17.6682L-15.3836 19.5524L-15.383 19.5571L0.505112 17.6682ZM0.842026 20.5019L-15.0461 22.3909L-15.0456 22.3949L0.842026 20.5019ZM1.49828 21.1581L-0.396705 37.0455L-0.390479 37.0463L1.49828 21.1581ZM4.33238 21.4951L6.23247 5.60828L6.22114 5.60693L4.33238 21.4951ZM4.95128 21.2805L-6.36217 9.96649L-6.37135 9.97566L-6.3805 9.98485L4.95128 21.2805ZM13.0288 13.2033L17.8759 -2.04484L8.59881 -4.99381L1.71534 1.88934L13.0288 13.2033ZM19.595 11.6052L8.28125 0.291455L8.28005 0.292652L19.595 11.6052ZM13.1167 11.6411L7.06692 26.4532L7.0936 26.4641L7.12032 26.4749L13.1167 11.6411ZM12.3048 11.8058L23.6182 23.1198L23.6185 23.1196L12.3048 11.8058ZM4.14818 19.9621L2.26047 35.8503L9.971 36.7665L15.4616 31.2761L4.14818 19.9621ZM2.26183 19.738L-13.6263 21.6268L-12.1388 34.1395L0.374113 35.6262L2.26183 19.738ZM2.03771 17.8527L-9.27765 6.54066L-14.767 12.0316L-13.8504 19.7415L2.03771 17.8527ZM3.2971 16.593L3.25378 0.593015L-3.34961 0.610897L-8.01825 5.28089L3.2971 16.593ZM5.19042 16.5878L5.23374 32.5878L5.24721 32.5877L5.19042 16.5878ZM5.93858 15.84L-10.0613 15.7936L-10.0614 15.7974L5.93858 15.84ZM5.94408 13.9453L-5.36525 2.62717L-10.0367 7.29501L-10.0559 13.8989L5.94408 13.9453ZM6.41759 13.4721L6.37428 -2.52783L-0.224137 -2.50997L-4.89174 2.15402L6.41759 13.4721ZM8.31163 13.467L8.28324 -2.53299L8.27578 -2.53298L8.26832 -2.53296L8.31163 13.467ZM9.0598 12.7192L-6.94013 12.6728L-6.94014 12.6765L9.0598 12.7192ZM9.06529 10.8244L-2.25025 -0.487472L-6.91551 4.1793L-6.93464 10.778L9.06529 10.8244ZM10.1943 9.69501L-1.11939 -1.6187L-1.12122 -1.61687L10.1943 9.69501ZM10.3591 8.88275L-4.46827 14.8951L-4.46816 14.8954L10.3591 8.88275ZM11.4552 3.46576L0.142539 -7.84901L0.141477 -7.84795L11.4552 3.46576ZM18.5344 3.46576L29.8492 -7.84689L29.8471 -7.84901L18.5344 3.46576ZM18.5344 10.5446L29.8452 21.8612L29.8492 21.8573L18.5344 10.5446ZM19.595 2.40521L30.9111 -8.90605C22.1211 -17.6999 7.8629 -17.6867 -0.916619 -8.91095L10.3946 2.40521L21.7059 13.7214C17.9999 17.4258 11.9968 17.4361 8.2788 13.7165L19.595 2.40521ZM10.3946 2.40521L-0.917873 -8.90969C-6.90522 -2.92361 -8.98689 5.8526 -6.44882 13.825L8.79723 8.97137L24.0433 4.11772C25.1128 7.47735 24.2338 11.194 21.7071 13.7201L10.3946 2.40521ZM8.79723 8.97137L-2.51648 -2.34233L-3.52796 -1.33086L7.78575 9.98285L19.0995 21.2966L20.1109 20.2851L8.79723 8.97137ZM7.78575 9.98285L-3.51316 -1.34564C-6.67297 1.80593 -8.41759 6.05844 -8.43386 10.4517L7.56603 10.5109L23.5659 10.5702C23.5511 14.5679 21.964 18.4396 19.0847 21.3113L7.78575 9.98285ZM7.56603 10.5109L-8.43391 10.4667L-8.43794 11.925L7.562 11.9692L23.5619 12.0134L23.566 10.5551L7.56603 10.5109ZM7.562 11.9692L7.5218 -4.03077L6.06428 -4.02711L6.10448 11.9728L6.14468 27.9728L7.6022 27.9691L7.562 11.9692ZM6.10448 11.9728L6.04544 -4.02705C1.65711 -4.01086 -2.59644 -2.27059 -5.75241 0.893618L5.57604 12.1926L16.9045 23.4915C14.029 26.3745 10.1549 27.958 6.16352 27.9727L6.10448 11.9728ZM5.57604 12.1926L-5.7354 0.876584L-6.6469 1.78772L4.66454 13.1037L15.976 24.4197L16.8875 23.5085L5.57604 12.1926ZM4.66454 13.1037L-6.63437 1.77521C-9.78824 4.92085 -11.5388 9.17017 -11.5551 13.5727L4.44481 13.6318L20.4447 13.6908C20.4299 17.6964 18.8368 21.5663 15.9634 24.4322L4.66454 13.1037ZM4.44481 13.6318L-11.5551 13.5876L-11.5592 15.0458L4.44078 15.09L20.4407 15.1342L20.4447 13.676L4.44481 13.6318ZM4.44078 15.09L4.40057 -0.909923L2.94342 -0.90626L2.98363 15.0937L3.02384 31.0936L4.48099 31.09L4.44078 15.09ZM2.98363 15.0937L2.92459 -0.906202C-1.48753 -0.889921 -5.72591 0.867095 -8.85853 3.99971L2.45519 15.3134L13.7689 26.6271C10.9161 29.4799 7.05782 31.0788 3.04267 31.0936L2.98363 15.0937ZM2.45519 15.3134L-8.85972 4.0009L-10.5952 5.73674L0.719712 17.0493L12.0346 28.3618L13.7701 26.6259L2.45519 15.3134ZM0.719712 17.0493L-10.594 5.73555C-14.2192 9.3607 -15.9885 14.4509 -15.3836 19.5524L0.505112 17.6682L16.3938 15.7839C16.9446 20.4284 15.3334 25.063 12.0334 28.363L0.719712 17.0493ZM0.505112 17.6682L-15.383 19.5571L-15.0461 22.3909L0.842026 20.5019L16.7301 18.6129L16.3932 15.7792L0.505112 17.6682ZM0.842026 20.5019L-15.0456 22.3949C-14.1297 30.0819 -8.06926 36.1304 -0.396705 37.0455L1.49828 21.1581L3.39326 5.27076C10.3781 6.10387 15.8958 11.6103 16.7297 18.6089L0.842026 20.5019ZM1.49828 21.1581L-0.390479 37.0463L2.44363 37.3832L4.33238 21.4951L6.22114 5.60693L3.38703 5.27001L1.49828 21.1581ZM4.33238 21.4951L2.4323 37.3818C7.51272 37.9895 12.6302 36.2406 16.2831 32.5761L4.95128 21.2805L-6.3805 9.98485C-3.05211 6.6458 1.60482 5.05481 6.23247 5.60828L4.33238 21.4951ZM4.95128 21.2805L16.2647 32.5944L24.3422 24.5173L13.0288 13.2033L1.71534 1.88934L-6.36217 9.96649L4.95128 21.2805ZM13.0288 13.2033L8.18173 28.4515C16.1476 30.9836 24.9215 28.9073 30.9099 22.9177L19.595 11.6052L8.28005 0.292652C10.8077 -2.23552 14.5227 -3.11072 17.8759 -2.04484L13.0288 13.2033ZM19.595 11.6052L30.9087 22.9189C39.6934 14.1341 39.6934 -0.12373 30.9087 -8.9085L19.595 2.40521L8.28125 13.7189C4.56924 10.0069 4.56924 4.00347 8.28125 0.291455L19.595 11.6052ZM13.1167 11.6411L19.1665 -3.17112C12.8888 -5.73511 5.73274 -4.24951 0.991086 0.492139L12.3048 11.8058L23.6185 23.1196C19.3031 27.4349 12.7887 28.7902 7.06692 26.4532L13.1167 11.6411ZM12.3048 11.8058L0.99134 0.491885L-7.16528 8.64814L4.14818 19.9621L15.4616 31.2761L23.6182 23.1198L12.3048 11.8058ZM4.14818 19.9621L6.03589 4.07385L4.14954 3.84972L2.26183 19.738L0.374113 35.6262L2.26047 35.8503L4.14818 19.9621ZM2.26183 19.738L18.1499 17.8492L17.9258 15.9639L2.03771 17.8527L-13.8504 19.7415L-13.6263 21.6268L2.26183 19.738ZM2.03771 17.8527L13.3531 29.1648L14.6125 27.905L3.2971 16.593L-8.01825 5.28089L-9.27765 6.54066L2.03771 17.8527ZM3.2971 16.593L3.34043 32.5929L5.23374 32.5878L5.19042 16.5878L5.14709 0.587888L3.25378 0.593015L3.2971 16.593ZM5.19042 16.5878L5.24721 32.5877C14.4341 32.5551 21.9139 25.1162 21.9385 15.8827L5.93858 15.84L-10.0614 15.7974C-10.039 7.38855 -3.22786 0.617608 5.13363 0.58793L5.19042 16.5878ZM5.93858 15.84L21.9385 15.8864L21.944 13.9916L5.94408 13.9453L-10.0559 13.8989L-10.0613 15.7936L5.93858 15.84ZM5.94408 13.9453L17.2534 25.2633L17.7269 24.7902L6.41759 13.4721L-4.89174 2.15402L-5.36525 2.62717L5.94408 13.9453ZM6.41759 13.4721L6.4609 29.472L8.35494 29.4669L8.31163 13.467L8.26832 -2.53296L6.37428 -2.52783L6.41759 13.4721ZM8.31163 13.467L8.34003 29.467C17.5749 29.4506 25.0352 21.9696 25.0597 12.7618L9.0598 12.7192L-6.94014 12.6765C-6.91781 4.29349 -0.126249 -2.51807 8.28324 -2.53299L8.31163 13.467ZM9.0598 12.7192L25.0597 12.7656L25.0652 10.8708L9.06529 10.8244L-6.93464 10.778L-6.94013 12.6728L9.0598 12.7192ZM9.06529 10.8244L20.3808 22.1363L21.5099 21.0069L10.1943 9.69501L-1.12122 -1.61687L-2.25025 -0.487472L9.06529 10.8244ZM10.1943 9.69501L21.508 21.0087C26.2666 16.2502 27.7151 9.10591 25.1864 2.87011L10.3591 8.88275L-4.46816 14.8954C-6.77053 9.2177 -5.45167 2.71358 -1.11939 -1.6187L10.1943 9.69501ZM10.3591 8.88275L25.1865 2.87039C26.8405 6.94934 25.8988 11.6496 22.7689 14.7795L11.4552 3.46576L0.141477 -7.84795C-5.83463 -1.87185 -7.6369 7.08081 -4.46827 14.8951L10.3591 8.88275ZM11.4552 3.46576L22.7678 14.7805C18.4712 19.0763 11.5184 19.0763 7.22176 14.7805L18.5344 3.46576L29.8471 -7.84901C21.6474 -16.0472 8.34222 -16.0472 0.142539 -7.84901L11.4552 3.46576ZM18.5344 3.46576L7.21964 14.7784C2.9242 10.4822 2.9242 3.52821 7.21964 -0.76803L18.5344 10.5446L29.8492 21.8573C38.0477 13.6572 38.0477 0.353162 29.8492 -7.84689L18.5344 3.46576ZM18.5344 10.5446L7.22361 -0.772002C10.3594 -3.90621 15.0535 -4.83384 19.113 -3.19282L13.1167 11.6411L7.12032 26.4749C14.916 29.6262 23.8617 27.8416 29.8452 21.8612L18.5344 10.5446Z" fill="#656565" mask="url(#path-1-inside-1_3225_13809)"/>
</svg>
