<svg width="24" height="24" viewBox="0 0 24 24" fill="none" xmlns="http://www.w3.org/2000/svg">
<path d="M11.0732 9.31543C11.9994 9.26032 12.9093 9.57578 13.6035 10.1914H13.6045C13.6292 10.2133 13.6496 10.2399 13.6641 10.2695C13.6785 10.2991 13.6865 10.3314 13.6885 10.3643C13.6905 10.3972 13.6856 10.4307 13.6748 10.4619C13.6641 10.4928 13.6476 10.5214 13.626 10.5459C13.6041 10.5706 13.5775 10.591 13.5479 10.6055C13.5182 10.6199 13.486 10.6288 13.4531 10.6309C13.4202 10.6329 13.3867 10.6279 13.3555 10.6172C13.3244 10.6064 13.2961 10.5892 13.2715 10.5674C12.6767 10.0406 11.8966 9.77192 11.1035 9.81934C10.3106 9.86681 9.56872 10.2266 9.04102 10.8203V10.8213L4.00586 16.4902C3.47805 17.0851 3.20854 17.8653 3.25586 18.6592C3.30329 19.4532 3.66381 20.1967 4.25879 20.7246C4.85364 21.2523 5.63397 21.5219 6.42773 21.4746C7.22172 21.4272 7.96526 21.0666 8.49316 20.4717L11.3682 17.2305C11.4122 17.1811 11.474 17.1514 11.54 17.1475C11.6062 17.1435 11.6711 17.166 11.7207 17.21C11.7452 17.2317 11.7659 17.2577 11.7803 17.2871C11.7946 17.3166 11.8027 17.3491 11.8047 17.3818C11.8067 17.4146 11.8017 17.4475 11.791 17.4785C11.7856 17.4942 11.7788 17.5092 11.7705 17.5234L11.7422 17.5625L8.86719 20.8037L8.86621 20.8047C8.56218 21.1489 8.19242 21.4292 7.7793 21.6299C7.36621 21.8305 6.91746 21.9475 6.45898 21.9736H6.45508C6.38654 21.9781 6.31586 21.9805 6.24414 21.9805L5.99219 21.9707C5.40665 21.9277 4.83964 21.7378 4.34473 21.417C3.77919 21.0503 3.33158 20.528 3.05566 19.9131C2.7798 19.2982 2.68697 18.6164 2.78906 17.9502C2.89128 17.2838 3.18421 16.6603 3.63184 16.1562L8.66406 10.4863C9.28025 9.79235 10.1468 9.37068 11.0732 9.31543ZM17.542 2.02539C18.4682 1.97015 19.379 2.28487 20.0732 2.90039C20.7668 3.51707 21.1868 4.38413 21.2422 5.31055C21.2974 6.23695 20.9834 7.14798 20.3682 7.84277L15.3389 13.5156C15.0348 13.8599 14.6651 14.1411 14.252 14.3418C13.8389 14.5424 13.3901 14.6584 12.9316 14.6846L12.9141 14.6865C12.8589 14.6916 12.8003 14.6914 12.7158 14.6914C11.862 14.6922 11.0378 14.3787 10.4004 13.8105L10.3984 13.8096L10.3652 13.7734C10.3552 13.7603 10.3461 13.7464 10.3389 13.7314C10.3245 13.7019 10.3165 13.6695 10.3145 13.6367C10.3125 13.6038 10.3174 13.5703 10.3281 13.5391C10.3389 13.508 10.3552 13.4787 10.377 13.4541C10.3988 13.4295 10.4256 13.4099 10.4551 13.3955C10.4847 13.3811 10.5169 13.3721 10.5498 13.3701C10.5827 13.3681 10.6163 13.373 10.6475 13.3838C10.6783 13.3945 10.7069 13.411 10.7314 13.4326C11.3262 13.9594 12.1063 14.2291 12.8994 14.1816C13.6925 14.1342 14.4342 13.7736 14.9619 13.1797L19.9941 7.50879L19.9932 7.50781C20.263 7.21795 20.4738 6.87828 20.6113 6.50684C20.7505 6.13087 20.813 5.73058 20.7949 5.33008C20.7768 4.92961 20.6784 4.53666 20.5059 4.1748C20.3333 3.81295 20.0898 3.48884 19.79 3.22266C19.4904 2.95664 19.1403 2.7535 18.7607 2.625C18.3809 2.49645 17.979 2.4452 17.5791 2.47461C17.1793 2.50402 16.7894 2.61326 16.4326 2.7959C16.1204 2.95576 15.8386 3.16921 15.6006 3.42578L15.5098 3.52832L12.6348 6.76855V6.76953C12.5907 6.81932 12.5283 6.84936 12.4619 6.85352C12.429 6.85552 12.3955 6.8506 12.3643 6.83984C12.3331 6.82909 12.304 6.81285 12.2793 6.79102C12.2547 6.76923 12.2351 6.7424 12.2207 6.71289C12.2063 6.68331 12.1973 6.65101 12.1953 6.61816C12.1923 6.56831 12.2047 6.5191 12.2295 6.47656L12.2578 6.43652L15.1318 3.19531L15.1328 3.19629C15.7489 2.50237 16.6157 2.08071 17.542 2.02539Z" fill="#150A02" stroke="#150A02"/>
</svg>
