<svg width="65" height="64" viewBox="0 0 65 64" fill="none" xmlns="http://www.w3.org/2000/svg">
<rect x="64.8477" y="64" width="64" height="64" rx="32" transform="rotate(180 64.8477 64)" fill="#F8F2E1"/>
<path d="M53.6789 40.6757C53.6254 40.2108 53.2074 39.8749 52.7404 39.9296C50.2472 40.2144 48.1399 41.5593 46.1027 42.8601L45.7521 43.0837C43.8784 44.2751 41.7081 45.5399 39.4451 45.4582C37.7821 45.3982 36.0674 44.6141 34.2179 43.085C34.547 42.7705 34.8701 42.4536 35.1875 42.1418C36.1724 41.1731 37.1032 40.2583 38.1549 39.4719C41.2311 37.1719 45.3303 36.1706 49.1193 36.792C49.5786 36.8679 50.0175 36.5552 50.0937 36.0928C50.1693 35.6304 49.8563 35.1943 49.3942 35.1186C45.1553 34.4222 40.5769 35.5429 37.1391 38.1137C35.9957 38.9686 34.9804 39.9668 33.9983 40.9321C33.6537 41.2707 33.3021 41.6137 32.946 41.9518C32.59 41.6137 32.2383 41.2707 31.8938 40.9321C30.9116 39.9668 29.8963 38.9686 28.753 38.1137C25.3152 35.5426 20.7329 34.423 16.4979 35.1186C16.0358 35.1943 15.7227 35.6304 15.7984 36.0928C15.8746 36.5552 16.314 36.8682 16.7728 36.792C20.5601 36.1698 24.6609 37.1713 27.7371 39.4719C28.7888 40.2583 29.7196 41.1731 30.7046 42.1418C31.022 42.4536 31.345 42.7705 31.6742 43.085C29.8246 44.6141 28.1099 45.3982 26.4464 45.4582C24.1878 45.5399 22.0137 44.2751 20.14 43.0837L19.7894 42.8601C17.7522 41.5593 15.6449 40.2144 13.1517 39.9296C12.6857 39.8719 12.2667 40.2106 12.2132 40.6757C12.1602 41.1411 12.4942 41.5613 12.9596 41.6145C15.063 41.855 17.0019 43.0928 18.8768 44.2897L19.2301 44.5147C21.2496 45.7988 23.6131 47.1581 26.2349 47.1581C26.3255 47.1581 26.4166 47.1564 26.5076 47.1531C28.6184 47.0769 30.7269 46.1157 32.946 44.2333C35.1652 46.1157 37.2737 47.0769 39.3839 47.1531C39.4755 47.1564 39.566 47.1581 39.6571 47.1581C42.279 47.1581 44.6424 45.7988 46.6619 44.5147L47.0153 44.2897C48.8901 43.0928 50.8291 41.855 52.9325 41.6145C53.3979 41.5613 53.7319 41.1411 53.6789 40.6757Z" fill="#F39770"/>
<path d="M23.6458 32.7417C23.2408 32.6437 22.9892 32.2348 23.1163 31.8379C23.7485 29.863 24.9584 28.1157 26.5975 26.827C28.435 25.3824 30.7051 24.598 33.0424 24.6001C35.3798 24.6022 37.6484 25.3906 39.4833 26.8385C41.1202 28.1302 42.3269 29.8796 42.9556 31.8557C43.082 32.2528 42.8297 32.6613 42.4245 32.7585C42.0193 32.8558 41.615 32.6048 41.4838 32.2093C40.9374 30.5622 39.9194 29.105 38.5485 28.0232C36.9796 26.7851 35.0397 26.111 33.0411 26.1092C31.0425 26.1074 29.1014 26.7781 27.5302 28.0133C26.1574 29.0926 25.1368 30.5481 24.5874 32.1941C24.4555 32.5894 24.0508 32.8397 23.6458 32.7417Z" fill="#F39770"/>
<path d="M33.0331 24.6001L33.0331 17.0271" stroke="#F39770" stroke-width="1.4" stroke-linecap="round"/>
<path d="M27.3534 26.4934L22.6204 19.867" stroke="#F39770" stroke-width="1.4" stroke-linecap="round"/>
<path d="M38.7128 26.4934L43.4458 19.867" stroke="#F39770" stroke-width="1.4" stroke-linecap="round"/>
<path d="M42.333 30.2798L49.1254 27.8831" stroke="#F39770" stroke-width="1.4" stroke-linecap="round"/>
<path d="M23.8723 30.2798L16.7746 27.6395" stroke="#F39770" stroke-width="1.4" stroke-linecap="round"/>
</svg>
