<svg width="20" height="20" viewBox="0 0 20 20" fill="none" xmlns="http://www.w3.org/2000/svg">
<path d="M11.75 2.61523L11.2861 2.58203L3.78613 2.04492L3.25 2.00586V17.9932L3.78613 17.9551L11.2861 17.417L11.75 17.3838V15.625C11.75 15.586 11.7568 15.5645 11.7607 15.5557C11.7646 15.547 11.7695 15.5414 11.7754 15.5361C11.7897 15.5236 11.8239 15.5059 11.875 15.5059C11.9261 15.5059 11.9603 15.5236 11.9746 15.5361C11.9805 15.5414 11.9854 15.547 11.9893 15.5557C11.9932 15.5645 12 15.586 12 15.625V17.5C11.9999 17.5483 11.972 17.5921 11.9287 17.6133L11.8809 17.626L3.13281 18.251C3.10331 18.253 3.06922 18.2426 3.04102 18.2168C3.01422 18.1922 3.0001 18.1604 3 18.125V1.875C3 1.80067 3.06192 1.74317 3.13281 1.74805L11.8809 2.37207V2.37305C11.9474 2.37841 12 2.43861 12 2.5V4.375C12 4.41373 11.9932 4.43451 11.9893 4.44336C11.9854 4.45205 11.9805 4.45765 11.9746 4.46289C11.9603 4.47547 11.9261 4.49316 11.875 4.49316C11.8239 4.49316 11.7897 4.47547 11.7754 4.46289C11.7695 4.45765 11.7646 4.45205 11.7607 4.44336C11.7568 4.43451 11.75 4.41373 11.75 4.375V2.61523Z" fill="#150A02" stroke="#150A02"/>
<path d="M17.3188 9.55625L14.1938 6.43125C13.6063 5.84375 12.7251 6.73125 13.3126 7.3125L15.3688 9.36875H8.1251C7.3001 9.36875 7.3001 10.6188 8.1251 10.6188H15.3688L13.3126 12.675C12.7063 13.2813 13.6313 14.125 14.1938 13.5563L17.3188 10.4313C17.5626 10.1875 17.5626 9.7875 17.3188 9.54375V9.55625Z" fill="#150A02"/>
</svg>
