<svg width="44" height="44" viewBox="0 0 44 44" fill="none" xmlns="http://www.w3.org/2000/svg">
<path d="M22 43.0938C33.6498 43.0938 43.0938 33.6498 43.0938 22C43.0938 10.3502 33.6498 0.90625 22 0.90625C10.3502 0.90625 0.90625 10.3502 0.90625 22C0.90625 33.6498 10.3502 43.0938 22 43.0938Z" fill="#2196F3"/>
<path d="M22.0002 10.2812C15.6064 10.2812 10.4033 15.325 10.4033 21.5219C10.4033 24.8313 11.9033 27.9531 14.5096 30.1L14.7252 30.2781L14.5846 33.7281L17.8377 32.0219L18.0627 32.0969C19.3283 32.5375 20.6502 32.7625 22.0002 32.7625C28.3939 32.7625 33.5971 27.7188 33.5971 21.5219C33.5971 15.325 28.3939 10.2812 22.0002 10.2812ZM27.7939 18.475L23.6408 24.4281L20.3127 21.9438L16.2064 24.9625L20.3596 19.0094L23.6877 21.4938L27.7939 18.475Z" fill="white"/>
</svg>
