<svg width="49" height="48" viewBox="0 0 49 48" fill="none" xmlns="http://www.w3.org/2000/svg">
<rect x="0.75" width="48" height="48" rx="24" fill="#E1E8EA"/>
<g clip-path="url(#clip0_3251_6031)">
<path d="M33.0086 31.5515H33.6673C37.5817 31.5515 40.75 28.3776 40.75 24.4633C40.75 20.549 37.5817 17.3751 33.6673 17.3751C33.5421 17.3751 33.4224 17.3806 33.3026 17.386C32.203 13.695 28.795 11 24.7446 11C23.6286 11 22.567 11.2068 21.5815 11.5825C18.9957 12.5624 16.9869 14.7129 16.1974 17.386C16.0776 17.3804 15.9524 17.3751 15.8327 17.3751C13.7693 17.3751 11.913 18.2572 10.6228 19.6616C9.45775 20.9247 8.75 22.6124 8.75 24.4633C8.75 28.3776 11.9183 31.5515 15.8327 31.5515H16.4914H33.0086Z" fill="#9DB8C9"/>
<path d="M40.75 24.4638C40.75 28.3779 37.581 31.5516 33.6669 31.5516H15.8336C14.4251 31.5516 13.1115 31.1407 12.0083 30.4289C13.1174 30.6412 14.2685 30.7526 15.4468 30.7526C24.7539 30.7526 32.3007 23.8274 32.3007 15.2846C32.3007 15.2486 32.3007 15.2108 32.2991 15.1748C32.7281 15.855 33.0681 16.5969 33.3014 17.3853C33.4233 17.3794 33.5452 17.3747 33.6669 17.3747C37.581 17.3747 40.75 20.5499 40.75 24.4638Z" fill="#849D94"/>
<path d="M17.9125 36.6106C17.7075 37.3848 16.9361 37.9422 16.0806 37.8014C16.0282 37.7922 15.975 37.7813 15.9224 37.7674C14.7141 37.4473 14.3039 35.9379 15.1864 35.0506L17.1703 33.0557L17.7338 35.1312L17.9067 35.7712C17.9858 36.0623 17.9818 36.349 17.9125 36.6106Z" fill="#8FC4EC"/>
<path d="M17.9125 36.6104C17.7075 37.3847 16.9361 37.942 16.0806 37.8013C16.7377 37.386 17.2783 36.9396 17.5029 36.4035C17.6726 36.0403 17.7369 35.6087 17.7335 35.1309L17.9065 35.7708C17.9858 36.0622 17.9818 36.3489 17.9125 36.6104Z" fill="#61ADDB"/>
<path d="M25.4024 36.6106C25.1975 37.3848 24.4261 37.9422 23.5703 37.8014C23.518 37.7922 23.4647 37.7813 23.4122 37.7674C22.2038 37.4473 21.7936 35.9379 22.6761 35.0506L24.6602 33.0557L25.2237 35.1312L25.3967 35.7712C25.4758 36.0623 25.4718 36.349 25.4024 36.6106Z" fill="#8FC4EC"/>
<path d="M25.4024 36.6104C25.1974 37.3847 24.4261 37.942 23.5703 37.8013C24.2275 37.386 24.768 36.9396 24.9929 36.4035C25.1625 36.0403 25.2268 35.6087 25.2235 35.1309L25.3965 35.7708C25.4758 36.0622 25.4718 36.3489 25.4024 36.6104Z" fill="#61ADDB"/>
<path d="M32.8925 36.6106C32.6875 37.3848 31.9161 37.9422 31.0603 37.8014C31.008 37.7922 30.9547 37.7813 30.9022 37.7674C29.6938 37.4473 29.2836 35.9379 30.1661 35.0506L32.1502 33.0557L32.7137 35.1312L32.8867 35.7712C32.9658 36.0623 32.9618 36.349 32.8925 36.6106Z" fill="#8FC4EC"/>
<path d="M32.8924 36.6104C32.6874 37.3847 31.9161 37.942 31.0603 37.8013C31.7175 37.386 32.258 36.9396 32.4829 36.4035C32.6525 36.0403 32.7168 35.6087 32.7135 35.1309L32.8865 35.7708C32.9658 36.0622 32.9618 36.3489 32.8924 36.6104Z" fill="#61ADDB"/>
</g>
<defs>
<clipPath id="clip0_3251_6031">
<rect width="32" height="32" fill="white" transform="translate(8.75 8)"/>
</clipPath>
</defs>
</svg>
