<svg width="97" height="96" viewBox="0 0 97 96" fill="none" xmlns="http://www.w3.org/2000/svg">
<rect x="0.5" width="96" height="96" rx="48" fill="url(#paint0_linear_535_29339)"/>
<g clip-path="url(#clip0_535_29339)">
<path d="M48.4998 64.9664C57.8707 64.9664 65.4673 57.3697 65.4673 47.9988C65.4673 38.6279 57.8707 31.0312 48.4998 31.0312C39.1289 31.0312 31.5323 38.6279 31.5323 47.9988C31.5323 57.3697 39.1289 64.9664 48.4998 64.9664Z" fill="#FCD144"/>
<path d="M48.3246 68.2002C48.6634 68.203 48.9359 68.48 48.9324 68.8191L48.8683 75.3938C48.8648 75.7319 48.5885 76.0034 48.2504 76.0006C47.9117 75.9978 47.6391 75.7208 47.6426 75.3817L47.7068 68.807C47.7102 68.4689 47.9866 68.1974 48.3246 68.2002Z" fill="#F39770"/>
<path d="M34.0928 62.1596C34.3306 62.4012 34.3272 62.7899 34.0852 63.0271L29.3908 67.6306C29.1495 67.8674 28.7619 67.864 28.525 67.623C28.2872 67.3813 28.2907 66.9926 28.5327 66.7555L33.227 62.1519C33.4683 61.9151 33.8556 61.9186 34.0928 62.1596Z" fill="#F39770"/>
<path d="M28.3004 47.8246C28.2976 48.1634 28.0205 48.4359 27.6814 48.4324L21.1068 48.3683C20.7687 48.3652 20.4972 48.0885 20.5 47.7504C20.5028 47.4117 20.7798 47.1391 21.1189 47.1426L27.6936 47.2068C28.0313 47.2102 28.3031 47.4866 28.3004 47.8246Z" fill="#F39770"/>
<path d="M34.3405 33.5936C34.0988 33.8314 33.7101 33.8279 33.473 33.5859L28.8695 28.8916C28.6327 28.6502 28.6361 28.2626 28.8771 28.0258C29.1188 27.7879 29.5074 27.7914 29.7446 28.0334L34.3481 32.7278C34.5846 32.9688 34.5811 33.3564 34.3405 33.5936Z" fill="#F39770"/>
<path d="M48.6747 27.8004C48.336 27.7976 48.0635 27.5206 48.0669 27.1815L48.1311 20.6068C48.1342 20.2687 48.4109 19.9972 48.7489 20C49.0877 20.0028 49.3602 20.2798 49.3567 20.6189L49.2926 27.1936C49.2891 27.5313 49.0128 27.8028 48.6747 27.8004Z" fill="#F39770"/>
<path d="M62.9064 33.8398C62.6685 33.5981 62.672 33.2094 62.914 32.9723L67.6084 28.3687C67.8497 28.1319 68.237 28.1354 68.4741 28.3764C68.712 28.618 68.7085 29.0067 68.4665 29.2439L63.7722 33.8474C63.5312 34.0842 63.1436 34.0808 62.9064 33.8398Z" fill="#F39770"/>
<path d="M68.699 48.1752C68.7018 47.8365 68.9788 47.5639 69.3179 47.5674L75.8926 47.6316C76.2306 47.6347 76.5021 47.9114 76.4993 48.2494C76.4966 48.5882 76.2195 48.8607 75.8804 48.8572L69.3058 48.7931C68.9677 48.7896 68.6962 48.5133 68.699 48.1752Z" fill="#F39770"/>
<path d="M62.6595 62.4066C62.9011 62.1688 63.2898 62.1722 63.527 62.4143L68.1305 67.1086C68.3673 67.35 68.3638 67.7376 68.1228 67.9744C67.8812 68.2123 67.4925 68.2088 67.2553 67.9668L62.6518 63.2724C62.415 63.0311 62.4185 62.6438 62.6595 62.4066Z" fill="#F39770"/>
</g>
<defs>
<linearGradient id="paint0_linear_535_29339" x1="0.5" y1="0" x2="112.823" y2="26.3086" gradientUnits="userSpaceOnUse">
<stop stop-color="#FFE3A3" stop-opacity="0.8"/>
<stop offset="1" stop-color="#FFE3A3" stop-opacity="0.16"/>
</linearGradient>
<clipPath id="clip0_535_29339">
<rect width="56" height="56" fill="white" transform="translate(20.5 20)"/>
</clipPath>
</defs>
</svg>
