<svg width="16" height="16" viewBox="0 0 16 16" fill="none" xmlns="http://www.w3.org/2000/svg">
<g clip-path="url(#clip0_399_30227)">
<path d="M15.4775 7.62546C15.378 7.62546 15.2826 7.66497 15.2123 7.7353C15.142 7.80562 15.1025 7.901 15.1025 8.00046C15.1024 9.40518 14.6858 10.7783 13.9053 11.9463C13.1248 13.1142 12.0155 14.0245 10.7177 14.562C9.41983 15.0995 7.99177 15.24 6.61405 14.9659C5.23634 14.6918 3.97084 14.0153 2.97759 13.022C1.98433 12.0287 1.30793 10.7631 1.03392 9.38541C0.759913 8.00767 0.900595 6.57962 1.43818 5.28184C1.97577 3.98405 2.88611 2.87482 4.0541 2.09441C5.22209 1.314 6.59527 0.897461 7.99999 0.897461C8.09944 0.897461 8.19483 0.857952 8.26515 0.787626C8.33548 0.7173 8.37499 0.621917 8.37499 0.522461C8.37499 0.423005 8.33548 0.327622 8.26515 0.257296C8.19483 0.18697 8.09944 0.147461 7.99999 0.147461C6.44679 0.147362 4.92844 0.607848 3.63696 1.47069C2.34547 2.33353 1.33886 3.55996 0.744405 4.9949C0.149954 6.42984 -0.00563313 8.00883 0.29732 9.5322C0.600273 11.0556 1.34816 12.4549 2.4464 13.5532C3.54464 14.6515 4.94391 15.3995 6.46726 15.7025C7.99061 16.0056 9.56961 15.8501 11.0046 15.2557C12.4396 14.6614 13.6661 13.6548 14.529 12.3634C15.3919 11.072 15.8525 9.55366 15.8525 8.00046C15.8525 7.901 15.813 7.80562 15.7427 7.7353C15.6723 7.66497 15.5769 7.62546 15.4775 7.62546Z" fill="#5E9B87"/>
<path d="M15.4775 7.62546C15.378 7.62546 15.2826 7.66497 15.2123 7.7353C15.142 7.80562 15.1025 7.901 15.1025 8.00046C15.1024 9.40518 14.6858 10.7783 13.9053 11.9463C13.1248 13.1142 12.0155 14.0245 10.7177 14.562C9.41983 15.0995 7.99177 15.24 6.61405 14.9659C5.23634 14.6918 3.97084 14.0153 2.97759 13.022C1.98433 12.0287 1.30793 10.7631 1.03392 9.38541C0.759913 8.00767 0.900595 6.57962 1.43818 5.28184C1.97577 3.98405 2.88611 2.87482 4.0541 2.09441C5.22209 1.314 6.59527 0.897461 7.99999 0.897461C8.09944 0.897461 8.19483 0.857952 8.26515 0.787626C8.33548 0.7173 8.37499 0.621917 8.37499 0.522461C8.37499 0.423005 8.33548 0.327622 8.26515 0.257296C8.19483 0.18697 8.09944 0.147461 7.99999 0.147461C6.44679 0.147362 4.92844 0.607848 3.63696 1.47069C2.34547 2.33353 1.33886 3.55996 0.744405 4.9949C0.149954 6.42984 -0.00563313 8.00883 0.29732 9.5322C0.600273 11.0556 1.34816 12.4549 2.4464 13.5532C3.54464 14.6515 4.94391 15.3995 6.46726 15.7025C7.99061 16.0056 9.56961 15.8501 11.0046 15.2557C12.4396 14.6614 13.6661 13.6548 14.529 12.3634C15.3919 11.072 15.8525 9.55366 15.8525 8.00046C15.8525 7.901 15.813 7.80562 15.7427 7.7353C15.6723 7.66497 15.5769 7.62546 15.4775 7.62546Z" fill="black" fill-opacity="0.2"/>
<path d="M8.01556 11.517C8.67752 11.5173 9.33159 11.3733 9.93224 11.0951C10.5329 10.8168 11.0657 10.4111 11.4936 9.90597C11.5254 9.86841 11.5496 9.82494 11.5647 9.77804C11.5798 9.73114 11.5855 9.68173 11.5814 9.63263C11.5774 9.58354 11.5638 9.53571 11.5413 9.49188C11.5188 9.44806 11.4879 9.4091 11.4503 9.37722C11.4128 9.34534 11.3693 9.32117 11.3224 9.30609C11.2755 9.29101 11.2261 9.28532 11.177 9.28933C11.1279 9.29335 11.0801 9.307 11.0362 9.3295C10.9924 9.352 10.9534 9.38291 10.9216 9.42047C10.5661 9.8401 10.1239 10.1777 9.62543 10.4102C9.12699 10.6426 8.58411 10.7643 8.03414 10.7669C7.48417 10.7696 6.94016 10.653 6.43953 10.4253C5.9389 10.1976 5.49353 9.8642 5.13406 9.44797C5.06895 9.37271 4.97661 9.3264 4.87736 9.31923C4.7781 9.31206 4.68007 9.34461 4.60481 9.40972C4.52956 9.47483 4.48325 9.56717 4.47607 9.66642C4.4689 9.76567 4.50145 9.86371 4.56656 9.93897C4.99446 10.4342 5.52398 10.8315 6.11913 11.1038C6.71428 11.376 7.36108 11.517 8.01556 11.517Z" fill="#5E9B87"/>
<path d="M8.01556 11.517C8.67752 11.5173 9.33159 11.3733 9.93224 11.0951C10.5329 10.8168 11.0657 10.4111 11.4936 9.90597C11.5254 9.86841 11.5496 9.82494 11.5647 9.77804C11.5798 9.73114 11.5855 9.68173 11.5814 9.63263C11.5774 9.58354 11.5638 9.53571 11.5413 9.49188C11.5188 9.44806 11.4879 9.4091 11.4503 9.37722C11.4128 9.34534 11.3693 9.32117 11.3224 9.30609C11.2755 9.29101 11.2261 9.28532 11.177 9.28933C11.1279 9.29335 11.0801 9.307 11.0362 9.3295C10.9924 9.352 10.9534 9.38291 10.9216 9.42047C10.5661 9.8401 10.1239 10.1777 9.62543 10.4102C9.12699 10.6426 8.58411 10.7643 8.03414 10.7669C7.48417 10.7696 6.94016 10.653 6.43953 10.4253C5.9389 10.1976 5.49353 9.8642 5.13406 9.44797C5.06895 9.37271 4.97661 9.3264 4.87736 9.31923C4.7781 9.31206 4.68007 9.34461 4.60481 9.40972C4.52956 9.47483 4.48325 9.56717 4.47607 9.66642C4.4689 9.76567 4.50145 9.86371 4.56656 9.93897C4.99446 10.4342 5.52398 10.8315 6.11913 11.1038C6.71428 11.376 7.36108 11.517 8.01556 11.517Z" fill="black" fill-opacity="0.2"/>
<path d="M4.92651 6.34609H4.92901C5.06356 6.28041 5.21129 6.24621 5.36101 6.24609C5.62623 6.24609 5.88058 6.35145 6.06812 6.53899C6.25566 6.72652 6.36101 6.98088 6.36101 7.24609C6.36101 7.34555 6.40052 7.44093 6.47085 7.51126C6.54117 7.58159 6.63656 7.62109 6.73601 7.62109C6.83547 7.62109 6.93085 7.58159 7.00118 7.51126C7.0715 7.44093 7.11101 7.34555 7.11101 7.24609C7.11101 6.78196 6.92664 6.33685 6.59845 6.00866C6.27026 5.68047 5.82514 5.49609 5.36101 5.49609C5.1133 5.49681 4.86862 5.55069 4.64351 5.65409C4.63332 5.65874 4.62346 5.66408 4.61401 5.67009C4.31549 5.81123 4.06309 6.03411 3.88609 6.31288C3.7091 6.59165 3.61476 6.91488 3.61401 7.24509C3.61401 7.34455 3.65352 7.43993 3.72385 7.51026C3.79417 7.58059 3.88956 7.62009 3.98901 7.62009C4.08847 7.62009 4.18385 7.58059 4.25418 7.51026C4.3245 7.43993 4.36401 7.34455 4.36401 7.24509C4.36405 7.05758 4.41682 6.87385 4.51628 6.71489C4.61574 6.55593 4.7579 6.42813 4.92651 6.34609Z" fill="#5E9B87"/>
<path d="M4.92651 6.34609H4.92901C5.06356 6.28041 5.21129 6.24621 5.36101 6.24609C5.62623 6.24609 5.88058 6.35145 6.06812 6.53899C6.25566 6.72652 6.36101 6.98088 6.36101 7.24609C6.36101 7.34555 6.40052 7.44093 6.47085 7.51126C6.54117 7.58159 6.63656 7.62109 6.73601 7.62109C6.83547 7.62109 6.93085 7.58159 7.00118 7.51126C7.0715 7.44093 7.11101 7.34555 7.11101 7.24609C7.11101 6.78196 6.92664 6.33685 6.59845 6.00866C6.27026 5.68047 5.82514 5.49609 5.36101 5.49609C5.1133 5.49681 4.86862 5.55069 4.64351 5.65409C4.63332 5.65874 4.62346 5.66408 4.61401 5.67009C4.31549 5.81123 4.06309 6.03411 3.88609 6.31288C3.7091 6.59165 3.61476 6.91488 3.61401 7.24509C3.61401 7.34455 3.65352 7.43993 3.72385 7.51026C3.79417 7.58059 3.88956 7.62009 3.98901 7.62009C4.08847 7.62009 4.18385 7.58059 4.25418 7.51026C4.3245 7.43993 4.36401 7.34455 4.36401 7.24509C4.36405 7.05758 4.41682 6.87385 4.51628 6.71489C4.61574 6.55593 4.7579 6.42813 4.92651 6.34609Z" fill="black" fill-opacity="0.2"/>
<path d="M12.0425 7.61621C12.1419 7.61621 12.2373 7.5767 12.3076 7.50638C12.378 7.43605 12.4175 7.34067 12.4175 7.24121C12.4175 7.0114 12.3722 6.78383 12.2843 6.57152C12.1963 6.3592 12.0674 6.16628 11.9049 6.00377C11.7424 5.84127 11.5495 5.71237 11.3372 5.62442C11.1249 5.53648 10.8973 5.49121 10.6675 5.49121C10.4377 5.49121 10.2101 5.53648 9.99778 5.62442C9.78546 5.71237 9.59255 5.84127 9.43004 6.00377C9.26754 6.16628 9.13864 6.3592 9.05069 6.57152C8.96275 6.78383 8.91748 7.0114 8.91748 7.24121C8.91748 7.34067 8.95699 7.43605 9.02732 7.50638C9.09764 7.5767 9.19302 7.61621 9.29248 7.61621C9.39194 7.61621 9.48732 7.5767 9.55765 7.50638C9.62797 7.43605 9.66748 7.34067 9.66748 7.24121C9.66705 7.07506 9.70815 6.91143 9.78705 6.76521C9.86594 6.61898 9.98014 6.4948 10.1192 6.40393C10.2583 6.31307 10.418 6.25841 10.5836 6.24492C10.7492 6.23143 10.9155 6.25955 11.0675 6.32671C11.0825 6.33645 11.0982 6.34514 11.1145 6.35271C11.2795 6.43533 11.4182 6.56216 11.5154 6.71904C11.6125 6.87592 11.6641 7.0567 11.6645 7.24121C11.6645 7.29071 11.6743 7.33972 11.6933 7.38541C11.7123 7.43111 11.7402 7.47258 11.7754 7.50744C11.8105 7.5423 11.8522 7.56986 11.8981 7.58853C11.9439 7.6072 11.993 7.61661 12.0425 7.61621Z" fill="#5E9B87"/>
<path d="M12.0425 7.61621C12.1419 7.61621 12.2373 7.5767 12.3076 7.50638C12.378 7.43605 12.4175 7.34067 12.4175 7.24121C12.4175 7.0114 12.3722 6.78383 12.2843 6.57152C12.1963 6.3592 12.0674 6.16628 11.9049 6.00377C11.7424 5.84127 11.5495 5.71237 11.3372 5.62442C11.1249 5.53648 10.8973 5.49121 10.6675 5.49121C10.4377 5.49121 10.2101 5.53648 9.99778 5.62442C9.78546 5.71237 9.59255 5.84127 9.43004 6.00377C9.26754 6.16628 9.13864 6.3592 9.05069 6.57152C8.96275 6.78383 8.91748 7.0114 8.91748 7.24121C8.91748 7.34067 8.95699 7.43605 9.02732 7.50638C9.09764 7.5767 9.19302 7.61621 9.29248 7.61621C9.39194 7.61621 9.48732 7.5767 9.55765 7.50638C9.62797 7.43605 9.66748 7.34067 9.66748 7.24121C9.66705 7.07506 9.70815 6.91143 9.78705 6.76521C9.86594 6.61898 9.98014 6.4948 10.1192 6.40393C10.2583 6.31307 10.418 6.25841 10.5836 6.24492C10.7492 6.23143 10.9155 6.25955 11.0675 6.32671C11.0825 6.33645 11.0982 6.34514 11.1145 6.35271C11.2795 6.43533 11.4182 6.56216 11.5154 6.71904C11.6125 6.87592 11.6641 7.0567 11.6645 7.24121C11.6645 7.29071 11.6743 7.33972 11.6933 7.38541C11.7123 7.43111 11.7402 7.47258 11.7754 7.50744C11.8105 7.5423 11.8522 7.56986 11.8981 7.58853C11.9439 7.6072 11.993 7.61661 12.0425 7.61621Z" fill="black" fill-opacity="0.2"/>
<path d="M15.4672 1.65232L14.7432 1.25682L14.3502 0.532819C14.2862 0.415881 14.192 0.318306 14.0774 0.25033C13.9627 0.182354 13.8319 0.146484 13.6987 0.146484C13.5654 0.146484 13.4346 0.182354 13.3199 0.25033C13.2053 0.318306 13.1111 0.415881 13.0472 0.532819L12.6502 1.25532L11.9252 1.65232C11.8082 1.71625 11.7106 1.81047 11.6427 1.9251C11.5747 2.03973 11.5388 2.17055 11.5388 2.30382C11.5388 2.43709 11.5747 2.5679 11.6427 2.68254C11.7106 2.79717 11.8082 2.89139 11.9252 2.95532L12.6502 3.34982L13.0452 4.07482C13.1091 4.19163 13.2033 4.28909 13.3179 4.35698C13.4325 4.42487 13.5632 4.4607 13.6964 4.4607C13.8296 4.4607 13.9603 4.42487 14.0749 4.35698C14.1895 4.28909 14.2837 4.19163 14.3477 4.07482L14.7407 3.34982L15.4672 2.95332C15.584 2.88928 15.6814 2.79502 15.7493 2.6804C15.8171 2.56578 15.8529 2.43502 15.8529 2.30182C15.8529 2.16861 15.8171 2.03786 15.7493 1.92324C15.6814 1.80862 15.584 1.71436 15.4672 1.65032V1.65232ZM14.3812 2.69382C14.2567 2.76201 14.1543 2.86436 14.0862 2.98882L13.7027 3.71432L13.3062 2.98882C13.2381 2.86412 13.1355 2.7617 13.0107 2.69382L12.2857 2.31082L13.0112 1.91332C13.1358 1.8454 13.2382 1.74298 13.3062 1.61832L13.6897 0.893319L14.0862 1.61832C14.1542 1.74288 14.2566 1.84527 14.3812 1.91332L15.1072 2.29632L14.3812 2.69382Z" fill="#5E9B87"/>
<path d="M15.4672 1.65232L14.7432 1.25682L14.3502 0.532819C14.2862 0.415881 14.192 0.318306 14.0774 0.25033C13.9627 0.182354 13.8319 0.146484 13.6987 0.146484C13.5654 0.146484 13.4346 0.182354 13.3199 0.25033C13.2053 0.318306 13.1111 0.415881 13.0472 0.532819L12.6502 1.25532L11.9252 1.65232C11.8082 1.71625 11.7106 1.81047 11.6427 1.9251C11.5747 2.03973 11.5388 2.17055 11.5388 2.30382C11.5388 2.43709 11.5747 2.5679 11.6427 2.68254C11.7106 2.79717 11.8082 2.89139 11.9252 2.95532L12.6502 3.34982L13.0452 4.07482C13.1091 4.19163 13.2033 4.28909 13.3179 4.35698C13.4325 4.42487 13.5632 4.4607 13.6964 4.4607C13.8296 4.4607 13.9603 4.42487 14.0749 4.35698C14.1895 4.28909 14.2837 4.19163 14.3477 4.07482L14.7407 3.34982L15.4672 2.95332C15.584 2.88928 15.6814 2.79502 15.7493 2.6804C15.8171 2.56578 15.8529 2.43502 15.8529 2.30182C15.8529 2.16861 15.8171 2.03786 15.7493 1.92324C15.6814 1.80862 15.584 1.71436 15.4672 1.65032V1.65232ZM14.3812 2.69382C14.2567 2.76201 14.1543 2.86436 14.0862 2.98882L13.7027 3.71432L13.3062 2.98882C13.2381 2.86412 13.1355 2.7617 13.0107 2.69382L12.2857 2.31082L13.0112 1.91332C13.1358 1.8454 13.2382 1.74298 13.3062 1.61832L13.6897 0.893319L14.0862 1.61832C14.1542 1.74288 14.2566 1.84527 14.3812 1.91332L15.1072 2.29632L14.3812 2.69382Z" fill="black" fill-opacity="0.2"/>
</g>
<defs>
<clipPath id="clip0_399_30227">
<rect width="16" height="16" fill="white"/>
</clipPath>
</defs>
</svg>
