<svg width="32" height="32" viewBox="0 0 32 32" fill="none" xmlns="http://www.w3.org/2000/svg">
<g clip-path="url(#clip0_3251_6007)">
<path d="M30.955 15.2499C30.7561 15.2499 30.5653 15.329 30.4246 15.4696C30.284 15.6103 30.205 15.801 30.205 15.9999C30.2048 18.8094 29.3715 21.5557 27.8105 23.8915C26.2495 26.2274 24.0309 28.048 21.4353 29.1229C18.8397 30.1979 15.9835 30.4791 13.2281 29.9309C10.4727 29.3827 7.94168 28.0297 5.95517 26.043C3.96867 24.0564 2.61587 21.5253 2.06785 18.7698C1.51983 16.0144 1.80119 13.1583 2.87636 10.5627C3.95153 7.96713 5.77223 5.74867 8.1082 4.18785C10.4442 2.62703 13.1905 1.79395 16 1.79395C16.1989 1.79395 16.3897 1.71493 16.5303 1.57428C16.671 1.43362 16.75 1.24286 16.75 1.04395C16.75 0.845033 16.671 0.654268 16.5303 0.513615C16.3897 0.372963 16.1989 0.293945 16 0.293945C12.8936 0.293748 9.85689 1.21472 7.27392 2.9404C4.69095 4.66607 2.67771 7.11895 1.48881 9.98883C0.299908 12.8587 -0.0112663 16.0167 0.59464 19.0634C1.20055 22.1102 2.69632 24.9088 4.8928 27.1054C7.08929 29.302 9.88783 30.798 12.9345 31.4041C15.9812 32.0102 19.1392 31.6992 22.0092 30.5105C24.8791 29.3218 27.3321 27.3087 29.058 24.7258C30.7838 22.143 31.705 19.1063 31.705 15.9999C31.705 15.801 31.626 15.6103 31.4853 15.4696C31.3447 15.329 31.1539 15.2499 30.955 15.2499Z" fill="#5E9B87"/>
<path d="M16.0311 23.0344C17.355 23.035 18.6632 22.7471 19.8645 22.1906C21.0658 21.6342 22.1314 20.8226 22.9871 19.8124C23.0509 19.7373 23.0992 19.6504 23.1294 19.5566C23.1595 19.4628 23.1709 19.364 23.1629 19.2658C23.1549 19.1676 23.1276 19.0719 23.0826 18.9843C23.0376 18.8966 22.9757 18.8187 22.9006 18.7549C22.8255 18.6912 22.7386 18.6428 22.6448 18.6127C22.551 18.5825 22.4522 18.5711 22.354 18.5792C22.2558 18.5872 22.1601 18.6145 22.0725 18.6595C21.9848 18.7045 21.9069 18.7663 21.8431 18.8414C21.1321 19.6807 20.2478 20.356 19.2509 20.8209C18.254 21.2857 17.1682 21.5292 16.0683 21.5344C14.9683 21.5396 13.8803 21.3065 12.8791 20.8511C11.8778 20.3958 10.9871 19.7289 10.2681 18.8964C10.1379 18.7459 9.95322 18.6533 9.75472 18.6389C9.55621 18.6246 9.36013 18.6897 9.20962 18.8199C9.05911 18.9501 8.9665 19.1348 8.95215 19.3333C8.9378 19.5318 9.0029 19.7279 9.13312 19.8784C9.98891 20.8689 11.048 21.6634 12.2383 22.208C13.4286 22.7526 14.7222 23.0344 16.0311 23.0344Z" fill="#5E9B87"/>
<path d="M9.85303 12.6922H9.85803C10.1271 12.5608 10.4226 12.4924 10.722 12.4922C11.2525 12.4922 11.7612 12.7029 12.1362 13.078C12.5113 13.453 12.722 13.9618 12.722 14.4922C12.722 14.6911 12.801 14.8819 12.9417 15.0225C13.0823 15.1632 13.2731 15.2422 13.472 15.2422C13.6709 15.2422 13.8617 15.1632 14.0024 15.0225C14.143 14.8819 14.222 14.6911 14.222 14.4922C14.222 13.5639 13.8533 12.6737 13.1969 12.0173C12.5405 11.3609 11.6503 10.9922 10.722 10.9922C10.2266 10.9936 9.73724 11.1014 9.28703 11.3082C9.26664 11.3175 9.24693 11.3282 9.22803 11.3402C8.63097 11.6225 8.12617 12.0682 7.77218 12.6258C7.41819 13.1833 7.22951 13.8298 7.22803 14.4902C7.22803 14.6891 7.30704 14.8799 7.4477 15.0205C7.58835 15.1612 7.77911 15.2402 7.97803 15.2402C8.17694 15.2402 8.36771 15.1612 8.50836 15.0205C8.64901 14.8799 8.72803 14.6891 8.72803 14.4902C8.72811 14.1152 8.83364 13.7477 9.03256 13.4298C9.23149 13.1119 9.51579 12.8563 9.85303 12.6922Z" fill="#5E9B87"/>
<path d="M24.085 15.2329C24.2839 15.2329 24.4746 15.1539 24.6153 15.0132C24.7559 14.8726 24.835 14.6818 24.835 14.4829C24.835 14.0233 24.7444 13.5682 24.5685 13.1435C24.3926 12.7189 24.1348 12.333 23.8098 12.008C23.4848 11.683 23.099 11.4252 22.6744 11.2493C22.2497 11.0734 21.7946 10.9829 21.335 10.9829C20.8753 10.9829 20.4202 11.0734 19.9956 11.2493C19.5709 11.4252 19.1851 11.683 18.8601 12.008C18.5351 12.333 18.2773 12.7189 18.1014 13.1435C17.9255 13.5682 17.835 14.0233 17.835 14.4829C17.835 14.6818 17.914 14.8726 18.0546 15.0132C18.1953 15.1539 18.386 15.2329 18.585 15.2329C18.7839 15.2329 18.9746 15.1539 19.1153 15.0132C19.2559 14.8726 19.335 14.6818 19.335 14.4829C19.3341 14.1506 19.4163 13.8234 19.5741 13.5309C19.7319 13.2385 19.9603 12.9901 20.2385 12.8083C20.5167 12.6266 20.8359 12.5173 21.1671 12.4903C21.4983 12.4634 21.831 12.5196 22.135 12.6539C22.1651 12.6734 22.1965 12.6908 22.229 12.7059C22.5589 12.8712 22.8365 13.1248 23.0307 13.4386C23.2249 13.7523 23.3282 14.1139 23.329 14.4829C23.329 14.5819 23.3486 14.6799 23.3866 14.7713C23.4247 14.8627 23.4805 14.9457 23.5507 15.0154C23.621 15.0851 23.7044 15.1402 23.7961 15.1776C23.8878 15.2149 23.986 15.2337 24.085 15.2329Z" fill="#5E9B87"/>
<path d="M30.9341 3.30464L29.4861 2.51364L28.7001 1.06564C28.5722 0.831763 28.3838 0.636611 28.1545 0.50066C27.9252 0.364708 27.6636 0.292969 27.3971 0.292969C27.1305 0.292969 26.8689 0.364708 26.6396 0.50066C26.4104 0.636611 26.2219 0.831763 26.0941 1.06564L25.3001 2.51064L23.8501 3.30464C23.6162 3.43249 23.421 3.62094 23.2851 3.8502C23.1491 4.07947 23.0774 4.3411 23.0774 4.60764C23.0774 4.87418 23.1491 5.13581 23.2851 5.36507C23.421 5.59433 23.6162 5.78278 23.8501 5.91064L25.3001 6.69964L26.0901 8.14964C26.218 8.38327 26.4064 8.57819 26.6356 8.71397C26.8647 8.84975 27.1262 8.92139 27.3926 8.92139C27.6589 8.92139 27.9204 8.84975 28.1495 8.71397C28.3787 8.57819 28.5671 8.38327 28.6951 8.14964L29.4811 6.69964L30.9341 5.90664C31.1677 5.77856 31.3625 5.59003 31.4983 5.3608C31.634 5.13156 31.7056 4.87005 31.7056 4.60364C31.7056 4.33723 31.634 4.07571 31.4983 3.84648C31.3625 3.61724 31.1677 3.42872 30.9341 3.30064V3.30464ZM28.7621 5.38764C28.5132 5.52401 28.3084 5.72873 28.1721 5.97764L27.4051 7.42864L26.6121 5.97764C26.4759 5.72825 26.2707 5.5234 26.0211 5.38764L24.5711 4.62164L26.0221 3.82664C26.2714 3.69081 26.4762 3.48596 26.6121 3.23664L27.3791 1.78664L28.1721 3.23664C28.3082 3.48575 28.5129 3.69053 28.7621 3.82664L30.2141 4.59264L28.7621 5.38764Z" fill="#5E9B87"/>
</g>
<defs>
<clipPath id="clip0_3251_6007">
<rect width="32" height="32" fill="white"/>
</clipPath>
</defs>
</svg>
