<svg width="48" height="48" viewBox="0 0 48 48" fill="none" xmlns="http://www.w3.org/2000/svg">
<rect width="48" height="48" rx="24" fill="#DBE1DE"/>
<g clip-path="url(#clip0_3251_6018)">
<path d="M32.2584 28.5513H32.9171C36.8314 28.5513 39.9998 25.3775 39.9998 21.4632C39.9998 17.5489 36.8314 14.3751 32.9171 14.3751C32.7919 14.3751 32.6722 14.3806 32.5524 14.3859C31.4528 10.6949 28.0448 8 23.9945 8C22.8785 8 21.8169 8.20698 20.8314 8.5825C18.2456 9.5624 16.2368 11.7128 15.4473 14.3859C15.3276 14.3804 15.2023 14.3751 15.0826 14.3751C13.0194 14.3751 11.163 15.2569 9.87277 16.6616C8.70776 17.9247 8 19.6123 8 21.4632C8 25.3775 11.1683 28.5513 15.0826 28.5513H15.7413" fill="#849D94"/>
<path d="M40.0001 21.4637C40.0001 25.3778 36.8311 28.5514 32.917 28.5514H15.0838C13.6754 28.5514 12.3617 28.1406 11.2585 27.4288C12.3677 27.6411 13.5188 27.7524 14.697 27.7524C24.0041 27.7524 31.5508 20.8273 31.5508 12.2846C31.5508 12.2486 31.5508 12.2108 31.5492 12.1748C31.978 12.8549 32.3182 13.5969 32.5514 14.3853C32.6734 14.3794 32.7953 14.3747 32.917 14.3747C36.8309 14.3747 40.0001 17.5499 40.0001 21.4637Z" fill="#394842"/>
<path d="M25.2569 32.5088H23.393L25.0124 29.3115H21.3967V34.467H22.23L21.3967 39.2879L25.2569 32.5088Z" fill="#FCD144"/>
<path d="M14.6777 29.3115H16.8092L14.042 34.5713L14.6777 29.3115Z" fill="#FCD144"/>
<path d="M32.4634 29.3115H30.332L29.9717 34.5713L32.4634 29.3115Z" fill="#FCD144"/>
</g>
<defs>
<clipPath id="clip0_3251_6018">
<rect width="32" height="32" fill="white" transform="translate(8 8)"/>
</clipPath>
</defs>
</svg>
