<svg width="49" height="48" viewBox="0 0 49 48" fill="none" xmlns="http://www.w3.org/2000/svg">
<rect x="0.5" width="48" height="48" rx="24" fill="#E8EFF1"/>
<g clip-path="url(#clip0_3251_6053)">
<path d="M40.5 26.461C40.5 30.3752 37.3307 33.5493 33.4165 33.5493H15.5835C11.6693 33.5493 8.5 30.3752 8.5 26.461C8.5 22.5468 11.6693 19.3727 15.5835 19.3727C15.7052 19.3727 15.8269 19.3775 15.9486 19.3825C17.0393 15.6923 20.4568 13 24.4975 13C28.5432 13 31.9559 15.6923 33.0514 19.3825C33.1731 19.3777 33.2948 19.3727 33.4165 19.3727C37.3307 19.3724 40.5 22.5468 40.5 26.461Z" fill="#B8D6E1"/>
<path d="M40.4996 26.4618C40.4996 30.3758 37.3305 33.5493 33.4165 33.5493H15.5833C14.1748 33.5493 12.8612 33.1384 11.7581 32.4267C12.867 32.6388 14.0182 32.7503 15.1965 32.7503C24.5036 32.7503 32.0501 25.8253 32.0501 17.2827C32.0501 17.2465 32.0501 17.209 32.0487 17.1729C32.4775 17.853 32.8176 18.595 33.0507 19.3833C33.1727 19.3772 33.2946 19.3728 33.4165 19.3728C37.3305 19.3726 40.4996 22.5478 40.4996 26.4618Z" fill="#9DB8C9"/>
</g>
<defs>
<clipPath id="clip0_3251_6053">
<rect width="32" height="32" fill="white" transform="translate(8.5 8)"/>
</clipPath>
</defs>
</svg>
