<svg width="49" height="48" viewBox="0 0 49 48" fill="none" xmlns="http://www.w3.org/2000/svg">
<rect x="0.25" width="48" height="48" rx="24" fill="#F8F0E5"/>
<g clip-path="url(#clip0_3251_6060)">
<path d="M18.9861 27.8556C22.4722 27.8556 25.2982 25.0296 25.2982 21.5435C25.2982 18.0575 22.4722 15.2314 18.9861 15.2314C15.5001 15.2314 12.6741 18.0575 12.6741 21.5435C12.6741 25.0296 15.5001 27.8556 18.9861 27.8556Z" fill="#FCD144"/>
<path d="M40.2499 28.849C40.2499 32.3319 37.4298 35.1564 33.9469 35.1564H18.0789C14.596 35.1564 11.7759 32.3319 11.7759 28.849C11.7759 25.3661 14.596 22.5417 18.0789 22.5417C18.1872 22.5417 18.2955 22.546 18.4038 22.5503C19.3741 19.2667 22.4152 16.8711 26.0107 16.8711C29.6105 16.8711 32.6472 19.2667 33.6218 22.5503C33.7301 22.546 33.8384 22.5417 33.9467 22.5417C37.4298 22.5417 40.2499 25.3661 40.2499 28.849Z" fill="#B8D6E1"/>
<path d="M40.2498 28.8493C40.2498 32.3319 37.4299 35.1558 33.9472 35.1558H18.079C16.8256 35.1558 15.6568 34.7903 14.6753 34.157C15.6621 34.3459 16.6865 34.4449 17.7348 34.4449C26.0164 34.4449 32.7312 28.283 32.7312 20.6817C32.7312 20.6496 32.7312 20.616 32.7298 20.584C33.1115 21.1891 33.414 21.8493 33.6215 22.551C33.73 22.5456 33.8385 22.5415 33.9468 22.5415C37.4299 22.5415 40.2498 25.3666 40.2498 28.8493Z" fill="#9DB8C9"/>
<path d="M11.1979 21.5155C11.1969 21.6436 11.0922 21.7464 10.964 21.7452L8.47937 21.7211C8.35162 21.7199 8.24902 21.6153 8.25001 21.4876C8.25099 21.3594 8.35575 21.2566 8.48389 21.2578L10.9685 21.282C11.0963 21.2834 11.1991 21.3877 11.1979 21.5155Z" fill="#F29E25"/>
<path d="M13.4805 16.1365C13.3893 16.2264 13.2423 16.2252 13.1527 16.1336L11.4129 14.3596C11.3235 14.2684 11.3247 14.122 11.4159 14.0324C11.5071 13.9426 11.6541 13.9437 11.7437 14.0353L13.4835 15.8093C13.5729 15.9005 13.5717 16.0469 13.4805 16.1365Z" fill="#F29E25"/>
<path d="M18.898 13.9479C18.7698 13.9469 18.667 13.8422 18.6682 13.714L18.6924 11.2294C18.6936 11.1016 18.7981 10.999 18.9259 11C19.054 11.001 19.1568 11.1057 19.1556 11.2339L19.1315 13.7185C19.1301 13.8463 19.0257 13.9489 18.898 13.9479Z" fill="#F29E25"/>
<path d="M24.2764 16.2305C24.1866 16.1393 24.1878 15.9923 24.2793 15.9027L26.0533 14.1629C26.1445 14.0735 26.2909 14.0747 26.3806 14.1659C26.4704 14.2571 26.4692 14.4041 26.3776 14.4937L24.6036 16.2335C24.5124 16.3229 24.366 16.3215 24.2764 16.2305Z" fill="#F29E25"/>
</g>
<defs>
<clipPath id="clip0_3251_6060">
<rect width="32" height="32" fill="white" transform="translate(8.25 8)"/>
</clipPath>
</defs>
</svg>
