<svg width="48" height="48" viewBox="0 0 48 48" fill="none" xmlns="http://www.w3.org/2000/svg">
<rect width="48" height="48" rx="24" fill="#F8F2E1"/>
<g clip-path="url(#clip0_307_13421)">
<path d="M23.9999 33.6952C29.3547 33.6952 33.6956 29.3543 33.6956 23.9995C33.6956 18.6446 29.3547 14.3037 23.9999 14.3037C18.6451 14.3037 14.3042 18.6446 14.3042 23.9995C14.3042 29.3543 18.6451 33.6952 23.9999 33.6952Z" fill="#FCD144"/>
<path d="M23.8997 35.543C24.0933 35.5446 24.249 35.7029 24.2471 35.8966L24.2104 39.6536C24.2084 39.8468 24.0505 40.0019 23.8573 40.0003C23.6638 39.9988 23.508 39.8404 23.51 39.6467L23.5467 35.8897C23.5487 35.6965 23.7066 35.5414 23.8997 35.543Z" fill="#F29E25"/>
<path d="M15.7673 32.0909C15.9033 32.229 15.9013 32.4511 15.763 32.5866L13.0805 35.2172C12.9426 35.3525 12.7211 35.3506 12.5858 35.2129C12.4499 35.0748 12.4518 34.8527 12.5901 34.7171L15.2726 32.0865C15.4105 31.9512 15.6318 31.9532 15.7673 32.0909Z" fill="#F29E25"/>
<path d="M12.4573 23.8995C12.4558 24.0931 12.2975 24.2488 12.1037 24.2468L8.34674 24.2102C8.15356 24.2084 7.99843 24.0503 8.00001 23.8571C8.0016 23.6635 8.1599 23.5078 8.35367 23.5098L12.1106 23.5464C12.3036 23.5484 12.4589 23.7063 12.4573 23.8995Z" fill="#F29E25"/>
<path d="M15.9089 15.7676C15.7708 15.9035 15.5487 15.9015 15.4132 15.7632L12.7826 13.0807C12.6473 12.9428 12.6492 12.7213 12.787 12.586C12.925 12.4501 13.1471 12.4521 13.2827 12.5904L15.9132 15.2729C16.0484 15.4106 16.0464 15.6321 15.9089 15.7676Z" fill="#F29E25"/>
<path d="M24.0998 12.4574C23.9062 12.4558 23.7505 12.2975 23.7525 12.1037L23.7891 8.34674C23.7909 8.15356 23.949 7.99843 24.1422 8.00001C24.3358 8.0016 24.4915 8.1599 24.4895 8.35368L24.4528 12.1106C24.4509 12.3036 24.293 12.4588 24.0998 12.4574Z" fill="#F29E25"/>
<path d="M32.2323 15.9082C32.0963 15.7701 32.0983 15.548 32.2366 15.4124L34.9191 12.7819C35.057 12.6465 35.2783 12.6485 35.4138 12.7862C35.5497 12.9243 35.5478 13.1464 35.4095 13.2819L32.727 15.9125C32.5893 16.0479 32.3678 16.0459 32.2323 15.9082Z" fill="#F29E25"/>
<path d="M35.5422 24.1003C35.5438 23.9067 35.7021 23.751 35.8959 23.7529L39.6529 23.7896C39.846 23.7914 40.0012 23.9495 39.9996 24.1427C39.998 24.3362 39.8397 24.492 39.6459 24.49L35.889 24.4533C35.6958 24.4514 35.5407 24.2934 35.5422 24.1003Z" fill="#F29E25"/>
<path d="M32.0912 32.2325C32.2292 32.0966 32.4514 32.0986 32.5869 32.2369L35.2174 34.9194C35.3528 35.0573 35.3508 35.2788 35.2131 35.4141C35.075 35.55 34.8529 35.548 34.7174 35.4097L32.0868 32.7272C31.9515 32.5893 31.9535 32.368 32.0912 32.2325Z" fill="#F29E25"/>
</g>
<defs>
<clipPath id="clip0_307_13421">
<rect width="32" height="32" fill="white" transform="translate(8 8)"/>
</clipPath>
</defs>
</svg>
