<svg width="25" height="24" viewBox="0 0 25 24" fill="none" xmlns="http://www.w3.org/2000/svg">
<g clip-path="url(#clip0_426_16145)">
<path d="M6.33044 15.0132C6.40711 15.0132 6.48261 14.9943 6.55031 14.9584C6.61801 14.9224 6.67585 14.8703 6.71876 14.8068C6.76167 14.7432 6.78834 14.6701 6.79643 14.5939C6.80452 14.5177 6.79378 14.4406 6.76516 14.3695C6.4706 13.6369 6.3199 12.8545 6.3213 12.0649C6.3213 8.65774 9.0932 5.88584 12.5004 5.88584C15.9075 5.88584 18.6794 8.65774 18.6794 12.0649C18.6808 12.8544 18.5301 13.6368 18.2356 14.3694C18.2116 14.4267 18.1992 14.4882 18.1992 14.5503C18.1991 14.6124 18.2115 14.6739 18.2354 14.7312C18.2594 14.7886 18.2945 14.8405 18.3387 14.8842C18.3829 14.9278 18.4354 14.9622 18.493 14.9854C18.5507 15.0086 18.6123 15.0201 18.6745 15.0192C18.7366 15.0183 18.7979 15.0051 18.8549 14.9803C18.9118 14.9556 18.9633 14.9197 19.0063 14.8749C19.0493 14.83 19.0829 14.7771 19.1053 14.7191C19.4447 13.8754 19.6184 12.9742 19.6169 12.0648C19.6169 8.14071 16.4245 4.94824 12.5004 4.94824C8.57627 4.94824 5.3838 8.14071 5.3838 12.0648C5.38236 12.9742 5.55615 13.8754 5.89567 14.7191C5.93053 14.8059 5.99055 14.8803 6.06803 14.9327C6.14551 14.9851 6.2369 15.0131 6.33044 15.0132Z" fill="#150A02"/>
<path d="M12.5 3.15436C12.6243 3.15436 12.7435 3.10497 12.8315 3.01707C12.9194 2.92916 12.9688 2.80993 12.9688 2.68561V0.46875C12.9688 0.34443 12.9194 0.225201 12.8315 0.137294C12.7435 0.049386 12.6243 0 12.5 0C12.3757 0 12.2565 0.049386 12.1685 0.137294C12.0806 0.225201 12.0312 0.34443 12.0312 0.46875V2.68561C12.0312 2.80993 12.0806 2.92916 12.1685 3.01707C12.2565 3.10497 12.3757 3.15436 12.5 3.15436Z" fill="#150A02"/>
<path d="M7.43693 4.16791C7.49909 4.27558 7.60148 4.35415 7.72157 4.38632C7.84165 4.4185 7.9696 4.40166 8.07727 4.3395C8.18494 4.27734 8.2635 4.17495 8.29568 4.05487C8.32786 3.93478 8.31102 3.80683 8.24886 3.69916L7.1404 1.7793C7.10985 1.72556 7.06897 1.6784 7.02011 1.64052C6.97125 1.60265 6.91539 1.57481 6.85573 1.55861C6.79607 1.54241 6.73379 1.53818 6.67249 1.54615C6.61119 1.55411 6.55207 1.57413 6.49853 1.60504C6.44499 1.63595 6.3981 1.67714 6.36055 1.72625C6.323 1.77536 6.29553 1.83141 6.27973 1.89117C6.26393 1.95094 6.26011 2.01324 6.26848 2.07449C6.27686 2.13574 6.29726 2.19472 6.32853 2.24805L7.43693 4.16791Z" fill="#150A02"/>
<path d="M2.27906 6.63991L4.19887 7.74837C4.30654 7.81053 4.43449 7.82737 4.55458 7.79519C4.67466 7.76301 4.77705 7.68445 4.83921 7.57678C4.90137 7.46911 4.91821 7.34116 4.88603 7.22108C4.85385 7.10099 4.77529 6.99861 4.66762 6.93644L2.74781 5.82804C2.69448 5.79677 2.63549 5.77637 2.57424 5.76799C2.51299 5.75962 2.45069 5.76344 2.39093 5.77924C2.33116 5.79504 2.27511 5.82251 2.22601 5.86006C2.1769 5.89761 2.13571 5.94451 2.1048 5.99804C2.07389 6.05158 2.05387 6.1107 2.0459 6.172C2.03793 6.23331 2.04217 6.29558 2.05837 6.35524C2.07456 6.4149 2.1024 6.47076 2.14028 6.51962C2.17815 6.56848 2.22532 6.60936 2.27906 6.63991Z" fill="#150A02"/>
<path d="M3.65436 12C3.65436 11.8757 3.60497 11.7565 3.51707 11.6685C3.42916 11.5806 3.30993 11.5312 3.18561 11.5312H0.96875C0.84443 11.5312 0.725201 11.5806 0.637294 11.6685C0.549386 11.7565 0.5 11.8757 0.5 12C0.5 12.1243 0.549386 12.2435 0.637294 12.3315C0.725201 12.4194 0.84443 12.4688 0.96875 12.4688H3.18561C3.30993 12.4688 3.42916 12.4194 3.51707 12.3315C3.60497 12.2435 3.65436 12.1243 3.65436 12Z" fill="#150A02"/>
<path d="M24.0313 11.5312H21.8145C21.6901 11.5312 21.5709 11.5806 21.483 11.6685C21.3951 11.7565 21.3457 11.8757 21.3457 12C21.3457 12.1243 21.3951 12.2435 21.483 12.3315C21.5709 12.4194 21.6901 12.4688 21.8145 12.4688H24.0313C24.1556 12.4688 24.2749 12.4194 24.3628 12.3315C24.4507 12.2435 24.5001 12.1243 24.5001 12C24.5001 11.8757 24.4507 11.7565 24.3628 11.6685C24.2749 11.5806 24.1556 11.5312 24.0313 11.5312Z" fill="#150A02"/>
<path d="M20.567 7.81123C20.6492 7.81123 20.7298 7.78955 20.8009 7.74837L22.7207 6.63991C22.7745 6.60936 22.8216 6.56848 22.8595 6.51962C22.8974 6.47076 22.9252 6.4149 22.9414 6.35524C22.9576 6.29558 22.9619 6.23331 22.9539 6.172C22.9459 6.1107 22.9259 6.05158 22.895 5.99804C22.8641 5.94451 22.8229 5.89761 22.7738 5.86006C22.7247 5.82251 22.6686 5.79504 22.6089 5.77924C22.5491 5.76344 22.4868 5.75962 22.4256 5.76799C22.3643 5.77637 22.3053 5.79677 22.252 5.82804L20.3322 6.93644C20.2427 6.98804 20.1728 7.06772 20.1333 7.16312C20.0938 7.25852 20.0869 7.36429 20.1137 7.46401C20.1405 7.56374 20.1994 7.65183 20.2814 7.71462C20.3634 7.7774 20.4638 7.81136 20.567 7.81123Z" fill="#150A02"/>
<path d="M16.9229 4.33948C17.0305 4.40163 17.1585 4.41848 17.2786 4.3863C17.3986 4.35413 17.501 4.27557 17.5632 4.16791L18.6716 2.24805C18.7029 2.19472 18.7233 2.13574 18.7316 2.07449C18.74 2.01324 18.7362 1.95094 18.7204 1.89117C18.7046 1.83141 18.6771 1.77536 18.6396 1.72625C18.602 1.67714 18.5551 1.63595 18.5016 1.60504C18.4481 1.57413 18.3889 1.55411 18.3276 1.54615C18.2663 1.53818 18.2041 1.54241 18.1444 1.55861C18.0847 1.57481 18.0289 1.60265 17.98 1.64052C17.9312 1.6784 17.8903 1.72556 17.8597 1.7793L16.7513 3.69916C16.6891 3.80683 16.6723 3.93478 16.7045 4.05486C16.7366 4.17494 16.8152 4.27732 16.9229 4.33948Z" fill="#150A02"/>
<path d="M19.961 20.6602H13.4375C13.3132 20.6602 13.194 20.7095 13.106 20.7974C13.0181 20.8854 12.9688 21.0046 12.9688 21.1289C12.9688 21.2532 13.0181 21.3725 13.106 21.4604C13.194 21.5483 13.3132 21.5977 13.4375 21.5977H19.961C20.0853 21.5977 20.2045 21.5483 20.2924 21.4604C20.3803 21.3725 20.4297 21.2532 20.4297 21.1289C20.4297 21.0046 20.3803 20.8854 20.2924 20.7974C20.2045 20.7095 20.0853 20.6602 19.961 20.6602Z" fill="#150A02"/>
<path d="M12.0605 21.1289C12.0605 21.0046 12.0111 20.8854 11.9232 20.7974C11.8353 20.7095 11.716 20.6602 11.5917 20.6602H5.03906C4.91474 20.6602 4.79551 20.7095 4.70761 20.7974C4.6197 20.8854 4.57031 21.0046 4.57031 21.1289C4.57031 21.2532 4.6197 21.3725 4.70761 21.4604C4.79551 21.5483 4.91474 21.5977 5.03906 21.5977H11.5917C11.716 21.5977 11.8353 21.5483 11.9232 21.4604C12.0111 21.3725 12.0605 21.2532 12.0605 21.1289Z" fill="#150A02"/>
<path d="M16.6992 19.1953C16.8235 19.1953 16.9427 19.1459 17.0306 19.058C17.1186 18.9701 17.1679 18.8509 17.1679 18.7266C17.1679 18.6022 17.1186 18.483 17.0306 18.3951C16.9427 18.3072 16.8235 18.2578 16.6992 18.2578H8.30078C8.17646 18.2578 8.05723 18.3072 7.96932 18.3951C7.88142 18.483 7.83203 18.6022 7.83203 18.7266C7.83203 18.8509 7.88142 18.9701 7.96932 19.058C8.05723 19.1459 8.17646 19.1953 8.30078 19.1953H16.6992Z" fill="#150A02"/>
<path d="M22.4864 15.8555H2.51367C2.38935 15.8555 2.27012 15.9049 2.18222 15.9928C2.09431 16.0807 2.04492 16.1999 2.04492 16.3242C2.04492 16.4485 2.09431 16.5678 2.18222 16.6557C2.27012 16.7436 2.38935 16.793 2.51367 16.793H22.4864C22.6107 16.793 22.7299 16.7436 22.8178 16.6557C22.9057 16.5678 22.9551 16.4485 22.9551 16.3242C22.9551 16.1999 22.9057 16.0807 22.8178 15.9928C22.7299 15.9049 22.6107 15.8555 22.4864 15.8555Z" fill="#150A02"/>
<path d="M13.7743 23.0625H11.2261C11.1018 23.0625 10.9825 23.1119 10.8946 23.1998C10.8067 23.2877 10.7573 23.4069 10.7573 23.5312C10.7573 23.6556 10.8067 23.7748 10.8946 23.8627C10.9825 23.9506 11.1018 24 11.2261 24H13.7743C13.8986 24 14.0178 23.9506 14.1057 23.8627C14.1937 23.7748 14.243 23.6556 14.243 23.5312C14.243 23.4069 14.1937 23.2877 14.1057 23.1998C14.0178 23.1119 13.8986 23.0625 13.7743 23.0625Z" fill="#150A02"/>
<path d="M12.5001 14.2088C12.6244 14.2088 12.7437 14.1594 12.8316 14.0715C12.9195 13.9836 12.9689 13.8643 12.9689 13.74V10.5496L14.2376 11.8184C14.3255 11.9063 14.4447 11.9557 14.5691 11.9557C14.6934 11.9557 14.8126 11.9063 14.9005 11.8184C14.9884 11.7305 15.0378 11.6113 15.0378 11.4869C15.0378 11.3626 14.9885 11.2434 14.9005 11.1555L12.8316 9.08651C12.7437 8.9986 12.6244 8.94922 12.5001 8.94922C12.3758 8.94922 12.2566 8.9986 12.1687 9.08651L10.0997 11.1554C10.0118 11.2433 9.9624 11.3626 9.9624 11.4869C9.9624 11.6112 10.0118 11.7305 10.0997 11.8184C10.1876 11.9063 10.3069 11.9557 10.4312 11.9557C10.5555 11.9557 10.6747 11.9063 10.7627 11.8184L12.0314 10.5496V13.74C12.0314 13.8643 12.0808 13.9836 12.1687 14.0715C12.2566 14.1594 12.3758 14.2088 12.5001 14.2088Z" fill="#150A02"/>
</g>
<defs>
<clipPath id="clip0_426_16145">
<rect width="24" height="24" fill="white" transform="translate(0.5)"/>
</clipPath>
</defs>
</svg>
