<svg width="20" height="20" viewBox="0 0 20 20" fill="none" xmlns="http://www.w3.org/2000/svg">
<g clip-path="url(#clip0_535_29200)">
<path d="M10 20C4.48583 20 0 15.5142 0 10C0 4.48583 4.48583 0 10 0C15.5142 0 20 4.48583 20 10C20 15.5142 15.5142 20 10 20ZM10 1.25C5.175 1.25 1.25 5.175 1.25 10C1.25 14.825 5.175 18.75 10 18.75C14.825 18.75 18.75 14.825 18.75 10C18.75 5.175 14.825 1.25 10 1.25Z" fill="#5E9B87"/>
<circle cx="10" cy="10" r="10" fill="#5E9B87"/>
<path d="M5.83334 9.22103C4.91417 9.22103 4.16667 8.47353 4.16667 7.55436C4.16667 6.6352 4.91417 5.8877 5.83334 5.8877C6.75251 5.8877 7.50001 6.6352 7.50001 7.55436C7.50001 8.47353 6.75251 9.22103 5.83334 9.22103ZM5.83334 7.1377C5.60334 7.1377 5.41667 7.32436 5.41667 7.55436C5.41667 7.78436 5.60334 7.97103 5.83334 7.97103C6.06334 7.97103 6.25001 7.78436 6.25001 7.55436C6.25001 7.32436 6.06334 7.1377 5.83334 7.1377Z" fill="white"/>
<path d="M14.1667 9.22103C13.2475 9.22103 12.5 8.47353 12.5 7.55436C12.5 6.6352 13.2475 5.8877 14.1667 5.8877C15.0858 5.8877 15.8333 6.6352 15.8333 7.55436C15.8333 8.47353 15.0858 9.22103 14.1667 9.22103ZM14.1667 7.1377C13.9367 7.1377 13.75 7.32436 13.75 7.55436C13.75 7.78436 13.9367 7.97103 14.1667 7.97103C14.3967 7.97103 14.5833 7.78436 14.5833 7.55436C14.5833 7.32436 14.3967 7.1377 14.1667 7.1377Z" fill="white"/>
<path d="M12.7083 15H7.29167C6.94667 15 6.66667 14.72 6.66667 14.375C6.66667 14.03 6.94667 13.75 7.29167 13.75H12.7083C13.0533 13.75 13.3333 14.03 13.3333 14.375C13.3333 14.72 13.0533 15 12.7083 15Z" fill="white"/>
</g>
<defs>
<clipPath id="clip0_535_29200">
<rect width="20" height="20" fill="white"/>
</clipPath>
</defs>
</svg>
