<svg width="24" height="24" viewBox="0 0 24 24" fill="none" xmlns="http://www.w3.org/2000/svg">
<g clip-path="url(#clip0_3279_4112)">
<mask id="path-1-inside-1_3279_4112" fill="white">
<path fill-rule="evenodd" clip-rule="evenodd" d="M12 1.5C12.1951 1.5 12.3723 1.61344 12.454 1.79058L15.3231 8.01068C15.3959 8.16858 15.5456 8.2773 15.7182 8.29778L22.5205 9.10429C22.7142 9.12726 22.8769 9.26078 22.9371 9.4463C22.9974 9.63182 22.9443 9.83546 22.8011 9.96791L19.0584 13.429C18.8557 13.6165 18.5393 13.6041 18.3519 13.4014C18.1644 13.1987 18.1767 12.8823 18.3795 12.6948L20.5304 10.7057C20.8437 10.416 20.6735 9.89231 20.2498 9.84207L15.0446 9.22491C14.872 9.20444 14.7223 9.09572 14.6495 8.93781L12.454 4.17809C12.2753 3.79065 11.7247 3.79065 11.546 4.17809L11.0831 5.18151C10.9675 5.43226 10.6704 5.54177 10.4197 5.42611C10.1689 5.31045 10.0594 5.01341 10.1751 4.76266L11.546 1.79058C11.6277 1.61344 11.8049 1.5 12 1.5ZM9.24283 8.68733C9.27534 8.96155 9.0794 9.21021 8.80518 9.24272L3.75016 9.84207C3.32647 9.89231 3.15631 10.416 3.46956 10.7057L7.3179 14.2645C7.44556 14.3826 7.50272 14.5585 7.46883 14.7291L6.44729 19.8702C6.36414 20.2887 6.80962 20.6123 7.18193 20.4039L11.7558 17.8437C11.9075 17.7588 12.0925 17.7588 12.2442 17.8437L16.8181 20.4039C17.1904 20.6123 17.6359 20.2887 17.5527 19.8702L17.1238 17.7115C17.07 17.4407 17.2459 17.1775 17.5167 17.1237C17.7876 17.0699 18.0508 17.2458 18.1046 17.5166L18.956 21.8017C18.9941 21.9931 18.9173 22.189 18.7595 22.3037C18.6017 22.4184 18.3916 22.4308 18.2214 22.3355L12.2442 18.9897C12.0925 18.9048 11.9075 18.9048 11.7558 18.9897L5.77858 22.3355C5.60837 22.4308 5.39828 22.4184 5.24047 22.3037C5.08266 22.189 5.00593 21.9931 5.04395 21.8017L6.37892 15.0832C6.41281 14.9126 6.35565 14.7367 6.22798 14.6187L1.1989 9.96791C1.05569 9.83546 1.00257 9.63182 1.06285 9.4463C1.12313 9.26078 1.2858 9.12726 1.47951 9.10429L8.68743 8.24968C8.96166 8.21716 9.21031 8.41311 9.24283 8.68733Z"/>
</mask>
<path fill-rule="evenodd" clip-rule="evenodd" d="M12 1.5C12.1951 1.5 12.3723 1.61344 12.454 1.79058L15.3231 8.01068C15.3959 8.16858 15.5456 8.2773 15.7182 8.29778L22.5205 9.10429C22.7142 9.12726 22.8769 9.26078 22.9371 9.4463C22.9974 9.63182 22.9443 9.83546 22.8011 9.96791L19.0584 13.429C18.8557 13.6165 18.5393 13.6041 18.3519 13.4014C18.1644 13.1987 18.1767 12.8823 18.3795 12.6948L20.5304 10.7057C20.8437 10.416 20.6735 9.89231 20.2498 9.84207L15.0446 9.22491C14.872 9.20444 14.7223 9.09572 14.6495 8.93781L12.454 4.17809C12.2753 3.79065 11.7247 3.79065 11.546 4.17809L11.0831 5.18151C10.9675 5.43226 10.6704 5.54177 10.4197 5.42611C10.1689 5.31045 10.0594 5.01341 10.1751 4.76266L11.546 1.79058C11.6277 1.61344 11.8049 1.5 12 1.5ZM9.24283 8.68733C9.27534 8.96155 9.0794 9.21021 8.80518 9.24272L3.75016 9.84207C3.32647 9.89231 3.15631 10.416 3.46956 10.7057L7.3179 14.2645C7.44556 14.3826 7.50272 14.5585 7.46883 14.7291L6.44729 19.8702C6.36414 20.2887 6.80962 20.6123 7.18193 20.4039L11.7558 17.8437C11.9075 17.7588 12.0925 17.7588 12.2442 17.8437L16.8181 20.4039C17.1904 20.6123 17.6359 20.2887 17.5527 19.8702L17.1238 17.7115C17.07 17.4407 17.2459 17.1775 17.5167 17.1237C17.7876 17.0699 18.0508 17.2458 18.1046 17.5166L18.956 21.8017C18.9941 21.9931 18.9173 22.189 18.7595 22.3037C18.6017 22.4184 18.3916 22.4308 18.2214 22.3355L12.2442 18.9897C12.0925 18.9048 11.9075 18.9048 11.7558 18.9897L5.77858 22.3355C5.60837 22.4308 5.39828 22.4184 5.24047 22.3037C5.08266 22.189 5.00593 21.9931 5.04395 21.8017L6.37892 15.0832C6.41281 14.9126 6.35565 14.7367 6.22798 14.6187L1.1989 9.96791C1.05569 9.83546 1.00257 9.63182 1.06285 9.4463C1.12313 9.26078 1.2858 9.12726 1.47951 9.10429L8.68743 8.24968C8.96166 8.21716 9.21031 8.41311 9.24283 8.68733Z" fill="#150A02"/>
<path d="M12.454 1.79058L-6.91817 10.7254L-6.91783 10.7261L12.454 1.79058ZM15.3231 8.01068L34.6965 -0.921447L34.6949 -0.924822L15.3231 8.01068ZM15.7182 8.29778L13.2045 29.4825L13.2064 29.4827L15.7182 8.29778ZM22.5205 9.10429L25.0327 -12.0806L25.0323 -12.0807L22.5205 9.10429ZM22.9371 9.4463L2.64535 16.0308L2.64857 16.0407L22.9371 9.4463ZM22.8011 9.96791L37.2853 25.6306L37.2867 25.6292L22.8011 9.96791ZM19.0584 13.429L4.57422 -2.23368L4.57207 -2.23169L19.0584 13.429ZM18.3519 13.4014L34.0164 -1.08077L34.0126 -1.08493L18.3519 13.4014ZM18.3795 12.6948L32.862 28.3591L32.8638 28.3573L18.3795 12.6948ZM20.5304 10.7057L6.04693 -4.95764L6.04606 -4.95684L20.5304 10.7057ZM20.2498 9.84207L22.7618 -11.3429L22.7616 -11.3429L20.2498 9.84207ZM15.0446 9.22491L12.5321 30.4098L12.5328 30.4099L15.0446 9.22491ZM14.6495 8.93781L34.0231 0.00614941L34.0213 0.00224495L14.6495 8.93781ZM12.454 4.17809L-6.91805 13.1131L-6.91781 13.1137L12.454 4.17809ZM11.546 4.17809L30.9174 13.1145L30.9181 13.1131L11.546 4.17809ZM11.0831 5.18151L-8.2883 -3.75493L-8.29054 -3.75007L11.0831 5.18151ZM10.4197 5.42611L19.3566 -13.9451L19.3536 -13.9464L10.4197 5.42611ZM10.1751 4.76266L29.5458 13.7006L29.547 13.6981L10.1751 4.76266ZM11.546 1.79058L30.9179 10.726L30.9182 10.7254L11.546 1.79058ZM9.24283 8.68733L30.4278 6.17576L30.4277 6.175L9.24283 8.68733ZM8.80518 9.24272L6.29361 -11.9423L6.29338 -11.9422L8.80518 9.24272ZM3.75016 9.84207L1.23836 -11.3429L1.23811 -11.3428L3.75016 9.84207ZM3.46956 10.7057L-11.0152 26.3679L-11.0147 26.3683L3.46956 10.7057ZM7.3179 14.2645L21.8051 -1.3954L21.8021 -1.39815L7.3179 14.2645ZM7.46883 14.7291L28.3931 18.8868L28.3933 18.8858L7.46883 14.7291ZM6.44729 19.8702L-14.477 15.7125L-14.477 15.7128L6.44729 19.8702ZM7.18193 20.4039L-3.23799 1.78841L-3.23805 1.78844L7.18193 20.4039ZM11.7558 17.8437L1.33712 -0.772482L1.33588 -0.771787L11.7558 17.8437ZM12.2442 17.8437L22.6641 -0.771816L22.6629 -0.772482L12.2442 17.8437ZM16.8181 20.4039L27.2383 1.78856L27.238 1.78838L16.8181 20.4039ZM17.5527 19.8702L-3.37163 24.0275L-3.37115 24.03L17.5527 19.8702ZM17.1238 17.7115L-3.80059 21.8686L-3.80053 21.8688L17.1238 17.7115ZM17.5167 17.1237L13.3611 -3.80098L13.3596 -3.80069L17.5167 17.1237ZM18.1046 17.5166L-2.81979 21.6737L-2.81972 21.674L18.1046 17.5166ZM18.956 21.8017L-1.96832 25.9591L-1.96683 25.9666L18.956 21.8017ZM18.2214 22.3355L28.6439 3.72148L28.6415 3.72014L18.2214 22.3355ZM12.2442 18.9897L22.6643 0.374337L22.6629 0.373518L12.2442 18.9897ZM11.7558 18.9897L1.33712 0.373518L1.33568 0.374323L11.7558 18.9897ZM5.77858 22.3355L-4.64154 3.72012L-4.64349 3.72122L5.77858 22.3355ZM5.04395 21.8017L-15.8803 17.644L-15.8806 17.6452L5.04395 21.8017ZM6.37892 15.0832L27.3032 19.2409L27.3034 19.2399L6.37892 15.0832ZM6.22798 14.6187L-8.25639 30.2812L-8.25198 30.2853L6.22798 14.6187ZM1.1989 9.96791L-13.2862 25.6297L-13.2855 25.6304L1.1989 9.96791ZM1.47951 9.10429L-1.03229 -12.0807L-1.03258 -12.0806L1.47951 9.10429ZM8.68743 8.24968L11.1992 29.4346L11.1997 29.4346L8.68743 8.24968ZM12 1.5V22.8333C3.87047 22.8333 -3.51462 18.1048 -6.91817 10.7254L12.454 1.79058L31.8262 -7.1442C28.2592 -14.878 20.5197 -19.8333 12 -19.8333V1.5ZM12.454 1.79058L-6.91783 10.7261L-4.04873 16.9462L15.3231 8.01068L34.6949 -0.924822L31.8258 -7.14492L12.454 1.79058ZM15.3231 8.01068L-4.05029 16.9428C-0.869046 23.8428 5.6678 28.5882 13.2045 29.4825L15.7182 8.29778L18.2319 -12.8869C25.4234 -12.0336 31.6608 -7.50563 34.6965 -0.921447L15.3231 8.01068ZM15.7182 8.29778L13.2064 29.4827L20.0087 30.2892L22.5205 9.10429L25.0323 -12.0807L18.23 -12.8872L15.7182 8.29778ZM22.5205 9.10429L20.0083 30.2892C11.9406 29.3325 5.15687 23.7707 2.64535 16.0308L22.9371 9.4463L43.2288 2.86176C40.5969 -5.2491 33.4878 -11.078 25.0327 -12.0806L22.5205 9.10429ZM22.9371 9.4463L2.64857 16.0407C0.136106 8.31086 2.34852 -0.174425 8.31546 -5.69342L22.8011 9.96791L37.2867 25.6292C43.5401 19.8453 45.8587 10.9528 43.2256 2.85187L22.9371 9.4463ZM22.8011 9.96791L8.31692 -5.69477L4.57422 -2.23368L19.0584 13.429L33.5426 29.0917L37.2853 25.6306L22.8011 9.96791ZM19.0584 13.429L4.57207 -2.23169C13.0207 -10.0468 26.2045 -9.53047 34.0164 -1.08077L18.3519 13.4014L2.68736 27.8836C10.8741 36.7387 24.6907 37.2798 33.5447 29.0897L19.0584 13.429ZM18.3519 13.4014L34.0126 -1.08493C41.825 7.3608 41.3141 20.5446 32.862 28.3591L18.3795 12.6948L3.89702 -2.96945C-4.96065 5.21996 -5.4962 19.0366 2.69121 27.8877L18.3519 13.4014ZM18.3795 12.6948L32.8638 28.3573L35.0147 26.3682L20.5304 10.7057L6.04606 -4.95684L3.89516 -2.96774L18.3795 12.6948ZM20.5304 10.7057L35.0139 26.369C48.696 13.7175 41.2602 -9.14942 22.7618 -11.3429L20.2498 9.84207L17.7378 31.027C0.086801 28.934 -7.00864 7.11449 6.04693 -4.95764L20.5304 10.7057ZM20.2498 9.84207L22.7616 -11.3429L17.5564 -11.96L15.0446 9.22491L12.5328 30.4099L17.738 31.027L20.2498 9.84207ZM15.0446 9.22491L17.5571 -11.96C24.7498 -11.1069 30.9876 -6.57817 34.0231 0.00614965L14.6495 8.93781L-4.72411 17.8695C-1.54299 24.7696 4.99421 29.5158 12.5321 30.4098L15.0446 9.22491ZM14.6495 8.93781L34.0213 0.00224495L31.8258 -4.75747L12.454 4.17809L-6.91781 13.1137L-4.72231 17.8734L14.6495 8.93781ZM12.454 4.17809L31.8261 -4.75693C24.0227 -21.6755 -0.0226809 -21.6755 -7.82606 -4.75693L11.546 4.17809L30.9181 13.1131C23.4721 29.2568 0.52792 29.2568 -6.91805 13.1131L12.454 4.17809ZM11.546 4.17809L-7.8254 -4.75835L-8.2883 -3.75493L11.0831 5.18151L30.4545 14.118L30.9174 13.1145L11.546 4.17809ZM11.0831 5.18151L-8.29054 -3.75007C-3.47119 -14.2038 8.90944 -18.7649 19.3566 -13.9451L10.4197 5.42611L1.48283 24.7973C12.4314 29.8484 25.4062 25.0683 30.4567 14.1131L11.0831 5.18151ZM10.4197 5.42611L19.3536 -13.9464C29.8032 -9.12747 34.3673 3.25129 29.5458 13.7006L10.1751 4.76266L-9.19561 -4.17529C-14.2485 6.77553 -9.46541 19.7484 1.48577 24.7987L10.4197 5.42611ZM10.1751 4.76266L29.547 13.6981L30.9179 10.726L11.546 1.79058L-7.82586 -7.14487L-9.19676 -4.17279L10.1751 4.76266ZM11.546 1.79058L30.9182 10.7254C27.5146 18.1048 20.1295 22.8333 12 22.8333V1.5V-19.8333C3.48027 -19.8333 -4.25922 -14.878 -7.82617 -7.1442L11.546 1.79058ZM9.24283 8.68733L-11.9421 11.1989C-13.2967 -0.226471 -5.13286 -10.5876 6.29361 -11.9423L8.80518 9.24272L11.3168 30.4277C23.2917 29.008 31.8474 18.1496 30.4278 6.17576L9.24283 8.68733ZM8.80518 9.24272L6.29338 -11.9422L1.23836 -11.3429L3.75016 9.84207L6.26196 31.027L11.317 30.4277L8.80518 9.24272ZM3.75016 9.84207L1.23811 -11.3428C-17.2638 -9.14895 -24.6925 13.7188 -11.0152 26.3679L3.46956 10.7057L17.9543 -4.95649C31.0051 7.1132 23.9167 28.9336 6.26221 31.027L3.75016 9.84207ZM3.46956 10.7057L-11.0147 26.3683L-7.16632 29.9271L7.3179 14.2645L21.8021 -1.39815L17.9538 -4.95694L3.46956 10.7057ZM7.3179 14.2645L-7.16929 29.9244C-12.4857 25.0062 -14.8673 17.6785 -13.4556 10.5724L7.46883 14.7291L28.3933 18.8858C29.8727 11.4385 27.3768 3.75904 21.8051 -1.3954L7.3179 14.2645ZM7.46883 14.7291L-13.4554 10.5714L-14.477 15.7125L6.44729 19.8702L27.3716 24.0279L28.3931 18.8868L7.46883 14.7291ZM6.44729 19.8702L-14.477 15.7128C-18.1085 33.9902 1.34794 48.1175 17.6019 39.0194L7.18193 20.4039L-3.23805 1.78844C12.2713 -6.89289 30.8368 6.58721 27.3716 24.0276L6.44729 19.8702ZM7.18193 20.4039L17.6019 39.0194L22.1757 36.4592L11.7558 17.8437L1.33588 -0.771787L-3.23799 1.78841L7.18193 20.4039ZM11.7558 17.8437L22.1745 36.4599C15.8528 39.9979 8.14719 39.9979 1.82552 36.4599L12.2442 17.8437L22.6629 -0.772482C16.0378 -4.48025 7.96219 -4.48025 1.33712 -0.772482L11.7558 17.8437ZM12.2442 17.8437L1.82433 36.4592L6.39823 39.0194L16.8181 20.4039L27.238 1.78838L22.6641 -0.771816L12.2442 17.8437ZM16.8181 20.4039L6.39791 39.0192C22.6502 48.1167 42.1109 33.9916 38.4765 15.7104L17.5527 19.8702L-3.37115 24.03C-6.83914 6.58582 11.7306 -6.8921 27.2383 1.78856L16.8181 20.4039ZM17.5527 19.8702L38.477 15.7129L38.0481 13.5542L17.1238 17.7115L-3.80053 21.8688L-3.37163 24.0275L17.5527 19.8702ZM17.1238 17.7115L38.0482 13.5544C40.2896 24.8364 32.9626 35.8053 21.6738 38.0481L17.5167 17.1237L13.3596 -3.80069C1.5292 -1.45033 -6.14959 10.045 -3.80059 21.8686L17.1238 17.7115ZM17.5167 17.1237L21.6723 38.0484C10.3943 40.2882 -0.576445 32.9654 -2.81979 21.6737L18.1046 17.5166L39.029 13.3595C36.678 1.52618 25.1809 -6.14836 13.3611 -3.80098L17.5167 17.1237ZM18.1046 17.5166L-2.81972 21.674L-1.96832 25.9591L18.956 21.8017L39.8803 17.6443L39.0289 13.3592L18.1046 17.5166ZM18.956 21.8017L-1.96683 25.9666C-3.55617 17.9824 -0.349146 9.81964 6.21639 5.04735L18.7595 22.3037L31.3026 39.56C38.1837 34.5584 41.5444 26.0038 39.8788 17.6368L18.956 21.8017ZM18.7595 22.3037L6.21639 5.04735C12.7941 0.266194 21.551 -0.250076 28.6439 3.72148L18.2214 22.3355L7.79886 40.9495C15.2322 45.1117 24.4093 44.5706 31.3026 39.56L18.7595 22.3037ZM18.2214 22.3355L28.6415 3.72014L22.6643 0.374337L12.2442 18.9897L1.82405 37.6051L7.80126 40.9509L18.2214 22.3355ZM12.2442 18.9897L22.6629 0.373518C16.0378 -3.33425 7.96219 -3.33425 1.33712 0.373518L11.7558 18.9897L22.1745 37.6059C15.8528 41.1439 8.14719 41.1439 1.82552 37.6059L12.2442 18.9897ZM11.7558 18.9897L1.33568 0.374323L-4.64154 3.72012L5.77858 22.3355L16.1987 40.9509L22.1759 37.6051L11.7558 18.9897ZM5.77858 22.3355L-4.64349 3.72122C2.44926 -0.249991 11.2056 0.266323 17.7831 5.04697L5.24047 22.3037L-7.30212 39.5604C-0.409041 44.5705 8.76748 45.1116 16.2007 40.9498L5.77858 22.3355ZM5.24047 22.3037L17.7831 5.04697C24.3539 9.82285 27.5522 17.9852 25.9685 25.9582L5.04395 21.8017L-15.8806 17.6452C-17.5403 26.001 -14.1886 34.5551 -7.30212 39.5604L5.24047 22.3037ZM5.04395 21.8017L25.9682 25.9594L27.3032 19.2409L6.37892 15.0832L-14.5453 10.9255L-15.8803 17.644L5.04395 21.8017ZM6.37892 15.0832L27.3034 19.2399C28.7824 11.7946 26.2886 4.11009 20.7079 -1.04788L6.22798 14.6187L-8.25198 30.2853C-13.5773 25.3633 -15.9568 18.0306 -14.5455 10.9265L6.37892 15.0832ZM6.22798 14.6187L20.7123 -1.04381L15.6833 -5.6946L1.1989 9.96791L-13.2855 25.6304L-8.25639 30.2812L6.22798 14.6187ZM1.1989 9.96791L15.684 -5.69393C21.6501 -0.176044 23.8638 8.30829 21.352 16.0388L1.06285 9.4463L-19.2263 2.85385C-21.8587 10.9554 -19.5388 19.847 -13.2862 25.6297L1.1989 9.96791ZM1.06285 9.4463L21.352 16.0388C18.8402 23.7692 12.0621 29.3322 3.9916 30.2892L1.47951 9.10429L-1.03258 -12.0806C-9.49051 -11.0777 -16.5939 -5.24768 -19.2263 2.85385L1.06285 9.4463ZM1.47951 9.10429L3.99131 30.2892L11.1992 29.4346L8.68743 8.24968L6.17563 -12.9353L-1.03229 -12.0807L1.47951 9.10429ZM8.68743 8.24968L11.1997 29.4346C-0.227297 30.7897 -10.5872 22.6244 -11.9421 11.1997L9.24283 8.68733L30.4277 6.175C29.0078 -5.79814 18.1506 -14.3553 6.17519 -12.9352L8.68743 8.24968Z" fill="#150A02" mask="url(#path-1-inside-1_3279_4112)"/>
<path fill-rule="evenodd" clip-rule="evenodd" d="M3.64657 3.64645C3.84183 3.45118 4.15841 3.45118 4.35368 3.64645L20.3537 19.6464C20.5489 19.8417 20.5489 20.1583 20.3537 20.3536C20.1584 20.5488 19.8418 20.5488 19.6466 20.3536L3.64657 4.35355C3.45131 4.15829 3.45131 3.84171 3.64657 3.64645Z" fill="#150A02"/>
</g>
<defs>
<clipPath id="clip0_3279_4112">
<rect width="24" height="24" fill="white"/>
</clipPath>
</defs>
</svg>
