<svg width="16" height="16" viewBox="0 0 16 16" fill="none" xmlns="http://www.w3.org/2000/svg">
<g clip-path="url(#clip0_361_18229)">
<path d="M8 16C3.58867 16 0 12.4113 0 8C0 3.58867 3.58867 0 8 0C12.4113 0 16 3.58867 16 8C16 12.4113 12.4113 16 8 16ZM8 1C4.14 1 1 4.14 1 8C1 11.86 4.14 15 8 15C11.86 15 15 11.86 15 8C15 4.14 11.86 1 8 1Z" fill="#150A02"/>
<path d="M4.66671 7.37712C3.93137 7.37712 3.33337 6.77912 3.33337 6.04378C3.33337 5.30845 3.93137 4.71045 4.66671 4.71045C5.40204 4.71045 6.00004 5.30845 6.00004 6.04378C6.00004 6.77912 5.40204 7.37712 4.66671 7.37712ZM4.66671 5.71045C4.48271 5.71045 4.33337 5.85978 4.33337 6.04378C4.33337 6.22778 4.48271 6.37712 4.66671 6.37712C4.85071 6.37712 5.00004 6.22778 5.00004 6.04378C5.00004 5.85978 4.85071 5.71045 4.66671 5.71045Z" fill="#150A02"/>
<path d="M11.3333 7.37712C10.598 7.37712 10 6.77912 10 6.04378C10 5.30845 10.598 4.71045 11.3333 4.71045C12.0687 4.71045 12.6667 5.30845 12.6667 6.04378C12.6667 6.77912 12.0687 7.37712 11.3333 7.37712ZM11.3333 5.71045C11.1493 5.71045 11 5.85978 11 6.04378C11 6.22778 11.1493 6.37712 11.3333 6.37712C11.5173 6.37712 11.6667 6.22778 11.6667 6.04378C11.6667 5.85978 11.5173 5.71045 11.3333 5.71045Z" fill="#150A02"/>
<path d="M10.1667 12H5.83337C5.55737 12 5.33337 11.776 5.33337 11.5C5.33337 11.224 5.55737 11 5.83337 11H10.1667C10.4427 11 10.6667 11.224 10.6667 11.5C10.6667 11.776 10.4427 12 10.1667 12Z" fill="#150A02"/>
</g>
<defs>
<clipPath id="clip0_361_18229">
<rect width="16" height="16" fill="white"/>
</clipPath>
</defs>
</svg>
