<svg width="40" height="40" viewBox="0 0 40 40" fill="none" xmlns="http://www.w3.org/2000/svg">
<rect width="40" height="40" rx="20" fill="#F7F7F5"/>
<path d="M26.6688 22.6625L26.425 22.4188C25.8977 21.8916 25.5763 21.1933 25.5188 20.45L25.2438 16.8375C25.1746 15.6056 24.6738 14.4374 23.8292 13.5379C22.9846 12.6384 21.8501 12.0652 20.625 11.9187V11.25C20.625 11.0842 20.5592 10.9253 20.4419 10.8081C20.3247 10.6908 20.1658 10.625 20 10.625C19.8342 10.625 19.6753 10.6908 19.5581 10.8081C19.4409 10.9253 19.375 11.0842 19.375 11.25V11.9187C18.1514 12.0636 17.0179 12.6347 16.1733 13.5318C15.3287 14.429 14.827 15.5949 14.7563 16.825L14.4813 20.45C14.4237 21.1933 14.1023 21.8916 13.575 22.4188L13.3313 22.6625C13.0674 22.9244 12.8581 23.236 12.7154 23.5793C12.5727 23.9226 12.4995 24.2907 12.5 24.6625V25C12.5 25.4973 12.6975 25.9742 13.0492 26.3258C13.4008 26.6775 13.8777 26.875 14.375 26.875H17.5C17.5 27.538 17.7634 28.1739 18.2322 28.6428C18.7011 29.1116 19.337 29.375 20 29.375C20.663 29.375 21.2989 29.1116 21.7678 28.6428C22.2366 28.1739 22.5 27.538 22.5 26.875H25.625C26.1223 26.875 26.5992 26.6775 26.9508 26.3258C27.3025 25.9742 27.5 25.4973 27.5 25V24.6625C27.5005 24.2907 27.4273 23.9226 27.2846 23.5793C27.1419 23.236 26.9326 22.9244 26.6688 22.6625ZM20 28.125C19.6685 28.125 19.3505 27.9933 19.1161 27.7589C18.8817 27.5245 18.75 27.2065 18.75 26.875H21.25C21.25 27.2065 21.1183 27.5245 20.8839 27.7589C20.6495 27.9933 20.3315 28.125 20 28.125ZM26.25 25C26.25 25.1658 26.1842 25.3247 26.0669 25.4419C25.9497 25.5592 25.7908 25.625 25.625 25.625H14.375C14.2092 25.625 14.0503 25.5592 13.9331 25.4419C13.8159 25.3247 13.75 25.1658 13.75 25V24.6625C13.7495 24.4547 13.7901 24.2489 13.8695 24.0569C13.9488 23.8649 14.0654 23.6905 14.2125 23.5437L14.4563 23.3C15.1889 22.5576 15.6322 21.5779 15.7063 20.5375L16.0063 16.875C16.0634 15.8544 16.509 14.8944 17.2517 14.1921C17.9944 13.4898 18.9778 13.0985 20 13.0985C21.0222 13.0985 22.0056 13.4898 22.7483 14.1921C23.491 14.8944 23.9366 15.8544 23.9938 16.875L24.2688 20.5C24.3428 21.5404 24.7861 22.5201 25.5188 23.2625L25.7625 23.5063C25.9187 23.6553 26.0425 23.8348 26.1264 24.0337C26.2102 24.2326 26.2523 24.4467 26.25 24.6625V25Z" fill="#150A02"/>
<path d="M12.6187 16.2498H12.4999C12.4191 16.2355 12.3418 16.2053 12.2726 16.1611C12.2034 16.117 12.1436 16.0595 12.0966 15.9922C12.0496 15.9249 12.0163 15.8489 11.9986 15.7687C11.981 15.6885 11.9793 15.6057 11.9937 15.5248C12.2205 14.2647 12.7696 13.0848 13.5874 12.0998C13.64 12.0366 13.7044 11.9844 13.7771 11.9461C13.8499 11.9078 13.9294 11.8842 14.0112 11.8767C14.0931 11.8691 14.1756 11.8778 14.2541 11.9021C14.3326 11.9265 14.4055 11.966 14.4687 12.0186C14.5319 12.0711 14.5841 12.1355 14.6224 12.2083C14.6607 12.281 14.6843 12.3605 14.6918 12.4424C14.6994 12.5242 14.6907 12.6067 14.6664 12.6852C14.642 12.7637 14.6025 12.8366 14.5499 12.8998C13.875 13.715 13.4209 14.6899 13.2312 15.7311C13.2062 15.8757 13.1312 16.0069 13.0192 16.1017C12.9072 16.1966 12.7654 16.249 12.6187 16.2498Z" fill="#150A02"/>
<path d="M27.3813 16.2501C27.2333 16.2525 27.0892 16.2023 26.9748 16.1084C26.8603 16.0146 26.7829 15.8832 26.7563 15.7376C26.5657 14.6936 26.1094 13.7163 25.4313 12.9001C25.3379 12.7713 25.2972 12.6118 25.3173 12.4541C25.3374 12.2963 25.4169 12.1522 25.5396 12.051C25.6623 11.9498 25.8189 11.8992 25.9776 11.9095C26.1363 11.9198 26.2851 11.9902 26.3938 12.1063C27.207 13.0887 27.7537 14.2639 27.9813 15.5188C28.0128 15.6794 27.98 15.846 27.89 15.9828C27.8 16.1195 27.66 16.2155 27.5 16.2501H27.3813Z" fill="#150A02"/>
</svg>
