<svg width="24" height="24" viewBox="0 0 24 24" fill="none" xmlns="http://www.w3.org/2000/svg">
<g clip-path="url(#clip0_3279_8285)">
<path d="M15.6399 3.72754L15.8801 3.77246C16.6651 3.96339 17.3081 4.63043 17.4915 5.49023V5.49121C17.7103 6.51202 17.2862 7.52282 16.4885 8.03223L16.3245 8.12695C15.7428 8.43044 15.4358 9.09362 15.4358 9.75V9.9834C15.4357 10.0226 15.4029 10.0547 15.3635 10.0547C15.3244 10.0545 15.2923 10.0225 15.2922 9.9834V9.75C15.2922 8.96964 15.6943 8.2941 16.2571 8L16.2581 8.00098C17.1425 7.54075 17.5634 6.5071 17.3518 5.52051C17.188 4.75198 16.602 4.09408 15.845 3.91016C15.2489 3.76523 14.6409 3.89283 14.1555 4.27539C13.624 4.69234 13.3206 5.35244 13.3206 6.03613C13.3206 6.07544 13.2886 6.10742 13.2493 6.10742C13.21 6.10735 13.178 6.07539 13.178 6.03613C13.178 5.29625 13.5164 4.59604 14.0676 4.16309C14.5164 3.81008 15.0773 3.65639 15.6399 3.72754Z" fill="#150A02" stroke="#150A02"/>
<path d="M15.3637 12.6C15.6794 12.6 15.9352 12.3442 15.9352 12.0285C15.9352 11.7129 15.6794 11.457 15.3637 11.457C15.0481 11.457 14.7922 11.7129 14.7922 12.0285C14.7922 12.3442 15.0481 12.6 15.3637 12.6Z" fill="#150A02"/>
<path d="M15.3639 16.381C10.8476 16.381 7.17346 12.7069 7.17346 8.19053C7.17346 3.67418 10.8475 0 15.3639 0C19.8803 0 23.5544 3.6741 23.5544 8.19045C23.5544 12.7068 19.8803 16.381 15.3639 16.381ZM15.3639 1.14285C11.4778 1.14285 8.31631 4.30433 8.31631 8.19045C8.31631 12.0766 11.4778 15.2381 15.3639 15.2381C19.25 15.2381 22.4115 12.0766 22.4115 8.19045C22.4115 4.30433 19.25 1.14285 15.3639 1.14285Z" fill="#150A02"/>
<path d="M14.2062 23.9997C13.8907 23.9997 13.6348 23.7437 13.6348 23.4282V19.9156C13.6348 19.6753 13.7851 19.4603 14.0113 19.3784C15.0418 19.0049 15.98 18.3732 16.7233 17.5518C16.9339 17.3166 17.2955 17.2995 17.5299 17.5116C17.7643 17.7228 17.7821 18.0845 17.5701 18.3181C16.7941 19.1767 15.8342 19.8583 14.7777 20.3047V23.4282C14.7777 23.7437 14.5216 23.9997 14.2062 23.9997Z" fill="#150A02"/>
<path d="M10.0305 20.9218H6.73141C4.47954 20.9218 2.64774 19.0899 2.64774 16.8378V14.2425L0.781285 13.3973C0.627235 13.3273 0.51196 13.1927 0.466585 13.029C0.42121 12.866 0.45061 12.6912 0.54691 12.552L2.64774 9.50591V8.69343C2.64774 5.00441 4.93419 1.70831 8.33671 0.490306C8.63319 0.382456 8.96131 0.537931 9.06736 0.835531C9.17379 1.13313 9.01899 1.45976 8.72214 1.56618C5.77239 2.62196 3.79059 5.48583 3.79059 8.69343V9.68373C3.79059 9.79983 3.75526 9.91293 3.68941 10.0081L1.87576 12.6383L3.45504 13.3533C3.65926 13.4463 3.79059 13.6494 3.79059 13.8741V16.8377C3.79059 18.4597 5.10976 19.7789 6.73141 19.7789H10.0305C10.346 19.7789 10.6019 20.0349 10.6019 20.3503C10.6019 20.6658 10.346 20.9218 10.0305 20.9218Z" fill="#150A02"/>
<path d="M8.16966 23.9998C7.85421 23.9998 7.59824 23.7438 7.59824 23.4283V20.3517C7.59824 20.0362 7.85421 19.7803 8.16966 19.7803C8.48511 19.7803 8.74109 20.0362 8.74109 20.3517V23.4283C8.74109 23.7438 8.48511 23.9998 8.16966 23.9998Z" fill="#150A02"/>
</g>
<defs>
<clipPath id="clip0_3279_8285">
<rect width="24" height="24" fill="white"/>
</clipPath>
</defs>
</svg>
