<svg width="20" height="20" viewBox="0 0 20 20" fill="none" xmlns="http://www.w3.org/2000/svg">
<path d="M9.99995 1.25C8.49499 1.24938 7.01534 1.63716 5.70412 2.37583C4.39291 3.11449 3.29452 4.17904 2.51519 5.4665C1.73586 6.75396 1.30198 8.22076 1.25551 9.725C1.20905 11.2292 1.55157 12.72 2.24995 14.0531L1.2687 17.9738C1.24572 18.0659 1.24404 18.162 1.26376 18.2549C1.28349 18.3477 1.32411 18.4349 1.38255 18.5097C1.44098 18.5845 1.51569 18.6451 1.60101 18.6867C1.68633 18.7283 1.78001 18.75 1.87495 18.75C1.92595 18.7501 1.97677 18.7438 2.0262 18.7313L5.94682 17.75C7.12255 18.3662 8.42308 18.7069 9.74993 18.7462C11.0768 18.7854 12.3952 18.5223 13.6053 17.9767C14.8154 17.4311 15.8855 16.6173 16.7346 15.597C17.5837 14.5766 18.1896 13.3764 18.5062 12.0873C18.8229 10.7982 18.8421 9.45396 18.5624 8.15632C18.2827 6.85869 17.7114 5.6417 16.8918 4.59751C16.0722 3.55331 15.0258 2.70928 13.8318 2.12931C12.6377 1.54935 11.3274 1.24866 9.99995 1.25ZM9.99995 17.5C8.717 17.499 7.45577 17.1689 6.33682 16.5413C6.24348 16.4889 6.13824 16.4613 6.0312 16.4613C5.9802 16.4611 5.92938 16.4674 5.87995 16.48L2.7337 17.2663L3.51995 14.1206C3.55811 13.9659 3.53576 13.8025 3.45745 13.6638C2.65297 12.2268 2.34382 10.565 2.5777 8.93484C2.81159 7.3047 3.57551 5.79685 4.75156 4.64405C5.92762 3.49124 7.4504 2.75756 9.08489 2.55625C10.7194 2.35494 12.3747 2.6972 13.7953 3.5302C15.2159 4.36319 16.3229 5.64062 16.9453 7.16529C17.5678 8.68996 17.6711 10.3771 17.2393 11.9663C16.8076 13.5556 15.8647 14.9585 14.5563 15.9586C13.248 16.9587 11.6468 17.5004 9.99995 17.5Z" fill="#656565"/>
<path d="M14.4694 7.72381L11.7757 7.31193L10.5657 4.73381C10.5153 4.62626 10.4353 4.5353 10.335 4.47158C10.2348 4.40786 10.1185 4.37402 9.99972 4.37402C9.88095 4.37402 9.76464 4.40786 9.66441 4.47158C9.56418 4.5353 9.48418 4.62626 9.43378 4.73381L8.22378 7.31193L5.53003 7.72381C5.41647 7.74122 5.30991 7.7896 5.22205 7.86362C5.13419 7.93765 5.06843 8.03446 5.032 8.14342C4.99558 8.25238 4.98989 8.36927 5.01556 8.48125C5.04123 8.59323 5.09728 8.69597 5.17753 8.77818L7.14441 10.7944L6.67878 13.6488C6.6599 13.7646 6.67399 13.8834 6.71943 13.9915C6.76487 14.0997 6.83984 14.1928 6.93575 14.2604C7.03166 14.3279 7.14465 14.3671 7.2618 14.3735C7.37894 14.3798 7.4955 14.3531 7.59816 14.2963L10 12.9688L12.4019 14.2963C12.5046 14.3531 12.6212 14.3798 12.7384 14.3734C12.8555 14.3669 12.9685 14.3277 13.0644 14.2601C13.1604 14.1925 13.2353 14.0992 13.2808 13.991C13.3262 13.8828 13.3402 13.764 13.3213 13.6482L12.8557 10.7938L14.8225 8.77756C14.9026 8.69529 14.9585 8.59255 14.984 8.48061C15.0096 8.36867 15.0038 8.25186 14.9673 8.143C14.9308 8.03413 14.8651 7.93742 14.7772 7.86348C14.6894 7.78953 14.5829 7.74121 14.4694 7.72381ZM11.74 10.1469C11.6718 10.2169 11.6209 10.302 11.5915 10.3952C11.5621 10.4885 11.5549 10.5873 11.5707 10.6838L11.8832 12.5794L10.3057 11.7044C10.2131 11.6533 10.1092 11.6265 10.0035 11.6265C9.89777 11.6265 9.7938 11.6533 9.70128 11.7044L8.12378 12.5794L8.43628 10.6838C8.45201 10.5873 8.44488 10.4885 8.41546 10.3952C8.38605 10.302 8.33516 10.2169 8.26691 10.1469L6.92878 8.77568L8.74941 8.49756C8.8508 8.48208 8.94682 8.44188 9.02901 8.38051C9.11119 8.31915 9.17701 8.2385 9.22066 8.14568L10 6.47068L10.7863 8.14568C10.8299 8.2385 10.8957 8.31915 10.9779 8.38051C11.0601 8.44188 11.1561 8.48208 11.2575 8.49756L13.0782 8.77568L11.74 10.1469Z" fill="#656565"/>
</svg>
