<svg width="20" height="20" viewBox="0 0 20 20" fill="none" xmlns="http://www.w3.org/2000/svg">
<g clip-path="url(#clip0_3569_15729)">
<mask id="mask0_3569_15729" style="mask-type:luminance" maskUnits="userSpaceOnUse" x="0" y="0" width="20" height="20">
<path d="M0 1.90735e-06H20V20H0V1.90735e-06Z" fill="white"/>
</mask>
<g mask="url(#mask0_3569_15729)">
<path d="M8.72415 1.54476L7.89747 3.20816C7.69657 3.61237 7.30825 3.89257 6.85899 3.95741L5.01055 4.22413C3.87926 4.38737 3.42755 5.768 4.24614 6.56038L5.58368 7.85515C5.90879 8.16983 6.05712 8.62319 5.9804 9.06753L5.66462 10.8957C5.47137 12.0146 6.65399 12.8679 7.66583 12.3396L9.31911 11.4764C9.72094 11.2667 10.201 11.2667 10.6028 11.4764L12.2561 12.3396C13.2679 12.8679 14.4505 12.0146 14.2573 10.8957L13.9415 9.06753C13.8648 8.62319 14.0131 8.16983 14.3382 7.85515L15.6757 6.56038C16.4943 5.768 16.0427 4.38737 14.9114 4.22413L13.0629 3.95741C12.6136 3.89257 12.2253 3.61237 12.0244 3.20816L11.1977 1.54476C10.6918 0.526749 9.23004 0.526749 8.72415 1.54476Z" stroke="#150A02" stroke-width="1.2" stroke-miterlimit="10" stroke-linecap="round" stroke-linejoin="round"/>
<path d="M3.33393 13.2407C3.1944 13.3819 3.01057 13.4764 2.80827 13.5055L1.57206 13.6839C0.815415 13.7931 0.513345 14.7164 1.06085 15.2464L1.95538 16.1123C2.17276 16.3228 2.27194 16.626 2.22065 16.9232L2.00948 18.1458C1.88022 18.8941 2.67112 19.4648 3.34784 19.1115L4.45358 18.5342C4.72229 18.3939 5.04335 18.3939 5.31206 18.5342L6.41776 19.1115C7.09452 19.4648 7.88542 18.8941 7.75616 18.1458L7.54499 16.9232C7.49366 16.626 7.59284 16.3228 7.81026 16.1123L8.70479 15.2464" stroke="#150A02" stroke-width="1.2" stroke-miterlimit="10" stroke-linecap="round" stroke-linejoin="round"/>
<path d="M16.6661 13.2407C16.8056 13.3819 16.9894 13.4764 17.1918 13.5055L18.428 13.6839C19.1846 13.7931 19.4867 14.7164 18.9392 15.2464L18.0446 16.1123C17.8273 16.3228 17.7281 16.626 17.7794 16.9232L17.9905 18.1458C18.1198 18.8941 17.3289 19.4648 16.6522 19.1115L15.5464 18.5342C15.2777 18.3939 14.9567 18.3939 14.688 18.5342L13.5823 19.1115C12.9055 19.4648 12.1146 18.8941 12.2439 18.1458L12.455 16.9232C12.5064 16.626 12.4072 16.3228 12.1898 16.1123L11.2952 15.2464" stroke="#150A02" stroke-width="1.2" stroke-miterlimit="10" stroke-linecap="round" stroke-linejoin="round"/>
</g>
</g>
<defs>
<clipPath id="clip0_3569_15729">
<rect width="20" height="20" fill="white"/>
</clipPath>
</defs>
</svg>
