<svg width="20" height="20" viewBox="0 0 20 20" fill="none" xmlns="http://www.w3.org/2000/svg">
<path d="M8.06973 4.11723L7.25996 1.19535C7.05738 0.464337 6.34313 -0.0164446 5.48074 0.000430374C4.23156 0.0238679 3.16883 0.230509 2.32207 0.614259C1.21188 1.11723 0.44883 1.92652 0.0540249 3.01918L0.0279702 3.09125C0.00949827 3.14228 3.45484e-05 3.19612 1.47288e-06 3.25039V3.32703C-0.00191259 7.42192 1.8618 11.6353 5.11328 14.8868C8.36328 18.1368 12.5736 20 16.6665 20H16.7495C16.8038 20 16.8577 19.9906 16.9088 19.9721L16.9808 19.9461C18.0735 19.5513 18.8827 18.7882 19.3858 17.678C19.7695 16.8313 19.9761 15.7685 19.9996 14.5193C20.0159 13.6577 19.5357 12.9427 18.8048 12.7401L15.8829 11.9304C15.338 11.7793 14.8553 11.9217 14.5587 12.321L13.3738 13.9167C12.0327 13.7284 10.3074 12.7092 8.79902 11.2007C7.29067 9.69231 6.27141 7.96703 6.08309 6.62598L7.67883 5.44106C8.07836 5.14457 8.22078 4.66192 8.06973 4.11723ZM7.12008 4.68867L5.31051 6.03242C5.24771 6.07905 5.19758 6.14065 5.16468 6.2116C5.13178 6.28256 5.11716 6.36062 5.12215 6.43867C5.22559 8.05195 6.35238 10.08 8.13633 11.8639C9.92027 13.6478 11.9484 14.7746 13.5616 14.8781C13.6396 14.8831 13.7177 14.8684 13.7886 14.8355C13.8596 14.8026 13.9212 14.7525 13.9678 14.6897L15.3116 12.8802C15.3365 12.8466 15.3949 12.7681 15.6327 12.8339L18.5545 13.6437C18.9147 13.7435 19.0691 14.1466 19.0623 14.5018C19.0156 16.9679 18.21 18.5024 16.6672 19.0625H16.6666C12.8207 19.0625 8.85141 17.299 5.77621 14.2238C2.70102 11.1486 0.937501 7.17902 0.937501 3.33289C1.49762 1.7902 3.03215 0.984415 5.49844 0.937774C5.85313 0.93086 6.25672 1.08551 6.35656 1.44559L7.16629 4.36746C7.23223 4.6052 7.1536 4.66359 7.12008 4.68848V4.68867ZM20 9.48723C20 9.61155 19.9506 9.73078 19.8627 9.81868C19.7748 9.90659 19.6556 9.95598 19.5313 9.95598C19.4069 9.95598 19.2877 9.90659 19.1998 9.81868C19.1119 9.73078 19.0625 9.61155 19.0625 9.48723C19.0625 4.77293 15.2271 0.93754 10.5128 0.93754C10.3885 0.93754 10.2693 0.888154 10.1814 0.800246C10.0935 0.712338 10.0441 0.59311 10.0441 0.46879C10.0441 0.34447 10.0935 0.225241 10.1814 0.137333C10.2693 0.0494258 10.3885 3.97487e-05 10.5128 3.97487e-05C11.7587 2.9489e-05 12.9924 0.245416 14.1434 0.722188C15.2945 1.19896 16.3403 1.89778 17.2213 2.77875C18.1023 3.65972 18.8011 4.70558 19.2779 5.85663C19.7546 7.00767 20 8.24135 20 9.48723ZM10.0441 3.24246C10.0441 3.11814 10.0935 2.99891 10.1814 2.91101C10.2693 2.8231 10.3885 2.77371 10.5128 2.77371C14.2146 2.77371 17.2263 5.78543 17.2263 9.48723C17.2263 9.61155 17.1769 9.73078 17.089 9.81868C17.0011 9.90659 16.8819 9.95598 16.7576 9.95598C16.6333 9.95598 16.514 9.90659 16.4261 9.81868C16.3382 9.73078 16.2888 9.61155 16.2888 9.48723C16.2888 6.30235 13.6977 3.71121 10.5128 3.71121C10.3885 3.71121 10.2693 3.66183 10.1814 3.57392C10.0935 3.48601 10.0441 3.36678 10.0441 3.24246ZM10.0441 6.01617C10.0441 5.89185 10.0935 5.77262 10.1814 5.68472C10.2693 5.59681 10.3885 5.54742 10.5128 5.54742C11.5574 5.5486 12.5588 5.96407 13.2974 6.70267C14.036 7.44127 14.4514 8.44269 14.4526 9.48723C14.4526 9.61155 14.4032 9.73078 14.3153 9.81868C14.2274 9.90659 14.1082 9.95598 13.9839 9.95598C13.8595 9.95598 13.7403 9.90659 13.6524 9.81868C13.5645 9.73078 13.5151 9.61155 13.5151 9.48723C13.5142 8.69124 13.1976 7.92812 12.6348 7.36527C12.0719 6.80243 11.3088 6.48582 10.5128 6.48492C10.3885 6.48492 10.2693 6.43554 10.1814 6.34763C10.0935 6.25972 10.0441 6.14049 10.0441 6.01617Z" fill="#150A02"/>
</svg>
