<svg width="24" height="24" viewBox="0 0 24 24" fill="none" xmlns="http://www.w3.org/2000/svg">
<path d="M15.1655 2.8916C15.1991 2.89219 15.2325 2.89942 15.2632 2.91309C15.2937 2.92671 15.3214 2.94626 15.3442 2.9707L15.3501 2.97754L21.0249 8.65234L21.0337 8.66016C21.0595 8.68359 21.0801 8.71228 21.0942 8.74414C21.1083 8.776 21.1157 8.81088 21.1157 8.8457C21.1157 8.88034 21.1082 8.91459 21.0942 8.94629C21.0801 8.97814 21.0595 9.00685 21.0337 9.03027L21.0249 9.03809L21.0171 9.04688C20.9703 9.09361 20.9065 9.12003 20.8403 9.12012C20.7742 9.12012 20.7104 9.09351 20.6636 9.04688L20.1304 8.51367L19.7769 8.86719L16.4263 12.2168L16.1987 12.4443L16.312 12.7451C16.6228 13.5783 16.6874 14.4836 16.4985 15.3525C16.3102 16.2189 15.877 17.0125 15.2515 17.6406L14.6655 18.1689L14.6567 18.1768L14.6479 18.1855C14.412 18.4198 14.0928 18.5517 13.7603 18.5518C13.4692 18.5518 13.1881 18.4507 12.9644 18.2686L12.8726 18.1855L9.52002 14.833L3.33643 21.0166C3.28956 21.0633 3.22585 21.0898 3.15967 21.0898C3.09353 21.0898 3.02971 21.0633 2.98291 21.0166H2.98389C2.93715 20.9697 2.91064 20.906 2.91064 20.8398C2.91077 20.7738 2.93727 20.7108 2.98389 20.6641V20.6631L8.81396 14.8232L9.1665 14.4697L5.81396 11.1172C5.58078 10.8829 5.44972 10.5659 5.44971 10.2354C5.44971 9.90483 5.5808 9.58776 5.81396 9.35352L5.81689 9.35059L6.40381 8.75391C7.03277 8.12545 7.82891 7.6908 8.69775 7.50195C9.56674 7.31311 10.472 7.37765 11.3052 7.68848L11.606 7.80078L11.8335 7.57422L15.1831 4.22363L15.5366 3.87012L15.0034 3.33691L14.9976 3.33008L14.9907 3.32422C14.9663 3.30137 14.9467 3.27374 14.9331 3.24316C14.9195 3.21267 14.9123 3.17985 14.9116 3.14648C14.911 3.11292 14.9166 3.07898 14.9292 3.04785C14.9418 3.01673 14.9611 2.98858 14.9849 2.96484C15.0086 2.94119 15.0368 2.9227 15.0679 2.91016C15.0989 2.89762 15.132 2.89103 15.1655 2.8916ZM15.5366 4.57715L11.8286 8.28418C11.7902 8.32193 11.7412 8.34689 11.688 8.35547C11.6614 8.35975 11.6343 8.3604 11.6079 8.35645L11.5317 8.33203C10.7555 7.94437 9.87658 7.81054 9.02002 7.94922C8.16288 8.08807 7.37077 8.49288 6.75635 9.10645L6.75342 9.10938L6.16357 9.70996C6.11463 9.75847 6.07221 9.8131 6.03857 9.87305L6.00537 9.94141C5.97518 10.0111 5.95544 10.0849 5.94775 10.1602L5.94385 10.2354L5.94775 10.3105C5.95544 10.3858 5.97519 10.4596 6.00537 10.5293C6.04289 10.6159 6.09758 10.6934 6.16455 10.7598L6.16357 10.7617L9.70361 14.3516L9.70947 14.3564L13.2495 17.8369C13.3454 17.9321 13.5238 18.0781 13.7788 18.0781C14.0289 18.0781 14.2012 17.9375 14.2993 17.8359L14.3003 17.8369L14.9009 17.2471L14.9038 17.2432C15.5173 16.6287 15.9223 15.8367 16.061 14.9795C16.1997 14.1224 16.0655 13.2434 15.6772 12.4668L15.6743 12.46L15.6499 12.3877C15.6459 12.3627 15.6458 12.3369 15.6499 12.3115C15.6581 12.2608 15.6824 12.2137 15.7192 12.1777L15.7241 12.1738L19.4243 8.46387L19.7769 8.10938L19.4233 7.75684L15.8901 4.22363L15.5366 4.57715Z" fill="white" stroke="white"/>
</svg>
