<svg width="16" height="16" viewBox="0 0 16 16" fill="none" xmlns="http://www.w3.org/2000/svg">
<mask id="path-1-inside-1_399_30572" fill="white">
<path d="M8 8.33447C10.022 8.33447 11.667 6.68945 11.667 4.66724C11.667 2.64502 10.022 1 8 1C5.97754 1 4.33252 2.64502 4.33252 4.66724C4.33252 6.68945 5.97754 8.33447 8 8.33447ZM8 2C9.4707 2 10.667 3.19653 10.667 4.66724C10.667 6.13794 9.4707 7.33447 8 7.33447C6.5293 7.33447 5.33252 6.13794 5.33252 4.66724C5.33252 3.19653 6.5293 2 8 2Z"/>
</mask>
<path d="M8 8.33447V9.33447C10.5743 9.33447 12.667 7.24169 12.667 4.66724H11.667H10.667C10.667 6.13721 9.46964 7.33447 8 7.33447V8.33447ZM11.667 4.66724H12.667C12.667 2.09278 10.5743 0 8 0V1V2C9.46964 2 10.667 3.19726 10.667 4.66724H11.667ZM8 1V0C5.4253 0 3.33252 2.09269 3.33252 4.66724H4.33252H5.33252C5.33252 3.19735 6.52978 2 8 2V1ZM4.33252 4.66724H3.33252C3.33252 7.24178 5.4253 9.33447 8 9.33447V8.33447V7.33447C6.52978 7.33447 5.33252 6.13713 5.33252 4.66724H4.33252ZM8 2V3C8.9183 3 9.66699 3.7487 9.66699 4.66724H10.667H11.667C11.667 2.64437 10.0231 1 8 1V2ZM10.667 4.66724H9.66699C9.66699 5.58577 8.9183 6.33447 8 6.33447V7.33447V8.33447C10.0231 8.33447 11.667 6.69011 11.667 4.66724H10.667ZM8 7.33447V6.33447C7.08146 6.33447 6.33252 5.58554 6.33252 4.66724H5.33252H4.33252C4.33252 6.69034 5.97713 8.33447 8 8.33447V7.33447ZM5.33252 4.66724H6.33252C6.33252 3.74894 7.08146 3 8 3V2V1C5.97713 1 4.33252 2.64413 4.33252 4.66724H5.33252Z" fill="#5E9B87" mask="url(#path-1-inside-1_399_30572)"/>
<path d="M8 8.33447V9.33447C10.5743 9.33447 12.667 7.24169 12.667 4.66724H11.667H10.667C10.667 6.13721 9.46964 7.33447 8 7.33447V8.33447ZM11.667 4.66724H12.667C12.667 2.09278 10.5743 0 8 0V1V2C9.46964 2 10.667 3.19726 10.667 4.66724H11.667ZM8 1V0C5.4253 0 3.33252 2.09269 3.33252 4.66724H4.33252H5.33252C5.33252 3.19735 6.52978 2 8 2V1ZM4.33252 4.66724H3.33252C3.33252 7.24178 5.4253 9.33447 8 9.33447V8.33447V7.33447C6.52978 7.33447 5.33252 6.13713 5.33252 4.66724H4.33252ZM8 2V3C8.9183 3 9.66699 3.7487 9.66699 4.66724H10.667H11.667C11.667 2.64437 10.0231 1 8 1V2ZM10.667 4.66724H9.66699C9.66699 5.58577 8.9183 6.33447 8 6.33447V7.33447V8.33447C10.0231 8.33447 11.667 6.69011 11.667 4.66724H10.667ZM8 7.33447V6.33447C7.08146 6.33447 6.33252 5.58554 6.33252 4.66724H5.33252H4.33252C4.33252 6.69034 5.97713 8.33447 8 8.33447V7.33447ZM5.33252 4.66724H6.33252C6.33252 3.74894 7.08146 3 8 3V2V1C5.97713 1 4.33252 2.64413 4.33252 4.66724H5.33252Z" fill="black" fill-opacity="0.2" mask="url(#path-1-inside-1_399_30572)"/>
<path d="M3.15039 14.9998H12.8496C13.9526 14.9998 14.8496 14.1025 14.8496 12.9998C14.8496 11.0662 13.2764 9.49316 11.3428 9.49316H4.65723C2.72363 9.49316 1.15039 11.0662 1.15039 12.9998C1.15039 14.1025 2.04736 14.9998 3.15039 14.9998ZM4.65723 10.4932H11.3428C12.7251 10.4932 13.8496 11.6177 13.8496 12.9998C13.8496 13.5513 13.4009 13.9998 12.8496 13.9998H3.15039C2.59912 13.9998 2.15039 13.5513 2.15039 12.9998C2.15039 11.6177 3.2749 10.4932 4.65723 10.4932Z" fill="#5E9B87"/>
<path d="M3.15039 14.9998H12.8496C13.9526 14.9998 14.8496 14.1025 14.8496 12.9998C14.8496 11.0662 13.2764 9.49316 11.3428 9.49316H4.65723C2.72363 9.49316 1.15039 11.0662 1.15039 12.9998C1.15039 14.1025 2.04736 14.9998 3.15039 14.9998ZM4.65723 10.4932H11.3428C12.7251 10.4932 13.8496 11.6177 13.8496 12.9998C13.8496 13.5513 13.4009 13.9998 12.8496 13.9998H3.15039C2.59912 13.9998 2.15039 13.5513 2.15039 12.9998C2.15039 11.6177 3.2749 10.4932 4.65723 10.4932Z" fill="black" fill-opacity="0.2"/>
</svg>
