<svg width="16" height="16" viewBox="0 0 16 16" fill="none" xmlns="http://www.w3.org/2000/svg">
<path d="M7.80859 15.3331H3.27213C3.03456 15.333 2.80133 15.2694 2.59656 15.1489C2.3918 15.0285 2.22293 14.8555 2.10743 14.6479C1.99193 14.4403 1.93399 14.2056 1.9396 13.9681C1.9452 13.7306 2.01416 13.4989 2.13933 13.2969L2.446 12.8028C1.74064 11.9796 1.22486 11.0114 0.935154 9.96671C0.645451 8.92205 0.588908 7.82649 0.769529 6.75756C1.01123 5.30729 1.68597 3.96406 2.7051 2.90432C3.72424 1.84458 5.0401 1.1179 6.47982 0.819745C7.58467 0.587005 8.72832 0.612281 9.8218 0.893609C10.9153 1.17494 11.9291 1.70473 12.7845 2.44178C13.6398 3.17883 14.3136 4.10327 14.7534 5.14318C15.1933 6.1831 15.3872 7.31046 15.3203 8.43757C15.1823 10.3276 14.3281 12.0936 12.932 13.3751C11.536 14.6566 9.70347 15.3569 7.80859 15.3331ZM7.99153 2.00137C7.57216 2.00164 7.15387 2.04374 6.74286 2.12703C5.56804 2.37076 4.49443 2.96416 3.66306 3.82928C2.83169 4.6944 2.28146 5.79077 2.08466 6.97436C1.9355 7.85136 1.98206 8.75049 2.221 9.6074C2.45994 10.4643 2.88536 11.2578 3.4668 11.9311C3.64983 12.148 3.75924 12.4175 3.77925 12.7007C3.79926 12.9838 3.72883 13.266 3.57813 13.5066L3.27213 13.9997H7.80859C9.36339 14.0239 10.8688 13.4537 12.0175 12.4057C13.1662 11.3576 13.8715 9.91059 13.9896 8.3601C14.0389 7.54259 13.9203 6.72364 13.641 5.95373C13.3618 5.18382 12.9278 4.47927 12.3658 3.8835C11.8038 3.28773 11.1258 2.81338 10.3735 2.48968C9.62116 2.16598 8.81052 1.9998 7.99153 2.00137Z" fill="#150A02"/>
<path d="M8.00004 11.3327C7.91249 11.3327 7.82579 11.3155 7.74489 11.282C7.664 11.2485 7.5905 11.1994 7.52859 11.1375C7.46668 11.0756 7.41757 11.0021 7.38407 10.9212C7.35058 10.8403 7.33335 10.7536 7.33337 10.666V5.33268C7.33337 5.15587 7.40361 4.9863 7.52864 4.86128C7.65366 4.73625 7.82323 4.66602 8.00004 4.66602C8.17685 4.66602 8.34642 4.73625 8.47145 4.86128C8.59647 4.9863 8.66671 5.15587 8.66671 5.33268V10.666C8.66673 10.7536 8.6495 10.8403 8.61601 10.9212C8.58251 11.0021 8.53341 11.0756 8.4715 11.1375C8.40959 11.1994 8.33608 11.2485 8.25519 11.282C8.1743 11.3155 8.0876 11.3327 8.00004 11.3327Z" fill="#150A02"/>
<path d="M5.33329 10C5.24574 10 5.15904 9.98279 5.07814 9.9493C4.99725 9.9158 4.92375 9.8667 4.86184 9.80479C4.79993 9.74288 4.75082 9.66938 4.71733 9.58848C4.68383 9.50759 4.6666 9.42089 4.66663 9.33333V6.66667C4.66663 6.48986 4.73686 6.32029 4.86189 6.19526C4.98691 6.07024 5.15648 6 5.33329 6C5.5101 6 5.67967 6.07024 5.8047 6.19526C5.92972 6.32029 5.99996 6.48986 5.99996 6.66667V9.33333C5.99998 9.42089 5.98275 9.50759 5.94926 9.58848C5.91576 9.66938 5.86666 9.74288 5.80475 9.80479C5.74284 9.8667 5.66934 9.9158 5.58844 9.9493C5.50755 9.98279 5.42085 10 5.33329 10Z" fill="#150A02"/>
<path d="M10.6667 10C10.5791 10 10.4924 9.98279 10.4115 9.9493C10.3306 9.9158 10.2571 9.8667 10.1952 9.80479C10.1333 9.74288 10.0842 9.66938 10.0507 9.58848C10.0172 9.50759 9.99998 9.42089 10 9.33333V6.66667C10 6.48986 10.0702 6.32029 10.1953 6.19526C10.3203 6.07024 10.4899 6 10.6667 6C10.8435 6 11.013 6.07024 11.1381 6.19526C11.2631 6.32029 11.3333 6.48986 11.3333 6.66667V9.33333C11.3334 9.42089 11.3161 9.50759 11.2826 9.58848C11.2491 9.66938 11.2 9.74288 11.1381 9.80479C11.0762 9.8667 11.0027 9.9158 10.9218 9.9493C10.8409 9.98279 10.7542 10 10.6667 10Z" fill="#150A02"/>
</svg>
