<svg width="24" height="24" viewBox="0 0 24 24" fill="none" xmlns="http://www.w3.org/2000/svg">
<g clip-path="url(#clip0_3279_9542)">
<mask id="path-1-inside-1_3279_9542" fill="white">
<path d="M14.858 0.0366039C14.72 0.0202039 14.5792 0.00900386 14.44 0.000203856C14.3318 -0.00569003 14.2236 0.0105316 14.122 0.0478769C14.0203 0.0852223 13.9274 0.142907 13.8488 0.217404C13.7701 0.292697 13.7075 0.383159 13.6647 0.483327C13.6219 0.583495 13.5999 0.69129 13.6 0.800204V2.873C13.5997 2.97261 13.6254 3.07057 13.6746 3.15718C13.7238 3.24378 13.7948 3.31604 13.8805 3.3668C13.9662 3.41755 14.0637 3.44504 14.1633 3.44655C14.2629 3.44806 14.3612 3.42354 14.4484 3.3754C14.6801 3.25445 14.9387 3.19418 15.2 3.2002C15.316 3.20157 15.4305 3.22787 15.5355 3.27734C15.6405 3.3268 15.7336 3.39827 15.8086 3.48689C15.8835 3.57551 15.9386 3.67921 15.9699 3.79097C16.0013 3.90272 16.0083 4.01992 15.9904 4.1346C15.9465 4.33992 15.8276 4.52148 15.6569 4.64376C15.4863 4.76605 15.2761 4.82026 15.0676 4.7958C14.8503 4.78215 14.6381 4.72387 14.4444 4.6246C14.358 4.57656 14.2605 4.55211 14.1617 4.55373C14.0629 4.55534 13.9663 4.58296 13.8816 4.6338C13.7962 4.68497 13.7256 4.75736 13.6765 4.84393C13.6275 4.9305 13.6016 5.0283 13.6016 5.1278V7.2002C13.6016 7.41238 13.6859 7.61586 13.8359 7.76589C13.9859 7.91592 14.1894 8.0002 14.4016 8.0002H16.1276C16.0419 8.25817 15.9988 8.52838 16 8.8002C16.0053 9.22345 16.176 9.62783 16.4756 9.92683C16.7752 10.2258 17.1799 10.3957 17.6032 10.4002C17.8294 10.4004 18.0532 10.3527 18.2596 10.2601C18.4661 10.1675 18.6505 10.0322 18.8008 9.86306C18.9511 9.69393 19.0638 9.49485 19.1315 9.27896C19.1992 9.06307 19.2204 8.83527 19.1936 8.6106C19.1795 8.40288 19.1392 8.19778 19.0736 8.0002H20.8C20.9087 8.00035 21.0162 7.97836 21.1161 7.93555C21.2161 7.89275 21.3062 7.83003 21.381 7.75124C21.4559 7.67245 21.5139 7.57923 21.5516 7.47726C21.5892 7.3753 21.6057 7.26674 21.6 7.1582C21.5964 7.0922 21.5924 7.0258 21.5868 6.9554C21.4389 5.20173 20.6874 3.55362 19.4604 2.29198C18.2334 1.03034 16.6069 0.233265 14.858 0.0366039ZM18.728 7.2002C18.6282 7.20044 18.5301 7.2266 18.4435 7.2761C18.3568 7.3256 18.2845 7.39676 18.2336 7.4826C18.1833 7.56645 18.1558 7.66201 18.1539 7.75977C18.152 7.85752 18.1758 7.95407 18.2228 8.0398C18.3235 8.23513 18.3825 8.44926 18.396 8.6686C18.4214 8.8769 18.3676 9.08714 18.2451 9.25757C18.1227 9.42801 17.9407 9.54617 17.7352 9.5886C17.6206 9.60661 17.5035 9.59978 17.3918 9.56859C17.2801 9.5374 17.1764 9.48257 17.0877 9.40781C16.999 9.33305 16.9274 9.24011 16.8778 9.13528C16.8281 9.03045 16.8016 8.91618 16.8 8.8002C16.7934 8.53936 16.8533 8.28114 16.974 8.0498C17.0221 7.96256 17.0467 7.86425 17.0452 7.76461C17.0438 7.66496 17.0163 7.56742 16.9656 7.48162C16.915 7.39582 16.8427 7.32473 16.7562 7.27538C16.6696 7.22603 16.5716 7.20011 16.472 7.2002H14.4V5.4734C14.5974 5.53905 14.8024 5.57937 15.01 5.5934C15.419 5.63643 15.829 5.52277 16.1575 5.27535C16.486 5.02793 16.7084 4.66517 16.78 4.2602C16.8177 4.03107 16.8051 3.79647 16.7431 3.57269C16.681 3.34892 16.571 3.14133 16.4207 2.96435C16.2703 2.78736 16.0833 2.64523 15.8725 2.54781C15.6617 2.45039 15.4322 2.40002 15.2 2.4002C14.9282 2.39847 14.658 2.44117 14.4 2.5266V0.800204C14.52 0.807004 14.6436 0.817004 14.77 0.831404C16.3279 1.02269 17.7739 1.74013 18.8686 2.86502C19.9633 3.98992 20.6411 5.45484 20.79 7.0174C20.794 7.0778 20.7984 7.1374 20.8004 7.1998L18.728 7.2002Z"/>
</mask>
<path d="M14.858 0.0366039C14.72 0.0202039 14.5792 0.00900386 14.44 0.000203856C14.3318 -0.00569003 14.2236 0.0105316 14.122 0.0478769C14.0203 0.0852223 13.9274 0.142907 13.8488 0.217404C13.7701 0.292697 13.7075 0.383159 13.6647 0.483327C13.6219 0.583495 13.5999 0.69129 13.6 0.800204V2.873C13.5997 2.97261 13.6254 3.07057 13.6746 3.15718C13.7238 3.24378 13.7948 3.31604 13.8805 3.3668C13.9662 3.41755 14.0637 3.44504 14.1633 3.44655C14.2629 3.44806 14.3612 3.42354 14.4484 3.3754C14.6801 3.25445 14.9387 3.19418 15.2 3.2002C15.316 3.20157 15.4305 3.22787 15.5355 3.27734C15.6405 3.3268 15.7336 3.39827 15.8086 3.48689C15.8835 3.57551 15.9386 3.67921 15.9699 3.79097C16.0013 3.90272 16.0083 4.01992 15.9904 4.1346C15.9465 4.33992 15.8276 4.52148 15.6569 4.64376C15.4863 4.76605 15.2761 4.82026 15.0676 4.7958C14.8503 4.78215 14.6381 4.72387 14.4444 4.6246C14.358 4.57656 14.2605 4.55211 14.1617 4.55373C14.0629 4.55534 13.9663 4.58296 13.8816 4.6338C13.7962 4.68497 13.7256 4.75736 13.6765 4.84393C13.6275 4.9305 13.6016 5.0283 13.6016 5.1278V7.2002C13.6016 7.41238 13.6859 7.61586 13.8359 7.76589C13.9859 7.91592 14.1894 8.0002 14.4016 8.0002H16.1276C16.0419 8.25817 15.9988 8.52838 16 8.8002C16.0053 9.22345 16.176 9.62783 16.4756 9.92683C16.7752 10.2258 17.1799 10.3957 17.6032 10.4002C17.8294 10.4004 18.0532 10.3527 18.2596 10.2601C18.4661 10.1675 18.6505 10.0322 18.8008 9.86306C18.9511 9.69393 19.0638 9.49485 19.1315 9.27896C19.1992 9.06307 19.2204 8.83527 19.1936 8.6106C19.1795 8.40288 19.1392 8.19778 19.0736 8.0002H20.8C20.9087 8.00035 21.0162 7.97836 21.1161 7.93555C21.2161 7.89275 21.3062 7.83003 21.381 7.75124C21.4559 7.67245 21.5139 7.57923 21.5516 7.47726C21.5892 7.3753 21.6057 7.26674 21.6 7.1582C21.5964 7.0922 21.5924 7.0258 21.5868 6.9554C21.4389 5.20173 20.6874 3.55362 19.4604 2.29198C18.2334 1.03034 16.6069 0.233265 14.858 0.0366039ZM18.728 7.2002C18.6282 7.20044 18.5301 7.2266 18.4435 7.2761C18.3568 7.3256 18.2845 7.39676 18.2336 7.4826C18.1833 7.56645 18.1558 7.66201 18.1539 7.75977C18.152 7.85752 18.1758 7.95407 18.2228 8.0398C18.3235 8.23513 18.3825 8.44926 18.396 8.6686C18.4214 8.8769 18.3676 9.08714 18.2451 9.25757C18.1227 9.42801 17.9407 9.54617 17.7352 9.5886C17.6206 9.60661 17.5035 9.59978 17.3918 9.56859C17.2801 9.5374 17.1764 9.48257 17.0877 9.40781C16.999 9.33305 16.9274 9.24011 16.8778 9.13528C16.8281 9.03045 16.8016 8.91618 16.8 8.8002C16.7934 8.53936 16.8533 8.28114 16.974 8.0498C17.0221 7.96256 17.0467 7.86425 17.0452 7.76461C17.0438 7.66496 17.0163 7.56742 16.9656 7.48162C16.915 7.39582 16.8427 7.32473 16.7562 7.27538C16.6696 7.22603 16.5716 7.20011 16.472 7.2002H14.4V5.4734C14.5974 5.53905 14.8024 5.57937 15.01 5.5934C15.419 5.63643 15.829 5.52277 16.1575 5.27535C16.486 5.02793 16.7084 4.66517 16.78 4.2602C16.8177 4.03107 16.8051 3.79647 16.7431 3.57269C16.681 3.34892 16.571 3.14133 16.4207 2.96435C16.2703 2.78736 16.0833 2.64523 15.8725 2.54781C15.6617 2.45039 15.4322 2.40002 15.2 2.4002C14.9282 2.39847 14.658 2.44117 14.4 2.5266V0.800204C14.52 0.807004 14.6436 0.817004 14.77 0.831404C16.3279 1.02269 17.7739 1.74013 18.8686 2.86502C19.9633 3.98992 20.6411 5.45484 20.79 7.0174C20.794 7.0778 20.7984 7.1374 20.8004 7.1998L18.728 7.2002Z" fill="#150A02"/>
<path d="M14.858 0.0366039L13.851 8.51031L13.8777 8.51348L13.9044 8.51649L14.858 0.0366039ZM14.44 0.000203856L14.9784 -8.51613L14.9414 -8.51847L14.9044 -8.52048L14.44 0.000203856ZM13.8488 0.217404L7.97856 -5.97601L7.96403 -5.96223L7.94956 -5.94839L13.8488 0.217404ZM13.6 0.800204H22.1333L22.1333 0.795738L13.6 0.800204ZM13.6 2.873L22.1333 2.89709L22.1333 2.88505V2.873H13.6ZM14.4484 3.3754L10.4997 -4.18938L10.4118 -4.14346L10.3249 -4.09552L14.4484 3.3754ZM15.2 3.2002L15.0033 11.7313L15.0515 11.7324L15.0997 11.7329L15.2 3.2002ZM15.9904 4.1346L24.3352 5.91838L24.3849 5.6857L24.4216 5.45061L15.9904 4.1346ZM15.0676 4.7958L16.0617 -3.67943L15.8328 -3.70628L15.6027 -3.72073L15.0676 4.7958ZM14.4444 4.6246L10.2954 12.0814L10.4233 12.1526L10.5536 12.2193L14.4444 4.6246ZM13.8816 4.6338L18.2696 11.9525L18.272 11.951L13.8816 4.6338ZM13.6016 5.1278L5.06824 5.12259V5.1278H13.6016ZM16.1276 8.0002L24.2256 10.691L27.9551 -0.533129H16.1276V8.0002ZM16 8.8002L7.46673 8.83832L7.46688 8.87274L7.46731 8.90716L16 8.8002ZM17.6032 10.4002L17.5133 18.9331L17.5538 18.9335L17.5943 18.9335L17.6032 10.4002ZM19.1936 8.6106L10.6797 9.18584L10.6944 9.40435L10.7204 9.62181L19.1936 8.6106ZM19.0736 8.0002V-0.533129H7.24642L10.9755 10.6908L19.0736 8.0002ZM20.8 8.0002L20.8117 -0.533129H20.8V8.0002ZM21.6 7.1582L30.1215 6.7102L30.1211 6.70182L30.1206 6.69344L21.6 7.1582ZM21.5868 6.9554L30.0932 6.27875L30.0916 6.25851L30.0899 6.23827L21.5868 6.9554ZM18.728 7.2002L18.7263 -1.33313L18.7169 -1.33313L18.7075 -1.3331L18.728 7.2002ZM18.2336 7.4826L25.5518 11.8714L25.5627 11.8533L25.5734 11.8351L18.2336 7.4826ZM18.2228 8.0398L25.8074 4.12934L25.7577 4.03298L25.7056 3.93791L18.2228 8.0398ZM18.396 8.6686L9.87879 9.1933L9.89451 9.4485L9.92548 9.70229L18.396 8.6686ZM17.7352 9.5886L19.0599 18.0185L19.2611 17.9869L19.4607 17.9457L17.7352 9.5886ZM16.8 8.8002L25.3325 8.6802L25.3318 8.63296L25.3306 8.58574L16.8 8.8002ZM16.974 8.0498L9.50315 3.92615L9.45466 4.014L9.40825 4.10297L16.974 8.0498ZM16.472 7.2002V15.7335L16.4797 15.7335L16.472 7.2002ZM14.4 7.2002H5.86664V15.7335H14.4V7.2002ZM14.4 5.4734L17.0922 -2.6241L5.86664 -6.35637V5.4734H14.4ZM15.01 5.5934L15.9027 -2.8931L15.7444 -2.90976L15.5855 -2.9205L15.01 5.5934ZM16.78 4.2602L25.1832 5.74484L25.1918 5.69591L25.1999 5.64687L16.78 4.2602ZM15.2 2.4002L15.1457 10.9334L15.1762 10.9336L15.2067 10.9335L15.2 2.4002ZM14.4 2.5266H5.86664V14.3413L17.0825 10.6274L14.4 2.5266ZM14.4 0.800204L14.8828 -7.71946L5.86664 -8.23038V0.800204H14.4ZM14.77 0.831404L15.8099 -7.63833L15.7729 -7.64287L15.7359 -7.64709L14.77 0.831404ZM20.79 7.0174L29.3047 6.45352L29.2965 6.33072L29.2849 6.20821L20.79 7.0174ZM20.8004 7.1998L20.802 15.7331L29.6115 15.7314L29.3293 6.92644L20.8004 7.1998ZM14.858 0.0366039L15.865 -8.4371C15.5131 -8.47892 15.2022 -8.50198 14.9784 -8.51613L14.44 0.000203856L13.9016 8.51654C13.9256 8.51806 13.9317 8.51865 13.9252 8.5181C13.9186 8.51754 13.8924 8.51524 13.851 8.51031L14.858 0.0366039ZM14.44 0.000203856L14.9044 -8.52048C13.6376 -8.58953 12.3701 -8.39949 11.1793 -7.962L14.122 0.0478769L17.0647 8.05775C16.0772 8.42055 15.0261 8.57815 13.9756 8.52089L14.44 0.000203856ZM14.122 0.0478769L11.1793 -7.962C9.98843 -7.5245 8.89934 -6.84874 7.97856 -5.97601L13.8488 0.217404L19.719 6.41082C18.9554 7.13455 18.0523 7.69495 17.0647 8.05775L14.122 0.0478769ZM13.8488 0.217404L7.94956 -5.94839C7.03773 -5.07598 6.31212 -4.02779 5.8166 -2.86706L13.6647 0.483327L21.5128 3.83372C21.1028 4.79411 20.5024 5.66138 19.748 6.38319L13.8488 0.217404ZM13.6647 0.483327L5.8166 -2.86706C5.32109 -1.70636 5.06598 -0.457303 5.06665 0.80467L13.6 0.800204L22.1333 0.795738C22.1339 1.83988 21.9228 2.87335 21.5128 3.83372L13.6647 0.483327ZM13.6 0.800204H5.06664V2.873H13.6H22.1333V0.800204H13.6ZM13.6 2.873L5.06668 2.84891C5.0622 4.43453 5.47187 5.99383 6.25514 7.37249L13.6746 3.15718L21.0941 -1.05814C21.779 0.147306 22.1372 1.5107 22.1333 2.89709L13.6 2.873ZM13.6746 3.15718L6.25514 7.37249C7.03843 8.75117 8.16815 9.90138 9.53249 10.7093L13.8805 3.3668L18.2286 -3.97571C19.4215 -3.26929 20.4093 -2.2636 21.0941 -1.05814L13.6746 3.15718ZM13.8805 3.3668L9.53249 10.7093C10.8969 11.5172 12.4485 11.9549 14.034 11.9789L14.1633 3.44655L14.2926 -5.0858C15.6789 -5.06479 17.0356 -4.68214 18.2286 -3.97571L13.8805 3.3668ZM14.1633 3.44655L14.034 11.9789C15.6194 12.0029 17.1837 11.6125 18.5719 10.8463L14.4484 3.3754L10.3249 -4.09552C11.5387 -4.76545 12.9064 -5.10681 14.2926 -5.0858L14.1633 3.44655ZM14.4484 3.3754L18.397 10.9402C17.3508 11.4863 16.1832 11.7585 15.0033 11.7313L15.2 3.2002L15.3966 -5.33086C13.6941 -5.37011 12.0094 -4.9774 10.4997 -4.18938L14.4484 3.3754ZM15.2 3.2002L15.0997 11.7329C13.9924 11.7199 12.9008 11.469 11.8991 10.9971L15.5355 3.27734L19.1719 -4.4424C17.9601 -5.01322 16.6397 -5.3168 15.3003 -5.33254L15.2 3.2002ZM15.5355 3.27734L11.8991 10.9971C10.8973 10.5252 10.0087 9.84339 9.2935 8.99793L15.8086 3.48689L22.3237 -2.02415C21.4586 -3.04685 20.3837 -3.87158 19.1719 -4.4424L15.5355 3.27734ZM15.8086 3.48689L9.2935 8.99793C8.57834 8.15248 8.05334 7.16312 7.75409 6.09694L15.9699 3.79097L24.1858 1.485C23.8238 0.195306 23.1887 -1.00146 22.3237 -2.02415L15.8086 3.48689ZM15.9699 3.79097L7.75409 6.09694C7.45485 5.03081 7.38835 3.91276 7.55913 2.8186L15.9904 4.1346L24.4216 5.45061C24.6282 4.12708 24.5478 2.77464 24.1858 1.485L15.9699 3.79097ZM15.9904 4.1346L7.64556 2.35083C8.04583 0.47831 9.13028 -1.17752 10.6868 -2.29278L15.6569 4.64376L20.6271 11.5803C22.5249 10.2205 23.8472 8.20153 24.3352 5.91838L15.9904 4.1346ZM15.6569 4.64376L10.6868 -2.29278C12.2433 -3.40804 14.1599 -3.90249 16.0617 -3.67943L15.0676 4.7958L14.0735 13.271C16.3923 13.543 18.7292 12.9401 20.6271 11.5803L15.6569 4.64376ZM15.0676 4.7958L15.6027 -3.72073C16.5554 -3.66087 17.4856 -3.40534 18.3352 -2.97011L14.4444 4.6246L10.5536 12.2193C11.7907 12.8531 13.1451 13.2252 14.5324 13.3123L15.0676 4.7958ZM14.4444 4.6246L18.5933 -2.83221C17.1968 -3.60923 15.6202 -4.00459 14.0223 -3.97846L14.1617 4.55373L14.3012 13.0859C12.9009 13.1088 11.5193 12.7624 10.2954 12.0814L14.4444 4.6246ZM14.1617 4.55373L14.0223 -3.97846C12.4244 -3.95234 10.8615 -3.50568 9.49112 -2.68341L13.8816 4.6338L18.272 11.951C17.0711 12.6716 15.7015 13.063 14.3012 13.0859L14.1617 4.55373ZM13.8816 4.6338L9.49352 -2.68485C8.14466 -1.87611 7.02822 -0.731982 6.25277 0.636134L13.6765 4.84393L21.1003 9.05173C20.423 10.2467 19.4478 11.2461 18.2696 11.9525L13.8816 4.6338ZM13.6765 4.84393L6.25277 0.636134C5.47729 2.0043 5.06921 3.54993 5.06825 5.12259L13.6016 5.1278L22.1349 5.13302C22.1341 6.50666 21.7776 7.8567 21.1003 9.05173L13.6765 4.84393ZM13.6016 5.1278H5.06824V7.2002H13.6016H22.1349V5.1278H13.6016ZM13.6016 7.2002H5.06824C5.06824 9.67554 6.05156 12.0495 7.80191 13.7999L13.8359 7.76589L19.8699 1.73191C21.3202 3.1822 22.1349 5.14921 22.1349 7.2002H13.6016ZM13.8359 7.76589L7.80191 13.7999C9.55226 15.5502 11.9262 16.5335 14.4016 16.5335V8.0002V-0.533129C16.4526 -0.533129 18.4196 0.281628 19.8699 1.73191L13.8359 7.76589ZM14.4016 8.0002V16.5335H16.1276V8.0002V-0.533129H14.4016V8.0002ZM16.1276 8.0002L8.02959 5.3094C7.65149 6.44731 7.46137 7.63925 7.46673 8.83832L16 8.8002L24.5332 8.76208C24.5362 9.41751 24.4322 10.069 24.2256 10.691L16.1276 8.0002ZM16 8.8002L7.46731 8.90716C7.50056 11.5593 8.57027 14.0932 10.4477 15.9668L16.4756 9.92683L22.5035 3.88683C23.7817 5.16245 24.51 6.88758 24.5326 8.69325L16 8.8002ZM16.4756 9.92683L10.4477 15.9668C12.325 17.8405 14.861 18.9051 17.5133 18.9331L17.6032 10.4002L17.6931 1.86734C19.4988 1.88637 21.2254 2.61121 22.5035 3.88683L16.4756 9.92683ZM17.6032 10.4002L17.5943 18.9335C19.0272 18.935 20.4442 18.6326 21.7517 18.0462L18.2596 10.2601L14.7675 2.47401C15.6621 2.07278 16.6317 1.86585 17.6121 1.86688L17.6032 10.4002ZM18.2596 10.2601L21.7517 18.0462C23.0592 17.4598 24.2274 16.6027 25.1793 15.5316L18.8008 9.86306L12.4223 4.19452C13.0736 3.46165 13.8729 2.87524 14.7675 2.47401L18.2596 10.2601ZM18.8008 9.86306L25.1793 15.5316C26.1313 14.4604 26.8451 13.1996 27.2739 11.8323L19.1315 9.27896L10.9892 6.72561C11.2825 5.7901 11.771 4.92742 12.4223 4.19452L18.8008 9.86306ZM19.1315 9.27896L27.2739 11.8323C27.7027 10.465 27.8366 9.0223 27.6668 7.5994L19.1936 8.6106L10.7204 9.62181C10.6042 8.64824 10.6958 7.66112 10.9892 6.72561L19.1315 9.27896ZM19.1936 8.6106L27.7075 8.03537C27.6448 7.10776 27.4648 6.19188 27.1716 5.30965L19.0736 8.0002L10.9755 10.6908C10.8137 10.2037 10.7143 9.69801 10.6797 9.18584L19.1936 8.6106ZM19.0736 8.0002V16.5335H20.8V8.0002V-0.533129H19.0736V8.0002ZM20.8 8.0002L20.7882 16.5335C22.0562 16.5353 23.3113 16.2786 24.4768 15.7792L21.1161 7.93555L17.7555 0.0918581C18.7212 -0.321918 19.7611 -0.53457 20.8117 -0.533121L20.8 8.0002ZM21.1161 7.93555L24.4768 15.7792C25.6424 15.2799 26.6939 14.5482 27.5673 13.629L21.381 7.75124L15.1948 1.87353C15.9184 1.11185 16.7897 0.505628 17.7555 0.0918581L21.1161 7.93555ZM21.381 7.75124L27.5673 13.629C28.4408 12.7097 29.1177 11.6221 29.5568 10.4326L21.5516 7.47726L13.5463 4.52196C13.9102 3.53638 14.471 2.63523 15.1948 1.87353L21.381 7.75124ZM21.5516 7.47726L29.5568 10.4326C29.996 9.24305 30.1881 7.9765 30.1215 6.7102L21.6 7.1582L13.0784 7.60621C13.0233 6.55698 13.1825 5.50755 13.5463 4.52196L21.5516 7.47726ZM21.6 7.1582L30.1206 6.69344C30.1154 6.59673 30.1069 6.45072 30.0932 6.27875L21.5868 6.9554L13.0803 7.63206C13.079 7.61581 13.0783 7.60517 13.0782 7.60259C13.078 7.60076 13.0784 7.60552 13.0793 7.62297L21.6 7.1582ZM21.5868 6.9554L30.0899 6.23827C29.7761 2.51701 28.1814 -0.980243 25.5778 -3.65741L19.4604 2.29198L13.343 8.24138C13.1933 8.08749 13.1017 7.88645 13.0836 7.67253L21.5868 6.9554ZM19.4604 2.29198L25.5778 -3.65741C22.9741 -6.33459 19.5226 -8.02597 15.8115 -8.44328L14.858 0.0366039L13.9044 8.51649C13.6911 8.4925 13.4927 8.39527 13.343 8.24138L19.4604 2.29198ZM18.728 7.2002L18.7075 -1.3331C17.1301 -1.32932 15.5807 -0.916006 14.211 -0.133648L18.4435 7.2761L22.6759 14.6858C21.4796 15.3692 20.1263 15.7302 18.7485 15.7335L18.728 7.2002ZM18.4435 7.2761L14.211 -0.133648C12.8414 0.648706 11.6983 1.77331 10.8937 3.1301L18.2336 7.4826L25.5734 11.8351C24.8707 13.0202 23.8722 14.0025 22.6759 14.6858L18.4435 7.2761ZM18.2336 7.4826L10.9154 3.09383C10.0988 4.45544 9.65298 6.00709 9.62221 7.5944L18.1539 7.75977L26.6857 7.92513C26.6587 9.31694 26.2678 10.6775 25.5518 11.8714L18.2336 7.4826ZM18.1539 7.75977L9.62221 7.5944C9.59144 9.1817 9.97679 10.7495 10.74 12.1417L18.2228 8.0398L25.7056 3.93791C26.3748 5.15868 26.7127 6.53334 26.6857 7.92513L18.1539 7.75977ZM18.2228 8.0398L10.6382 11.9503C10.1967 11.0939 9.93804 10.155 9.87879 9.1933L18.396 8.6686L26.9132 8.14391C26.8269 6.74349 26.4503 5.37636 25.8074 4.12934L18.2228 8.0398ZM18.396 8.6686L9.92548 9.70229C9.69144 7.78441 10.1872 5.84868 11.3143 4.27945L18.2451 9.25757L25.1759 14.2357C26.5479 12.3256 27.1514 9.96939 26.8665 7.63492L18.396 8.6686ZM18.2451 9.25757L11.3143 4.27945C12.4415 2.71021 14.1175 1.62222 16.0097 1.23154L17.7352 9.5886L19.4607 17.9457C21.7639 17.4701 23.804 16.1458 25.1759 14.2357L18.2451 9.25757ZM17.7352 9.5886L16.4105 1.15872C17.5036 0.98694 18.6209 1.05206 19.6866 1.34963L17.3918 9.56859L15.0969 17.7876C16.3861 18.1475 17.7376 18.2263 19.0599 18.0185L17.7352 9.5886ZM17.3918 9.56859L19.6866 1.34963C20.7524 1.64721 21.7418 2.17032 22.5878 2.88353L17.0877 9.40781L11.5875 15.9321C12.6109 16.7948 13.8077 17.4276 15.0969 17.7876L17.3918 9.56859ZM17.0877 9.40781L22.5878 2.88353C23.4338 3.59676 24.1167 4.48343 24.5903 5.48352L16.8778 9.13528L9.16529 12.787C9.73809 13.9968 10.5641 15.0693 11.5875 15.9321L17.0877 9.40781ZM16.8778 9.13528L24.5903 5.48352C25.0638 6.48359 25.3169 7.57375 25.3325 8.6802L16.8 8.8002L8.26749 8.92021C8.28631 10.2586 8.5925 11.5773 9.16529 12.787L16.8778 9.13528ZM16.8 8.8002L25.3306 8.58574C25.3604 9.77138 25.0883 10.9451 24.5397 11.9966L16.974 8.0498L9.40825 4.10297C8.61834 5.61716 8.22642 7.30735 8.26934 9.01467L16.8 8.8002ZM16.974 8.0498L24.4448 12.1735C25.2104 10.7864 25.6009 9.2236 25.5777 7.6395L17.0452 7.76461L8.51282 7.88972C8.49252 6.50491 8.83385 5.13872 9.50315 3.92615L16.974 8.0498ZM17.0452 7.76461L25.5777 7.6395C25.5544 6.0554 25.1183 4.50472 24.3124 3.1407L16.9656 7.48162L9.61894 11.8225C8.91437 10.6301 8.53313 9.27452 8.51282 7.88972L17.0452 7.76461ZM16.9656 7.48162L24.3124 3.1407C23.5064 1.77671 22.3586 0.646578 20.9822 -0.138032L16.7562 7.27538L12.5302 14.6888C11.3269 14.0029 10.3235 13.0149 9.61894 11.8225L16.9656 7.48162ZM16.7562 7.27538L20.9822 -0.138032C19.6058 -0.922636 18.0485 -1.33457 16.4642 -1.33313L16.472 7.2002L16.4797 15.7335C15.0947 15.7348 13.7334 15.3747 12.5302 14.6888L16.7562 7.27538ZM16.472 7.2002V-1.33313H14.4V7.2002V15.7335H16.472V7.2002ZM14.4 7.2002H22.9333V5.4734H14.4H5.86664V7.2002H14.4ZM14.4 5.4734L11.7077 13.5709C12.5903 13.8643 13.5065 14.0446 14.4344 14.1073L15.01 5.5934L15.5855 -2.9205C16.0983 -2.88583 16.6046 -2.78624 17.0922 -2.6241L14.4 5.4734ZM15.01 5.5934L14.1173 14.0799C16.6742 14.3489 19.2379 13.6383 21.2915 12.0915L16.1575 5.27535L11.0235 -1.54077C12.4201 -2.59276 14.1638 -3.07603 15.9027 -2.8931L15.01 5.5934ZM16.1575 5.27535L21.2915 12.0915C23.3452 10.5446 24.7359 8.27663 25.1832 5.74484L16.78 4.2602L8.37679 2.77557C8.681 1.0537 9.6268 -0.488764 11.0235 -1.54077L16.1575 5.27535ZM16.78 4.2602L25.1999 5.64687C25.4389 4.1957 25.3591 2.70989 24.9662 1.29265L16.7431 3.57269L8.51999 5.85274C8.25112 4.88305 8.19654 3.86645 8.36007 2.87353L16.78 4.2602ZM16.7431 3.57269L24.9662 1.29265C24.5732 -0.124613 23.8764 -1.43934 22.9243 -2.56022L16.4207 2.96435L9.91706 8.48892C9.26559 7.722 8.78886 6.82245 8.51999 5.85274L16.7431 3.57269ZM16.4207 2.96435L22.9243 -2.56022C21.9721 -3.68111 20.7874 -4.58132 19.4523 -5.19831L15.8725 2.54781L12.2926 10.2939C11.3791 9.87177 10.5685 9.25584 9.91706 8.48892L16.4207 2.96435ZM15.8725 2.54781L19.4523 -5.19831C18.1173 -5.8153 16.6639 -6.13429 15.1932 -6.13313L15.2 2.4002L15.2067 10.9335C14.2005 10.9343 13.2061 10.7161 12.2926 10.2939L15.8725 2.54781ZM15.2 2.4002L15.2543 -6.13296C14.0528 -6.14061 12.8581 -5.95185 11.7175 -5.57414L14.4 2.5266L17.0825 10.6274C16.4578 10.8342 15.8036 10.9376 15.1457 10.9334L15.2 2.4002ZM14.4 2.5266H22.9333V0.800204H14.4H5.86664V2.5266H14.4ZM14.4 0.800204L13.9172 9.31987C13.8962 9.31868 13.8574 9.31597 13.8041 9.3099L14.77 0.831404L15.7359 -7.64709C15.4297 -7.68196 15.1437 -7.70467 14.8828 -7.71946L14.4 0.800204ZM14.77 0.831404L13.7301 9.30114C13.3587 9.25554 13.014 9.08453 12.7531 8.81639L18.8686 2.86502L24.984 -3.08634C22.5337 -5.60426 19.2971 -7.21016 15.8099 -7.63833L14.77 0.831404ZM18.8686 2.86502L12.7531 8.81639C12.4922 8.54825 12.3306 8.19906 12.2951 7.8266L20.79 7.0174L29.2849 6.20821C28.9517 2.71061 27.4344 -0.56842 24.984 -3.08634L18.8686 2.86502ZM20.79 7.0174L12.2753 7.58129C12.2761 7.59375 12.2769 7.60517 12.2774 7.61317C12.2781 7.62248 12.2783 7.62682 12.2787 7.63167C12.2793 7.6407 12.279 7.6373 12.2785 7.62878C12.2775 7.61154 12.274 7.55339 12.2714 7.47317L20.8004 7.1998L29.3293 6.92644C29.3248 6.78382 29.3181 6.66467 29.3133 6.58693C29.311 6.54815 29.3088 6.51463 29.3073 6.49356C29.3051 6.45981 29.3057 6.4695 29.3047 6.45352L20.79 7.0174ZM20.8004 7.1998L20.7987 -1.33353L18.7263 -1.33313L18.728 7.2002L18.7296 15.7335L20.802 15.7331L20.8004 7.1998Z" fill="#150A02" mask="url(#path-1-inside-1_3279_9542)"/>
<path d="M16.872 11.2004H14.728C14.6282 11.2006 14.5301 11.2268 14.4435 11.2763C14.3568 11.3258 14.2845 11.3969 14.2336 11.4828C14.1834 11.5661 14.1558 11.6611 14.1537 11.7584C14.1516 11.8556 14.175 11.9517 14.2216 12.0372C14.323 12.2333 14.3824 12.4484 14.396 12.6688C14.4213 12.877 14.3674 13.0872 14.245 13.2576C14.1226 13.4281 13.9406 13.5462 13.7352 13.5888C13.6207 13.6064 13.5037 13.5994 13.3921 13.568C13.2805 13.5367 13.177 13.4819 13.0884 13.4072C12.9998 13.3325 12.9282 13.2397 12.8784 13.135C12.8287 13.0303 12.8019 12.9162 12.8 12.8004C12.7937 12.5394 12.8535 12.2811 12.974 12.0496C13.0223 11.9624 13.047 11.864 13.0456 11.7644C13.0442 11.6647 13.0168 11.5671 12.966 11.4813C12.9153 11.3955 12.843 11.3244 12.7564 11.2751C12.6697 11.2258 12.5717 11.2001 12.472 11.2004H10.4V9.47316C10.5973 9.53877 10.8021 9.57909 11.0096 9.59316C11.3296 9.63087 11.6536 9.5713 11.9392 9.42221C12.2249 9.27312 12.459 9.04143 12.6111 8.75734C12.7631 8.47324 12.8261 8.14993 12.7917 7.82953C12.7573 7.50914 12.6272 7.20654 12.4184 6.96116C12.268 6.78508 12.0811 6.64375 11.8708 6.54693C11.6604 6.4501 11.4316 6.4001 11.2 6.40036C10.9282 6.39863 10.658 6.44119 10.4 6.52636V4.72876C10.3998 4.63093 10.3798 4.53416 10.3412 4.44425C10.3026 4.35434 10.2463 4.27315 10.1756 4.20556C10.1061 4.13941 10.0241 4.08788 9.93438 4.054C9.84464 4.02013 9.74902 4.00461 9.65318 4.00836C8.20071 4.07516 6.79788 4.55722 5.61114 5.39733C4.4244 6.23744 3.50356 7.40035 2.95787 8.74808C2.41219 10.0958 2.26456 11.5718 2.53251 13.0009C2.80046 14.43 3.47274 15.7522 4.46958 16.8108C5.04105 17.4103 5.41854 18.1682 5.55278 18.9856C5.59181 19.2323 5.70608 19.461 5.87998 19.6404C5.75438 19.7896 5.66754 19.9676 5.62716 20.1585C5.58679 20.3494 5.59412 20.5472 5.64852 20.7346C5.70291 20.922 5.80269 21.093 5.93901 21.2326C6.07532 21.3722 6.24396 21.476 6.42998 21.5348C6.64238 22.9204 8.15998 24.0004 9.99998 24.0004C11.84 24.0004 13.3576 22.9204 13.5716 21.5356C13.7578 21.4769 13.9266 21.3731 14.0631 21.2335C14.1995 21.0939 14.2994 20.9227 14.3539 20.7352C14.4083 20.5477 14.4156 20.3497 14.3752 20.1587C14.3347 19.9677 14.2478 19.7897 14.122 19.6404C14.2947 19.4627 14.4081 19.2359 14.4468 18.9912C14.5888 18.1601 14.9751 17.3902 15.5564 16.7796C16.7882 15.4622 17.5099 13.7488 17.592 11.9472C17.5967 11.8513 17.5817 11.7554 17.5478 11.6655C17.514 11.5757 17.462 11.4937 17.3952 11.4248C17.3276 11.354 17.2464 11.2977 17.1565 11.2591C17.0666 11.2206 16.9698 11.2006 16.872 11.2004ZM9.59998 4.81196V6.87236C9.5997 6.97197 9.62544 7.06993 9.67464 7.15653C9.72385 7.24314 9.79482 7.3154 9.88053 7.36615C9.96624 7.41691 10.0637 7.4444 10.1633 7.44591C10.2629 7.44742 10.3612 7.42289 10.4484 7.37476C10.6802 7.25409 10.9387 7.19409 11.2 7.20036C11.3166 7.20009 11.4319 7.22533 11.5377 7.27429C11.6436 7.32326 11.7374 7.39477 11.8127 7.48383C11.888 7.57288 11.9429 7.67732 11.9736 7.78983C12.0043 7.90235 12.01 8.02021 11.9904 8.13516C11.9472 8.34083 11.8284 8.52283 11.6576 8.64524C11.4867 8.76765 11.2762 8.82157 11.0676 8.79636C10.8506 8.78321 10.6387 8.72533 10.4452 8.62636C10.3591 8.57784 10.2616 8.55298 10.1628 8.55432C10.0639 8.55565 9.96717 8.58313 9.88238 8.63396C9.79654 8.68487 9.72538 8.75719 9.67588 8.84386C9.62637 8.93052 9.60022 9.02856 9.59998 9.12836V11.2004H7.87278C7.94034 10.9976 7.98148 10.7869 7.99518 10.5736C8.03111 10.169 7.91521 9.76548 7.67003 9.44163C7.42485 9.11779 7.06795 8.89676 6.66878 8.82156C6.4391 8.78242 6.20364 8.79391 5.97886 8.85524C5.75408 8.91656 5.54541 9.02624 5.36743 9.1766C5.18944 9.32696 5.04645 9.51438 4.94844 9.72576C4.85042 9.93713 4.79976 10.1674 4.79998 10.4004C4.79825 10.6721 4.84081 10.9423 4.92598 11.2004H3.21918C3.31228 9.53764 4.01421 7.96737 5.19108 6.78911C6.36794 5.61084 7.93737 4.90704 9.59998 4.81196ZM5.05118 16.2616C3.95635 15.1021 3.30722 13.5926 3.21878 12.0004H5.27198C5.37159 12.0006 5.46955 11.9749 5.55616 11.9257C5.64276 11.8765 5.71502 11.8055 5.76578 11.7198C5.81653 11.6341 5.84402 11.5366 5.84553 11.437C5.84704 11.3374 5.82252 11.2392 5.77438 11.152C5.65366 10.9202 5.59366 10.6616 5.59998 10.4004C5.60215 10.2842 5.62916 10.1698 5.67919 10.0649C5.72922 9.96007 5.80111 9.86711 5.89003 9.79232C5.97896 9.71753 6.08286 9.66263 6.19475 9.63132C6.30665 9.6 6.42395 9.59299 6.53878 9.61076C6.74135 9.65451 6.92059 9.77159 7.04205 9.9395C7.16352 10.1074 7.21862 10.3143 7.19678 10.5204C7.18409 10.7411 7.12594 10.9568 7.02598 11.154C6.97746 11.2401 6.9526 11.3375 6.95394 11.4364C6.95527 11.5352 6.98275 11.632 7.03358 11.7168C7.08434 11.8028 7.1566 11.8742 7.24328 11.9239C7.32995 11.9737 7.42806 12 7.52798 12.0004H9.59998V13.7264C9.34193 13.6412 9.07172 13.5986 8.79998 13.6004C8.56698 13.6002 8.33676 13.6509 8.12539 13.749C7.91403 13.847 7.72664 13.9901 7.57631 14.1681C7.42599 14.3461 7.31636 14.5548 7.25509 14.7796C7.19381 15.0044 7.18238 15.2399 7.22158 15.4696C7.2973 15.8687 7.51865 16.2254 7.84264 16.4704C8.16663 16.7155 8.57014 16.8314 8.97478 16.7956C9.18761 16.7818 9.39776 16.7405 9.59998 16.6728V19.2004H6.70798C6.61617 19.1978 6.52845 19.1619 6.46122 19.0993C6.394 19.0367 6.35189 18.9518 6.34278 18.8604C6.1837 17.8838 5.73353 16.978 5.05118 16.2616ZM9.99998 23.2004C8.64798 23.2004 7.51678 22.512 7.25638 21.6004H12.7436C12.4832 22.512 11.352 23.2004 9.99998 23.2004ZM13.2 20.8004H6.79998C6.6939 20.8004 6.59215 20.7582 6.51714 20.6832C6.44213 20.6082 6.39998 20.5064 6.39998 20.4004C6.39998 20.2943 6.44213 20.1925 6.51714 20.1175C6.59215 20.0425 6.6939 20.0004 6.79998 20.0004H13.2C13.3061 20.0004 13.4078 20.0425 13.4828 20.1175C13.5578 20.1925 13.6 20.2943 13.6 20.4004C13.6 20.5064 13.5578 20.6082 13.4828 20.6832C13.4078 20.7582 13.3061 20.8004 13.2 20.8004ZM14.972 16.2352C14.2821 16.9622 13.8243 17.8782 13.6568 18.8664C13.6459 18.9564 13.6032 19.0397 13.5362 19.1009C13.4693 19.1622 13.3827 19.1975 13.292 19.2004H10.4V16.3284C10.3997 16.2286 10.3736 16.1305 10.3241 16.0439C10.2746 15.9572 10.2034 15.8849 10.1176 15.834C10.0343 15.7837 9.93925 15.7562 9.84198 15.7541C9.74472 15.752 9.6486 15.7754 9.56318 15.822C9.36429 15.9241 9.14635 15.9837 8.92318 15.9972C8.71671 16.0197 8.50919 15.965 8.34069 15.8436C8.17219 15.7221 8.05465 15.5426 8.01078 15.3396C7.99289 15.2247 7.99979 15.1074 8.03103 14.9954C8.06226 14.8835 8.11711 14.7795 8.19188 14.6906C8.26665 14.6016 8.3596 14.5296 8.4645 14.4796C8.56939 14.4295 8.68378 14.4025 8.79998 14.4004C9.06092 14.3941 9.31921 14.4539 9.55078 14.5744C9.63799 14.6227 9.7363 14.6474 9.83598 14.646C9.93566 14.6446 10.0332 14.6171 10.1191 14.5664C10.2049 14.5157 10.276 14.4434 10.3252 14.3567C10.3745 14.2701 10.4003 14.1721 10.4 14.0724V12.0004H12.126C12.0408 12.2584 11.9983 12.5286 12 12.8004C12 13.0187 12.0448 13.2348 12.1314 13.4353C12.218 13.6358 12.3446 13.8165 12.5036 13.9662C12.6625 14.116 12.8504 14.2316 13.0557 14.3062C13.261 14.3807 13.4793 14.4124 13.6973 14.3995C13.9154 14.3865 14.1284 14.3292 14.3234 14.2309C14.5185 14.1326 14.6914 13.9955 14.8315 13.828C14.9716 13.6605 15.076 13.4661 15.1383 13.2568C15.2005 13.0475 15.2194 12.8276 15.1936 12.6108C15.1797 12.403 15.1394 12.1979 15.0736 12.0004H16.7896C16.6962 13.5808 16.0533 15.0788 14.972 16.2352Z" fill="#150A02"/>
</g>
<defs>
<clipPath id="clip0_3279_9542">
<rect width="24" height="24" fill="white"/>
</clipPath>
</defs>
</svg>
