<svg width="16" height="16" viewBox="0 0 16 16" fill="none" xmlns="http://www.w3.org/2000/svg">
<path fill-rule="evenodd" clip-rule="evenodd" d="M13.5 2.66683V14.0442C13.5 14.3515 13.3307 14.6335 13.06 14.7788C12.7887 14.9235 12.46 14.9082 12.2047 14.7375L8.462 12.2428C8.18267 12.0562 7.81733 12.0562 7.538 12.2428L3.79533 14.7375C3.54 14.9082 3.21133 14.9235 2.94 14.7788C2.66933 14.6335 2.5 14.3515 2.5 14.0442V2.66683C2.5 2.18083 2.69333 1.71416 3.03667 1.37016C3.38067 1.02683 3.84733 0.833496 4.33333 0.833496H11.6667C12.1527 0.833496 12.6193 1.02683 12.9633 1.37016C13.3067 1.71416 13.5 2.18083 13.5 2.66683ZM3.5 13.7328L6.98333 11.4108C7.59867 11.0002 8.40133 11.0002 9.01667 11.4108L12.5 13.7328V2.66683C12.5 2.4455 12.412 2.23416 12.256 2.0775C12.0993 1.9215 11.888 1.8335 11.6667 1.8335H4.33333C4.112 1.8335 3.90067 1.9215 3.744 2.0775C3.588 2.23416 3.5 2.4455 3.5 2.66683V13.7328Z" fill="#150A02"/>
</svg>
