<svg width="24" height="24" viewBox="0 0 24 24" fill="none" xmlns="http://www.w3.org/2000/svg">
<path d="M19.8232 19.8232C19.9209 19.7256 20.0791 19.7256 20.1768 19.8232L22.1768 21.8232C22.2744 21.9209 22.2744 22.0791 22.1768 22.1768C22.0791 22.2744 21.9209 22.2744 21.8232 22.1768L19.8232 20.1768C19.7256 20.0791 19.7256 19.9209 19.8232 19.8232ZM11.5 1.75C16.8848 1.75 21.25 6.11522 21.25 11.5C21.25 16.8848 16.8848 21.25 11.5 21.25C6.11522 21.25 1.75 16.8848 1.75 11.5C1.75 6.11522 6.11522 1.75 11.5 1.75ZM11.5 2.25C6.39137 2.25 2.25 6.39137 2.25 11.5C2.25 16.6086 6.39137 20.75 11.5 20.75C16.6086 20.75 20.75 16.6086 20.75 11.5C20.75 6.39137 16.6086 2.25 11.5 2.25Z" fill="#656565" stroke="#656565"/>
</svg>
