<svg width="263" height="82" viewBox="0 0 263 82" fill="none" xmlns="http://www.w3.org/2000/svg">
<g filter="url(#filter0_d_395_14316)">
<rect x="16" y="17" width="230" height="48" rx="24" fill="white" fill-opacity="0.56" shape-rendering="crispEdges"/>
<path d="M44 35.745C43.4783 35.745 42.9684 35.5903 42.5346 35.3005C42.1009 35.0106 41.7628 34.5987 41.5631 34.1167C41.3635 33.6348 41.3113 33.1044 41.413 32.5928C41.5148 32.0811 41.766 31.6112 42.1349 31.2423C42.5038 30.8734 42.9738 30.6222 43.4854 30.5204C43.9971 30.4186 44.5274 30.4709 45.0094 30.6705C45.4913 30.8701 45.9033 31.2082 46.1931 31.642C46.4829 32.0757 46.6376 32.5857 46.6376 33.1074C46.6368 33.8067 46.3587 34.4771 45.8642 34.9716C45.3697 35.4661 44.6993 35.7442 44 35.745ZM44 31.2197C43.6267 31.2197 43.2617 31.3305 42.9513 31.5379C42.6409 31.7453 42.3989 32.0401 42.2561 32.385C42.1132 32.7299 42.0758 33.1095 42.1486 33.4756C42.2215 33.8418 42.4013 34.1781 42.6652 34.4421C42.9292 34.7061 43.2656 34.8859 43.6317 34.9587C43.9979 35.0316 44.3774 34.9942 44.7224 34.8513C45.0673 34.7085 45.3621 34.4665 45.5695 34.1561C45.7769 33.8457 45.8876 33.4807 45.8876 33.1074C45.887 32.6069 45.688 32.1271 45.3341 31.7733C44.9802 31.4194 44.5005 31.2203 44 31.2197Z" fill="#150A02"/>
<path d="M49.8709 51.5303C49.8418 51.5303 49.8152 51.5302 49.7911 51.5298C49.2852 51.5228 45.5471 51.1363 42.7214 50.8045C42.2343 50.9561 41.7344 51.0861 41.2342 51.191C40.239 51.401 39.2259 51.5145 38.2089 51.5298C37.6735 51.5378 35.8489 51.4833 34.9377 50.4828C34.7503 50.2791 34.6102 50.0365 34.5275 49.7724C34.4447 49.5083 34.4214 49.2292 34.4591 48.955C34.4905 48.661 34.593 48.3791 34.7577 48.1336C34.5571 48.1271 34.3609 48.0729 34.1855 47.9754C34.01 47.8779 33.8604 47.7399 33.749 47.5729C33.5809 47.3222 33.5075 47.0198 33.542 46.7199C33.5766 46.42 33.7167 46.1422 33.9374 45.9363C35.113 44.8345 36.4452 43.5858 37.8433 42.3238C37.969 42.2107 38.0655 42.0688 38.1245 41.9102C38.3701 41.2422 38.6595 40.5096 39.0975 39.4009L39.5672 38.2103C39.8327 37.546 40.328 36.9991 40.9628 36.6693C41.8901 36.2152 42.8124 36.124 44 36.124C45.1876 36.124 46.1099 36.2152 47.0373 36.6693C47.6721 36.9992 48.1673 37.546 48.4328 38.2103L48.9025 39.4009C49.3405 40.5096 49.6299 41.2422 49.8755 41.9101C49.9344 42.0687 50.0309 42.2106 50.1567 42.3236C51.5547 43.5857 52.887 44.8345 54.0626 45.9363C54.2833 46.1422 54.4234 46.42 54.458 46.7199C54.4925 47.0198 54.4191 47.3222 54.251 47.5729C54.1395 47.7397 53.9899 47.8776 53.8145 47.9752C53.6391 48.0727 53.443 48.127 53.2424 48.1337C53.407 48.3792 53.5094 48.6609 53.5409 48.9548C53.5786 49.229 53.5553 49.5082 53.4725 49.7723C53.3898 50.0365 53.2497 50.2791 53.0622 50.4828C52.1921 51.4381 50.4898 51.5303 49.8709 51.5303ZM40.525 48.902C40.4152 48.902 40.3095 48.9437 40.2292 49.0186C40.1489 49.0934 40.1 49.1959 40.0923 49.3055C40.0846 49.415 40.1188 49.5233 40.1878 49.6087C40.2569 49.694 40.3557 49.75 40.4644 49.7654C42.918 50.1098 49.2335 50.7721 49.8013 50.7798C50.7421 50.7873 51.9512 50.5884 52.5078 49.9778C52.623 49.852 52.7086 49.702 52.7584 49.5388C52.8081 49.3757 52.8207 49.2035 52.7953 49.0348C52.725 48.3809 52.0358 47.9636 51.5234 47.7067C51.0502 47.4744 50.5512 47.2986 50.0368 47.183C49.2261 46.986 48.4371 46.7088 47.6813 46.3556C47.3 46.1809 46.9771 45.9 46.7512 45.5466C46.5253 45.1932 46.406 44.7823 46.4075 44.3628L46.424 41.1473C46.4244 41.0621 46.4538 40.9796 46.5073 40.9134C46.5609 40.8471 46.6354 40.801 46.7186 40.7828C46.8019 40.7646 46.8888 40.7752 46.9652 40.813C47.0415 40.8507 47.1028 40.9134 47.1388 40.9906L48.1926 43.249C48.282 43.4404 48.4215 43.6041 48.5963 43.7227L52.9443 47.3176C53.0518 47.3802 53.1787 47.4005 53.3003 47.3745C53.3665 47.3618 53.4295 47.336 53.4856 47.2986C53.5417 47.2612 53.5897 47.213 53.627 47.1568C53.6962 47.0537 53.7264 46.9293 53.7122 46.8059C53.698 46.6824 53.6403 46.5681 53.5495 46.4834C52.3765 45.3838 51.047 44.1378 49.6543 42.8804C49.4383 42.6858 49.2727 42.4417 49.1716 42.169C48.929 41.5093 48.641 40.7802 48.205 39.6764L47.7348 38.4849C47.5399 37.9937 47.1755 37.5885 46.7076 37.3427C45.9065 36.9507 45.1082 36.874 44 36.874C42.8918 36.874 42.0935 36.9507 41.2926 37.3427C40.8246 37.5884 40.4601 37.9936 40.2652 38.4849L39.795 39.6765C39.359 40.7802 39.071 41.5093 38.8284 42.1691C38.7273 42.4418 38.5617 42.6859 38.3457 42.8806C36.953 44.1378 35.6235 45.3838 34.4505 46.4834C34.3597 46.5681 34.302 46.6825 34.2878 46.8059C34.2736 46.9293 34.3038 47.0537 34.373 47.1569C34.4104 47.2129 34.4586 47.261 34.5146 47.2984C34.5707 47.3357 34.6336 47.3616 34.6997 47.3746C34.7659 47.3875 34.8339 47.3873 34.8999 47.3738C34.9659 47.3604 35.0286 47.334 35.0844 47.2962L39.3751 43.7441C39.5617 43.6215 39.7113 43.4503 39.8076 43.2488L40.8612 40.9906C40.8972 40.9134 40.9585 40.8507 41.0348 40.813C41.1112 40.7752 41.1982 40.7646 41.2814 40.7828C41.3646 40.8011 41.4391 40.8471 41.4927 40.9134C41.5462 40.9796 41.5756 41.0621 41.576 41.1473L41.5925 44.363C41.594 44.7824 41.4746 45.1934 41.2487 45.5467C41.0228 45.9001 40.6999 46.1809 40.3187 46.3556C39.5629 46.7088 38.7738 46.986 37.9632 47.183C37.4488 47.2986 36.9498 47.4744 36.4765 47.7067C35.9642 47.9636 35.275 48.3809 35.2047 49.035C35.1793 49.2036 35.1919 49.3758 35.2416 49.5389C35.2914 49.7021 35.377 49.852 35.4922 49.9778C36.0486 50.5886 37.254 50.793 38.1987 50.7798C39.0136 50.7678 39.8263 50.6892 40.6285 50.5449C40.5342 50.5322 40.4448 50.52 40.3602 50.5081C40.0496 50.464 39.7691 50.2986 39.5803 50.0481C39.3914 49.7976 39.3096 49.4825 39.3528 49.1718C39.397 48.8877 39.5413 48.6288 39.7596 48.4418C39.978 48.2549 40.256 48.1522 40.5435 48.1522L48.017 48.2674C48.1164 48.269 48.2111 48.31 48.2804 48.3814C48.3496 48.4528 48.3876 48.5488 48.3861 48.6483C48.3866 48.6979 48.377 48.7471 48.3579 48.7929C48.3388 48.8387 48.3106 48.8801 48.2749 48.9146C48.2393 48.9492 48.197 48.9761 48.1507 48.9937C48.1043 49.0114 48.0548 49.0195 48.0052 49.0174L40.5318 48.9022L40.525 48.902ZM47.1653 42.8213L47.1575 44.3669C47.1566 44.642 47.2349 44.9115 47.3831 45.1433C47.5314 45.375 47.7432 45.5592 47.9933 45.6737C48.7095 46.0082 49.4571 46.2706 50.2252 46.457C50.4806 46.5233 50.7289 46.5878 50.9937 46.6758L48.147 44.322C47.8719 44.1313 47.653 43.8704 47.5131 43.5663L47.1653 42.8213ZM40.8346 42.8215L40.4871 43.5662C40.3404 43.8803 40.1114 44.1489 39.8245 44.3434L37.0077 46.6753C37.272 46.5874 37.5199 46.5231 37.7748 46.457C38.5429 46.2706 39.2905 46.0082 40.0066 45.6737C40.2568 45.5592 40.4686 45.375 40.6168 45.1433C40.7651 44.9115 40.8434 44.642 40.8425 44.3669L40.8346 42.8215Z" fill="#150A02"/>
<path d="M70.0055 47.108C69.0695 47.108 68.1695 46.958 67.3055 46.658C66.4535 46.358 65.7935 45.962 65.3255 45.47L65.8475 44.444C66.3035 44.9 66.9095 45.272 67.6655 45.56C68.4215 45.836 69.2015 45.974 70.0055 45.974C71.1335 45.974 71.9795 45.77 72.5435 45.362C73.1075 44.942 73.3895 44.402 73.3895 43.742C73.3895 43.238 73.2335 42.836 72.9215 42.536C72.6215 42.236 72.2495 42.008 71.8055 41.852C71.3615 41.684 70.7435 41.504 69.9515 41.312C69.0035 41.072 68.2475 40.844 67.6835 40.628C67.1195 40.4 66.6335 40.058 66.2255 39.602C65.8295 39.146 65.6315 38.528 65.6315 37.748C65.6315 37.112 65.7995 36.536 66.1355 36.02C66.4715 35.492 66.9875 35.072 67.6835 34.76C68.3795 34.448 69.2435 34.292 70.2755 34.292C70.9955 34.292 71.6975 34.394 72.3815 34.598C73.0775 34.79 73.6775 35.06 74.1815 35.408L73.7315 36.47C73.2035 36.122 72.6395 35.864 72.0395 35.696C71.4395 35.516 70.8515 35.426 70.2755 35.426C69.1715 35.426 68.3375 35.642 67.7735 36.074C67.2215 36.494 66.9455 37.04 66.9455 37.712C66.9455 38.216 67.0955 38.624 67.3955 38.936C67.7075 39.236 68.0915 39.47 68.5475 39.638C69.0155 39.794 69.6395 39.968 70.4195 40.16C71.3435 40.388 72.0875 40.616 72.6515 40.844C73.2275 41.06 73.7135 41.396 74.1095 41.852C74.5055 42.296 74.7035 42.902 74.7035 43.67C74.7035 44.306 74.5295 44.888 74.1815 45.416C73.8455 45.932 73.3235 46.346 72.6155 46.658C71.9075 46.958 71.0375 47.108 70.0055 47.108ZM85.5797 42.662H77.6597C77.7317 43.646 78.1097 44.444 78.7937 45.056C79.4777 45.656 80.3417 45.956 81.3857 45.956C81.9737 45.956 82.5137 45.854 83.0057 45.65C83.4977 45.434 83.9237 45.122 84.2837 44.714L85.0037 45.542C84.5837 46.046 84.0557 46.43 83.4197 46.694C82.7957 46.958 82.1057 47.09 81.3497 47.09C80.3777 47.09 79.5137 46.886 78.7577 46.478C78.0137 46.058 77.4317 45.482 77.0117 44.75C76.5917 44.018 76.3817 43.19 76.3817 42.266C76.3817 41.342 76.5797 40.514 76.9757 39.782C77.3837 39.05 77.9357 38.48 78.6317 38.072C79.3397 37.664 80.1317 37.46 81.0077 37.46C81.8837 37.46 82.6697 37.664 83.3657 38.072C84.0617 38.48 84.6077 39.05 85.0037 39.782C85.3997 40.502 85.5977 41.33 85.5977 42.266L85.5797 42.662ZM81.0077 38.558C80.0957 38.558 79.3277 38.852 78.7037 39.44C78.0917 40.016 77.7437 40.772 77.6597 41.708H84.3737C84.2897 40.772 83.9357 40.016 83.3117 39.44C82.6997 38.852 81.9317 38.558 81.0077 38.558ZM88.199 33.644H89.477V47H88.199V33.644ZM96.165 34.634C95.613 34.634 95.193 34.784 94.905 35.084C94.629 35.384 94.491 35.828 94.491 36.416V37.532H97.407V38.612H94.527V47H93.249V38.612H91.557V37.532H93.249V36.362C93.249 35.498 93.495 34.814 93.987 34.31C94.491 33.806 95.199 33.554 96.111 33.554C96.471 33.554 96.819 33.608 97.155 33.716C97.491 33.812 97.773 33.956 98.001 34.148L97.569 35.102C97.197 34.79 96.729 34.634 96.165 34.634ZM98.2548 41.564H102.971V42.68H98.2548V41.564ZM109.93 47.09C108.994 47.09 108.154 46.886 107.41 46.478C106.678 46.07 106.102 45.5 105.682 44.768C105.262 44.024 105.052 43.19 105.052 42.266C105.052 41.342 105.262 40.514 105.682 39.782C106.102 39.05 106.678 38.48 107.41 38.072C108.154 37.664 108.994 37.46 109.93 37.46C110.746 37.46 111.472 37.622 112.108 37.946C112.756 38.258 113.266 38.72 113.638 39.332L112.684 39.98C112.372 39.512 111.976 39.164 111.496 38.936C111.016 38.696 110.494 38.576 109.93 38.576C109.246 38.576 108.628 38.732 108.076 39.044C107.536 39.344 107.11 39.776 106.798 40.34C106.498 40.904 106.348 41.546 106.348 42.266C106.348 42.998 106.498 43.646 106.798 44.21C107.11 44.762 107.536 45.194 108.076 45.506C108.628 45.806 109.246 45.956 109.93 45.956C110.494 45.956 111.016 45.842 111.496 45.614C111.976 45.386 112.372 45.038 112.684 44.57L113.638 45.218C113.266 45.83 112.756 46.298 112.108 46.622C111.46 46.934 110.734 47.09 109.93 47.09ZM119.46 37.46C120.696 37.46 121.644 37.772 122.304 38.396C122.964 39.008 123.294 39.92 123.294 41.132V47H122.07V45.524C121.782 46.016 121.356 46.4 120.792 46.676C120.24 46.952 119.58 47.09 118.812 47.09C117.756 47.09 116.916 46.838 116.292 46.334C115.668 45.83 115.356 45.164 115.356 44.336C115.356 43.532 115.644 42.884 116.22 42.392C116.808 41.9 117.738 41.654 119.01 41.654H122.016V41.078C122.016 40.262 121.788 39.644 121.332 39.224C120.876 38.792 120.21 38.576 119.334 38.576C118.734 38.576 118.158 38.678 117.606 38.882C117.054 39.074 116.58 39.344 116.184 39.692L115.608 38.738C116.088 38.33 116.664 38.018 117.336 37.802C118.008 37.574 118.716 37.46 119.46 37.46ZM119.01 46.082C119.73 46.082 120.348 45.92 120.864 45.596C121.38 45.26 121.764 44.78 122.016 44.156V42.608H119.046C117.426 42.608 116.616 43.172 116.616 44.3C116.616 44.852 116.826 45.29 117.246 45.614C117.666 45.926 118.254 46.082 119.01 46.082ZM127.989 39.386C128.289 38.75 128.733 38.27 129.321 37.946C129.921 37.622 130.659 37.46 131.535 37.46V38.702L131.229 38.684C130.233 38.684 129.453 38.99 128.889 39.602C128.325 40.214 128.043 41.072 128.043 42.176V47H126.765V37.532H127.989V39.386ZM142.005 42.662H134.085C134.157 43.646 134.535 44.444 135.219 45.056C135.903 45.656 136.767 45.956 137.811 45.956C138.399 45.956 138.939 45.854 139.431 45.65C139.923 45.434 140.349 45.122 140.709 44.714L141.429 45.542C141.009 46.046 140.481 46.43 139.845 46.694C139.221 46.958 138.531 47.09 137.775 47.09C136.803 47.09 135.939 46.886 135.183 46.478C134.439 46.058 133.857 45.482 133.437 44.75C133.017 44.018 132.807 43.19 132.807 42.266C132.807 41.342 133.005 40.514 133.401 39.782C133.809 39.05 134.361 38.48 135.057 38.072C135.765 37.664 136.557 37.46 137.433 37.46C138.309 37.46 139.095 37.664 139.791 38.072C140.487 38.48 141.033 39.05 141.429 39.782C141.825 40.502 142.023 41.33 142.023 42.266L142.005 42.662ZM137.433 38.558C136.521 38.558 135.753 38.852 135.129 39.44C134.517 40.016 134.169 40.772 134.085 41.708H140.799C140.715 40.772 140.361 40.016 139.737 39.44C139.125 38.852 138.357 38.558 137.433 38.558ZM154.214 37.46C155.102 37.46 155.906 37.664 156.626 38.072C157.346 38.468 157.91 39.032 158.318 39.764C158.726 40.496 158.93 41.33 158.93 42.266C158.93 43.214 158.726 44.054 158.318 44.786C157.91 45.518 157.346 46.088 156.626 46.496C155.918 46.892 155.114 47.09 154.214 47.09C153.446 47.09 152.75 46.934 152.126 46.622C151.514 46.298 151.01 45.83 150.614 45.218V50.492H149.336V37.532H150.56V39.404C150.944 38.78 151.448 38.3 152.072 37.964C152.708 37.628 153.422 37.46 154.214 37.46ZM154.124 45.956C154.784 45.956 155.384 45.806 155.924 45.506C156.464 45.194 156.884 44.756 157.184 44.192C157.496 43.628 157.652 42.986 157.652 42.266C157.652 41.546 157.496 40.91 157.184 40.358C156.884 39.794 156.464 39.356 155.924 39.044C155.384 38.732 154.784 38.576 154.124 38.576C153.452 38.576 152.846 38.732 152.306 39.044C151.778 39.356 151.358 39.794 151.046 40.358C150.746 40.91 150.596 41.546 150.596 42.266C150.596 42.986 150.746 43.628 151.046 44.192C151.358 44.756 151.778 45.194 152.306 45.506C152.846 45.806 153.452 45.956 154.124 45.956ZM162.759 39.386C163.059 38.75 163.503 38.27 164.091 37.946C164.691 37.622 165.429 37.46 166.305 37.46V38.702L165.999 38.684C165.003 38.684 164.223 38.99 163.659 39.602C163.095 40.214 162.813 41.072 162.813 42.176V47H161.535V37.532H162.759V39.386ZM171.913 37.46C173.149 37.46 174.097 37.772 174.757 38.396C175.417 39.008 175.747 39.92 175.747 41.132V47H174.523V45.524C174.235 46.016 173.809 46.4 173.245 46.676C172.693 46.952 172.033 47.09 171.265 47.09C170.209 47.09 169.369 46.838 168.745 46.334C168.121 45.83 167.809 45.164 167.809 44.336C167.809 43.532 168.097 42.884 168.673 42.392C169.261 41.9 170.191 41.654 171.463 41.654H174.469V41.078C174.469 40.262 174.241 39.644 173.785 39.224C173.329 38.792 172.663 38.576 171.787 38.576C171.187 38.576 170.611 38.678 170.059 38.882C169.507 39.074 169.033 39.344 168.637 39.692L168.061 38.738C168.541 38.33 169.117 38.018 169.789 37.802C170.461 37.574 171.169 37.46 171.913 37.46ZM171.463 46.082C172.183 46.082 172.801 45.92 173.317 45.596C173.833 45.26 174.217 44.78 174.469 44.156V42.608H171.499C169.879 42.608 169.069 43.172 169.069 44.3C169.069 44.852 169.279 45.29 169.699 45.614C170.119 45.926 170.707 46.082 171.463 46.082ZM183.178 47.09C182.242 47.09 181.402 46.886 180.658 46.478C179.926 46.07 179.35 45.5 178.93 44.768C178.51 44.024 178.3 43.19 178.3 42.266C178.3 41.342 178.51 40.514 178.93 39.782C179.35 39.05 179.926 38.48 180.658 38.072C181.402 37.664 182.242 37.46 183.178 37.46C183.994 37.46 184.72 37.622 185.356 37.946C186.004 38.258 186.514 38.72 186.886 39.332L185.932 39.98C185.62 39.512 185.224 39.164 184.744 38.936C184.264 38.696 183.742 38.576 183.178 38.576C182.494 38.576 181.876 38.732 181.324 39.044C180.784 39.344 180.358 39.776 180.046 40.34C179.746 40.904 179.596 41.546 179.596 42.266C179.596 42.998 179.746 43.646 180.046 44.21C180.358 44.762 180.784 45.194 181.324 45.506C181.876 45.806 182.494 45.956 183.178 45.956C183.742 45.956 184.264 45.842 184.744 45.614C185.224 45.386 185.62 45.038 185.932 44.57L186.886 45.218C186.514 45.83 186.004 46.298 185.356 46.622C184.708 46.934 183.982 47.09 183.178 47.09ZM194.488 46.424C194.248 46.64 193.948 46.808 193.588 46.928C193.24 47.036 192.874 47.09 192.49 47.09C191.602 47.09 190.918 46.85 190.438 46.37C189.958 45.89 189.718 45.212 189.718 44.336V38.612H188.026V37.532H189.718V35.462H190.996V37.532H193.876V38.612H190.996V44.264C190.996 44.828 191.134 45.26 191.41 45.56C191.698 45.848 192.106 45.992 192.634 45.992C192.898 45.992 193.15 45.95 193.39 45.866C193.642 45.782 193.858 45.662 194.038 45.506L194.488 46.424ZM196.814 37.532H198.092V47H196.814V37.532ZM197.462 35.462C197.198 35.462 196.976 35.372 196.796 35.192C196.616 35.012 196.526 34.796 196.526 34.544C196.526 34.304 196.616 34.094 196.796 33.914C196.976 33.734 197.198 33.644 197.462 33.644C197.726 33.644 197.948 33.734 198.128 33.914C198.308 34.082 198.398 34.286 198.398 34.526C198.398 34.79 198.308 35.012 198.128 35.192C197.948 35.372 197.726 35.462 197.462 35.462ZM205.572 47.09C204.636 47.09 203.796 46.886 203.052 46.478C202.32 46.07 201.744 45.5 201.324 44.768C200.904 44.024 200.694 43.19 200.694 42.266C200.694 41.342 200.904 40.514 201.324 39.782C201.744 39.05 202.32 38.48 203.052 38.072C203.796 37.664 204.636 37.46 205.572 37.46C206.388 37.46 207.114 37.622 207.75 37.946C208.398 38.258 208.908 38.72 209.28 39.332L208.326 39.98C208.014 39.512 207.618 39.164 207.138 38.936C206.658 38.696 206.136 38.576 205.572 38.576C204.888 38.576 204.27 38.732 203.718 39.044C203.178 39.344 202.752 39.776 202.44 40.34C202.14 40.904 201.99 41.546 201.99 42.266C201.99 42.998 202.14 43.646 202.44 44.21C202.752 44.762 203.178 45.194 203.718 45.506C204.27 45.806 204.888 45.956 205.572 45.956C206.136 45.956 206.658 45.842 207.138 45.614C207.618 45.386 208.014 45.038 208.326 44.57L209.28 45.218C208.908 45.83 208.398 46.298 207.75 46.622C207.102 46.934 206.376 47.09 205.572 47.09ZM219.877 42.662H211.957C212.029 43.646 212.407 44.444 213.091 45.056C213.775 45.656 214.639 45.956 215.683 45.956C216.271 45.956 216.811 45.854 217.303 45.65C217.795 45.434 218.221 45.122 218.581 44.714L219.301 45.542C218.881 46.046 218.353 46.43 217.717 46.694C217.093 46.958 216.403 47.09 215.647 47.09C214.675 47.09 213.811 46.886 213.055 46.478C212.311 46.058 211.729 45.482 211.309 44.75C210.889 44.018 210.679 43.19 210.679 42.266C210.679 41.342 210.877 40.514 211.273 39.782C211.681 39.05 212.233 38.48 212.929 38.072C213.637 37.664 214.429 37.46 215.305 37.46C216.181 37.46 216.967 37.664 217.663 38.072C218.359 38.48 218.905 39.05 219.301 39.782C219.697 40.502 219.895 41.33 219.895 42.266L219.877 42.662ZM215.305 38.558C214.393 38.558 213.625 38.852 213.001 39.44C212.389 40.016 212.041 40.772 211.957 41.708H218.671C218.587 40.772 218.233 40.016 217.609 39.44C216.997 38.852 216.229 38.558 215.305 38.558ZM225.034 47.09C224.266 47.09 223.528 46.982 222.82 46.766C222.124 46.538 221.578 46.256 221.182 45.92L221.758 44.912C222.154 45.224 222.652 45.482 223.252 45.686C223.852 45.878 224.476 45.974 225.124 45.974C225.988 45.974 226.624 45.842 227.032 45.578C227.452 45.302 227.662 44.918 227.662 44.426C227.662 44.078 227.548 43.808 227.32 43.616C227.092 43.412 226.804 43.262 226.456 43.166C226.108 43.058 225.646 42.956 225.07 42.86C224.302 42.716 223.684 42.572 223.216 42.428C222.748 42.272 222.346 42.014 222.01 41.654C221.686 41.294 221.524 40.796 221.524 40.16C221.524 39.368 221.854 38.72 222.514 38.216C223.174 37.712 224.092 37.46 225.268 37.46C225.88 37.46 226.492 37.544 227.104 37.712C227.716 37.868 228.22 38.078 228.616 38.342L228.058 39.368C227.278 38.828 226.348 38.558 225.268 38.558C224.452 38.558 223.834 38.702 223.414 38.99C223.006 39.278 222.802 39.656 222.802 40.124C222.802 40.484 222.916 40.772 223.144 40.988C223.384 41.204 223.678 41.366 224.026 41.474C224.374 41.57 224.854 41.672 225.466 41.78C226.222 41.924 226.828 42.068 227.284 42.212C227.74 42.356 228.13 42.602 228.454 42.95C228.778 43.298 228.94 43.778 228.94 44.39C228.94 45.218 228.592 45.878 227.896 46.37C227.212 46.85 226.258 47.09 225.034 47.09Z" fill="#150A02"/>
</g>
<defs>
<filter id="filter0_d_395_14316" x="-1" y="0" width="264" height="82" filterUnits="userSpaceOnUse" color-interpolation-filters="sRGB">
<feFlood flood-opacity="0" result="BackgroundImageFix"/>
<feColorMatrix in="SourceAlpha" type="matrix" values="0 0 0 0 0 0 0 0 0 0 0 0 0 0 0 0 0 0 127 0" result="hardAlpha"/>
<feMorphology radius="1" operator="dilate" in="SourceAlpha" result="effect1_dropShadow_395_14316"/>
<feOffset/>
<feGaussianBlur stdDeviation="8"/>
<feComposite in2="hardAlpha" operator="out"/>
<feColorMatrix type="matrix" values="0 0 0 0 0.0823529 0 0 0 0 0.0392157 0 0 0 0 0.00784314 0 0 0 0.08 0"/>
<feBlend mode="normal" in2="BackgroundImageFix" result="effect1_dropShadow_395_14316"/>
<feBlend mode="normal" in="SourceGraphic" in2="effect1_dropShadow_395_14316" result="shape"/>
</filter>
</defs>
</svg>
