<svg width="32" height="32" viewBox="0 0 32 32" fill="none" xmlns="http://www.w3.org/2000/svg">
<path d="M16 8.99316C15.3044 8.99316 14.6245 8.7869 14.0461 8.40047C13.4678 8.01403 13.017 7.46478 12.7509 6.82216C12.4847 6.17954 12.415 5.47242 12.5507 4.79022C12.6864 4.10802 13.0214 3.48137 13.5132 2.98953C14.0051 2.49769 14.6317 2.16275 15.3139 2.02705C15.9961 1.89135 16.7032 1.961 17.3458 2.22718C17.9885 2.49336 18.5377 2.94412 18.9242 3.52246C19.3106 4.10081 19.5168 4.78075 19.5168 5.47632C19.5158 6.40872 19.1449 7.30264 18.4856 7.96195C17.8263 8.62125 16.9324 8.99211 16 8.99316ZM16 2.9595C15.5022 2.9595 15.0156 3.10711 14.6017 3.38366C14.1878 3.66022 13.8652 4.0533 13.6747 4.51319C13.4842 4.97308 13.4344 5.47914 13.5315 5.96736C13.6286 6.45558 13.8683 6.90404 14.2203 7.25602C14.5723 7.60801 15.0208 7.84772 15.509 7.94483C15.9972 8.04194 16.5033 7.9921 16.9632 7.80161C17.423 7.61111 17.8161 7.28852 18.0927 6.87463C18.3692 6.46073 18.5168 5.97413 18.5168 5.47634C18.5161 4.80908 18.2506 4.16937 17.7788 3.69754C17.307 3.22571 16.6673 2.96029 16 2.9595Z" fill="#5E9B87"/>
<path d="M23.8279 30.0403C23.7891 30.0403 23.7537 30.04 23.7214 30.0396C23.0469 30.0303 18.0627 29.5149 14.2952 29.0725C13.6457 29.2747 12.9792 29.448 12.3122 29.5879C10.9853 29.8679 9.63452 30.0191 8.27856 30.0396C7.56469 30.0503 5.13183 29.9776 3.91698 28.6436C3.66709 28.372 3.4803 28.0486 3.36998 27.6964C3.25965 27.3442 3.22852 26.972 3.2788 26.6064C3.3207 26.2145 3.45736 25.8386 3.67699 25.5113C3.40949 25.5027 3.1479 25.4304 2.91397 25.3004C2.68004 25.1703 2.48052 24.9864 2.33202 24.7637C2.10784 24.4294 2.01001 24.0262 2.05604 23.6264C2.10207 23.2266 2.28897 22.8562 2.58324 22.5816C4.15063 21.1126 5.92699 19.4475 7.79101 17.7649C7.95873 17.6141 8.0874 17.4248 8.16601 17.2134C8.4934 16.3228 8.87939 15.346 9.46337 13.8677L10.0896 12.2803C10.4436 11.3945 11.104 10.6653 11.9504 10.2256C13.1868 9.62011 14.4165 9.49854 16 9.49854C17.5835 9.49854 18.8132 9.62011 20.0498 10.2256C20.8962 10.6654 21.5564 11.3946 21.9104 12.2803L22.5366 13.8677C23.1206 15.3459 23.5066 16.3227 23.834 17.2134C23.9125 17.4248 24.0412 17.6139 24.209 17.7646C26.073 19.4475 27.8494 21.1125 29.4167 22.5815C29.711 22.8561 29.8979 23.2265 29.9439 23.6264C29.99 24.0262 29.8921 24.4294 29.668 24.7636C29.5193 24.9861 29.3198 25.17 29.086 25.3001C28.8521 25.4301 28.5907 25.5026 28.3232 25.5115C28.5426 25.8387 28.6792 26.2144 28.7212 26.6062C28.7715 26.9718 28.7404 27.3441 28.63 27.6963C28.5197 28.0485 28.3329 28.372 28.083 28.6436C26.9228 29.9173 24.6531 30.0403 23.8279 30.0403ZM11.3667 26.5359C11.2203 26.5359 11.0794 26.5914 10.9723 26.6912C10.8652 26.7911 10.8 26.9278 10.7898 27.0738C10.7795 27.2198 10.825 27.3643 10.9171 27.4781C11.0091 27.5919 11.1409 27.6665 11.2859 27.687C14.5574 28.1462 22.978 29.0293 23.7351 29.0396C24.9895 29.0496 26.6016 28.7844 27.3437 27.9702C27.4973 27.8025 27.6115 27.6025 27.6778 27.385C27.7441 27.1674 27.761 26.9378 27.727 26.7129C27.6333 25.8411 26.7143 25.2847 26.0312 24.9421C25.4002 24.6323 24.7349 24.398 24.0491 24.2439C22.9682 23.9812 21.9161 23.6116 20.9084 23.1406C20.4 22.9077 19.9695 22.5332 19.6683 22.062C19.3671 21.5908 19.2079 21.0429 19.2099 20.4836L19.2319 16.1963C19.2325 16.0827 19.2717 15.9726 19.3431 15.8843C19.4145 15.796 19.5139 15.7346 19.6248 15.7102C19.7358 15.6859 19.8517 15.7001 19.9536 15.7504C20.0554 15.8008 20.137 15.8843 20.1851 15.9873L21.5901 18.9985C21.7093 19.2537 21.8953 19.4719 22.1284 19.6301L27.9258 24.4233C28.069 24.5068 28.2383 24.5339 28.4004 24.4992C28.4886 24.4822 28.5726 24.4478 28.6474 24.398C28.7222 24.3481 28.7863 24.2839 28.8359 24.209C28.9282 24.0714 28.9685 23.9055 28.9496 23.741C28.9306 23.5764 28.8538 23.424 28.7327 23.311C27.1687 21.8449 25.396 20.1836 23.5391 18.5071C23.251 18.2476 23.0302 17.9221 22.8955 17.5586C22.572 16.6789 22.188 15.7067 21.6067 14.2351L20.9797 12.6464C20.7199 11.9914 20.234 11.4511 19.6101 11.1235C18.542 10.6008 17.4775 10.4985 16 10.4985C14.5225 10.4985 13.458 10.6008 12.3901 11.1235C11.7662 11.4511 11.2802 11.9914 11.0203 12.6464L10.3933 14.2351C9.812 15.7068 9.42797 16.679 9.10448 17.5586C8.96973 17.9222 8.74892 18.2477 8.46093 18.5073C6.60399 20.1836 4.83129 21.845 3.26733 23.311C3.14624 23.424 3.06935 23.5765 3.05043 23.741C3.0315 23.9055 3.07178 24.0714 3.16406 24.209C3.21393 24.2837 3.27809 24.3478 3.35285 24.3976C3.4276 24.4475 3.51148 24.482 3.59964 24.4993C3.6878 24.5165 3.77851 24.5162 3.86654 24.4983C3.95457 24.4803 4.03818 24.4452 4.11256 24.3948L9.83349 19.6587C10.0823 19.4952 10.2817 19.2668 10.4102 18.9983L11.8149 15.9873C11.863 15.8843 11.9446 15.8008 12.0464 15.7505C12.1483 15.7001 12.2642 15.6859 12.3752 15.7103C12.4861 15.7346 12.5855 15.796 12.6569 15.8843C12.7283 15.9727 12.7675 16.0827 12.7681 16.1963L12.79 20.4839C12.792 21.0431 12.6329 21.591 12.3317 22.0621C12.0304 22.5333 11.5999 22.9077 11.0915 23.1406C10.0838 23.6116 9.03178 23.9812 7.95091 24.2439C7.26505 24.398 6.59973 24.6323 5.96873 24.9421C5.28563 25.2846 4.36668 25.8411 4.27293 26.7131C4.23904 26.938 4.25588 27.1676 4.3222 27.3851C4.38852 27.6026 4.50265 27.8025 4.65623 27.9702C5.39818 28.7847 7.00535 29.0571 8.26488 29.0396C9.35152 29.0235 10.435 28.9188 11.5046 28.7263C11.3789 28.7095 11.2597 28.6931 11.147 28.6772C10.7328 28.6186 10.3588 28.398 10.107 28.064C9.85523 27.73 9.74615 27.3098 9.80369 26.8955C9.86263 26.5168 10.055 26.1716 10.3462 25.9223C10.6373 25.673 11.008 25.536 11.3913 25.5361L21.3559 25.6897C21.4885 25.6918 21.6149 25.7465 21.7071 25.8417C21.7994 25.9369 21.8502 26.0649 21.8481 26.1975C21.8488 26.2637 21.836 26.3293 21.8106 26.3903C21.7851 26.4514 21.7474 26.5066 21.6999 26.5527C21.6524 26.5987 21.596 26.6346 21.5342 26.6582C21.4724 26.6817 21.4064 26.6925 21.3403 26.6897L11.3757 26.5361L11.3667 26.5359ZM20.2205 18.4282L20.21 20.489C20.2088 20.8558 20.3132 21.2152 20.5109 21.5242C20.7085 21.8332 20.991 22.0787 21.3245 22.2314C22.2793 22.6774 23.2762 23.0273 24.3003 23.2759C24.6409 23.3643 24.9719 23.4502 25.3249 23.5676L21.5293 20.4292C21.1626 20.1749 20.8707 19.827 20.6841 19.4216L20.2205 18.4282ZM11.7795 18.4285L11.3162 19.4214C11.1205 19.8402 10.8152 20.1983 10.4326 20.4578L6.67699 23.5669C7.02929 23.4497 7.35986 23.364 7.6997 23.2759C8.72381 23.0273 9.72066 22.6774 10.6755 22.2315C11.009 22.0787 11.2915 21.8332 11.4891 21.5242C11.6868 21.2152 11.7912 20.8558 11.79 20.489L11.7795 18.4285Z" fill="#5E9B87"/>
</svg>
