<svg width="24" height="24" viewBox="0 0 24 24" fill="none" xmlns="http://www.w3.org/2000/svg">
<g clip-path="url(#clip0_3493_18688)">
<mask id="path-1-inside-1_3493_18688" fill="white">
<path d="M12 8.5C10.07 8.5 8.5 10.07 8.5 12C8.5 13.93 10.07 15.5 12 15.5C13.93 15.5 15.5 13.93 15.5 12C15.5 10.07 13.93 8.5 12 8.5ZM12 14.5C10.622 14.5 9.5 13.379 9.5 12C9.5 10.621 10.622 9.5 12 9.5C13.378 9.5 14.5 10.621 14.5 12C14.5 13.379 13.378 14.5 12 14.5Z"/>
</mask>
<path d="M12 8.5C10.07 8.5 8.5 10.07 8.5 12C8.5 13.93 10.07 15.5 12 15.5C13.93 15.5 15.5 13.93 15.5 12C15.5 10.07 13.93 8.5 12 8.5ZM12 14.5C10.622 14.5 9.5 13.379 9.5 12C9.5 10.621 10.622 9.5 12 9.5C13.378 9.5 14.5 10.621 14.5 12C14.5 13.379 13.378 14.5 12 14.5Z" fill="#150A02"/>
<path d="M12 8.5V7.5C9.51772 7.5 7.5 9.51772 7.5 12H8.5H9.5C9.5 10.6223 10.6223 9.5 12 9.5V8.5ZM8.5 12H7.5C7.5 14.4823 9.51772 16.5 12 16.5V15.5V14.5C10.6223 14.5 9.5 13.3777 9.5 12H8.5ZM12 15.5V16.5C14.4823 16.5 16.5 14.4823 16.5 12H15.5H14.5C14.5 13.3777 13.3777 14.5 12 14.5V15.5ZM15.5 12H16.5C16.5 9.51772 14.4823 7.5 12 7.5V8.5V9.5C13.3777 9.5 14.5 10.6223 14.5 12H15.5ZM12 14.5V13.5C11.174 13.5 10.5 12.8265 10.5 12H9.5H8.5C8.5 13.9315 10.07 15.5 12 15.5V14.5ZM9.5 12H10.5C10.5 11.1735 11.174 10.5 12 10.5V9.5V8.5C10.07 8.5 8.5 10.0685 8.5 12H9.5ZM12 9.5V10.5C12.826 10.5 13.5 11.1735 13.5 12H14.5H15.5C15.5 10.0685 13.93 8.5 12 8.5V9.5ZM14.5 12H13.5C13.5 12.8265 12.826 13.5 12 13.5V14.5V15.5C13.93 15.5 15.5 13.9315 15.5 12H14.5Z" fill="#150A02" mask="url(#path-1-inside-1_3493_18688)"/>
<path d="M22.384 9.5H20.591C20.318 9.5 20.069 9.341 19.987 9.112C19.897 8.863 19.796 8.62 19.684 8.383C19.584 8.17 19.645 7.891 19.833 7.703L21.11 6.425C21.74 5.795 21.74 4.77 21.11 4.14L19.86 2.89C19.229 2.261 18.204 2.261 17.574 2.89L16.297 4.167C16.108 4.355 15.83 4.416 15.618 4.316C15.381 4.204 15.137 4.103 14.887 4.012C14.659 3.931 14.5 3.683 14.5 3.409V1.616C14.5 0.725 13.775 0 12.884 0H11.116C10.225 0 9.5 0.725 9.5 1.616V3.409C9.5 3.682 9.341 3.93 9.112 4.013C8.863 4.103 8.619 4.203 8.383 4.316C8.169 4.417 7.89 4.355 7.703 4.167L6.425 2.89C5.794 2.261 4.769 2.261 4.139 2.89L2.89 4.14C2.26 4.77 2.26 5.795 2.89 6.425L4.168 7.704C4.355 7.891 4.416 8.17 4.316 8.383C4.204 8.62 4.103 8.863 4.012 9.113C3.931 9.341 3.683 9.5 3.409 9.5H1.616C0.725 9.5 0 10.225 0 11.116V12.884C0 13.775 0.725 14.5 1.616 14.5H3.409C3.682 14.5 3.931 14.659 4.013 14.888C4.103 15.137 4.204 15.38 4.316 15.617C4.416 15.83 4.355 16.109 4.167 16.297L2.889 17.574C2.26 18.205 2.26 19.23 2.889 19.86L4.139 21.11C4.77 21.739 5.795 21.739 6.425 21.11L7.702 19.833C7.89 19.645 8.17 19.583 8.381 19.684C8.618 19.796 8.862 19.897 9.112 19.988C9.34 20.07 9.499 20.318 9.499 20.592V22.385C9.5 23.275 10.225 24 11.116 24H12.884C13.775 24 14.5 23.275 14.5 22.384V20.591C14.5 20.318 14.659 20.07 14.888 19.987C15.137 19.897 15.381 19.797 15.617 19.684C15.83 19.584 16.109 19.645 16.297 19.833L17.574 21.11C18.205 21.739 19.23 21.739 19.86 21.11L21.11 19.86C21.739 19.23 21.74 18.205 21.11 17.574L19.832 16.296C19.644 16.109 19.583 15.83 19.683 15.617C19.795 15.38 19.896 15.137 19.987 14.887C20.069 14.659 20.317 14.5 20.591 14.5H22.384C23.275 14.5 24 13.775 24 12.884V11.116C24 10.225 23.275 9.5 22.384 9.5ZM23 12.884C23 13.224 22.724 13.5 22.384 13.5H20.591C19.893 13.5 19.272 13.921 19.047 14.548C18.968 14.768 18.879 14.982 18.779 15.192C18.499 15.79 18.638 16.518 19.126 17.005L20.403 18.282C20.643 18.522 20.644 18.914 20.403 19.154L19.153 20.404C18.914 20.644 18.523 20.645 18.281 20.404L17.004 19.127C16.516 18.639 15.788 18.5 15.19 18.78C14.981 18.879 14.767 18.968 14.548 19.047C13.921 19.273 13.5 19.894 13.5 20.592V22.385C13.5 22.725 13.224 23.001 12.884 23.001H11.116C10.776 23.001 10.5 22.725 10.5 22.385V20.592C10.5 19.894 10.079 19.273 9.453 19.048C9.233 18.968 9.019 18.879 8.809 18.78C8.604 18.683 8.383 18.636 8.162 18.636C7.74 18.636 7.317 18.806 6.996 19.126L5.719 20.403C5.479 20.643 5.088 20.644 4.847 20.403L3.597 19.153C3.357 18.913 3.357 18.521 3.597 18.281L4.874 17.005C5.362 16.518 5.502 15.789 5.221 15.192C5.122 14.982 5.033 14.768 4.954 14.549C4.728 13.921 4.107 13.5 3.409 13.5H1.616C1.276 13.5 1 13.224 1 12.884V11.116C1 10.776 1.276 10.5 1.616 10.5H3.409C4.107 10.5 4.728 10.079 4.953 9.452C5.033 9.232 5.121 9.018 5.221 8.808C5.501 8.21 5.362 7.482 4.874 6.995L3.597 5.718C3.357 5.478 3.357 5.087 3.597 4.847L4.847 3.597C5.088 3.358 5.479 3.358 5.719 3.597L6.996 4.874C7.485 5.363 8.213 5.501 8.81 5.221C9.019 5.122 9.233 5.033 9.452 4.954C10.079 4.729 10.5 4.107 10.5 3.409V1.616C10.5 1.276 10.776 1 11.116 1H12.884C13.224 1 13.5 1.276 13.5 1.616V3.409C13.5 4.107 13.921 4.728 14.547 4.953C14.767 5.033 14.981 5.122 15.191 5.221C15.788 5.501 16.516 5.364 17.004 4.874L18.281 3.597C18.521 3.358 18.912 3.358 19.153 3.597L20.403 4.847C20.643 5.087 20.643 5.478 20.403 5.718L19.126 6.995C18.638 7.482 18.498 8.211 18.779 8.808C18.878 9.018 18.967 9.232 19.046 9.451C19.272 10.079 19.893 10.5 20.591 10.5H22.384C22.724 10.5 23 10.776 23 11.116V12.884Z" fill="#150A02"/>
</g>
<defs>
<clipPath id="clip0_3493_18688">
<rect width="24" height="24" fill="white"/>
</clipPath>
</defs>
</svg>
