<svg width="20" height="20" viewBox="0 0 20 20" fill="none" xmlns="http://www.w3.org/2000/svg">
<path d="M10.625 0.833008C10.625 0.48783 10.3452 0.208008 10 0.208008C9.65483 0.208008 9.375 0.48783 9.375 0.833008V2.49967C9.375 2.84485 9.65483 3.12467 10 3.12467C10.3452 3.12467 10.625 2.84485 10.625 2.49967V0.833008Z" fill="#150A02"/>
<path d="M3.96013 2.24263C3.71605 1.99855 3.32033 1.99855 3.07625 2.24263C2.83217 2.4867 2.83217 2.88244 3.07625 3.12651L4.25476 4.30502C4.49883 4.5491 4.89457 4.5491 5.13864 4.30502C5.38272 4.06094 5.38272 3.66522 5.13864 3.42114L3.96013 2.24263Z" fill="#150A02"/>
<path d="M16.9237 3.12651C17.1678 2.88244 17.1678 2.4867 16.9237 2.24263C16.6796 1.99855 16.2839 1.99855 16.0398 2.24263L14.8613 3.42114C14.6172 3.66522 14.6172 4.06094 14.8613 4.30502C15.1054 4.5491 15.5011 4.5491 15.7452 4.30502L16.9237 3.12651Z" fill="#150A02"/>
<path d="M6.45825 9.16667C6.45825 7.21066 8.04391 5.625 9.99992 5.625C11.9559 5.625 13.5416 7.21066 13.5416 9.16667C13.5416 9.51183 13.8214 9.79167 14.1666 9.79167C14.5118 9.79167 14.7916 9.51183 14.7916 9.16667C14.7916 6.5203 12.6463 4.375 9.99992 4.375C7.35355 4.375 5.20825 6.5203 5.20825 9.16667C5.20825 9.51183 5.48808 9.79167 5.83325 9.79167C6.17843 9.79167 6.45825 9.51183 6.45825 9.16667Z" fill="#150A02"/>
<path d="M1.66663 8.54102C1.32145 8.54102 1.04163 8.82085 1.04163 9.16602C1.04163 9.51118 1.32145 9.79102 1.66663 9.79102H3.33329C3.67847 9.79102 3.95829 9.51118 3.95829 9.16602C3.95829 8.82085 3.67847 8.54102 3.33329 8.54102H1.66663Z" fill="#150A02"/>
<path d="M16.6666 8.54102C16.3215 8.54102 16.0416 8.82085 16.0416 9.16602C16.0416 9.51118 16.3215 9.79102 16.6666 9.79102H18.3333C18.6785 9.79102 18.9583 9.51118 18.9583 9.16602C18.9583 8.82085 18.6785 8.54102 18.3333 8.54102H16.6666Z" fill="#150A02"/>
<path d="M3.33325 11.041C2.98808 11.041 2.70825 11.3208 2.70825 11.666C2.70825 12.0112 2.98808 12.291 3.33325 12.291H16.6666C17.0118 12.291 17.2916 12.0112 17.2916 11.666C17.2916 11.3208 17.0118 11.041 16.6666 11.041H3.33325Z" fill="#150A02"/>
<path d="M5.83325 14.375C5.48808 14.375 5.20825 14.6548 5.20825 15C5.20825 15.3452 5.48808 15.625 5.83325 15.625H14.1666C14.5118 15.625 14.7916 15.3452 14.7916 15C14.7916 14.6548 14.5118 14.375 14.1666 14.375H5.83325Z" fill="#150A02"/>
<path d="M8.33325 17.708C7.98808 17.708 7.70825 17.9878 7.70825 18.333C7.70825 18.6782 7.98808 18.958 8.33325 18.958H11.6666C12.0118 18.958 12.2916 18.6782 12.2916 18.333C12.2916 17.9878 12.0118 17.708 11.6666 17.708H8.33325Z" fill="#150A02"/>
</svg>
