<svg width="40" height="40" viewBox="0 0 40 40" fill="none" xmlns="http://www.w3.org/2000/svg">
<g clip-path="url(#clip0_3582_35935)">
<path d="M19.9854 24.7693H19.9651C16.8546 24.7693 14.324 22.2387 14.324 19.1283V13.641C14.324 10.5306 16.8546 8 19.9651 8H19.9854C23.0959 8 25.6264 10.5306 25.6264 13.641V19.1283C25.6264 22.2387 23.0959 24.7693 19.9854 24.7693ZM19.9651 9.23077C17.5333 9.23077 15.5548 11.2092 15.5548 13.641V19.1283C15.5548 21.5601 17.5332 23.5385 19.9651 23.5385H19.9854C22.4172 23.5385 24.3957 21.5601 24.3957 19.1283V13.641C24.3957 11.2092 22.4172 9.23077 19.9854 9.23077H19.9651Z" fill="#656565"/>
<path d="M17.5088 17.9314C17.1689 17.9314 16.8934 17.6559 16.8934 17.316V15.4699C16.8934 15.13 17.1689 14.8545 17.5088 14.8545C17.8486 14.8545 18.1241 15.13 18.1241 15.4699V17.316C18.1241 17.6559 17.8487 17.9314 17.5088 17.9314Z" fill="#656565"/>
<path d="M19.9753 19.4703C19.6355 19.4703 19.3599 19.1947 19.3599 18.8549V13.9318C19.3599 13.5919 19.6355 13.3164 19.9753 13.3164C20.3152 13.3164 20.5907 13.5919 20.5907 13.9318V18.8549C20.5907 19.1948 20.3152 19.4703 19.9753 19.4703Z" fill="#656565"/>
<path d="M22.4419 17.9314C22.102 17.9314 21.8265 17.6559 21.8265 17.316V15.4699C21.8265 15.13 22.102 14.8545 22.4419 14.8545C22.7817 14.8545 23.0572 15.13 23.0572 15.4699V17.316C23.0572 17.6559 22.7817 17.9314 22.4419 17.9314Z" fill="#656565"/>
<path d="M23.9211 26.6042C24.2193 26.441 24.3288 26.0671 24.1657 25.7689C24.0025 25.4708 23.6286 25.3612 23.3305 25.5244C22.3088 26.0834 21.1486 26.3788 19.9753 26.3788C16.1211 26.3788 12.9855 23.2501 12.9855 19.4044V17.671C12.9855 17.3312 12.71 17.0557 12.3701 17.0557H10.1798C9.83999 17.0557 9.56445 17.3312 9.56445 17.671C9.56445 18.0109 9.83999 18.2864 10.1798 18.2864H11.7548V19.4044C11.7548 23.7174 15.1059 27.2637 19.3457 27.5857V30.7693H16.5973C16.2574 30.7693 15.9819 31.0448 15.9819 31.3847C15.9819 31.7245 16.2574 32.0001 16.5973 32.0001H23.325C23.6648 32.0001 23.9404 31.7245 23.9404 31.3847C23.9404 31.0448 23.6648 30.7693 23.325 30.7693H20.5765V27.5867C21.7484 27.5008 22.894 27.1661 23.9211 26.6042Z" fill="#656565"/>
<path d="M25.4824 25.3119C25.8789 25.3119 26.2003 24.9904 26.2003 24.5939C26.2003 24.1974 25.8789 23.876 25.4824 23.876C25.0858 23.876 24.7644 24.1974 24.7644 24.5939C24.7644 24.9904 25.0858 25.3119 25.4824 25.3119Z" fill="#656565"/>
<path d="M26.8243 23.3222C26.3835 23.3317 26.0671 22.8334 26.271 22.4381C26.7315 21.4886 26.965 20.468 26.965 19.4044V17.671C26.965 17.3312 27.2405 17.0557 27.5804 17.0557H29.7193C30.0591 17.0557 30.3347 17.3312 30.3347 17.671C30.3347 18.0109 30.0591 18.2864 29.7193 18.2864H28.1957V19.4044C28.1957 20.6555 27.9208 21.8569 27.3784 22.9752C27.2721 23.1945 27.0527 23.3221 26.8243 23.3222Z" fill="#656565"/>
<path d="M8.61629 13.1647C8.2765 13.1647 8.00101 12.8893 8.00091 12.5496C7.94953 10.1329 10.0812 7.99191 12.4983 8.04288C12.8382 8.04299 13.1136 8.31858 13.1135 8.65847C13.1134 8.99827 12.8379 9.27365 12.4981 9.27365C10.7428 9.23647 9.19419 10.7944 9.23173 12.5492C9.23183 12.889 8.9564 13.1647 8.61655 13.1648C8.61645 13.1647 8.61635 13.1647 8.61629 13.1647Z" fill="#656565"/>
<path d="M11.0323 13.5879C10.6925 13.5879 10.417 13.3126 10.4169 12.9728C10.3877 11.599 11.5993 10.3827 12.9734 10.4116C13.3133 10.4117 13.5887 10.6873 13.5886 11.0272C13.5885 11.367 13.3129 11.6424 12.9732 11.6424C12.2609 11.6272 11.6323 12.2604 11.6477 12.9724C11.6478 13.3123 11.3723 13.5879 11.0325 13.588C11.0324 13.5879 11.0323 13.5879 11.0323 13.5879Z" fill="#656565"/>
<path d="M31.3834 13.1648C31.3834 13.1648 31.3833 13.1648 31.3832 13.1648C31.0434 13.1647 30.7679 12.8891 30.768 12.5492C30.8056 10.7943 29.2569 9.23653 27.5016 9.27366C27.1618 9.27366 26.8863 8.99827 26.8862 8.65848C26.8861 8.31863 27.1616 8.04299 27.5014 8.04289C29.9186 7.99181 32.0502 10.1331 31.9988 12.5496C31.9987 12.8894 31.7232 13.1648 31.3834 13.1648Z" fill="#656565"/>
<path d="M28.9675 13.588C28.9674 13.588 28.9674 13.588 28.9673 13.588C28.6274 13.5879 28.352 13.3123 28.3521 12.9724C28.3674 12.2605 27.7388 11.6273 27.0265 11.6424C26.6868 11.6424 26.4113 11.367 26.4112 11.0272C26.4111 10.6874 26.6865 10.4117 27.0263 10.4116C28.4004 10.3826 29.612 11.5991 29.5829 12.9728C29.5828 13.3126 29.3073 13.588 28.9675 13.588Z" fill="#656565"/>
</g>
<defs>
<clipPath id="clip0_3582_35935">
<rect width="24" height="24" fill="white" transform="translate(8 8)"/>
</clipPath>
</defs>
</svg>
