<svg width="24" height="24" viewBox="0 0 24 24" fill="none" xmlns="http://www.w3.org/2000/svg">
<g clip-path="url(#clip0_3328_2382)">
<path d="M11.9999 19.2712C16.016 19.2712 19.2717 16.0155 19.2717 11.9993C19.2717 7.98324 16.016 4.72754 11.9999 4.72754C7.98383 4.72754 4.72815 7.98324 4.72815 11.9993C4.72815 16.0155 7.98383 19.2712 11.9999 19.2712Z" fill="#FCD144"/>
<path d="M11.9249 20.6572C12.0701 20.6584 12.1868 20.7772 12.1854 20.9225L12.1579 23.7402C12.1564 23.8851 12.038 24.0014 11.8931 24.0003C11.7479 23.9991 11.6311 23.8803 11.6326 23.735L11.6601 20.9173C11.6616 20.7724 11.78 20.656 11.9249 20.6572Z" fill="#F29E25"/>
<path d="M5.82545 18.0687C5.92739 18.1722 5.9259 18.3388 5.82218 18.4405L3.81032 20.4134C3.70689 20.5149 3.54076 20.5134 3.43927 20.4101C3.33733 20.3066 3.33882 20.14 3.44254 20.0383L5.4544 18.0654C5.55782 17.9639 5.72381 17.9654 5.82545 18.0687Z" fill="#F29E25"/>
<path d="M3.34301 11.9251C3.34182 12.0703 3.22309 12.1871 3.07776 12.1856L0.260055 12.1581C0.115172 12.1568 -0.00117975 12.0382 9.02884e-06 11.8933C0.00119781 11.7481 0.119928 11.6313 0.265256 11.6328L3.08296 11.6603C3.2277 11.6618 3.3442 11.7802 3.34301 11.9251Z" fill="#F29E25"/>
<path d="M5.9316 5.82595C5.82803 5.92789 5.66145 5.9264 5.55981 5.82268L3.58688 3.81081C3.48539 3.70738 3.48688 3.54125 3.59015 3.43976C3.69372 3.33782 3.8603 3.3393 3.96194 3.44303L5.93487 5.4549C6.03621 5.55818 6.03473 5.72431 5.9316 5.82595Z" fill="#F29E25"/>
<path d="M12.0748 3.34303C11.9297 3.34184 11.8129 3.22311 11.8143 3.07778L11.8418 0.260056C11.8432 0.115173 11.9618 -0.00117976 12.1066 9.02889e-06C12.2518 0.00119782 12.3686 0.119927 12.3671 0.265257L12.3396 3.08298C12.3381 3.22772 12.2197 3.34407 12.0748 3.34303Z" fill="#F29E25"/>
<path d="M18.1741 5.93162C18.0722 5.82804 18.0737 5.66146 18.1774 5.55982L20.1893 3.58688C20.2927 3.48539 20.4587 3.48688 20.5603 3.59015C20.6622 3.69373 20.6608 3.8603 20.557 3.96195L18.5452 5.93489C18.4419 6.03638 18.2758 6.03489 18.1741 5.93162Z" fill="#F29E25"/>
<path d="M20.6567 12.075C20.6579 11.9298 20.7767 11.813 20.922 11.8145L23.7397 11.842C23.8846 11.8433 24.0009 11.9619 23.9997 12.1068C23.9986 12.2519 23.8798 12.3687 23.7345 12.3673L20.9168 12.3398C20.7719 12.3383 20.6556 12.2198 20.6567 12.075Z" fill="#F29E25"/>
<path d="M18.0683 18.1741C18.1719 18.0722 18.3385 18.0737 18.4401 18.1774L20.413 20.1893C20.5145 20.2927 20.513 20.4588 20.4097 20.5603C20.3062 20.6623 20.1396 20.6608 20.038 20.5571L18.065 18.5452C17.9635 18.4418 17.965 18.2758 18.0683 18.1741Z" fill="#F29E25"/>
</g>
<defs>
<clipPath id="clip0_3328_2382">
<rect width="24" height="24" fill="white"/>
</clipPath>
</defs>
</svg>
