<svg width="16" height="16" viewBox="0 0 16 16" fill="none" xmlns="http://www.w3.org/2000/svg">
<path d="M8.5 0.666992C8.5 0.39085 8.27613 0.166992 8 0.166992C7.72387 0.166992 7.5 0.39085 7.5 0.666992V2.00033C7.5 2.27647 7.72387 2.50033 8 2.50033C8.27613 2.50033 8.5 2.27647 8.5 2.00033V0.666992Z" fill="#656565"/>
<path d="M3.16801 1.79488C2.97274 1.59962 2.65616 1.59962 2.4609 1.79488C2.26564 1.99014 2.26564 2.30673 2.4609 2.50199L3.40371 3.4448C3.59897 3.64006 3.91556 3.64006 4.11082 3.4448C4.30608 3.24954 4.30608 2.93296 4.11082 2.73769L3.16801 1.79488Z" fill="#656565"/>
<path d="M13.5388 2.50199C13.7341 2.30673 13.7341 1.99014 13.5388 1.79488C13.3435 1.59962 13.0269 1.59962 12.8317 1.79488L11.8889 2.73769C11.6936 2.93296 11.6936 3.24954 11.8889 3.4448C12.0841 3.64006 12.4007 3.64006 12.596 3.4448L13.5388 2.50199Z" fill="#656565"/>
<path d="M5.1665 7.33333C5.1665 5.76853 6.43503 4.5 7.99984 4.5C9.56464 4.5 10.8332 5.76853 10.8332 7.33333C10.8332 7.60947 11.057 7.83333 11.3332 7.83333C11.6093 7.83333 11.8332 7.60947 11.8332 7.33333C11.8332 5.21624 10.1169 3.5 7.99984 3.5C5.88274 3.5 4.1665 5.21624 4.1665 7.33333C4.1665 7.60947 4.39036 7.83333 4.6665 7.83333C4.94264 7.83333 5.1665 7.60947 5.1665 7.33333Z" fill="#656565"/>
<path d="M1.33325 6.83398C1.05711 6.83398 0.833252 7.05785 0.833252 7.33398C0.833252 7.61012 1.05711 7.83398 1.33325 7.83398H2.66659C2.94273 7.83398 3.16659 7.61012 3.16659 7.33398C3.16659 7.05785 2.94273 6.83398 2.66659 6.83398H1.33325Z" fill="#656565"/>
<path d="M13.3333 6.83398C13.0571 6.83398 12.8333 7.05785 12.8333 7.33398C12.8333 7.61012 13.0571 7.83398 13.3333 7.83398H14.6666C14.9427 7.83398 15.1666 7.61012 15.1666 7.33398C15.1666 7.05785 14.9427 6.83398 14.6666 6.83398H13.3333Z" fill="#656565"/>
<path d="M2.6665 8.83398C2.39036 8.83398 2.1665 9.05785 2.1665 9.33398C2.1665 9.61012 2.39036 9.83398 2.6665 9.83398H13.3332C13.6093 9.83398 13.8332 9.61012 13.8332 9.33398C13.8332 9.05785 13.6093 8.83398 13.3332 8.83398H2.6665Z" fill="#656565"/>
<path d="M4.6665 11.5C4.39036 11.5 4.1665 11.7239 4.1665 12C4.1665 12.2761 4.39036 12.5 4.6665 12.5H11.3332C11.6093 12.5 11.8332 12.2761 11.8332 12C11.8332 11.7239 11.6093 11.5 11.3332 11.5H4.6665Z" fill="#656565"/>
<path d="M6.6665 14.167C6.39036 14.167 6.1665 14.3909 6.1665 14.667C6.1665 14.9431 6.39036 15.167 6.6665 15.167H9.33317C9.6093 15.167 9.83317 14.9431 9.83317 14.667C9.83317 14.3909 9.6093 14.167 9.33317 14.167H6.6665Z" fill="#656565"/>
</svg>
