<svg width="20" height="20" viewBox="0 0 20 20" fill="none" xmlns="http://www.w3.org/2000/svg">
<path d="M18.1958 4.32875L15.0202 0.523047C14.9088 0.389609 14.7441 0.3125 14.5703 0.3125C14.3965 0.3125 14.2317 0.389609 14.1204 0.523047L10.9447 4.32875C10.799 4.50336 10.7675 4.74652 10.8639 4.9525C10.9603 5.15848 11.1672 5.29008 11.3946 5.29008H12.5649V6.78582C12.5649 7.67598 12.1479 8.4916 11.503 8.86359L10.0003 9.72922L8.49732 8.86375C7.85209 8.4916 7.43521 7.67598 7.43521 6.78582V5.29008H8.60541C8.83283 5.29008 9.0397 5.15848 9.13611 4.9525C9.23252 4.74652 9.20099 4.50336 9.05529 4.32875L5.87963 0.523047C5.7683 0.389609 5.60349 0.3125 5.42974 0.3125C5.25599 0.3125 5.09119 0.389609 4.97986 0.523047L1.80416 4.32875C1.65845 4.50336 1.62693 4.74652 1.72334 4.9525C1.81974 5.15848 2.02662 5.29008 2.25404 5.29008H3.42424V6.78582C3.42424 8.89078 4.43459 10.896 6.03615 12.0454C4.43459 13.1947 3.42424 15.1995 3.42424 17.3039V19.101C3.42424 19.4246 3.68658 19.6869 4.01017 19.6869C4.33377 19.6869 4.59611 19.4246 4.59611 19.101V17.3039C4.59611 15.4457 5.59388 13.6214 7.07861 12.7646L12.0882 9.87887C13.1051 9.29238 13.7367 8.10719 13.7367 6.78578V4.7041C13.7367 4.38051 13.4744 4.11816 13.1508 4.11816H12.6467L14.5703 1.81293L16.4939 4.11816H15.9899C15.6663 4.11816 15.404 4.38051 15.404 4.7041V6.78578C15.404 8.64461 14.4061 10.4693 12.9216 11.3261L7.91138 14.2111C6.89486 14.7987 6.26338 15.9838 6.26338 17.3038V19.1009C6.26338 19.4245 6.52572 19.6869 6.84931 19.6869C7.17291 19.6869 7.43525 19.4245 7.43525 19.1009V17.3038C7.43525 16.4145 7.85236 15.5988 8.49701 15.2261L9.99974 14.3608L11.5023 15.2256C12.1478 15.5988 12.5649 16.4145 12.5649 17.3038V19.1009C12.5649 19.4245 12.8272 19.6869 13.1508 19.6869C13.4744 19.6869 13.7368 19.4245 13.7368 19.1009V17.3038C13.7368 15.9838 13.1053 14.7987 12.0878 14.2105L11.1741 13.6846L12.8467 12.7215L12.9211 12.7644C14.4061 13.6214 15.404 15.4457 15.404 17.3039V19.101C15.404 19.4246 15.6663 19.6869 15.9899 19.6869C16.3135 19.6869 16.5758 19.4246 16.5758 19.101V17.3039C16.5758 15.1995 15.5655 13.1948 13.9639 12.0454C15.5655 10.896 16.5758 8.89078 16.5758 6.78582V5.29008H17.746C17.9735 5.29008 18.1803 5.15848 18.2767 4.9525C18.3731 4.74652 18.3416 4.50336 18.1959 4.32875H18.1958ZM4.59611 6.78582V4.70414C4.59611 4.38055 4.33377 4.1182 4.01017 4.1182H3.50611L5.4297 1.81297L7.3533 4.1182H6.84924C6.52564 4.1182 6.2633 4.38055 6.2633 4.70414V6.78582C6.2633 8.10723 6.89498 9.29238 7.91217 9.8791L8.82631 10.4055L7.15322 11.3692L7.079 11.3264C5.59388 10.4694 4.59611 8.64465 4.59611 6.78582Z" fill="#656565"/>
</svg>
