<svg width="20" height="20" viewBox="0 0 20 20" fill="none" xmlns="http://www.w3.org/2000/svg">
<path d="M5.05331 7.35962C4.63729 6.80563 3.52722 5.17841 3.52722 3.58733C3.52722 1.92918 4.59315 0.833008 6.25131 0.833008C7.08021 0.833008 7.76106 1.10688 8.23477 1.58823C9.92552 3.32778 8.30316 6.27826 7.43992 7.37005" stroke="#150A02" stroke-miterlimit="10" stroke-linecap="round"/>
<path d="M12.5508 7.35927C12.1344 6.80493 11.025 5.17806 11.025 3.58733C11.025 1.92918 12.091 0.833008 13.7488 0.833008C14.5777 0.833008 15.2585 1.10688 15.7322 1.58823C17.416 3.32139 15.8142 6.2557 14.9457 7.35927" stroke="#150A02" stroke-miterlimit="10"/>
<path d="M3.11865 11.1191V18.3492" stroke="#150A02" stroke-miterlimit="10" stroke-linecap="round"/>
<path d="M16.8718 12.4609V18.3493" stroke="#150A02" stroke-miterlimit="10" stroke-linecap="round"/>
<path d="M10.2368 8.70887C11.1227 7.78578 12.3687 7.21094 13.7488 7.21094C14.788 7.21094 15.7507 7.53659 16.5413 8.09163" stroke="#150A02" stroke-miterlimit="10" stroke-linecap="round"/>
<path d="M18.6143 18.3493V13.125" stroke="#150A02" stroke-miterlimit="10" stroke-linecap="round"/>
<path d="M18.1476 9.99512C18.4468 10.6263 18.6143 11.3321 18.6143 12.0769V13.1814" stroke="#150A02" stroke-miterlimit="10"/>
<path d="M1.38568 18.3491V12.0762C1.38568 10.6857 1.96887 9.4317 2.90377 8.5451M2.90377 8.54247C3.71738 7.93148 4.7284 7.56934 5.82388 7.56934C7.18557 7.56934 8.53441 8.24045 9.80539 9.06449C11.0764 9.88853 12.2695 10.8658 13.3212 11.4779C14.5244 10.919 16.0296 9.43359 16.0296 9.43359C16.0974 9.35122 15.8819 8.30961 16.4165 8.08962C16.9955 7.85155 18.1869 9.20073 18.1869 9.82701C18.1869 10.4658 16.9736 10.4926 16.9736 10.4926C14.8702 12.9688 13.5127 13.4349 13.5127 13.4349C13.5127 13.4349 11.9783 13.3247 9.82729 12.4281V18.7079" stroke="#150A02" stroke-miterlimit="10" stroke-linecap="round"/>
<path d="M1.38568 15.4297H3.11859" stroke="#150A02" stroke-miterlimit="10"/>
<path d="M13.3659 10.8643L12.6715 12.88" stroke="#150A02" stroke-miterlimit="10"/>
<path d="M16.8718 15.4297H18.6143" stroke="#150A02" stroke-miterlimit="10"/>
</svg>
