<svg width="17" height="17" viewBox="0 0 17 17" fill="none" xmlns="http://www.w3.org/2000/svg">
<path d="M1.84209 8.9397L1.5418 9.99634C1.44854 10.325 1.51299 10.6694 1.71856 10.9417C1.92461 11.2139 2.23809 11.3701 2.5794 11.3701H3.98015L3.82061 11.9314C3.71807 12.2917 3.78887 12.6697 4.01495 12.9685C4.24053 13.2676 4.58526 13.439 4.95977 13.439H12.0408C12.4153 13.439 12.7601 13.2676 12.9856 12.9685C13.2117 12.6697 13.2825 12.2917 13.18 11.9314L13.0204 11.3701H14.4212C14.7625 11.3701 15.076 11.2139 15.282 10.9417C15.4876 10.6694 15.5521 10.325 15.4588 9.99634L15.1585 8.93994C14.9171 8.08899 14.1901 7.46936 13.3329 7.3418C13.6241 6.94736 13.8021 6.46478 13.8021 5.93799C13.8021 4.62769 12.7356 3.56152 11.4251 3.56152C10.6207 3.56152 9.91128 3.96539 9.4811 4.57861C9.17638 4.46011 8.8464 4.39258 8.5003 4.39258C8.1542 4.39258 7.82421 4.46011 7.51949 4.57861C7.08932 3.96539 6.37987 3.56152 5.57549 3.56152C4.26495 3.56152 3.19854 4.62769 3.19854 5.93799C3.19854 6.46478 3.37652 6.94736 3.66772 7.3418C2.81048 7.46936 2.08349 8.08896 1.84209 8.9397ZM6.66747 5.1095C6.12514 5.60669 5.78252 6.31839 5.78252 7.11035C5.78252 7.17194 5.78771 7.23224 5.79177 7.29282C5.72085 7.30414 5.64956 7.3147 5.57549 7.3147C4.81621 7.3147 4.19854 6.69702 4.19854 5.93799C4.19854 5.17896 4.81621 4.56152 5.57549 4.56152C6.02209 4.56152 6.41579 4.77875 6.66747 5.1095ZM11.4251 4.56152C12.1844 4.56152 12.8021 5.17896 12.8021 5.93799C12.8021 6.69702 12.1844 7.3147 11.4251 7.3147C11.351 7.3147 11.2797 7.30414 11.2088 7.29282C11.2129 7.23224 11.2181 7.17194 11.2181 7.11035C11.2181 6.31839 10.8754 5.60669 10.3331 5.1095C10.5848 4.77875 10.9785 4.56152 11.4251 4.56152ZM14.4842 10.3389C14.4681 10.3596 14.4471 10.3701 14.4212 10.3701H12.7073C12.3367 9.51633 11.5211 8.92825 10.5891 8.84641C10.7241 8.68436 10.8382 8.50525 10.933 8.3147H13.0076C13.5574 8.3147 14.0462 8.68408 14.1966 9.21313L14.4969 10.2698C14.5042 10.2949 14.4998 10.3181 14.4842 10.3389ZM11.8631 10.9561L12.2181 12.2048C12.2396 12.2812 12.2083 12.3384 12.1878 12.3657C12.1673 12.3931 12.1204 12.439 12.0408 12.439H4.95977C4.88018 12.439 4.8333 12.3931 4.8128 12.3657C4.79229 12.3384 4.76104 12.2812 4.78252 12.2048L5.1375 10.9561C5.32647 10.292 5.94024 9.82812 6.63067 9.82812H10.3699C11.0604 9.82812 11.6741 10.292 11.8631 10.9561ZM10.2181 7.11035C10.2181 8.05762 9.44756 8.82812 8.5003 8.82812C7.55303 8.82812 6.78252 8.05762 6.78252 7.11035C6.78252 6.16309 7.55303 5.39258 8.5003 5.39258C9.44756 5.39258 10.2181 6.16309 10.2181 7.11035ZM3.99297 8.3147H6.06762C6.16234 8.50525 6.27654 8.68436 6.41146 8.84641C5.47945 8.92825 4.66393 9.51633 4.2933 10.3701H2.5794C2.55352 10.3701 2.53252 10.3596 2.51641 10.3389C2.50079 10.3181 2.49639 10.2949 2.50371 10.2698L2.80401 9.21289C2.9544 8.68408 3.44317 8.3147 3.99297 8.3147Z" fill="#656565"/>
</svg>
