<svg width="17" height="17" viewBox="0 0 17 17" fill="none" xmlns="http://www.w3.org/2000/svg">
<path d="M13.106 12.9608C14.5734 11.1114 15.0671 7.21242 15.2407 4.15544C15.2803 3.44011 15.0129 2.7404 14.5073 2.23552C14.0017 1.73014 13.3022 1.4611 12.5864 1.50456C9.53348 1.67582 5.61981 2.19007 3.78845 3.64293C1.03957 5.99483 0.818778 10.2202 3.14551 12.9007L1.40112 14.6466C1.20605 14.842 1.20605 15.1589 1.40161 15.3537C1.49902 15.4513 1.62695 15.5002 1.75488 15.5002C1.88281 15.5002 2.01099 15.4513 2.10864 15.3537L3.85306 13.6077C5.0878 14.6686 6.62039 15.2043 8.15674 15.2043C9.96188 15.2063 11.8591 14.4438 13.106 12.9608ZM13.8008 2.94304C14.1096 3.25163 14.2664 3.66276 14.2422 4.10026C14.1366 6.01164 13.9232 7.68287 13.6211 9.04802L9.73376 7.72172L11.8938 5.55973C12.0889 5.36442 12.0889 5.04753 11.8936 4.8527C11.6982 4.65739 11.3816 4.65739 11.1863 4.8527L9.0253 7.01561L7.69022 3.12989C9.05609 2.82585 10.7289 2.6103 12.6426 2.50261C13.0786 2.47917 13.4917 2.63395 13.8008 2.94304ZM12.5333 12.0455L7.22385 10.2339L8.94659 8.50959L13.3768 10.0211C13.135 10.8634 12.8519 11.5462 12.5333 12.0455ZM6.71704 3.37541L8.23843 7.8032L6.51608 9.52711L4.69995 4.21879C5.19778 3.90062 5.87799 3.61747 6.71704 3.37541ZM3.89206 4.94746L5.7287 10.3152L3.85199 12.1936C2.0994 10.1011 2.11365 7.02586 3.89206 4.94746ZM6.43661 11.0218L11.8056 12.8536C9.7287 14.6341 6.65372 14.6509 4.55963 12.9005L6.43661 11.0218Z" fill="#656565"/>
</svg>
