<svg width="16" height="17" viewBox="0 0 16 17" fill="none" xmlns="http://www.w3.org/2000/svg">
<path d="M10.8267 2C10.8267 1.72388 10.603 1.5 10.3267 1.5H3.70166C2.87695 1.5 2.20605 2.1709 2.20605 2.99561V12.0332C2.20605 12.3096 2.42969 12.5332 2.70605 12.5332C2.98242 12.5332 3.20605 12.3096 3.20605 12.0332V2.99561C3.20605 2.72241 3.42822 2.5 3.70166 2.5H10.3267C10.603 2.5 10.8267 2.27612 10.8267 2Z" fill="#656565"/>
<path d="M5.67334 15.5002H12.2983C13.123 15.5002 13.7939 14.8293 13.7939 14.0046V4.96729C13.7939 4.14258 13.123 3.47168 12.2983 3.47168H5.67334C4.84863 3.47168 4.17773 4.14258 4.17773 4.96729V14.0046C4.17773 14.8293 4.84863 15.5002 5.67334 15.5002ZM5.17773 4.96729C5.17773 4.69409 5.3999 4.47168 5.67334 4.47168H12.2983C12.5718 4.47168 12.7939 4.69409 12.7939 4.96729V14.0046C12.7939 14.2781 12.5718 14.5002 12.2983 14.5002H5.67334C5.3999 14.5002 5.17773 14.2781 5.17773 14.0046V4.96729Z" fill="#656565"/>
<path d="M11.5942 8.98633H6.37695C6.10059 8.98633 5.87695 9.20996 5.87695 9.48633C5.87695 9.7627 6.10059 9.98633 6.37695 9.98633H11.5942C11.8706 9.98633 12.0942 9.7627 12.0942 9.48633C12.0942 9.20996 11.8706 8.98633 11.5942 8.98633Z" fill="#656565"/>
<path d="M6.37598 7.37598H11.5942C11.8706 7.37598 12.0942 7.1521 12.0942 6.87598C12.0942 6.59985 11.8706 6.37598 11.5942 6.37598H6.37598C6.09961 6.37598 5.87598 6.59985 5.87598 6.87598C5.87598 7.1521 6.09961 7.37598 6.37598 7.37598Z" fill="#656565"/>
<path d="M8.9126 11.5957H6.37695C6.10059 11.5957 5.87695 11.8193 5.87695 12.0957C5.87695 12.3721 6.10059 12.5957 6.37695 12.5957H8.9126C9.18896 12.5957 9.4126 12.3721 9.4126 12.0957C9.4126 11.8193 9.18896 11.5957 8.9126 11.5957Z" fill="#656565"/>
</svg>
