<svg width="116" height="32" viewBox="0 0 116 32" fill="none" xmlns="http://www.w3.org/2000/svg">
<rect width="116" height="32" rx="16" fill="#FFDDB6"/>
<path d="M16.9689 21V12.36H17.7789L21.1749 19.626L24.5529 12.36H25.3749V20.994H24.5349V14.328L21.4569 21H20.8869L17.8149 14.328V21H16.9689ZM29.7648 21.18C29.1208 21.18 28.5708 21.034 28.1148 20.742C27.6588 20.45 27.3088 20.046 27.0648 19.53C26.8208 19.014 26.6988 18.422 26.6988 17.754C26.6988 17.074 26.8228 16.478 27.0708 15.966C27.3188 15.454 27.6708 15.056 28.1268 14.772C28.5868 14.484 29.1328 14.34 29.7648 14.34C30.4128 14.34 30.9648 14.486 31.4208 14.778C31.8808 15.066 32.2308 15.468 32.4708 15.984C32.7148 16.496 32.8368 17.086 32.8368 17.754C32.8368 18.434 32.7148 19.032 32.4708 19.548C32.2268 20.06 31.8748 20.46 31.4148 20.748C30.9548 21.036 30.4048 21.18 29.7648 21.18ZM29.7648 20.334C30.4848 20.334 31.0208 20.096 31.3728 19.62C31.7248 19.14 31.9008 18.518 31.9008 17.754C31.9008 16.97 31.7228 16.346 31.3668 15.882C31.0148 15.418 30.4808 15.186 29.7648 15.186C29.2808 15.186 28.8808 15.296 28.5648 15.516C28.2528 15.732 28.0188 16.034 27.8628 16.422C27.7108 16.806 27.6348 17.25 27.6348 17.754C27.6348 18.534 27.8148 19.16 28.1748 19.632C28.5348 20.1 29.0648 20.334 29.7648 20.334ZM36.8663 21.18C36.2223 21.18 35.6723 21.034 35.2163 20.742C34.7603 20.45 34.4103 20.046 34.1663 19.53C33.9223 19.014 33.8003 18.422 33.8003 17.754C33.8003 17.074 33.9243 16.478 34.1723 15.966C34.4203 15.454 34.7723 15.056 35.2283 14.772C35.6883 14.484 36.2343 14.34 36.8663 14.34C37.5143 14.34 38.0663 14.486 38.5223 14.778C38.9823 15.066 39.3323 15.468 39.5723 15.984C39.8163 16.496 39.9383 17.086 39.9383 17.754C39.9383 18.434 39.8163 19.032 39.5723 19.548C39.3283 20.06 38.9763 20.46 38.5163 20.748C38.0563 21.036 37.5063 21.18 36.8663 21.18ZM36.8663 20.334C37.5863 20.334 38.1223 20.096 38.4743 19.62C38.8263 19.14 39.0023 18.518 39.0023 17.754C39.0023 16.97 38.8243 16.346 38.4683 15.882C38.1163 15.418 37.5823 15.186 36.8663 15.186C36.3823 15.186 35.9823 15.296 35.6663 15.516C35.3543 15.732 35.1203 16.034 34.9643 16.422C34.8123 16.806 34.7363 17.25 34.7363 17.754C34.7363 18.534 34.9163 19.16 35.2763 19.632C35.6363 20.1 36.1663 20.334 36.8663 20.334ZM43.7759 21.18C43.1719 21.18 42.6559 21.03 42.2279 20.73C41.7999 20.426 41.4719 20.016 41.2439 19.5C41.0159 18.984 40.9019 18.402 40.9019 17.754C40.9019 17.11 41.0139 16.53 41.2379 16.014C41.4659 15.498 41.7919 15.09 42.2159 14.79C42.6399 14.49 43.1479 14.34 43.7399 14.34C44.3479 14.34 44.8599 14.488 45.2759 14.784C45.6919 15.08 46.0059 15.486 46.2179 16.002C46.4339 16.514 46.5419 17.098 46.5419 17.754C46.5419 18.398 46.4359 18.98 46.2239 19.5C46.0119 20.016 45.6999 20.426 45.2879 20.73C44.8759 21.03 44.3719 21.18 43.7759 21.18ZM43.8659 20.358C44.3259 20.358 44.7059 20.246 45.0059 20.022C45.3059 19.798 45.5299 19.49 45.6779 19.098C45.8259 18.702 45.8999 18.254 45.8999 17.754C45.8999 17.246 45.8259 16.798 45.6779 16.41C45.5299 16.018 45.3059 15.712 45.0059 15.492C44.7099 15.272 44.3359 15.162 43.8839 15.162C43.4199 15.162 43.0359 15.276 42.7319 15.504C42.4279 15.732 42.2019 16.042 42.0539 16.434C41.9099 16.826 41.8379 17.266 41.8379 17.754C41.8379 18.246 41.9119 18.69 42.0599 19.086C42.2119 19.478 42.4379 19.788 42.7379 20.016C43.0379 20.244 43.4139 20.358 43.8659 20.358ZM45.8999 21V16.122H45.8039V12.36H46.6919V21H45.8999ZM54.2755 21.18C53.4155 21.18 52.6895 20.99 52.0975 20.61C51.5055 20.226 51.0575 19.696 50.7535 19.02C50.4495 18.344 50.2975 17.564 50.2975 16.68C50.2975 15.796 50.4495 15.016 50.7535 14.34C51.0575 13.664 51.5055 13.136 52.0975 12.756C52.6895 12.372 53.4155 12.18 54.2755 12.18C55.2795 12.18 56.0995 12.438 56.7355 12.954C57.3715 13.466 57.8075 14.154 58.0435 15.018L57.1435 15.252C56.9595 14.568 56.6295 14.026 56.1535 13.626C55.6775 13.226 55.0515 13.026 54.2755 13.026C53.5995 13.026 53.0375 13.18 52.5895 13.488C52.1415 13.796 51.8035 14.226 51.5755 14.778C51.3515 15.326 51.2355 15.96 51.2275 16.68C51.2235 17.4 51.3335 18.034 51.5575 18.582C51.7855 19.13 52.1255 19.56 52.5775 19.872C53.0335 20.18 53.5995 20.334 54.2755 20.334C55.0515 20.334 55.6775 20.134 56.1535 19.734C56.6295 19.33 56.9595 18.788 57.1435 18.108L58.0435 18.342C57.8075 19.206 57.3715 19.896 56.7355 20.412C56.0995 20.924 55.2795 21.18 54.2755 21.18ZM64.0473 21V17.694C64.0473 17.334 64.0133 17.004 63.9453 16.704C63.8773 16.4 63.7673 16.136 63.6153 15.912C63.4673 15.684 63.2733 15.508 63.0333 15.384C62.7973 15.26 62.5093 15.198 62.1693 15.198C61.8573 15.198 61.5813 15.252 61.3413 15.36C61.1053 15.468 60.9053 15.624 60.7413 15.828C60.5813 16.028 60.4593 16.272 60.3753 16.56C60.2913 16.848 60.2493 17.176 60.2493 17.544L59.6253 17.406C59.6253 16.742 59.7413 16.184 59.9733 15.732C60.2053 15.28 60.5253 14.938 60.9333 14.706C61.3413 14.474 61.8093 14.358 62.3373 14.358C62.7253 14.358 63.0633 14.418 63.3513 14.538C63.6433 14.658 63.8893 14.82 64.0893 15.024C64.2933 15.228 64.4573 15.462 64.5813 15.726C64.7053 15.986 64.7953 16.264 64.8513 16.56C64.9073 16.852 64.9353 17.144 64.9353 17.436V21H64.0473ZM59.3613 21V12.36H60.1593V17.238H60.2493V21H59.3613ZM69.2343 21.18C68.6023 21.18 68.0543 21.04 67.5903 20.76C67.1303 20.48 66.7723 20.086 66.5163 19.578C66.2603 19.07 66.1323 18.474 66.1323 17.79C66.1323 17.082 66.2583 16.47 66.5103 15.954C66.7623 15.438 67.1163 15.04 67.5723 14.76C68.0323 14.48 68.5743 14.34 69.1983 14.34C69.8383 14.34 70.3843 14.488 70.8363 14.784C71.2883 15.076 71.6303 15.496 71.8623 16.044C72.0943 16.592 72.2003 17.246 72.1803 18.006H71.2803V17.694C71.2643 16.854 71.0823 16.22 70.7343 15.792C70.3903 15.364 69.8863 15.15 69.2223 15.15C68.5263 15.15 67.9923 15.376 67.6203 15.828C67.2523 16.28 67.0683 16.924 67.0683 17.76C67.0683 18.576 67.2523 19.21 67.6203 19.662C67.9923 20.11 68.5183 20.334 69.1983 20.334C69.6623 20.334 70.0663 20.228 70.4103 20.016C70.7583 19.8 71.0323 19.49 71.2323 19.086L72.0543 19.404C71.7983 19.968 71.4203 20.406 70.9203 20.718C70.4243 21.026 69.8623 21.18 69.2343 21.18ZM66.7563 18.006V17.268H71.7063V18.006H66.7563ZM76.1999 21.18C75.5479 21.18 74.9959 21.034 74.5439 20.742C74.0919 20.45 73.7479 20.048 73.5119 19.536C73.2799 19.02 73.1599 18.428 73.1519 17.76C73.1599 17.08 73.2839 16.484 73.5239 15.972C73.7639 15.456 74.1099 15.056 74.5619 14.772C75.0139 14.484 75.5619 14.34 76.2059 14.34C76.8619 14.34 77.4319 14.5 77.9159 14.82C78.4039 15.14 78.7379 15.578 78.9179 16.134L78.0539 16.41C77.9019 16.022 77.6599 15.722 77.3279 15.51C76.9999 15.294 76.6239 15.186 76.1999 15.186C75.7239 15.186 75.3299 15.296 75.0179 15.516C74.7059 15.732 74.4739 16.034 74.3219 16.422C74.1699 16.81 74.0919 17.256 74.0879 17.76C74.0959 18.536 74.2759 19.16 74.6279 19.632C74.9799 20.1 75.5039 20.334 76.1999 20.334C76.6399 20.334 77.0139 20.234 77.3219 20.034C77.6339 19.83 77.8699 19.534 78.0299 19.146L78.9179 19.41C78.6779 19.986 78.3259 20.426 77.8619 20.73C77.3979 21.03 76.8439 21.18 76.1999 21.18ZM80.1504 21L80.1564 12.36H81.0444V17.64L83.9364 14.52H85.1124L82.0764 17.76L85.5084 21H84.2244L81.0444 17.88V21H80.1504ZM85.6263 17.598V16.842H89.2263V17.598H85.6263ZM90.9053 13.29V12.3H91.7873V13.29H90.9053ZM90.9053 21V14.52H91.7873V21H90.9053ZM98.2661 21V17.694C98.2661 17.334 98.2321 17.004 98.1641 16.704C98.0961 16.4 97.9861 16.136 97.8341 15.912C97.6861 15.684 97.4921 15.508 97.2521 15.384C97.0161 15.26 96.7281 15.198 96.3881 15.198C96.0761 15.198 95.8001 15.252 95.5601 15.36C95.3241 15.468 95.1241 15.624 94.9601 15.828C94.8001 16.028 94.6781 16.272 94.5941 16.56C94.5101 16.848 94.4681 17.176 94.4681 17.544L93.8441 17.406C93.8441 16.742 93.9601 16.184 94.1921 15.732C94.4241 15.28 94.7441 14.938 95.1521 14.706C95.5601 14.474 96.0281 14.358 96.5561 14.358C96.9441 14.358 97.2821 14.418 97.5701 14.538C97.8621 14.658 98.1081 14.82 98.3081 15.024C98.5121 15.228 98.6761 15.462 98.8001 15.726C98.9241 15.986 99.0141 16.264 99.0701 16.56C99.1261 16.852 99.1541 17.144 99.1541 17.436V21H98.2661ZM93.5801 21V14.52H94.3781V16.116H94.4681V21H93.5801Z" fill="#150A02"/>
</svg>
