<svg width="90" height="32" viewBox="0 0 90 32" fill="none" xmlns="http://www.w3.org/2000/svg">
<rect width="90" height="32" rx="16" fill="#FFDDB6"/>
<path d="M18.4469 21.174C17.8709 21.174 17.3769 21.014 16.9649 20.694C16.5529 20.374 16.2749 19.946 16.1309 19.41L17.0129 19.2C17.0849 19.516 17.2509 19.784 17.5109 20.004C17.7749 20.22 18.0849 20.328 18.4409 20.328C18.6649 20.328 18.8909 20.274 19.1189 20.166C19.3509 20.058 19.5329 19.88 19.6649 19.632C19.7529 19.46 19.8029 19.274 19.8149 19.074C19.8309 18.87 19.8389 18.626 19.8389 18.342V12.36H20.7269V18.342C20.7269 18.582 20.7249 18.8 20.7209 18.996C20.7169 19.188 20.6949 19.374 20.6549 19.554C20.6189 19.73 20.5489 19.908 20.4449 20.088C20.2369 20.452 19.9569 20.724 19.6049 20.904C19.2569 21.084 18.8709 21.174 18.4469 21.174ZM25.2433 21.18C24.5993 21.18 24.0493 21.034 23.5933 20.742C23.1373 20.45 22.7873 20.046 22.5433 19.53C22.2993 19.014 22.1773 18.422 22.1773 17.754C22.1773 17.074 22.3013 16.478 22.5493 15.966C22.7973 15.454 23.1493 15.056 23.6053 14.772C24.0653 14.484 24.6113 14.34 25.2433 14.34C25.8913 14.34 26.4433 14.486 26.8993 14.778C27.3593 15.066 27.7093 15.468 27.9493 15.984C28.1933 16.496 28.3153 17.086 28.3153 17.754C28.3153 18.434 28.1933 19.032 27.9493 19.548C27.7053 20.06 27.3533 20.46 26.8933 20.748C26.4333 21.036 25.8833 21.18 25.2433 21.18ZM25.2433 20.334C25.9633 20.334 26.4993 20.096 26.8513 19.62C27.2033 19.14 27.3793 18.518 27.3793 17.754C27.3793 16.97 27.2013 16.346 26.8453 15.882C26.4933 15.418 25.9593 15.186 25.2433 15.186C24.7593 15.186 24.3593 15.296 24.0433 15.516C23.7313 15.732 23.4973 16.034 23.3413 16.422C23.1893 16.806 23.1133 17.25 23.1133 17.754C23.1133 18.534 23.2933 19.16 23.6533 19.632C24.0133 20.1 24.5433 20.334 25.2433 20.334ZM32.1168 21.162C31.7288 21.162 31.3888 21.102 31.0968 20.982C30.8088 20.862 30.5628 20.7 30.3588 20.496C30.1588 20.292 29.9968 20.06 29.8728 19.8C29.7488 19.536 29.6588 19.258 29.6028 18.966C29.5468 18.67 29.5188 18.376 29.5188 18.084V14.52H30.4068V17.826C30.4068 18.182 30.4408 18.512 30.5088 18.816C30.5768 19.12 30.6848 19.386 30.8328 19.614C30.9848 19.838 31.1788 20.012 31.4148 20.136C31.6548 20.26 31.9448 20.322 32.2848 20.322C32.5968 20.322 32.8708 20.268 33.1068 20.16C33.3468 20.052 33.5468 19.898 33.7068 19.698C33.8708 19.494 33.9948 19.248 34.0788 18.96C34.1628 18.668 34.2048 18.34 34.2048 17.976L34.8288 18.114C34.8288 18.778 34.7128 19.336 34.4808 19.788C34.2488 20.24 33.9288 20.582 33.5208 20.814C33.1128 21.046 32.6448 21.162 32.1168 21.162ZM34.2948 21V19.404H34.2048V14.52H35.0868V21H34.2948ZM36.7638 21V14.52H37.5558V16.08L37.3998 15.876C37.4718 15.684 37.5658 15.508 37.6818 15.348C37.7978 15.184 37.9238 15.05 38.0598 14.946C38.2278 14.798 38.4238 14.686 38.6478 14.61C38.8718 14.53 39.0978 14.484 39.3258 14.472C39.5538 14.456 39.7618 14.472 39.9498 14.52V15.348C39.7138 15.288 39.4558 15.274 39.1758 15.306C38.8958 15.338 38.6378 15.45 38.4018 15.642C38.1858 15.81 38.0238 16.012 37.9158 16.248C37.8078 16.48 37.7358 16.728 37.6998 16.992C37.6638 17.252 37.6458 17.51 37.6458 17.766V21H36.7638ZM45.768 21V17.694C45.768 17.334 45.734 17.004 45.666 16.704C45.598 16.4 45.488 16.136 45.336 15.912C45.188 15.684 44.994 15.508 44.754 15.384C44.518 15.26 44.23 15.198 43.89 15.198C43.578 15.198 43.302 15.252 43.062 15.36C42.826 15.468 42.626 15.624 42.462 15.828C42.302 16.028 42.18 16.272 42.096 16.56C42.012 16.848 41.97 17.176 41.97 17.544L41.346 17.406C41.346 16.742 41.462 16.184 41.694 15.732C41.926 15.28 42.246 14.938 42.654 14.706C43.062 14.474 43.53 14.358 44.058 14.358C44.446 14.358 44.784 14.418 45.072 14.538C45.364 14.658 45.61 14.82 45.81 15.024C46.014 15.228 46.178 15.462 46.302 15.726C46.426 15.986 46.516 16.264 46.572 16.56C46.628 16.852 46.656 17.144 46.656 17.436V21H45.768ZM41.082 21V14.52H41.88V16.116H41.97V21H41.082ZM50.067 21.18C49.579 21.18 49.169 21.092 48.837 20.916C48.509 20.74 48.263 20.506 48.099 20.214C47.935 19.922 47.853 19.604 47.853 19.26C47.853 18.908 47.923 18.608 48.063 18.36C48.207 18.108 48.401 17.902 48.645 17.742C48.893 17.582 49.179 17.46 49.503 17.376C49.831 17.296 50.193 17.226 50.589 17.166C50.989 17.102 51.379 17.048 51.759 17.004C52.143 16.956 52.479 16.91 52.767 16.866L52.455 17.058C52.467 16.418 52.343 15.944 52.083 15.636C51.823 15.328 51.371 15.174 50.727 15.174C50.283 15.174 49.907 15.274 49.599 15.474C49.295 15.674 49.081 15.99 48.957 16.422L48.099 16.17C48.247 15.59 48.545 15.14 48.993 14.82C49.441 14.5 50.023 14.34 50.739 14.34C51.331 14.34 51.833 14.452 52.245 14.676C52.661 14.896 52.955 15.216 53.127 15.636C53.207 15.824 53.259 16.034 53.283 16.266C53.307 16.498 53.319 16.734 53.319 16.974V21H52.533V19.374L52.761 19.47C52.541 20.026 52.199 20.45 51.735 20.742C51.271 21.034 50.715 21.18 50.067 21.18ZM50.169 20.418C50.581 20.418 50.941 20.344 51.249 20.196C51.557 20.048 51.805 19.846 51.993 19.59C52.181 19.33 52.303 19.038 52.359 18.714C52.407 18.506 52.433 18.278 52.437 18.03C52.441 17.778 52.443 17.59 52.443 17.466L52.779 17.64C52.479 17.68 52.153 17.72 51.801 17.76C51.453 17.8 51.109 17.846 50.769 17.898C50.433 17.95 50.129 18.012 49.857 18.084C49.673 18.136 49.495 18.21 49.323 18.306C49.151 18.398 49.009 18.522 48.897 18.678C48.789 18.834 48.735 19.028 48.735 19.26C48.735 19.448 48.781 19.63 48.873 19.806C48.969 19.982 49.121 20.128 49.329 20.244C49.541 20.36 49.821 20.418 50.169 20.418ZM55.001 21V12.18H55.883V21H55.001ZM57.8018 13.29V12.3H58.6838V13.29H57.8018ZM57.8018 21V14.52H58.6838V21H57.8018ZM65.1626 21V17.694C65.1626 17.334 65.1286 17.004 65.0606 16.704C64.9926 16.4 64.8826 16.136 64.7306 15.912C64.5826 15.684 64.3886 15.508 64.1486 15.384C63.9126 15.26 63.6246 15.198 63.2846 15.198C62.9726 15.198 62.6966 15.252 62.4566 15.36C62.2206 15.468 62.0206 15.624 61.8566 15.828C61.6966 16.028 61.5746 16.272 61.4906 16.56C61.4066 16.848 61.3646 17.176 61.3646 17.544L60.7406 17.406C60.7406 16.742 60.8566 16.184 61.0886 15.732C61.3206 15.28 61.6406 14.938 62.0486 14.706C62.4566 14.474 62.9246 14.358 63.4526 14.358C63.8406 14.358 64.1786 14.418 64.4666 14.538C64.7586 14.658 65.0046 14.82 65.2046 15.024C65.4086 15.228 65.5726 15.462 65.6966 15.726C65.8206 15.986 65.9106 16.264 65.9666 16.56C66.0226 16.852 66.0506 17.144 66.0506 17.436V21H65.1626ZM60.4766 21V14.52H61.2746V16.116H61.3646V21H60.4766ZM70.1816 24.06C69.8496 24.06 69.5216 24.01 69.1976 23.91C68.8776 23.814 68.5816 23.66 68.3096 23.448C68.0376 23.24 67.8096 22.968 67.6256 22.632L68.4236 22.188C68.6036 22.548 68.8556 22.806 69.1796 22.962C69.5076 23.122 69.8416 23.202 70.1816 23.202C70.6496 23.202 71.0276 23.114 71.3156 22.938C71.6076 22.766 71.8196 22.51 71.9516 22.17C72.0836 21.83 72.1476 21.406 72.1436 20.898V19.17H72.2456V14.52H73.0316V20.91C73.0316 21.094 73.0256 21.27 73.0136 21.438C73.0056 21.61 72.9876 21.778 72.9596 21.942C72.8836 22.426 72.7256 22.824 72.4856 23.136C72.2496 23.448 71.9376 23.68 71.5496 23.832C71.1656 23.984 70.7096 24.06 70.1816 24.06ZM70.1216 21.18C69.5176 21.18 69.0016 21.03 68.5736 20.73C68.1456 20.426 67.8176 20.016 67.5896 19.5C67.3616 18.984 67.2476 18.402 67.2476 17.754C67.2476 17.11 67.3596 16.53 67.5836 16.014C67.8116 15.498 68.1376 15.09 68.5616 14.79C68.9856 14.49 69.4936 14.34 70.0856 14.34C70.6936 14.34 71.2056 14.488 71.6216 14.784C72.0376 15.08 72.3516 15.486 72.5636 16.002C72.7796 16.514 72.8876 17.098 72.8876 17.754C72.8876 18.398 72.7816 18.98 72.5696 19.5C72.3576 20.016 72.0456 20.426 71.6336 20.73C71.2216 21.03 70.7176 21.18 70.1216 21.18ZM70.2116 20.358C70.6716 20.358 71.0516 20.246 71.3516 20.022C71.6516 19.798 71.8756 19.49 72.0236 19.098C72.1716 18.702 72.2456 18.254 72.2456 17.754C72.2456 17.246 72.1716 16.798 72.0236 16.41C71.8756 16.018 71.6516 15.712 71.3516 15.492C71.0556 15.272 70.6816 15.162 70.2296 15.162C69.7656 15.162 69.3816 15.276 69.0776 15.504C68.7736 15.732 68.5476 16.042 68.3996 16.434C68.2556 16.826 68.1836 17.266 68.1836 17.754C68.1836 18.246 68.2576 18.69 68.4056 19.086C68.5576 19.478 68.7836 19.788 69.0836 20.016C69.3836 20.244 69.7596 20.358 70.2116 20.358Z" fill="#150A02"/>
</svg>
