<svg width="173" height="32" viewBox="0 0 173 32" fill="none" xmlns="http://www.w3.org/2000/svg">
<rect width="173" height="32" rx="16" fill="#FFDDB6"/>
<path d="M20.5196 21.18C19.6596 21.18 18.9336 20.99 18.3416 20.61C17.7496 20.226 17.3016 19.696 16.9976 19.02C16.6936 18.344 16.5416 17.564 16.5416 16.68C16.5416 15.796 16.6936 15.016 16.9976 14.34C17.3016 13.664 17.7496 13.136 18.3416 12.756C18.9336 12.372 19.6596 12.18 20.5196 12.18C21.5236 12.18 22.3436 12.438 22.9796 12.954C23.6156 13.466 24.0516 14.154 24.2876 15.018L23.3876 15.252C23.2036 14.568 22.8736 14.026 22.3976 13.626C21.9216 13.226 21.2956 13.026 20.5196 13.026C19.8436 13.026 19.2816 13.18 18.8336 13.488C18.3856 13.796 18.0476 14.226 17.8196 14.778C17.5956 15.326 17.4796 15.96 17.4716 16.68C17.4676 17.4 17.5776 18.034 17.8016 18.582C18.0296 19.13 18.3696 19.56 18.8216 19.872C19.2776 20.18 19.8436 20.334 20.5196 20.334C21.2956 20.334 21.9216 20.134 22.3976 19.734C22.8736 19.33 23.2036 18.788 23.3876 18.108L24.2876 18.342C24.0516 19.206 23.6156 19.896 22.9796 20.412C22.3436 20.924 21.5236 21.18 20.5196 21.18ZM28.3175 21.18C27.6735 21.18 27.1235 21.034 26.6675 20.742C26.2115 20.45 25.8615 20.046 25.6175 19.53C25.3735 19.014 25.2515 18.422 25.2515 17.754C25.2515 17.074 25.3755 16.478 25.6235 15.966C25.8715 15.454 26.2235 15.056 26.6795 14.772C27.1395 14.484 27.6855 14.34 28.3175 14.34C28.9655 14.34 29.5175 14.486 29.9735 14.778C30.4335 15.066 30.7835 15.468 31.0235 15.984C31.2675 16.496 31.3895 17.086 31.3895 17.754C31.3895 18.434 31.2675 19.032 31.0235 19.548C30.7795 20.06 30.4275 20.46 29.9675 20.748C29.5075 21.036 28.9575 21.18 28.3175 21.18ZM28.3175 20.334C29.0375 20.334 29.5735 20.096 29.9255 19.62C30.2775 19.14 30.4535 18.518 30.4535 17.754C30.4535 16.97 30.2755 16.346 29.9195 15.882C29.5675 15.418 29.0335 15.186 28.3175 15.186C27.8335 15.186 27.4335 15.296 27.1175 15.516C26.8055 15.732 26.5715 16.034 26.4155 16.422C26.2635 16.806 26.1875 17.25 26.1875 17.754C26.1875 18.534 26.3675 19.16 26.7275 19.632C27.0875 20.1 27.6175 20.334 28.3175 20.334ZM40.441 21L40.447 16.746C40.447 16.246 40.307 15.854 40.027 15.57C39.751 15.282 39.399 15.138 38.971 15.138C38.727 15.138 38.489 15.194 38.257 15.306C38.025 15.418 37.833 15.598 37.681 15.846C37.533 16.094 37.459 16.418 37.459 16.818L36.937 16.668C36.925 16.204 37.015 15.798 37.207 15.45C37.403 15.102 37.671 14.832 38.011 14.64C38.355 14.444 38.743 14.346 39.175 14.346C39.827 14.346 40.349 14.548 40.741 14.952C41.133 15.352 41.329 15.894 41.329 16.578L41.323 21H40.441ZM32.707 21V14.52H33.499V16.116H33.595V21H32.707ZM36.583 21L36.589 16.806C36.589 16.29 36.451 15.884 36.175 15.588C35.903 15.288 35.543 15.138 35.095 15.138C34.647 15.138 34.285 15.292 34.009 15.6C33.733 15.904 33.595 16.31 33.595 16.818L33.067 16.53C33.067 16.114 33.165 15.742 33.361 15.414C33.557 15.082 33.825 14.822 34.165 14.634C34.505 14.442 34.891 14.346 35.323 14.346C35.735 14.346 36.101 14.434 36.421 14.61C36.745 14.786 36.999 15.042 37.183 15.378C37.367 15.714 37.459 16.122 37.459 16.602L37.453 21H36.583ZM45.7949 21.18C45.1989 21.18 44.6949 21.03 44.2829 20.73C43.8709 20.426 43.5589 20.016 43.3469 19.5C43.1349 18.98 43.0289 18.398 43.0289 17.754C43.0289 17.098 43.1349 16.514 43.3469 16.002C43.5629 15.486 43.8789 15.08 44.2949 14.784C44.7109 14.488 45.2229 14.34 45.8309 14.34C46.4229 14.34 46.9309 14.49 47.3549 14.79C47.7789 15.09 48.1029 15.498 48.3269 16.014C48.5549 16.53 48.6689 17.11 48.6689 17.754C48.6689 18.402 48.5549 18.984 48.3269 19.5C48.0989 20.016 47.7709 20.426 47.3429 20.73C46.9149 21.03 46.3989 21.18 45.7949 21.18ZM42.8789 23.88V14.52H43.6709V19.398H43.7669V23.88H42.8789ZM45.7049 20.358C46.1569 20.358 46.5329 20.244 46.8329 20.016C47.1329 19.788 47.3569 19.478 47.5049 19.086C47.6569 18.69 47.7329 18.246 47.7329 17.754C47.7329 17.266 47.6589 16.826 47.5109 16.434C47.3629 16.042 47.1369 15.732 46.8329 15.504C46.5329 15.276 46.1509 15.162 45.6869 15.162C45.2349 15.162 44.8589 15.272 44.5589 15.492C44.2629 15.712 44.0409 16.018 43.8929 16.41C43.7449 16.798 43.6709 17.246 43.6709 17.754C43.6709 18.254 43.7449 18.702 43.8929 19.098C44.0409 19.49 44.2649 19.798 44.5649 20.022C44.8649 20.246 45.2449 20.358 45.7049 20.358ZM50.1065 21V12.18H50.9885V21H50.1065ZM55.5293 21.18C54.8973 21.18 54.3493 21.04 53.8853 20.76C53.4253 20.48 53.0673 20.086 52.8113 19.578C52.5553 19.07 52.4273 18.474 52.4273 17.79C52.4273 17.082 52.5533 16.47 52.8053 15.954C53.0573 15.438 53.4113 15.04 53.8673 14.76C54.3273 14.48 54.8693 14.34 55.4933 14.34C56.1333 14.34 56.6793 14.488 57.1313 14.784C57.5833 15.076 57.9253 15.496 58.1573 16.044C58.3893 16.592 58.4953 17.246 58.4753 18.006H57.5753V17.694C57.5593 16.854 57.3773 16.22 57.0293 15.792C56.6853 15.364 56.1813 15.15 55.5173 15.15C54.8213 15.15 54.2873 15.376 53.9153 15.828C53.5473 16.28 53.3633 16.924 53.3633 17.76C53.3633 18.576 53.5473 19.21 53.9153 19.662C54.2873 20.11 54.8133 20.334 55.4933 20.334C55.9573 20.334 56.3613 20.228 56.7053 20.016C57.0533 19.8 57.3273 19.49 57.5273 19.086L58.3493 19.404C58.0933 19.968 57.7153 20.406 57.2153 20.718C56.7193 21.026 56.1573 21.18 55.5293 21.18ZM53.0513 18.006V17.268H58.0013V18.006H53.0513ZM63.3348 21C62.9708 21.076 62.6108 21.106 62.2548 21.09C61.9028 21.074 61.5868 20.998 61.3068 20.862C61.0308 20.726 60.8208 20.514 60.6768 20.226C60.5608 19.986 60.4968 19.744 60.4848 19.5C60.4768 19.252 60.4728 18.97 60.4728 18.654V12.72H61.3488V18.618C61.3488 18.89 61.3508 19.118 61.3548 19.302C61.3628 19.482 61.4048 19.642 61.4808 19.782C61.6248 20.05 61.8528 20.21 62.1648 20.262C62.4808 20.314 62.8708 20.302 63.3348 20.226V21ZM59.0868 15.276V14.52H63.3348V15.276H59.0868ZM67.1191 21.18C66.4871 21.18 65.9391 21.04 65.4751 20.76C65.0151 20.48 64.6571 20.086 64.4011 19.578C64.1451 19.07 64.0171 18.474 64.0171 17.79C64.0171 17.082 64.1431 16.47 64.3951 15.954C64.6471 15.438 65.0011 15.04 65.4571 14.76C65.9171 14.48 66.4591 14.34 67.0831 14.34C67.7231 14.34 68.2691 14.488 68.7211 14.784C69.1731 15.076 69.5151 15.496 69.7471 16.044C69.9791 16.592 70.0851 17.246 70.0651 18.006H69.1651V17.694C69.1491 16.854 68.9671 16.22 68.6191 15.792C68.2751 15.364 67.7711 15.15 67.1071 15.15C66.4111 15.15 65.8771 15.376 65.5051 15.828C65.1371 16.28 64.9531 16.924 64.9531 17.76C64.9531 18.576 65.1371 19.21 65.5051 19.662C65.8771 20.11 66.4031 20.334 67.0831 20.334C67.5471 20.334 67.9511 20.228 68.2951 20.016C68.6431 19.8 68.9171 19.49 69.1171 19.086L69.9391 19.404C69.6831 19.968 69.3051 20.406 68.8051 20.718C68.3091 21.026 67.7471 21.18 67.1191 21.18ZM64.6411 18.006V17.268H69.5911V18.006H64.6411ZM75.653 21.18C75.165 21.18 74.755 21.092 74.423 20.916C74.095 20.74 73.849 20.506 73.685 20.214C73.521 19.922 73.439 19.604 73.439 19.26C73.439 18.908 73.509 18.608 73.649 18.36C73.793 18.108 73.987 17.902 74.231 17.742C74.479 17.582 74.765 17.46 75.089 17.376C75.417 17.296 75.779 17.226 76.175 17.166C76.575 17.102 76.965 17.048 77.345 17.004C77.729 16.956 78.065 16.91 78.353 16.866L78.041 17.058C78.053 16.418 77.929 15.944 77.669 15.636C77.409 15.328 76.957 15.174 76.313 15.174C75.869 15.174 75.493 15.274 75.185 15.474C74.881 15.674 74.667 15.99 74.543 16.422L73.685 16.17C73.833 15.59 74.131 15.14 74.579 14.82C75.027 14.5 75.609 14.34 76.325 14.34C76.917 14.34 77.419 14.452 77.831 14.676C78.247 14.896 78.541 15.216 78.713 15.636C78.793 15.824 78.845 16.034 78.869 16.266C78.893 16.498 78.905 16.734 78.905 16.974V21H78.119V19.374L78.347 19.47C78.127 20.026 77.785 20.45 77.321 20.742C76.857 21.034 76.301 21.18 75.653 21.18ZM75.755 20.418C76.167 20.418 76.527 20.344 76.835 20.196C77.143 20.048 77.391 19.846 77.579 19.59C77.767 19.33 77.889 19.038 77.945 18.714C77.993 18.506 78.019 18.278 78.023 18.03C78.027 17.778 78.029 17.59 78.029 17.466L78.365 17.64C78.065 17.68 77.739 17.72 77.387 17.76C77.039 17.8 76.695 17.846 76.355 17.898C76.019 17.95 75.715 18.012 75.443 18.084C75.259 18.136 75.081 18.21 74.909 18.306C74.737 18.398 74.595 18.522 74.483 18.678C74.375 18.834 74.321 19.028 74.321 19.26C74.321 19.448 74.367 19.63 74.459 19.806C74.555 19.982 74.707 20.128 74.915 20.244C75.127 20.36 75.407 20.418 75.755 20.418ZM82.8693 21V12.36H85.4913C85.5833 12.36 85.7393 12.362 85.9593 12.366C86.1833 12.37 86.3973 12.386 86.6013 12.414C87.2573 12.506 87.8053 12.75 88.2453 13.146C88.6853 13.542 89.0153 14.046 89.2353 14.658C89.4553 15.27 89.5653 15.944 89.5653 16.68C89.5653 17.416 89.4553 18.09 89.2353 18.702C89.0153 19.314 88.6853 19.818 88.2453 20.214C87.8053 20.61 87.2573 20.854 86.6013 20.946C86.4013 20.97 86.1873 20.986 85.9593 20.994C85.7313 20.998 85.5753 21 85.4913 21H82.8693ZM83.7813 20.154H85.4913C85.6553 20.154 85.8313 20.15 86.0193 20.142C86.2113 20.13 86.3753 20.11 86.5113 20.082C87.0153 19.994 87.4213 19.79 87.7293 19.47C88.0413 19.15 88.2693 18.75 88.4133 18.27C88.5573 17.786 88.6293 17.256 88.6293 16.68C88.6293 16.1 88.5573 15.568 88.4133 15.084C88.2693 14.6 88.0413 14.2 87.7293 13.884C87.4173 13.568 87.0113 13.366 86.5113 13.278C86.3753 13.25 86.2093 13.232 86.0133 13.224C85.8213 13.212 85.6473 13.206 85.4913 13.206H83.7813V20.154ZM92.7858 21.18C92.2978 21.18 91.8878 21.092 91.5558 20.916C91.2278 20.74 90.9818 20.506 90.8178 20.214C90.6538 19.922 90.5718 19.604 90.5718 19.26C90.5718 18.908 90.6418 18.608 90.7818 18.36C90.9258 18.108 91.1198 17.902 91.3638 17.742C91.6118 17.582 91.8978 17.46 92.2218 17.376C92.5498 17.296 92.9118 17.226 93.3078 17.166C93.7078 17.102 94.0978 17.048 94.4778 17.004C94.8618 16.956 95.1978 16.91 95.4858 16.866L95.1738 17.058C95.1858 16.418 95.0618 15.944 94.8018 15.636C94.5418 15.328 94.0898 15.174 93.4458 15.174C93.0018 15.174 92.6258 15.274 92.3178 15.474C92.0138 15.674 91.7998 15.99 91.6758 16.422L90.8178 16.17C90.9658 15.59 91.2638 15.14 91.7118 14.82C92.1598 14.5 92.7418 14.34 93.4578 14.34C94.0498 14.34 94.5518 14.452 94.9638 14.676C95.3798 14.896 95.6738 15.216 95.8458 15.636C95.9258 15.824 95.9778 16.034 96.0018 16.266C96.0258 16.498 96.0378 16.734 96.0378 16.974V21H95.2518V19.374L95.4798 19.47C95.2598 20.026 94.9178 20.45 94.4538 20.742C93.9898 21.034 93.4338 21.18 92.7858 21.18ZM92.8878 20.418C93.2998 20.418 93.6598 20.344 93.9678 20.196C94.2758 20.048 94.5238 19.846 94.7118 19.59C94.8998 19.33 95.0218 19.038 95.0778 18.714C95.1258 18.506 95.1518 18.278 95.1558 18.03C95.1598 17.778 95.1618 17.59 95.1618 17.466L95.4978 17.64C95.1978 17.68 94.8718 17.72 94.5198 17.76C94.1718 17.8 93.8278 17.846 93.4878 17.898C93.1518 17.95 92.8478 18.012 92.5758 18.084C92.3918 18.136 92.2138 18.21 92.0418 18.306C91.8698 18.398 91.7278 18.522 91.6158 18.678C91.5078 18.834 91.4538 19.028 91.4538 19.26C91.4538 19.448 91.4998 19.63 91.5918 19.806C91.6878 19.982 91.8398 20.128 92.0478 20.244C92.2598 20.36 92.5398 20.418 92.8878 20.418ZM97.7198 13.29V12.3H98.6018V13.29H97.7198ZM97.7198 21V14.52H98.6018V21H97.7198ZM100.521 21V12.18H101.403V21H100.521ZM104.125 23.88L105.379 20.478L105.397 21.486L102.559 14.52H103.495L105.823 20.346H105.439L107.587 14.52H108.487L105.007 23.88H104.125ZM111.932 21V12.36H115.268C115.352 12.36 115.446 12.364 115.55 12.372C115.658 12.376 115.766 12.388 115.874 12.408C116.326 12.476 116.708 12.634 117.02 12.882C117.336 13.126 117.574 13.434 117.734 13.806C117.898 14.178 117.98 14.59 117.98 15.042C117.98 15.49 117.898 15.9 117.734 16.272C117.57 16.644 117.33 16.954 117.014 17.202C116.702 17.446 116.322 17.602 115.874 17.67C115.766 17.686 115.658 17.698 115.55 17.706C115.446 17.714 115.352 17.718 115.268 17.718H112.814V21H111.932ZM112.814 16.878H115.244C115.316 16.878 115.4 16.874 115.496 16.866C115.592 16.858 115.686 16.844 115.778 16.824C116.074 16.76 116.316 16.638 116.504 16.458C116.696 16.278 116.838 16.064 116.93 15.816C117.026 15.568 117.074 15.31 117.074 15.042C117.074 14.774 117.026 14.516 116.93 14.268C116.838 14.016 116.696 13.8 116.504 13.62C116.316 13.44 116.074 13.318 115.778 13.254C115.686 13.234 115.592 13.222 115.496 13.218C115.4 13.21 115.316 13.206 115.244 13.206H112.814V16.878ZM119.174 21V14.52H119.966V16.08L119.81 15.876C119.882 15.684 119.976 15.508 120.092 15.348C120.208 15.184 120.334 15.05 120.47 14.946C120.638 14.798 120.834 14.686 121.058 14.61C121.282 14.53 121.508 14.484 121.736 14.472C121.964 14.456 122.172 14.472 122.36 14.52V15.348C122.124 15.288 121.866 15.274 121.586 15.306C121.306 15.338 121.048 15.45 120.812 15.642C120.596 15.81 120.434 16.012 120.326 16.248C120.218 16.48 120.146 16.728 120.11 16.992C120.074 17.252 120.056 17.51 120.056 17.766V21H119.174ZM125.106 21.18C124.618 21.18 124.208 21.092 123.876 20.916C123.548 20.74 123.302 20.506 123.138 20.214C122.974 19.922 122.892 19.604 122.892 19.26C122.892 18.908 122.962 18.608 123.102 18.36C123.246 18.108 123.44 17.902 123.684 17.742C123.932 17.582 124.218 17.46 124.542 17.376C124.87 17.296 125.232 17.226 125.628 17.166C126.028 17.102 126.418 17.048 126.798 17.004C127.182 16.956 127.518 16.91 127.806 16.866L127.494 17.058C127.506 16.418 127.382 15.944 127.122 15.636C126.862 15.328 126.41 15.174 125.766 15.174C125.322 15.174 124.946 15.274 124.638 15.474C124.334 15.674 124.12 15.99 123.996 16.422L123.138 16.17C123.286 15.59 123.584 15.14 124.032 14.82C124.48 14.5 125.062 14.34 125.778 14.34C126.37 14.34 126.872 14.452 127.284 14.676C127.7 14.896 127.994 15.216 128.166 15.636C128.246 15.824 128.298 16.034 128.322 16.266C128.346 16.498 128.358 16.734 128.358 16.974V21H127.572V19.374L127.8 19.47C127.58 20.026 127.238 20.45 126.774 20.742C126.31 21.034 125.754 21.18 125.106 21.18ZM125.208 20.418C125.62 20.418 125.98 20.344 126.288 20.196C126.596 20.048 126.844 19.846 127.032 19.59C127.22 19.33 127.342 19.038 127.398 18.714C127.446 18.506 127.472 18.278 127.476 18.03C127.48 17.778 127.482 17.59 127.482 17.466L127.818 17.64C127.518 17.68 127.192 17.72 126.84 17.76C126.492 17.8 126.148 17.846 125.808 17.898C125.472 17.95 125.168 18.012 124.896 18.084C124.712 18.136 124.534 18.21 124.362 18.306C124.19 18.398 124.048 18.522 123.936 18.678C123.828 18.834 123.774 19.028 123.774 19.26C123.774 19.448 123.82 19.63 123.912 19.806C124.008 19.982 124.16 20.128 124.368 20.244C124.58 20.36 124.86 20.418 125.208 20.418ZM132.608 21.18C131.956 21.18 131.404 21.034 130.952 20.742C130.5 20.45 130.156 20.048 129.92 19.536C129.688 19.02 129.568 18.428 129.56 17.76C129.568 17.08 129.692 16.484 129.932 15.972C130.172 15.456 130.518 15.056 130.97 14.772C131.422 14.484 131.97 14.34 132.614 14.34C133.27 14.34 133.84 14.5 134.324 14.82C134.812 15.14 135.146 15.578 135.326 16.134L134.462 16.41C134.31 16.022 134.068 15.722 133.736 15.51C133.408 15.294 133.032 15.186 132.608 15.186C132.132 15.186 131.738 15.296 131.426 15.516C131.114 15.732 130.882 16.034 130.73 16.422C130.578 16.81 130.5 17.256 130.496 17.76C130.504 18.536 130.684 19.16 131.036 19.632C131.388 20.1 131.912 20.334 132.608 20.334C133.048 20.334 133.422 20.234 133.73 20.034C134.042 19.83 134.278 19.534 134.438 19.146L135.326 19.41C135.086 19.986 134.734 20.426 134.27 20.73C133.806 21.03 133.252 21.18 132.608 21.18ZM140.093 21C139.729 21.076 139.369 21.106 139.013 21.09C138.661 21.074 138.345 20.998 138.065 20.862C137.789 20.726 137.579 20.514 137.435 20.226C137.319 19.986 137.255 19.744 137.243 19.5C137.235 19.252 137.231 18.97 137.231 18.654V12.72H138.107V18.618C138.107 18.89 138.109 19.118 138.113 19.302C138.121 19.482 138.163 19.642 138.239 19.782C138.383 20.05 138.611 20.21 138.923 20.262C139.239 20.314 139.629 20.302 140.093 20.226V21ZM135.845 15.276V14.52H140.093V15.276H135.845ZM141.489 13.29V12.3H142.371V13.29H141.489ZM141.489 21V14.52H142.371V21H141.489ZM146.858 21.18C146.206 21.18 145.654 21.034 145.202 20.742C144.75 20.45 144.406 20.048 144.17 19.536C143.938 19.02 143.818 18.428 143.81 17.76C143.818 17.08 143.942 16.484 144.182 15.972C144.422 15.456 144.768 15.056 145.22 14.772C145.672 14.484 146.22 14.34 146.864 14.34C147.52 14.34 148.09 14.5 148.574 14.82C149.062 15.14 149.396 15.578 149.576 16.134L148.712 16.41C148.56 16.022 148.318 15.722 147.986 15.51C147.658 15.294 147.282 15.186 146.858 15.186C146.382 15.186 145.988 15.296 145.676 15.516C145.364 15.732 145.132 16.034 144.98 16.422C144.828 16.81 144.75 17.256 144.746 17.76C144.754 18.536 144.934 19.16 145.286 19.632C145.638 20.1 146.162 20.334 146.858 20.334C147.298 20.334 147.672 20.234 147.98 20.034C148.292 19.83 148.528 19.534 148.688 19.146L149.576 19.41C149.336 19.986 148.984 20.426 148.52 20.73C148.056 21.03 147.502 21.18 146.858 21.18ZM153.381 21.18C152.749 21.18 152.201 21.04 151.737 20.76C151.277 20.48 150.919 20.086 150.663 19.578C150.407 19.07 150.279 18.474 150.279 17.79C150.279 17.082 150.405 16.47 150.657 15.954C150.909 15.438 151.263 15.04 151.719 14.76C152.179 14.48 152.721 14.34 153.345 14.34C153.985 14.34 154.531 14.488 154.983 14.784C155.435 15.076 155.777 15.496 156.009 16.044C156.241 16.592 156.347 17.246 156.327 18.006H155.427V17.694C155.411 16.854 155.229 16.22 154.881 15.792C154.537 15.364 154.033 15.15 153.369 15.15C152.673 15.15 152.139 15.376 151.767 15.828C151.399 16.28 151.215 16.924 151.215 17.76C151.215 18.576 151.399 19.21 151.767 19.662C152.139 20.11 152.665 20.334 153.345 20.334C153.809 20.334 154.213 20.228 154.557 20.016C154.905 19.8 155.179 19.49 155.379 19.086L156.201 19.404C155.945 19.968 155.567 20.406 155.067 20.718C154.571 21.026 154.009 21.18 153.381 21.18ZM150.903 18.006V17.268H155.853V18.006H150.903Z" fill="#150A02"/>
</svg>
