<svg width="177" height="32" viewBox="0 0 177 32" fill="none" xmlns="http://www.w3.org/2000/svg">
<rect width="177" height="32" rx="16" fill="#F39770"/>
<path d="M17.2463 21V12.36H19.8683C19.9603 12.36 20.1163 12.362 20.3363 12.366C20.5603 12.37 20.7743 12.386 20.9783 12.414C21.6343 12.506 22.1823 12.75 22.6223 13.146C23.0623 13.542 23.3923 14.046 23.6123 14.658C23.8323 15.27 23.9423 15.944 23.9423 16.68C23.9423 17.416 23.8323 18.09 23.6123 18.702C23.3923 19.314 23.0623 19.818 22.6223 20.214C22.1823 20.61 21.6343 20.854 20.9783 20.946C20.7783 20.97 20.5643 20.986 20.3363 20.994C20.1083 20.998 19.9523 21 19.8683 21H17.2463ZM18.1583 20.154H19.8683C20.0323 20.154 20.2083 20.15 20.3963 20.142C20.5883 20.13 20.7523 20.11 20.8883 20.082C21.3923 19.994 21.7983 19.79 22.1063 19.47C22.4183 19.15 22.6463 18.75 22.7903 18.27C22.9343 17.786 23.0063 17.256 23.0063 16.68C23.0063 16.1 22.9343 15.568 22.7903 15.084C22.6463 14.6 22.4183 14.2 22.1063 13.884C21.7943 13.568 21.3883 13.366 20.8883 13.278C20.7523 13.25 20.5863 13.232 20.3903 13.224C20.1983 13.212 20.0243 13.206 19.8683 13.206H18.1583V20.154ZM27.1628 21.18C26.6748 21.18 26.2648 21.092 25.9328 20.916C25.6048 20.74 25.3588 20.506 25.1948 20.214C25.0308 19.922 24.9488 19.604 24.9488 19.26C24.9488 18.908 25.0188 18.608 25.1588 18.36C25.3028 18.108 25.4968 17.902 25.7408 17.742C25.9888 17.582 26.2748 17.46 26.5988 17.376C26.9268 17.296 27.2888 17.226 27.6848 17.166C28.0848 17.102 28.4748 17.048 28.8548 17.004C29.2388 16.956 29.5748 16.91 29.8628 16.866L29.5508 17.058C29.5628 16.418 29.4388 15.944 29.1788 15.636C28.9188 15.328 28.4668 15.174 27.8228 15.174C27.3788 15.174 27.0028 15.274 26.6948 15.474C26.3908 15.674 26.1768 15.99 26.0527 16.422L25.1948 16.17C25.3428 15.59 25.6408 15.14 26.0888 14.82C26.5368 14.5 27.1188 14.34 27.8348 14.34C28.4268 14.34 28.9288 14.452 29.3408 14.676C29.7568 14.896 30.0508 15.216 30.2228 15.636C30.3028 15.824 30.3548 16.034 30.3788 16.266C30.4028 16.498 30.4148 16.734 30.4148 16.974V21H29.6288V19.374L29.8568 19.47C29.6368 20.026 29.2948 20.45 28.8308 20.742C28.3668 21.034 27.8108 21.18 27.1628 21.18ZM27.2648 20.418C27.6768 20.418 28.0368 20.344 28.3448 20.196C28.6528 20.048 28.9008 19.846 29.0888 19.59C29.2768 19.33 29.3988 19.038 29.4548 18.714C29.5028 18.506 29.5288 18.278 29.5328 18.03C29.5368 17.778 29.5388 17.59 29.5388 17.466L29.8748 17.64C29.5748 17.68 29.2488 17.72 28.8968 17.76C28.5488 17.8 28.2048 17.846 27.8648 17.898C27.5288 17.95 27.2248 18.012 26.9528 18.084C26.7688 18.136 26.5908 18.21 26.4188 18.306C26.2468 18.398 26.1048 18.522 25.9928 18.678C25.8848 18.834 25.8308 19.028 25.8308 19.26C25.8308 19.448 25.8768 19.63 25.9688 19.806C26.0648 19.982 26.2168 20.128 26.4248 20.244C26.6368 20.36 26.9168 20.418 27.2648 20.418ZM32.0967 13.29V12.3H32.9787V13.29H32.0967ZM32.0967 21V14.52H32.9787V21H32.0967ZM34.8975 21V12.18H35.7795V21H34.8975ZM38.5023 23.88L39.7563 20.478L39.7743 21.486L36.9363 14.52H37.8723L40.2003 20.346H39.8163L41.9643 14.52H42.8643L39.3843 23.88H38.5023ZM49.3088 21.18C48.7048 21.18 48.1608 21.08 47.6768 20.88C47.1968 20.676 46.7988 20.388 46.4828 20.016C46.1708 19.644 45.9668 19.202 45.8708 18.69L46.7708 18.54C46.9148 19.1 47.2188 19.54 47.6828 19.86C48.1468 20.176 48.7008 20.334 49.3448 20.334C49.7688 20.334 50.1488 20.268 50.4848 20.136C50.8208 20 51.0848 19.808 51.2768 19.56C51.4688 19.312 51.5648 19.018 51.5648 18.678C51.5648 18.454 51.5248 18.264 51.4448 18.108C51.3648 17.948 51.2588 17.816 51.1268 17.712C50.9948 17.608 50.8508 17.522 50.6948 17.454C50.5388 17.382 50.3868 17.324 50.2388 17.28L48.0488 16.626C47.7848 16.55 47.5408 16.454 47.3168 16.338C47.0928 16.218 46.8968 16.076 46.7288 15.912C46.5648 15.744 46.4368 15.548 46.3448 15.324C46.2528 15.1 46.2068 14.844 46.2068 14.556C46.2068 14.068 46.3348 13.646 46.5908 13.29C46.8468 12.934 47.1968 12.66 47.6408 12.468C48.0848 12.276 48.5908 12.182 49.1588 12.186C49.7348 12.186 50.2488 12.288 50.7008 12.492C51.1568 12.696 51.5328 12.988 51.8288 13.368C52.1248 13.744 52.3208 14.19 52.4168 14.706L51.4928 14.874C51.4328 14.498 51.2948 14.172 51.0788 13.896C50.8628 13.62 50.5868 13.408 50.2508 13.26C49.9188 13.108 49.5528 13.03 49.1528 13.026C48.7648 13.026 48.4188 13.092 48.1148 13.224C47.8148 13.352 47.5768 13.528 47.4008 13.752C47.2248 13.976 47.1368 14.232 47.1368 14.52C47.1368 14.812 47.2168 15.046 47.3768 15.222C47.5408 15.398 47.7408 15.536 47.9768 15.636C48.2168 15.736 48.4488 15.818 48.6728 15.882L50.3648 16.38C50.5408 16.428 50.7468 16.498 50.9828 16.59C51.2228 16.678 51.4548 16.806 51.6788 16.974C51.9068 17.138 52.0948 17.354 52.2428 17.622C52.3908 17.89 52.4648 18.23 52.4648 18.642C52.4648 19.042 52.3848 19.4 52.2248 19.716C52.0688 20.032 51.8468 20.298 51.5588 20.514C51.2748 20.73 50.9408 20.894 50.5568 21.006C50.1768 21.122 49.7608 21.18 49.3088 21.18ZM56.1813 21.162C55.7933 21.162 55.4533 21.102 55.1613 20.982C54.8733 20.862 54.6273 20.7 54.4233 20.496C54.2233 20.292 54.0613 20.06 53.9373 19.8C53.8133 19.536 53.7233 19.258 53.6673 18.966C53.6113 18.67 53.5833 18.376 53.5833 18.084V14.52H54.4713V17.826C54.4713 18.182 54.5053 18.512 54.5733 18.816C54.6413 19.12 54.7493 19.386 54.8973 19.614C55.0493 19.838 55.2433 20.012 55.4793 20.136C55.7193 20.26 56.0093 20.322 56.3493 20.322C56.6613 20.322 56.9353 20.268 57.1713 20.16C57.4113 20.052 57.6113 19.898 57.7713 19.698C57.9353 19.494 58.0593 19.248 58.1433 18.96C58.2273 18.668 58.2693 18.34 58.2693 17.976L58.8933 18.114C58.8933 18.778 58.7773 19.336 58.5453 19.788C58.3133 20.24 57.9933 20.582 57.5853 20.814C57.1773 21.046 56.7093 21.162 56.1813 21.162ZM58.3593 21V19.404H58.2693V14.52H59.1513V21H58.3593ZM65.5083 21V17.694C65.5083 17.334 65.4743 17.004 65.4063 16.704C65.3383 16.4 65.2283 16.136 65.0763 15.912C64.9283 15.684 64.7343 15.508 64.4943 15.384C64.2583 15.26 63.9703 15.198 63.6303 15.198C63.3183 15.198 63.0423 15.252 62.8023 15.36C62.5663 15.468 62.3663 15.624 62.2023 15.828C62.0423 16.028 61.9203 16.272 61.8363 16.56C61.7523 16.848 61.7103 17.176 61.7103 17.544L61.0863 17.406C61.0863 16.742 61.2023 16.184 61.4343 15.732C61.6663 15.28 61.9863 14.938 62.3943 14.706C62.8023 14.474 63.2703 14.358 63.7983 14.358C64.1863 14.358 64.5243 14.418 64.8123 14.538C65.1043 14.658 65.3503 14.82 65.5503 15.024C65.7543 15.228 65.9183 15.462 66.0423 15.726C66.1663 15.986 66.2563 16.264 66.3123 16.56C66.3683 16.852 66.3963 17.144 66.3963 17.436V21H65.5083ZM60.8223 21V14.52H61.6203V16.116H61.7103V21H60.8223ZM70.3713 21.174C69.6113 21.174 68.9853 21.01 68.4933 20.682C68.0053 20.354 67.7053 19.898 67.5933 19.314L68.4933 19.164C68.5893 19.532 68.8073 19.826 69.1473 20.046C69.4913 20.262 69.9153 20.37 70.4193 20.37C70.9113 20.37 71.2993 20.268 71.5833 20.064C71.8673 19.856 72.0093 19.574 72.0093 19.218C72.0093 19.018 71.9633 18.856 71.8713 18.732C71.7833 18.604 71.6013 18.486 71.3253 18.378C71.0493 18.27 70.6373 18.142 70.0893 17.994C69.5013 17.834 69.0413 17.674 68.7093 17.514C68.3773 17.354 68.1413 17.17 68.0013 16.962C67.8613 16.75 67.7913 16.492 67.7913 16.188C67.7913 15.82 67.8953 15.498 68.1033 15.222C68.3113 14.942 68.5993 14.726 68.9673 14.574C69.3353 14.418 69.7633 14.34 70.2513 14.34C70.7393 14.34 71.1753 14.42 71.5593 14.58C71.9473 14.736 72.2593 14.956 72.4953 15.24C72.7313 15.524 72.8713 15.854 72.9153 16.23L72.0153 16.392C71.9553 16.012 71.7653 15.712 71.4453 15.492C71.1293 15.268 70.7273 15.152 70.2393 15.144C69.7793 15.132 69.4053 15.22 69.1173 15.408C68.8293 15.592 68.6853 15.838 68.6853 16.146C68.6853 16.318 68.7373 16.466 68.8413 16.59C68.9453 16.71 69.1333 16.824 69.4053 16.932C69.6813 17.04 70.0733 17.158 70.5813 17.286C71.1773 17.438 71.6453 17.598 71.9853 17.766C72.3253 17.934 72.5673 18.132 72.7113 18.36C72.8553 18.588 72.9273 18.87 72.9273 19.206C72.9273 19.818 72.6993 20.3 72.2433 20.652C71.7913 21 71.1673 21.174 70.3713 21.174ZM78.938 21V17.694C78.938 17.334 78.904 17.004 78.836 16.704C78.768 16.4 78.658 16.136 78.506 15.912C78.358 15.684 78.164 15.508 77.924 15.384C77.688 15.26 77.4 15.198 77.06 15.198C76.748 15.198 76.472 15.252 76.232 15.36C75.996 15.468 75.796 15.624 75.632 15.828C75.472 16.028 75.35 16.272 75.266 16.56C75.182 16.848 75.14 17.176 75.14 17.544L74.516 17.406C74.516 16.742 74.632 16.184 74.864 15.732C75.096 15.28 75.416 14.938 75.824 14.706C76.232 14.474 76.7 14.358 77.228 14.358C77.616 14.358 77.954 14.418 78.242 14.538C78.534 14.658 78.78 14.82 78.98 15.024C79.184 15.228 79.348 15.462 79.472 15.726C79.596 15.986 79.686 16.264 79.742 16.56C79.798 16.852 79.826 17.144 79.826 17.436V21H78.938ZM74.252 21V12.36H75.05V17.238H75.14V21H74.252ZM81.503 13.29V12.3H82.385V13.29H81.503ZM81.503 21V14.52H82.385V21H81.503ZM88.8638 21V17.694C88.8638 17.334 88.8298 17.004 88.7618 16.704C88.6938 16.4 88.5838 16.136 88.4318 15.912C88.2838 15.684 88.0898 15.508 87.8498 15.384C87.6138 15.26 87.3258 15.198 86.9858 15.198C86.6738 15.198 86.3978 15.252 86.1578 15.36C85.9218 15.468 85.7218 15.624 85.5578 15.828C85.3978 16.028 85.2758 16.272 85.1918 16.56C85.1078 16.848 85.0658 17.176 85.0658 17.544L84.4418 17.406C84.4418 16.742 84.5578 16.184 84.7898 15.732C85.0218 15.28 85.3418 14.938 85.7498 14.706C86.1578 14.474 86.6258 14.358 87.1538 14.358C87.5418 14.358 87.8798 14.418 88.1678 14.538C88.4598 14.658 88.7058 14.82 88.9058 15.024C89.1098 15.228 89.2738 15.462 89.3978 15.726C89.5218 15.986 89.6118 16.264 89.6678 16.56C89.7238 16.852 89.7518 17.144 89.7518 17.436V21H88.8638ZM84.1778 21V14.52H84.9758V16.116H85.0658V21H84.1778ZM94.0156 21.18C93.3836 21.18 92.8356 21.04 92.3716 20.76C91.9116 20.48 91.5536 20.086 91.2976 19.578C91.0416 19.07 90.9136 18.474 90.9136 17.79C90.9136 17.082 91.0396 16.47 91.2916 15.954C91.5436 15.438 91.8976 15.04 92.3536 14.76C92.8136 14.48 93.3556 14.34 93.9796 14.34C94.6196 14.34 95.1656 14.488 95.6176 14.784C96.0696 15.076 96.4116 15.496 96.6436 16.044C96.8756 16.592 96.9816 17.246 96.9616 18.006H96.0616V17.694C96.0456 16.854 95.8636 16.22 95.5156 15.792C95.1716 15.364 94.6676 15.15 94.0036 15.15C93.3076 15.15 92.7736 15.376 92.4016 15.828C92.0336 16.28 91.8496 16.924 91.8496 17.76C91.8496 18.576 92.0336 19.21 92.4016 19.662C92.7736 20.11 93.2996 20.334 93.9796 20.334C94.4436 20.334 94.8476 20.228 95.1916 20.016C95.5396 19.8 95.8136 19.49 96.0136 19.086L96.8356 19.404C96.5796 19.968 96.2016 20.406 95.7016 20.718C95.2056 21.026 94.6436 21.18 94.0156 21.18ZM91.5376 18.006V17.268H96.4876V18.006H91.5376ZM100.815 21V12.36H101.697V21H100.815ZM108.176 21V17.694C108.176 17.334 108.142 17.004 108.074 16.704C108.006 16.4 107.896 16.136 107.744 15.912C107.596 15.684 107.402 15.508 107.162 15.384C106.926 15.26 106.638 15.198 106.298 15.198C105.986 15.198 105.71 15.252 105.47 15.36C105.234 15.468 105.034 15.624 104.87 15.828C104.71 16.028 104.588 16.272 104.504 16.56C104.42 16.848 104.378 17.176 104.378 17.544L103.754 17.406C103.754 16.742 103.87 16.184 104.102 15.732C104.334 15.28 104.654 14.938 105.062 14.706C105.47 14.474 105.938 14.358 106.466 14.358C106.854 14.358 107.192 14.418 107.48 14.538C107.772 14.658 108.018 14.82 108.218 15.024C108.422 15.228 108.586 15.462 108.71 15.726C108.834 15.986 108.924 16.264 108.98 16.56C109.036 16.852 109.064 17.144 109.064 17.436V21H108.176ZM103.49 21V14.52H104.288V16.116H104.378V21H103.49ZM114.149 21C113.785 21.076 113.425 21.106 113.069 21.09C112.717 21.074 112.401 20.998 112.121 20.862C111.845 20.726 111.635 20.514 111.491 20.226C111.375 19.986 111.311 19.744 111.299 19.5C111.291 19.252 111.287 18.97 111.287 18.654V12.72H112.163V18.618C112.163 18.89 112.165 19.118 112.169 19.302C112.177 19.482 112.219 19.642 112.295 19.782C112.439 20.05 112.667 20.21 112.979 20.262C113.295 20.314 113.685 20.302 114.149 20.226V21ZM109.901 15.276V14.52H114.149V15.276H109.901ZM117.934 21.18C117.302 21.18 116.754 21.04 116.29 20.76C115.83 20.48 115.472 20.086 115.216 19.578C114.96 19.07 114.832 18.474 114.832 17.79C114.832 17.082 114.958 16.47 115.21 15.954C115.462 15.438 115.816 15.04 116.272 14.76C116.732 14.48 117.274 14.34 117.898 14.34C118.538 14.34 119.084 14.488 119.536 14.784C119.988 15.076 120.33 15.496 120.562 16.044C120.794 16.592 120.9 17.246 120.88 18.006H119.98V17.694C119.964 16.854 119.782 16.22 119.434 15.792C119.09 15.364 118.586 15.15 117.922 15.15C117.226 15.15 116.692 15.376 116.32 15.828C115.952 16.28 115.768 16.924 115.768 17.76C115.768 18.576 115.952 19.21 116.32 19.662C116.692 20.11 117.218 20.334 117.898 20.334C118.362 20.334 118.766 20.228 119.11 20.016C119.458 19.8 119.732 19.49 119.932 19.086L120.754 19.404C120.498 19.968 120.12 20.406 119.62 20.718C119.124 21.026 118.562 21.18 117.934 21.18ZM115.456 18.006V17.268H120.406V18.006H115.456ZM122.211 21V14.52H123.003V16.08L122.847 15.876C122.919 15.684 123.013 15.508 123.129 15.348C123.245 15.184 123.371 15.05 123.507 14.946C123.675 14.798 123.871 14.686 124.095 14.61C124.319 14.53 124.545 14.484 124.773 14.472C125.001 14.456 125.209 14.472 125.397 14.52V15.348C125.161 15.288 124.903 15.274 124.623 15.306C124.343 15.338 124.085 15.45 123.849 15.642C123.633 15.81 123.471 16.012 123.363 16.248C123.255 16.48 123.183 16.728 123.147 16.992C123.111 17.252 123.093 17.51 123.093 17.766V21H122.211ZM128.143 21.18C127.655 21.18 127.245 21.092 126.913 20.916C126.585 20.74 126.339 20.506 126.175 20.214C126.011 19.922 125.929 19.604 125.929 19.26C125.929 18.908 125.999 18.608 126.139 18.36C126.283 18.108 126.477 17.902 126.721 17.742C126.969 17.582 127.255 17.46 127.579 17.376C127.907 17.296 128.269 17.226 128.665 17.166C129.065 17.102 129.455 17.048 129.835 17.004C130.219 16.956 130.555 16.91 130.843 16.866L130.531 17.058C130.543 16.418 130.419 15.944 130.159 15.636C129.899 15.328 129.447 15.174 128.803 15.174C128.359 15.174 127.983 15.274 127.675 15.474C127.371 15.674 127.157 15.99 127.033 16.422L126.175 16.17C126.323 15.59 126.621 15.14 127.069 14.82C127.517 14.5 128.099 14.34 128.815 14.34C129.407 14.34 129.909 14.452 130.321 14.676C130.737 14.896 131.031 15.216 131.203 15.636C131.283 15.824 131.335 16.034 131.359 16.266C131.383 16.498 131.395 16.734 131.395 16.974V21H130.609V19.374L130.837 19.47C130.617 20.026 130.275 20.45 129.811 20.742C129.347 21.034 128.791 21.18 128.143 21.18ZM128.245 20.418C128.657 20.418 129.017 20.344 129.325 20.196C129.633 20.048 129.881 19.846 130.069 19.59C130.257 19.33 130.379 19.038 130.435 18.714C130.483 18.506 130.509 18.278 130.513 18.03C130.517 17.778 130.519 17.59 130.519 17.466L130.855 17.64C130.555 17.68 130.229 17.72 129.877 17.76C129.529 17.8 129.185 17.846 128.845 17.898C128.509 17.95 128.205 18.012 127.933 18.084C127.749 18.136 127.571 18.21 127.399 18.306C127.227 18.398 127.085 18.522 126.973 18.678C126.865 18.834 126.811 19.028 126.811 19.26C126.811 19.448 126.857 19.63 126.949 19.806C127.045 19.982 127.197 20.128 127.405 20.244C127.617 20.36 127.897 20.418 128.245 20.418ZM135.645 21.18C134.993 21.18 134.441 21.034 133.989 20.742C133.537 20.45 133.193 20.048 132.957 19.536C132.725 19.02 132.605 18.428 132.597 17.76C132.605 17.08 132.729 16.484 132.969 15.972C133.209 15.456 133.555 15.056 134.007 14.772C134.459 14.484 135.007 14.34 135.651 14.34C136.307 14.34 136.877 14.5 137.361 14.82C137.849 15.14 138.183 15.578 138.363 16.134L137.499 16.41C137.347 16.022 137.105 15.722 136.773 15.51C136.445 15.294 136.069 15.186 135.645 15.186C135.169 15.186 134.775 15.296 134.463 15.516C134.151 15.732 133.919 16.034 133.767 16.422C133.615 16.81 133.537 17.256 133.533 17.76C133.541 18.536 133.721 19.16 134.073 19.632C134.425 20.1 134.949 20.334 135.645 20.334C136.085 20.334 136.459 20.234 136.767 20.034C137.079 19.83 137.315 19.534 137.475 19.146L138.363 19.41C138.123 19.986 137.771 20.426 137.307 20.73C136.843 21.03 136.289 21.18 135.645 21.18ZM143.13 21C142.766 21.076 142.406 21.106 142.05 21.09C141.698 21.074 141.382 20.998 141.102 20.862C140.826 20.726 140.616 20.514 140.472 20.226C140.356 19.986 140.292 19.744 140.28 19.5C140.272 19.252 140.268 18.97 140.268 18.654V12.72H141.144V18.618C141.144 18.89 141.146 19.118 141.15 19.302C141.158 19.482 141.2 19.642 141.276 19.782C141.42 20.05 141.648 20.21 141.96 20.262C142.276 20.314 142.666 20.302 143.13 20.226V21ZM138.882 15.276V14.52H143.13V15.276H138.882ZM144.526 13.29V12.3H145.408V13.29H144.526ZM144.526 21V14.52H145.408V21H144.526ZM149.913 21.18C149.269 21.18 148.719 21.034 148.263 20.742C147.807 20.45 147.457 20.046 147.213 19.53C146.969 19.014 146.847 18.422 146.847 17.754C146.847 17.074 146.971 16.478 147.219 15.966C147.467 15.454 147.819 15.056 148.275 14.772C148.735 14.484 149.281 14.34 149.913 14.34C150.561 14.34 151.113 14.486 151.569 14.778C152.029 15.066 152.379 15.468 152.619 15.984C152.863 16.496 152.985 17.086 152.985 17.754C152.985 18.434 152.863 19.032 152.619 19.548C152.375 20.06 152.023 20.46 151.563 20.748C151.103 21.036 150.553 21.18 149.913 21.18ZM149.913 20.334C150.633 20.334 151.169 20.096 151.521 19.62C151.873 19.14 152.049 18.518 152.049 17.754C152.049 16.97 151.871 16.346 151.515 15.882C151.163 15.418 150.629 15.186 149.913 15.186C149.429 15.186 149.029 15.296 148.713 15.516C148.401 15.732 148.167 16.034 148.011 16.422C147.859 16.806 147.783 17.25 147.783 17.754C147.783 18.534 147.963 19.16 148.323 19.632C148.683 20.1 149.213 20.334 149.913 20.334ZM158.989 21V17.694C158.989 17.334 158.955 17.004 158.887 16.704C158.819 16.4 158.709 16.136 158.557 15.912C158.409 15.684 158.215 15.508 157.975 15.384C157.739 15.26 157.451 15.198 157.111 15.198C156.799 15.198 156.523 15.252 156.283 15.36C156.047 15.468 155.847 15.624 155.683 15.828C155.523 16.028 155.401 16.272 155.317 16.56C155.233 16.848 155.191 17.176 155.191 17.544L154.567 17.406C154.567 16.742 154.683 16.184 154.915 15.732C155.147 15.28 155.467 14.938 155.875 14.706C156.283 14.474 156.751 14.358 157.279 14.358C157.667 14.358 158.005 14.418 158.293 14.538C158.585 14.658 158.831 14.82 159.031 15.024C159.235 15.228 159.399 15.462 159.523 15.726C159.647 15.986 159.737 16.264 159.793 16.56C159.849 16.852 159.877 17.144 159.877 17.436V21H158.989ZM154.303 21V14.52H155.101V16.116H155.191V21H154.303Z" fill="white"/>
</svg>
