<svg width="24" height="24" viewBox="0 0 24 24" fill="none" xmlns="http://www.w3.org/2000/svg">
<g clip-path="url(#clip0_3279_9584)">
<mask id="mask0_3279_9584" style="mask-type:luminance" maskUnits="userSpaceOnUse" x="0" y="0" width="24" height="24">
<path d="M0 1.90735e-06H24V24H0V1.90735e-06Z" fill="white"/>
</mask>
<g mask="url(#mask0_3279_9584)">
<path d="M18.0937 12C18.0937 15.3655 15.3655 18.0938 12 18.0938C8.63452 18.0938 5.90625 15.3655 5.90625 12C5.90625 8.63452 8.63452 5.90625 12 5.90625C15.3655 5.90625 18.0937 8.63452 18.0937 12Z" stroke="#150A02" stroke-miterlimit="10" stroke-linecap="round" stroke-linejoin="round"/>
<path d="M19.0312 21.5133C17.686 22.29 15.9659 21.8291 15.1892 20.4839" stroke="#150A02" stroke-miterlimit="10" stroke-linecap="round" stroke-linejoin="round"/>
<path d="M19.0312 2.48616C17.686 1.70948 15.9659 2.17041 15.1893 3.51562" stroke="#150A02" stroke-miterlimit="10" stroke-linecap="round" stroke-linejoin="round"/>
<path d="M4.96875 21.5133C6.31397 22.29 8.03405 21.8291 8.81072 20.4839" stroke="#150A02" stroke-miterlimit="10" stroke-linecap="round" stroke-linejoin="round"/>
<path d="M4.96875 2.48616C6.31397 1.70948 8.03405 2.17041 8.81072 3.51562" stroke="#150A02" stroke-miterlimit="10" stroke-linecap="round" stroke-linejoin="round"/>
<path d="M12 18.0938V21.3404C12 22.3807 12.8117 23.2866 13.8519 23.2967C13.8596 23.2968 13.8673 23.2969 13.875 23.2969C14.99 23.2969 15.919 22.5165 16.1563 21.4733C16.5841 21.7363 17.0859 21.8906 17.625 21.8906C19.1783 21.8906 20.4375 20.6314 20.4375 19.0781C20.4375 18.347 20.1562 17.6832 19.6989 17.1831C20.6396 17.0825 21.375 16.2955 21.375 15.3281C21.375 14.9276 21.2397 14.5643 21.0247 14.2605C22.0332 13.9986 22.7812 13.0904 22.7812 12C22.7812 10.9096 22.0332 10.0014 21.0247 9.73955C21.2396 9.43575 21.375 9.07233 21.375 8.67188C21.375 7.70442 20.6396 6.91749 19.6989 6.81689C20.1562 6.31674 20.4375 5.65299 20.4375 4.92188C20.4375 3.36858 19.1783 2.10938 17.625 2.10938C17.0859 2.10938 16.5841 2.26369 16.1563 2.52666C15.919 1.4835 14.99 0.703127 13.875 0.703127C13.8673 0.703127 13.8596 0.703174 13.8519 0.703221C12.8117 0.713393 12 1.6193 12 2.65955V5.90625" stroke="#150A02" stroke-miterlimit="10" stroke-linecap="round" stroke-linejoin="round"/>
<path d="M12 12.9375V12.4895C12 12.0027 12.2897 11.5853 12.7098 11.3392C13.1264 11.0952 13.4062 10.6428 13.4062 10.125" stroke="#150A02" stroke-miterlimit="10" stroke-linecap="round" stroke-linejoin="round"/>
<path d="M13.4062 10.125C13.4062 9.34833 12.7767 8.71875 12 8.71875C11.2233 8.71875 10.5938 9.34833 10.5938 10.125" stroke="#150A02" stroke-miterlimit="10" stroke-linecap="round" stroke-linejoin="round"/>
<path d="M12.7031 15.75C12.7031 16.1383 12.3883 16.4531 12 16.4531C11.6117 16.4531 11.2969 16.1383 11.2969 15.75C11.2969 15.3617 11.6117 15.0469 12 15.0469C12.3883 15.0469 12.7031 15.3617 12.7031 15.75Z" fill="#150A02"/>
<path d="M12 5.90625V2.65955C12 1.6193 11.1883 0.713393 10.1481 0.703221C10.1404 0.703174 10.1327 0.703127 10.125 0.703127C9.00998 0.703127 8.08097 1.4835 7.84369 2.52666C7.41586 2.26369 6.91406 2.10938 6.375 2.10938C4.8217 2.10938 3.5625 3.36853 3.5625 4.92188C3.5625 5.65299 3.84384 6.31674 4.30111 6.81689C3.36042 6.91749 2.625 7.70442 2.625 8.67188C2.625 9.07233 2.76038 9.43575 2.9753 9.73955C1.96683 10.0014 1.21875 10.9096 1.21875 12C1.21875 13.0904 1.96678 13.9986 2.97525 14.2605C2.76033 14.5643 2.625 14.9276 2.625 15.3281C2.625 16.2955 3.36037 17.0825 4.30106 17.1831C3.8438 17.6832 3.5625 18.347 3.5625 19.0781C3.5625 20.6314 4.8217 21.8906 6.375 21.8906C6.91406 21.8906 7.41586 21.7363 7.84369 21.4733C8.08097 22.5165 9.00998 23.2969 10.125 23.2969C10.1327 23.2969 10.1404 23.2968 10.1481 23.2967C11.1883 23.2866 12 22.3807 12 21.3404V18.0938" stroke="#150A02" stroke-miterlimit="10" stroke-linecap="round" stroke-linejoin="round"/>
</g>
</g>
<defs>
<clipPath id="clip0_3279_9584">
<rect width="24" height="24" fill="white"/>
</clipPath>
</defs>
</svg>
