<svg width="96" height="96" viewBox="0 0 96 96" fill="none" xmlns="http://www.w3.org/2000/svg">
<path d="M47.6985 82.6309C48.2793 82.6357 48.7465 83.1106 48.7405 83.6919L48.6305 94.963C48.6246 95.5426 48.1509 96.008 47.5713 96.0032C46.9906 95.9985 46.5234 95.5236 46.5294 94.9422L46.6393 83.6711C46.6453 83.0916 47.119 82.6261 47.6985 82.6309Z" fill="#F39770"/>
<path d="M23.303 72.2708C23.7107 72.6851 23.7048 73.3514 23.2899 73.758L15.2423 81.6499C14.8286 82.0559 14.164 82.0499 13.7581 81.6368C13.3503 81.2225 13.3562 80.5562 13.7711 80.1496L21.8187 72.2577C22.2324 71.8517 22.8964 71.8577 23.303 72.2708Z" fill="#F39770"/>
<path d="M13.3723 47.6986C13.3676 48.2793 12.8926 48.7465 12.3113 48.7405L1.04024 48.6306C0.460698 48.6252 -0.00471889 48.1509 3.61128e-05 47.5714C0.00479111 46.9906 0.479721 46.5234 1.06105 46.5294L12.3321 46.6393C12.9111 46.6453 13.3771 47.119 13.3723 47.6986Z" fill="#F39770"/>
<path d="M23.7266 23.3001C23.3123 23.7079 22.646 23.7019 22.2394 23.287L14.3475 15.2394C13.9416 14.8256 13.9475 14.1611 14.3606 13.7551C14.7749 13.3474 15.4412 13.3533 15.8478 13.7682L23.7397 21.8159C24.1451 22.229 24.1391 22.8935 23.7266 23.3001Z" fill="#F39770"/>
<path d="M48.3008 13.3724C47.7201 13.3676 47.2529 12.8927 47.2588 12.3114L47.3688 1.04025C47.3742 0.460701 47.8485 -0.00471913 48.428 3.61163e-05C49.0088 0.00479136 49.4759 0.479719 49.47 1.06105L49.36 12.3322C49.3541 12.9111 48.8804 13.3765 48.3008 13.3724Z" fill="#F39770"/>
<path d="M72.6985 23.7247C72.2907 23.3104 72.2967 22.6441 72.7116 22.2375L80.7592 14.3456C81.1729 13.9396 81.8368 13.9455 82.2434 14.3587C82.6512 14.773 82.6452 15.4393 82.2303 15.8459L74.1827 23.7378C73.7696 24.1438 73.1051 24.1378 72.6985 23.7247Z" fill="#F39770"/>
<path d="M82.628 48.3018C82.6327 47.7211 83.1076 47.2539 83.689 47.2598L94.96 47.3698C95.5396 47.3751 96.005 47.8495 96.0002 48.429C95.9955 49.0097 95.5205 49.4769 94.9392 49.471L83.6682 49.361C83.0886 49.3551 82.6232 48.8814 82.628 48.3018Z" fill="#F39770"/>
<path d="M72.2747 72.6985C72.689 72.2907 73.3553 72.2967 73.7619 72.7116L81.6537 80.7592C82.0597 81.1729 82.0538 81.8375 81.6407 82.2434C81.2264 82.6512 80.5601 82.6453 80.1535 82.2304L72.2616 74.1827C71.8556 73.769 71.8616 73.1051 72.2747 72.6985Z" fill="#F39770"/>
<path d="M17 48C17 54.329 18.8768 60.5159 22.393 65.7782C25.9092 71.0406 30.9069 75.1421 36.7541 77.5641C42.6014 79.9861 49.0355 80.6199 55.2429 79.3851C61.4503 78.1504 67.1521 75.1027 71.6274 70.6274C76.1027 66.1521 79.1504 60.4503 80.3851 54.2429C81.6199 48.0355 80.9861 41.6014 78.5641 35.7541C76.1421 29.9069 72.0406 24.9092 66.7782 21.393C61.5159 17.8768 55.329 16 49 16V48H17Z" fill="#FFDDB6"/>
<path d="M17 48C17 54.329 18.8768 60.5159 22.393 65.7782C25.9092 71.0406 30.9069 75.1421 36.7541 77.5641C42.6014 79.9861 49.0355 80.6199 55.2429 79.3851C61.4503 78.1504 67.1521 75.1027 71.6274 70.6274C76.1027 66.1521 79.1504 60.4503 80.3851 54.2429C81.6199 48.0355 80.9861 41.6014 78.5641 35.7541C76.1421 29.9069 72.0406 24.9092 66.7782 21.393C61.5159 17.8768 55.329 16 49 16L49 48L17 48Z" fill="#FFDDB6"/>
<path d="M17 48C17 41.671 18.8768 35.4841 22.393 30.2218C25.9092 24.9594 30.9069 20.8579 36.7541 18.4359C42.6014 16.0139 49.0355 15.3801 55.2429 16.6149C61.4503 17.8496 67.1521 20.8973 71.6274 25.3726C76.1027 29.8479 79.1504 35.5497 80.3851 41.7571C81.6199 47.9645 80.9861 54.3986 78.5641 60.2459C76.1421 66.0931 72.0406 71.0908 66.7782 74.607C61.5159 78.1232 55.329 80 49 80V48H17Z" fill="#F39770"/>
<path d="M21.0235 49.6367C20.7949 44.1103 22.2381 38.6433 25.1646 33.9498C28.0911 29.2562 32.365 25.5543 37.4281 23.3273C42.4911 21.1004 48.1081 20.452 53.5454 21.4668C58.9827 22.4816 63.9876 25.1124 67.9065 29.0157C71.8255 32.919 74.4763 37.9134 75.5128 43.3465C76.5493 48.7797 75.9234 54.3992 73.7167 59.4712C71.5101 64.5431 67.8252 68.8317 63.1434 71.777C58.4617 74.7223 53.0005 76.1873 47.4732 75.9808L47.5928 72.7805C52.4764 72.963 57.3016 71.6686 61.4381 69.0663C65.5747 66.464 68.8304 62.6748 70.7801 58.1935C72.7298 53.7122 73.2829 48.7472 72.367 43.9467C71.4512 39.1462 69.1091 34.7335 65.6465 31.2848C62.184 27.836 57.7619 25.5116 52.9578 24.6149C48.1537 23.7183 43.1909 24.2912 38.7175 26.2588C34.244 28.2264 30.4679 31.4973 27.8821 35.6442C25.2964 39.7912 24.0213 44.6215 24.2233 49.5043L21.0235 49.6367Z" fill="#FFDDB6"/>
</svg>
