<svg width="24" height="24" viewBox="0 0 24 24" fill="none" xmlns="http://www.w3.org/2000/svg">
<g clip-path="url(#clip0_3279_11690)">
<path d="M12.2871 1.25C13.4688 1.25 14.3679 2.31096 14.1738 3.47656L13.6533 6.60352C13.5315 7.33448 14.0948 8 14.8359 8H18.75C20.9591 8 22.75 9.79087 22.75 12V18.75C22.75 20.9591 20.9591 22.75 18.75 22.75H17.25C17.1119 22.75 17 22.6381 17 22.5C17 22.3619 17.1119 22.25 17.25 22.25H18.75C20.683 22.25 22.25 20.683 22.25 18.75V12C22.25 10.067 20.683 8.5 18.75 8.5H14.8359C13.786 8.5 12.9867 7.55716 13.1592 6.52148L13.6807 3.39453C13.824 2.53365 13.1599 1.75 12.2871 1.75C11.926 1.75009 11.5787 1.88848 11.3164 2.13672L5.84277 7.32227C5.14516 7.98323 4.75 8.90227 4.75 9.86328V18.75C4.75 20.683 6.317 22.25 8.25 22.25H13.5C13.6381 22.25 13.75 22.3619 13.75 22.5C13.75 22.6381 13.6381 22.75 13.5 22.75H8.25C6.04087 22.75 4.25 20.9591 4.25 18.75V9.86328C4.25 8.76492 4.70165 7.71439 5.49902 6.95898L10.9717 1.77441H10.9727C11.3278 1.43803 11.7979 1.25009 12.2871 1.25Z" fill="#150A02" stroke="#150A02"/>
<path d="M1.5 8.25C1.91421 8.25 2.25 8.58578 2.25 9V21.75C2.25 22.1642 1.91421 22.5 1.5 22.5C1.08579 22.5 0.75 22.1642 0.75 21.75V9C0.75 8.58578 1.08579 8.25 1.5 8.25Z" fill="#150A02"/>
</g>
<defs>
<clipPath id="clip0_3279_11690">
<rect width="24" height="24" fill="white"/>
</clipPath>
</defs>
</svg>
