<svg width="24" height="24" viewBox="0 0 24 24" fill="none" xmlns="http://www.w3.org/2000/svg">
<path d="M8.05216 14.8919C10.6667 14.8919 12.7862 12.7724 12.7862 10.1579C12.7862 7.54333 10.6667 5.42383 8.05216 5.42383C5.43762 5.42383 3.31812 7.54333 3.31812 10.1579C3.31812 12.7724 5.43762 14.8919 8.05216 14.8919Z" fill="#FCD144"/>
<path d="M24 15.6368C24 18.2489 21.8849 20.3673 19.2727 20.3673H7.37168C4.75952 20.3673 2.64441 18.2489 2.64441 15.6368C2.64441 13.0246 4.75952 10.9062 7.37168 10.9062C7.4529 10.9062 7.53412 10.9095 7.61534 10.9127C8.34307 8.45004 10.6239 6.65332 13.3205 6.65332C16.0204 6.65332 18.2979 8.45004 19.0289 10.9127C19.1101 10.9095 19.1913 10.9062 19.2725 10.9062C21.8849 10.9062 24 13.0246 24 15.6368Z" fill="#B8D6E1"/>
<path d="M23.9999 15.6365C23.9999 18.2485 21.8849 20.3664 19.2729 20.3664H7.37172C6.43172 20.3664 5.55511 20.0922 4.81897 19.6173C5.55909 19.7589 6.32736 19.8332 7.11362 19.8332C13.3248 19.8332 18.3609 15.2118 18.3609 9.51076C18.3609 9.48673 18.3609 9.46153 18.3599 9.4375C18.6461 9.89136 18.873 10.3865 19.0286 10.9127C19.11 10.9087 19.1914 10.9057 19.2726 10.9057C21.8849 10.9057 23.9999 13.0244 23.9999 15.6365Z" fill="#9DB8C9"/>
<path d="M2.21093 10.1366C2.21019 10.2327 2.13162 10.3098 2.03552 10.3089L0.172027 10.2908C0.0762135 10.2899 -0.000731773 10.2115 5.25077e-06 10.1157C0.000742274 10.0196 0.0793093 9.94248 0.175417 9.94337L2.03891 9.9615C2.13472 9.96253 2.21181 10.0408 2.21093 10.1366Z" fill="#F29E25"/>
<path d="M3.92291 6.10264C3.85451 6.17001 3.74425 6.16913 3.67704 6.10044L2.37221 4.76996C2.30514 4.70156 2.30603 4.59175 2.37442 4.52453C2.44282 4.45717 2.55308 4.45805 2.62029 4.52674L3.92512 5.85722C3.99219 5.92561 3.9913 6.03543 3.92291 6.10264Z" fill="#F29E25"/>
<path d="M7.98592 4.46093C7.88982 4.46019 7.81272 4.38163 7.81361 4.28552L7.83174 2.42203C7.83262 2.32622 7.91104 2.24927 8.00685 2.25001C8.10296 2.25074 8.18005 2.32931 8.17917 2.42542L8.16104 4.28891C8.16001 4.38472 8.08174 4.46166 7.98592 4.46093Z" fill="#F29E25"/>
<path d="M12.0198 6.17266C11.9524 6.10427 11.9533 5.99401 12.022 5.92679L13.3525 4.62197C13.4209 4.5549 13.5307 4.55578 13.5979 4.62418C13.6652 4.69257 13.6644 4.80283 13.5957 4.87005L12.2652 6.17488C12.1968 6.24195 12.087 6.24091 12.0198 6.17266Z" fill="#F29E25"/>
</svg>
