<svg width="42" height="42" viewBox="0 0 42 42" fill="none" xmlns="http://www.w3.org/2000/svg">
<path d="M21 42C9.4038 42 0 32.5962 0 21C0 9.4038 9.4038 0 21 0C32.5962 0 42 9.4038 42 21C42 32.5962 32.5962 42 21 42Z" fill="#25D366"/>
<path fill-rule="evenodd" clip-rule="evenodd" d="M30.8241 11.2207C28.2201 8.61248 24.7509 7.17607 21.0591 7.17188C13.4529 7.17188 7.25793 13.3627 7.25793 20.9731C7.25793 23.4049 7.89213 25.7821 9.10173 27.8737L7.14453 35.0263L14.4609 33.1069C16.4769 34.2073 18.7449 34.7869 21.0549 34.7869H21.0591C28.6653 34.7869 34.8561 28.5961 34.8603 20.9857C34.8645 17.2981 33.4323 13.8289 30.8241 11.2207ZM21.0633 32.4559H21.0591C19.0011 32.4559 16.9809 31.9015 15.2211 30.8557L14.8011 30.6079L10.4583 31.7461L11.6175 27.5125L11.3445 27.0799C10.1979 25.2529 9.58893 23.1445 9.58893 20.9731C9.59313 14.6479 14.7381 9.50287 21.0675 9.50287C24.1335 9.50287 27.0105 10.6999 29.1777 12.8671C31.3449 15.0343 32.5377 17.9197 32.5335 20.9815C32.5335 27.3109 27.3843 32.4559 21.0633 32.4559ZM27.3549 23.8627C27.0105 23.6905 25.3137 22.8547 24.9987 22.7413C24.6837 22.6279 24.4527 22.5691 24.2217 22.9135C23.9907 23.2579 23.3313 24.0349 23.1297 24.2659C22.9281 24.4969 22.7265 24.5263 22.3821 24.3541C22.0377 24.1819 20.9247 23.8165 19.6101 22.6405C18.5853 21.7249 17.8923 20.5951 17.6907 20.2507C17.4891 19.9063 17.6697 19.7173 17.8419 19.5451C17.9973 19.3897 18.1863 19.1419 18.3585 18.9403C18.5307 18.7387 18.5895 18.5959 18.7029 18.3649C18.8163 18.1339 18.7617 17.9323 18.6735 17.7601C18.5853 17.5879 17.8965 15.8911 17.6109 15.1981C17.3295 14.5261 17.0481 14.6185 16.8339 14.6059C16.6323 14.5975 16.4013 14.5933 16.1745 14.5933C15.9435 14.5933 15.5697 14.6815 15.2547 15.0259C14.9397 15.3703 14.0493 16.2061 14.0493 17.9029C14.0493 19.5997 15.2841 21.2419 15.4563 21.4687C15.6285 21.6997 17.8881 25.1815 21.3489 26.6767C22.1721 27.0337 22.8147 27.2437 23.3145 27.4033C24.1419 27.6679 24.8937 27.6301 25.4859 27.5419C26.1495 27.4411 27.5271 26.7061 27.8127 25.9039C28.0983 25.0975 28.0983 24.4087 28.0143 24.2659C27.9303 24.1231 27.6993 24.0391 27.3549 23.8627Z" fill="white"/>
</svg>
