<svg width="24" height="24" viewBox="0 0 24 24" fill="none" xmlns="http://www.w3.org/2000/svg">
<path d="M23.1 7.44978C25.385 1.31478 22.71 -1.38522 16.555 0.899778C16.315 0.806445 16.075 0.716445 15.835 0.629778C15.7829 0.581706 15.7212 0.545255 15.6539 0.522842C15.5867 0.50043 15.5155 0.492568 15.445 0.499778C5.79995 -2.39022 -2.92005 7.25978 0.899951 16.5498C-1.36505 22.6298 1.23495 25.4098 7.44495 23.0998C9.46356 23.9308 11.671 24.194 13.8284 23.8609C15.9858 23.5277 18.011 22.611 19.685 21.2098C21.6419 19.5763 23.0277 17.362 23.6418 14.888C24.2558 12.414 24.066 9.80871 23.1 7.44978ZM19.365 20.1598L16.54 17.3348C18.0615 15.8701 19.4041 14.2303 20.54 12.4498C20.885 12.5148 20.88 12.4998 22.995 12.4998C22.9288 13.9536 22.5737 15.3798 21.9505 16.6949C21.3272 18.0101 20.4483 19.1879 19.365 20.1598ZM14.39 22.7348L12.285 20.6348C13.5143 19.8467 14.6841 18.9693 15.785 18.0098L18.575 20.7998C17.3317 21.7321 15.9056 22.3915 14.39 22.7348ZM17.235 3.52478C16.59 2.87978 15.895 3.17478 15.35 3.35478C15.2646 3.37694 15.1745 3.37199 15.092 3.34064C15.0096 3.30928 14.939 3.25307 14.89 3.17978C14.59 2.88478 14.89 2.63978 15.65 1.62478C17.046 2.12394 18.3275 2.89856 19.4183 3.90264C20.5092 4.90672 21.3871 6.11978 22 7.46978C21.4918 8.7301 20.8797 9.94596 20.17 11.1048C18.94 10.0348 19.615 10.7698 17.105 7.69478C16.8531 7.37689 16.7271 6.97735 16.751 6.57247C16.775 6.16758 16.9473 5.78571 17.235 5.49978C17.3673 5.37159 17.4725 5.21812 17.5443 5.04848C17.6161 4.87884 17.6532 4.6965 17.6532 4.51228C17.6532 4.32806 17.6161 4.14571 17.5443 3.97608C17.4725 3.80644 17.3673 3.65297 17.235 3.52478ZM22.535 8.83478C22.8002 9.70032 22.9564 10.5956 23 11.4998H21.12C21.6408 10.6385 22.1132 9.74874 22.535 8.83478ZM22.5 6.15978C21.405 4.20727 19.7925 2.59476 17.84 1.49978C22.16 0.224778 23.775 1.83478 22.5 6.15978ZM14.635 1.31978L14.055 2.09478C13.8566 2.35907 13.7601 2.68594 13.7831 3.01556C13.806 3.34519 13.9469 3.65553 14.18 3.88978C15.275 4.97978 16.11 3.81478 16.525 4.23478C16.5603 4.26925 16.5884 4.31046 16.6076 4.35597C16.6268 4.40148 16.6367 4.45038 16.6367 4.49978C16.6367 4.54917 16.6268 4.59807 16.6076 4.64358C16.5884 4.6891 16.5603 4.7303 16.525 4.76478C16.0597 5.23221 15.7847 5.85579 15.7533 6.51453C15.7219 7.17328 15.9363 7.8202 16.355 8.32978C19.005 11.5798 18.185 10.6798 19.655 11.9698C18.5691 13.6662 17.2869 15.2287 15.835 16.6248L13.37 14.1598C12.9967 13.7929 12.5427 13.5186 12.0443 13.3588C11.5459 13.199 11.017 13.1583 10.5 13.2398C8.96495 13.4998 8.28995 12.3648 7.39995 11.2898C7.30017 11.1681 7.23235 11.0234 7.20266 10.8688C7.17298 10.7143 7.18236 10.5548 7.22995 10.4048C7.41495 9.84478 7.85495 9.80478 8.53495 9.63478C9.53495 9.37978 9.69495 8.80478 10.985 6.53978C11.1845 6.18094 11.2479 5.76212 11.1635 5.36029C11.079 4.95845 10.8524 4.6006 10.5252 4.35248C10.198 4.10436 9.79229 3.98265 9.38257 4.00971C8.97285 4.03677 8.58665 4.21079 8.29495 4.49978L7.69495 5.09978C7.64695 5.14839 7.58258 5.17739 7.51437 5.18114C7.44616 5.18489 7.37899 5.16312 7.32596 5.12006C7.27292 5.07701 7.2378 5.01575 7.22745 4.94823C7.2171 4.8807 7.23225 4.81174 7.26995 4.75478C7.53258 4.36139 7.66516 3.89552 7.64901 3.42279C7.63287 2.95007 7.46881 2.49433 7.17995 2.11978C9.49458 0.988295 12.1329 0.705172 14.635 1.31978ZM6.29995 2.59478L6.43995 2.80478C6.57461 3.01063 6.64634 3.25129 6.64634 3.49728C6.64634 3.74327 6.57461 3.98392 6.43995 4.18978C6.27614 4.43575 6.20211 4.73066 6.23035 5.02483C6.25858 5.31901 6.38735 5.59446 6.59495 5.80478C6.84096 6.03321 7.16424 6.16016 7.49995 6.16016C7.83566 6.16016 8.15895 6.03321 8.40495 5.80478L9.00495 5.20478C9.10382 5.10729 9.22927 5.04117 9.36557 5.0147C9.50186 4.98823 9.64294 5.0026 9.77111 5.056C9.89927 5.1094 10.0088 5.19946 10.086 5.31488C10.1632 5.4303 10.2046 5.56593 10.205 5.70478C10.205 5.96478 10.205 5.88978 8.86995 8.20478C8.61995 8.64478 8.21495 8.66978 7.63495 8.80978C7.21904 8.9136 6.84983 9.15362 6.58614 9.49161C6.32246 9.82959 6.17947 10.2461 6.17995 10.6748C6.17995 11.5698 6.67995 11.9698 7.58995 13.0748C8.90495 14.6498 10.66 14.1848 11.035 14.1848C12.3 14.1848 12.69 14.8848 15.095 17.2848C13.9847 18.2435 12.803 19.116 11.56 19.8948C11.105 19.4398 11.485 19.5398 8.68995 19.5398C8.56643 19.504 8.43855 19.4855 8.30995 19.4848C7.55495 19.4848 8.48495 17.7648 7.61495 16.8898C2.15495 11.4448 2.49995 11.8498 2.49995 11.6648C2.49995 7.32978 2.49995 6.62478 2.49995 6.49978C3.42063 4.9012 4.72705 3.55868 6.29995 2.59478ZM1.49995 8.71978C1.49995 11.7998 1.37495 12.0798 1.88495 12.5948C7.34495 18.0548 6.99995 17.6498 6.99995 17.8348V19.1898C7.00127 19.5368 7.13971 19.8692 7.3851 20.1146C7.63048 20.36 7.96292 20.4985 8.30995 20.4998C8.58995 20.4998 7.70495 20.5548 10.485 20.5548C9.52109 21.1139 8.51854 21.6035 7.48495 22.0198C5.03517 20.9163 3.07396 18.9544 1.97139 16.5043C0.868812 14.0541 0.701118 11.2851 1.49995 8.71978ZM1.49995 17.8398C2.59493 19.7923 4.20744 21.4048 6.15995 22.4998C1.83495 23.7748 0.224951 22.1648 1.49995 17.8398ZM8.81495 22.5348C9.69803 22.1267 10.5592 21.6727 11.395 21.1748L13.155 22.9348C11.7027 23.0905 10.2339 22.9545 8.83495 22.5348H8.81495Z" fill="#5E9B87"/>
</svg>
